<svg width="32" height="32" viewBox="0 0 32 32" fill="none" xmlns="http://www.w3.org/2000/svg">
<g clip-path="url(#clip0_1235_2)">
<path d="M31.2933 8.50938C31.1097 7.83107 30.7517 7.21268 30.2548 6.71579C29.7579 6.21889 29.1396 5.86083 28.4613 5.67725C25.978 5 15.9838 5 15.9838 5C15.9838 5 5.98902 5.0205 3.50577 5.69775C2.82746 5.88134 2.20908 6.23942 1.7122 6.73634C1.21533 7.23326 0.857302 7.85167 0.673774 8.53C-0.077351 12.9423 -0.368726 19.6655 0.694399 23.9013C0.877946 24.5796 1.23598 25.1979 1.73285 25.6948C2.22973 26.1917 2.8481 26.5498 3.5264 26.7334C6.00965 27.4106 16.0042 27.4106 16.0042 27.4106C16.0042 27.4106 25.9985 27.4106 28.4816 26.7334C29.16 26.5498 29.7784 26.1918 30.2753 25.6949C30.7722 25.198 31.1302 24.5796 31.3138 23.9013C32.106 19.4828 32.3501 12.7636 31.2933 8.50938Z" fill="#FF0000"/>
<path d="M12.8027 21.0068L21.0937 16.2046L12.8027 11.4023V21.0068Z" fill="white"/>
</g>
<defs>
<clipPath id="clip0_1235_2">
<rect width="32" height="22.5" fill="white" transform="translate(0 5)"/>
</clipPath>
</defs>
</svg>
