<svg width="24" height="18" viewBox="0 0 24 18" fill="none" xmlns="http://www.w3.org/2000/svg">
<path d="M0.348633 2.87939C0.0383356 2.49464 0.0186544 1.87994 0.290039 1.46631L0.348633 1.38623C0.511822 1.18391 0.72065 1.08838 0.923828 1.08838C1.1015 1.0885 1.28361 1.16114 1.43555 1.31494L1.49805 1.38623L11.9229 14.312L12 14.4087L12.0781 14.312L22.501 1.38721C22.6641 1.1849 22.873 1.08941 23.0762 1.08936C23.254 1.08936 23.4358 1.16296 23.5879 1.31689L23.6514 1.38721C23.8148 1.5898 23.9003 1.86002 23.9004 2.1333C23.9004 2.3728 23.8352 2.60933 23.709 2.80029L23.6514 2.87939L12.5752 16.6138C12.412 16.8161 12.2031 16.9126 12 16.9126C11.8223 16.9126 11.6403 16.8388 11.4883 16.6851L11.4248 16.6138L0.348633 2.87939Z" fill="#4D4D4D" stroke="white" stroke-width="0.2"/>
</svg>
