<svg width="96" height="72" viewBox="0 0 96 72" fill="none" xmlns="http://www.w3.org/2000/svg">
<path d="M82.8921 55.4053C83.0528 55.4326 83.2181 55.4545 83.3762 55.4921C82.9683 55.7082 82.5338 55.8669 82.1008 56.0331C82.141 55.9102 82.2011 55.7955 82.257 55.6783C82.4749 55.5959 82.6908 55.5198 82.8921 55.4053Z" fill="#3AA236"/>
<path d="M84.0033 56.4998C84.8273 56.4913 86.897 56.3363 87.4785 56.8457C87.6211 56.9707 87.6906 57.14 87.6896 57.3212C87.6884 57.5439 87.6081 57.8569 87.4192 58.0072C87.1996 58.1821 86.8381 58.1159 86.5778 58.0839C85.6697 58.0363 84.7507 58.0853 83.8402 58.0596C83.8535 58.0504 83.8665 58.041 83.8798 58.032C84.2026 57.8136 84.3446 57.6094 84.5144 57.2826C84.411 57.0666 84.2217 56.6041 84.0033 56.4998Z" fill="#FD8A0A"/>
<path d="M8.68231 58.0629C8.41225 58.0814 8.02757 58.1215 7.8031 57.9557C7.64219 57.8368 7.51962 57.6102 7.51427 57.4191C7.50791 57.189 7.61314 56.9072 7.78827 56.7422C7.94152 56.5978 8.15973 56.5717 8.36695 56.5479C9.04419 56.4704 9.75119 56.5177 10.4329 56.5212L14.0782 56.5322C14.2381 56.5501 14.4002 56.5743 14.5607 56.5852C14.5275 57.0824 14.5933 57.5787 14.5489 58.0745C12.5983 58.1372 10.6254 57.96 8.68231 58.0629Z" fill="#F7B35C"/>
<path d="M15.3531 26.0002L18.7415 25.9973C19.5259 25.997 20.3267 25.9686 21.1063 26.0544L21.0928 28.5603C21.0882 28.8701 21.0145 29.2679 21.068 29.5645C20.8185 30.1707 20.4676 30.6939 19.8775 31.0636C19.1502 31.5191 18.2225 31.6531 17.3702 31.4868C16.6631 31.3489 16.0256 30.9827 15.6393 30.4045C15.467 30.1465 15.3637 29.8684 15.3067 29.5703C15.1684 28.8476 15.173 26.7155 15.3531 26.0002Z" fill="#AD3C37"/>
<path d="M79.9182 26.0893C80.0555 26.9732 80.0727 28.9632 79.8436 29.8022C79.7517 30.1386 79.5776 30.4583 79.3538 30.7351C79.3228 30.7733 79.2908 30.8107 79.2577 30.8473C79.2247 30.8839 79.1907 30.9198 79.1558 30.9549C79.1208 30.9899 79.0849 31.0241 79.048 31.0575C79.0112 31.0908 78.9735 31.1233 78.9349 31.155C78.8963 31.1865 78.8569 31.2172 78.8167 31.2469C78.7765 31.2767 78.7354 31.3055 78.6936 31.3333C78.6518 31.3612 78.6093 31.388 78.5661 31.4138C78.5228 31.4397 78.4789 31.4645 78.4343 31.4882C78.3897 31.512 78.3445 31.5347 78.2987 31.5563C78.2529 31.578 78.2066 31.5986 78.1596 31.618C78.1127 31.6375 78.0653 31.6559 78.0174 31.6731C77.9694 31.6904 77.9211 31.7065 77.8723 31.7215C77.8235 31.7364 77.7743 31.7503 77.7247 31.763C77.6752 31.7756 77.6254 31.7871 77.5752 31.7975C77.525 31.8078 77.4746 31.8169 77.424 31.8249C77.3733 31.8329 77.3225 31.8397 77.2714 31.8453C77.2245 31.8507 77.1775 31.855 77.1304 31.8582C77.0832 31.8614 77.0361 31.8634 76.9888 31.8645C76.9416 31.8655 76.8944 31.8654 76.8471 31.8643C76.7999 31.8631 76.7527 31.8608 76.7056 31.8575C76.6585 31.8541 76.6115 31.8497 76.5646 31.8443C76.5178 31.8387 76.471 31.8321 76.4245 31.8244C76.378 31.8168 76.3316 31.8081 76.2856 31.7982C76.2396 31.7884 76.1938 31.7776 76.1483 31.7657C76.1028 31.7538 76.0577 31.7408 76.0129 31.7268C75.9681 31.7128 75.9237 31.6978 75.8797 31.6817C75.8357 31.6657 75.7921 31.6487 75.7491 31.6306C75.706 31.6125 75.6634 31.5935 75.6213 31.5735C75.5792 31.5535 75.5377 31.5325 75.4968 31.5106C75.4558 31.4886 75.4155 31.4657 75.3757 31.4419C75.336 31.4181 75.2969 31.3934 75.2585 31.3678C75.22 31.3422 75.1823 31.3157 75.1453 31.2884C74.5845 30.8759 74.286 30.3694 74.0812 29.7443C74.1204 29.6134 74.0881 29.557 74.0507 29.4279C74.1342 28.3168 74.1763 27.1965 74.0523 26.0862C76.0108 26.0769 77.9589 26.0349 79.9182 26.0893Z" fill="#AD3C37"/>
<path d="M86.4202 46.5236C87.8635 46.8411 89.08 47.5098 89.8669 48.7111C89.9081 48.7755 89.9477 48.8407 89.9855 48.9069C90.0233 48.9731 90.0593 49.0401 90.0936 49.1079C90.1279 49.1757 90.1604 49.2442 90.1911 49.3136C90.2217 49.3828 90.2505 49.4528 90.2775 49.5233C90.3045 49.594 90.3297 49.6652 90.353 49.7369C90.3762 49.8087 90.3976 49.8809 90.417 49.9536C90.4365 50.0263 90.454 50.0994 90.4697 50.173C90.4853 50.2465 90.499 50.3203 90.5108 50.3945C90.5225 50.4687 90.5322 50.543 90.5401 50.6176C90.548 50.6922 90.5539 50.767 90.5578 50.8419C90.5617 50.9167 90.5636 50.9916 90.5635 51.0666C90.5635 51.1415 90.5615 51.2164 90.5576 51.2913C90.5536 51.3661 90.5477 51.4409 90.5398 51.5155C90.5319 51.5901 90.5221 51.6644 90.5104 51.7386C90.4985 51.8127 90.4848 51.8865 90.4691 51.96C90.4534 52.0335 90.4358 52.1067 90.4163 52.1794C90.3958 52.2548 90.3732 52.3297 90.3487 52.4041C90.3242 52.4785 90.2978 52.5523 90.2694 52.6255C90.2411 52.6987 90.2108 52.7712 90.1785 52.843C90.1464 52.9148 90.1124 52.9859 90.0764 53.0562C90.0405 53.1264 90.0028 53.1959 89.9632 53.2644C89.9236 53.333 89.8823 53.4006 89.8392 53.4673C89.7961 53.5339 89.7512 53.5995 89.7047 53.6642C89.6581 53.7288 89.6099 53.7924 89.56 53.8548C89.5101 53.9172 89.4586 53.9785 89.4056 54.0386C89.3524 54.0987 89.2977 54.1575 89.2415 54.2151C89.1854 54.2727 89.1277 54.329 89.0685 54.384C89.0094 54.4389 88.9488 54.4925 88.8868 54.5447C88.8249 54.597 88.7616 54.6478 88.6969 54.6971C88.6323 54.7464 88.5664 54.7942 88.4993 54.8406C88.4321 54.8869 88.3638 54.9317 88.2943 54.9749C88.2248 55.0181 88.1543 55.0597 88.0826 55.0998C86.6022 55.914 84.9965 55.8356 83.3762 55.4921C83.2181 55.4545 83.0528 55.4326 82.8921 55.4053C83.0633 55.1039 83.6833 54.9382 83.9891 54.7307C84.4085 54.446 84.7784 54.0163 85.0894 53.6337C86.3548 52.0764 86.8775 50.3562 86.6697 48.4129C86.6258 48.0023 86.3258 46.8992 86.4007 46.5773C86.405 46.5589 86.4137 46.5416 86.4202 46.5236Z" fill="#1E7225"/>
<path d="M68.0782 16.0952C69.8489 16.118 71.6196 16.1322 73.3905 16.1377L77.4222 22.237C77.9973 23.0929 78.5805 23.9427 79.1408 24.8072C79.4099 25.2226 79.7135 25.6431 79.9182 26.0893C77.9589 26.0349 76.0108 26.0769 74.0523 26.0862L74.0171 26.0724C73.5472 24.9243 72.3971 23.2854 71.7136 22.1805C70.9063 20.8758 70.166 19.5359 69.3636 18.229C68.9374 17.5348 68.4125 16.8317 68.0782 16.0952Z" fill="#F35E56"/>
<path d="M81.0384 40.352C82.1332 40.2355 83.525 40.7583 84.3743 41.3834C85.5046 42.2152 86.1014 43.3454 86.2615 44.6667C86.2983 44.9702 86.2607 46.3433 86.3723 46.5124L86.4202 46.5236C86.4137 46.5416 86.405 46.5589 86.4007 46.5773C86.3258 46.8992 86.6258 48.0023 86.6697 48.4129C86.8775 50.3562 86.3548 52.0764 85.0894 53.6337C84.7784 54.0163 84.4085 54.446 83.9891 54.7307C83.6833 54.9382 83.0633 55.1039 82.8921 55.4053C82.6908 55.5198 82.4749 55.5959 82.257 55.6783C82.2011 55.7955 82.141 55.9102 82.1008 56.0331C82.0142 56.1635 81.8928 56.3043 81.8929 56.4623L81.976 56.5012C81.6869 56.5589 81.3679 56.5324 81.0728 56.5303C81.0872 56.3818 81.0918 56.2355 81.0936 56.0864L81.1211 56.0215C81.1252 55.0276 81.1223 54.0339 81.1124 53.0401C81.2926 52.5644 81.6411 52.152 81.8101 51.6643C81.8643 51.5078 81.915 51.3603 81.83 51.2101L81.7126 51.2085C81.5088 51.3181 81.3653 51.444 81.2012 51.5982C81.0219 51.0029 81.1273 49.8381 81.1274 49.1731C81.1277 48.3471 81.1955 40.5897 81.1229 40.4435C81.0881 40.3733 81.0892 40.3803 81.0384 40.352Z" fill="#268428"/>
<path d="M81.1211 56.0215C81.3369 55.7707 81.7772 55.163 82.1228 55.0916C82.1993 55.0757 82.2177 55.1138 82.2744 55.1537C82.3431 55.329 82.2903 55.5001 82.257 55.6783C82.2011 55.7955 82.141 55.9102 82.1008 56.0331C82.0142 56.1635 81.8928 56.3043 81.8929 56.4623L81.976 56.5012C81.6869 56.5589 81.3679 56.5324 81.0728 56.5303C81.0872 56.3818 81.0918 56.2355 81.0936 56.0864L81.1211 56.0215Z" fill="#8D352E"/>
<path d="M75.8891 46.4531C75.7648 44.9205 75.9685 43.3627 77.0487 42.1373C78.0636 40.986 79.4818 40.4854 81.0384 40.352C81.0892 40.3803 81.0881 40.3733 81.1229 40.4435C81.1955 40.5897 81.1277 48.3471 81.1274 49.1731C81.1273 49.8381 81.0219 51.0029 81.2012 51.5982C81.3653 51.444 81.5088 51.3181 81.7126 51.2085L81.83 51.2101C81.915 51.3603 81.8643 51.5078 81.8101 51.6643C81.6411 52.152 81.2926 52.5644 81.1124 53.0401C81.1223 54.0339 81.1252 55.0276 81.1211 56.0215L81.0936 56.0864C80.154 55.9717 79.363 55.4845 78.6814 54.9014C77.4929 55.608 76.3907 55.9103 74.9807 55.6291C74.608 55.5547 74.2818 55.431 73.9413 55.274C73.877 54.9052 73.9143 54.4979 73.9164 54.1237C73.916 51.4349 73.8927 48.7435 73.9281 46.055C73.9686 46.3668 73.9543 46.6987 73.9618 47.0136C74.5966 46.758 75.2179 46.5962 75.8891 46.4531Z" fill="#3AA236"/>
<path d="M79.4218 51.5799C79.4125 51.431 79.3818 51.2192 79.4653 51.0872C79.5052 51.0238 79.5485 51.0323 79.6186 51.0156C80.1198 51.1719 80.63 51.8184 81.0066 52.1625C81.057 51.9684 81.1268 51.7852 81.2012 51.5982C81.3653 51.444 81.5088 51.3181 81.7126 51.2085L81.83 51.2101C81.915 51.3603 81.8643 51.5078 81.8101 51.6643C81.6411 52.152 81.2926 52.5644 81.1124 53.0401L80.2082 52.2484C79.9692 52.0057 79.6889 51.7955 79.4218 51.5799Z" fill="#8D352E"/>
<path d="M79.4218 51.5799C79.6889 51.7955 79.9692 52.0057 80.2082 52.2484L81.1124 53.0401C81.1223 54.0339 81.1252 55.0276 81.1211 56.0215L81.0936 56.0864C80.154 55.9717 79.363 55.4845 78.6814 54.9014C77.4929 55.608 76.3907 55.9103 74.9807 55.6291C74.608 55.5547 74.2818 55.431 73.9413 55.274C73.877 54.9052 73.9143 54.4979 73.9164 54.1237C75.1337 54.2357 76.2798 54.3303 77.4117 53.8008C78.3988 53.3389 79.0829 52.549 79.4218 51.5799Z" fill="#268428"/>
<path d="M80.2082 52.2484L81.1124 53.0401C81.1223 54.0339 81.1252 55.0276 81.1211 56.0215L81.0936 56.0864C80.154 55.9717 79.363 55.4845 78.6814 54.9014C79.6086 54.1908 79.9303 53.2957 80.2082 52.2484Z" fill="#3AA236"/>
<path d="M31.384 1.34429C31.3927 0.984951 31.3549 0.317091 31.6443 0.0505668C32.3477 -0.0454458 33.1489 0.0247322 33.8656 0.0249201L38.475 0.0256712L54.8948 0.0461516C55.9444 0.048876 63.4197 -0.0462904 63.7014 0.115484C64.0104 0.54585 63.8805 1.42236 63.8687 1.9323C63.8761 2.42526 63.8703 2.91807 63.8512 3.41072L62.5149 3.40819C61.5621 3.39071 60.6118 3.43261 59.6576 3.40349L34.1844 3.39165L32.9467 3.36385C32.4344 3.34299 31.9165 3.35765 31.4035 3.35802L31.3949 2.03959L31.384 1.34429Z" fill="#F35E56"/>
<path d="M31.384 1.34429L63.841 1.33734C63.8368 1.54074 63.8233 1.7476 63.8345 1.95062L63.7991 2.10394C63.731 2.13419 63.6766 2.15016 63.6001 2.14885C60.9353 2.08903 58.2702 2.07861 55.6049 2.11756L36.9008 2.13729C36.1347 2.1372 31.8253 2.2147 31.4536 2.11221L31.3949 2.03959L31.384 1.34429Z" fill="#EF3A39"/>
<path d="M63.8345 1.95062L63.8687 1.9323C63.8761 2.42526 63.8703 2.91807 63.8512 3.41072L62.5149 3.40819C61.5621 3.39071 60.6118 3.43261 59.6576 3.40349L34.1844 3.39165L32.9467 3.36385C32.4344 3.34299 31.9165 3.35765 31.4035 3.35802L31.3949 2.03959L31.4536 2.11221C31.8253 2.2147 36.1347 2.1372 36.9008 2.13729L55.6049 2.11756C58.2702 2.07861 60.9353 2.08903 63.6001 2.14885C63.6766 2.15016 63.731 2.13419 63.7991 2.10394L63.8345 1.95062Z" fill="#AD3C37"/>
<path d="M73.9413 55.274C74.2818 55.431 74.608 55.5547 74.9807 55.6291C76.3907 55.9103 77.4929 55.608 78.6814 54.9014C79.363 55.4845 80.154 55.9717 81.0936 56.0864C81.0918 56.2355 81.0872 56.3818 81.0728 56.5303C81.3679 56.5324 81.6869 56.5589 81.976 56.5012C82.6525 56.4812 83.3266 56.4892 84.0033 56.4998C84.2217 56.6041 84.411 57.0666 84.5144 57.2826C84.3446 57.6094 84.2026 57.8136 83.8798 58.032C83.8665 58.041 83.8535 58.0504 83.8402 58.0596C84.7507 58.0853 85.6697 58.0363 86.5778 58.0839C86.5739 58.3173 86.6008 58.5922 86.5454 58.8189C86.5286 59.1988 86.5763 59.7825 86.4471 60.133C86.3719 61.1861 86.3028 62.2396 86.2398 63.2934C86.1928 63.9951 86.1149 64.7066 86.1213 65.4095C84.4091 65.2919 82.6476 65.4069 80.9275 65.4036C79.9383 65.3933 77.0129 65.5192 76.26 65.3435C76.2656 64.5518 76.1743 63.7576 76.1286 62.9671C75.3587 62.953 74.5891 62.9174 73.8189 62.9388C72.8289 62.9599 71.8347 62.915 70.8458 62.9612C70.8087 62.3593 70.8407 61.7401 70.8416 61.1365L70.8395 58.6943L73.8487 58.6954C73.9679 57.5878 74.0284 56.3855 73.9413 55.274ZM73.9413 55.274C74.0284 56.3855 73.9679 57.5878 73.8487 58.6954L70.8395 58.6943L70.8416 61.1365C70.8407 61.7401 70.8087 62.3593 70.8458 62.9612C71.8347 62.915 72.8289 62.9599 73.8189 62.9388C74.5891 62.9174 75.3587 62.953 76.1286 62.9671C75.9566 62.0394 75.9211 61.0311 75.8598 60.0896C75.7563 59.7325 75.788 59.241 75.7619 58.8651C75.6868 58.6843 75.6992 58.3367 75.6811 58.1356C76.7993 58.0959 77.9184 58.1092 79.0372 58.0965C79.5865 58.0902 80.4117 57.9957 80.927 58.1063C81.803 58.1705 82.9773 58.1945 83.8402 58.0596C83.8535 58.0504 83.8665 58.041 83.8798 58.032C84.2026 57.8136 84.3446 57.6094 84.5144 57.2826C84.411 57.0666 84.2217 56.6041 84.0033 56.4998C83.3266 56.4892 82.6525 56.4812 81.976 56.5012C81.6869 56.5589 81.3679 56.5324 81.0728 56.5303C81.0872 56.3818 81.0918 56.2355 81.0936 56.0864C80.154 55.9717 79.363 55.4845 78.6814 54.9014C77.4929 55.608 76.3907 55.9103 74.9807 55.6291C74.608 55.5547 74.2818 55.431 73.9413 55.274Z" fill="#FD8A0A"/>
<path d="M83.8402 58.0596C84.7507 58.0853 85.6697 58.0363 86.5778 58.0839C86.5739 58.3173 86.6008 58.5922 86.5454 58.8189C86.5286 59.1988 86.5763 59.7825 86.4471 60.133L86.3905 60.0197C85.9154 59.8965 85.0274 59.9829 84.5152 59.9836C83.3198 59.9954 82.1246 59.9873 80.9295 59.9592L80.9284 58.7845C79.9789 58.7939 79.0304 58.7552 78.0809 58.7474C77.7459 58.7447 75.9336 58.7078 75.7619 58.8651C75.6868 58.6843 75.6992 58.3367 75.6811 58.1356C76.7993 58.0959 77.9184 58.1092 79.0372 58.0965C79.5865 58.0902 80.4117 57.9957 80.927 58.1063C81.803 58.1705 82.9773 58.1945 83.8402 58.0596Z" fill="#C67B51"/>
<path d="M83.8402 58.0596C84.7507 58.0853 85.6697 58.0363 86.5778 58.0839C86.5739 58.3173 86.6008 58.5922 86.5454 58.8189C86.3106 58.7419 81.672 58.7975 80.9629 58.7855L80.927 58.1063C81.803 58.1705 82.9773 58.1945 83.8402 58.0596Z" fill="#B85F45"/>
<path d="M75.8598 60.0896L75.9035 60.0267L75.902 59.9391L75.9154 60.0341L75.9759 60.0077L75.9931 60.0315C76.0167 60.0223 76.039 60.0093 76.0639 60.0037C76.3821 59.9322 77.2446 60.0048 77.6133 60.0042C78.7169 59.9966 79.8203 59.9815 80.9236 59.9589C80.9839 61.7764 80.9156 63.5866 80.9275 65.4036C79.9383 65.3933 77.0129 65.5192 76.26 65.3435C76.2656 64.5518 76.1743 63.7576 76.1286 62.9671C75.9566 62.0394 75.9211 61.0311 75.8598 60.0896Z" fill="#F7B35C"/>
<path d="M70.8395 58.6943L73.8487 58.6954C73.7317 60.0888 73.8153 61.5401 73.8189 62.9388C72.8289 62.9599 71.8347 62.915 70.8458 62.9612C70.8087 62.3593 70.8407 61.7401 70.8416 61.1365L70.8395 58.6943Z" fill="#AD3C37"/>
<path d="M81.976 56.5012C82.6525 56.4812 83.3266 56.4892 84.0033 56.4998C84.2217 56.6041 84.411 57.0666 84.5144 57.2826C84.3446 57.6094 84.2026 57.8136 83.8798 58.032C83.8665 58.041 83.8535 58.0504 83.8402 58.0596C82.9773 58.1945 81.803 58.1705 80.927 58.1063C80.4117 57.9957 79.5865 58.0902 79.0372 58.0965C77.9184 58.1092 76.7993 58.0959 75.6811 58.1356C75.4402 58.1322 75.1968 58.0779 75.007 57.9349C74.8359 57.806 74.7034 57.6216 74.6896 57.4127C74.674 57.178 74.7979 56.914 74.9805 56.7534C75.1463 56.6077 75.4825 56.5614 75.6989 56.5368C76.3151 56.4666 76.9924 56.5206 77.616 56.5243L81.0728 56.5303C81.3679 56.5324 81.6869 56.5589 81.976 56.5012Z" fill="#F7B35C"/>
<path d="M34.1844 3.39165L59.6576 3.40349C59.6149 3.66071 59.5722 3.91399 59.5035 4.16652C59.4341 4.36221 59.3626 4.55724 59.3037 4.75603C59.4784 4.75518 59.6702 4.72916 59.8298 4.79887L59.2468 4.8108L42.8865 4.82536C40.2098 4.82761 37.5233 4.78985 34.8474 4.83786L34.8235 12.1805C38.9536 12.094 43.1024 12.1295 47.2342 12.1323C47.1297 12.4985 46.798 12.9225 46.5172 13.194C45.915 13.3211 43.6623 13.2285 42.929 13.228C39.5837 13.225 36.2264 13.1726 32.8828 13.2339L32.9318 13.4902C32.885 13.9778 32.9516 14.4854 32.8679 14.9661C32.8522 15.345 32.8479 15.7154 32.8733 16.094C32.4445 16.0657 32.0162 16.0735 31.5867 16.0773C30.1005 16.1412 28.5842 16.0849 27.0948 16.0862C25.3915 16.1376 23.6997 16.1261 21.9963 16.0887C21.8397 16.3221 21.6889 16.5795 21.5067 16.7955C21.323 15.5371 21.4559 14.0195 21.4579 12.7323L21.444 12.0822C21.1141 12.1136 20.7658 12.0963 20.4334 12.0984L20.4345 11.4374C20.4488 10.6574 20.4436 9.87635 20.4475 9.09632L32.934 9.09068C32.8672 7.35231 32.9457 5.58895 32.9445 3.84814L32.9467 3.36385L34.1844 3.39165Z" fill="#315886"/>
<path d="M20.4345 11.4374L32.908 11.4364L32.9056 12.0473L25.1373 12.046C23.9114 12.0509 22.6668 12.0131 21.444 12.0822C21.1141 12.1136 20.7658 12.0963 20.4334 12.0984L20.4345 11.4374Z" fill="#233D70"/>
<path d="M21.444 12.0822C22.6668 12.0131 23.9114 12.0509 25.1373 12.046L32.9056 12.0473L32.888 12.6578L25.3363 12.7454C24.0573 12.7487 22.7308 12.6662 21.4579 12.7323L21.444 12.0822Z" fill="#AD3C37"/>
<path d="M32.888 12.6578L32.8828 13.2339L32.9318 13.4902C32.885 13.9778 32.9516 14.4854 32.8679 14.9661C32.8522 15.345 32.8479 15.7154 32.8733 16.094C32.4445 16.0657 32.0162 16.0735 31.5867 16.0773C30.1005 16.1412 28.5842 16.0849 27.0948 16.0862C25.3915 16.1376 23.6997 16.1261 21.9963 16.0887C21.8397 16.3221 21.6889 16.5795 21.5067 16.7955C21.323 15.5371 21.4559 14.0195 21.4579 12.7323C22.7308 12.6662 24.0573 12.7487 25.3363 12.7454L32.888 12.6578Z" fill="#B85F45"/>
<path d="M24.1805 13.6082C24.8486 13.5821 25.5242 13.6161 26.1934 13.6165C26.9939 13.6171 27.8321 13.5422 28.6209 13.6854C28.7918 13.8178 28.9931 13.9674 29.0101 14.1908C29.0313 14.469 28.7371 14.6939 28.5462 14.8726C27.9009 15.0438 25.143 14.9686 24.427 14.8905C24.2096 14.8668 24.0406 14.8298 23.9073 14.6548C23.7908 14.502 23.7536 14.3129 23.7852 14.1299C23.8267 13.8882 23.9814 13.752 24.1805 13.6082Z" fill="#8D352E"/>
<path d="M31.5867 16.0773C32.0162 16.0735 32.4445 16.0657 32.8733 16.094C34.0412 16.2317 35.3176 16.136 36.4967 16.1284C35.6403 18.5212 34.7034 20.8906 33.8304 23.279C33.5111 24.1524 33.0127 25.0945 32.8844 26.0049L32.8609 26.0382C31.9412 25.9514 31.0029 26.0215 30.0808 26.0246C29.0342 26.028 27.9982 25.9874 26.9508 26.034L26.9216 26.002C25.1298 26.1329 22.9762 26.019 21.149 26.0232L21.1063 26.0544C20.3267 25.9686 19.5259 25.997 18.7415 25.9973L15.3531 26.0002C15.8492 25.1506 16.483 24.3296 17.0397 23.5116C18.0695 22.0046 19.0872 20.4906 20.0929 18.9695C20.5513 18.2874 21.2487 17.567 21.5067 16.7955C21.6889 16.5795 21.8397 16.3221 21.9963 16.0887C23.6997 16.1261 25.3915 16.1376 27.0948 16.0862C28.5842 16.0849 30.1005 16.1412 31.5867 16.0773Z" fill="#F35E56"/>
<path d="M27.0948 16.0862C28.5842 16.0849 30.1005 16.1412 31.5867 16.0773C31.1588 17.1197 30.6384 18.1208 30.158 19.142C29.5 20.5405 28.8686 21.9504 28.2003 23.3446C27.7779 24.2259 27.2721 25.0939 26.9216 26.002C25.1298 26.1329 22.9762 26.019 21.149 26.0232C21.4956 24.9518 22.3313 23.9663 22.9237 22.9961C24.3248 20.7012 25.7474 18.4084 27.0948 16.0862Z" fill="#FDF9D2"/>
<path d="M31.5867 16.0773C32.0162 16.0735 32.4445 16.0657 32.8733 16.094C34.0412 16.2317 35.3176 16.136 36.4967 16.1284C35.6403 18.5212 34.7034 20.8906 33.8304 23.279C33.5111 24.1524 33.0127 25.0945 32.8844 26.0049L32.8609 26.0382C31.9412 25.9514 31.0029 26.0215 30.0808 26.0246C29.0342 26.028 27.9982 25.9874 26.9508 26.034L26.9216 26.002C27.2721 25.0939 27.7779 24.2259 28.2003 23.3446C28.8686 21.9504 29.5 20.5405 30.158 19.142C30.6384 18.1208 31.1588 17.1197 31.5867 16.0773Z" fill="#F35E56"/>
<path d="M34.8474 4.83786C37.5233 4.78985 40.2098 4.82761 42.8865 4.82536L59.2468 4.8108C59.1976 5.70967 58.4716 6.50605 58.2888 7.39121C57.4657 8.31629 56.5947 9.20492 55.7336 10.0994C55.074 10.7844 54.429 11.4906 53.7196 12.1317C53.0801 12.0678 52.4062 12.1044 51.7617 12.1041C50.2528 12.1033 48.742 12.1468 47.2342 12.1323C43.1024 12.1295 38.9536 12.094 34.8235 12.1805L34.8474 4.83786Z" fill="#FAE777"/>
<path d="M36.7448 5.81959C37.3911 5.78765 39.3289 5.68675 39.7431 6.0817C39.8235 6.15854 39.8666 6.2617 39.8707 6.36814C39.8947 7.01392 38.4703 8.16137 37.9705 8.62678C37.6591 8.95963 37.2246 9.46919 36.7498 9.58869C36.5875 9.62956 36.4427 9.61114 36.3021 9.52096C36.1308 9.41104 36.0436 9.16922 36.0047 8.98913C35.9009 8.50822 35.8398 6.30021 36.1458 5.99085C36.2829 5.85219 36.5587 5.83885 36.7448 5.81959Z" fill="#FEFEFE"/>
<path d="M9.09282 46.4902C9.03155 46.2533 8.9884 46.0136 8.96338 45.7711C8.93843 45.5286 8.93184 45.2857 8.94361 45.0423C9.00505 43.8036 9.56284 42.689 10.5474 41.854C11.5377 41.0141 12.9089 40.5278 14.252 40.5858C15.7107 40.673 17.0386 41.1753 18.0181 42.2114C18.8879 43.1315 19.2561 44.2928 19.1634 45.5055C19.1457 45.7379 18.9838 46.3312 19.093 46.5124C19.1802 46.5435 19.2627 46.5723 19.3541 46.5905C20.1584 46.7205 20.785 46.9839 21.4478 47.4234L21.4493 52.6286C21.4495 53.4914 21.4939 54.3772 21.4433 55.2376C21.1973 55.2486 20.6694 55.5605 20.3795 55.6324C18.6862 56.0532 16.8354 55.7336 15.3504 54.9184L15.3392 56.5457C15.6372 56.5442 15.9377 56.5354 16.2354 56.5441C15.6849 56.6075 15.1151 56.5801 14.5607 56.5852C14.4002 56.5743 14.2381 56.5501 14.0782 56.5322C14.083 56.2659 14.0925 55.9997 14.1069 55.7337C12.3354 55.7198 10.5006 55.9108 8.749 55.5925C7.3465 55.3376 6.41937 54.725 5.62808 53.6317C5.31024 53.2664 5.09839 52.7991 4.96164 52.3502C4.61169 51.2011 4.7367 49.9238 5.37319 48.8799C6.17916 47.558 7.57188 46.8911 9.09282 46.4902Z" fill="#3AA236"/>
<path d="M14.2095 50.0508C14.3471 49.9794 14.4493 49.9101 14.6136 49.9317C14.7947 50.0682 14.7949 50.2302 14.8181 50.4351C14.9656 51.7415 14.8444 53.0208 15.1833 54.3143C15.2377 54.516 15.2934 54.7173 15.3504 54.9184L15.3392 56.5457C15.6372 56.5442 15.9377 56.5354 16.2354 56.5441C15.6849 56.6075 15.1151 56.5801 14.5607 56.5852C14.4002 56.5743 14.2381 56.5501 14.0782 56.5322C14.083 56.2659 14.0925 55.9997 14.1069 55.7337C12.3354 55.7198 10.5006 55.9108 8.749 55.5925C7.3465 55.3376 6.41937 54.725 5.62808 53.6317C6.21084 53.7298 6.76833 53.9362 7.36224 54.0198C8.47449 54.1763 9.53288 54.0577 10.45 53.4109C11.1472 52.9193 11.9305 51.9791 12.0515 51.1575C12.057 51.1341 12.0578 51.1093 12.0682 51.0875C12.1256 50.9675 12.1899 50.933 12.3072 50.8782C12.8554 50.9136 13.7649 51.9293 14.1519 52.2788C14.1696 51.5398 14.1381 50.7861 14.2095 50.0508Z" fill="#268428"/>
<path d="M14.2095 50.0508C14.3471 49.9794 14.4493 49.9101 14.6136 49.9317C14.7947 50.0682 14.7949 50.2302 14.8181 50.4351C14.9656 51.7415 14.8444 53.0208 15.1833 54.3143C15.2377 54.516 15.2934 54.7173 15.3504 54.9184L15.3392 56.5457C15.6372 56.5442 15.9377 56.5354 16.2354 56.5441C15.6849 56.6075 15.1151 56.5801 14.5607 56.5852C14.4002 56.5743 14.2381 56.5501 14.0782 56.5322C14.083 56.2659 14.0925 55.9997 14.1069 55.7337C14.2854 55.0027 14.1744 54.1126 14.1496 53.3694C13.3927 52.6737 12.7084 51.9352 12.0515 51.1575C12.057 51.1341 12.0578 51.1093 12.0682 51.0875C12.1256 50.9675 12.1899 50.933 12.3072 50.8782C12.8554 50.9136 13.7649 51.9293 14.1519 52.2788C14.1696 51.5398 14.1381 50.7861 14.2095 50.0508Z" fill="#8D352E"/>
<path d="M14.252 40.5858C15.7107 40.673 17.0386 41.1753 18.0181 42.2114C18.8879 43.1315 19.2561 44.2928 19.1634 45.5055C19.1457 45.7379 18.9838 46.3312 19.093 46.5124C19.1802 46.5435 19.2627 46.5723 19.3541 46.5905C20.1584 46.7205 20.785 46.9839 21.4478 47.4234L21.4493 52.6286C21.4495 53.4914 21.4939 54.3772 21.4433 55.2376C21.1973 55.2486 20.6694 55.5605 20.3795 55.6324C18.6862 56.0532 16.8354 55.7336 15.3504 54.9184C15.2934 54.7173 15.2377 54.516 15.1833 54.3143C14.8444 53.0208 14.9656 51.7415 14.8181 50.4351C14.7949 50.2302 14.7947 50.0682 14.6136 49.9317C14.4493 49.9101 14.3471 49.9794 14.2095 50.0508C14.2484 49.5677 14.212 49.0647 14.2037 48.5798L14.1584 45.8272C14.1429 44.0778 14.2329 42.3342 14.252 40.5858Z" fill="#268428"/>
<path d="M19.3541 46.5905C20.1584 46.7205 20.785 46.9839 21.4478 47.4234L21.4493 52.6286C21.4495 53.4914 21.4939 54.3772 21.4433 55.2376C21.1973 55.2486 20.6694 55.5605 20.3795 55.6324C18.6862 56.0532 16.8354 55.7336 15.3504 54.9184C15.2934 54.7173 15.2377 54.516 15.1833 54.3143C15.3267 54.2773 15.4695 54.2388 15.6119 54.1988C15.7923 54.149 15.9692 54.09 16.1426 54.0219C16.3159 53.9539 16.4848 53.8772 16.6492 53.7919C16.8135 53.7066 16.9723 53.6131 17.1256 53.5114C17.2788 53.4097 17.4256 53.3005 17.5659 53.1838C19.2682 51.789 19.4019 49.8614 19.3325 47.8837C19.32 47.5285 19.1737 46.907 19.3541 46.5905Z" fill="#1E7225"/>
<path d="M59.6576 3.40349C60.6118 3.43261 61.5621 3.39071 62.5149 3.40819L62.5136 7.29857C62.5137 7.83857 62.4426 8.48361 62.5344 9.01158C63.9132 9.08167 65.2743 9.04465 66.6533 9.0345L71.5716 9.02868C72.5531 9.02859 73.6767 8.94826 74.6414 9.04277L74.6968 9.11943C74.762 10.0616 74.7175 11.022 74.7048 11.9657C74.3504 11.966 73.7187 11.8542 73.437 12.0631C73.3762 12.1853 73.3908 12.3028 73.3951 12.4337L73.4021 12.5751C73.4065 13.7627 73.4026 14.9502 73.3905 16.1377C71.6196 16.1322 69.8489 16.118 68.0782 16.0952C66.9718 15.9834 65.7789 16.0812 64.6599 16.0773C63.8287 15.979 62.8999 16.0487 62.057 16.0482C61.0597 16.0476 59.9944 15.9738 59.0078 16.0792L58.9093 16.0756C58.1772 16.0234 57.4221 16.0581 56.6874 16.0585L53.2338 16.0458C52.0842 16.0642 50.9345 16.0664 49.7848 16.0523C49.1639 16.043 48.5389 16.0177 47.9188 16.0516C47.1053 16.0601 46.2887 16.084 45.4754 16.0755C43.6073 16.0604 41.7392 16.0669 39.8712 16.0948C39.0743 16.0939 37.1892 16.0013 36.5371 16.1207L36.4967 16.1284C35.3176 16.136 34.0412 16.2317 32.8733 16.094C32.8479 15.7154 32.8522 15.345 32.8679 14.9661C32.9516 14.4854 32.885 13.9778 32.9318 13.4902L32.8828 13.2339C36.2264 13.1726 39.5837 13.225 42.929 13.228C43.6623 13.2285 45.915 13.3211 46.5172 13.194C46.798 12.9225 47.1297 12.4985 47.2342 12.1323C48.742 12.1468 50.2528 12.1033 51.7617 12.1041C52.4062 12.1044 53.0801 12.0678 53.7196 12.1317C54.429 11.4906 55.074 10.7844 55.7336 10.0994C56.5947 9.20492 57.4657 8.31629 58.2888 7.39121C58.4716 6.50605 59.1976 5.70967 59.2468 4.8108L59.8298 4.79887C59.6702 4.72916 59.4784 4.75518 59.3037 4.75603C59.3626 4.55724 59.4341 4.36221 59.5035 4.16652C59.5722 3.91399 59.6149 3.66071 59.6576 3.40349Z" fill="#233D70"/>
<path d="M70.2889 11.9762C71.1736 11.918 72.4426 11.8374 73.3065 11.9726C73.3999 12.0902 73.3856 12.2894 73.3951 12.4337L73.4021 12.5751C72.5332 12.6405 71.5093 12.7159 70.6694 12.4849C70.5143 12.3285 70.406 12.1576 70.2889 11.9762Z" fill="#391A19"/>
<path d="M32.8679 14.9661C32.9516 14.4854 32.885 13.9778 32.9318 13.4902L33.3432 13.9377C34.8258 14.0774 36.3944 13.9789 37.885 13.9718C38.5459 13.9543 39.2004 13.9456 39.8613 13.9712L39.8712 16.0948C39.0743 16.0939 37.1892 16.0013 36.5371 16.1207L36.4967 16.1284C35.3176 16.136 34.0412 16.2317 32.8733 16.094C32.8479 15.7154 32.8522 15.345 32.8679 14.9661Z" fill="#8D352E"/>
<path d="M32.8679 14.9661C32.9516 14.4854 32.885 13.9778 32.9318 13.4902L33.3432 13.9377C34.8258 14.0774 36.3944 13.9789 37.885 13.9718C37.8239 14.2646 37.7548 14.5051 37.4777 14.6814C36.5936 15.244 34.0135 14.9102 32.8679 14.9661Z" fill="#AD3C37"/>
<path d="M59.3037 4.75603C59.3626 4.55724 59.4341 4.36221 59.5035 4.16652C59.7186 4.3359 61.2853 4.27352 61.656 4.27183C61.655 7.2222 61.6841 10.1751 61.6468 13.1251L51.2522 13.1662C49.6809 13.176 48.0848 13.1164 46.5172 13.194C46.798 12.9225 47.1297 12.4985 47.2342 12.1323C48.742 12.1468 50.2528 12.1033 51.7617 12.1041C52.4062 12.1044 53.0801 12.0678 53.7196 12.1317C54.386 12.1761 55.0727 12.1535 55.7412 12.158C57.3105 12.1648 58.8797 12.16 60.449 12.1435L60.506 5.2236C60.5904 5.1072 60.6523 4.94702 60.7172 4.8186L59.8298 4.79887C59.6702 4.72916 59.4784 4.75518 59.3037 4.75603Z" fill="url(#paint0_linear_278_1523)"/>
<path d="M59.8298 4.79887L60.7172 4.8186C60.6523 4.94702 60.5904 5.1072 60.506 5.2236L60.449 12.1435C58.8797 12.16 57.3105 12.1648 55.7412 12.158C55.0727 12.1535 54.386 12.1761 53.7196 12.1317C54.429 11.4906 55.074 10.7844 55.7336 10.0994C56.5947 9.20492 57.4657 8.31629 58.2888 7.39121C58.4716 6.50605 59.1976 5.70967 59.2468 4.8108L59.8298 4.79887Z" fill="#F7B35C"/>
<path d="M59.8298 4.79887L60.7172 4.8186C60.6523 4.94702 60.5904 5.1072 60.506 5.2236C59.7067 5.89305 59.164 6.79691 58.2888 7.39121C58.4716 6.50605 59.1976 5.70967 59.2468 4.8108L59.8298 4.79887Z" fill="#FED352"/>
<path d="M62.5344 9.01158C63.9132 9.08167 65.2743 9.04465 66.6533 9.0345L71.5716 9.02868C72.5531 9.02859 73.6767 8.94826 74.6414 9.04277L74.6968 9.11943C74.602 9.68799 74.463 10.5851 73.9838 10.987C73.7573 11.1768 73.3873 11.2076 73.0934 11.2358C71.5069 11.3886 69.8594 11.2838 68.2649 11.2797C66.349 11.2749 64.429 11.3408 62.514 11.2706C62.525 10.5177 62.5317 9.76465 62.5344 9.01158Z" fill="#315886"/>
<path d="M62.5117 12.0022H67.4968C68.4256 12.0027 69.3624 12.0397 70.2889 11.9762C70.406 12.1576 70.5143 12.3285 70.6694 12.4849C71.5093 12.7159 72.5332 12.6405 73.4021 12.5751C73.4065 13.7627 73.4026 14.9502 73.3905 16.1377C71.6196 16.1322 69.8489 16.118 68.0782 16.0952C66.9718 15.9834 65.7789 16.0812 64.6599 16.0773C63.8287 15.979 62.8999 16.0487 62.057 16.0482C61.0597 16.0476 59.9944 15.9738 59.0078 16.0792L58.9093 16.0756C58.1772 16.0234 57.4221 16.0581 56.6874 16.0585L53.2338 16.0458C52.0842 16.0642 50.9345 16.0664 49.7848 16.0523C49.1639 16.043 48.5389 16.0177 47.9188 16.0516C47.1053 16.0601 46.2887 16.084 45.4754 16.0755C43.6073 16.0604 41.7392 16.0669 39.8712 16.0948L39.8613 13.9712C44.1104 14.0185 48.366 13.9735 52.6158 13.9738C55.7862 13.974 58.9793 14.0463 62.147 13.949C62.2772 13.8521 62.3964 13.7445 62.5176 13.6383L62.5117 12.0022Z" fill="#AD3C37"/>
<path d="M63.3828 14.3707C63.6472 14.3512 63.9853 14.3565 64.2117 14.5024C64.3222 14.5737 64.4073 14.6807 64.4169 14.8092C64.4261 14.9321 64.3671 15.04 64.2797 15.1276C64 15.4082 63.6177 15.3809 63.2413 15.385C62.9467 15.3828 62.6158 15.3995 62.3582 15.2436C62.2228 15.1616 62.1899 15.0738 62.1642 14.9319C62.1921 14.8399 62.2188 14.7694 62.2886 14.6988C62.5874 14.3967 62.9745 14.3933 63.3828 14.3707Z" fill="#8D352E"/>
<path d="M49.7848 16.0523C49.7528 15.7605 49.6871 15.3255 49.8845 15.0765C50.0134 14.914 50.243 14.9031 50.4443 14.884C51.0815 14.8235 52.67 14.7324 53.1741 15.0662C53.3165 15.3417 53.2491 15.7453 53.2338 16.0458C52.0842 16.0642 50.9345 16.0664 49.7848 16.0523Z" fill="#8D352E"/>
<path d="M88.4943 67.8423C90.6119 67.9716 94.2898 68.072 96 69.1853C93.8233 70.3546 89.8078 70.5165 87.3223 70.7013C85.4781 70.8377 83.6328 70.9599 81.7864 71.0678C76.636 71.348 71.4824 71.565 66.3258 71.719C61.1693 71.8728 56.0114 71.9635 50.8523 71.991C45.6931 72.0185 40.5345 71.9828 35.3764 71.8838C30.2182 71.7849 25.0623 71.6229 19.9088 71.3976C17.0155 71.2708 14.1348 71.0837 11.2452 70.9066C9.4558 70.797 7.68295 70.6556 5.89922 70.4842C4.3084 70.3314 2.66363 70.1751 1.11526 69.7865C0.813969 69.7109 0.246795 69.5948 0.0510578 69.3558C0.0184518 69.3159 0.0134379 69.2865 0 69.242C0.0738881 69.0587 0.299315 68.9424 0.483198 68.8655C1.59402 68.4009 5.38925 68.0508 6.72666 67.9674C6.72918 68.1181 6.71092 68.2787 6.79012 68.4145C7.23159 68.5539 18.1167 68.5833 18.9961 68.4636C21.4567 68.4344 23.9261 68.4731 26.3874 68.4773L42.5191 68.5033L88.4937 68.5075L88.4943 67.8423Z" fill="#3FAEB1"/>
<path d="M15.3504 54.9184C16.8354 55.7336 18.6862 56.0532 20.3795 55.6324C20.6694 55.5605 21.1973 55.2486 21.4433 55.2376C21.4359 56.39 21.4389 57.5423 21.4522 58.6946C21.4573 60.119 21.4729 61.5432 21.4989 62.9674C23.3319 63.0264 25.1796 62.9814 27.014 62.9803C29.1842 62.9791 31.3603 63.0122 33.53 62.9755C35.0749 62.9547 36.62 62.9415 38.1651 62.936C39.188 62.9321 40.3096 62.8897 41.3248 63.0016C46.2966 63.0279 51.2683 63.0197 56.24 62.9768L58.7305 62.9709L58.7287 61.1371L70.8416 61.1365C70.8407 61.7401 70.8087 62.3593 70.8458 62.9612C71.8347 62.915 72.8289 62.9599 73.8189 62.9388C74.5891 62.9174 75.3587 62.953 76.1286 62.9671C76.1743 63.7576 76.2656 64.5518 76.26 65.3435C77.0129 65.5192 79.9383 65.3933 80.9275 65.4036C82.6476 65.4069 84.4091 65.2919 86.1213 65.4095L88.4917 65.4125L88.4943 67.8423L88.4937 68.5075L42.5191 68.5033L26.3874 68.4773C23.9261 68.4731 21.4567 68.4344 18.9961 68.4636C18.1167 68.5833 7.23159 68.5539 6.79012 68.4145C6.71092 68.2787 6.72918 68.1181 6.72666 67.9674C6.68601 67.1086 6.72555 66.2353 6.72969 65.3749L8.692 65.3657L8.68675 60.0753C8.68978 59.6076 8.68201 59.1392 8.67929 58.6714L8.68231 58.0629C10.6254 57.96 12.5983 58.1372 14.5489 58.0745C14.5933 57.5787 14.5275 57.0824 14.5607 56.5852C15.1151 56.5801 15.6849 56.6075 16.2354 56.5441C15.9377 56.5354 15.6372 56.5442 15.3392 56.5457L15.3504 54.9184ZM15.3504 54.9184L15.3392 56.5457C15.6372 56.5442 15.9377 56.5354 16.2354 56.5441C15.6849 56.6075 15.1151 56.5801 14.5607 56.5852C14.5275 57.0824 14.5933 57.5787 14.5489 58.0745C12.5983 58.1372 10.6254 57.96 8.68231 58.0629L8.67929 58.6714C8.68201 59.1392 8.68978 59.6076 8.68675 60.0753L8.692 65.3657L6.72969 65.3749C6.72555 66.2353 6.68601 67.1086 6.72666 67.9674C6.72918 68.1181 6.71092 68.2787 6.79012 68.4145C7.23159 68.5539 18.1167 68.5833 18.9961 68.4636C18.9829 67.4241 19.0533 66.3564 18.9472 65.323C20.3541 65.2538 21.7388 65.3148 23.1449 65.3166L56.2641 65.317C56.2699 64.5389 56.2803 63.754 56.24 62.9768C51.2683 63.0197 46.2966 63.0279 41.3248 63.0016C40.3096 62.8897 39.188 62.9321 38.1651 62.936C36.62 62.9415 35.0749 62.9547 33.53 62.9755C31.3603 63.0122 29.1842 62.9791 27.014 62.9803C25.1796 62.9814 23.3319 63.0264 21.4989 62.9674C21.4729 61.5432 21.4573 60.119 21.4522 58.6946C21.4389 57.5423 21.4359 56.39 21.4433 55.2376C21.1973 55.2486 20.6694 55.5605 20.3795 55.6324C18.6862 56.0532 16.8354 55.7336 15.3504 54.9184Z" fill="#233D70"/>
<path d="M58.7287 61.1371L70.8416 61.1365C70.8407 61.7401 70.8087 62.3593 70.8458 62.9612C71.8347 62.915 72.8289 62.9599 73.8189 62.9388C74.5891 62.9174 75.3587 62.953 76.1286 62.9671C76.1743 63.7576 76.2656 64.5518 76.26 65.3435C75.6482 65.2511 74.9362 65.3137 74.311 65.3142L56.2641 65.317C56.2699 64.5389 56.2803 63.754 56.24 62.9768L58.7305 62.9709L58.7287 61.1371Z" fill="#588BB7"/>
<path d="M58.7287 61.1371L70.8416 61.1365C70.8407 61.7401 70.8087 62.3593 70.8458 62.9612C69.4881 63.0141 68.1077 62.9675 66.7478 62.9675L58.7305 62.9709L58.7287 61.1371Z" fill="#233D70"/>
<path d="M15.3504 54.9184C16.8354 55.7336 18.6862 56.0532 20.3795 55.6324C20.6694 55.5605 21.1973 55.2486 21.4433 55.2376C21.4359 56.39 21.4389 57.5423 21.4522 58.6946C21.4573 60.119 21.4729 61.5432 21.4989 62.9674C23.3319 63.0264 25.1796 62.9814 27.014 62.9803C29.1842 62.9791 31.3603 63.0122 33.53 62.9755C35.0749 62.9547 36.62 62.9415 38.1651 62.936C39.188 62.9321 40.3096 62.8897 41.3248 63.0016C46.2966 63.0279 51.2683 63.0197 56.24 62.9768C56.2803 63.754 56.2699 64.5389 56.2641 65.317L23.1449 65.3166C21.7388 65.3148 20.3541 65.2538 18.9472 65.323C19.0533 66.3564 18.9829 67.4241 18.9961 68.4636C18.1167 68.5833 7.23159 68.5539 6.79012 68.4145C6.71092 68.2787 6.72918 68.1181 6.72666 67.9674C6.68601 67.1086 6.72555 66.2353 6.72969 65.3749L8.692 65.3657L8.68675 60.0753C8.68978 59.6076 8.68201 59.1392 8.67929 58.6714L8.68231 58.0629C10.6254 57.96 12.5983 58.1372 14.5489 58.0745C14.5933 57.5787 14.5275 57.0824 14.5607 56.5852C15.1151 56.5801 15.6849 56.6075 16.2354 56.5441C15.9377 56.5354 15.6372 56.5442 15.3392 56.5457L15.3504 54.9184ZM15.3504 54.9184L15.3392 56.5457C15.6372 56.5442 15.9377 56.5354 16.2354 56.5441C15.6849 56.6075 15.1151 56.5801 14.5607 56.5852C14.5275 57.0824 14.5933 57.5787 14.5489 58.0745C12.5983 58.1372 10.6254 57.96 8.68231 58.0629L8.67929 58.6714C8.68201 59.1392 8.68978 59.6076 8.68675 60.0753C9.45479 59.9676 10.2519 60.0048 11.027 60.0047L14.5379 60.0074L14.5497 60.0469C16.1474 60.0945 17.7901 60.1046 19.3876 60.0501C19.4144 60.8025 19.3555 61.56 19.3903 62.3099L19.4312 62.3066L19.4292 62.9256C20.109 62.95 20.8274 62.8924 21.4989 62.9674C21.4729 61.5432 21.4573 60.119 21.4522 58.6946C21.4389 57.5423 21.4359 56.39 21.4433 55.2376C21.1973 55.2486 20.6694 55.5605 20.3795 55.6324C18.6862 56.0532 16.8354 55.7336 15.3504 54.9184Z" fill="#315886"/>
<path d="M14.5497 60.0469C16.1474 60.0945 17.7901 60.1046 19.3876 60.0501C19.4144 60.8025 19.3555 61.56 19.3903 62.3099C19.3997 62.4893 19.4432 62.6962 19.3316 62.8522C19.1671 62.9534 18.937 62.886 18.906 63.0628C18.7904 63.7214 18.8868 64.6354 18.9028 65.3155C17.4536 65.3881 15.997 65.3663 14.5459 65.3645C14.5925 63.5945 14.5199 61.8182 14.5497 60.0469Z" fill="#FD8A0A"/>
<path d="M8.68675 60.0753C9.45479 59.9676 10.2519 60.0048 11.027 60.0047L14.5379 60.0074L14.5497 60.0469C14.5199 61.8182 14.5925 63.5945 14.5459 65.3645L8.692 65.3657L8.68675 60.0753Z" fill="#F7B35C"/>
<path d="M16.2354 56.5441L18.5196 56.5318C18.9276 56.526 19.3664 56.4739 19.7698 56.5262C19.9687 56.552 20.1784 56.6074 20.3296 56.7366C20.5346 56.9117 20.5869 57.1747 20.5943 57.4233C20.5948 57.446 20.5942 57.4687 20.5923 57.4913C20.5903 57.514 20.5872 57.5364 20.5829 57.5588C20.5785 57.5811 20.573 57.6031 20.5663 57.6249C20.5595 57.6468 20.5517 57.6682 20.5426 57.6893C20.5336 57.7104 20.5234 57.731 20.5121 57.7511C20.5008 57.7712 20.4885 57.7908 20.4751 57.8097C20.4617 57.8287 20.4473 57.847 20.4319 57.8646C20.4165 57.8822 20.4003 57.899 20.383 57.9151C20.2629 58.0287 20.1144 58.0803 19.9457 58.0898C18.1468 58.016 16.3488 58.0622 14.5489 58.0745C14.5933 57.5787 14.5275 57.0824 14.5607 56.5852C15.1151 56.5801 15.6849 56.6075 16.2354 56.5441Z" fill="#FD8A0A"/>
<path d="M14.5489 58.0745C16.3488 58.0622 18.1468 58.016 19.9457 58.0898C19.782 58.1068 19.6196 58.1236 19.4549 58.1299C19.3311 59.4116 19.4527 60.9853 19.4312 62.3066L19.3903 62.3099C19.3555 61.56 19.4144 60.8025 19.3876 60.0501C17.7901 60.1046 16.1474 60.0945 14.5497 60.0469L14.5379 60.0074L11.027 60.0047C10.2519 60.0048 9.45479 59.9676 8.68675 60.0753C8.68978 59.6076 8.68201 59.1392 8.67929 58.6714L8.68231 58.0629C10.6254 57.96 12.5983 58.1372 14.5489 58.0745Z" fill="#C67B51"/>
<path d="M14.5489 58.0745C16.3488 58.0622 18.1468 58.016 19.9457 58.0898C19.782 58.1068 19.6196 58.1236 19.4549 58.1299C19.3311 59.4116 19.4527 60.9853 19.4312 62.3066L19.3903 62.3099C19.3555 61.56 19.4144 60.8025 19.3876 60.0501C19.3751 59.5819 19.3857 59.1129 19.3897 58.6446C17.7758 58.6354 16.1621 58.6434 14.5484 58.6688L14.5489 58.0745Z" fill="#B85F45"/>
<path d="M8.67929 58.6714C10.6134 58.742 12.6088 58.744 14.5433 58.6615C14.543 59.109 14.5567 59.5605 14.5379 60.0074L11.027 60.0047C10.2519 60.0048 9.45479 59.9676 8.68675 60.0753C8.68978 59.6076 8.68201 59.1392 8.67929 58.6714Z" fill="#FD8A0A"/>
<path d="M47.9188 16.0516C48.5389 16.0177 49.1639 16.043 49.7848 16.0523C50.9345 16.0664 52.0842 16.0642 53.2338 16.0458L56.6874 16.0585C57.4221 16.0581 58.1772 16.0234 58.9093 16.0756L59.0078 16.0792C59.9944 15.9738 61.0597 16.0476 62.057 16.0482C62.8999 16.0487 63.8287 15.979 64.6599 16.0773C65.7789 16.0812 66.9718 15.9834 68.0782 16.0952C68.4125 16.8317 68.9374 17.5348 69.3636 18.229C70.166 19.5359 70.9063 20.8758 71.7136 22.1805C72.3971 23.2854 73.5472 24.9243 74.0171 26.0724L74.0523 26.0862C74.1763 27.1965 74.1342 28.3168 74.0507 29.4279C74.0881 29.557 74.1204 29.6134 74.0812 29.7443C73.7846 30.8377 73.9648 32.7101 73.9344 33.8924C73.9194 35.7832 73.9158 37.6739 73.9235 39.5645C73.9048 41.728 73.9063 43.8915 73.9281 46.055C73.8927 48.7435 73.916 51.4349 73.9164 54.1237C73.9143 54.4979 73.877 54.9052 73.9413 55.274C74.0284 56.3855 73.9679 57.5878 73.8487 58.6954L70.8395 58.6943L70.8416 61.1365L58.7287 61.1371L58.7305 62.9709L56.24 62.9768C51.2683 63.0197 46.2966 63.0279 41.3248 63.0016C40.3096 62.8897 39.188 62.9321 38.1651 62.936C36.62 62.9415 35.0749 62.9547 33.53 62.9755C31.3603 63.0122 29.1842 62.9791 27.014 62.9803C25.1796 62.9814 23.3319 63.0264 21.4989 62.9674C21.4729 61.5432 21.4573 60.119 21.4522 58.6946C21.4389 57.5423 21.4359 56.39 21.4433 55.2376C21.4939 54.3772 21.4495 53.4914 21.4493 52.6286L21.4478 47.4234C21.4621 46.0022 21.4231 44.5772 21.4202 43.1554L21.4044 30.4895C21.2948 30.1803 21.1826 29.872 21.068 29.5645C21.0145 29.2679 21.0882 28.8701 21.0928 28.5603L21.1063 26.0544L21.149 26.0232C22.9762 26.019 25.1298 26.1329 26.9216 26.002L26.9508 26.034C27.9982 25.9874 29.0342 26.028 30.0808 26.0246C31.0029 26.0215 31.9412 25.9514 32.8609 26.0382L32.8844 26.0049C33.0127 25.0945 33.5111 24.1524 33.8304 23.279C34.7034 20.8906 35.6403 18.5212 36.4967 16.1284L36.5371 16.1207C37.1892 16.0013 39.0743 16.0939 39.8712 16.0948C41.7392 16.0669 43.6073 16.0604 45.4754 16.0755C46.2887 16.084 47.1053 16.0601 47.9188 16.0516Z" fill="#F7B35C"/>
<path d="M58.5295 34.0369C59.1836 33.9674 59.8429 33.9716 60.4903 34.0836C60.2894 34.9982 60.032 35.9216 59.8654 36.8396L59.8436 36.899L57.4978 36.8997C57.8171 35.9377 58.161 34.9835 58.5295 34.0369Z" fill="#EF3A39"/>
<path d="M26.9747 29.5363C27.0572 29.743 27.1801 29.9738 27.2216 30.1892C27.2099 30.2137 27.1978 30.2381 27.1866 30.2628C27.0759 30.5052 27.0445 30.8166 26.9867 31.0752C26.7788 32.0049 26.3105 32.7335 25.3347 33.1037C24.6735 33.3545 23.9493 33.3154 23.3016 33.05C22.6178 32.7698 22.1054 32.2575 21.8399 31.6103C21.7237 31.3268 21.6705 31.0353 21.6336 30.7353C21.8776 30.8979 22.1181 31.0698 22.3851 31.1985C22.4858 31.2518 22.5874 31.305 22.6926 31.3503C23.4038 31.6563 24.3725 31.6142 25.0938 31.3581C26.0281 31.0265 26.572 30.3587 26.9747 29.5363Z" fill="#C67B51"/>
<path d="M27.3353 30.3899C27.6629 30.6849 27.9821 30.9526 28.3949 31.1418C29.2027 31.5121 30.1991 31.5318 31.0441 31.2605C32.0084 30.9507 32.4408 30.3149 32.8603 29.508C32.9593 29.7778 33.0563 30.0458 33.1808 30.3065C33.1691 30.3251 33.157 30.3437 33.1457 30.3625C33.0403 30.5402 33.0123 30.8128 32.9658 31.0114C32.7251 32.0402 32.361 32.7962 31.1934 33.1463C31.1471 33.1601 31.1005 33.1726 31.0534 33.1841C31.0065 33.1956 30.9592 33.206 30.9117 33.2153C30.8641 33.2246 30.8164 33.2327 30.7684 33.2398C30.7205 33.2469 30.6723 33.2528 30.624 33.2576C30.5757 33.2624 30.5273 33.2661 30.4788 33.2686C30.4303 33.2711 30.3818 33.2724 30.3332 33.2727C30.2847 33.2729 30.2361 33.2721 30.1875 33.2701C30.139 33.268 30.0906 33.2648 30.0423 33.2606C29.9939 33.2563 29.9457 33.2508 29.8977 33.2443C29.8496 33.2377 29.8018 33.23 29.7541 33.2212C29.7065 33.2124 29.6591 33.2025 29.612 33.1915C29.5649 33.1805 29.5181 33.1684 29.4717 33.1552C29.4252 33.142 29.3791 33.1277 29.3335 33.1123C29.2878 33.0969 29.2426 33.0805 29.1978 33.063C29.153 33.0455 29.1087 33.027 29.0649 33.0074C29.0211 32.9879 28.9779 32.9673 28.9352 32.9457C28.185 32.5673 27.6916 31.8846 27.4639 31.1316C27.3914 30.8921 27.3513 30.6379 27.3353 30.3899Z" fill="#C67B51"/>
<path d="M60.4903 34.0836C60.7875 33.8673 61.8331 33.9804 62.2287 33.9855L64.0347 33.9888C64.0332 34.4873 64.0288 34.9858 64.0217 35.4843C63.9502 35.9495 63.9823 36.4372 63.9825 36.9066C63.2915 36.9422 62.605 36.9465 61.9133 36.9394L61.9083 36.9117C61.5099 36.9384 60.1966 37.0234 59.8654 36.8396C60.032 35.9216 60.2894 34.9982 60.4903 34.0836Z" fill="#EF3A39"/>
<path d="M60.4903 34.0836C60.7875 33.8673 61.8331 33.9804 62.2287 33.9855C62.1307 34.9617 62.0239 35.9371 61.9083 36.9117C61.5099 36.9384 60.1966 37.0234 59.8654 36.8396C60.032 35.9216 60.2894 34.9982 60.4903 34.0836Z" fill="#FDF9D2"/>
<path d="M57.4978 36.8997L59.8436 36.899C59.8341 37.3367 59.7693 37.8221 59.7966 38.2552C59.5963 38.5332 59.3905 38.7571 59.0456 38.8772C58.8473 39.0147 58.7964 39.0783 58.7612 39.3142C58.6852 39.8228 58.7268 40.3688 58.7288 40.8817C58.7319 41.6556 58.7217 42.4324 58.7449 43.2058C58.7184 43.1972 58.6917 43.1892 58.6654 43.18C57.8746 42.9009 57.151 42.3466 56.8081 41.6174C56.3102 40.5588 56.7025 39.6707 56.9983 38.632C57.1432 38.1234 57.239 37.6014 57.4398 37.1082L57.4978 36.8997Z" fill="#C67B51"/>
<path d="M57.4978 36.8997L59.8436 36.899C59.8341 37.3367 59.7693 37.8221 59.7966 38.2552C59.5963 38.5332 59.3905 38.7571 59.0456 38.8772C58.6362 38.8788 58.1791 38.9073 57.8407 38.6517C57.4008 38.3193 57.473 37.5895 57.4398 37.1082L57.4978 36.8997Z" fill="#AD3C37"/>
<path d="M26.9508 26.034C27.9982 25.9874 29.0342 26.028 30.0808 26.0246C31.0029 26.0215 31.9412 25.9514 32.8609 26.0382C32.8476 27.1947 32.8244 28.3517 32.8603 29.508C32.4408 30.3149 32.0084 30.9507 31.0441 31.2605C30.1991 31.5318 29.2027 31.5121 28.3949 31.1418C27.9821 30.9526 27.6629 30.6849 27.3353 30.3899L27.2216 30.1892C27.1801 29.9738 27.0572 29.743 26.9747 29.5363C26.9328 29.1276 26.9224 28.7157 26.9044 28.3056C26.9465 27.5468 26.9538 26.7936 26.9508 26.034Z" fill="#AD3C37"/>
<path d="M21.149 26.0232C22.9762 26.019 25.1298 26.1329 26.9216 26.002L26.9508 26.034C26.9538 26.7936 26.9465 27.5468 26.9044 28.3056C26.9224 28.7157 26.9328 29.1276 26.9747 29.5363C26.572 30.3587 26.0281 31.0265 25.0938 31.3581C24.3725 31.6142 23.4038 31.6563 22.6926 31.3503C22.5874 31.305 22.4858 31.2518 22.3851 31.1985C22.1181 31.0698 21.8776 30.8979 21.6336 30.7353C21.5745 30.6485 21.4785 30.567 21.4044 30.4895C21.2948 30.1803 21.1826 29.872 21.068 29.5645C21.0145 29.2679 21.0882 28.8701 21.0928 28.5603L21.1063 26.0544L21.149 26.0232Z" fill="#F7B35C"/>
<path d="M26.9044 28.3056C26.9224 28.7157 26.9328 29.1276 26.9747 29.5363C26.572 30.3587 26.0281 31.0265 25.0938 31.3581C24.3725 31.6142 23.4038 31.6563 22.6926 31.3503C22.5874 31.305 22.4858 31.2518 22.3851 31.1985C22.7578 31.0646 23.2004 31.0634 23.5881 30.9536C25.1291 30.5174 25.9995 29.4745 26.9044 28.3056Z" fill="#FD8A0A"/>
<path d="M29.4985 58.6999C32.8588 58.6858 36.2191 58.6911 39.5794 58.7157C40.4273 58.7158 41.2752 58.7102 42.123 58.6988C42.6301 58.6938 43.1873 58.6554 43.6886 58.7212L43.5397 58.7754C43.4233 59.1056 43.5001 59.5639 43.5205 59.9079C43.97 59.9095 44.4315 59.8905 44.8794 59.9208C43.8281 60.0286 40.8627 59.7946 40.1658 59.9979L40.168 61.2298C40.7403 61.2204 41.3382 61.1433 41.9045 61.2237C41.7109 61.2285 41.5909 61.1989 41.435 61.3111C41.2554 61.6943 41.4392 62.1328 41.3553 62.5457C41.3425 62.6975 41.3273 62.8492 41.3248 63.0016C40.3096 62.8897 39.188 62.9321 38.1651 62.936C36.62 62.9415 35.0749 62.9547 33.53 62.9755L33.4892 62.6198C33.3007 62.3628 33.4075 61.5163 33.4139 61.1839C34.0006 61.1836 34.5872 61.1867 35.1738 61.193L35.1729 60.0168C34.7822 59.9708 34.4086 59.9597 34.0146 59.9617L34.0158 58.7444L31.263 58.7522C30.691 58.7531 30.0622 58.794 29.4985 58.6999Z" fill="#B85F45"/>
<path d="M33.4892 62.6198C33.5557 62.5763 33.6012 62.5636 33.6843 62.5529C34.357 62.466 35.2759 62.5439 35.9764 62.544L41.3553 62.5457C41.3425 62.6975 41.3273 62.8492 41.3248 63.0016C40.3096 62.8897 39.188 62.9321 38.1651 62.936C36.62 62.9415 35.0749 62.9547 33.53 62.9755L33.4892 62.6198Z" fill="#8D352E"/>
<path d="M35.2232 60.0529L38.1499 60.0628C38.8148 60.0645 39.5103 60.1071 40.1658 59.9979L40.168 61.2298C38.5239 61.1643 36.8713 61.2449 35.2251 61.2225L35.2232 60.0529Z" fill="#8D352E"/>
<path d="M21.4522 58.6946C24.1343 58.6582 26.8164 58.66 29.4985 58.6999C30.0622 58.794 30.691 58.7531 31.263 58.7522L34.0158 58.7444L34.0146 59.9617C34.4086 59.9597 34.7822 59.9708 35.1729 60.0168L35.1738 61.193C34.5872 61.1867 34.0006 61.1836 33.4139 61.1839C33.4075 61.5163 33.3007 62.3628 33.4892 62.6198L33.53 62.9755C31.3603 63.0122 29.1842 62.9791 27.014 62.9803C25.1796 62.9814 23.3319 63.0264 21.4989 62.9674C21.4729 61.5432 21.4573 60.119 21.4522 58.6946Z" fill="#AD3C37"/>
<path d="M27.9011 59.9413C29.9353 59.9089 31.9789 59.9606 34.0146 59.9617C34.4086 59.9597 34.7822 59.9708 35.1729 60.0168L35.1738 61.193C34.5872 61.1867 34.0006 61.1836 33.4139 61.1839L27.9068 61.1822L27.9011 59.9413Z" fill="#C67B51"/>
<path d="M43.6886 58.7212C45.1609 58.7533 46.6466 58.6957 48.1207 58.6949L58.7325 58.6946L58.7287 61.1371L58.7305 62.9709L56.24 62.9768C51.2683 63.0197 46.2966 63.0279 41.3248 63.0016C41.3273 62.8492 41.3425 62.6975 41.3553 62.5457C41.4392 62.1328 41.2554 61.6943 41.435 61.3111C41.5909 61.1989 41.7109 61.2285 41.9045 61.2237C41.3382 61.1433 40.7403 61.2204 40.168 61.2298L40.1658 59.9979C40.8627 59.7946 43.8281 60.0286 44.8794 59.9208C44.4315 59.8905 43.97 59.9095 43.5205 59.9079C43.5001 59.5639 43.4233 59.1056 43.5397 58.7754L43.6886 58.7212Z" fill="#AD3C37"/>
<path d="M44.8794 59.9208C45.6804 59.9182 46.4832 59.9049 47.284 59.9182L47.2824 61.2278C45.4897 61.2585 43.6971 61.2572 41.9045 61.2237C41.3382 61.1433 40.7403 61.2204 40.168 61.2298L40.1658 59.9979C40.8627 59.7946 43.8281 60.0286 44.8794 59.9208Z" fill="#C67B51"/>
<path d="M68.4634 31.545C68.6963 32.1453 68.9424 32.7776 69.4226 33.2502C69.6965 33.5199 70.0331 33.7163 70.4198 33.8107C71.2624 34.0165 72.9648 33.8534 73.9344 33.8924C73.9194 35.7832 73.9158 37.6739 73.9235 39.5645C73.9048 41.728 73.9063 43.8915 73.9281 46.055C73.8927 48.7435 73.916 51.4349 73.9164 54.1237C73.9143 54.4979 73.877 54.9052 73.9413 55.274C74.0284 56.3855 73.9679 57.5878 73.8487 58.6954L70.8395 58.6943L70.8416 61.1365L58.7287 61.1371L58.7325 58.6946L58.7725 43.224L58.7449 43.2058C58.7217 42.4324 58.7319 41.6556 58.7288 40.8817C58.7268 40.3688 58.6852 39.8228 58.7612 39.3142C58.7964 39.0783 58.8473 39.0147 59.0456 38.8772C59.3905 38.7571 59.5963 38.5332 59.7966 38.2552C59.7693 37.8221 59.8341 37.3367 59.8436 36.899L59.8654 36.8396C60.1966 37.0234 61.5099 36.9384 61.9083 36.9117L61.9133 36.9394C62.605 36.9465 63.2915 36.9422 63.9825 36.9066C63.9823 36.4372 63.9502 35.9495 64.0217 35.4843C64.0288 34.9858 64.0332 34.4873 64.0347 33.9888C64.5266 34.003 65.0203 34.0247 65.5123 34.0294C65.6749 34.0314 65.844 34.0247 66.0046 34.0462L66.0512 34.0274C66.1349 33.9746 66.0992 33.99 66.188 33.9593C66.3051 33.9189 66.4221 33.8809 66.5346 33.8298C67.6477 33.3239 68.0951 32.6045 68.4634 31.545Z" fill="#CD9368"/>
<path d="M70.4853 38.8439L70.5229 38.8604C70.5438 38.8694 70.565 38.878 70.5859 38.8871C70.8304 38.9937 71.0738 39.0667 71.3476 39.066C71.7257 39.0651 71.9805 38.9184 72.239 38.6762C72.4852 38.8011 72.5273 38.9443 72.6035 39.1877C72.8223 39.8867 72.9363 40.9042 72.5576 41.5642C72.4197 41.8045 72.2294 41.9967 71.9439 42.0804C71.6022 42.1806 71.1173 42.0928 70.8153 42.2444C70.6983 41.603 70.8384 39.9492 70.8388 39.186C70.7188 39.0739 70.6009 38.9599 70.4853 38.8439Z" fill="#C67B51"/>
<path d="M67.7283 34.2706C67.742 34.1867 67.7588 34.1462 67.8128 34.0778C68.3029 33.8908 68.8439 34.0216 69.3589 34.0312C69.9718 34.0216 70.5847 34.0177 71.1977 34.0194C71.5921 34.9865 71.9937 35.955 72.4483 36.8992C72.4576 37.5126 72.5061 38.0975 72.239 38.6762C71.9805 38.9184 71.7257 39.0651 71.3476 39.066C71.0738 39.0667 70.8304 38.9937 70.5859 38.8871C70.565 38.878 70.5438 38.8694 70.5229 38.8604L70.4853 38.8439C70.365 38.7013 70.2712 38.5209 70.1711 38.3643C70.1165 37.8897 70.1044 37.3688 70.1823 36.8965L68.1639 36.9025C67.9715 36.0386 67.8681 35.1441 67.7283 34.2706Z" fill="#EF3A39"/>
<path d="M72.4483 36.8992C72.4576 37.5126 72.5061 38.0975 72.239 38.6762C71.9805 38.9184 71.7257 39.0651 71.3476 39.066C71.0738 39.0667 70.8304 38.9937 70.5859 38.8871C70.565 38.878 70.5438 38.8694 70.5229 38.8604L70.4853 38.8439C70.365 38.7013 70.2712 38.5209 70.1711 38.3643C70.1165 37.8897 70.1044 37.3688 70.1823 36.8965L72.4483 36.8992Z" fill="#AD3C37"/>
<path d="M67.7283 34.2706C67.742 34.1867 67.7588 34.1462 67.8128 34.0778C68.3029 33.8908 68.8439 34.0216 69.3589 34.0312C69.5503 34.6823 70.1576 36.3275 70.1823 36.8965L68.1639 36.9025C67.9715 36.0386 67.8681 35.1441 67.7283 34.2706Z" fill="#FDF9D2"/>
<path d="M64.0347 33.9888C64.5266 34.003 65.0203 34.0247 65.5123 34.0294C65.6749 34.0314 65.844 34.0247 66.0046 34.0462L66.0512 34.0274C66.5264 34.043 67.2586 33.9135 67.6802 34.1017C67.6975 34.1578 67.717 34.2132 67.7283 34.2706C67.8681 35.1441 67.9715 36.0386 68.1639 36.9025L70.1823 36.8965C70.1044 37.3688 70.1165 37.8897 70.1711 38.3643C70.2712 38.5209 70.365 38.7013 70.4853 38.8439C70.6009 38.9599 70.7188 39.0739 70.8388 39.186C70.8384 39.9492 70.6983 41.603 70.8153 42.2444C70.8685 43.4898 70.8333 44.7401 70.8324 45.9864L70.8377 52.5246C70.3221 52.5785 69.8167 52.5976 69.2982 52.5863C69.3557 52.2004 69.3978 49.8885 69.2857 49.6562C69.1921 46.7854 69.2821 43.8901 69.2712 41.0168L69.287 40.9933C69.3425 40.5818 69.2826 40.1362 69.2743 39.7202C67.9558 39.5345 66.4693 39.6537 65.138 39.7172C64.1068 40.7487 62.9984 41.7197 61.9359 42.7238C61.3506 43.277 60.8042 43.8659 60.2254 44.4253C60.2289 44.1123 60.2122 43.7986 60.2009 43.4857C59.7102 43.4801 59.2424 43.3422 58.7725 43.224L58.7449 43.2058C58.7217 42.4324 58.7319 41.6556 58.7288 40.8817C58.7268 40.3688 58.6852 39.8228 58.7612 39.3142C58.7964 39.0783 58.8473 39.0147 59.0456 38.8772C59.3905 38.7571 59.5963 38.5332 59.7966 38.2552C59.7693 37.8221 59.8341 37.3367 59.8436 36.899L59.8654 36.8396C60.1966 37.0234 61.5099 36.9384 61.9083 36.9117L61.9133 36.9394C62.605 36.9465 63.2915 36.9422 63.9825 36.9066C63.9823 36.4372 63.9502 35.9495 64.0217 35.4843C64.0288 34.9858 64.0332 34.4873 64.0347 33.9888Z" fill="url(#paint1_linear_278_1523)"/>
<path d="M68.1639 36.9025L70.1823 36.8965C70.1044 37.3688 70.1165 37.8897 70.1711 38.3643C69.843 38.7067 69.5404 38.9541 69.094 39.1568C68.6969 38.9014 68.4305 38.6545 68.1652 38.2787C68.1842 37.8181 68.1782 37.3627 68.1639 36.9025Z" fill="#F7B35C"/>
<path d="M59.8654 36.8396C60.1966 37.0234 61.5099 36.9384 61.9083 36.9117L61.9133 36.9394C61.8802 37.3989 61.8361 37.865 61.9227 38.3217C61.7819 38.5341 61.6247 38.7681 61.3999 38.9121C61.2126 39.0322 60.9895 39.087 60.7646 39.0433C60.3049 38.9542 60.0465 38.5882 59.7966 38.2552C59.7693 37.8221 59.8341 37.3367 59.8436 36.899L59.8654 36.8396Z" fill="#F7B35C"/>
<path d="M61.9133 36.9394C62.605 36.9465 63.2915 36.9422 63.9825 36.9066C63.9776 37.3848 63.958 37.8675 63.9883 38.3449C63.8655 38.5766 63.726 38.7826 63.4961 38.9353C63.3045 39.0625 63.0809 39.1095 62.8494 39.0658C62.3858 38.9782 62.1619 38.6642 61.9227 38.3217C61.8361 37.865 61.8802 37.3989 61.9133 36.9394Z" fill="#AD3C37"/>
<path d="M68.1639 36.9025C68.1782 37.3627 68.1842 37.8181 68.1652 38.2787C67.9848 38.6357 67.7999 38.9409 67.3708 39.0765C67.3397 39.0863 67.3081 39.0946 67.2761 39.1014C67.244 39.1082 67.2117 39.1134 67.1791 39.1171C67.1465 39.1208 67.1137 39.1229 67.0808 39.1234C67.048 39.1239 67.0152 39.1228 66.9825 39.1201C66.9498 39.1174 66.9173 39.1132 66.885 39.1074C66.8528 39.1016 66.821 39.0942 66.7895 39.0853C66.7581 39.0764 66.7272 39.0661 66.6969 39.0542C66.6666 39.0423 66.6371 39.029 66.6083 39.0143C66.338 38.8747 66.1619 38.6667 66.032 38.4109C66.0575 37.9332 65.9982 37.4248 66.0003 36.9427C66.7237 36.9125 67.4398 36.8973 68.1639 36.9025Z" fill="#AD3C37"/>
<path d="M60.1894 39.6961C61.8329 39.6438 63.4937 39.694 65.138 39.7172C64.1068 40.7487 62.9984 41.7197 61.9359 42.7238C61.3506 43.277 60.8042 43.8659 60.2254 44.4253C60.2289 44.1123 60.2122 43.7986 60.2009 43.4857C60.1556 42.2269 60.1909 40.9563 60.1894 39.6961Z" fill="#3FAEB1"/>
<path d="M64.0347 33.9888C64.5266 34.003 65.0203 34.0247 65.5123 34.0294C65.6749 34.0314 65.844 34.0247 66.0046 34.0462L66.0512 34.0274C66.5264 34.043 67.2586 33.9135 67.6802 34.1017C67.6975 34.1578 67.717 34.2132 67.7283 34.2706C67.8681 35.1441 67.9715 36.0386 68.1639 36.9025C67.4398 36.8973 66.7237 36.9125 66.0003 36.9427C65.9982 37.4248 66.0575 37.9332 66.032 38.4109C65.9323 38.5417 65.8304 38.6762 65.7049 38.7868C65.5104 38.9579 65.2764 39.092 64.999 39.0707C64.5401 39.0355 64.2486 38.6525 63.9883 38.3449C63.958 37.8675 63.9776 37.3848 63.9825 36.9066C63.9823 36.4372 63.9502 35.9495 64.0217 35.4843C64.0288 34.9858 64.0332 34.4873 64.0347 33.9888Z" fill="#FDF9D2"/>
<path d="M64.0217 35.4843C64.0319 35.9637 64.0356 36.4432 64.0329 36.9228C64.6374 36.9456 65.4046 37.0337 65.9944 36.9127L66.0003 36.9427C65.9982 37.4248 66.0575 37.9332 66.032 38.4109C65.9323 38.5417 65.8304 38.6762 65.7049 38.7868C65.5104 38.9579 65.2764 39.092 64.999 39.0707C64.5401 39.0355 64.2486 38.6525 63.9883 38.3449C63.958 37.8675 63.9776 37.3848 63.9825 36.9066C63.9823 36.4372 63.9502 35.9495 64.0217 35.4843Z" fill="#F7B35C"/>
<path d="M66.0512 34.0274C66.5264 34.043 67.2586 33.9135 67.6802 34.1017C67.6975 34.1578 67.717 34.2132 67.7283 34.2706C67.8681 35.1441 67.9715 36.0386 68.1639 36.9025C67.4398 36.8973 66.7237 36.9125 66.0003 36.9427L65.9944 36.9127C65.9927 35.9577 65.9782 35.0009 66.0046 34.0462L66.0512 34.0274Z" fill="#EF3A39"/>
<path d="M65.138 39.7172C66.4693 39.6537 67.9558 39.5345 69.2743 39.7202C69.2826 40.1362 69.3425 40.5818 69.287 40.9933L69.2712 41.0168C69.2821 43.8901 69.1921 46.7854 69.2857 49.6562L60.246 49.6714L60.186 49.5338L60.1948 49.3495C60.1301 48.6515 60.1408 47.9713 60.1942 47.2741L60.1985 46.7813C60.1947 45.9958 60.2037 45.2105 60.2254 44.4253C60.8042 43.8659 61.3506 43.277 61.9359 42.7238C62.9984 41.7197 64.1068 40.7487 65.138 39.7172Z" fill="#8EEDF7"/>
<path d="M67.5953 39.7874C67.392 40.1991 67.1589 40.5252 66.8527 40.8769C65.6315 42.2789 64.166 43.5436 62.8105 44.8342C61.9489 45.6546 61.1647 46.561 60.1942 47.2741L60.1985 46.7813C60.8843 46.1498 61.5292 45.4815 62.1938 44.831C62.9145 44.1256 63.6545 43.4373 64.3711 42.7284C65.4066 41.7041 66.4094 40.6661 67.5953 39.7874Z" fill="#FEFEFE"/>
<path d="M69.2596 40.4252L69.287 40.9933L69.2712 41.0168C68.4952 41.4115 67.5345 42.5839 66.9064 43.2239C65.5783 44.5574 64.2329 45.8756 62.8702 47.1785C62.0381 47.9732 61.1819 48.9245 60.186 49.5338L60.1948 49.3495C61.0207 48.6229 61.7518 47.7637 62.5269 46.9884C64.7426 44.7722 66.9178 42.5263 69.2596 40.4252Z" fill="#FEFEFE"/>
<path d="M60.186 49.5338C61.1819 48.9245 62.0381 47.9732 62.8702 47.1785C64.2329 45.8756 65.5783 44.5574 66.9064 43.2239C67.5345 42.5839 68.4952 41.4115 69.2712 41.0168C69.2821 43.8901 69.1921 46.7854 69.2857 49.6562L60.246 49.6714L60.186 49.5338Z" fill="#8EEDF7"/>
<path d="M58.7725 43.224C59.2424 43.3422 59.7102 43.4801 60.2009 43.4857C60.2122 43.7986 60.2289 44.1123 60.2254 44.4253C60.2037 45.2105 60.1947 45.9958 60.1985 46.7813L60.1942 47.2741C60.1408 47.9713 60.1301 48.6515 60.1948 49.3495L60.186 49.5338L60.246 49.6714L69.2857 49.6562C69.3978 49.8885 69.3557 52.2004 69.2982 52.5863C69.8167 52.5976 70.3221 52.5785 70.8377 52.5246L70.8395 58.6943L70.8416 61.1365L58.7287 61.1371L58.7325 58.6946L58.7725 43.224Z" fill="#315886"/>
<path d="M68.5546 52.9649C68.6666 52.9632 68.779 52.9602 68.8909 52.966C69.0481 52.9742 69.1804 53.024 69.2823 53.1398C69.5789 53.477 69.4555 55.7574 69.4137 56.2808C69.3864 56.6231 69.2795 56.7184 69.0053 56.94C68.9327 56.9397 68.8593 56.9372 68.7871 56.9304C68.6201 56.9148 68.4723 56.8473 68.3721 56.7183C67.9575 56.1847 68.0705 54.1979 68.1951 53.5247C68.2469 53.2453 68.3074 53.1309 68.5546 52.9649Z" fill="#233D70"/>
<path d="M60.246 49.6714L69.2857 49.6562C69.3978 49.8885 69.3557 52.2004 69.2982 52.5863C68.153 52.5359 66.988 52.5774 65.8405 52.5802L59.7803 52.584C59.7506 51.9131 59.6159 50.3579 59.7998 49.7667C59.9336 49.6734 60.0858 49.6815 60.246 49.6714Z" fill="#233D70"/>
<path d="M56.0053 35.8411L56.0551 35.8491C56.0715 35.8698 56.0939 35.8874 56.1043 35.9113C56.1707 36.0642 56.0876 52.68 56.0857 54.0436L24.1929 54.0422C24.1211 53.9712 24.1422 53.8586 24.1367 53.7624L24.075 53.7387L24.1353 53.7149C24.0894 51.6231 24.1389 49.5216 24.1467 47.429L24.178 35.8653C28.2368 35.8912 32.2955 35.8915 36.3542 35.8662L56.0053 35.8411Z" fill="#824760"/>
<path d="M25.1667 36.8512C27.3992 36.8109 29.6316 36.8107 31.8642 36.8506C31.4685 37.2242 31.034 37.5538 30.6269 37.9156L27.619 40.6269C26.9069 41.2717 25.9238 42.3292 25.1806 42.8546C25.1404 42.2722 25.1617 41.675 25.1572 41.0911L25.1667 36.8512Z" fill="#8EEDF7"/>
<path d="M45.3114 36.8504L53.562 36.8636C53.0759 36.8908 52.5888 36.8871 52.1021 36.8884C50.797 38.2196 49.3137 39.4374 47.9153 40.6866C47.0445 41.4645 46.2241 42.3231 45.312 43.0543L45.3114 36.8504Z" fill="#8EEDF7"/>
<path d="M53.562 36.8636C53.8806 36.849 54.6289 36.7416 54.8923 36.9364C54.9605 36.9868 54.9627 37.0758 54.9841 37.1508C54.2479 37.581 53.6031 38.3627 52.9781 38.9354C51.2665 40.5036 49.5113 42.0326 47.7883 43.5898C47.0787 44.2312 46.1147 45.3344 45.3091 45.8011L45.312 43.0543C46.2241 42.3231 47.0445 41.4645 47.9153 40.6866C49.3137 39.4374 50.797 38.2196 52.1021 36.8884C52.5888 36.8871 53.0759 36.8908 53.562 36.8636Z" fill="#FEFEFE"/>
<path d="M54.9841 37.1508C54.9895 37.6197 55.086 38.421 54.9603 38.8581C54.9521 39.501 54.9495 40.1439 54.9525 40.7869C54.1566 41.2081 53.4546 42.0726 52.8102 42.6785C51.0244 44.3624 49.2068 46.0158 47.3571 47.6387C46.7019 48.2239 46.07 48.979 45.3148 49.4436L45.3021 47.7348C45.2552 47.0867 45.2653 46.4484 45.3091 45.8011C46.1147 45.3344 47.0787 44.2312 47.7883 43.5898C49.5113 42.0326 51.2665 40.5036 52.9781 38.9354C53.6031 38.3627 54.2479 37.581 54.9841 37.1508Z" fill="#FEFEFE"/>
<path d="M54.9841 37.1508C54.9895 37.6197 55.086 38.421 54.9603 38.8581C53.631 39.9736 52.3822 41.205 51.1121 42.3798L45.3021 47.7348C45.2552 47.0867 45.2653 46.4484 45.3091 45.8011C46.1147 45.3344 47.0787 44.2312 47.7883 43.5898C49.5113 42.0326 51.2665 40.5036 52.9781 38.9354C53.6031 38.3627 54.2479 37.581 54.9841 37.1508Z" fill="#8EEDF7"/>
<path d="M31.8642 36.8506C32.842 36.8332 33.8497 36.7716 34.8229 36.8667C34.8905 37.68 34.9167 38.5591 34.8656 39.3733C34.5611 39.4392 28.5366 44.8441 27.8488 45.4682C26.9558 46.2785 26.0944 47.1825 25.1444 47.9279C25.1967 46.273 25.0391 44.5826 25.1688 42.9345L25.1806 42.8546C25.9238 42.3292 26.9069 41.2717 27.619 40.6269L30.6269 37.9156C31.034 37.5538 31.4685 37.2242 31.8642 36.8506Z" fill="#FEFEFE"/>
<path d="M34.8229 36.8667C34.8905 37.68 34.9167 38.5591 34.8656 39.3733C34.5611 39.4392 28.5366 44.8441 27.8488 45.4682C26.9558 46.2785 26.0944 47.1825 25.1444 47.9279C25.1967 46.273 25.0391 44.5826 25.1688 42.9345C25.1891 43.8483 25.1761 44.7641 25.1769 45.6781C26.4596 44.8364 27.5959 43.5778 28.7315 42.5513C30.003 41.4245 31.2598 40.2836 32.5018 39.1285C33.2979 38.3913 34.0993 37.6674 34.8229 36.8667Z" fill="#8EEDF7"/>
<path d="M35.88 36.8039C38.6884 36.7706 41.4988 36.8333 44.3073 36.7931C44.4673 37.0466 44.425 39.3347 44.385 39.7564C43.5371 40.4101 42.7397 41.1645 41.9517 41.8809C40.6728 43.0503 39.3864 44.2124 38.0923 45.3672C37.3648 46.016 36.646 46.6919 35.8748 47.2948C35.8753 46.671 35.8827 46.0472 35.8971 45.4235L35.88 36.8039Z" fill="#8EEDF7"/>
<path d="M44.3073 36.7931C44.4673 37.0466 44.425 39.3347 44.385 39.7564C43.5371 40.4101 42.7397 41.1645 41.9517 41.8809C40.6728 43.0503 39.3864 44.2124 38.0923 45.3672C37.3648 46.016 36.646 46.6919 35.8748 47.2948C35.8753 46.671 35.8827 46.0472 35.8971 45.4235C35.9436 45.0402 35.9214 44.6401 35.9224 44.2542C37.4022 42.7796 39.0077 41.4242 40.5598 40.017C41.6792 39.0023 43.0148 37.5791 44.3073 36.7931Z" fill="#FEFEFE"/>
<path d="M54.9525 40.7869L54.9507 52.9649L45.3128 52.9668C45.3126 51.7941 45.2859 50.6156 45.3148 49.4436C46.07 48.979 46.7019 48.2239 47.3571 47.6387C49.2068 46.0158 51.0244 44.3624 52.8102 42.6785C53.4546 42.0726 54.1566 41.2081 54.9525 40.7869Z" fill="#8EEDF7"/>
<path d="M35.8748 47.2948C36.646 46.6919 37.3648 46.016 38.0923 45.3672C39.3864 44.2124 40.6728 43.0503 41.9517 41.8809C42.7397 41.1645 43.5371 40.4101 44.385 39.7564C44.3568 41.2151 44.5346 42.8241 44.3626 44.2577C44.378 45.6384 44.3786 47.0192 44.3643 48.3999C44.5246 49.8884 44.4208 51.442 44.4102 52.9395L43.3044 52.9362C42.4792 52.8955 41.6472 52.9154 40.8208 52.9174L40.3628 52.9293C40.232 52.9421 40.0971 52.9369 39.9655 52.9382L39.759 52.9698C39.0124 52.8203 38.0471 52.9297 37.2754 52.9435C36.8017 52.9264 36.3224 52.9396 35.848 52.9388C35.8284 51.0573 35.8374 49.176 35.8748 47.2948Z" fill="#8EEDF7"/>
<path d="M39.942 48.0691C39.9573 47.9399 39.9576 47.8628 40.0465 47.757C40.1847 47.7244 40.2242 47.7455 40.3631 47.7844L40.3704 47.9286C40.2439 48.4463 40.2958 49.0578 40.3501 49.5852C40.8351 49.5853 41.3257 49.5706 41.8102 49.5895C42.1591 49.5744 43.1011 49.4301 43.3839 49.6254C43.4255 49.6541 43.4461 49.6872 43.4744 49.725C43.4726 49.8299 43.4458 49.8774 43.3881 49.9664C42.5412 49.8892 41.6489 49.9409 40.7968 49.9489C40.6515 49.9601 40.5005 49.9608 40.3607 49.9997C40.2323 49.9856 40.0903 49.9996 39.9605 50.002L39.9144 49.9905C39.0606 49.8181 38.0414 49.8452 37.1844 49.9886C37.1281 49.9584 37.0934 49.9233 37.0479 49.8806C37.0475 49.7418 37.0943 49.7056 37.1751 49.5919C37.2399 49.5511 37.3126 49.5093 37.3684 49.4583C37.4858 49.3511 37.4788 49.2632 37.4892 49.1222C37.4239 48.8801 37.3393 48.5392 37.4414 48.2983C37.5188 48.1155 37.6591 47.9998 37.8562 47.9357C38.2959 47.7924 39.2169 47.8383 39.6336 48.017C39.7318 48.0354 39.8425 48.0676 39.942 48.0691Z" fill="#C67B51"/>
<path d="M39.942 48.0691C39.9573 47.9399 39.9576 47.8628 40.0465 47.757C40.1847 47.7244 40.2242 47.7455 40.3631 47.7844L40.3704 47.9286C40.2439 48.4463 40.2958 49.0578 40.3501 49.5852C40.8351 49.5853 41.3257 49.5706 41.8102 49.5895C41.1734 49.684 39.1551 49.6852 38.4778 49.5883C38.9842 49.5768 39.4938 49.5851 40.0004 49.5838C40.0097 49.0866 40.042 48.5591 39.942 48.0691Z" fill="#F35E56"/>
<path d="M39.6336 48.017C39.7318 48.0354 39.8425 48.0676 39.942 48.0691C40.042 48.5591 40.0097 49.0866 40.0004 49.5838C39.4938 49.5851 38.9842 49.5768 38.4778 49.5883C38.0393 49.5695 37.6136 49.5561 37.1751 49.5919C37.2399 49.5511 37.3126 49.5093 37.3684 49.4583C37.4858 49.3511 37.4788 49.2632 37.4892 49.1222C38.2055 49.1574 38.908 49.149 39.6231 49.1081L39.6336 48.017Z" fill="#D4FCFE"/>
<path d="M37.4892 49.1222C37.4239 48.8801 37.3393 48.5392 37.4414 48.2983C37.5188 48.1155 37.6591 47.9998 37.8562 47.9357C38.2959 47.7924 39.2169 47.8383 39.6336 48.017L39.6231 49.1081C38.908 49.149 38.2055 49.1574 37.4892 49.1222Z" fill="#C67B51"/>
<path d="M37.1844 49.9886C38.0414 49.8452 39.0606 49.8181 39.9144 49.9905L39.9605 50.002C40.0903 49.9996 40.2323 49.9856 40.3607 49.9997L40.3628 52.9293C40.232 52.9421 40.0971 52.9369 39.9655 52.9382L39.759 52.9698C39.0124 52.8203 38.0471 52.9297 37.2754 52.9435C37.2939 52.1072 37.4755 50.7521 37.1844 49.9886Z" fill="#F7B35C"/>
<path d="M39.9144 49.9905L39.9605 50.002C39.9736 50.9807 39.9753 51.9594 39.9655 52.9382L39.759 52.9698C39.6806 52.1477 39.6306 51.0517 39.763 50.2421C39.788 50.0897 39.7814 50.0825 39.9144 49.9905Z" fill="#FEFEFE"/>
<path d="M39.9605 50.002C40.0903 49.9996 40.2323 49.9856 40.3607 49.9997L40.3628 52.9293C40.232 52.9421 40.0971 52.9369 39.9655 52.9382C39.9753 51.9594 39.9736 50.9807 39.9605 50.002Z" fill="#FD8A0A"/>
<path d="M44.3626 44.2577C44.378 45.6384 44.3786 47.0192 44.3643 48.3999C44.3539 48.6104 44.3476 48.8164 44.3572 49.0271C43.9083 49.0282 43.5373 49.043 43.1287 48.8476C43.0787 48.8237 43.028 48.8016 42.9777 48.7783C42.9134 48.5248 42.9224 48.2342 42.9057 47.9728C42.3582 47.8985 41.195 47.7582 40.7081 48.046C40.5999 47.9848 40.4912 47.959 40.3704 47.9286L40.3631 47.7844C40.6718 47.6086 40.9766 47.2551 41.2363 47.0124C42.0647 46.2379 43.4009 44.8144 44.3626 44.2577Z" fill="#FEFEFE"/>
<path d="M40.7081 48.046C41.195 47.7582 42.3582 47.8985 42.9057 47.9728C42.9224 48.2342 42.9134 48.5248 42.9777 48.7783C43.028 48.8016 43.0787 48.8237 43.1287 48.8476C43.5373 49.043 43.9083 49.0282 44.3572 49.0271C44.3476 48.8164 44.3539 48.6104 44.3643 48.3999C44.5246 49.8884 44.4208 51.442 44.4102 52.9395L43.3044 52.9362C42.4792 52.8955 41.6472 52.9154 40.8208 52.9174L40.3628 52.9293L40.3607 49.9997C40.5005 49.9608 40.6515 49.9601 40.7968 49.9489C41.6489 49.9409 42.5412 49.8892 43.3881 49.9664C43.4458 49.8774 43.4726 49.8299 43.4744 49.725C43.4461 49.6872 43.4255 49.6541 43.3839 49.6254C43.1011 49.4301 42.1591 49.5744 41.8102 49.5895C41.3257 49.5706 40.8351 49.5853 40.3501 49.5852C40.2958 49.0578 40.2439 48.4463 40.3704 47.9286C40.4912 47.959 40.5999 47.9848 40.7081 48.046Z" fill="#D4FCFE"/>
<path d="M40.7081 48.046C41.195 47.7582 42.3582 47.8985 42.9057 47.9728C42.9224 48.2342 42.9134 48.5248 42.9777 48.7783C42.9511 48.8661 42.9252 48.9134 42.8621 48.9834C42.2984 49.2322 41.3478 49.1071 40.7246 49.0761C40.7284 48.7326 40.7229 48.3893 40.7081 48.046Z" fill="#F35E56"/>
<path d="M40.7968 49.9489C41.6489 49.9409 42.5412 49.8892 43.3881 49.9664C43.1314 50.5807 43.2915 52.2463 43.3044 52.9362C42.4792 52.8955 41.6472 52.9154 40.8208 52.9174L40.3628 52.9293L40.3607 49.9997C40.5005 49.9608 40.6515 49.9601 40.7968 49.9489Z" fill="#F7B35C"/>
<path d="M40.3607 49.9997C40.5005 49.9608 40.6515 49.9601 40.7968 49.9489C40.8914 50.9411 40.8332 51.9239 40.8208 52.9174L40.3628 52.9293L40.3607 49.9997Z" fill="#FEFEFE"/>
<path d="M25.1444 47.9279C26.0944 47.1825 26.9558 46.2785 27.8488 45.4682C28.5366 44.8441 34.5611 39.4392 34.8656 39.3733C34.8683 39.7597 34.8861 40.1516 34.8594 40.537L34.8239 52.9396L25.1508 52.9392C25.1563 51.7577 25.1779 50.5742 25.141 49.393C25.1305 48.9051 25.1409 48.416 25.1444 47.9279Z" fill="#8EEDF7"/>
<path d="M25.1444 47.9279C26.0944 47.1825 26.9558 46.2785 27.8488 45.4682C28.5366 44.8441 34.5611 39.4392 34.8656 39.3733C34.8683 39.7597 34.8861 40.1516 34.8594 40.537C34.8384 40.6916 34.8465 40.8847 34.7379 41.0052C34.4108 41.3682 33.9743 41.696 33.605 42.0237L27.772 47.1794C26.9417 47.9147 26.1024 48.7007 25.1957 49.354L25.141 49.393C25.1305 48.9051 25.1409 48.416 25.1444 47.9279Z" fill="#FEFEFE"/>
<path d="M47.9188 16.0516C48.5389 16.0177 49.1639 16.043 49.7848 16.0523C50.9345 16.0664 52.0842 16.0642 53.2338 16.0458L56.6874 16.0585C57.4221 16.0581 58.1772 16.0234 58.9093 16.0756L59.0078 16.0792C59.9944 15.9738 61.0597 16.0476 62.057 16.0482C62.8999 16.0487 63.8287 15.979 64.6599 16.0773C65.7789 16.0812 66.9718 15.9834 68.0782 16.0952C68.4125 16.8317 68.9374 17.5348 69.3636 18.229C70.166 19.5359 70.9063 20.8758 71.7136 22.1805C72.3971 23.2854 73.5472 24.9243 74.0171 26.0724L74.0523 26.0862C74.1763 27.1965 74.1342 28.3168 74.0507 29.4279C74.0881 29.557 74.1204 29.6134 74.0812 29.7443C73.7846 30.8377 73.9648 32.7101 73.9344 33.8924C72.9648 33.8534 71.2624 34.0165 70.4198 33.8107C70.0331 33.7163 69.6965 33.5199 69.4226 33.2502C68.9424 32.7776 68.6963 32.1453 68.4634 31.545C68.0951 32.6045 67.6477 33.3239 66.5346 33.8298C66.4221 33.8809 66.3051 33.9189 66.188 33.9593C66.0992 33.99 66.1349 33.9746 66.0512 34.0274L66.0046 34.0462C65.844 34.0247 65.6749 34.0314 65.5123 34.0294C65.2124 33.9752 64.9069 33.9257 64.6159 33.8373C63.5454 33.512 62.9787 32.8968 62.4814 31.9854C62.383 32.1551 62.2747 32.3191 62.1565 32.4774C61.7237 33.0483 61.0197 33.4587 60.2787 33.5681C59.5872 33.6701 58.8926 33.4967 58.3338 33.1097C57.2022 32.3261 56.8936 31.0376 56.7069 29.8104C56.647 30.6499 56.5257 31.4757 56.0463 32.2066C55.6419 32.8229 55.0039 33.3462 54.231 33.4994C53.5969 33.6252 52.9643 33.5173 52.4221 33.1867C51.4286 32.5812 51.0449 31.5575 50.8078 30.5232C50.7535 30.9582 50.6634 31.375 50.4706 31.7765C50.1231 32.4998 49.4475 33.1473 48.6407 33.4217C48.6039 33.4342 48.5669 33.4459 48.5295 33.4566C48.4921 33.4674 48.4545 33.4772 48.4165 33.4862C48.3786 33.4953 48.3405 33.5034 48.3021 33.5106C48.2637 33.5178 48.2252 33.5241 48.1865 33.5295C48.1478 33.5349 48.109 33.5394 48.0701 33.5431C48.0312 33.5466 47.9921 33.5493 47.9531 33.5511C47.9139 33.5529 47.8748 33.5538 47.8356 33.5537C47.7966 33.5536 47.7575 33.5526 47.7184 33.5507C47.6793 33.5488 47.6403 33.546 47.6014 33.5423C47.5624 33.5386 47.5236 33.5339 47.485 33.5284C47.4463 33.5229 47.4078 33.5165 47.3694 33.5091C47.3311 33.5017 47.293 33.4935 47.2551 33.4845C47.2172 33.4753 47.1796 33.4653 47.1423 33.4544C47.1049 33.4435 47.0679 33.4317 47.0312 33.4192C46.9945 33.4066 46.9581 33.3931 46.9221 33.3788C46.8861 33.3644 46.8506 33.3493 46.8154 33.3333C45.5993 32.7766 45.2205 31.4323 44.8071 30.3398C44.6785 30.9077 44.5203 31.473 44.2463 31.997C43.9345 32.5934 43.4392 33.1172 42.7437 33.3279C42.1467 33.5089 41.4213 33.4655 40.8622 33.2006C39.6547 32.6286 39.3543 31.3771 38.9628 30.2822C38.7082 30.9639 38.4212 31.6627 37.9947 32.2692C37.6243 32.7959 37.0618 33.2429 36.3828 33.3637C35.7596 33.4747 35.1368 33.2874 34.6347 32.9425C33.7409 32.3284 33.3905 31.3617 33.2315 30.3784L33.1808 30.3065C33.0563 30.0458 32.9593 29.7778 32.8603 29.508C32.8244 28.3517 32.8476 27.1947 32.8609 26.0382L32.8844 26.0049C33.0127 25.0945 33.5111 24.1524 33.8304 23.279C34.7034 20.8906 35.6403 18.5212 36.4967 16.1284L36.5371 16.1207C37.1892 16.0013 39.0743 16.0939 39.8712 16.0948C41.7392 16.0669 43.6073 16.0604 45.4754 16.0755C46.2887 16.084 47.1053 16.0601 47.9188 16.0516Z" fill="#C67B51"/>
<path d="M44.6586 28.0547C44.6759 28.492 44.7086 28.9338 44.7038 29.3712C44.6778 29.4561 44.6857 29.4366 44.6529 29.519C44.3863 30.1892 43.9204 30.7181 43.21 31.0163C42.3893 31.3607 41.4301 31.3508 40.5982 31.0466C39.6639 30.705 39.1109 30.1063 38.7176 29.2628L38.753 28.3219C38.8504 28.359 38.9486 28.394 39.0476 28.427C41.222 29.1498 42.6151 28.9535 44.6586 28.0547Z" fill="#8D352E"/>
<path d="M38.7496 26.0006L42.3786 25.9945C43.1309 25.9939 43.9198 25.9534 44.6656 26.0465L44.6586 28.0547C42.6151 28.9535 41.222 29.1498 39.0476 28.427C38.9486 28.394 38.8504 28.359 38.753 28.3219L38.7496 26.0006Z" fill="#AD3C37"/>
<path d="M56.5168 26.0372C58.4265 26.068 60.37 25.912 62.272 26.0479L62.2976 26.4872C62.3243 27.4249 62.319 28.334 62.2662 29.27C62.2589 29.2897 62.252 29.3095 62.2445 29.3291C61.9921 29.9947 61.5109 30.5452 60.8159 30.8466C60.7751 30.8646 60.7339 30.8815 60.6922 30.8974C60.6505 30.9133 60.6084 30.9283 60.5659 30.9424C60.5234 30.9563 60.4806 30.9693 60.4374 30.9813C60.3942 30.9933 60.3507 31.0043 60.3069 31.0142C60.2631 31.0242 60.2191 31.0331 60.1748 31.041C60.1305 31.0489 60.0861 31.0557 60.0414 31.0615C59.9968 31.0673 59.952 31.0721 59.9071 31.0758C59.8622 31.0795 59.8172 31.0822 59.7722 31.0839C59.7272 31.0854 59.6821 31.086 59.6371 31.0855C59.592 31.0849 59.547 31.0834 59.502 31.0809C59.457 31.0782 59.4121 31.0746 59.3673 31.0699C59.3225 31.0652 59.2779 31.0594 59.2334 31.0527C59.1889 31.0458 59.1446 31.038 59.1005 31.0292C59.0565 31.0203 59.0127 31.0105 58.9692 30.9995C58.9257 30.9886 58.8825 30.9767 58.8396 30.9638C58.7966 30.9508 58.7541 30.9369 58.712 30.922C57.5519 30.5165 56.9964 29.5766 56.5081 28.5837C56.5192 27.748 56.5184 26.9123 56.5056 26.0766L56.5168 26.0372Z" fill="#F7B35C"/>
<path d="M50.6613 26.0536C51.7223 26.0036 55.6274 25.8728 56.5056 26.0766C56.5184 26.9123 56.5192 27.748 56.5081 28.5837C56.2606 29.4947 55.8386 30.3274 54.9296 30.8167C54.8899 30.8382 54.8496 30.8587 54.8088 30.8782C54.768 30.8977 54.7267 30.9162 54.6848 30.9337C54.643 30.9513 54.6007 30.9678 54.5579 30.9832C54.5151 30.9987 54.472 31.0131 54.4284 31.0265C54.3849 31.04 54.341 31.0523 54.2967 31.0636C54.2524 31.0748 54.2078 31.085 54.163 31.0942C54.1182 31.1033 54.0731 31.1114 54.0279 31.1182C53.9826 31.1252 53.9372 31.131 53.8916 31.1358C53.846 31.1406 53.8003 31.1442 53.7545 31.1467C53.7087 31.1493 53.6628 31.1507 53.617 31.151C53.571 31.1513 53.5251 31.1506 53.4793 31.1487C53.4335 31.1468 53.3877 31.1438 53.342 31.1397C53.2964 31.1356 53.2508 31.1304 53.2054 31.1241C53.1601 31.1177 53.1149 31.1103 53.07 31.1019C53.025 31.0934 52.9803 31.0838 52.9359 31.0731C52.8914 31.0625 52.8473 31.0508 52.8035 31.038C52.0404 30.8214 51.395 30.2956 51.0296 29.6394C50.8648 29.3438 50.7411 29.0214 50.6226 28.7074C50.6235 27.8227 50.6364 26.9381 50.6613 26.0536Z" fill="#AD3C37"/>
<path d="M68.2761 26.0589C69.5006 26.031 70.7284 26.0458 71.9533 26.0457C72.6203 26.0456 73.3587 25.9904 74.0171 26.0724L74.0523 26.0862C74.1763 27.1965 74.1342 28.3168 74.0507 29.4279C74.0458 29.4459 74.0419 29.4642 74.0359 29.482C73.8321 30.0912 73.2726 30.6156 72.6719 30.9005C72.6257 30.9225 72.5789 30.9435 72.5317 30.9633C72.4843 30.9832 72.4365 31.002 72.3882 31.0196C72.3398 31.0373 72.291 31.0538 72.2418 31.0691C72.1926 31.0845 72.1431 31.0987 72.0931 31.1118C72.0431 31.1248 71.9928 31.1367 71.9422 31.1475C71.8915 31.1582 71.8407 31.1677 71.7895 31.176C71.7384 31.1843 71.6871 31.1915 71.6356 31.1974C71.5841 31.2034 71.5324 31.2081 71.4806 31.2116C71.4289 31.2152 71.3771 31.2175 71.3252 31.2187C71.2733 31.2197 71.2214 31.2196 71.1695 31.2184C71.1177 31.2171 71.0658 31.2145 71.014 31.2108C70.9623 31.2071 70.9107 31.2022 70.8592 31.196C70.8077 31.1899 70.7564 31.1826 70.7053 31.174C70.6542 31.1655 70.6034 31.1559 70.5528 31.145C70.5022 31.1341 70.452 31.122 70.4021 31.1088C70.3522 31.0955 70.3026 31.0812 70.2535 31.0656C69.2177 30.7284 68.757 29.9844 68.3135 29.1154C68.2901 28.0983 68.4043 27.1011 68.2691 26.0849L68.2761 26.0589Z" fill="#F7B35C"/>
<path d="M44.6958 26.0339C46.68 26.0741 48.66 26.0008 50.6428 26.0104L50.6613 26.0536C50.6364 26.9381 50.6235 27.8227 50.6226 28.7074C50.2514 29.6403 49.7495 30.4816 48.7374 30.9195C48.017 31.2313 47.1229 31.1912 46.3904 30.929C45.5405 30.6249 45.0785 30.1188 44.7038 29.3712C44.7086 28.9338 44.6759 28.492 44.6586 28.0547L44.6656 26.0465L44.6958 26.0339Z" fill="#F7B35C"/>
<path d="M32.8844 26.0049C34.8395 26.0153 36.7946 26.0139 38.7496 26.0006L38.753 28.3219L38.7176 29.2628C38.1161 30.1762 37.4524 30.9205 36.287 31.1876C35.4773 31.3732 34.5684 31.2504 33.8545 30.8489C33.6254 30.72 33.4231 30.5513 33.2315 30.3784L33.1808 30.3065C33.0563 30.0458 32.9593 29.7778 32.8603 29.508C32.8244 28.3517 32.8476 27.1947 32.8609 26.0382L32.8844 26.0049Z" fill="#F7B35C"/>
<path d="M62.2976 26.4872C62.292 26.3414 62.2894 26.2187 62.3296 26.0755C62.6272 25.9592 67.4977 26.0818 68.2691 26.0849C68.4043 27.1011 68.2901 28.0983 68.3135 29.1154C68.0114 29.9908 67.6019 30.7198 66.6833 31.1588C65.9225 31.5223 64.9771 31.5527 64.1732 31.293C63.4333 31.0539 62.8624 30.5694 62.5209 29.9165C62.4135 29.7115 62.3512 29.4835 62.2662 29.27C62.319 28.334 62.3243 27.4249 62.2976 26.4872Z" fill="#AD3C37"/>
<path d="M39.8712 16.0948C41.7392 16.0669 43.6073 16.0604 45.4754 16.0755C45.3827 18.2227 45.1666 20.3944 44.9584 22.5352C44.8551 23.5976 44.5761 24.9863 44.6958 26.0339L44.6656 26.0465C43.9198 25.9534 43.1309 25.9939 42.3786 25.9945L38.7496 26.0006C36.7946 26.0139 34.8395 26.0153 32.8844 26.0049C33.0127 25.0945 33.5111 24.1524 33.8304 23.279C34.7034 20.8906 35.6403 18.5212 36.4967 16.1284L36.5371 16.1207C37.1892 16.0013 39.0743 16.0939 39.8712 16.0948Z" fill="#F35E56"/>
<path d="M36.5371 16.1207C37.8724 16.1283 39.2112 16.1431 40.5461 16.1164C40.1794 18.4971 39.6915 20.8697 39.2557 23.2408C39.0893 24.1461 38.8199 25.0874 38.7496 26.0006C36.7946 26.0139 34.8395 26.0153 32.8844 26.0049C33.0127 25.0945 33.5111 24.1524 33.8304 23.279C34.7034 20.8906 35.6403 18.5212 36.4967 16.1284L36.5371 16.1207Z" fill="#FDF9D2"/>
<path d="M59.0078 16.0792C59.9944 15.9738 61.0597 16.0476 62.057 16.0482C62.8999 16.0487 63.8287 15.979 64.6599 16.0773C65.7789 16.0812 66.9718 15.9834 68.0782 16.0952C68.4125 16.8317 68.9374 17.5348 69.3636 18.229C70.166 19.5359 70.9063 20.8758 71.7136 22.1805C72.3971 23.2854 73.5472 24.9243 74.0171 26.0724C73.3587 25.9904 72.6203 26.0456 71.9533 26.0457C70.7284 26.0458 69.5006 26.031 68.2761 26.0589L68.2691 26.0849C67.4977 26.0818 62.6272 25.9592 62.3296 26.0755C62.2894 26.2187 62.292 26.3414 62.2976 26.4872L62.272 26.0479C62.0523 25.4772 61.9073 24.8756 61.7287 24.2925C61.4295 23.3303 61.12 22.371 60.8 21.4147L59.6766 18.1512C59.4405 17.4682 59.1801 16.7785 59.0078 16.0792Z" fill="#F35E56"/>
<path d="M64.6599 16.0773C65.7789 16.0812 66.9718 15.9834 68.0782 16.0952C68.4125 16.8317 68.9374 17.5348 69.3636 18.229C70.166 19.5359 70.9063 20.8758 71.7136 22.1805C72.3971 23.2854 73.5472 24.9243 74.0171 26.0724C73.3587 25.9904 72.6203 26.0456 71.9533 26.0457C70.7284 26.0458 69.5006 26.031 68.2761 26.0589C67.7786 24.6942 67.0949 23.404 66.4844 22.0824C65.5683 20.0912 64.6727 18.092 63.7974 16.0849C64.0848 16.0856 64.3726 16.0801 64.6599 16.0773Z" fill="#FDF9D2"/>
<path d="M47.9188 16.0516C48.5389 16.0177 49.1639 16.043 49.7848 16.0523C50.9345 16.0664 52.0842 16.0642 53.2338 16.0458L56.6874 16.0585C57.4221 16.0581 58.1772 16.0234 58.9093 16.0756L59.0078 16.0792C59.1801 16.7785 59.4405 17.4682 59.6766 18.1512L60.8 21.4147C61.12 22.371 61.4295 23.3303 61.7287 24.2925C61.9073 24.8756 62.0523 25.4772 62.272 26.0479C60.37 25.912 58.4265 26.068 56.5168 26.0372L56.5056 26.0766C55.6274 25.8728 51.7223 26.0036 50.6613 26.0536L50.6428 26.0104C48.66 26.0008 46.68 26.0741 44.6958 26.0339C44.5761 24.9863 44.8551 23.5976 44.9584 22.5352C45.1666 20.3944 45.3827 18.2227 45.4754 16.0755C46.2887 16.084 47.1053 16.0601 47.9188 16.0516Z" fill="#F35E56"/>
<path d="M47.9188 16.0516C48.5446 16.087 49.1723 16.0834 49.799 16.0876C49.9491 18.4173 50.1948 20.7493 50.4071 23.0751C50.4928 24.0145 50.7278 25.0747 50.6428 26.0104C48.66 26.0008 46.68 26.0741 44.6958 26.0339C44.5761 24.9863 44.8551 23.5976 44.9584 22.5352C45.1666 20.3944 45.3827 18.2227 45.4754 16.0755C46.2887 16.084 47.1053 16.0601 47.9188 16.0516Z" fill="#FDF9D2"/>
<path d="M58.9093 16.0756L59.0078 16.0792C59.1801 16.7785 59.4405 17.4682 59.6766 18.1512L60.8 21.4147C61.12 22.371 61.4295 23.3303 61.7287 24.2925C61.9073 24.8756 62.0523 25.4772 62.272 26.0479C60.37 25.912 58.4265 26.068 56.5168 26.0372C56.1424 24.5015 55.8569 22.9537 55.5396 21.4075C55.1756 19.6339 54.7908 17.8702 54.4984 16.0845C55.9675 16.0864 57.4408 16.1093 58.9093 16.0756Z" fill="#FDF9D2"/>
<defs>
<linearGradient id="paint0_linear_278_1523" x1="97.2487" y1="35.2315" x2="-0.712647" y2="40.7917" gradientUnits="userSpaceOnUse">
<stop stop-color="#284676"/>
<stop offset="1" stop-color="#336B9B"/>
</linearGradient>
<linearGradient id="paint1_linear_278_1523" x1="11.9143" y1="50.3278" x2="80.4433" y2="0.361267" gradientUnits="userSpaceOnUse">
<stop stop-color="#293A62"/>
<stop offset="1" stop-color="#315380"/>
</linearGradient>
</defs>
</svg>
