<svg width="26" height="26" viewBox="0 0 26 26" fill="none" xmlns="http://www.w3.org/2000/svg">
<path d="M21.9778 13.9016L21.9634 14.0143L21.0208 21.394L21.9778 13.9016ZM21.9778 13.9016H21.8642M21.9778 13.9016H21.8642M21.8642 13.9016H4.14115H4.02718M21.8642 13.9016H4.02718M4.02718 13.9016L4.042 14.0146M4.02718 13.9016L4.042 14.0146M4.042 14.0146L5.01127 21.4037M4.042 14.0146L5.01127 21.4037M5.01127 21.4037C5.01127 21.4038 5.01127 21.4038 5.01127 21.4038M5.01127 21.4037L5.01127 21.4038M5.01127 21.4038C5.21245 22.9415 6.53346 24.1014 8.08362 24.1014M5.01127 21.4038L8.08362 24.1014M8.08362 24.1014H17.9471M8.08362 24.1014H17.9471M17.9471 24.1014C19.5026 24.1014 20.8251 22.9374 21.0208 21.3941L17.9471 24.1014ZM23.8856 13.5304L23.8371 13.5541L23.8302 13.6076L22.8076 21.6208L22.9068 21.6334L22.8076 21.6208C22.4967 24.0601 20.4073 25.9 17.9471 25.9H8.08362C5.6326 25.9 3.54314 24.0666 3.22567 21.6365L3.22566 21.6364L2.17237 13.6073L2.16537 13.554L2.11703 13.5304C0.926711 12.9501 0.1 11.7411 0.1 10.3337C0.1 8.36631 1.69915 6.76712 3.66648 6.76712H5.76773H5.82436L5.85349 6.71856L9.56127 0.537399C9.56127 0.537396 9.56127 0.537394 9.56127 0.537391C9.81695 0.111267 10.3701 -0.0278001 10.7958 0.228827L10.796 0.228934C11.2221 0.4846 11.3611 1.03785 11.1044 1.46359L11.1043 1.46376L8.01252 6.61566L7.92163 6.76712H8.09827H17.8991H18.0757L17.9848 6.61566L14.893 1.46377C14.893 1.46377 14.893 1.46377 14.893 1.46376C14.6374 1.03774 14.7754 0.484478 15.2013 0.228934L15.2014 0.22887C15.6259 -0.0265249 16.1792 0.111292 16.4362 0.537576L20.1439 6.71856L20.173 6.76712H20.2296H22.3335C24.3009 6.76712 25.9 8.36631 25.9 10.3337C25.9 11.7412 25.0745 12.9502 23.8856 13.5304ZM11.2341 17.0015V21.0014C11.2341 21.4982 10.8309 21.9014 10.3341 21.9014C9.83742 21.9014 9.43421 21.4982 9.43421 21.0014V17.0015C9.43421 16.5048 9.83742 16.1016 10.3341 16.1016C10.8309 16.1016 11.2341 16.5048 11.2341 17.0015ZM14.7672 17.0015C14.7672 16.5048 15.1705 16.1016 15.6672 16.1016C16.1639 16.1016 16.5671 16.5048 16.5671 17.0015V21.0014C16.5671 21.4982 16.1639 21.9014 15.6672 21.9014C15.1705 21.9014 14.7672 21.4982 14.7672 21.0014V17.0015ZM24.1001 10.335C24.1001 9.36114 23.3074 8.56838 22.3335 8.56838H3.66783C2.69398 8.56838 1.90124 9.36114 1.90124 10.335C1.90124 11.3089 2.69398 12.1017 3.66783 12.1017H22.3335C23.3074 12.1017 24.1001 11.3089 24.1001 10.335Z" fill="#4FBD01" stroke="white" stroke-width="0.2"/>
</svg>
