<svg width="96" height="72" viewBox="0 0 96 72" fill="none" xmlns="http://www.w3.org/2000/svg">
<g opacity="0.7">
<mask id="path-1-inside-1_264_246" fill="white">
<path d="M52.8442 2.82303C55.3524 2.69862 56.6737 7.57238 57.2862 9.45534C57.7847 10.9879 58.356 12.491 58.8321 14.0331C59.4812 16.1344 59.8628 18.5742 60.9861 20.4563C61.8282 21.8677 62.1381 22.9386 60.2828 23.636C57.5955 22.6981 57.8058 21.1853 56.9233 18.4318L54.0283 9.36943C53.8567 8.89283 53.2097 6.91522 52.7259 6.74822C52.069 7.19392 49.0223 19.0656 47.4078 20.4877C46.304 21.4601 45.6197 20.4146 44.9598 19.429C45.6584 17.2359 46.4256 15.333 47.1243 13.2323C48.2409 9.87538 49.4738 3.94182 52.8442 2.82303Z"/>
<path d="M66.2433 21.1092C67.0934 21.1504 68.0052 21.4138 68.8603 21.5164C71.0579 21.7802 76.3847 21.9983 78.2319 22.9227C79.5245 23.5697 80.2888 25.6177 79.7517 27.0517C79.275 28.3229 73.459 34.166 71.745 35.8973C70.2762 37.3809 68.7445 38.5267 67.872 40.5486C67.9709 41.5546 68.2946 42.6025 68.4775 43.6058C68.9605 46.2573 69.3426 48.9358 69.7528 51.6014C70.0621 53.6145 70.9222 55.8466 69.8418 57.7147C68.7265 59.6433 68.378 58.8056 67.0113 59.7017L66.9415 59.7481C64.3419 59.1516 64.6344 58.9232 62.5875 57.5979C60.7901 56.4344 58.9348 55.3653 57.1629 54.1591C55.0949 52.7514 53.8206 51.5731 51.2876 51.809C50.0728 52.0329 49.8996 51.8174 49.4001 50.6241C49.6517 49.8815 49.9257 49.2177 50.4062 48.6144C55.7578 47.1815 62.1493 54.7889 67.1258 56.5244C67.5695 55.9219 66.1356 47.9948 65.9252 46.8696C64.5342 39.4345 63.7252 39.5469 69.0047 34.1579C70.428 32.705 71.7867 31.1813 73.2299 29.7496C73.6419 29.3408 77.0905 26.5393 76.5832 25.9235C75.9677 25.1763 68.1054 24.4846 66.6011 24.3596C64.0948 24.1515 64.4384 22.5643 66.2433 21.1092Z"/>
<path d="M73.2971 0.0209222C76.236 -0.262889 76.6685 2.39231 77.4994 4.85263C78.0141 6.37822 80.0473 13.6793 80.9174 14.6175C81.2479 14.9739 86.4141 15.4105 87.0832 15.4667C89.2397 15.6479 95.2318 15.1275 95.9102 18.2511C96.0266 18.7867 96.0664 20.1205 95.8013 20.5854C95.4142 21.7993 88.9378 27.5339 87.1927 30.1928C87.1292 32.8452 87.6377 34.826 88.1188 37.3914C88.2121 37.89 89.4886 44.8469 89.4681 44.9415C89.1096 46.5962 87.5356 48.1565 85.8876 47.8415C83.3415 47.3549 79.0702 42.9903 76.8135 42.544C74.7821 42.1423 75.3553 43.3414 74.2817 40.8361C75.9229 37.1743 80.0679 40.6327 82.1553 41.9582L85.2727 43.938C87.0216 45.2056 86.1484 43.8315 85.9747 42.6915C85.4246 39.0757 83.0596 30.7079 84.6479 28.2144C85.7619 26.4659 92.7386 19.8364 92.8021 18.9723C92.3341 18.9612 88.3933 18.6743 88.2675 18.7188C85.7768 17.7802 81.4196 18.9906 79.2631 17.3825C77.416 16.0052 76.6156 12.136 75.9329 9.96251C75.2526 7.79802 74.2469 5.63387 73.8878 3.38057C73.7004 3.82339 73.566 4.28951 73.3973 4.74058L71.9006 8.79489C71.2788 10.4888 67.5751 22.1317 64.9693 16.5159C65.329 15.0601 66.5582 14.0053 67.1351 12.6258C68.5062 9.34981 70.3378 2.8679 72.2752 0.410667C72.5565 0.0533676 72.8932 0.0521583 73.2971 0.0209222Z"/>
<path d="M31.8838 6.09797C34.7272 6.10563 36.1459 11.2914 37.0122 13.5288C37.8556 15.707 40.9668 23.9335 42.385 25.3057C43.4879 26.3728 47.2298 26.3761 48.6917 26.5289L56.8051 27.4284C59.2759 27.7159 63.5627 27.6095 63.554 31.3922C63.5478 34.2854 60.5903 36.2482 58.8029 37.8981C56.6538 39.881 53.5075 42.744 51.6444 44.77C49.4413 47.1658 48.9333 47.9299 49.3383 51.3051C49.4103 51.9052 49.7042 52.4659 49.8072 53.0654C50.3028 55.9494 50.6761 58.8527 51.2751 61.7156C51.8884 64.6471 53.4146 67.8923 51.1928 70.2286C48.1282 73.4516 44.663 70.0076 41.9244 68.0884C40.0093 66.7463 32.9985 61.9447 31.572 61.9333H31.4976C29.0621 62.0898 19.7111 69.9378 15.8546 71.4861C15.2532 71.728 14.6764 71.6621 14.0958 72C13.3891 71.3954 12.688 70.8412 11.9519 70.279C11.0825 67.582 11.2814 67.3206 11.7444 64.5383C12.4036 60.5764 13.2717 56.6655 13.8671 52.6887C14.1938 50.5071 14.9588 48.5184 13.6028 46.7025C12.0452 44.6167 10.0389 43.1366 8.20549 41.3686C5.91774 39.1625 3.66272 36.9354 1.34353 34.7659C0.712576 34.1757 0.155558 33.9024 0.0615749 32.9426C-0.0588343 31.7129 -0.0766339 29.6671 0.717368 28.683C1.74284 27.4121 12.2207 26.7127 14.0594 26.4936C21.3182 25.6287 20.8776 26.4316 24.1615 18.8532C24.7661 17.4579 25.4006 16.0737 25.9723 14.6626C27.0253 12.0635 28.7285 6.37325 31.8838 6.09797ZM31.7467 9.3036C31.1022 10.5072 30.4571 11.8303 29.9341 13.0972L27.0581 19.9626C24.2019 26.6435 24.0669 28.1873 17.2008 29.19C14.674 29.559 12.1673 29.864 9.62573 30.1252C8.854 30.2045 2.53804 30.3162 3.15038 31.7822C4.59938 35.2508 14.2317 40.8302 16.823 46.1383C17.9199 48.3854 17.3912 49.6708 16.9919 52.0773C16.3147 56.1576 15.5077 60.1377 14.8177 64.1843C14.6668 65.069 13.986 67.8258 14.8735 68.474C15.5582 68.4848 24.8636 61.9232 26.1201 61.1205C28.1946 59.7951 29.3891 59.0065 31.9013 58.8043C34.4126 58.8607 36.8097 60.9337 38.845 62.2933C39.8182 62.9436 48.1105 68.8999 48.8776 68.2194C49.7451 67.4496 48.4952 63.4702 48.3055 62.4639C47.8615 60.1095 45.711 48.8938 46.2314 46.9937C47.0817 43.8883 51.3116 40.7948 53.5352 38.7162C54.7158 37.6126 55.8334 36.4222 56.9918 35.2904C57.5768 34.7184 60.9314 31.8738 60.4173 31.3124C59.874 30.7193 51.7946 29.9405 50.544 29.8343C41.8393 29.0958 40.6165 30.1017 36.9325 21.4175C36.2661 19.8465 32.4966 10.0349 31.7467 9.3036Z"/>
</mask>
<path d="M52.8442 2.82303C55.3524 2.69862 56.6737 7.57238 57.2862 9.45534C57.7847 10.9879 58.356 12.491 58.8321 14.0331C59.4812 16.1344 59.8628 18.5742 60.9861 20.4563C61.8282 21.8677 62.1381 22.9386 60.2828 23.636C57.5955 22.6981 57.8058 21.1853 56.9233 18.4318L54.0283 9.36943C53.8567 8.89283 53.2097 6.91522 52.7259 6.74822C52.069 7.19392 49.0223 19.0656 47.4078 20.4877C46.304 21.4601 45.6197 20.4146 44.9598 19.429C45.6584 17.2359 46.4256 15.333 47.1243 13.2323C48.2409 9.87538 49.4738 3.94182 52.8442 2.82303Z" fill="#4D4D4D"/>
<path d="M66.2433 21.1092C67.0934 21.1504 68.0052 21.4138 68.8603 21.5164C71.0579 21.7802 76.3847 21.9983 78.2319 22.9227C79.5245 23.5697 80.2888 25.6177 79.7517 27.0517C79.275 28.3229 73.459 34.166 71.745 35.8973C70.2762 37.3809 68.7445 38.5267 67.872 40.5486C67.9709 41.5546 68.2946 42.6025 68.4775 43.6058C68.9605 46.2573 69.3426 48.9358 69.7528 51.6014C70.0621 53.6145 70.9222 55.8466 69.8418 57.7147C68.7265 59.6433 68.378 58.8056 67.0113 59.7017L66.9415 59.7481C64.3419 59.1516 64.6344 58.9232 62.5875 57.5979C60.7901 56.4344 58.9348 55.3653 57.1629 54.1591C55.0949 52.7514 53.8206 51.5731 51.2876 51.809C50.0728 52.0329 49.8996 51.8174 49.4001 50.6241C49.6517 49.8815 49.9257 49.2177 50.4062 48.6144C55.7578 47.1815 62.1493 54.7889 67.1258 56.5244C67.5695 55.9219 66.1356 47.9948 65.9252 46.8696C64.5342 39.4345 63.7252 39.5469 69.0047 34.1579C70.428 32.705 71.7867 31.1813 73.2299 29.7496C73.6419 29.3408 77.0905 26.5393 76.5832 25.9235C75.9677 25.1763 68.1054 24.4846 66.6011 24.3596C64.0948 24.1515 64.4384 22.5643 66.2433 21.1092Z" fill="#4D4D4D"/>
<path d="M73.2971 0.0209222C76.236 -0.262889 76.6685 2.39231 77.4994 4.85263C78.0141 6.37822 80.0473 13.6793 80.9174 14.6175C81.2479 14.9739 86.4141 15.4105 87.0832 15.4667C89.2397 15.6479 95.2318 15.1275 95.9102 18.2511C96.0266 18.7867 96.0664 20.1205 95.8013 20.5854C95.4142 21.7993 88.9378 27.5339 87.1927 30.1928C87.1292 32.8452 87.6377 34.826 88.1188 37.3914C88.2121 37.89 89.4886 44.8469 89.4681 44.9415C89.1096 46.5962 87.5356 48.1565 85.8876 47.8415C83.3415 47.3549 79.0702 42.9903 76.8135 42.544C74.7821 42.1423 75.3553 43.3414 74.2817 40.8361C75.9229 37.1743 80.0679 40.6327 82.1553 41.9582L85.2727 43.938C87.0216 45.2056 86.1484 43.8315 85.9747 42.6915C85.4246 39.0757 83.0596 30.7079 84.6479 28.2144C85.7619 26.4659 92.7386 19.8364 92.8021 18.9723C92.3341 18.9612 88.3933 18.6743 88.2675 18.7188C85.7768 17.7802 81.4196 18.9906 79.2631 17.3825C77.416 16.0052 76.6156 12.136 75.9329 9.96251C75.2526 7.79802 74.2469 5.63387 73.8878 3.38057C73.7004 3.82339 73.566 4.28951 73.3973 4.74058L71.9006 8.79489C71.2788 10.4888 67.5751 22.1317 64.9693 16.5159C65.329 15.0601 66.5582 14.0053 67.1351 12.6258C68.5062 9.34981 70.3378 2.8679 72.2752 0.410667C72.5565 0.0533676 72.8932 0.0521583 73.2971 0.0209222Z" fill="#4D4D4D"/>
<path d="M31.8838 6.09797C34.7272 6.10563 36.1459 11.2914 37.0122 13.5288C37.8556 15.707 40.9668 23.9335 42.385 25.3057C43.4879 26.3728 47.2298 26.3761 48.6917 26.5289L56.8051 27.4284C59.2759 27.7159 63.5627 27.6095 63.554 31.3922C63.5478 34.2854 60.5903 36.2482 58.8029 37.8981C56.6538 39.881 53.5075 42.744 51.6444 44.77C49.4413 47.1658 48.9333 47.9299 49.3383 51.3051C49.4103 51.9052 49.7042 52.4659 49.8072 53.0654C50.3028 55.9494 50.6761 58.8527 51.2751 61.7156C51.8884 64.6471 53.4146 67.8923 51.1928 70.2286C48.1282 73.4516 44.663 70.0076 41.9244 68.0884C40.0093 66.7463 32.9985 61.9447 31.572 61.9333H31.4976C29.0621 62.0898 19.7111 69.9378 15.8546 71.4861C15.2532 71.728 14.6764 71.6621 14.0958 72C13.3891 71.3954 12.688 70.8412 11.9519 70.279C11.0825 67.582 11.2814 67.3206 11.7444 64.5383C12.4036 60.5764 13.2717 56.6655 13.8671 52.6887C14.1938 50.5071 14.9588 48.5184 13.6028 46.7025C12.0452 44.6167 10.0389 43.1366 8.20549 41.3686C5.91774 39.1625 3.66272 36.9354 1.34353 34.7659C0.712576 34.1757 0.155558 33.9024 0.0615749 32.9426C-0.0588343 31.7129 -0.0766339 29.6671 0.717368 28.683C1.74284 27.4121 12.2207 26.7127 14.0594 26.4936C21.3182 25.6287 20.8776 26.4316 24.1615 18.8532C24.7661 17.4579 25.4006 16.0737 25.9723 14.6626C27.0253 12.0635 28.7285 6.37325 31.8838 6.09797ZM31.7467 9.3036C31.1022 10.5072 30.4571 11.8303 29.9341 13.0972L27.0581 19.9626C24.2019 26.6435 24.0669 28.1873 17.2008 29.19C14.674 29.559 12.1673 29.864 9.62573 30.1252C8.854 30.2045 2.53804 30.3162 3.15038 31.7822C4.59938 35.2508 14.2317 40.8302 16.823 46.1383C17.9199 48.3854 17.3912 49.6708 16.9919 52.0773C16.3147 56.1576 15.5077 60.1377 14.8177 64.1843C14.6668 65.069 13.986 67.8258 14.8735 68.474C15.5582 68.4848 24.8636 61.9232 26.1201 61.1205C28.1946 59.7951 29.3891 59.0065 31.9013 58.8043C34.4126 58.8607 36.8097 60.9337 38.845 62.2933C39.8182 62.9436 48.1105 68.8999 48.8776 68.2194C49.7451 67.4496 48.4952 63.4702 48.3055 62.4639C47.8615 60.1095 45.711 48.8938 46.2314 46.9937C47.0817 43.8883 51.3116 40.7948 53.5352 38.7162C54.7158 37.6126 55.8334 36.4222 56.9918 35.2904C57.5768 34.7184 60.9314 31.8738 60.4173 31.3124C59.874 30.7193 51.7946 29.9405 50.544 29.8343C41.8393 29.0958 40.6165 30.1017 36.9325 21.4175C36.2661 19.8465 32.4966 10.0349 31.7467 9.3036Z" fill="#4D4D4D"/>
<path d="M52.8442 2.82303C55.3524 2.69862 56.6737 7.57238 57.2862 9.45534C57.7847 10.9879 58.356 12.491 58.8321 14.0331C59.4812 16.1344 59.8628 18.5742 60.9861 20.4563C61.8282 21.8677 62.1381 22.9386 60.2828 23.636C57.5955 22.6981 57.8058 21.1853 56.9233 18.4318L54.0283 9.36943C53.8567 8.89283 53.2097 6.91522 52.7259 6.74822C52.069 7.19392 49.0223 19.0656 47.4078 20.4877C46.304 21.4601 45.6197 20.4146 44.9598 19.429C45.6584 17.2359 46.4256 15.333 47.1243 13.2323C48.2409 9.87538 49.4738 3.94182 52.8442 2.82303Z" stroke="#FCFCFC" stroke-width="1.6" mask="url(#path-1-inside-1_264_246)"/>
<path d="M66.2433 21.1092C67.0934 21.1504 68.0052 21.4138 68.8603 21.5164C71.0579 21.7802 76.3847 21.9983 78.2319 22.9227C79.5245 23.5697 80.2888 25.6177 79.7517 27.0517C79.275 28.3229 73.459 34.166 71.745 35.8973C70.2762 37.3809 68.7445 38.5267 67.872 40.5486C67.9709 41.5546 68.2946 42.6025 68.4775 43.6058C68.9605 46.2573 69.3426 48.9358 69.7528 51.6014C70.0621 53.6145 70.9222 55.8466 69.8418 57.7147C68.7265 59.6433 68.378 58.8056 67.0113 59.7017L66.9415 59.7481C64.3419 59.1516 64.6344 58.9232 62.5875 57.5979C60.7901 56.4344 58.9348 55.3653 57.1629 54.1591C55.0949 52.7514 53.8206 51.5731 51.2876 51.809C50.0728 52.0329 49.8996 51.8174 49.4001 50.6241C49.6517 49.8815 49.9257 49.2177 50.4062 48.6144C55.7578 47.1815 62.1493 54.7889 67.1258 56.5244C67.5695 55.9219 66.1356 47.9948 65.9252 46.8696C64.5342 39.4345 63.7252 39.5469 69.0047 34.1579C70.428 32.705 71.7867 31.1813 73.2299 29.7496C73.6419 29.3408 77.0905 26.5393 76.5832 25.9235C75.9677 25.1763 68.1054 24.4846 66.6011 24.3596C64.0948 24.1515 64.4384 22.5643 66.2433 21.1092Z" stroke="#FCFCFC" stroke-width="1.6" mask="url(#path-1-inside-1_264_246)"/>
<path d="M73.2971 0.0209222C76.236 -0.262889 76.6685 2.39231 77.4994 4.85263C78.0141 6.37822 80.0473 13.6793 80.9174 14.6175C81.2479 14.9739 86.4141 15.4105 87.0832 15.4667C89.2397 15.6479 95.2318 15.1275 95.9102 18.2511C96.0266 18.7867 96.0664 20.1205 95.8013 20.5854C95.4142 21.7993 88.9378 27.5339 87.1927 30.1928C87.1292 32.8452 87.6377 34.826 88.1188 37.3914C88.2121 37.89 89.4886 44.8469 89.4681 44.9415C89.1096 46.5962 87.5356 48.1565 85.8876 47.8415C83.3415 47.3549 79.0702 42.9903 76.8135 42.544C74.7821 42.1423 75.3553 43.3414 74.2817 40.8361C75.9229 37.1743 80.0679 40.6327 82.1553 41.9582L85.2727 43.938C87.0216 45.2056 86.1484 43.8315 85.9747 42.6915C85.4246 39.0757 83.0596 30.7079 84.6479 28.2144C85.7619 26.4659 92.7386 19.8364 92.8021 18.9723C92.3341 18.9612 88.3933 18.6743 88.2675 18.7188C85.7768 17.7802 81.4196 18.9906 79.2631 17.3825C77.416 16.0052 76.6156 12.136 75.9329 9.96251C75.2526 7.79802 74.2469 5.63387 73.8878 3.38057C73.7004 3.82339 73.566 4.28951 73.3973 4.74058L71.9006 8.79489C71.2788 10.4888 67.5751 22.1317 64.9693 16.5159C65.329 15.0601 66.5582 14.0053 67.1351 12.6258C68.5062 9.34981 70.3378 2.8679 72.2752 0.410667C72.5565 0.0533676 72.8932 0.0521583 73.2971 0.0209222Z" stroke="#FCFCFC" stroke-width="1.6" mask="url(#path-1-inside-1_264_246)"/>
<path d="M31.8838 6.09797C34.7272 6.10563 36.1459 11.2914 37.0122 13.5288C37.8556 15.707 40.9668 23.9335 42.385 25.3057C43.4879 26.3728 47.2298 26.3761 48.6917 26.5289L56.8051 27.4284C59.2759 27.7159 63.5627 27.6095 63.554 31.3922C63.5478 34.2854 60.5903 36.2482 58.8029 37.8981C56.6538 39.881 53.5075 42.744 51.6444 44.77C49.4413 47.1658 48.9333 47.9299 49.3383 51.3051C49.4103 51.9052 49.7042 52.4659 49.8072 53.0654C50.3028 55.9494 50.6761 58.8527 51.2751 61.7156C51.8884 64.6471 53.4146 67.8923 51.1928 70.2286C48.1282 73.4516 44.663 70.0076 41.9244 68.0884C40.0093 66.7463 32.9985 61.9447 31.572 61.9333H31.4976C29.0621 62.0898 19.7111 69.9378 15.8546 71.4861C15.2532 71.728 14.6764 71.6621 14.0958 72C13.3891 71.3954 12.688 70.8412 11.9519 70.279C11.0825 67.582 11.2814 67.3206 11.7444 64.5383C12.4036 60.5764 13.2717 56.6655 13.8671 52.6887C14.1938 50.5071 14.9588 48.5184 13.6028 46.7025C12.0452 44.6167 10.0389 43.1366 8.20549 41.3686C5.91774 39.1625 3.66272 36.9354 1.34353 34.7659C0.712576 34.1757 0.155558 33.9024 0.0615749 32.9426C-0.0588343 31.7129 -0.0766339 29.6671 0.717368 28.683C1.74284 27.4121 12.2207 26.7127 14.0594 26.4936C21.3182 25.6287 20.8776 26.4316 24.1615 18.8532C24.7661 17.4579 25.4006 16.0737 25.9723 14.6626C27.0253 12.0635 28.7285 6.37325 31.8838 6.09797ZM31.7467 9.3036C31.1022 10.5072 30.4571 11.8303 29.9341 13.0972L27.0581 19.9626C24.2019 26.6435 24.0669 28.1873 17.2008 29.19C14.674 29.559 12.1673 29.864 9.62573 30.1252C8.854 30.2045 2.53804 30.3162 3.15038 31.7822C4.59938 35.2508 14.2317 40.8302 16.823 46.1383C17.9199 48.3854 17.3912 49.6708 16.9919 52.0773C16.3147 56.1576 15.5077 60.1377 14.8177 64.1843C14.6668 65.069 13.986 67.8258 14.8735 68.474C15.5582 68.4848 24.8636 61.9232 26.1201 61.1205C28.1946 59.7951 29.3891 59.0065 31.9013 58.8043C34.4126 58.8607 36.8097 60.9337 38.845 62.2933C39.8182 62.9436 48.1105 68.8999 48.8776 68.2194C49.7451 67.4496 48.4952 63.4702 48.3055 62.4639C47.8615 60.1095 45.711 48.8938 46.2314 46.9937C47.0817 43.8883 51.3116 40.7948 53.5352 38.7162C54.7158 37.6126 55.8334 36.4222 56.9918 35.2904C57.5768 34.7184 60.9314 31.8738 60.4173 31.3124C59.874 30.7193 51.7946 29.9405 50.544 29.8343C41.8393 29.0958 40.6165 30.1017 36.9325 21.4175C36.2661 19.8465 32.4966 10.0349 31.7467 9.3036Z" stroke="#FCFCFC" stroke-width="1.6" mask="url(#path-1-inside-1_264_246)"/>
</g>
</svg>
