<svg width="20" height="22" viewBox="0 0 20 22" fill="none" xmlns="http://www.w3.org/2000/svg">
<path d="M16.1535 22H3.84578C3.23374 22 2.64677 21.7682 2.21399 21.3556C1.78122 20.9431 1.53809 20.3835 1.53809 19.8V5.86667C1.53809 5.67217 1.61913 5.48565 1.76339 5.34812C1.90765 5.2106 2.1033 5.13333 2.30732 5.13333C2.51133 5.13333 2.70699 5.2106 2.85124 5.34812C2.9955 5.48565 3.07655 5.67217 3.07655 5.86667V19.8C3.07655 19.9945 3.15759 20.181 3.30185 20.3185C3.44611 20.4561 3.64177 20.5333 3.84578 20.5333H16.1535C16.3575 20.5333 16.5531 20.4561 16.6974 20.3185C16.8417 20.181 16.9227 19.9945 16.9227 19.8V5.86667C16.9227 5.67217 17.0037 5.48565 17.148 5.34812C17.2923 5.2106 17.4879 5.13333 17.6919 5.13333C17.8959 5.13333 18.0916 5.2106 18.2359 5.34812C18.3801 5.48565 18.4612 5.67217 18.4612 5.86667V19.8C18.4612 20.3835 18.218 20.9431 17.7853 21.3556C17.3525 21.7682 16.7655 22 16.1535 22Z" fill="#4D4D4D"/>
<path d="M19.2308 4.4H0.769231C0.565218 4.4 0.369561 4.32274 0.225302 4.18521C0.0810437 4.04769 0 3.86116 0 3.66667C0 3.47217 0.0810437 3.28565 0.225302 3.14812C0.369561 3.0106 0.565218 2.93333 0.769231 2.93333H19.2308C19.4348 2.93333 19.6304 3.0106 19.7747 3.14812C19.919 3.28565 20 3.47217 20 3.66667C20 3.86116 19.919 4.04769 19.7747 4.18521C19.6304 4.32274 19.4348 4.4 19.2308 4.4Z" fill="#4D4D4D"/>
<path d="M13.0774 4.4C12.8734 4.4 12.6777 4.32274 12.5334 4.18521C12.3892 4.04769 12.3081 3.86116 12.3081 3.66667V1.46667H7.69276V3.66667C7.69276 3.86116 7.61171 4.04769 7.46746 4.18521C7.3232 4.32274 7.12754 4.4 6.92353 4.4C6.71951 4.4 6.52386 4.32274 6.3796 4.18521C6.23534 4.04769 6.1543 3.86116 6.1543 3.66667V0.733333C6.1543 0.538841 6.23534 0.352315 6.3796 0.214788C6.52386 0.0772617 6.71951 0 6.92353 0H13.0774C13.2814 0 13.477 0.0772617 13.6213 0.214788C13.7656 0.352315 13.8466 0.538841 13.8466 0.733333V3.66667C13.8466 3.86116 13.7656 4.04769 13.6213 4.18521C13.477 4.32274 13.2814 4.4 13.0774 4.4Z" fill="#4D4D4D"/>
<path d="M9.9997 18.3333C9.79569 18.3333 9.60003 18.2561 9.45577 18.1185C9.31151 17.981 9.23047 17.7945 9.23047 17.6V7.33333C9.23047 7.13884 9.31151 6.95231 9.45577 6.81479C9.60003 6.67726 9.79569 6.6 9.9997 6.6C10.2037 6.6 10.3994 6.67726 10.5436 6.81479C10.6879 6.95231 10.7689 7.13884 10.7689 7.33333V17.6C10.7689 17.7945 10.6879 17.981 10.5436 18.1185C10.3994 18.2561 10.2037 18.3333 9.9997 18.3333Z" fill="#4D4D4D"/>
<path d="M13.8464 16.8667C13.6424 16.8667 13.4467 16.7894 13.3025 16.6519C13.1582 16.5144 13.0771 16.3278 13.0771 16.1333V8.8C13.0771 8.60551 13.1582 8.41898 13.3025 8.28146C13.4467 8.14393 13.6424 8.06667 13.8464 8.06667C14.0504 8.06667 14.246 8.14393 14.3903 8.28146C14.5346 8.41898 14.6156 8.60551 14.6156 8.8V16.1333C14.6156 16.3278 14.5346 16.5144 14.3903 16.6519C14.246 16.7894 14.0504 16.8667 13.8464 16.8667Z" fill="#4D4D4D"/>
<path d="M6.154 16.8667C5.94998 16.8667 5.75433 16.7894 5.61007 16.6519C5.46581 16.5144 5.38477 16.3278 5.38477 16.1333V8.8C5.38477 8.60551 5.46581 8.41898 5.61007 8.28146C5.75433 8.14393 5.94998 8.06667 6.154 8.06667C6.35801 8.06667 6.55367 8.14393 6.69792 8.28146C6.84218 8.41898 6.92323 8.60551 6.92323 8.8V16.1333C6.92323 16.3278 6.84218 16.5144 6.69792 16.6519C6.55367 16.7894 6.35801 16.8667 6.154 16.8667Z" fill="#4D4D4D"/>
</svg>
