<svg width="24" height="24" viewBox="0 0 24 24" fill="none" xmlns="http://www.w3.org/2000/svg">
<path d="M14.3846 2L2 14.075L11.1538 23L23 11.975V2H14.3846Z" fill="#4FBD01"/>
<path d="M11.181 24C10.4866 24 9.8457 23.7328 9.36498 23.2518L2.26113 16.1437C1.24629 15.1283 1.24629 13.5249 2.26113 12.5095L11.7685 2.99643C12.6231 2.14132 14.1721 1.5 15.3472 1.5H21.4362C22.8249 1.5 24 2.67577 24 4.06531V10.158C24 11.3337 23.359 12.8836 22.5044 13.7387L12.997 23.2518C12.5163 23.7328 11.8754 24 11.181 24ZM15.3472 3.10333C14.5994 3.10333 13.4243 3.58432 12.8902 4.11876L3.38279 13.6318C3.0089 14.0059 3.0089 14.5938 3.38279 14.9679L10.4866 22.076C10.8605 22.4501 11.5015 22.4501 11.822 22.076L21.3294 12.563C21.8635 12.0285 22.3442 10.9062 22.3442 10.1045V4.01188C22.3442 3.47744 21.9169 3.04988 21.3828 3.04988H15.3472V3.10333Z" fill="#4FBD01"/>
<path d="M17.5901 11.0665C15.8809 11.0665 14.4388 9.67696 14.4388 7.9133C14.4388 6.20309 15.8275 4.7601 17.5901 4.7601C19.2993 4.7601 20.7414 6.14964 20.7414 7.9133C20.7414 9.62351 19.3527 11.0665 17.5901 11.0665ZM17.5901 6.25653C16.6821 6.25653 15.9343 7.00475 15.9343 7.9133C15.9343 8.82185 16.6821 9.57007 17.5901 9.57007C18.4981 9.57007 19.2459 8.82185 19.2459 7.9133C19.2459 7.00475 18.4981 6.25653 17.5901 6.25653Z" fill="#4FBD01"/>
<circle cx="17" cy="8" r="3" fill="#FDF5E5"/>
</svg>
