<svg width="22" height="22" viewBox="0 0 22 22" fill="none" xmlns="http://www.w3.org/2000/svg">
<path d="M10.9999 21.1918L2.36614 12.0849C-0.0650328 9.45479 -0.0026952 5.24657 2.49081 2.68219C4.82847 0.282191 8.53756 0.150684 10.9999 2.41918C13.4934 0.150684 17.2337 0.282191 19.5713 2.74794C22.0025 5.31233 22.0337 9.48767 19.6337 12.0849L10.9999 21.1918ZM3.14536 11.4932L11.0311 19.811L18.948 11.4603C21.0363 9.25753 21.0363 5.6411 18.948 3.43836C16.8596 1.23562 13.4622 1.23562 11.3428 3.43836L10.9999 3.8L10.657 3.43836C8.56873 1.20274 5.17133 1.20274 3.05185 3.3726C0.93237 5.54247 0.93237 9.1589 2.98951 11.3945L3.05185 11.4274L3.14536 11.4932Z" fill="#4D4D4D" stroke="#4D4D4D" stroke-width="0.5"/>
</svg>
