<svg width="120" height="120" viewBox="0 0 120 120" fill="none" xmlns="http://www.w3.org/2000/svg">
<g clip-path="url(#clip0_13_8)">
<path d="M60 119.217C27.2478 119.217 0.782593 92.7522 0.782593 60C0.782593 27.2478 27.2478 0.782623 60 0.782623C92.7522 0.782623 119.217 27.2478 119.217 60C119.217 92.7522 92.7522 119.217 60 119.217Z" fill="#4FBD01"/>
<path d="M47.2435 33.1174L46.9174 27.0261L54.887 26.5305C57.7957 26.3609 60.6 25.4218 63.0783 23.8696C65.2304 22.5261 68.4131 21.1305 72.1826 21.3783C78.8739 21.8087 83.5174 28.3696 81.3783 34.7218C81.3435 34.8261 81.3044 34.9348 81.2609 35.0479C81.2609 35.0479 98.9087 36.8087 98.9087 62.6479C98.9087 62.6479 99.8739 85.5913 72.1174 88.9696L75 96.9913C75 96.9913 57.8348 94.7478 47.7261 96.9913L49.0044 89.2826C49.0044 89.2826 28.2652 88.9305 22.1218 69.9913C19.8522 62.9609 20.2565 55.3174 23.2435 48.5739C26.4261 41.3609 33.1435 33.1174 47.2435 33.1174Z" fill="white"/>
<path fill-rule="evenodd" clip-rule="evenodd" d="M47.0347 97.7218L48.3521 89.8174C46.7608 89.7131 42.4826 89.2566 37.6565 87.2609C32.113 84.9783 24.8347 80.1522 21.5869 70.1609C19.2782 63.0131 19.6826 55.2522 22.7347 48.3392C25.8652 41.2435 32.5565 32.7913 46.6434 32.5565L46.3304 26.4913L54.8608 25.9696C57.613 25.8 60.3521 24.9131 62.7782 23.4C64.8782 22.0826 68.2304 20.5565 72.2217 20.8174C75.6652 21.0392 78.7434 22.8 80.6608 25.6696C82.4478 28.3305 82.9304 31.5652 82.0043 34.5913C83.4521 34.8652 86.9347 35.8044 90.4434 38.7261C93.0782 40.9174 95.1782 43.7609 96.6782 47.2044C98.5304 51.4826 99.4826 56.6739 99.4826 62.6348C99.4956 63.0131 99.6391 68.6609 96.4173 74.8044C94.5 78.4566 91.7869 81.5218 88.3304 83.8957C84.1956 86.7392 79.0043 88.6044 72.8869 89.4392L75.8478 97.6696L74.9347 97.5522C74.7652 97.5261 57.7434 95.3348 47.8434 97.5392L47.0347 97.7218ZM59.3347 95.4261C65.7782 95.4261 71.8956 96.0522 74.1652 96.3261L71.3478 88.5L72.0521 88.4087C83.2174 87.0522 91.2913 82.1739 95.4391 74.2826C98.5565 68.3348 98.3608 62.7261 98.3608 62.6739V62.6479C98.3608 52.2913 95.3999 44.3348 89.7782 39.6392C85.5521 36.0913 81.2478 35.6087 81.2086 35.6087L80.4913 35.5305L80.7391 34.8522C80.7826 34.7479 80.8173 34.6479 80.8434 34.5522C81.7826 31.7609 81.3782 28.7609 79.7347 26.2957C78.013 23.7261 75.2478 22.1348 72.1565 21.9392C68.4652 21.7044 65.3478 23.1261 63.3782 24.3522C60.7956 25.9696 57.8739 26.9218 54.926 27.0913L47.5173 27.5478L47.8304 33.6783H47.2434C33.3521 33.6783 26.8043 41.9087 23.7652 48.7957C20.8174 55.4609 20.426 62.9218 22.6695 69.8218C25.1478 77.5044 30.326 83.0087 38.0478 86.2044C43.8391 88.6044 48.9652 88.7218 49.0173 88.7348H49.6695L48.4174 96.2739C51.6913 95.6348 55.5782 95.4261 59.3347 95.4261Z" fill="#4FBD01"/>
<path d="M58.0826 84.7957H47.5695C35.5174 84.7957 25.7347 75.0261 25.7347 62.9609V60.4044C25.7347 48.3522 35.5043 38.5696 47.5695 38.5696H57.6521C48 40.8391 40.826 49.5 40.826 59.8305V63.4435C40.826 73.9305 48.2217 82.6957 58.0826 84.7957Z" fill="#4FBD01"/>
<path fill-rule="evenodd" clip-rule="evenodd" d="M25.4217 101.948L20.1913 97.0826L26.0348 90.7826L25.3695 90.1565L28.0826 87.2348L29.3609 88.4087L27.8217 90.0652L32.5956 94.5L34.1348 92.8435L35.4 94.0174L32.6869 96.9522L32.0478 96.3522C31.1348 96.7087 30.2304 97.2696 29.3348 98.0348C28.4391 98.8 27.3826 99.8391 26.1652 101.152L25.4217 101.948ZM25.1478 99.3131C27.2869 97.0174 29.0522 95.5348 30.4435 94.8652L27.5609 92.1913L22.8913 97.2261L25.1478 99.3131Z" fill="#4FBD01"/>
<path fill-rule="evenodd" clip-rule="evenodd" d="M19.3696 87.6913L20.0609 89.387C19.3478 89.6044 18.7087 89.6 18.1435 89.3739C17.587 89.1478 17.0478 88.6217 16.5261 87.7957C16.0478 87.0565 15.7783 86.4478 15.7174 85.9696C15.6652 85.4913 15.7261 85.0913 15.9 84.7696C16.0739 84.4478 16.5261 84.0565 17.2565 83.5957L19.2131 82.3565C19.7696 82.0087 20.1609 81.7217 20.387 81.4957C20.6131 81.2696 20.8304 80.987 21.0391 80.6478L22.0957 82.3044C22.0174 82.4174 21.887 82.5783 21.7044 82.787C21.6261 82.8739 21.5739 82.9348 21.5478 82.9696C22.0087 83.0739 22.4131 83.2435 22.7609 83.4783C23.1087 83.713 23.4 84.0174 23.6348 84.3913C24.0522 85.0348 24.2044 85.6565 24.0913 86.2565C23.9783 86.8565 23.6522 87.3304 23.1131 87.6783C22.7565 87.9044 22.3826 88.0217 21.9913 88.0304C21.6087 88.0391 21.2435 87.9391 20.8957 87.7304C20.5478 87.513 20.1348 87.1522 19.6565 86.6478C19.0131 85.9609 18.5304 85.5087 18.2087 85.2913L18.0391 85.3957C17.7174 85.6044 17.5391 85.8304 17.5044 86.0739C17.4696 86.3174 17.5957 86.6609 17.8826 87.1043C18.0652 87.4 18.2696 87.5957 18.4957 87.6913C18.7217 87.7783 19.0131 87.7783 19.3696 87.6913ZM19.2913 84.6C19.5 84.7652 19.8044 85.0478 20.2044 85.4478C20.5957 85.8478 20.887 86.087 21.0783 86.1652C21.3652 86.287 21.6304 86.2739 21.8739 86.1261C22.1 85.9696 22.2435 85.7522 22.3044 85.4739C22.3652 85.187 22.3087 84.9087 22.1348 84.6391C21.9435 84.3435 21.6609 84.1217 21.287 83.9739C21.0087 83.8696 20.7391 83.8522 20.4783 83.9217C20.3131 83.9739 20.0304 84.1261 19.6304 84.3783L19.2913 84.6Z" fill="#4FBD01"/>
<path d="M12.2347 79.3696L10.0956 73.0826L17.1782 70.6696L17.8173 72.5348L12.2478 74.4261L13.1217 76.9826L16.3043 75.9C17.113 75.6217 17.713 75.5217 18.1043 75.6C18.4956 75.6782 18.7825 75.813 18.9651 76.0043C19.1391 76.1956 19.313 76.5435 19.4869 77.0478C19.5912 77.3435 19.6869 77.7522 19.7738 78.2739L18.3912 78.7435C18.3825 78.7 18.3521 78.5913 18.2999 78.4174C18.2478 78.2174 18.2043 78.0652 18.1695 77.9609C18.0825 77.7087 17.9434 77.5826 17.7521 77.5826C17.5695 77.5826 17.0956 77.7087 16.3304 77.9609L12.2347 79.3696Z" fill="#4FBD01"/>
<path fill-rule="evenodd" clip-rule="evenodd" d="M8.93472 67.2652L8.7782 65.2826L11.8825 65.0478L11.726 63.0652C11.6652 62.2913 11.6782 61.6913 11.7652 61.2652C11.8434 60.8391 12.0565 60.4739 12.4043 60.1696C12.7608 59.8652 13.1825 59.6913 13.6695 59.6478C14.3912 59.5957 14.9521 59.8044 15.3521 60.2739C15.7608 60.7348 15.9999 61.4609 16.0695 62.4522L16.3956 66.6913L8.93472 67.2652ZM14.9999 64.8131L14.8565 62.9739C14.813 62.4 14.6912 62.0391 14.4912 61.8913C14.2912 61.7435 14.0652 61.6783 13.813 61.6957C13.4478 61.7218 13.2086 61.8783 13.0956 62.1652C12.9825 62.4609 12.9521 62.9652 13.0043 63.6783L13.1086 64.9565L14.9999 64.8131Z" fill="#4FBD01"/>
<path d="M8.69995 54.6783L9.02604 52.7217L11.7391 53.1913L12.2217 50.387L9.50865 49.9304L9.84778 47.9739L17.2304 49.2391L16.8913 51.1956L13.8 50.6609L13.3173 53.4652L16.4086 54L16.0695 55.9435L8.69995 54.6783Z" fill="#4FBD01"/>
<path fill-rule="evenodd" clip-rule="evenodd" d="M17.9478 40.4609L19.0304 38.7783C19.5956 39.2913 19.9435 39.8783 20.0739 40.5391C20.2043 41.1913 20.1087 41.8957 19.7869 42.6522C19.2739 43.8435 18.5 44.5609 17.4652 44.8044C16.6478 44.987 15.7609 44.8739 14.8043 44.4652C13.6652 43.9696 12.9 43.287 12.5087 42.4174C12.1174 41.5391 12.1174 40.6435 12.5087 39.7305C12.9522 38.7131 13.6391 38.0522 14.5696 37.7478C15.5 37.4435 16.6565 37.6044 18.0391 38.2305L16.0826 42.7957C16.6304 43.0131 17.113 43.0478 17.5304 42.9C17.9478 42.7435 18.2478 42.4565 18.4304 42.0391C18.5522 41.7522 18.5783 41.4783 18.5087 41.2174C18.4391 40.9565 18.2522 40.7044 17.9478 40.4609ZM16.1478 39.5609C15.6174 39.3522 15.1609 39.3174 14.7783 39.4565C14.3869 39.5957 14.113 39.8522 13.9565 40.2261C13.7826 40.6261 13.7869 41.0174 13.9696 41.4C14.1435 41.7826 14.4783 42.0783 14.9739 42.287L16.1478 39.5609Z" fill="#4FBD01"/>
<path fill-rule="evenodd" clip-rule="evenodd" d="M16.826 31.8131L19.4347 28.3435C19.9739 27.6391 20.5043 27.2087 21.026 27.0522C21.5478 26.8957 22.0695 27.0131 22.5913 27.4044C22.9304 27.6565 23.1521 27.9739 23.2565 28.3565C23.3521 28.7304 23.3304 29.0957 23.1913 29.4522C23.6087 29.1218 24.0304 28.9565 24.4565 28.9565C24.8913 28.9652 25.2739 29.0957 25.6043 29.3478C26.0652 29.6957 26.313 30.1522 26.3478 30.7174C26.3826 31.2739 26.1478 31.887 25.6434 32.5565L22.8 36.3261L16.826 31.8131ZM20.5174 32.087L21.2869 31.0696C21.6521 30.5826 21.8565 30.1826 21.9 29.8696C21.9434 29.5565 21.8304 29.3 21.5608 29.1C21.3087 28.9087 21.0521 28.8739 20.7913 28.9957C20.5304 29.1174 20.2043 29.4391 19.813 29.9609L19.0434 30.9783L20.5174 32.087ZM22.9956 33.9652L23.9478 32.7131C24.2869 32.2609 24.4782 31.8913 24.5217 31.6044C24.5652 31.3174 24.4478 31.0652 24.1695 30.8478C23.8739 30.6305 23.5826 30.6 23.2956 30.7565C23.0087 30.9044 22.6087 31.3218 22.0956 32.0087L21.4826 32.8174L22.9956 33.9652Z" fill="#4FBD01"/>
<path fill-rule="evenodd" clip-rule="evenodd" d="M26.8174 25.3956C26.4087 24.8826 26.1348 24.2869 25.9957 23.6087C25.8652 22.9304 25.9261 22.2739 26.1783 21.6391C26.4391 21.013 26.8522 20.4696 27.4174 20.0087C28.3043 19.2956 29.2609 18.9956 30.287 19.1087C31.3044 19.2304 32.1696 19.7261 32.8826 20.5956C33.5957 21.4739 33.9044 22.4348 33.8087 23.4782C33.7044 24.513 33.2217 25.3826 32.3609 26.0869C31.8304 26.513 31.2261 26.8043 30.5478 26.9609C29.8696 27.1087 29.213 27.0522 28.5783 26.7913C27.9522 26.5304 27.3652 26.0652 26.8174 25.3956ZM28.4739 24.2087C28.9348 24.7826 29.4261 25.113 29.9478 25.2C30.4783 25.2782 30.9435 25.1565 31.3435 24.8348C31.7435 24.5043 31.9565 24.0782 31.9826 23.5565C32 23.0261 31.7739 22.4696 31.3044 21.8869C30.8435 21.313 30.3522 20.9869 29.8304 20.9087C29.3087 20.8217 28.8478 20.9391 28.4478 21.2609C28.0391 21.5826 27.8261 22.0087 27.8087 22.5391C27.7826 23.0696 28.0044 23.6261 28.4739 24.2087Z" fill="#4FBD01"/>
<path d="M41.7913 14.2044L40.1739 15.3652C39.9478 15.0435 39.6869 14.8435 39.3913 14.7652C39.0956 14.6957 38.7826 14.7391 38.4521 14.8957C38.0087 15.1131 37.726 15.4391 37.6043 15.8739C37.4913 16.3087 37.6087 16.8826 37.9565 17.5957C38.3391 18.4044 38.7434 18.9087 39.1695 19.1087C39.5956 19.3087 40.0347 19.3 40.4869 19.0826C40.826 18.9174 41.0608 18.687 41.1913 18.3913C41.313 18.0957 41.3043 17.6913 41.1652 17.1783L43.0565 16.6305C43.2652 17.5261 43.2087 18.3 42.8869 18.9522C42.5739 19.6131 41.9826 20.1522 41.113 20.5696C40.1217 21.0478 39.1826 21.1174 38.2956 20.7783C37.4087 20.4391 36.7 19.7174 36.1695 18.6131C35.6391 17.5 35.5174 16.4913 35.8043 15.587C36.1 14.6826 36.7478 13.987 37.7478 13.5C38.5739 13.1087 39.313 12.9739 39.9652 13.0957C40.6174 13.2174 41.226 13.587 41.7913 14.2044Z" fill="#4FBD01"/>
<path d="M44.9216 10.787L51.5216 9.24783L51.8868 10.8131L49.5521 11.3478L50.8825 17.087L48.9521 17.5304L47.6216 11.8044L45.2869 12.3391L44.9216 10.787Z" fill="#4FBD01"/>
<path fill-rule="evenodd" clip-rule="evenodd" d="M55.7869 12.3391C55.7869 11.6783 55.9477 11.0391 56.2695 10.4217C56.5912 9.80435 57.0477 9.33478 57.639 9.01305C58.2303 8.68261 58.8956 8.51739 59.6347 8.51739C60.7651 8.5087 61.6956 8.87392 62.426 9.61305C63.1477 10.3435 63.513 11.2696 63.5216 12.3913C63.5216 13.5304 63.1564 14.4739 62.426 15.2217C61.7043 15.9696 60.7869 16.3435 59.6738 16.3435C58.9869 16.3435 58.3303 16.1913 57.7043 15.887C57.0869 15.5826 56.613 15.1304 56.2825 14.5304C55.9521 13.9304 55.7869 13.2 55.7869 12.3391ZM57.8216 12.4304C57.8216 13.1783 57.9999 13.7478 58.3564 14.1391C58.7043 14.5304 59.139 14.7261 59.6608 14.7261C60.1738 14.7261 60.6043 14.5261 60.9521 14.1261C61.3086 13.7348 61.4825 13.1609 61.4738 12.4044C61.4738 11.6739 61.2999 11.113 60.9521 10.7217C60.5956 10.3217 60.1608 10.1261 59.6477 10.1348C59.126 10.1348 58.6912 10.3304 58.3434 10.7217C57.9869 11.1217 57.8129 11.6913 57.8216 12.4304Z" fill="#4FBD01"/>
<path d="M68.2826 9.24783L70.226 9.73044L69.7956 11.4652C69.6999 11.8652 69.6652 12.1696 69.6912 12.3783C69.7086 12.587 69.8173 12.7913 70.0173 12.9913C70.2086 13.1826 70.4825 13.3217 70.8391 13.4087C71.1782 13.4957 71.5826 13.5131 72.0521 13.4609L72.8086 10.3565L74.7391 10.8391L72.9391 18.1044L71.0217 17.6348L71.7391 14.7261C70.9391 14.7435 70.3434 14.7044 69.9521 14.6087C69.3608 14.4609 68.8608 14.2044 68.4521 13.8391C68.0434 13.4652 67.7999 13.0609 67.7217 12.6261C67.6521 12.1913 67.6956 11.6435 67.8521 10.9826L68.2826 9.24783Z" fill="#4FBD01"/>
<path d="M80.0739 12.7174L81.8348 13.6174L80.5957 16.0696L83.1261 17.3478L84.3652 14.8957L86.1391 15.8087L82.7478 22.487L80.9739 21.587L82.3957 18.7826L79.8652 17.4913L78.4435 20.2957L76.6826 19.3957L80.0739 12.7174Z" fill="#4FBD01"/>
<path fill-rule="evenodd" clip-rule="evenodd" d="M90.5738 21.7826L89.426 20.3609C90.0521 19.9435 90.6651 19.7609 91.2651 19.813C91.8651 19.8739 92.5347 20.2217 93.2738 20.8565C93.9434 21.4304 94.3738 21.9391 94.5651 22.3826C94.7564 22.8174 94.8173 23.2174 94.7477 23.5826C94.6695 23.9391 94.3521 24.4435 93.7956 25.0957L92.2695 26.8435C91.8434 27.3391 91.5521 27.7261 91.3956 28.0044C91.239 28.2826 91.1086 28.613 91.0043 28.9957L89.5173 27.7304C89.5695 27.5913 89.6477 27.4 89.7521 27.1565C89.8042 27.0435 89.839 26.9696 89.8564 26.9348C89.3869 26.9609 88.9521 26.913 88.5521 26.7913C88.1521 26.6609 87.7825 26.4565 87.4434 26.1783C86.8608 25.6739 86.539 25.1174 86.4782 24.5087C86.4086 23.9 86.5825 23.3565 86.9999 22.8783C87.2782 22.5565 87.5999 22.3348 87.9651 22.213C88.339 22.0913 88.7216 22.0826 89.1129 22.187C89.5043 22.2913 89.9999 22.5174 90.5999 22.8652C91.4173 23.3348 92.0129 23.6261 92.3869 23.7391L92.5173 23.5957C92.7608 23.3087 92.8651 23.0391 92.8303 22.787C92.7869 22.5435 92.5695 22.2522 92.1782 21.913C91.9086 21.687 91.6564 21.5609 91.4216 21.5348C91.1782 21.5087 90.8956 21.5913 90.5738 21.7826ZM91.539 24.7174C91.2956 24.6217 90.926 24.4391 90.4303 24.1696C89.9347 23.9 89.5869 23.7522 89.3869 23.7261C89.0738 23.7 88.826 23.7957 88.6434 24.013C88.4608 24.2217 88.3825 24.4696 88.4086 24.7565C88.4347 25.0435 88.5695 25.2913 88.8129 25.5C89.0825 25.7348 89.4173 25.8652 89.8173 25.8913C90.1129 25.9174 90.3738 25.8565 90.5999 25.7087C90.7477 25.613 90.9782 25.3826 91.2912 25.0174L91.539 24.7174Z" fill="#4FBD01"/>
<path fill-rule="evenodd" clip-rule="evenodd" d="M103.226 32.4391L97.1738 36.8478L96.013 35.2565L98.5304 33.4304L98.426 33.2739C98.1738 32.9261 97.9434 32.7043 97.7347 32.6087C97.526 32.513 97.2043 32.4696 96.7695 32.4783H96.5869L94.1217 32.6478L92.7651 30.7826L95.3608 30.6522C96.0999 30.6174 96.6043 30.7043 96.8738 30.913C96.5695 30.4435 96.4738 29.9565 96.5869 29.4522C96.6999 28.9478 96.9999 28.5174 97.4869 28.1609C97.8782 27.8739 98.2782 27.7217 98.6869 27.7043C99.1043 27.687 99.4738 27.7956 99.7956 28.0304C100.117 28.2652 100.496 28.6826 100.93 29.2826L103.226 32.4391ZM101.048 31.6043L100.213 30.4565C99.8999 30.0304 99.6217 29.7783 99.3782 29.7C99.1347 29.613 98.8738 29.6696 98.5956 29.8696C98.3173 30.0696 98.1912 30.313 98.2173 30.6C98.2347 30.8783 98.4043 31.2391 98.726 31.6826L99.4825 32.7261L101.048 31.6043Z" fill="#4FBD01"/>
<path fill-rule="evenodd" clip-rule="evenodd" d="M112.696 48.1565L113.087 50.0739L109.37 50.8435C109.778 51.0087 110.109 51.2348 110.361 51.5217C110.613 51.8087 110.778 52.1609 110.857 52.5783C111.022 53.3696 110.774 54.0957 110.113 54.7565C109.461 55.4087 108.604 55.8435 107.543 56.0609C106.474 56.2783 105.517 56.1826 104.674 55.7739C103.83 55.3652 103.33 54.7783 103.174 54.013C103.104 53.6652 103.122 53.3261 103.226 52.9957C103.339 52.6565 103.539 52.3217 103.826 51.9913L100.174 52.7348L99.7826 50.8174L103.435 50.0609C103.035 49.8522 102.713 49.6043 102.47 49.3174C102.235 49.0304 102.083 48.7087 102.013 48.3522C101.848 47.5609 102.078 46.8304 102.704 46.1609C103.33 45.5 104.196 45.0522 105.3 44.8174C106.404 44.5913 107.374 44.7 108.209 45.1435C109.052 45.587 109.543 46.1522 109.683 46.8391C109.761 47.213 109.743 47.5696 109.63 47.9087C109.517 48.2565 109.313 48.5913 109.017 48.913L112.696 48.1565ZM108.326 47.7C108.248 47.3435 107.965 47.0739 107.478 46.8913C106.991 46.7087 106.396 46.6913 105.691 46.8391C104.987 46.987 104.443 47.2304 104.061 47.5696C103.687 47.9087 103.539 48.2652 103.617 48.6391C103.696 49.013 103.974 49.287 104.452 49.4609C104.939 49.6348 105.552 49.6478 106.291 49.5C107.1 49.3261 107.657 49.0609 107.961 48.7043C108.265 48.3391 108.383 48.0043 108.313 47.7H108.326ZM109.252 52.2391C109.174 51.8478 108.878 51.5739 108.365 51.4174C107.843 51.2609 107.235 51.2565 106.539 51.4043C105.852 51.5435 105.33 51.787 104.974 52.1348C104.617 52.4826 104.478 52.8391 104.557 53.2043C104.626 53.5696 104.922 53.8348 105.443 54C105.957 54.1739 106.526 54.1957 107.152 54.0652C107.822 53.9261 108.361 53.6913 108.77 53.3609C109.178 53.0217 109.339 52.6478 109.252 52.2391Z" fill="#4FBD01"/>
<path fill-rule="evenodd" clip-rule="evenodd" d="M105.809 64.7217L105.339 66.6652C104.635 66.3609 104.113 65.9217 103.774 65.3478C103.435 64.7652 103.296 64.0652 103.356 63.2478C103.461 61.9522 103.956 61.0217 104.843 60.4565C105.565 60.013 106.443 59.8304 107.478 59.9087C108.713 60.0043 109.656 60.4 110.309 61.0956C110.961 61.8 111.252 62.6478 111.183 63.6391C111.104 64.7435 110.674 65.5913 109.891 66.1826C109.109 66.7739 107.961 66.9956 106.448 66.8478L106.813 61.9043C106.222 61.8696 105.752 61.9956 105.404 62.2826C105.056 62.5609 104.865 62.9261 104.83 63.3783C104.813 63.6913 104.878 63.9609 105.026 64.187C105.183 64.4043 105.443 64.5826 105.809 64.7217ZM107.804 64.9826C108.378 65.0087 108.822 64.8913 109.135 64.6304C109.456 64.3696 109.63 64.0391 109.656 63.6391C109.691 63.2043 109.561 62.8348 109.265 62.5304C108.978 62.2261 108.565 62.0565 108.026 62.0217L107.804 64.9826Z" fill="#4FBD01"/>
<path fill-rule="evenodd" clip-rule="evenodd" d="M109.722 72.4304L109.161 74.1913L108.117 73.8522C108.404 74.2 108.596 74.6044 108.691 75.0652C108.787 75.5261 108.761 75.9913 108.613 76.4609C108.343 77.2957 107.791 77.8957 106.957 78.2609C106.122 78.6348 105.126 78.6348 103.97 78.2609C102.778 77.8783 101.943 77.2913 101.465 76.5C100.996 75.7 100.896 74.887 101.165 74.0609C101.287 73.6696 101.478 73.3391 101.739 73.0696C102 72.8 102.374 72.5478 102.861 72.3131L99.2739 71.1652L99.8739 69.2739L109.722 72.4304ZM105.678 73.2C104.878 72.9391 104.235 72.9087 103.748 73.1087C103.27 73.3 102.957 73.6261 102.809 74.087C102.67 74.5218 102.726 74.9435 102.978 75.3522C103.239 75.7522 103.77 76.0783 104.57 76.3305C105.317 76.5739 105.922 76.6044 106.383 76.4218C106.843 76.2391 107.143 75.9261 107.283 75.4826C107.43 75.0218 107.374 74.5826 107.113 74.1652C106.861 73.7391 106.383 73.4174 105.678 73.2Z" fill="#4FBD01"/>
<path d="M105.235 84.2869L103.904 86.3478L98.5043 85.0696L101.869 89.4913L100.539 91.5391L94.2521 87.4695L95.1651 86.0609L99.313 88.7348L96.1564 84.5217L97.0825 83.1L102.169 84.313L98.0216 81.6391L98.9477 80.2174L105.235 84.2869Z" fill="#4FBD01"/>
<path fill-rule="evenodd" clip-rule="evenodd" d="M94.0825 95.1L95.6347 94.1217C95.9739 94.7913 96.0782 95.4217 95.9478 96.0131C95.8173 96.6044 95.3956 97.2261 94.6826 97.8783C94.0304 98.4783 93.4739 98.8478 93.013 98.987C92.5521 99.1261 92.1478 99.1348 91.7999 99.0131C91.4521 98.9 90.9869 98.5261 90.4043 97.8913L88.8652 96.1696C88.4217 95.6826 88.0695 95.3435 87.8086 95.1522C87.5478 94.9696 87.2347 94.8044 86.8695 94.6565L88.3173 93.3261C88.4391 93.3957 88.6173 93.5 88.8521 93.6391C88.9478 93.7 89.0173 93.7391 89.0608 93.7565C89.0869 93.287 89.1869 92.8609 89.3608 92.4783C89.5347 92.0957 89.7825 91.7565 90.1043 91.4609C90.6695 90.9391 91.2565 90.6826 91.8652 90.6913C92.4739 90.7 92.9956 90.9391 93.4304 91.4087C93.7173 91.7217 93.8999 92.0696 93.9782 92.4522C94.0478 92.8348 94.0086 93.2131 93.8608 93.587C93.713 93.9609 93.4304 94.4304 93.013 94.9957C92.4478 95.7522 92.0826 96.3044 91.9173 96.6522L92.0608 96.7957C92.313 97.0826 92.5652 97.2217 92.8173 97.2131C93.0608 97.2044 93.3739 97.0217 93.7565 96.6652C94.0173 96.4304 94.1739 96.1957 94.226 95.9609C94.2782 95.7261 94.2304 95.4391 94.0825 95.1ZM91.0434 95.7C91.1739 95.4652 91.4043 95.1217 91.7347 94.6696C92.0565 94.2087 92.2434 93.8783 92.2956 93.6783C92.3652 93.3739 92.3043 93.1174 92.113 92.9087C91.9217 92.7 91.6826 92.5913 91.3956 92.5826C91.1086 92.5739 90.8434 92.6783 90.5999 92.8957C90.3391 93.1391 90.1695 93.4565 90.0912 93.8478C90.0391 94.1348 90.0695 94.4 90.1826 94.6435C90.2608 94.8087 90.4608 95.0652 90.7825 95.4131L91.0434 95.7Z" fill="#4FBD01"/>
<path d="M58.9174 113.426C58.9174 113.426 48.9783 113.139 58.8652 98.6609C58.8652 98.6478 68.2043 112.187 58.9174 113.426Z" fill="white"/>
<path fill-rule="evenodd" clip-rule="evenodd" d="M58.9435 113.987H58.9044C58.7739 113.987 55.7478 113.87 54.4565 111.352C53.0609 108.6 54.3783 104.217 58.3957 98.3348L58.8652 97.6696L59.3218 98.3348C59.5696 98.687 65.1391 106.839 63.1696 111.3C62.5044 112.8 61.0957 113.713 58.9957 113.987H58.9435ZM58.8522 99.6652C54.6391 106.057 54.6652 109.265 55.4478 110.83C56.3609 112.617 58.5652 112.839 58.8913 112.865C60.5739 112.63 61.6435 111.965 62.1391 110.843C63.5478 107.635 60.1305 101.7 58.8522 99.6652Z" fill="#4FBD01"/>
<path d="M56.8435 112.03C56.8435 112.03 54 102.496 70.8522 107.335C70.8522 107.335 60.9392 120.457 56.8435 112.03Z" fill="#4FBD01"/>
<path d="M41.3739 47.3609C42.3913 47.5957 43.4217 47.0739 43.8782 46.1348C44.1652 45.5478 44.5174 45.1435 45.1304 44.5826C47.8174 42.1565 53.6478 38.4783 62.1521 41.7783C63.6521 42.3522 65.3478 42.1826 66.6782 41.2826C69.5608 39.3131 74.3347 36.3783 75 37.9305C75 37.9305 76.0826 39.6392 67.1739 45.9131C66.7174 46.2392 66.4304 46.787 66.4826 47.3478C66.5347 47.9478 66.9391 48.5478 68.3869 48.3392C69.9652 48.1174 71.3348 47.1522 72.1174 45.7696C73.6565 43.0957 77.4391 38.1522 84.0913 39.1435C86.0087 39.4305 87.4826 40.9957 87.6 42.9261C87.8087 46.3044 86.3347 51.6652 76.2 54.7565C75.1956 55.0565 74.9478 56.387 75.7826 57.0261C78.0652 58.787 84.2608 59.1261 97.9304 55.2652C97.9304 55.2652 105.652 84.3131 71.9608 88.9696L74.0739 94.8652C74.0739 94.8652 61.6043 96.6522 61.6043 86.3218C61.6043 83.2696 57.8478 82.2131 56.6739 81.4696C53.2695 79.3044 46.3565 74.4391 45.2347 61.7609C45.2347 61.7609 35.5304 63.6131 30.7174 61.8391C30.7174 61.8391 26.1782 60.1565 24.7826 55.2652C24.4434 54.0392 24.7695 52.7087 25.6565 51.7696C27.6652 49.6435 32.5043 47.1131 42.1043 54.4696L41.5434 50.5305C41.5434 50.5305 27.9 44.5957 35.6087 46.0435L41.3739 47.3609Z" fill="url(#paint0_radial_13_8)"/>
<path d="M42.3391 52.8392C42.3391 52.8392 64.813 61.9305 47.4782 70.9174C47.4782 70.9174 46.3565 69.7957 45.0782 61.9305C45.0782 61.9305 29.8304 65.9348 25.9826 58.5522C25.9826 58.5522 19.3956 45.8739 35.3609 50.4131L42.3391 52.8392Z" fill="#060012"/>
<path d="M64.8783 63.3913C62.1522 61.6957 60.6131 58.6044 60.8348 55.4087C61.0565 52.4087 61.8783 48.3261 64.8 48.0522C67.8 47.7783 70.5783 46.3957 72.4174 44.0739C72.5739 43.8826 72.7305 43.6826 72.887 43.4739C74.2305 41.687 76.0174 40.2522 78.1044 39.3522C80.8826 38.1652 84.4696 37.7739 87.1174 41.6087C87.1174 41.6087 91.0696 47.7783 77.6348 54.1304C77.6348 54.1304 69.9652 56.8696 84.3131 57.4304C84.3131 57.4304 94.2131 57.6 97.787 53.9087C97.787 53.9087 108.065 83.5957 72.1044 89.0478L73.5913 94.8261C73.5913 94.8261 69.3 94.3435 71.4522 87.6C71.4522 87.6 66.9913 95.3087 64.0305 90.1696C64.0305 90.1696 59.9087 83.5957 75.7305 81.3391C75.7305 81.3391 85.8392 81.3391 74.7652 70.1087C73.3305 68.6609 70.1087 65.7131 68.1783 64.9826C67.4348 64.6957 66.1696 64.2 64.8783 63.3913Z" fill="#060012"/>
<path d="M65.8304 80.7783H58.826C56.2434 80.7783 54.1434 78.6913 54.1434 76.0957V73.1087C54.1434 70.5261 56.2434 68.4261 58.826 68.4261H65.8304C68.413 68.4261 70.513 70.5261 70.513 73.1087V76.0957C70.513 78.6913 68.413 80.7783 65.8304 80.7783Z" fill="url(#paint1_radial_13_8)"/>
<path d="M56.9478 75.4826C56.3739 75.4826 55.9043 75.0261 55.9043 74.4392C55.9043 73.8652 56.3739 73.3957 56.9478 73.3957C57.5217 73.3957 57.9913 73.8652 57.9913 74.4392C57.9913 75.0261 57.5217 75.4826 56.9478 75.4826Z" fill="#060012"/>
<path d="M64.8913 75.4044C64.3173 75.4044 63.8478 74.9348 63.8478 74.3609C63.8478 73.787 64.3173 73.3174 64.8913 73.3174C65.4782 73.3174 65.9347 73.787 65.9347 74.3609C65.9347 74.9348 65.4782 75.4044 64.8913 75.4044Z" fill="#060012"/>
<path d="M59.9218 80.7783C59.9218 80.7783 67.3044 81.7435 65.2174 75.3261C65.2174 75.3261 63.1304 69.7044 69.3913 70.187C69.3913 70.187 74.5174 69.3913 72.4435 76.7739C72.4305 76.7739 68.9087 85.5913 59.9218 80.7783Z" fill="#EDC8D2"/>
<path d="M63.5739 80.7913C63.5739 80.7913 68.113 80.9478 66.3782 76.8C66.3782 76.8 64.7086 73.2 68.5304 73.1087C68.5304 73.1087 72.0391 72.5218 70.8652 77.2826C70.8652 77.2826 69.3782 83.4 63.5739 80.7913Z" fill="#B26274"/>
<path d="M63.6913 80.7C63.6913 80.7 65.9348 80.8696 66.9652 78.8217C66.9652 78.8217 67.6043 76.2 69.4174 77.4783C69.4174 77.4783 71.2695 78.3783 68.8565 80.6609C68.8565 80.6609 65.4522 83.1131 63.6913 80.7Z" fill="#9B4E62"/>
<path d="M41.387 53.2565C41.1261 52.2652 44.5696 51.8218 45.587 51.8609C46.3174 51.9 47.1783 52.1478 47.7522 52.9957C47.987 53.3609 48.6131 53.5174 49.0044 53.7392C49.0957 53.8044 49.2652 53.8305 49.4739 53.8565C51.9261 54.0913 53.4261 55.187 52.8392 58.6044C52.8392 58.6174 52.8392 58.6696 52.8522 58.7348C52.9696 59.5826 53.3087 60.3913 53.8305 61.0696C53.9783 61.2696 54.1565 61.5 54.3652 61.7609C54.8739 62.4 55.2 63.1565 55.2522 63.9522C55.3174 65.3739 50.7913 70.0435 47.4783 70.9174C47.4783 70.9174 55.3435 60.2739 50.687 59.8044C50.687 59.8044 48.6131 59.6479 48.9261 57C48.9261 57 49.1739 55.787 46.8522 55.8131C45.5739 55.8261 44.2957 55.5652 43.1479 54.9783C42.3261 54.5609 41.5696 53.987 41.387 53.2565Z" fill="#060012"/>
<path d="M62.2565 51.1957C61.9044 51.3783 61.8391 51.8218 61.6044 52.1348C60.8087 53.2565 61.9304 53.7391 61.9304 53.7391C63.5348 54.8609 61.7739 55.8261 61.7739 55.8261C60.5218 57.6 62.3348 60.887 64.0174 61.6044C65.0087 62.0348 70.7739 64.8131 70.1087 65.6217C69.4174 66.4565 66.5739 64.9696 62.7261 62.4131C62.2957 62.1261 61.3696 59.8565 61.2783 59.3609C60.9652 57.4304 60.5739 56.5174 60.5739 56.5174C58.9826 53.8174 60.7957 52.7739 60.7957 52.7739C61.1609 52.4609 60.9 51.8348 60.8739 51.3261C60.8218 50.4131 61.1739 49.5 61.9044 48.9131C63.0913 47.9739 64.5522 48.1696 64.5522 48.1696C65.5304 49.5522 63.1696 50.7261 62.2565 51.1957Z" fill="#060012"/>
<path opacity="0.6" d="M56.5957 70.9826C56.5957 70.9826 56.3739 68.7652 63.1826 69.0261C63.5087 69.0391 63.5348 69.5087 63.2087 69.5478C61.2783 69.7957 59.1913 70.3044 58.8261 71.3087C58.6696 71.7131 58.3696 72.0391 57.9652 72.1696C57.3522 72.3522 56.5957 72.3 56.5957 70.9826Z" fill="white"/>
<path opacity="0.6" d="M57.2739 77.3609C58.8261 78.2609 60.8609 78.5739 62.4783 78.6652C62.9609 78.6913 63.0261 79.3826 62.5435 79.5C58.9696 80.3609 57.3913 79.0826 56.687 77.9478C56.4522 77.5696 56.8956 77.1391 57.2739 77.3609Z" fill="white"/>
<path d="M34.4478 52.6696C27.8217 52.3435 27.6261 55.2522 28.1739 57.1566C28.2261 57.3261 27.9913 57.4305 27.8869 57.2739C23.1 49.7348 29.9478 50.6609 34.5652 51.9261C34.9956 52.0435 34.8913 52.6957 34.4478 52.6696Z" fill="#333333"/>
<path d="M78.5739 41.0478C78.5739 41.0478 81.4435 37.5391 84.7304 39.6522C87.1043 41.1913 87.5609 44.3218 85.8652 46.5131C84.4826 48.287 81.8609 50.2565 76.8522 51.4957C76.8522 51.4957 83.7 48.4305 84.5348 45.1957C84.8609 43.9174 83.4913 42.8218 82.187 43.3174C79.9696 44.1391 76.3826 45.0391 78.5739 41.0478Z" fill="#333333"/>
<path d="M78.6131 58.1218C81.7305 58.8391 88.6174 59.8174 95.9609 56.7131C96.7566 56.387 97.6566 56.9348 97.6827 57.8087C97.9566 64.0565 97.1348 84.4174 75.574 86.3218C75.574 86.3218 70.7479 85.8391 67.7087 89.3739C67.7087 89.3739 65.1392 92.7391 66.9 86.4783C66.9 86.4783 67.2261 81.6652 76.2131 84.2348C76.2131 84.2348 88.2914 84.7957 93.574 74.0218C96.3261 68.4 92.4522 61.8391 86.2044 61.3305C83.6087 61.1218 80.8174 60.4174 78.3392 58.7609C78 58.5391 78.2218 58.0305 78.6131 58.1218Z" fill="#333333"/>
<path d="M46.3304 59.2696C46.3304 59.2696 47.2957 56.6218 49.9174 58.8131C49.9174 58.8131 48.587 61.4739 46.3304 59.2696Z" fill="white"/>
<path d="M48.6001 60.1696C48.0131 60.4174 47.3088 60.0913 47.0348 59.4522C46.7609 58.8 47.0088 58.0696 47.6088 57.8218C48.1957 57.5739 48.9001 57.887 49.174 58.5391C49.4479 59.1913 49.187 59.9087 48.6001 60.1696Z" fill="#060012"/>
<path d="M47.6217 58.9696C47.4782 58.9696 47.3608 58.8783 47.3608 58.7478C47.3608 58.6304 47.4782 58.5261 47.6217 58.5261C47.7782 58.5261 47.8956 58.6304 47.8956 58.7478C47.8956 58.8783 47.7782 58.9696 47.6217 58.9696Z" fill="white"/>
<path d="M66.5739 54.7043C66.5739 54.7043 64.6565 52.6304 63.0913 55.6695C63.0913 55.6695 65.3478 57.613 66.5739 54.7043Z" fill="white"/>
<path d="M66 55.1478C66 55.8522 65.4782 56.4261 64.8391 56.4261C64.2 56.413 63.6782 55.8522 63.6782 55.1478C63.6782 54.4435 64.2 53.8696 64.8521 53.8696C65.4913 53.8826 66.013 54.4435 66 55.1478Z" fill="#060012"/>
<path d="M65.2696 54.9391C65.1392 54.9913 64.9827 54.9522 64.9305 54.8348C64.8914 54.7174 64.9566 54.5869 65.1001 54.5217C65.2305 54.4696 65.387 54.5087 65.4392 54.6261C65.4783 54.7435 65.4131 54.8739 65.2696 54.9391Z" fill="white"/>
</g>
<defs>
<radialGradient id="paint0_radial_13_8" cx="0" cy="0" r="1" gradientUnits="userSpaceOnUse" gradientTransform="translate(61.6695 66.2348) scale(33.1435 33.1435)">
<stop stop-color="#736357"/>
<stop offset="0.4" stop-color="#CCCCCC"/>
<stop offset="0.7" stop-color="#A28685"/>
<stop offset="1"/>
</radialGradient>
<radialGradient id="paint1_radial_13_8" cx="0" cy="0" r="1" gradientUnits="userSpaceOnUse" gradientTransform="translate(62.3217 74.6087) scale(7.25217 7.25217)">
<stop stop-color="#595958"/>
<stop offset="1"/>
</radialGradient>
<clipPath id="clip0_13_8">
<rect width="120" height="120" fill="white"/>
</clipPath>
</defs>
</svg>
