<svg width="96" height="88" viewBox="0 0 96 88" fill="none" xmlns="http://www.w3.org/2000/svg">
<path d="M89.1437 24.6693C89.6219 25.3964 90.0293 26.2121 90.4631 26.9735C91.1195 28.1251 91.761 29.27 92.3237 30.4773C94.4536 35.1022 95.6888 40.1325 95.9566 45.2719C96.3962 53.9101 93.4784 61.4339 88.0628 67.8085C85.9672 70.2751 83.4789 72.577 80.8794 74.4248C78.9102 75.8246 76.7533 76.8785 74.6388 78.0017C73.2338 78.7481 71.8322 79.5088 70.3991 80.1927C63.1145 83.6945 55.3918 86.0631 47.4696 87.2253C45.4596 87.5208 43.4419 87.8016 41.4141 87.9108C30.4925 88.4981 18.5711 86.2873 10.217 78.2575C3.63557 71.9314 0.463283 63.7518 0.0337788 54.4352C-0.0769864 52.0323 0.0942994 49.5946 0.406662 47.2151C1.84502 36.2576 6.97702 25.9324 13.9453 17.7859C20.8491 9.73581 29.8492 4.0393 39.8063 1.41726C42.4804 0.707656 45.1738 0.179614 47.9322 0.0415025C56.8009 -0.402491 65.7943 2.75394 73.27 7.68372C74.6749 8.61012 76.2666 9.61302 77.4854 10.7906C77.5108 10.8072 77.5361 10.8244 77.5617 10.8406C77.8594 11.0294 78.2647 11.1411 78.5919 11.2686C79.2765 11.5354 79.9626 11.7971 80.6356 12.0959C84.3198 13.7315 87.5842 16.5269 88.6746 20.7638C88.8763 21.5452 89.0017 22.3465 89.0486 23.1552C89.0792 23.6548 89.0695 24.1756 89.1437 24.6693Z" fill="#780200"/>
<path d="M89.1437 24.6693C89.6219 25.3964 90.0293 26.2121 90.4631 26.9735C91.1195 28.1251 91.761 29.27 92.3237 30.4773C94.4536 35.1022 95.6888 40.1325 95.9566 45.2719C96.3962 53.9101 93.4784 61.4339 88.0628 67.8085C85.9672 70.2751 83.4789 72.577 80.8794 74.4248C78.9102 75.8246 76.7533 76.8785 74.6388 78.0017C73.2338 78.7481 71.8322 79.5088 70.3991 80.1927C63.1145 83.6945 55.3918 86.0631 47.4696 87.2253C45.4596 87.5208 43.4419 87.8016 41.4141 87.9108C30.4925 88.4981 18.5711 86.2873 10.217 78.2575C3.63557 71.9314 0.463283 63.7518 0.0337788 54.4352C-0.0769864 52.0323 0.0942994 49.5946 0.406662 47.2151C1.84502 36.2576 6.97702 25.9324 13.9453 17.7859C20.8491 9.73581 29.8492 4.0393 39.8063 1.41726C42.4804 0.707656 45.1738 0.179614 47.9322 0.0415025C56.8009 -0.402491 65.7943 2.75394 73.27 7.68372C74.6749 8.61012 76.2666 9.61302 77.4854 10.7906L77.428 10.7816C75.3048 10.4279 73.7021 9.48432 71.8098 8.51097C70.8821 8.04049 69.9364 7.61127 68.9748 7.22451C62.9173 4.77155 56.2553 4.56625 50.0737 6.64197C47.8112 7.39962 45.7053 8.40426 43.7756 9.88103C41.8078 11.3869 40.0856 13.2126 38.2493 14.8875C35.3713 17.5127 32.5161 19.6052 29.1734 21.5183C26.8931 22.8499 24.5249 24.0044 22.0873 24.9732C18.8756 26.2576 14.51 27.3284 11.8226 29.5371C9.54043 31.4128 8.09819 34.1244 7.64857 37.1394C7.43005 38.6047 7.44356 40.101 7.4381 41.5802C7.43779 43.1445 7.4283 44.7088 7.40962 46.273L7.35453 51.2961C7.33224 52.6633 7.26105 54.0514 7.36371 55.4159C7.8026 61.2491 10.7783 67.1921 13.9815 71.8365C16.1368 74.9616 18.956 78.4463 21.7761 80.9281C22.212 81.0762 22.5816 81.4011 22.9887 81.6175C23.963 82.1356 25.0086 82.4864 26.0865 82.6572C27.8833 82.9449 29.7099 82.9565 31.5098 82.6918C37.2755 81.8115 43.5879 78.0671 48.1537 74.3571C48.893 73.7523 49.6173 73.1271 50.3257 72.4821C51.4536 71.4543 52.5393 70.3436 53.9069 69.679C56.0705 68.6273 58.771 68.27 61.0914 67.5963C66.9437 65.8756 72.4544 63.0457 77.3567 59.2435C82.7414 55.0488 87.8039 49.3434 89.0143 42.1221C89.1608 41.2478 89.2672 40.3052 89.2519 39.4153C89.2381 38.6174 89.1093 37.7522 89.2316 36.9622C89.2339 36.9474 89.2366 36.9326 89.2392 36.9179C88.844 33.1175 89.0937 28.5469 89.1437 24.6693Z" fill="#99C99B"/>
<path d="M89.2392 36.9179C89.594 37.4778 89.8538 38.1471 90.084 38.7747C91.1594 41.6909 91.4286 44.872 90.8601 47.9447C89.5386 55.1394 83.5022 61.4869 77.9798 65.4078C74.3492 67.9858 70.1939 69.9663 66.0129 71.2946C64.8512 71.6636 63.6661 71.9457 62.4974 72.2885C60.7659 72.8102 59.0493 73.3849 57.3492 74.012C56.2984 74.392 55.2269 74.7518 54.208 75.2214C52.5533 75.984 51.2922 77.64 49.8187 78.7369C45.0415 82.293 35.3441 88.2906 29.2526 87.0088C28.706 86.8937 28.1321 86.7181 27.6503 86.4143C26.6596 85.7895 22.4129 81.9149 21.8216 81.003C21.8057 80.9785 21.7912 80.9531 21.7761 80.9281C22.212 81.0762 22.5816 81.4011 22.9887 81.6175C23.963 82.1356 25.0086 82.4864 26.0865 82.6572C27.8833 82.9449 29.7099 82.9565 31.5098 82.6918C37.2755 81.8115 43.5879 78.0671 48.1537 74.3571C48.893 73.7523 49.6173 73.1271 50.3257 72.4821C51.4536 71.4543 52.5393 70.3436 53.9069 69.679C56.0705 68.6273 58.771 68.27 61.0914 67.5963C66.9437 65.8756 72.4544 63.0457 77.3567 59.2435C82.7414 55.0488 87.8039 49.3434 89.0143 42.1221C89.1608 41.2478 89.2672 40.3052 89.2519 39.4153C89.2381 38.6174 89.1093 37.7522 89.2316 36.9622C89.2339 36.9474 89.2366 36.9326 89.2392 36.9179Z" fill="#57623F"/>
<path d="M10.9141 43.7416C10.1931 41.2617 9.54517 38.7179 10.168 36.1242C10.6551 34.0962 11.9983 32.224 13.6334 31.071C14.6659 30.3428 15.9374 29.9184 17.0989 29.4746C19.0825 28.7168 21.0981 28.0552 23.0852 27.3066C25.7602 26.2736 28.3536 25.0173 30.8413 23.5494C33.5096 21.973 36.1052 20.1917 38.4345 18.0898C40.8932 15.8712 43.1303 13.3355 45.9231 11.5689C51.6809 7.92711 58.8581 7.06244 65.3108 8.79113C67.3013 9.32443 69.2263 10.1195 71.098 11.0075C71.8324 11.3559 72.531 11.7949 73.2793 12.1099C77.7486 13.991 82.9347 14.6145 85.6367 19.4054C86.889 21.2044 86.9142 23.828 86.6077 25.9441C85.8049 31.485 81.7498 38.0241 77.691 41.5166C73.0014 45.9059 67.1616 48.9905 61.1872 50.8673C60.203 51.1799 59.2104 51.4614 58.2105 51.7114C57.2308 51.9504 56.2009 52.1299 55.2589 52.5061C53.6721 53.4508 52.3072 54.6912 50.861 55.8509C48.9981 57.3448 46.6288 59.0816 44.5737 60.2641C39.3642 63.5985 31.899 66.3176 25.7911 64.719C25.1241 64.5445 23.763 64.2368 23.3033 63.6828C22.8587 63.2034 22.355 62.7745 21.8845 62.3223C20.3741 60.8703 18.7712 59.376 17.5406 57.6458C14.9061 54.2879 12.8873 50.4367 11.5885 46.2911C11.3318 45.4765 11.0219 44.5943 10.9141 43.7416Z" fill="#FEE6B6"/>
<path d="M55.1011 47.7182C56.0994 46.9041 60.1905 46.1026 61.6157 45.7068C62.5447 45.4487 63.4772 45.1257 64.3874 44.8001C68.2756 43.409 72.1035 41.4997 75.4527 38.9713C76.2772 38.3488 77.0496 37.6384 77.8398 36.9678C77.8598 38.4827 77.7361 40.0024 77.691 41.5166C73.0014 45.9059 67.1616 48.9905 61.1872 50.8673C60.203 51.1799 59.2104 51.4614 58.2105 51.7114C57.2308 51.9504 56.2009 52.1299 55.2589 52.5061C54.8987 51.6666 55.3526 48.9171 55.1011 47.7182Z" fill="#FECB83"/>
<path d="M23.3039 59.1366C23.4214 59.1915 23.5413 59.2398 23.6611 59.2885C28.5724 61.2812 34.2872 60.3749 39.0447 58.3173C40.9127 57.5094 42.6764 56.4612 44.5156 55.5879C44.5184 57.1472 44.5075 58.706 44.5737 60.2641C39.3642 63.5985 31.899 66.3176 25.7911 64.719C25.1241 64.5445 23.763 64.2368 23.3033 63.6828L23.3039 59.1366Z" fill="#FECB83"/>
<path d="M55.1011 47.7182C55.3526 48.9171 54.8987 51.6666 55.2589 52.5061C53.6721 53.4508 52.3072 54.6912 50.861 55.8509C48.9981 57.3448 46.6288 59.0816 44.5737 60.2641C44.5075 58.706 44.5184 57.1472 44.5156 55.5879C44.9479 55.2441 45.4369 54.9572 45.8934 54.6495C46.8136 54.0293 47.7283 53.4089 48.6127 52.7314C50.7867 51.0661 52.7893 49.1786 55.1011 47.7182Z" fill="#FC7D39"/>
<path d="M85.6367 19.4054C86.889 21.2044 86.9142 23.828 86.6077 25.9441C85.8049 31.485 81.7498 38.0241 77.691 41.5166C77.7361 40.0024 77.8598 38.4827 77.8398 36.9678C78.2866 36.4319 78.7935 35.9449 79.2636 35.4305C80.1924 34.4142 81.1054 33.3636 81.94 32.2584C84.0213 29.5022 85.9568 25.8303 85.9696 22.2312C85.9734 21.1535 85.7406 20.4666 85.6422 19.4669C85.6401 19.4464 85.6386 19.426 85.6367 19.4054Z" fill="#FC7D39"/>
<path d="M17.4997 53.6674C18.9439 55.3857 20.4189 57.0059 22.1692 58.3795C22.5151 58.6509 22.8979 58.9791 23.3039 59.1366L23.3033 63.6828C22.8587 63.2034 22.355 62.7745 21.8845 62.3223C20.3741 60.8703 18.7712 59.376 17.5406 57.6458C17.6536 56.3346 17.322 54.9682 17.4997 53.6674Z" fill="#FC7D39"/>
<path d="M10.9141 43.7416C11.3106 44.1532 11.7861 45.2691 12.0982 45.8303C12.7601 47.0202 13.4278 48.2199 14.1782 49.3498C14.7869 50.2662 15.4241 51.2119 16.1145 52.06C16.5042 52.5386 17.2183 53.1533 17.4997 53.6674C17.322 54.9682 17.6536 56.3346 17.5406 57.6458C14.9061 54.2879 12.8873 50.4367 11.5885 46.2911C11.3318 45.4765 11.0219 44.5943 10.9141 43.7416Z" fill="#FECB83"/>
<path d="M56.2596 9.25143C57.0298 9.15469 57.8838 9.23009 58.6582 9.29094C61.9788 9.55173 65.0985 10.388 68.2464 11.5102C68.8332 11.7195 69.4516 11.9024 70.02 12.1602C71.5759 12.8661 70.5588 13.4858 70.9743 14.4698C71.0811 14.7229 71.2834 14.8373 71.5145 14.9427C72.7232 15.494 73.5526 14.6347 74.7032 14.5161C75.1572 14.4694 75.6024 14.5714 76.0233 14.7466C78.27 15.6828 80.7263 18.5491 81.6663 20.8678C82.6312 23.2482 82.4252 25.8778 81.518 28.2384C79.7934 32.7257 74.8402 37.1253 70.9706 39.497C68.8418 40.8019 66.5663 41.8397 64.2669 42.7532C60.808 44.1273 57.1601 45.0585 53.8942 46.9297C51.9967 48.0167 50.2633 49.415 48.4949 50.7173C45.3633 53.0238 42.1574 55.2182 38.6287 56.7822C36.7099 57.6107 34.6623 58.0109 32.6059 58.1987C28.7177 58.5537 25.0665 57.7122 22.0378 54.9854C19.6182 52.8071 15.6156 47.3289 14.2987 44.2995C13.6887 42.8963 13.2851 41.4161 13.1744 39.8721C12.98 37.1612 13.8334 34.7467 15.4914 32.7001C16.209 31.8198 17.0499 31.0617 17.9845 30.4521C18.7984 29.9219 19.6886 29.5296 20.5643 29.1305C22.5293 28.2353 24.5488 27.4833 26.5051 26.5683C29.189 25.3128 31.7943 23.9718 34.2981 22.3423C36.6499 20.7919 38.8794 19.0419 40.9648 17.1097C41.8063 16.34 42.568 15.4846 43.3944 14.6996C44.6711 13.4869 46.1458 12.4666 47.6698 11.6405C50.3565 10.1841 53.2666 9.49942 56.2596 9.25143Z" fill="#9C100F"/>
<path d="M49.6473 11.7193C50.6203 11.3948 51.5936 11.0503 52.5909 10.8195C56.8305 9.83868 61.1701 10.3289 65.2993 11.595C65.9797 11.8035 66.6996 11.9456 67.3656 12.1937C68.1465 12.452 68.9202 12.7343 69.6856 13.0404C69.8476 13.0637 70.004 13.0648 70.1324 13.1835C70.1555 14.0227 69.5097 14.6013 70.3325 15.3937C70.8918 15.9324 71.8176 16.1808 72.559 16.1089C73.1322 16.0533 73.6329 15.7831 74.1665 15.5812C75.3937 15.1167 76.6336 16.03 77.5475 16.8071C77.7384 16.9663 77.9209 17.1366 78.0944 17.317C78.8414 17.8375 79.4136 18.6418 79.8472 19.4623C80.9801 20.8758 81.4638 23.0245 81.3211 24.847C81.2022 26.3663 80.6702 27.8677 80.0061 29.2107C79.2614 30.6166 77.3392 33.2466 76.1146 34.1599C72.4101 38.0269 67.3918 40.5267 62.5737 42.3983C60.8751 43.0582 59.1475 43.6231 57.4429 44.2627C56.8368 44.4902 56.2322 44.7763 55.6496 45.0657C55.2045 45.2869 54.6573 45.641 54.177 45.7378C52.5071 46.7487 50.9149 47.8991 49.287 48.9832C48.3884 49.7514 43.1212 53.5963 42.2489 53.8587C41.3698 54.3314 40.509 54.8421 39.6124 55.278C39.1777 55.4893 38.4572 55.7137 38.0889 55.9611C37.2004 56.1429 36.3481 56.4889 35.4664 56.7027C33.0452 57.2896 30.25 57.3884 27.8218 56.824C24.8193 56.1262 22.5935 54.3312 20.5836 51.9653C20.0659 51.3559 19.5225 50.7461 19.1036 50.0538C18.3332 49.0628 17.6311 48.0415 16.9411 46.9858C15.9455 45.851 14.7366 42.8211 14.3518 41.3132C14.1541 40.5377 14.0459 39.7626 13.9795 38.9637C13.9809 38.8094 13.9917 38.6641 14.0091 38.5109C14.0719 37.6812 14.2185 36.8582 14.3641 36.0413C14.4076 35.8356 14.489 35.6435 14.5717 35.4526C16.1627 31.7817 20.0766 30.3659 23.3704 28.9878C24.3426 28.5812 25.2874 28.0832 26.2679 27.704C27.6796 27.0479 29.0855 26.3775 30.4852 25.6931C31.091 25.3383 31.7086 25.0038 32.3211 24.6623C33.2267 25.0015 34.1247 25.3629 35.0146 25.746C36.4665 26.3699 38.0117 27.1807 39.591 27.3025C41.8092 27.4734 43.5318 25.8474 44.4873 23.8578C45.0098 22.7699 45.3507 21.4626 46.2531 20.6441C46.9756 19.9887 47.7514 19.9193 48.6539 19.9972C48.1198 19.8041 47.563 19.6736 46.9979 19.6487C44.4605 19.5364 42.8432 21.6245 41.1281 23.26C39.5329 24.7812 38.126 23.9436 36.2954 23.7505C35.5114 23.6679 34.7052 23.7375 33.9155 23.6936C36.0599 22.3351 38.0719 20.8565 39.9974 19.1661C40.6918 18.5606 41.3691 17.9333 42.0283 17.285C43.2609 16.0823 45.347 13.7852 46.8122 13.1388C47.7432 12.6355 48.6674 12.1088 49.6473 11.7193Z" fill="url(#paint0_linear_205_113)"/>
<path d="M49.6473 11.7193C50.6203 11.3948 51.5936 11.0503 52.5909 10.8195C56.8305 9.83868 61.1701 10.3289 65.2993 11.595C65.9797 11.8035 66.6996 11.9456 67.3656 12.1937C68.1465 12.452 68.9202 12.7343 69.6856 13.0404C69.8476 13.0637 70.004 13.0648 70.1324 13.1835C70.1555 14.0227 69.5097 14.6013 70.3325 15.3937C70.8918 15.9324 71.8176 16.1808 72.559 16.1089C73.1322 16.0533 73.6329 15.7831 74.1665 15.5812C75.3937 15.1167 76.6336 16.03 77.5475 16.8071C77.7384 16.9663 77.9209 17.1366 78.0944 17.317C78.8414 17.8375 79.4136 18.6418 79.8472 19.4623C80.9801 20.8758 81.4638 23.0245 81.3211 24.847C81.2022 26.3663 80.6702 27.8677 80.0061 29.2107C79.2614 30.6166 77.3392 33.2466 76.1146 34.1599C73.0151 34.509 69.9097 34.7976 66.8002 35.0254C64.5451 35.1967 62.2713 35.3846 60.0102 35.3842C53.7848 35.361 47.5881 34.4899 41.5721 32.7919C42.3927 31.9211 43.9576 31.0292 44.996 30.458L45.0261 30.3557C44.752 30.3613 44.5239 30.2814 44.2761 30.1652L44.0645 30.2684C43.3773 29.9841 42.6275 29.8412 41.9105 29.6621C40.9839 29.4375 40.0651 29.1779 39.156 28.8838C36.2321 27.9216 33.3906 26.7121 30.4852 25.6931C31.091 25.3383 31.7086 25.0038 32.3211 24.6623C33.2267 25.0015 34.1247 25.3629 35.0146 25.746C36.4665 26.3699 38.0117 27.1807 39.591 27.3025C41.8092 27.4734 43.5318 25.8474 44.4873 23.8578C45.0098 22.7699 45.3507 21.4626 46.2531 20.6441C46.9756 19.9887 47.7514 19.9193 48.6539 19.9972C48.1198 19.8041 47.563 19.6736 46.9979 19.6487C44.4605 19.5364 42.8432 21.6245 41.1281 23.26C39.5329 24.7812 38.126 23.9436 36.2954 23.7505C35.5114 23.6679 34.7052 23.7375 33.9155 23.6936C36.0599 22.3351 38.0719 20.8565 39.9974 19.1661C40.6918 18.5606 41.3691 17.9333 42.0283 17.285C43.2609 16.0823 45.347 13.7852 46.8122 13.1388C47.7432 12.6355 48.6674 12.1088 49.6473 11.7193Z" fill="#EC121F"/>
<path d="M49.6473 11.7193C50.6203 11.3948 51.5936 11.0503 52.5909 10.8195C56.8305 9.83868 61.1701 10.3289 65.2993 11.595C65.9797 11.8035 66.6996 11.9456 67.3656 12.1937C67.3558 12.2139 67.3457 12.234 67.3361 12.2543C67.008 12.952 66.8827 13.742 66.5725 14.4537C66.077 15.5908 63.5963 19.9298 62.6161 20.284C60.9994 20.868 59.4018 21.4172 57.8241 22.1207C54.3869 23.6532 51.1482 25.6169 47.9752 27.6815C46.7335 28.4893 45.4691 29.2784 44.2761 30.1652L44.0645 30.2684C43.3773 29.9841 42.6275 29.8412 41.9105 29.6621C40.9839 29.4375 40.0651 29.1779 39.156 28.8838C36.2321 27.9216 33.3906 26.7121 30.4852 25.6931C31.091 25.3383 31.7086 25.0038 32.3211 24.6623C33.2267 25.0015 34.1247 25.3629 35.0146 25.746C36.4665 26.3699 38.0117 27.1807 39.591 27.3025C41.8092 27.4734 43.5318 25.8474 44.4873 23.8578C45.0098 22.7699 45.3507 21.4626 46.2531 20.6441C46.9756 19.9887 47.7514 19.9193 48.6539 19.9972C48.1198 19.8041 47.563 19.6736 46.9979 19.6487C44.4605 19.5364 42.8432 21.6245 41.1281 23.26C39.5329 24.7812 38.126 23.9436 36.2954 23.7505C35.5114 23.6679 34.7052 23.7375 33.9155 23.6936C36.0599 22.3351 38.0719 20.8565 39.9974 19.1661C40.6918 18.5606 41.3691 17.9333 42.0283 17.285C43.2609 16.0823 45.347 13.7852 46.8122 13.1388C47.7432 12.6355 48.6674 12.1088 49.6473 11.7193Z" fill="#EC121F"/>
<path d="M49.6473 11.7193C50.5955 12.953 51.3414 14.3583 51.672 15.9222C51.8445 16.7333 51.9643 17.5429 52.0127 18.3738C52.015 18.784 52.002 19.1942 51.9737 19.6033C51.8807 21.0888 51.6073 22.5096 51.0919 23.8931C51.0114 24.1094 50.9106 24.4589 50.7442 24.6131C50.7118 24.4199 51.0793 23.4826 51.1326 23.1737C51.2619 22.4223 51.2375 21.6456 51.1636 20.8893C50.8215 17.3912 49.3033 15.2995 46.8122 13.1388C47.7432 12.6355 48.6674 12.1088 49.6473 11.7193Z" fill="#FEE6B6"/>
<path d="M51.672 15.9222C53.1097 14.6078 55.2747 13.8667 57.1661 14.0141C57.6455 14.0515 58.1997 14.1278 58.5364 14.5329C58.671 14.6948 58.7476 14.8992 58.7322 15.116C58.708 15.4607 58.4839 15.742 58.2397 15.95C57.0064 16.9999 55.1577 16.4291 53.753 17.0239C53.0643 17.3156 52.6272 17.9689 52.0127 18.3738C51.9643 17.5429 51.8445 16.7333 51.672 15.9222Z" fill="#9C100F"/>
<path d="M62.7567 13.9743C62.7603 13.998 62.7667 14.0214 62.7675 14.0454C62.809 15.3315 61.9432 16.7397 61.0695 17.5542C59.5285 18.9908 57.4969 19.617 55.4672 19.4883L55.4436 19.4592L55.4577 19.4001C55.8551 19.2389 56.3277 19.1852 56.7458 19.0923C57.5265 18.9186 58.2636 18.6802 58.989 18.3227C61.043 17.3101 61.9894 16.1941 62.7567 13.9743Z" fill="#9C100F"/>
<path d="M44.996 30.458C46.1057 30.4584 47.2432 30.7656 48.3384 30.9426C50.0965 31.2295 51.8619 31.4649 53.6323 31.6485C62.4896 32.6334 71.4429 31.8058 80.0061 29.2107C79.2614 30.6166 77.3392 33.2466 76.1146 34.1599C73.0151 34.509 69.9097 34.7976 66.8002 35.0254C64.5451 35.1967 62.2713 35.3846 60.0102 35.3842C53.7848 35.361 47.5881 34.4899 41.5721 32.7919C42.3927 31.9211 43.9576 31.0292 44.996 30.458Z" fill="#FEBB9C"/>
<path d="M67.3656 12.1937C68.1465 12.452 68.9202 12.7343 69.6856 13.0404C69.8476 13.0637 70.004 13.0648 70.1324 13.1835C70.1555 14.0227 69.5097 14.6013 70.3325 15.3937C70.8918 15.9324 71.8176 16.1808 72.559 16.1089C73.1322 16.0533 73.6329 15.7831 74.1665 15.5812C75.3937 15.1167 76.6336 16.03 77.5475 16.8071C77.7384 16.9663 77.9209 17.1366 78.0944 17.317C78.8414 17.8375 79.4136 18.6418 79.8472 19.4623C79.8327 19.4658 79.8182 19.4695 79.8037 19.4727C78.8407 19.6832 77.6657 19.4563 76.6739 19.4641C74.732 19.4769 72.7916 19.5823 70.8587 19.7798C62.8573 20.6453 57.3452 23.2946 50.3615 27.2346C49.201 27.8926 48.046 28.5614 46.8967 29.241C46.2764 29.6045 45.6198 29.9464 45.0261 30.3557C44.752 30.3613 44.5239 30.2814 44.2761 30.1652C45.4691 29.2784 46.7335 28.4893 47.9752 27.6815C51.1482 25.6169 54.3869 23.6532 57.8241 22.1207C59.4018 21.4172 60.9994 20.868 62.6161 20.284C63.5963 19.9298 66.077 15.5908 66.5725 14.4537C66.8827 13.742 67.008 12.952 67.3361 12.2543C67.3457 12.234 67.3558 12.2139 67.3656 12.1937Z" fill="url(#paint1_linear_205_113)"/>
<path d="M69.6856 13.0404C69.8476 13.0637 70.004 13.0648 70.1324 13.1835C70.1555 14.0227 69.5097 14.6013 70.3325 15.3937C70.8918 15.9324 71.8176 16.1808 72.559 16.1089C73.1322 16.0533 73.6329 15.7831 74.1665 15.5812C75.3937 15.1167 76.6336 16.03 77.5475 16.8071C77.7384 16.9663 77.9209 17.1366 78.0944 17.317C75.8367 17.4406 73.5269 17.8022 71.2957 18.1809C69.4671 18.4911 67.6546 18.7988 65.8613 19.2995C67.3172 17.3248 68.6439 15.2946 69.6856 13.0404Z" fill="#EC121F"/>
<path d="M69.164 21.7559C69.2131 21.8119 69.206 21.8723 69.2017 21.9494C69.1028 23.6965 67.7564 25.8802 66.4964 26.9481C64.4919 28.6469 62.663 27.7529 60.4058 27.4995C58.5129 27.2869 57.4286 27.7215 55.9733 28.9678C55.9078 29.0397 55.8375 29.0987 55.7632 29.16L55.687 29.1246C55.6849 29.0756 55.6815 29.0459 55.6861 28.9991C55.7506 28.3385 56.3011 27.583 56.6884 27.0976C59.5914 23.4595 62.0571 26.0356 65.2357 24.8669C66.8673 24.2671 67.8574 22.8461 69.164 21.7559Z" fill="#9C100F"/>
<path d="M75.8511 19.6609C75.9017 19.7061 75.9237 19.7194 75.9608 19.7885C76.1041 20.0568 76.173 20.4993 76.2467 20.7983C76.6005 22.2322 76.9387 23.8392 76.5141 25.2956C76.3071 26.0053 75.9099 26.6188 75.4296 27.1524C72.7471 30.1333 68.3758 29.6937 65.1095 31.5476C64.9141 31.6611 64.7158 31.7665 64.5161 31.8713L64.4696 31.8304C64.4682 31.8086 64.4644 31.787 64.4655 31.7653C64.481 31.4154 64.9597 30.8273 65.167 30.5351C67.9743 26.5784 71.7395 28.3991 74.0303 26.1028C75.6335 24.4957 75.798 21.8584 75.8511 19.6609Z" fill="#9C100F"/>
<path d="M31.999 39.5782L32.1275 39.4785C34.1324 37.9266 36.2429 36.5074 38.3064 35.0429C39.2883 34.3461 40.2404 33.5448 41.2409 32.8872C41.363 32.807 41.4298 32.7683 41.5721 32.7919C47.5881 34.4899 53.7848 35.361 60.0102 35.3842C62.2713 35.3846 64.5451 35.1967 66.8002 35.0254C69.9097 34.7976 73.0151 34.509 76.1146 34.1599C72.4101 38.0269 67.3918 40.5267 62.5737 42.3983C60.8751 43.0582 59.1475 43.6231 57.4429 44.2627C56.8368 44.4902 56.2322 44.7763 55.6496 45.0657C55.2045 45.2869 54.6573 45.641 54.177 45.7378C53.447 45.6004 52.5463 45.7962 51.8029 45.8496C50.8958 45.9148 49.9566 45.9427 49.0501 45.869C44.7356 45.5179 40.9921 44.0037 37.0555 42.2109C35.3277 41.4241 33.5992 40.6339 31.999 39.5782Z" fill="#EC121F"/>
<path d="M61.6262 36.1207C63.0743 36.1568 64.5005 36.3801 65.9396 36.5304C66.4978 36.5887 67.1102 36.5515 67.6532 36.6854L67.6813 36.7497C67.5518 36.8621 67.3842 36.9147 67.2269 36.9688C65.7019 37.4926 64.0613 37.7306 62.4811 37.9941C61.39 38.176 60.2762 38.3183 59.245 38.7593C58.2127 39.2009 57.4236 39.9748 56.6058 40.7497C54.6385 42.6139 52.5397 43.6943 49.8805 43.8462C47.7281 43.9691 45.7402 43.3243 44.1314 41.7813C42.6353 40.2866 41.7651 38.7326 39.5504 38.454C39.1122 38.3988 38.6632 38.4532 38.2222 38.4102L38.1668 38.4043C39.6919 38.093 41.3182 38.0117 42.8177 38.5043C45.4087 39.3555 46.3571 40.9022 49.4842 40.6146C51.6746 40.4131 53.3803 38.8996 55.2549 37.8492C57.2907 36.7086 59.3338 36.2027 61.6262 36.1207Z" fill="#9C100F"/>
<path d="M30.4852 25.6931C33.3906 26.7121 36.2321 27.9216 39.156 28.8838C40.0651 29.1779 40.9839 29.4375 41.9105 29.6621C42.6275 29.8412 43.3773 29.9841 44.0645 30.2684C43.2321 31.0396 41.8076 31.9136 40.8292 32.5089C39.8778 33.3333 38.7417 34.0089 37.7166 34.7375C35.6511 36.2058 33.401 37.8581 31.2555 39.1626C28.9078 37.9967 26.5322 37.0866 23.9977 36.4915C23.1415 36.2904 22.1513 36.3547 21.3288 36.0672L20.7135 36.0108C18.5799 35.8037 16.494 36.0431 14.3641 36.0413C14.4076 35.8356 14.489 35.6435 14.5717 35.4526C16.1627 31.7817 20.0766 30.3659 23.3704 28.9878C24.3426 28.5812 25.2874 28.0832 26.2679 27.704C27.6796 27.0479 29.0855 26.3775 30.4852 25.6931Z" fill="#EC121F"/>
<path d="M30.4852 25.6931C33.3906 26.7121 36.2321 27.9216 39.156 28.8838C40.0651 29.1779 40.9839 29.4375 41.9105 29.6621C42.6275 29.8412 43.3773 29.9841 44.0645 30.2684C43.2321 31.0396 41.8076 31.9136 40.8292 32.5089C39.5443 32.1738 38.296 31.6963 37.04 31.2588L31.8656 29.4855C30.0133 28.8599 28.0804 28.4499 26.2679 27.704C27.6796 27.0479 29.0855 26.3775 30.4852 25.6931Z" fill="#FEBB9C"/>
<path d="M20.7135 36.0108C20.9072 34.3175 21.9615 32.6343 23.2171 31.6011C24.1105 30.8659 25.1726 30.4862 26.3049 30.6523C27.1223 30.7722 27.8855 31.1462 28.6031 31.5618C29.2201 31.9193 29.8268 32.3306 30.4843 32.5989C32.4196 33.3883 34.0294 31.9931 35.6208 31.0281C34.6711 32.3362 33.6294 33.8225 31.9715 34.0606C30.7512 34.2359 29.4937 33.7578 28.301 33.5334C27.3291 33.3527 26.3343 33.3607 25.3651 33.5571C24.4649 33.7469 23.4817 34.1393 22.7395 34.7209C22.3226 35.0475 21.8541 36.0067 21.3288 36.0672L20.7135 36.0108Z" fill="#9C100F"/>
<path d="M23.5235 46.2088C24.253 46.427 24.9664 46.7398 25.6824 47.0051C26.5489 47.3213 27.4245 47.6088 28.3079 47.8672C29.3357 48.1691 30.5635 48.139 31.5259 48.6163L31.8213 49.3877C32.2771 50.5059 32.8956 51.4631 33.637 52.3903C34.4506 53.2152 35.1815 54.0176 36.1206 54.6934C36.756 55.1505 37.4607 55.5033 38.0889 55.9611C37.2004 56.1429 36.3481 56.4889 35.4664 56.7027C33.0452 57.2896 30.25 57.3884 27.8218 56.824C24.8193 56.1262 22.5935 54.3312 20.5836 51.9653C20.0659 51.3559 19.5225 50.7461 19.1036 50.0538C19.8399 49.348 20.6291 48.6753 21.4097 48.0257L21.8721 47.652C22.3368 47.2111 22.8437 46.8044 23.326 46.3841L23.5235 46.2088Z" fill="#9C100F"/>
<path d="M21.4097 48.0257C21.6638 48.6292 21.964 49.2088 22.2625 49.7885C23.3242 51.8502 24.4926 53.2357 26.6028 54.0875C27.8848 54.6048 29.3752 54.8167 30.6574 54.1887C31.5234 53.7647 31.9591 53.0869 32.4128 52.2302C32.7909 52.3031 33.2541 52.4383 33.637 52.3903C34.4506 53.2152 35.1815 54.0176 36.1206 54.6934C36.756 55.1505 37.4607 55.5033 38.0889 55.9611C37.2004 56.1429 36.3481 56.4889 35.4664 56.7027C33.0452 57.2896 30.25 57.3884 27.8218 56.824C24.8193 56.1262 22.5935 54.3312 20.5836 51.9653C20.0659 51.3559 19.5225 50.7461 19.1036 50.0538C19.8399 49.348 20.6291 48.6753 21.4097 48.0257Z" fill="#D13430"/>
<path d="M23.5235 46.2088C24.253 46.427 24.9664 46.7398 25.6824 47.0051C26.5489 47.3213 27.4245 47.6088 28.3079 47.8672C29.3357 48.1691 30.5635 48.139 31.5259 48.6163L31.8213 49.3877C32.2771 50.5059 32.8956 51.4631 33.637 52.3903C33.2541 52.4383 32.7909 52.3031 32.4128 52.2302C29.7019 51.7082 27.0258 50.5996 24.5885 49.2556C23.6696 48.7488 22.7801 48.1809 21.8721 47.652C22.3368 47.2111 22.8437 46.8044 23.326 46.3841L23.5235 46.2088Z" fill="#EC121F"/>
<path d="M23.5235 46.2088C24.253 46.427 24.9664 46.7398 25.6824 47.0051C26.5489 47.3213 27.4245 47.6088 28.3079 47.8672C29.3357 48.1691 30.5635 48.139 31.5259 48.6163L31.8213 49.3877C31.7816 49.3883 31.7418 49.3881 31.702 49.3856C29.9704 49.2767 24.4053 47.6768 23.326 46.3841L23.5235 46.2088Z" fill="#9C100F"/>
<path d="M30.5778 44.4636C31.097 46.063 31.6315 47.4024 32.67 48.7131C32.7922 48.6563 32.9114 48.6328 33.0442 48.6287C34.4008 48.5883 35.7407 48.7611 37.1027 48.5999C38.2182 48.4678 39.3624 48.2406 40.4455 47.9291C41.3845 47.659 42.2858 47.3084 43.2527 47.1572L43.5623 47.1956C45.4256 47.9776 47.3103 48.6093 49.287 48.9832C48.3884 49.7514 43.1212 53.5963 42.2489 53.8587C41.3698 54.3314 40.509 54.8421 39.6124 55.278C39.1777 55.4893 38.4572 55.7137 38.0889 55.9611C37.4607 55.5033 36.756 55.1505 36.1206 54.6934C35.1815 54.0176 34.4506 53.2152 33.637 52.3903C32.8956 51.4631 32.2771 50.5059 31.8213 49.3877L31.5259 48.6163C31.0935 47.2395 30.6723 45.9223 30.5778 44.4636Z" fill="#EC121F"/>
<path d="M30.5778 44.4636C31.097 46.063 31.6315 47.4024 32.67 48.7131C32.8061 48.8811 32.9411 49.0798 33.113 49.2068C34.7688 51.087 37.2725 52.2494 39.5732 52.9728C40.4734 53.2558 41.392 53.4379 42.2489 53.8587C41.3698 54.3314 40.509 54.8421 39.6124 55.278C39.1777 55.4893 38.4572 55.7137 38.0889 55.9611C37.4607 55.5033 36.756 55.1505 36.1206 54.6934C35.1815 54.0176 34.4506 53.2152 33.637 52.3903C32.8956 51.4631 32.2771 50.5059 31.8213 49.3877L31.5259 48.6163C31.0935 47.2395 30.6723 45.9223 30.5778 44.4636Z" fill="#FEBB9C"/>
<path d="M43.2527 47.1572L43.5623 47.1956C42.4832 48.5457 38.6484 49.3072 36.9629 49.4541C35.6751 49.5643 34.3789 49.481 33.113 49.2068C32.9411 49.0798 32.8061 48.8811 32.67 48.7131C32.7922 48.6563 32.9114 48.6328 33.0442 48.6287C34.4008 48.5883 35.7407 48.7611 37.1027 48.5999C38.2182 48.4678 39.3624 48.2406 40.4455 47.9291C41.3845 47.659 42.2858 47.3084 43.2527 47.1572Z" fill="#9C100F"/>
<path d="M30.7192 40.4751C31.3737 40.645 32.0239 40.8108 32.6389 41.1114C33.4622 41.5138 34.1814 42.1183 34.9276 42.6558C35.8505 43.3135 36.7916 43.9418 37.7496 44.54C39.4956 45.6101 41.3601 46.4293 43.2527 47.1572C42.2858 47.3084 41.3845 47.659 40.4455 47.9291C39.3624 48.2406 38.2182 48.4678 37.1027 48.5999C35.7407 48.7611 34.4008 48.5883 33.0442 48.6287C32.9114 48.6328 32.7922 48.6563 32.67 48.7131C31.6315 47.4024 31.097 46.063 30.5778 44.4636C30.6723 45.9223 31.0935 47.2395 31.5259 48.6163C30.5635 48.139 29.3357 48.1691 28.3079 47.8672C27.4245 47.6088 26.5489 47.3213 25.6824 47.0051C24.9664 46.7398 24.253 46.427 23.5235 46.2088C24.0563 45.7951 24.547 45.3024 25.0342 44.8312L25.0648 44.8426C25.2537 44.6255 25.4612 44.4646 25.6924 44.3045L25.6969 44.265L28.7167 41.9506C29.3752 41.4491 30.0271 40.9233 30.7192 40.4751Z" fill="#EC121F"/>
<path d="M25.6924 44.3045C26.57 44.7269 27.5009 45.0508 28.4105 45.3876C27.5081 45.4286 25.9041 45.6474 25.1691 44.9639C25.1164 44.915 25.1187 44.9112 25.0648 44.8426C25.2537 44.6255 25.4612 44.4646 25.6924 44.3045Z" fill="#9C100F"/>
<path d="M13.9795 38.9637C14.7029 39.4582 15.3867 40.0088 16.1038 40.5107C16.9333 41.0914 17.8217 41.6158 18.6997 42.1093C19.5593 42.5847 20.4302 43.0369 21.3114 43.4654C21.7766 43.6965 22.2758 43.9078 22.719 44.1821C22.9342 44.0913 23.1423 43.9822 23.3517 43.8773L23.4761 43.8563C23.6823 43.7334 23.8899 43.6131 24.0987 43.4954L24.2477 43.4467C24.7145 43.7532 25.1769 44.0678 25.6969 44.265L25.6924 44.3045C25.4612 44.4646 25.2537 44.6255 25.0648 44.8426L25.0342 44.8312C24.547 45.3024 24.0563 45.7951 23.5235 46.2088L23.326 46.3841C22.8437 46.8044 22.3368 47.2111 21.8721 47.652L21.4097 48.0257C20.6291 48.6753 19.8399 49.348 19.1036 50.0538C18.3332 49.0628 17.6311 48.0415 16.9411 46.9858C15.9455 45.851 14.7366 42.8211 14.3518 41.3132C14.1541 40.5377 14.0459 39.7626 13.9795 38.9637Z" fill="#D13430"/>
<path d="M24.0987 43.4954L24.2477 43.4467C24.7145 43.7532 25.1769 44.0678 25.6969 44.265L25.6924 44.3045C25.4612 44.4646 25.2537 44.6255 25.0648 44.8426L25.0342 44.8312C24.547 45.3024 24.0563 45.7951 23.5235 46.2088L23.326 46.3841C22.8437 46.8044 22.3368 47.2111 21.8721 47.652L21.4097 48.0257C20.6291 48.6753 19.8399 49.348 19.1036 50.0538C18.3332 49.0628 17.6311 48.0415 16.9411 46.9858C17.1843 46.7745 19.4773 45.7853 20.0109 45.5054C20.4995 45.2671 20.9832 45.0149 21.4686 44.7692L22.719 44.1821C22.9342 44.0913 23.1423 43.9822 23.3517 43.8773L23.4761 43.8563C23.6823 43.7334 23.8899 43.6131 24.0987 43.4954Z" fill="#FEBB9C"/>
<path d="M24.0987 43.4954L24.2477 43.4467C24.7145 43.7532 25.1769 44.0678 25.6969 44.265L25.6924 44.3045C25.4612 44.4646 25.2537 44.6255 25.0648 44.8426L25.0342 44.8312C24.7381 44.3915 23.9258 44.0948 23.4761 43.8563C23.6823 43.7334 23.8899 43.6131 24.0987 43.4954Z" fill="#FC7D39"/>
<path d="M15.5916 41.5332C16.0517 41.6879 16.5 41.8794 16.9328 42.1063C17.3844 42.3395 21.3281 44.611 21.4686 44.7692C20.9832 45.0149 20.4995 45.2671 20.0109 45.5054C19.5996 44.9419 18.5984 44.3945 18.0386 43.917C17.1807 43.1725 16.3637 42.3767 15.5916 41.5332Z" fill="#EC121F"/>
<path d="M14.0091 38.5109C16.121 38.1712 18.3603 38.2174 20.4877 38.3349C20.7887 38.3548 21.0897 38.3769 21.3904 38.4012C21.965 40.998 22.4256 41.6086 24.0987 43.4954C23.8899 43.6131 23.6823 43.7334 23.4761 43.8563L23.3517 43.8773C23.1423 43.9822 22.9342 44.0913 22.719 44.1821C22.2758 43.9078 21.7766 43.6965 21.3114 43.4654C20.4302 43.0369 19.5593 42.5847 18.6997 42.1093C17.8217 41.6158 16.9333 41.0914 16.1038 40.5107C15.3867 40.0088 14.7029 39.4582 13.9795 38.9637C13.9809 38.8094 13.9917 38.6641 14.0091 38.5109Z" fill="#EC121F"/>
<path d="M20.4877 38.3349C20.7887 38.3548 21.0897 38.3769 21.3904 38.4012C21.965 40.998 22.4256 41.6086 24.0987 43.4954C23.8899 43.6131 23.6823 43.7334 23.4761 43.8563L23.3517 43.8773C23.2064 43.7681 23.0666 43.6507 22.9329 43.5256C21.6259 42.308 20.6068 40.1767 20.4877 38.3349Z" fill="#9C100F"/>
<path d="M21.3904 38.4012C23.6238 38.6039 25.7584 38.9587 27.9411 39.5001C28.6279 39.6705 29.3457 39.8156 30.0059 40.0796C28.7722 40.861 27.5237 41.6156 26.2612 42.3432C25.5961 42.7227 24.9087 43.0614 24.2477 43.4467L24.0987 43.4954C22.4256 41.6086 21.965 40.998 21.3904 38.4012Z" fill="#EC121F"/>
<path d="M48.1183 59.9153C48.308 59.6051 49.6008 58.7756 49.9686 58.4892C51.001 57.6813 52.0236 56.8592 53.036 56.023C53.7382 55.4477 54.4596 54.7647 55.2511 54.3345C55.2548 55.7266 55.1502 66.1135 55.3694 66.4214C55.3774 66.4324 55.3895 66.4392 55.3996 66.4482C54.2307 66.8529 53.0414 67.2451 51.9844 67.9277C50.4027 68.9489 49.1137 70.4229 47.6522 71.6216C44.7018 74.0295 41.5136 76.0905 38.1435 77.768C37.2951 78.1972 36.288 78.7784 35.3418 78.8597C32.5025 80.124 28.9655 80.4883 25.9462 79.8121C25.0349 79.608 24.187 79.1769 23.2824 78.9572C23.2513 78.9423 23.2199 78.9281 23.1893 78.9122C22.5409 78.5718 21.9591 78.0156 21.4355 77.4955C20.2293 76.2973 16.1047 71.6341 15.6935 70.1958C16.1279 70.4284 16.4348 70.8695 16.9048 71.0706C17.215 71.2033 17.5275 71.2061 17.8362 71.0667C18.5319 70.7525 18.9934 69.9047 19.2522 69.1835C20.2002 66.542 19.321 63.8613 18.2884 61.4255C18.9664 61.8012 19.9552 63.1249 20.6331 63.7335C21.1429 64.1855 21.6775 64.605 22.234 64.9898C22.6154 65.2576 23.0368 65.5069 23.3828 65.8241C24.2626 66.2869 25.2788 66.55 26.2396 66.7562C32.1474 68.0242 38.8285 65.5893 43.9732 62.6216C45.4 61.7987 46.7638 60.864 48.1183 59.9153Z" fill="#D13430"/>
<path d="M48.1183 59.9153C48.308 59.6051 49.6008 58.7756 49.9686 58.4892C51.001 57.6813 52.0236 56.8592 53.036 56.023C53.7382 55.4477 54.4596 54.7647 55.2511 54.3345C55.2548 55.7266 55.1502 66.1135 55.3694 66.4214C55.3774 66.4324 55.3895 66.4392 55.3996 66.4482C54.2307 66.8529 53.0414 67.2451 51.9844 67.9277C50.4027 68.9489 49.1137 70.4229 47.6522 71.6216C44.7018 74.0295 41.5136 76.0905 38.1435 77.768C37.2951 78.1972 36.288 78.7784 35.3418 78.8597C35.775 78.3966 36.2915 78.0116 36.7777 77.614C37.7272 76.8374 38.6823 76.05 39.4912 75.1058C40.6606 73.7407 41.6315 72.104 42.5514 70.5457C43.9764 68.1148 45.3286 65.6368 46.606 63.1152C47.1319 62.0891 47.7983 61.0331 48.1183 59.9153Z" fill="#9C100F"/>
<path d="M18.2884 61.4255C18.9664 61.8012 19.9552 63.1249 20.6331 63.7335C21.1429 64.1855 21.6775 64.605 22.234 64.9898C22.6154 65.2576 23.0368 65.5069 23.3828 65.8241C23.1838 66.5422 23.3113 68.6639 23.3158 69.5212L23.3198 75.4007C23.3187 76.5802 23.3557 77.7807 23.2824 78.9572C23.2513 78.9423 23.2199 78.9281 23.1893 78.9122C22.5409 78.5718 21.9591 78.0156 21.4355 77.4955C20.2293 76.2973 16.1047 71.6341 15.6935 70.1958C16.1279 70.4284 16.4348 70.8695 16.9048 71.0706C17.215 71.2033 17.5275 71.2061 17.8362 71.0667C18.5319 70.7525 18.9934 69.9047 19.2522 69.1835C20.2002 66.542 19.321 63.8613 18.2884 61.4255Z" fill="#9C100F"/>
<path d="M86.2788 33.3424C86.9002 36.0775 86.7783 41.1903 86.0755 43.9128C85.7258 45.2673 85.1559 46.5324 84.4683 47.728C81.8635 52.2568 77.9398 55.7372 73.8132 58.6337C72.7466 59.3825 71.6547 60.2336 70.4321 60.6625C70.1167 60.8748 69.8137 61.1131 69.4882 61.3071C68.9114 61.6506 68.2879 61.9303 67.6886 62.2276C64.9287 63.5888 62.0626 64.6931 59.1226 65.5279C57.8914 65.8731 56.6214 66.0677 55.3996 66.4482C55.3895 66.4392 55.3774 66.4324 55.3694 66.4214C55.1502 66.1135 55.2548 55.7266 55.2511 54.3345C57.8318 53.4597 60.492 52.9041 63.0682 52.0216C70.7395 49.4323 77.6177 44.7123 82.9889 38.3516C83.5988 37.3955 84.3055 36.5135 84.9456 35.5805C85.4377 34.8631 85.8659 34.1131 86.2788 33.3424Z" fill="#D13430"/>
<path d="M86.2788 33.3424C86.9002 36.0775 86.7783 41.1903 86.0755 43.9128C85.7258 45.2673 85.1559 46.5324 84.4683 47.728C81.8635 52.2568 77.9398 55.7372 73.8132 58.6337C72.7466 59.3825 71.6547 60.2336 70.4321 60.6625C70.8583 59.9824 71.4557 59.3865 71.9705 58.7776C76.2889 53.6698 79.6732 48.0466 82.0372 41.6547C82.3761 40.7384 83.0376 39.3183 82.9889 38.3516C83.5988 37.3955 84.3055 36.5135 84.9456 35.5805C85.4377 34.8631 85.8659 34.1131 86.2788 33.3424Z" fill="#9C100F"/>
<path d="M15.6935 70.1958C15.1836 69.4006 14.5904 68.6683 14.091 67.8611C12.5178 65.3182 9.96632 60.2617 9.55838 57.2775C9.39846 56.1076 9.50442 54.8472 9.5266 53.6675L9.61461 49.2717C9.63731 48.2201 9.69416 47.152 9.60409 46.1036C9.91659 47.0039 10.1885 47.9184 10.5383 48.8038C11.9784 52.4477 13.995 56.0519 16.3451 59.1186C16.9578 59.918 17.6314 60.6672 18.2884 61.4255C19.321 63.8613 20.2002 66.542 19.2522 69.1835C18.9934 69.9047 18.5319 70.7525 17.8362 71.0667C17.5275 71.2061 17.215 71.2033 16.9048 71.0706C16.4348 70.8695 16.1279 70.4284 15.6935 70.1958Z" fill="#D13430"/>
<defs>
<linearGradient id="paint0_linear_205_113" x1="35.253" y1="33.1438" x2="18.7302" y2="64.5786" gradientUnits="userSpaceOnUse">
<stop stop-color="#FF8884"/>
<stop offset="1" stop-color="#FFC9A0"/>
</linearGradient>
<linearGradient id="paint1_linear_205_113" x1="48.4963" y1="64.4151" x2="25.9862" y2="18.6189" gradientUnits="userSpaceOnUse">
<stop stop-color="#FFB59A"/>
<stop offset="1" stop-color="#FFC89E"/>
</linearGradient>
</defs>
</svg>
