<svg width="24" height="24" viewBox="0 0 24 24" fill="none" xmlns="http://www.w3.org/2000/svg">
<path d="M6.13828 0C6.43576 0.0107802 6.72809 0.0937131 6.9884 0.24426C7.33303 0.443652 7.60235 0.750458 7.7571 1.11716L10.192 6.79574L10.2696 7.00781C10.3334 7.22377 10.3557 7.45047 10.3378 7.67621C10.3137 7.97714 10.2164 8.2683 10.0537 8.5226L10.0481 8.53207L8.02596 11.6033L8.02785 11.6052C8.01901 11.6189 8.01389 11.6344 8.0127 11.6507C8.01168 11.6666 8.01368 11.6835 8.02028 11.698C8.93144 13.5786 10.4526 15.0952 12.3352 16.0019C12.3501 16.0086 12.3663 16.0126 12.3826 16.0114C12.3994 16.0101 12.416 16.0037 12.4299 15.9943L12.4337 15.9924L15.4631 13.9683C15.7176 13.797 16.0114 13.6916 16.317 13.6634C16.6246 13.6352 16.9352 13.6854 17.2182 13.8092H17.2163L22.8832 16.2424H22.8813C23.2486 16.3971 23.5545 16.6679 23.7541 17.013C23.955 17.3604 24.0362 17.7643 23.9851 18.1624C23.7782 19.775 22.9919 21.2574 21.7718 22.3318C20.7037 23.2721 19.3671 23.8449 17.9604 23.9735L17.3527 24C12.7508 24 8.33781 22.172 5.08367 18.9179C1.82971 15.6637 0.000240162 11.2501 0 6.64805V6.64615L0.0284004 6.04024C0.156826 4.63326 0.727802 3.29697 1.66805 2.22864C2.74273 1.00768 4.22582 0.219983 5.83913 0.0132544L6.13828 0ZM1.76461 7.42059C1.95585 11.2784 3.57242 14.939 6.31625 17.6833C9.2432 20.6105 13.2133 22.2561 17.3527 22.2561L17.8014 22.2353C18.8411 22.1402 19.8292 21.7184 20.6187 21.0234C21.5211 20.229 22.1018 19.1315 22.2546 17.9389L22.2451 17.8859C22.2358 17.8698 22.2206 17.8571 22.2034 17.8499L22.194 17.8462L16.5234 15.4111L16.5177 15.4092C16.5046 15.4036 16.4902 15.4003 16.476 15.4017C16.462 15.403 16.4479 15.407 16.4363 15.4149L16.4325 15.4187L13.4031 17.4428L13.4012 17.4409C13.137 17.6185 12.8326 17.7273 12.5151 17.7515C12.1964 17.7757 11.8763 17.7159 11.5874 17.5792L11.5817 17.5773C9.34169 16.4996 7.53226 14.6946 6.44879 12.4573L6.44689 12.4535C6.31089 12.1693 6.25066 11.8534 6.27081 11.5389C6.2911 11.2248 6.39137 10.9208 6.56239 10.6566L6.56618 10.6509L8.5845 7.58154C8.59272 7.56837 8.59841 7.55348 8.59965 7.53799C8.60091 7.52214 8.5984 7.50523 8.59207 7.49065L8.59018 7.48686L6.15342 1.8045L6.14964 1.79503C6.14243 1.77824 6.12949 1.76442 6.11366 1.75527L6.06065 1.74391C4.86829 1.89675 3.77254 2.47938 2.97826 3.38178C2.18397 4.28422 1.74595 5.4458 1.74568 6.64805L1.76461 7.42059Z" fill="#4FBD01"/>
</svg>
