<svg width="16" height="17" viewBox="0 0 16 17" fill="none" xmlns="http://www.w3.org/2000/svg">
<path d="M7.60976 0.957143C7.60976 0.70467 7.78447 0.5 8 0.5C8.21553 0.5 8.39024 0.70467 8.39024 0.957143V3.12946L13.1837 1.88214L13.2538 1.87143C13.416 1.86426 13.5682 1.97702 13.6303 2.15893L15.9718 9.01607C15.9902 9.07007 16 9.12756 16 9.18571C16 10.1522 15.5229 10.7977 14.9649 11.1786C14.4186 11.5515 13.7622 11.7 13.2683 11.7C12.7743 11.7 12.118 11.5515 11.5716 11.1786C11.0137 10.7977 10.5366 10.1522 10.5366 9.18571C10.5366 9.12756 10.5463 9.07007 10.5648 9.01607L12.6311 2.9625L8.39024 4.06607V15.5857H9.7561C9.97162 15.5857 10.1463 15.7904 10.1463 16.0429C10.1463 16.2953 9.97162 16.5 9.7561 16.5H6.2439C6.02838 16.5 5.85366 16.2953 5.85366 16.0429C5.85366 15.7904 6.02838 15.5857 6.2439 15.5857H7.60976V4.26964L3.26372 5.40089L5.43521 11.7589C5.45365 11.8129 5.46341 11.8704 5.46341 11.9286C5.46341 12.8951 4.98633 13.5406 4.42835 13.9214C3.88199 14.2944 3.22565 14.4429 2.73171 14.4429C2.23776 14.4429 1.58142 14.2944 1.03506 13.9214C0.477081 13.5406 0 12.8951 0 11.9286C0 11.8704 0.00976293 11.8129 0.0282012 11.7589L2.36966 4.90179L2.4154 4.80357C2.47072 4.71392 2.55281 4.64955 2.6471 4.625L7.60976 3.33304V0.957143ZM0.782774 12.008C0.806154 12.5164 1.05432 12.8759 1.42835 13.1313C1.83318 13.4075 2.34767 13.5286 2.73171 13.5286C3.11575 13.5286 3.63024 13.4075 4.03506 13.1313C4.40908 12.8759 4.65649 12.5163 4.67988 12.008L2.73171 6.30089L0.782774 12.008ZM11.3194 9.26518C11.3427 9.77352 11.5909 10.1331 11.9649 10.3884C12.3698 10.6646 12.8843 10.7857 13.2683 10.7857C13.6523 10.7857 14.1668 10.6646 14.5716 10.3884C14.9457 10.1331 15.1931 9.77349 15.2165 9.26518L13.2683 3.55804L11.3194 9.26518Z" fill="#4D4D4D"/>
</svg>
