<svg width="24" height="24" viewBox="0 0 24 24" fill="none" xmlns="http://www.w3.org/2000/svg">
<path d="M17.8756 16.5821L17.817 16.6523L17.8816 16.7169L23.659 22.4941C23.9805 22.8156 23.9805 23.3368 23.6579 23.6584L23.6575 23.6588C23.4975 23.8199 23.2871 23.9 23.0761 23.9C22.8655 23.9 22.6549 23.8189 22.4945 23.6585L16.7172 17.8814L16.6526 17.8168L16.5824 17.8753C14.8384 19.3305 12.5974 20.2077 10.154 20.2077C4.6104 20.2077 0.1 15.6974 0.1 10.1538C0.1 4.61031 4.6104 0.1 10.154 0.1C15.6977 0.1 20.2081 4.61031 20.2081 10.1538C20.2081 12.5972 19.3308 14.8381 17.8756 16.5821ZM10.154 1.74615C5.51781 1.74615 1.74619 5.51769 1.74619 10.1538C1.74619 14.79 5.51781 18.5615 10.154 18.5615C14.7903 18.5615 18.5619 14.79 18.5619 10.1538C18.5619 5.51769 14.7903 1.74615 10.154 1.74615Z" fill="#4FBD01" stroke="white" stroke-width="0.2"/>
</svg>
