<svg width="32" height="23" viewBox="0 0 32 23" fill="none" xmlns="http://www.w3.org/2000/svg">
<path d="M30.4221 23H26.0954C25.5803 23 25.0653 22.6406 24.7562 22.1615L24.3442 21.3828C24.0866 21.0234 21.7172 17.849 20.275 16.8307C19.7084 16.4714 19.5024 16.5312 19.5024 16.5312C19.5024 16.5312 19.4509 16.7109 19.4509 16.7708V19.9453C19.4509 21.6224 18.2662 22.9401 16.8755 22.9401H15.8453C15.5878 22.9401 9.81883 22.8203 5.2346 14.8542C1.62902 8.625 0.444334 4.55208 0.032268 2.21615C-0.0707485 1.67708 0.0837762 1.13802 0.341317 0.71875C0.650367 0.299479 1.06243 0.0598961 1.52601 0.0598961H5.18309C5.8527 0.0598961 6.41929 0.539062 6.62532 1.31771C6.64246 1.37501 6.66067 1.43604 6.67992 1.50056C7.12344 2.98712 8.11897 6.32384 9.30375 8.50521C11.1065 11.9792 11.8277 12.2786 12.0337 12.2786C12.1585 12.0368 12.1489 11.2093 12.1406 10.4897C12.1386 10.3181 12.1367 10.1526 12.1367 10.0026V8.98438V8.14583C12.1367 8.02374 12.137 7.89806 12.1374 7.76967C12.1413 6.32351 12.1462 4.53384 11.6731 3.65365L10.643 1.91667C10.4369 1.55729 10.3854 1.07813 10.5915 0.658854C10.746 0.239584 11.1065 0 11.5186 0H17.3905C18.2662 0 18.9358 0.838542 18.9358 1.79688V10.4219C18.9358 10.4818 18.9873 10.5417 18.9873 10.5417C18.9873 10.5417 19.1933 10.5417 19.7599 9.94271C20.9446 8.5651 22.4383 5.98958 23.9321 2.45573L24.4472 1.07813C24.7047 0.419271 25.2713 0 25.8894 0H29.701C30.2161 0 30.6797 0.299479 30.9887 0.778646C31.2978 1.25781 31.3493 1.91667 31.1432 2.45573L30.7312 3.71354V3.77344C30.6797 3.89323 29.2889 7.06771 27.8467 9.40365C26.7135 11.2005 26.25 12.0391 26.353 12.3385C26.456 12.5182 27.1256 13.4167 27.7952 14.1354C29.0314 15.6328 30.5766 17.5495 31.1432 18.8073C31.2171 18.962 31.291 19.1117 31.3625 19.2565C31.5401 19.6164 31.7027 19.9458 31.8128 20.2448C32.0704 20.7839 32.0704 21.4427 31.7613 22.0417C31.4523 22.7005 30.9887 23 30.4221 23ZM19.6054 15.3333C19.966 15.3333 20.378 15.513 20.8416 15.8125C22.5414 16.9505 25.1168 20.4844 25.2198 20.6641L25.2713 20.724L25.6834 21.5026C25.7864 21.6823 25.9409 21.8021 26.1469 21.8021H30.4221C30.6797 21.8021 30.8342 21.6224 30.8857 21.5026C30.9372 21.4427 31.0402 21.2031 30.8857 20.9036C30.7763 20.681 30.6668 20.4414 30.5497 20.1849C30.4463 19.9585 30.3368 19.7189 30.2161 19.4661C29.7439 18.4779 28.4061 16.785 27.3136 15.4024C27.2143 15.2768 27.117 15.1536 27.0226 15.0339C26.8059 14.759 26.6156 14.5192 26.4488 14.3089C25.7431 13.4197 25.4576 13.0599 25.3743 12.8177C25.0706 11.9349 25.513 11.2256 26.9457 8.92805L27.0226 8.80469C28.3618 6.64844 29.6495 3.71354 29.804 3.35417L30.2161 2.09635C30.2676 1.91667 30.2676 1.67708 30.1646 1.55729C30.0616 1.3776 29.907 1.31771 29.7525 1.31771H25.9409C25.7349 1.31771 25.5288 1.4375 25.4773 1.67708L24.9623 3.11458C23.8291 5.6901 22.1808 9.10417 20.5841 10.9609C19.9144 11.7396 19.2963 11.9792 18.7813 11.7995C18.1632 11.5599 18.0086 10.7813 18.0086 10.7214V10.6016V1.91667C18.0086 1.55729 17.7511 1.31771 17.4936 1.31771H11.5186L12.5488 3.05469C13.2184 4.3125 13.2184 6.52865 13.1669 8.26563V9.04427V10.0026C13.2184 11.6797 13.2184 13.237 12.2912 13.4766C11.2611 13.7161 10.1794 12.4583 8.42811 9.16406C7.24342 6.82813 6.21326 3.53385 5.69817 1.73698C5.64667 1.4974 5.44063 1.31771 5.18309 1.31771H1.57751C1.42299 1.31771 1.26847 1.3776 1.16545 1.55729C1.06243 1.67708 1.06243 1.85677 1.06243 2.03646C1.42299 4.2526 2.60768 8.14583 6.11024 14.2552C10.3854 21.6823 15.7938 21.8021 15.8453 21.8021H16.8755C17.7511 21.8021 18.4207 20.9635 18.4207 20.0052V16.8307C18.4207 16.7708 18.4207 15.9323 18.9873 15.513C19.1933 15.3932 19.3994 15.3333 19.6054 15.3333Z" fill="#4FBD01"/>
<path d="M30.4221 23H26.0954C25.5803 23 25.0653 22.6406 24.7562 22.1615L24.3442 21.3828C24.0866 21.0234 21.7172 17.849 20.275 16.8307C19.7084 16.4714 19.5024 16.5312 19.5024 16.5312C19.5024 16.5312 19.4509 16.7109 19.4509 16.7708V19.9453C19.4509 21.6224 18.2662 22.9401 16.8755 22.9401H15.8453C15.5878 22.9401 9.81883 22.8203 5.2346 14.8542C1.62902 8.625 0.444334 4.55208 0.032268 2.21615C-0.0707485 1.67708 0.0837762 1.13802 0.341317 0.71875C0.650367 0.299479 1.06243 0.0598961 1.52601 0.0598961H5.18309C5.8527 0.0598961 6.41929 0.539062 6.62532 1.31771C6.64246 1.37501 6.66067 1.43604 6.67992 1.50056C7.12344 2.98712 8.11897 6.32384 9.30375 8.50521C11.1065 11.9792 11.8277 12.2786 12.0337 12.2786C12.1585 12.0368 12.1489 11.2093 12.1406 10.4897C12.1386 10.3181 12.1367 10.1526 12.1367 10.0026V8.98438V8.14583C12.1367 8.02374 12.137 7.89806 12.1374 7.76967C12.1413 6.32351 12.1462 4.53384 11.6731 3.65365L10.643 1.91667C10.4369 1.55729 10.3854 1.07813 10.5915 0.658854C10.746 0.239584 11.1065 0 11.5186 0H17.3905C18.2662 0 18.9358 0.838542 18.9358 1.79688V10.4219C18.9358 10.4818 18.9873 10.5417 18.9873 10.5417C18.9873 10.5417 19.1933 10.5417 19.7599 9.94271C20.9446 8.5651 22.4383 5.98958 23.9321 2.45573L24.4472 1.07813C24.7047 0.419271 25.2713 0 25.8894 0H29.701C30.2161 0 30.6797 0.299479 30.9887 0.778646C31.2978 1.25781 31.3493 1.91667 31.1432 2.45573L30.7312 3.71354V3.77344C30.6797 3.89323 29.2889 7.06771 27.8467 9.40365C26.7135 11.2005 26.25 12.0391 26.353 12.3385C26.456 12.5182 27.1256 13.4167 27.7952 14.1354C29.0314 15.6328 30.5766 17.5495 31.1432 18.8073C31.2171 18.962 31.291 19.1117 31.3625 19.2565C31.5401 19.6164 31.7027 19.9458 31.8128 20.2448C32.0704 20.7839 32.0704 21.4427 31.7613 22.0417C31.4523 22.7005 30.9887 23 30.4221 23ZM19.6054 15.3333C19.966 15.3333 20.378 15.513 20.8416 15.8125C22.5414 16.9505 25.1168 20.4844 25.2198 20.6641L25.2713 20.724L25.6834 21.5026C25.7864 21.6823 25.9409 21.8021 26.1469 21.8021H30.4221C30.6797 21.8021 30.8342 21.6224 30.8857 21.5026C30.9372 21.4427 31.0402 21.2031 30.8857 20.9036C30.7763 20.681 30.6668 20.4414 30.5497 20.1849C30.4463 19.9585 30.3368 19.7189 30.2161 19.4661C29.7439 18.4779 28.4061 16.785 27.3136 15.4024C27.2143 15.2768 27.117 15.1536 27.0226 15.0339C26.8059 14.759 26.6156 14.5192 26.4488 14.3089C25.7431 13.4197 25.4576 13.0599 25.3743 12.8177C25.0706 11.9349 25.513 11.2256 26.9457 8.92805L27.0226 8.80469C28.3618 6.64844 29.6495 3.71354 29.804 3.35417L30.2161 2.09635C30.2676 1.91667 30.2676 1.67708 30.1646 1.55729C30.0616 1.3776 29.907 1.31771 29.7525 1.31771H25.9409C25.7349 1.31771 25.5288 1.4375 25.4773 1.67708L24.9623 3.11458C23.8291 5.6901 22.1808 9.10417 20.5841 10.9609C19.9144 11.7396 19.2963 11.9792 18.7813 11.7995C18.1632 11.5599 18.0086 10.7813 18.0086 10.7214V10.6016V1.91667C18.0086 1.55729 17.7511 1.31771 17.4936 1.31771H11.5186L12.5488 3.05469C13.2184 4.3125 13.2184 6.52865 13.1669 8.26563V9.04427V10.0026C13.2184 11.6797 13.2184 13.237 12.2912 13.4766C11.2611 13.7161 10.1794 12.4583 8.42811 9.16406C7.24342 6.82813 6.21326 3.53385 5.69817 1.73698C5.64667 1.4974 5.44063 1.31771 5.18309 1.31771H1.57751C1.42299 1.31771 1.26847 1.3776 1.16545 1.55729C1.06243 1.67708 1.06243 1.85677 1.06243 2.03646C1.42299 4.2526 2.60768 8.14583 6.11024 14.2552C10.3854 21.6823 15.7938 21.8021 15.8453 21.8021H16.8755C17.7511 21.8021 18.4207 20.9635 18.4207 20.0052V16.8307C18.4207 16.7708 18.4207 15.9323 18.9873 15.513C19.1933 15.3932 19.3994 15.3333 19.6054 15.3333Z" stroke="#4FBD01"/>
</svg>
