<svg width="30" height="29" viewBox="0 0 30 29" fill="none" xmlns="http://www.w3.org/2000/svg">
<mask id="path-1-outside-1_14_87" maskUnits="userSpaceOnUse" x="0" y="0" width="30" height="29" fill="black">
<rect fill="white" width="30" height="29"/>
<path d="M22.8406 17.7233C22.8067 17.6723 22.6527 17.6022 22.4228 17.4976C22.3659 17.4717 22.3049 17.4439 22.2336 17.4106L22.2278 17.4083C21.9942 17.2938 21.2147 16.9259 20.5683 16.6313C20.1451 16.4384 19.7779 16.2758 19.6544 16.2331C19.515 16.1848 19.3984 16.1477 19.3203 16.1562C19.269 16.1618 19.2137 16.2027 19.1435 16.3054C19.0415 16.4532 18.867 16.6696 18.6778 16.8931C18.3718 17.2545 18.0431 17.6205 17.9066 17.77C17.7451 17.9471 17.5746 18.0465 17.3648 18.071C17.1746 18.0931 16.972 18.0458 16.7288 17.9306C16.6871 17.9105 16.5925 17.871 16.4784 17.8235C15.9218 17.5919 14.8377 17.1409 13.5895 16.0755C13.1412 15.693 12.7499 15.2786 12.4248 14.8915C11.8977 14.2637 11.542 13.7055 11.4008 13.4704C11.0644 12.9142 11.3502 12.6386 11.6142 12.3841C11.7203 12.282 11.846 12.1377 11.9708 11.993C12.0451 11.907 12.1196 11.8206 12.1764 11.7574C12.3139 11.6033 12.3751 11.4826 12.4577 11.3198C12.4751 11.2855 12.4935 11.2494 12.5149 11.2082C12.5502 11.1396 12.5591 11.077 12.553 11.0204C12.5459 10.9544 12.519 10.8884 12.486 10.8263C12.4205 10.6991 12.0639 9.87088 11.7374 9.11057C11.6049 8.802 11.4777 8.50593 11.2979 8.09283C11.1 7.63799 10.9395 7.64806 10.8164 7.65576C10.7779 7.65817 10.7411 7.66049 10.7136 7.66049C10.6061 7.66049 10.4829 7.65294 10.3553 7.64516C10.2371 7.63795 10.1144 7.63044 9.98124 7.63044C9.86978 7.63044 9.71794 7.65273 9.55811 7.72486C9.43502 7.78039 9.30596 7.86621 9.18425 7.99515C9.16831 8.01164 9.13802 8.0422 9.108 8.07265C8.73544 8.45022 7.92325 9.27331 7.92325 10.8472C7.92325 12.549 9.23065 14.2102 9.42125 14.4524C9.44462 14.4818 9.47922 14.5293 9.52541 14.5944C10.0288 15.3042 12.3428 18.5671 15.8198 19.8764C18.9557 21.0561 19.4579 20.939 19.9064 20.8344C20.0178 20.8083 20.1266 20.783 20.2687 20.7703C20.6122 20.7392 21.2027 20.4932 21.7203 20.1448C22.1261 19.8716 22.4739 19.5435 22.5932 19.2238C22.722 18.8776 22.7955 18.5513 22.8301 18.28C22.8701 17.9669 22.8674 17.7664 22.8406 17.7233ZM22.6765 16.9792C23.0042 17.1283 23.2226 17.2278 23.3489 17.4283C23.4319 17.5621 23.4776 17.9095 23.4214 18.3496C23.3827 18.6525 23.2993 19.0206 23.1518 19.4168C22.9865 19.8599 22.5548 20.2808 22.0601 20.6138C21.4639 21.0152 20.7553 21.3011 20.3222 21.3403C20.226 21.3489 20.1372 21.3696 20.0461 21.3909C19.5112 21.5156 18.9124 21.6554 15.6033 20.4105C11.9557 19.0369 9.55623 15.6536 9.0343 14.9176C8.98997 14.855 8.95997 14.8127 8.95183 14.8026L8.94758 14.7979C8.7399 14.5341 7.32738 12.7366 7.32738 10.8472C7.32738 9.04587 8.25287 8.10796 8.67742 7.67769C8.69871 7.65613 8.71833 7.63626 8.74446 7.60922C8.92289 7.42021 9.11775 7.29172 9.30673 7.20646C9.56154 7.09145 9.80356 7.05593 9.98124 7.05593C10.1149 7.05593 10.2563 7.06456 10.3925 7.0729C10.5015 7.07955 10.6066 7.08598 10.7136 7.08598C10.7396 7.08598 10.759 7.08475 10.7791 7.0835C11.0857 7.06429 11.4855 7.03922 11.8472 7.87065C11.8856 7.95886 12.0814 8.41478 12.2867 8.89288C12.6079 9.64074 12.9563 10.4521 13.0167 10.5694C13.0784 10.6859 13.1286 10.8162 13.1442 10.962C13.161 11.1186 13.1379 11.2858 13.0475 11.4615C13.0286 11.4978 13.0087 11.5359 12.9908 11.5711C12.8879 11.7737 12.8117 11.9238 12.6279 12.1298C12.5524 12.2137 12.4891 12.2868 12.427 12.3587C12.2908 12.5167 12.1549 12.6741 12.0349 12.7896C11.9264 12.8943 11.8094 13.0083 11.9152 13.1832C12.0492 13.4063 12.3865 13.9358 12.8856 14.5302C13.194 14.8975 13.5633 15.2889 13.9829 15.6469C15.1558 16.6482 16.185 17.0763 16.7135 17.2961C16.8179 17.3396 16.9026 17.3748 16.9895 17.4167C17.1254 17.4811 17.2235 17.5093 17.295 17.501C17.3464 17.495 17.3989 17.4586 17.4597 17.3918C17.6022 17.2357 17.9366 16.8629 18.2169 16.5319C18.3939 16.3229 18.5558 16.1232 18.6477 15.9901C18.8308 15.7229 19.0287 15.6108 19.2551 15.5862C19.4547 15.5645 19.6409 15.6205 19.8546 15.6945C20.0065 15.747 20.3902 15.9161 20.822 16.1129C21.4901 16.4174 22.2718 16.7859 22.4978 16.8967C22.5571 16.9244 22.6187 16.9529 22.6765 16.9792Z"/>
<path d="M29 14.1623C29 17.7943 27.4604 21.084 24.9707 23.4656C22.4821 25.8461 19.045 27.3189 15.2485 27.3189C14.0616 27.3189 12.9109 27.1751 11.813 26.9043C10.7934 26.6528 9.81912 26.2914 8.90328 25.8336C8.7826 25.7732 8.64209 25.7602 8.51255 25.8L1.38746 27.9861C1.15546 28.0572 0.938119 27.8437 1.01619 27.6214L3.32462 21.0478C3.3716 20.914 3.35513 20.7673 3.28247 20.6447C2.73588 19.7221 2.30156 18.7296 1.99841 17.6851C1.67201 16.5605 1.49707 15.3772 1.49707 14.1578C1.49707 10.5251 3.03701 7.2351 5.5274 4.85341C8.01669 2.47277 11.4548 1 15.253 1C19.0478 1 22.4842 2.47328 24.9724 4.85519C27.4608 7.23742 29 10.528 29 14.1623ZM24.5517 23.0594C26.9321 20.7824 28.4041 17.6364 28.4041 14.1623C28.4041 10.6859 26.9326 7.53892 24.5534 5.26133C22.1739 2.98341 18.8857 1.57446 15.2529 1.57446C11.6168 1.57446 8.32694 2.9829 5.94635 5.25955C3.56527 7.53671 2.09294 10.683 2.09294 14.1578C2.09294 15.3282 2.25974 16.4602 2.57096 17.5325C2.89351 18.6438 3.37072 19.6929 3.97784 20.656C4.02318 20.7279 4.03376 20.8164 4.00577 20.8961L2.08608 26.3627C1.95414 26.7384 2.32147 27.0991 2.71352 26.9789L8.65862 25.1548C8.73555 25.1312 8.81916 25.1391 8.88989 25.1766C9.84701 25.6842 10.876 26.0805 11.9597 26.3478C13.0099 26.6068 14.1114 26.7444 15.2485 26.7444C18.8829 26.7444 22.1718 25.3359 24.5517 23.0594Z"/>
</mask>
<path d="M22.8406 17.7233C22.8067 17.6723 22.6527 17.6022 22.4228 17.4976C22.3659 17.4717 22.3049 17.4439 22.2336 17.4106L22.2278 17.4083C21.9942 17.2938 21.2147 16.9259 20.5683 16.6313C20.1451 16.4384 19.7779 16.2758 19.6544 16.2331C19.515 16.1848 19.3984 16.1477 19.3203 16.1562C19.269 16.1618 19.2137 16.2027 19.1435 16.3054C19.0415 16.4532 18.867 16.6696 18.6778 16.8931C18.3718 17.2545 18.0431 17.6205 17.9066 17.77C17.7451 17.9471 17.5746 18.0465 17.3648 18.071C17.1746 18.0931 16.972 18.0458 16.7288 17.9306C16.6871 17.9105 16.5925 17.871 16.4784 17.8235C15.9218 17.5919 14.8377 17.1409 13.5895 16.0755C13.1412 15.693 12.7499 15.2786 12.4248 14.8915C11.8977 14.2637 11.542 13.7055 11.4008 13.4704C11.0644 12.9142 11.3502 12.6386 11.6142 12.3841C11.7203 12.282 11.846 12.1377 11.9708 11.993C12.0451 11.907 12.1196 11.8206 12.1764 11.7574C12.3139 11.6033 12.3751 11.4826 12.4577 11.3198C12.4751 11.2855 12.4935 11.2494 12.5149 11.2082C12.5502 11.1396 12.5591 11.077 12.553 11.0204C12.5459 10.9544 12.519 10.8884 12.486 10.8263C12.4205 10.6991 12.0639 9.87088 11.7374 9.11057C11.6049 8.802 11.4777 8.50593 11.2979 8.09283C11.1 7.63799 10.9395 7.64806 10.8164 7.65576C10.7779 7.65817 10.7411 7.66049 10.7136 7.66049C10.6061 7.66049 10.4829 7.65294 10.3553 7.64516C10.2371 7.63795 10.1144 7.63044 9.98124 7.63044C9.86978 7.63044 9.71794 7.65273 9.55811 7.72486C9.43502 7.78039 9.30596 7.86621 9.18425 7.99515C9.16831 8.01164 9.13802 8.0422 9.108 8.07265C8.73544 8.45022 7.92325 9.27331 7.92325 10.8472C7.92325 12.549 9.23065 14.2102 9.42125 14.4524C9.44462 14.4818 9.47922 14.5293 9.52541 14.5944C10.0288 15.3042 12.3428 18.5671 15.8198 19.8764C18.9557 21.0561 19.4579 20.939 19.9064 20.8344C20.0178 20.8083 20.1266 20.783 20.2687 20.7703C20.6122 20.7392 21.2027 20.4932 21.7203 20.1448C22.1261 19.8716 22.4739 19.5435 22.5932 19.2238C22.722 18.8776 22.7955 18.5513 22.8301 18.28C22.8701 17.9669 22.8674 17.7664 22.8406 17.7233ZM22.6765 16.9792C23.0042 17.1283 23.2226 17.2278 23.3489 17.4283C23.4319 17.5621 23.4776 17.9095 23.4214 18.3496C23.3827 18.6525 23.2993 19.0206 23.1518 19.4168C22.9865 19.8599 22.5548 20.2808 22.0601 20.6138C21.4639 21.0152 20.7553 21.3011 20.3222 21.3403C20.226 21.3489 20.1372 21.3696 20.0461 21.3909C19.5112 21.5156 18.9124 21.6554 15.6033 20.4105C11.9557 19.0369 9.55623 15.6536 9.0343 14.9176C8.98997 14.855 8.95997 14.8127 8.95183 14.8026L8.94758 14.7979C8.7399 14.5341 7.32738 12.7366 7.32738 10.8472C7.32738 9.04587 8.25287 8.10796 8.67742 7.67769C8.69871 7.65613 8.71833 7.63626 8.74446 7.60922C8.92289 7.42021 9.11775 7.29172 9.30673 7.20646C9.56154 7.09145 9.80356 7.05593 9.98124 7.05593C10.1149 7.05593 10.2563 7.06456 10.3925 7.0729C10.5015 7.07955 10.6066 7.08598 10.7136 7.08598C10.7396 7.08598 10.759 7.08475 10.7791 7.0835C11.0857 7.06429 11.4855 7.03922 11.8472 7.87065C11.8856 7.95886 12.0814 8.41478 12.2867 8.89288C12.6079 9.64074 12.9563 10.4521 13.0167 10.5694C13.0784 10.6859 13.1286 10.8162 13.1442 10.962C13.161 11.1186 13.1379 11.2858 13.0475 11.4615C13.0286 11.4978 13.0087 11.5359 12.9908 11.5711C12.8879 11.7737 12.8117 11.9238 12.6279 12.1298C12.5524 12.2137 12.4891 12.2868 12.427 12.3587C12.2908 12.5167 12.1549 12.6741 12.0349 12.7896C11.9264 12.8943 11.8094 13.0083 11.9152 13.1832C12.0492 13.4063 12.3865 13.9358 12.8856 14.5302C13.194 14.8975 13.5633 15.2889 13.9829 15.6469C15.1558 16.6482 16.185 17.0763 16.7135 17.2961C16.8179 17.3396 16.9026 17.3748 16.9895 17.4167C17.1254 17.4811 17.2235 17.5093 17.295 17.501C17.3464 17.495 17.3989 17.4586 17.4597 17.3918C17.6022 17.2357 17.9366 16.8629 18.2169 16.5319C18.3939 16.3229 18.5558 16.1232 18.6477 15.9901C18.8308 15.7229 19.0287 15.6108 19.2551 15.5862C19.4547 15.5645 19.6409 15.6205 19.8546 15.6945C20.0065 15.747 20.3902 15.9161 20.822 16.1129C21.4901 16.4174 22.2718 16.7859 22.4978 16.8967C22.5571 16.9244 22.6187 16.9529 22.6765 16.9792Z" fill="#4FBD01"/>
<path d="M29 14.1623C29 17.7943 27.4604 21.084 24.9707 23.4656C22.4821 25.8461 19.045 27.3189 15.2485 27.3189C14.0616 27.3189 12.9109 27.1751 11.813 26.9043C10.7934 26.6528 9.81912 26.2914 8.90328 25.8336C8.7826 25.7732 8.64209 25.7602 8.51255 25.8L1.38746 27.9861C1.15546 28.0572 0.938119 27.8437 1.01619 27.6214L3.32462 21.0478C3.3716 20.914 3.35513 20.7673 3.28247 20.6447C2.73588 19.7221 2.30156 18.7296 1.99841 17.6851C1.67201 16.5605 1.49707 15.3772 1.49707 14.1578C1.49707 10.5251 3.03701 7.2351 5.5274 4.85341C8.01669 2.47277 11.4548 1 15.253 1C19.0478 1 22.4842 2.47328 24.9724 4.85519C27.4608 7.23742 29 10.528 29 14.1623ZM24.5517 23.0594C26.9321 20.7824 28.4041 17.6364 28.4041 14.1623C28.4041 10.6859 26.9326 7.53892 24.5534 5.26133C22.1739 2.98341 18.8857 1.57446 15.2529 1.57446C11.6168 1.57446 8.32694 2.9829 5.94635 5.25955C3.56527 7.53671 2.09294 10.683 2.09294 14.1578C2.09294 15.3282 2.25974 16.4602 2.57096 17.5325C2.89351 18.6438 3.37072 19.6929 3.97784 20.656C4.02318 20.7279 4.03376 20.8164 4.00577 20.8961L2.08608 26.3627C1.95414 26.7384 2.32147 27.0991 2.71352 26.9789L8.65862 25.1548C8.73555 25.1312 8.81916 25.1391 8.88989 25.1766C9.84701 25.6842 10.876 26.0805 11.9597 26.3478C13.0099 26.6068 14.1114 26.7444 15.2485 26.7444C18.8829 26.7444 22.1718 25.3359 24.5517 23.0594Z" fill="#4FBD01"/>
<path d="M22.8406 17.7233C22.8067 17.6723 22.6527 17.6022 22.4228 17.4976C22.3659 17.4717 22.3049 17.4439 22.2336 17.4106L22.2278 17.4083C21.9942 17.2938 21.2147 16.9259 20.5683 16.6313C20.1451 16.4384 19.7779 16.2758 19.6544 16.2331C19.515 16.1848 19.3984 16.1477 19.3203 16.1562C19.269 16.1618 19.2137 16.2027 19.1435 16.3054C19.0415 16.4532 18.867 16.6696 18.6778 16.8931C18.3718 17.2545 18.0431 17.6205 17.9066 17.77C17.7451 17.9471 17.5746 18.0465 17.3648 18.071C17.1746 18.0931 16.972 18.0458 16.7288 17.9306C16.6871 17.9105 16.5925 17.871 16.4784 17.8235C15.9218 17.5919 14.8377 17.1409 13.5895 16.0755C13.1412 15.693 12.7499 15.2786 12.4248 14.8915C11.8977 14.2637 11.542 13.7055 11.4008 13.4704C11.0644 12.9142 11.3502 12.6386 11.6142 12.3841C11.7203 12.282 11.846 12.1377 11.9708 11.993C12.0451 11.907 12.1196 11.8206 12.1764 11.7574C12.3139 11.6033 12.3751 11.4826 12.4577 11.3198C12.4751 11.2855 12.4935 11.2494 12.5149 11.2082C12.5502 11.1396 12.5591 11.077 12.553 11.0204C12.5459 10.9544 12.519 10.8884 12.486 10.8263C12.4205 10.6991 12.0639 9.87088 11.7374 9.11057C11.6049 8.802 11.4777 8.50593 11.2979 8.09283C11.1 7.63799 10.9395 7.64806 10.8164 7.65576C10.7779 7.65817 10.7411 7.66049 10.7136 7.66049C10.6061 7.66049 10.4829 7.65294 10.3553 7.64516C10.2371 7.63795 10.1144 7.63044 9.98124 7.63044C9.86978 7.63044 9.71794 7.65273 9.55811 7.72486C9.43502 7.78039 9.30596 7.86621 9.18425 7.99515C9.16831 8.01164 9.13802 8.0422 9.108 8.07265C8.73544 8.45022 7.92325 9.27331 7.92325 10.8472C7.92325 12.549 9.23065 14.2102 9.42125 14.4524C9.44462 14.4818 9.47922 14.5293 9.52541 14.5944C10.0288 15.3042 12.3428 18.5671 15.8198 19.8764C18.9557 21.0561 19.4579 20.939 19.9064 20.8344C20.0178 20.8083 20.1266 20.783 20.2687 20.7703C20.6122 20.7392 21.2027 20.4932 21.7203 20.1448C22.1261 19.8716 22.4739 19.5435 22.5932 19.2238C22.722 18.8776 22.7955 18.5513 22.8301 18.28C22.8701 17.9669 22.8674 17.7664 22.8406 17.7233ZM22.6765 16.9792C23.0042 17.1283 23.2226 17.2278 23.3489 17.4283C23.4319 17.5621 23.4776 17.9095 23.4214 18.3496C23.3827 18.6525 23.2993 19.0206 23.1518 19.4168C22.9865 19.8599 22.5548 20.2808 22.0601 20.6138C21.4639 21.0152 20.7553 21.3011 20.3222 21.3403C20.226 21.3489 20.1372 21.3696 20.0461 21.3909C19.5112 21.5156 18.9124 21.6554 15.6033 20.4105C11.9557 19.0369 9.55623 15.6536 9.0343 14.9176C8.98997 14.855 8.95997 14.8127 8.95183 14.8026L8.94758 14.7979C8.7399 14.5341 7.32738 12.7366 7.32738 10.8472C7.32738 9.04587 8.25287 8.10796 8.67742 7.67769C8.69871 7.65613 8.71833 7.63626 8.74446 7.60922C8.92289 7.42021 9.11775 7.29172 9.30673 7.20646C9.56154 7.09145 9.80356 7.05593 9.98124 7.05593C10.1149 7.05593 10.2563 7.06456 10.3925 7.0729C10.5015 7.07955 10.6066 7.08598 10.7136 7.08598C10.7396 7.08598 10.759 7.08475 10.7791 7.0835C11.0857 7.06429 11.4855 7.03922 11.8472 7.87065C11.8856 7.95886 12.0814 8.41478 12.2867 8.89288C12.6079 9.64074 12.9563 10.4521 13.0167 10.5694C13.0784 10.6859 13.1286 10.8162 13.1442 10.962C13.161 11.1186 13.1379 11.2858 13.0475 11.4615C13.0286 11.4978 13.0087 11.5359 12.9908 11.5711C12.8879 11.7737 12.8117 11.9238 12.6279 12.1298C12.5524 12.2137 12.4891 12.2868 12.427 12.3587C12.2908 12.5167 12.1549 12.6741 12.0349 12.7896C11.9264 12.8943 11.8094 13.0083 11.9152 13.1832C12.0492 13.4063 12.3865 13.9358 12.8856 14.5302C13.194 14.8975 13.5633 15.2889 13.9829 15.6469C15.1558 16.6482 16.185 17.0763 16.7135 17.2961C16.8179 17.3396 16.9026 17.3748 16.9895 17.4167C17.1254 17.4811 17.2235 17.5093 17.295 17.501C17.3464 17.495 17.3989 17.4586 17.4597 17.3918C17.6022 17.2357 17.9366 16.8629 18.2169 16.5319C18.3939 16.3229 18.5558 16.1232 18.6477 15.9901C18.8308 15.7229 19.0287 15.6108 19.2551 15.5862C19.4547 15.5645 19.6409 15.6205 19.8546 15.6945C20.0065 15.747 20.3902 15.9161 20.822 16.1129C21.4901 16.4174 22.2718 16.7859 22.4978 16.8967C22.5571 16.9244 22.6187 16.9529 22.6765 16.9792Z" stroke="#4FBD01" stroke-width="0.5" mask="url(#path-1-outside-1_14_87)"/>
<path d="M29 14.1623C29 17.7943 27.4604 21.084 24.9707 23.4656C22.4821 25.8461 19.045 27.3189 15.2485 27.3189C14.0616 27.3189 12.9109 27.1751 11.813 26.9043C10.7934 26.6528 9.81912 26.2914 8.90328 25.8336C8.7826 25.7732 8.64209 25.7602 8.51255 25.8L1.38746 27.9861C1.15546 28.0572 0.938119 27.8437 1.01619 27.6214L3.32462 21.0478C3.3716 20.914 3.35513 20.7673 3.28247 20.6447C2.73588 19.7221 2.30156 18.7296 1.99841 17.6851C1.67201 16.5605 1.49707 15.3772 1.49707 14.1578C1.49707 10.5251 3.03701 7.2351 5.5274 4.85341C8.01669 2.47277 11.4548 1 15.253 1C19.0478 1 22.4842 2.47328 24.9724 4.85519C27.4608 7.23742 29 10.528 29 14.1623ZM24.5517 23.0594C26.9321 20.7824 28.4041 17.6364 28.4041 14.1623C28.4041 10.6859 26.9326 7.53892 24.5534 5.26133C22.1739 2.98341 18.8857 1.57446 15.2529 1.57446C11.6168 1.57446 8.32694 2.9829 5.94635 5.25955C3.56527 7.53671 2.09294 10.683 2.09294 14.1578C2.09294 15.3282 2.25974 16.4602 2.57096 17.5325C2.89351 18.6438 3.37072 19.6929 3.97784 20.656C4.02318 20.7279 4.03376 20.8164 4.00577 20.8961L2.08608 26.3627C1.95414 26.7384 2.32147 27.0991 2.71352 26.9789L8.65862 25.1548C8.73555 25.1312 8.81916 25.1391 8.88989 25.1766C9.84701 25.6842 10.876 26.0805 11.9597 26.3478C13.0099 26.6068 14.1114 26.7444 15.2485 26.7444C18.8829 26.7444 22.1718 25.3359 24.5517 23.0594Z" stroke="#4FBD01" stroke-width="0.5" mask="url(#path-1-outside-1_14_87)"/>
</svg>
