<svg width="32" height="28" viewBox="0 0 32 28" fill="none" xmlns="http://www.w3.org/2000/svg">
<path d="M21.7306 13.8117L21.7306 13.8116L12.6824 7.72518C12.6824 7.72517 12.6824 7.72517 12.6824 7.72517C12.5147 7.61245 12.3078 7.61069 12.1385 7.72213L12.0835 7.63859L12.1385 7.72213C11.9668 7.83509 11.8551 8.04995 11.8551 8.28929V20.4607C11.8551 20.7001 11.9668 20.915 12.1382 21.0279C12.223 21.0837 12.3162 21.1107 12.4082 21.1107C12.5018 21.1107 12.5963 21.0826 12.6824 21.0249L21.7306 13.8117ZM21.7306 13.8117C21.8999 13.9253 22.0094 14.1386 22.0094 14.3757C22.0094 14.6128 21.8996 14.8262 21.7306 14.9399L21.7864 15.0229L21.7306 14.9399L12.6825 21.0248L21.7306 13.8117ZM12.9612 19.1522V19.34L13.117 19.2352L20.2197 14.4587L20.3431 14.3758L20.2197 14.2928L13.117 9.51485L12.9612 9.41003V9.59782V19.1522ZM6.36348 0.6H25.6365C29.0773 0.6 31.9 3.83009 31.9 7.83082V20.1692C31.9 24.1699 29.0773 27.4 25.6365 27.4H6.36348C2.92263 27.4 0.1 24.1699 0.1 20.1692V7.83082C0.1 3.83009 2.92263 0.6 6.36348 0.6ZM25.6365 26.1C28.4932 26.1 30.7939 23.4256 30.7939 20.1692V7.83082C30.7939 4.57448 28.4932 1.9 25.6365 1.9H6.36348C3.50679 1.9 1.20612 4.57448 1.20612 7.83082V20.1692C1.20612 23.4256 3.50679 26.1 6.36348 26.1H25.6365Z" fill="#4FBD01" stroke="#FCFCFC" stroke-width="0.2"/>
</svg>
