<svg width="56" height="56" viewBox="0 0 56 56" fill="none" xmlns="http://www.w3.org/2000/svg">
<g clip-path="url(#clip0_193_698)">
<path d="M44.1826 43.3197V54.6011C44.1826 55.8707 42.5956 56.468 41.7135 55.5698L28.0903 43.3197H16.6041C13.0231 43.3197 10.0991 40.4658 10.0991 36.9706V12.5348C10.0991 9.0403 13.0231 6.18639 16.6041 6.18639H49.245C52.826 6.18639 55.75 9.03962 55.75 12.5348V36.9706C55.75 40.4658 52.826 43.3197 49.245 43.3197H44.1826ZM20.9616 21.4266C22.318 21.4266 23.4174 22.4997 23.4174 23.8237C23.4174 25.1476 22.318 26.2207 20.9616 26.2207C19.6052 26.2207 18.5057 25.1476 18.5057 23.8237C18.5057 22.4997 19.6052 21.4266 20.9616 21.4266ZM44.8875 21.4266C46.2439 21.4266 47.3434 22.4997 47.3434 23.8237C47.3434 25.1476 46.2439 26.2207 44.8875 26.2207C43.5311 26.2207 42.4317 25.1476 42.4317 23.8237C42.4317 22.4997 43.5311 21.4266 44.8875 21.4266ZM36.9122 21.4266C38.2686 21.4266 39.3681 22.4997 39.3681 23.8237C39.3681 25.1476 38.2686 26.2207 36.9122 26.2207C35.5558 26.2207 34.4563 25.1476 34.4563 23.8237C34.4563 22.4997 35.5558 21.4266 36.9122 21.4266ZM28.9369 21.4266C30.2933 21.4266 31.3928 22.4997 31.3928 23.8237C31.3928 25.1476 30.2933 26.2207 28.9369 26.2207C27.5805 26.2207 26.481 25.1476 26.481 23.8237C26.481 22.4997 27.5805 21.4266 28.9369 21.4266ZM7.25499 34.3329C9.14134 34.3329 9.14134 37.1333 7.25499 37.1333C3.67398 37.1333 0.75 34.2794 0.75 30.7842V6.34841C0.75 2.8539 3.67398 0 7.25499 0H39.8966C41.783 0 41.783 2.79967 39.8966 2.79967H7.25499C5.25821 2.79967 3.61911 4.39948 3.61911 6.34841V30.7842C3.61911 32.7331 5.25821 34.3329 7.25499 34.3329ZM41.3141 51.4116V41.9192C41.3141 41.1464 41.9566 40.5193 42.7484 40.5193H49.245C51.2418 40.5193 52.8816 38.9195 52.8816 36.9706V12.5348C52.8816 10.5859 51.2418 8.98607 49.245 8.98607H16.6041C14.6066 8.98607 12.9675 10.5859 12.9675 12.5348V36.9706C12.9675 38.9195 14.6066 40.5193 16.6041 40.5193L28.6459 40.5227C28.9925 40.5227 29.3404 40.644 29.6154 40.8915L41.3141 51.4116Z" fill="#151515"/>
</g>
<defs>
<clipPath id="clip0_193_698">
<rect width="56" height="56" fill="white"/>
</clipPath>
</defs>
</svg>
