<svg width="90" height="74" viewBox="0 0 90 74" fill="none" xmlns="http://www.w3.org/2000/svg">
<mask id="path-1-outside-1_409_542" maskUnits="userSpaceOnUse" x="0" y="0" width="90" height="74" fill="black">
<rect fill="white" width="90" height="74"/>
<path d="M87.5647 54.0821C87.581 52.551 87.564 51.0178 87.5647 49.4865C87.5657 47.2774 87.7677 44.4654 87.0869 42.3823C86.4613 40.4678 84.9434 39.0616 83.5029 37.9406C83.0601 37.5961 82.4996 37.2573 82.2002 36.7375C81.864 36.154 81.5974 35.4876 81.3109 34.869L79.6422 31.2387L74.5108 20.039L73.3432 17.4525C72.9657 16.6054 72.6113 15.6773 72.0861 14.9338C71.5442 14.1667 70.8734 13.6508 70.0529 13.3527C69.0861 13.0014 68.0468 12.8304 67.0576 12.568C65.2498 12.0764 63.4447 11.5722 61.6422 11.0555L40.0627 5.08168L27.0307 1.42577C26.4539 1.26409 25.8453 1.05076 25.2512 1.00255C24.8984 0.97394 24.4764 1.19246 24.1471 1.32847C21.9676 2.22841 19.8275 3.25201 17.663 4.19859C16.2131 4.83268 2.85348 10.5052 2.61793 10.7847C2.5053 10.9181 2.49929 11.0082 2.49069 11.1876C2.44255 12.2039 2.48467 13.2482 2.48553 14.2668L2.48725 20.298L2.4778 35.7536C2.4778 38.7089 2.52594 41.6753 2.46576 44.6295C2.14854 44.5727 1.82529 44.5494 1.50464 44.5177C1.28799 44.7045 1.14873 44.8961 1 45.1517V46.058C1.28886 47.144 0.733498 48.5969 1.3198 49.6216C1.96542 50.0792 5.01927 50.7474 5.94205 50.9967C7.5304 51.4258 9.10448 51.8996 10.7024 52.2832C10.7132 54.2607 11.1232 56.184 12.0001 57.897C13.1143 60.0737 14.9577 61.8528 17.1196 62.4902C18.1717 62.8005 19.4207 62.8358 20.4626 62.4527C20.8949 62.2939 21.3036 62.0524 21.7324 61.88C22.3536 61.6302 22.9914 61.4519 23.5611 61.0614C24.9619 60.1009 25.8789 58.5218 26.2766 56.7377C26.9091 56.9493 27.5685 57.0994 28.2084 57.2823L32.3061 58.4602C37.5582 59.9717 42.8326 61.4162 48.0666 63.0059C48.1533 64.4966 48.4106 65.858 48.9857 67.2117C50.0114 69.6261 51.8137 71.6632 54.0639 72.5358C54.1232 72.559 54.1828 72.5813 54.2426 72.6027C54.3024 72.6242 54.3625 72.6448 54.4228 72.6645C54.4831 72.6843 54.5436 72.7032 54.6043 72.7213C54.665 72.7393 54.7259 72.7565 54.7869 72.7728C54.848 72.7891 54.9092 72.8045 54.9707 72.8192C55.032 72.8337 55.0936 72.8474 55.1553 72.8602C55.217 72.873 55.2789 72.885 55.3408 72.8961C55.4028 72.9071 55.4649 72.9173 55.527 72.9267C55.5892 72.9359 55.6515 72.9444 55.7139 72.9519C55.7763 72.9595 55.8387 72.9661 55.9013 72.9719C55.9638 72.9777 56.0264 72.9826 56.0889 72.9865C56.1516 72.9905 56.2142 72.9936 56.277 72.9958C56.3396 72.9981 56.4023 72.9994 56.465 72.9999C56.5278 73.0003 56.5905 72.9998 56.6532 72.9985C56.7159 72.9971 56.7786 72.9949 56.8413 72.9917C56.904 72.9886 56.9666 72.9846 57.0292 72.9797C57.0918 72.9748 57.1543 72.969 57.2168 72.9623C57.2792 72.9557 57.3415 72.9481 57.4038 72.9397C57.4661 72.9312 57.5283 72.9219 57.5904 72.9117C57.6524 72.9015 57.7144 72.8904 57.7762 72.8784C57.8381 72.8664 57.8998 72.8536 57.9613 72.8398C58.0229 72.8261 58.0843 72.8115 58.1456 72.796C58.2068 72.7806 58.2679 72.7642 58.3288 72.7471C58.3896 72.7299 58.4503 72.7118 58.5108 72.6929C58.5713 72.674 58.6316 72.6542 58.6916 72.6336C58.7517 72.6129 58.8115 72.5914 58.8711 72.5691C58.9307 72.5468 58.99 72.5236 59.0491 72.4996C59.1082 72.4756 59.167 72.4507 59.2255 72.4251C59.2841 72.3994 59.3423 72.3729 59.4003 72.3455C59.4582 72.3182 59.5159 72.29 59.5732 72.261C59.6305 72.232 59.6876 72.2022 59.7443 72.1717C59.801 72.1411 59.8573 72.1097 59.9133 72.0775C61.7499 71.0277 62.6784 69.468 63.3113 67.2974C64.4465 67.6156 65.5635 68.0006 66.6813 68.3887C67.3548 68.6224 68.0303 68.8889 68.7183 69.0585C69.6651 68.7299 70.595 68.2261 71.5085 67.7911L76.0107 65.6634C78.8871 64.3287 81.7554 62.9718 84.6155 61.5926C85.8494 61.0074 87.1211 60.4945 88.3369 59.8639C88.5563 59.7502 88.814 59.6723 88.8963 59.3936C88.9982 59.0483 89.0184 55.9833 88.9854 55.4848C88.9724 55.2882 88.9363 55.0822 88.8511 54.9085C88.6 54.3964 88.0183 54.2462 87.5647 54.0821ZM3.46978 11.6492C6.61562 12.411 9.71864 13.4461 12.8369 14.3459L33.5783 20.3345C33.6417 26.3524 33.5796 32.3783 33.5807 38.3972L33.584 47.85C33.5847 49.6357 33.6064 51.4268 33.5754 53.2121L30.9742 52.4919C29.3268 52.034 27.6137 51.6274 25.9965 51.0511C24.925 48.1202 23.2114 45.8458 20.5893 44.6105C18.8499 43.7909 16.8525 43.5362 15.0831 44.3796C13.8043 44.9892 12.9126 46.0132 12.0907 47.254C10.5922 46.7843 9.07276 46.3924 7.56196 45.9775C6.17331 45.5962 4.78493 45.1853 3.38218 44.8774L3.40341 18.5215C3.40264 17.8192 3.29002 11.9788 3.37737 11.7324C3.38837 11.7015 3.41296 11.6795 3.43076 11.6531L3.46978 11.6492ZM25.3077 2.0971C28.4607 2.85956 31.5878 3.83005 34.7199 4.70069L63.9454 12.8485C64.9328 13.1225 65.9177 13.4346 66.9097 13.6829C65.7436 14.2885 64.5358 14.7696 63.3468 15.3115C61.2201 16.2978 59.089 17.2715 56.9534 18.2325L49.4719 21.6159C48.4864 22.0573 47.5082 22.5417 46.513 22.9506L4.92222 10.9136C5.63859 10.6607 6.33846 10.3247 7.0378 10.0152L10.0943 8.67311L18.8701 4.83543C19.7475 4.44229 24.7993 2.08279 25.3077 2.0971ZM68.8782 14.2051C69.8605 14.3226 70.7278 14.7433 71.3588 15.6345C72.1383 16.7354 72.6614 18.2481 73.1797 19.5271L56.2548 27.4149C54.8264 27.0701 53.4211 26.6346 52.0166 26.1823C51.1687 25.9093 50.3175 25.5947 49.4551 25.3887C49.2284 25.3346 48.6144 25.1619 48.4153 25.3021C48.3053 25.4534 48.2602 25.5707 48.252 25.7696C48.2147 26.6725 48.2732 27.6198 48.2748 28.5272L48.2744 34.9273L48.2541 39.1946C48.2479 39.8949 48.1833 40.6582 48.2435 41.3532C48.2613 41.5584 48.2919 41.7377 48.4199 41.8908C48.862 42.1134 49.381 42.2127 49.8504 42.3465L59.7318 45.1597C61.1025 45.5469 62.498 45.8741 63.8508 46.3347C64.7694 47.4196 65.8738 48.3056 66.7129 49.474C67.2674 50.2463 67.6914 51.0917 67.9157 52.0606C68.2573 53.536 68.1445 55.1498 68.1437 56.6662L68.14 61.1471C68.1388 61.8654 68.1549 62.5906 68.1222 63.3078C66.4305 62.7394 64.7392 62.1279 63.0301 61.6333C61.9521 58.7232 60.23 56.271 57.6058 55.0615C55.9684 54.3069 54.1295 54.2386 52.4934 55.0383C51.3048 55.6193 50.3705 56.6864 49.4844 57.7287C48.6223 57.4655 47.7382 57.2226 46.8626 57.0254L46.8813 34.5059L46.8738 27.5821C46.8731 26.4034 46.7991 25.1494 46.9089 23.9783L60.7626 17.6755L64.8835 15.8197C65.9312 15.3363 66.9726 14.8022 68.0408 14.383C68.3054 14.279 68.595 14.1719 68.8782 14.2051ZM73.6402 20.5254C74.3182 22.0996 75.098 23.6282 75.8173 25.1796C77.0915 27.9297 78.3469 30.6908 79.5836 33.463C80.1256 34.6641 80.7189 35.8457 81.2148 37.0717L72.235 41.3664C69.686 42.6107 67.1213 43.8114 64.5409 44.9684L64.4076 44.993C64.3116 44.9015 64.2607 44.7942 64.2025 44.6717C63.8613 43.9529 63.5914 43.1815 63.2667 42.45C62.3168 40.3445 61.3803 38.2312 60.4572 36.1102C59.6705 34.3289 58.8956 32.5409 58.1325 30.7462C57.7751 29.9104 57.3924 29.0814 57.0665 28.2291C57.7008 27.9952 58.3188 27.6757 58.9353 27.3866L62.0023 25.9495L69.3505 22.535C70.7804 21.8667 72.1998 21.1638 73.6402 20.5254ZM81.8921 37.9913C83.953 39.7081 86.0807 41.0307 86.5192 44.1721C86.685 45.3595 86.6348 46.5893 86.6275 47.7879C86.0395 48.1484 85.4795 48.5833 84.911 48.983C84.4205 49.3279 83.8738 49.6437 83.4372 50.0746C83.4447 51.2116 83.4455 52.3486 83.4395 53.4856C83.4377 54.0336 83.3891 54.631 83.4397 55.1736C83.4502 55.286 83.4674 55.3701 83.5377 55.4557C83.6416 55.5818 83.8238 55.6441 83.9616 55.7036C84.8341 55.3284 85.6833 54.8349 86.5642 54.4992L86.7739 54.8384C86.0368 55.2957 85.2386 55.6359 84.4633 55.9992L81.3734 57.4577C77.2755 59.3943 73.1378 61.2543 69.0873 63.3172C69.084 63.0915 69.0464 62.7892 69.118 62.5788L69.1434 62.5572C69.9187 62.1748 70.6985 61.8047 71.4829 61.4469C71.9817 61.2214 72.5321 61.0323 73.0024 60.7387C73.1015 60.6768 73.1988 60.6123 73.246 60.4916C73.3964 60.1075 73.3979 54.9586 73.26 54.5709C73.2268 54.4778 73.1633 54.3929 73.081 54.3571C72.6028 54.1485 69.682 55.6509 69.0883 55.937C69.1069 52.5925 69.0367 50.5409 66.8565 48.0284C66.2565 47.3371 65.6184 46.6859 64.9843 46.036C66.4852 45.1906 68.0989 44.519 69.6469 43.7896L80.649 38.588C81.0258 38.4056 81.5035 38.0714 81.8921 37.9913ZM34.6387 20.6604C36.6726 21.2106 38.685 21.8621 40.7179 22.4144L40.7233 52.0182C40.7253 53.0061 40.8286 54.0459 40.7232 55.0253C40.7152 55.0994 40.7027 55.1512 40.6557 55.2058C40.6465 55.2164 40.6356 55.225 40.6256 55.2346C38.6076 54.6314 36.5296 54.1543 34.5366 53.4607L34.5292 31.4608L34.534 24.237C34.5357 23.0722 34.4735 21.8726 34.5451 20.712C34.6192 20.6569 34.5852 20.6647 34.6387 20.6604ZM49.3322 26.5389C51.6019 27.1314 53.8408 27.8831 56.0978 28.5363C57.5148 31.7468 58.8632 34.9987 60.3058 38.1935L62.1469 42.287C62.5257 43.1266 63.0057 44.0382 63.2616 44.9337L63.2188 44.9899L63.1382 44.9919C59.9392 44.1052 56.7448 43.1972 53.5551 42.2678C52.1064 41.8508 50.6564 41.3601 49.1969 41.0041C49.1544 38.1427 49.1839 35.2763 49.1836 32.414C49.1835 30.5961 49.1129 28.7346 49.2071 26.9207C49.2147 26.7742 49.2074 26.6671 49.2847 26.5494L49.3322 26.5389ZM17.0049 46.3957C19.0935 46.6991 20.8228 47.8247 22.1182 49.7255C23.3492 51.532 23.9999 53.9007 23.7489 56.1861C23.568 57.8336 22.8156 59.5163 21.6445 60.5306C20.837 61.2301 19.5298 61.8244 18.4973 61.6579C18.4723 61.6539 18.4476 61.6471 18.4227 61.6419C18.3616 61.6336 18.3006 61.6245 18.2396 61.6146C18.1786 61.6046 18.1178 61.5938 18.0571 61.5821C17.9964 61.5704 17.9359 61.5578 17.8754 61.5444C17.815 61.5311 17.7547 61.5168 17.6946 61.5017C17.6345 61.4866 17.5745 61.4707 17.5148 61.4538C17.455 61.437 17.3954 61.4194 17.3359 61.4009C17.2766 61.3824 17.2174 61.3631 17.1584 61.3429C17.0994 61.3227 17.0407 61.3017 16.9822 61.2799C16.9237 61.2581 16.8654 61.2354 16.8074 61.2119C16.7494 61.1884 16.6917 61.1641 16.6342 61.139C16.5767 61.1138 16.5195 61.0879 16.4625 61.0612C16.4056 61.0344 16.349 61.0068 16.2926 60.9785C16.2364 60.9501 16.1804 60.921 16.1246 60.8911C16.069 60.8611 16.0137 60.8303 15.9586 60.7988C15.9036 60.7674 15.8489 60.7351 15.7946 60.702C15.7403 60.669 15.6864 60.6351 15.6328 60.6005C15.5792 60.5659 15.526 60.5306 15.4733 60.4945C15.4205 60.4584 15.3681 60.4215 15.316 60.384C15.264 60.3464 15.2125 60.3081 15.1614 60.269C15.1102 60.2299 15.0594 60.1902 15.0091 60.1498C14.9589 60.1093 14.909 60.068 14.8596 60.0261C14.8102 59.9842 14.7613 59.9417 14.7129 59.8984C14.6644 59.8551 14.6164 59.8111 14.5689 59.7665C14.5214 59.7218 14.4743 59.6765 14.4278 59.6305C14.3813 59.5846 14.3353 59.538 14.2898 59.4907C14.2443 59.4434 14.1994 59.3955 14.1549 59.3469C14.1105 59.2983 14.0665 59.2491 14.0231 59.1994C13.9798 59.1496 13.9369 59.0992 13.8946 59.0482C13.8524 58.9971 13.8107 58.9455 13.7695 58.8933C13.7284 58.8411 13.6878 58.7883 13.6477 58.735C13.6078 58.6817 13.5684 58.6278 13.5295 58.5733C13.4907 58.5188 13.4525 58.4638 13.4148 58.4083C12.1616 56.5769 11.4354 54.0828 11.697 51.7525C11.8765 50.154 12.5395 48.6192 13.6696 47.6242C14.4945 46.898 15.8848 46.2501 16.9444 46.3822C16.9647 46.3847 16.9847 46.3912 17.0049 46.3957ZM41.8561 22.7172C43.2176 23.1303 44.5837 23.5224 45.9544 23.8933L45.9316 43.6046L45.9501 51.298C45.9585 52.8832 45.994 54.4829 45.9644 56.0672C45.9605 56.2721 45.9615 56.4715 45.8916 56.6635C45.7995 56.6973 45.838 56.6996 45.7777 56.6865C44.426 56.2466 43.0445 55.9022 41.6721 55.5564C41.7761 54.8989 41.7075 54.1222 41.7065 53.4478L41.6624 31.5468L41.6636 26.1761C41.662 25.174 41.6297 24.1609 41.6581 23.1599C41.6624 23.0112 41.6433 22.8355 41.7315 22.7236L41.8561 22.7172ZM54.192 56.8296C56.1954 57.1054 57.8473 58.2729 59.0853 60.0699C60.3228 61.8664 61.1043 64.318 60.8528 66.6173C60.6783 68.2115 60.0945 69.8481 58.9451 70.8456C58.071 71.6041 56.862 72.0249 55.7666 71.8804C55.7615 71.8797 55.7565 71.878 55.7514 71.8767C53.8779 71.6711 52.1788 70.4399 50.9924 68.8125C49.6031 66.9066 48.8257 64.4518 49.0309 61.9644C49.1539 60.474 49.6907 59.0191 50.7229 58.0591C51.7197 57.1323 52.8887 56.709 54.1737 56.8264C54.1798 56.827 54.1859 56.8285 54.192 56.8296ZM26.4178 52.3712C28.435 52.8503 30.4407 53.5019 32.4429 54.0654L43.3951 57.1548C45.2264 57.6828 47.0602 58.199 48.8966 58.7033C48.6323 59.396 48.1834 60.4601 48.209 61.2187C48.1704 61.4478 48.1357 61.6786 48.0862 61.905C47.2625 61.5644 46.3489 61.3695 45.4974 61.1265L40.7489 59.7674C35.9912 58.3503 31.223 56.9801 26.4445 55.657C26.5526 54.893 26.3911 52.3986 26.4178 52.3712ZM87.9566 55.555C87.9869 56.6456 88.0142 57.7453 87.9778 58.8359C86.6807 59.4148 85.4027 60.0472 84.115 60.6523C81.5949 61.8158 79.0831 63.0019 76.5795 64.2107L69.0908 67.74C68.9962 66.6746 69.0494 65.5593 69.0521 64.4868L80.8956 58.8902C83.2382 57.748 85.5919 56.6362 87.9566 55.555ZM2.24998 45.652C5.41429 46.455 8.56667 47.3785 11.711 48.2789C11.4377 48.893 10.9592 49.9081 10.909 50.5974C10.8618 50.7983 10.828 51.0551 10.7254 51.2275C9.10792 50.8058 7.50599 50.2947 5.89254 49.8511C4.62244 49.5019 3.30412 49.226 2.05483 48.7983C2.05397 48.3173 1.95167 45.918 2.12876 45.6404L2.24998 45.652ZM63.4235 62.896C64.9174 63.3861 66.5948 64.0432 68.1048 64.3922C68.1493 65.1649 68.2243 66.9798 68.0964 67.6838C66.5591 67.234 65.0347 66.6614 63.5127 66.1453C63.5132 65.5788 63.5197 65.0102 63.494 64.4444C63.472 63.9614 63.3507 63.3653 63.4235 62.896ZM72.4778 55.476C72.4884 56.9128 72.4891 58.3496 72.4798 59.7864C72.0639 59.9888 69.3316 61.3896 69.1309 61.3792C69.083 59.9315 69.0959 58.4792 69.0999 57.0306C70.2157 56.5458 71.4184 56.1013 72.4778 55.476ZM17.5137 44.9236C19.9576 45.1832 22.0546 46.3694 23.6316 48.5337C24.9243 50.3077 25.7097 52.7282 25.523 55.0504C25.3636 57.0351 24.6873 58.558 23.4641 59.9561L23.4171 59.9687C23.5838 59.5732 23.8282 59.2328 23.9954 58.8362C24.8913 56.6347 24.9609 54.181 24.2352 51.8991C23.4337 49.3786 21.7494 47.1967 19.6045 46.0736C18.4554 45.4719 17.3435 45.2472 16.0849 45.3942C15.7102 45.438 15.3236 45.5442 14.9493 45.5584C15.7719 45.2533 16.6366 44.9106 17.5137 44.9236ZM55.2201 55.5577C55.2844 55.5658 55.3485 55.5749 55.4126 55.5848C55.4767 55.5947 55.5407 55.6056 55.6045 55.6173C55.6684 55.6291 55.7321 55.6417 55.7956 55.6553C55.8592 55.6688 55.9226 55.6833 55.9859 55.6986C56.0491 55.7139 56.1122 55.7301 56.1752 55.7472C56.238 55.7642 56.3007 55.7822 56.3633 55.8011C56.4258 55.8199 56.4881 55.8396 56.5502 55.8603C56.6123 55.8808 56.6741 55.9023 56.7358 55.9246C56.7974 55.947 56.8587 55.9702 56.9199 55.9942C56.981 56.0182 57.0419 56.0431 57.1025 56.0689C57.1631 56.0947 57.2234 56.1213 57.2834 56.1487C57.3434 56.1762 57.4031 56.2045 57.4625 56.2336C57.5219 56.2627 57.581 56.2927 57.6397 56.3234C57.6985 56.3542 57.7569 56.3858 57.815 56.4183C57.8731 56.4507 57.9308 56.4839 57.9881 56.518C58.0455 56.552 58.1025 56.5868 58.159 56.6225C58.2157 56.6582 58.2719 56.6946 58.3277 56.7318C58.3835 56.769 58.4389 56.807 58.4939 56.8458C58.5489 56.8846 58.6035 56.9241 58.6576 56.9644C58.7117 57.0047 58.7654 57.0458 58.8187 57.0877C58.8719 57.1295 58.9247 57.172 58.9771 57.2153C59.0294 57.2586 59.0813 57.3026 59.1326 57.3473C59.184 57.3921 59.2349 57.4376 59.2853 57.4837C59.3358 57.5299 59.3856 57.5768 59.435 57.6245C59.4844 57.672 59.5333 57.7203 59.5816 57.7692C59.63 57.8182 59.6778 57.8678 59.725 57.9181C59.7723 57.9684 59.8191 58.0193 59.8653 58.0709C59.9114 58.1225 59.957 58.1748 60.002 58.2277C60.0471 58.2806 60.0916 58.3341 60.1355 58.3882C60.1794 58.4423 60.2227 58.4971 60.2654 58.5524C60.3081 58.6078 60.3501 58.6637 60.3916 58.7203C60.4331 58.7768 60.474 58.8339 60.5143 58.8916C61.9888 60.9659 62.7257 63.4223 62.4634 66.0954C62.3399 67.3541 61.9655 68.3559 61.3293 69.3831C61.1875 69.6121 61.0301 69.9011 60.8404 70.0793C60.8271 70.0917 60.8123 70.102 60.7983 70.1134C60.8137 70.0156 60.833 69.9705 60.8738 69.8851C61.8975 67.5573 62.0317 65.007 61.3076 62.534C60.5811 60.0537 59.0318 57.7718 56.9528 56.589C55.998 56.0458 54.987 55.8049 53.9314 55.6881C54.3481 55.6157 54.7991 55.5004 55.2201 55.5577ZM86.5755 49.0462C86.686 50.4627 86.5784 51.9171 86.6034 53.3405C85.8703 53.6898 85.1443 54.0457 84.3898 54.3314C84.2537 53.3276 84.3431 51.7407 84.3451 50.6831C85.0739 50.1357 85.8745 49.6338 86.5755 49.0462Z"/>
<path d="M54.2094 60.3086C53.5183 60.392 52.9336 60.6232 52.4313 61.1968C51.8113 61.905 51.6134 62.8116 51.6159 63.7846C51.6192 64.9938 52.0922 66.1015 52.8448 66.9427C53.5753 67.7592 54.4439 68.2413 55.4732 68.2359C55.5518 68.2346 55.6301 68.2295 55.7082 68.2205C55.7863 68.2115 55.8639 68.1986 55.9411 68.1819C56.0182 68.1651 56.0945 68.1445 56.1701 68.1202C56.2456 68.0957 56.3201 68.0676 56.3934 68.0358C56.4669 68.004 56.5389 67.9686 56.6096 67.9296C56.6802 67.8906 56.7493 67.8481 56.8167 67.8023C56.8841 67.7564 56.9496 67.7072 57.0132 67.6547C57.0768 67.6023 57.1383 67.5468 57.1977 67.4882C57.7595 66.9304 58.0543 66.0966 58.0954 65.261C58.1585 63.9778 57.81 62.7706 57.0525 61.8127C56.2905 60.8493 55.3362 60.3683 54.2094 60.3086ZM54.8269 61.3308C55.6751 61.5851 56.3372 62.0548 56.7879 62.9319C57.1914 63.7172 57.355 64.6572 57.1445 65.5452C57.0104 66.1109 56.7231 66.6027 56.2702 66.8947C55.8087 67.1923 55.3108 67.234 54.7936 67.1904C53.8875 66.8409 53.2309 66.3117 52.7981 65.3151C52.4693 64.558 52.3715 63.679 52.6163 62.8708C52.795 62.2808 53.1453 61.8165 53.6462 61.5568C53.7384 61.51 53.8329 61.4701 53.9296 61.437C54.0263 61.4038 54.1244 61.3776 54.224 61.3586C54.3236 61.3396 54.4238 61.3277 54.5247 61.323C54.6256 61.3184 54.7264 61.321 54.8269 61.3308Z"/>
<path d="M54.941 63.04C54.7232 63.0195 54.4887 63.0081 54.2826 63.1033C54.0737 63.1998 53.9091 63.3768 53.8253 63.6167C53.707 63.9561 53.7408 64.3878 53.8664 64.7183C54.0528 65.2086 54.3677 65.4446 54.7853 65.6312C54.9436 65.6369 55.0992 65.6433 55.2527 65.591C55.5011 65.5061 55.7087 65.3181 55.8207 65.0499C55.9591 64.7185 55.9365 64.303 55.8144 63.9701C55.6399 63.4942 55.3411 63.2395 54.941 63.04Z"/>
<path d="M17.6631 49.958C17.0397 49.8274 16.2405 50.0186 15.6986 50.3862C15.0352 50.8361 14.6156 51.5757 14.4327 52.4204C14.169 53.639 14.4043 54.9324 14.9697 55.9971C15.55 57.0898 16.4674 57.8329 17.5532 58.133C18.2329 58.2547 19.0005 58.1443 19.6012 57.7464C20.2367 57.3253 20.6702 56.6225 20.8637 55.8216C21.1475 54.6474 20.9371 53.2907 20.4113 52.2434C19.768 50.9617 18.8894 50.3342 17.6631 49.958ZM17.5578 51.0412C18.4611 51.3413 19.1641 51.8678 19.6231 52.8266C20.0016 53.617 20.1765 54.6224 19.9356 55.4977C19.7828 56.0533 19.4907 56.5273 19.0315 56.8011C18.6383 57.0357 18.198 57.0915 17.7619 57.0381C16.8536 56.7534 16.1743 56.2727 15.7034 55.3154C15.3249 54.5458 15.1486 53.5563 15.3639 52.694C15.5114 52.1032 15.8315 51.5876 16.3164 51.3009C16.6989 51.0745 17.1324 51.0155 17.5578 51.0412Z"/>
<path d="M17.844 52.849C17.6365 52.838 17.4236 52.8136 17.2253 52.8997C16.9762 53.0078 16.7834 53.2071 16.6848 53.492C16.57 53.8241 16.5919 54.2379 16.7246 54.5592C16.9009 54.9856 17.1718 55.1776 17.5442 55.3396C17.7284 55.3459 17.9117 55.3546 18.0898 55.2917C18.1201 55.2811 18.1499 55.2688 18.1791 55.2547C18.2083 55.2406 18.2367 55.2248 18.2645 55.2072C18.2923 55.1898 18.3192 55.1707 18.3451 55.15C18.3711 55.1293 18.3962 55.1071 18.4202 55.0835C18.4441 55.0598 18.467 55.0348 18.4887 55.0084C18.5104 54.9821 18.5308 54.9545 18.55 54.9257C18.5691 54.8969 18.5869 54.8671 18.6034 54.8362C18.6198 54.8053 18.6348 54.7734 18.6483 54.7407C18.7871 54.4019 18.7729 53.9938 18.6451 53.6536C18.482 53.2197 18.2175 53.0142 17.844 52.849Z"/>
<path d="M50.3593 45.2544C50.2597 45.2384 50.1613 45.2322 50.0657 45.2741C49.9355 45.3311 49.838 45.4347 49.786 45.5835C49.7324 45.737 49.7273 45.9366 49.8009 46.0826C49.8783 46.2362 50.0192 46.3114 50.1579 46.3727C50.5764 46.5574 51.0531 46.6367 51.4897 46.7601C52.1937 46.9628 52.8956 47.1749 53.5953 47.3964C53.6937 47.4029 53.7729 47.408 53.8699 47.3803C54.0025 47.3425 54.1944 47.1436 54.2491 47.0013C54.2863 46.9048 54.2709 46.8044 54.2267 46.7151C54.1051 46.4696 53.7873 46.2998 53.5656 46.201C53.1244 46.0045 52.6285 45.9239 52.1683 45.799C51.562 45.6346 50.9606 45.4407 50.3593 45.2544Z"/>
</mask>
<path d="M87.5647 54.0821C87.581 52.551 87.564 51.0178 87.5647 49.4865C87.5657 47.2774 87.7677 44.4654 87.0869 42.3823C86.4613 40.4678 84.9434 39.0616 83.5029 37.9406C83.0601 37.5961 82.4996 37.2573 82.2002 36.7375C81.864 36.154 81.5974 35.4876 81.3109 34.869L79.6422 31.2387L74.5108 20.039L73.3432 17.4525C72.9657 16.6054 72.6113 15.6773 72.0861 14.9338C71.5442 14.1667 70.8734 13.6508 70.0529 13.3527C69.0861 13.0014 68.0468 12.8304 67.0576 12.568C65.2498 12.0764 63.4447 11.5722 61.6422 11.0555L40.0627 5.08168L27.0307 1.42577C26.4539 1.26409 25.8453 1.05076 25.2512 1.00255C24.8984 0.97394 24.4764 1.19246 24.1471 1.32847C21.9676 2.22841 19.8275 3.25201 17.663 4.19859C16.2131 4.83268 2.85348 10.5052 2.61793 10.7847C2.5053 10.9181 2.49929 11.0082 2.49069 11.1876C2.44255 12.2039 2.48467 13.2482 2.48553 14.2668L2.48725 20.298L2.4778 35.7536C2.4778 38.7089 2.52594 41.6753 2.46576 44.6295C2.14854 44.5727 1.82529 44.5494 1.50464 44.5177C1.28799 44.7045 1.14873 44.8961 1 45.1517V46.058C1.28886 47.144 0.733498 48.5969 1.3198 49.6216C1.96542 50.0792 5.01927 50.7474 5.94205 50.9967C7.5304 51.4258 9.10448 51.8996 10.7024 52.2832C10.7132 54.2607 11.1232 56.184 12.0001 57.897C13.1143 60.0737 14.9577 61.8528 17.1196 62.4902C18.1717 62.8005 19.4207 62.8358 20.4626 62.4527C20.8949 62.2939 21.3036 62.0524 21.7324 61.88C22.3536 61.6302 22.9914 61.4519 23.5611 61.0614C24.9619 60.1009 25.8789 58.5218 26.2766 56.7377C26.9091 56.9493 27.5685 57.0994 28.2084 57.2823L32.3061 58.4602C37.5582 59.9717 42.8326 61.4162 48.0666 63.0059C48.1533 64.4966 48.4106 65.858 48.9857 67.2117C50.0114 69.6261 51.8137 71.6632 54.0639 72.5358C54.1232 72.559 54.1828 72.5813 54.2426 72.6027C54.3024 72.6242 54.3625 72.6448 54.4228 72.6645C54.4831 72.6843 54.5436 72.7032 54.6043 72.7213C54.665 72.7393 54.7259 72.7565 54.7869 72.7728C54.848 72.7891 54.9092 72.8045 54.9707 72.8192C55.032 72.8337 55.0936 72.8474 55.1553 72.8602C55.217 72.873 55.2789 72.885 55.3408 72.8961C55.4028 72.9071 55.4649 72.9173 55.527 72.9267C55.5892 72.9359 55.6515 72.9444 55.7139 72.9519C55.7763 72.9595 55.8387 72.9661 55.9013 72.9719C55.9638 72.9777 56.0264 72.9826 56.0889 72.9865C56.1516 72.9905 56.2142 72.9936 56.277 72.9958C56.3396 72.9981 56.4023 72.9994 56.465 72.9999C56.5278 73.0003 56.5905 72.9998 56.6532 72.9985C56.7159 72.9971 56.7786 72.9949 56.8413 72.9917C56.904 72.9886 56.9666 72.9846 57.0292 72.9797C57.0918 72.9748 57.1543 72.969 57.2168 72.9623C57.2792 72.9557 57.3415 72.9481 57.4038 72.9397C57.4661 72.9312 57.5283 72.9219 57.5904 72.9117C57.6524 72.9015 57.7144 72.8904 57.7762 72.8784C57.8381 72.8664 57.8998 72.8536 57.9613 72.8398C58.0229 72.8261 58.0843 72.8115 58.1456 72.796C58.2068 72.7806 58.2679 72.7642 58.3288 72.7471C58.3896 72.7299 58.4503 72.7118 58.5108 72.6929C58.5713 72.674 58.6316 72.6542 58.6916 72.6336C58.7517 72.6129 58.8115 72.5914 58.8711 72.5691C58.9307 72.5468 58.99 72.5236 59.0491 72.4996C59.1082 72.4756 59.167 72.4507 59.2255 72.4251C59.2841 72.3994 59.3423 72.3729 59.4003 72.3455C59.4582 72.3182 59.5159 72.29 59.5732 72.261C59.6305 72.232 59.6876 72.2022 59.7443 72.1717C59.801 72.1411 59.8573 72.1097 59.9133 72.0775C61.7499 71.0277 62.6784 69.468 63.3113 67.2974C64.4465 67.6156 65.5635 68.0006 66.6813 68.3887C67.3548 68.6224 68.0303 68.8889 68.7183 69.0585C69.6651 68.7299 70.595 68.2261 71.5085 67.7911L76.0107 65.6634C78.8871 64.3287 81.7554 62.9718 84.6155 61.5926C85.8494 61.0074 87.1211 60.4945 88.3369 59.8639C88.5563 59.7502 88.814 59.6723 88.8963 59.3936C88.9982 59.0483 89.0184 55.9833 88.9854 55.4848C88.9724 55.2882 88.9363 55.0822 88.8511 54.9085C88.6 54.3964 88.0183 54.2462 87.5647 54.0821ZM3.46978 11.6492C6.61562 12.411 9.71864 13.4461 12.8369 14.3459L33.5783 20.3345C33.6417 26.3524 33.5796 32.3783 33.5807 38.3972L33.584 47.85C33.5847 49.6357 33.6064 51.4268 33.5754 53.2121L30.9742 52.4919C29.3268 52.034 27.6137 51.6274 25.9965 51.0511C24.925 48.1202 23.2114 45.8458 20.5893 44.6105C18.8499 43.7909 16.8525 43.5362 15.0831 44.3796C13.8043 44.9892 12.9126 46.0132 12.0907 47.254C10.5922 46.7843 9.07276 46.3924 7.56196 45.9775C6.17331 45.5962 4.78493 45.1853 3.38218 44.8774L3.40341 18.5215C3.40264 17.8192 3.29002 11.9788 3.37737 11.7324C3.38837 11.7015 3.41296 11.6795 3.43076 11.6531L3.46978 11.6492ZM25.3077 2.0971C28.4607 2.85956 31.5878 3.83005 34.7199 4.70069L63.9454 12.8485C64.9328 13.1225 65.9177 13.4346 66.9097 13.6829C65.7436 14.2885 64.5358 14.7696 63.3468 15.3115C61.2201 16.2978 59.089 17.2715 56.9534 18.2325L49.4719 21.6159C48.4864 22.0573 47.5082 22.5417 46.513 22.9506L4.92222 10.9136C5.63859 10.6607 6.33846 10.3247 7.0378 10.0152L10.0943 8.67311L18.8701 4.83543C19.7475 4.44229 24.7993 2.08279 25.3077 2.0971ZM68.8782 14.2051C69.8605 14.3226 70.7278 14.7433 71.3588 15.6345C72.1383 16.7354 72.6614 18.2481 73.1797 19.5271L56.2548 27.4149C54.8264 27.0701 53.4211 26.6346 52.0166 26.1823C51.1687 25.9093 50.3175 25.5947 49.4551 25.3887C49.2284 25.3346 48.6144 25.1619 48.4153 25.3021C48.3053 25.4534 48.2602 25.5707 48.252 25.7696C48.2147 26.6725 48.2732 27.6198 48.2748 28.5272L48.2744 34.9273L48.2541 39.1946C48.2479 39.8949 48.1833 40.6582 48.2435 41.3532C48.2613 41.5584 48.2919 41.7377 48.4199 41.8908C48.862 42.1134 49.381 42.2127 49.8504 42.3465L59.7318 45.1597C61.1025 45.5469 62.498 45.8741 63.8508 46.3347C64.7694 47.4196 65.8738 48.3056 66.7129 49.474C67.2674 50.2463 67.6914 51.0917 67.9157 52.0606C68.2573 53.536 68.1445 55.1498 68.1437 56.6662L68.14 61.1471C68.1388 61.8654 68.1549 62.5906 68.1222 63.3078C66.4305 62.7394 64.7392 62.1279 63.0301 61.6333C61.9521 58.7232 60.23 56.271 57.6058 55.0615C55.9684 54.3069 54.1295 54.2386 52.4934 55.0383C51.3048 55.6193 50.3705 56.6864 49.4844 57.7287C48.6223 57.4655 47.7382 57.2226 46.8626 57.0254L46.8813 34.5059L46.8738 27.5821C46.8731 26.4034 46.7991 25.1494 46.9089 23.9783L60.7626 17.6755L64.8835 15.8197C65.9312 15.3363 66.9726 14.8022 68.0408 14.383C68.3054 14.279 68.595 14.1719 68.8782 14.2051ZM73.6402 20.5254C74.3182 22.0996 75.098 23.6282 75.8173 25.1796C77.0915 27.9297 78.3469 30.6908 79.5836 33.463C80.1256 34.6641 80.7189 35.8457 81.2148 37.0717L72.235 41.3664C69.686 42.6107 67.1213 43.8114 64.5409 44.9684L64.4076 44.993C64.3116 44.9015 64.2607 44.7942 64.2025 44.6717C63.8613 43.9529 63.5914 43.1815 63.2667 42.45C62.3168 40.3445 61.3803 38.2312 60.4572 36.1102C59.6705 34.3289 58.8956 32.5409 58.1325 30.7462C57.7751 29.9104 57.3924 29.0814 57.0665 28.2291C57.7008 27.9952 58.3188 27.6757 58.9353 27.3866L62.0023 25.9495L69.3505 22.535C70.7804 21.8667 72.1998 21.1638 73.6402 20.5254ZM81.8921 37.9913C83.953 39.7081 86.0807 41.0307 86.5192 44.1721C86.685 45.3595 86.6348 46.5893 86.6275 47.7879C86.0395 48.1484 85.4795 48.5833 84.911 48.983C84.4205 49.3279 83.8738 49.6437 83.4372 50.0746C83.4447 51.2116 83.4455 52.3486 83.4395 53.4856C83.4377 54.0336 83.3891 54.631 83.4397 55.1736C83.4502 55.286 83.4674 55.3701 83.5377 55.4557C83.6416 55.5818 83.8238 55.6441 83.9616 55.7036C84.8341 55.3284 85.6833 54.8349 86.5642 54.4992L86.7739 54.8384C86.0368 55.2957 85.2386 55.6359 84.4633 55.9992L81.3734 57.4577C77.2755 59.3943 73.1378 61.2543 69.0873 63.3172C69.084 63.0915 69.0464 62.7892 69.118 62.5788L69.1434 62.5572C69.9187 62.1748 70.6985 61.8047 71.4829 61.4469C71.9817 61.2214 72.5321 61.0323 73.0024 60.7387C73.1015 60.6768 73.1988 60.6123 73.246 60.4916C73.3964 60.1075 73.3979 54.9586 73.26 54.5709C73.2268 54.4778 73.1633 54.3929 73.081 54.3571C72.6028 54.1485 69.682 55.6509 69.0883 55.937C69.1069 52.5925 69.0367 50.5409 66.8565 48.0284C66.2565 47.3371 65.6184 46.6859 64.9843 46.036C66.4852 45.1906 68.0989 44.519 69.6469 43.7896L80.649 38.588C81.0258 38.4056 81.5035 38.0714 81.8921 37.9913ZM34.6387 20.6604C36.6726 21.2106 38.685 21.8621 40.7179 22.4144L40.7233 52.0182C40.7253 53.0061 40.8286 54.0459 40.7232 55.0253C40.7152 55.0994 40.7027 55.1512 40.6557 55.2058C40.6465 55.2164 40.6356 55.225 40.6256 55.2346C38.6076 54.6314 36.5296 54.1543 34.5366 53.4607L34.5292 31.4608L34.534 24.237C34.5357 23.0722 34.4735 21.8726 34.5451 20.712C34.6192 20.6569 34.5852 20.6647 34.6387 20.6604ZM49.3322 26.5389C51.6019 27.1314 53.8408 27.8831 56.0978 28.5363C57.5148 31.7468 58.8632 34.9987 60.3058 38.1935L62.1469 42.287C62.5257 43.1266 63.0057 44.0382 63.2616 44.9337L63.2188 44.9899L63.1382 44.9919C59.9392 44.1052 56.7448 43.1972 53.5551 42.2678C52.1064 41.8508 50.6564 41.3601 49.1969 41.0041C49.1544 38.1427 49.1839 35.2763 49.1836 32.414C49.1835 30.5961 49.1129 28.7346 49.2071 26.9207C49.2147 26.7742 49.2074 26.6671 49.2847 26.5494L49.3322 26.5389ZM17.0049 46.3957C19.0935 46.6991 20.8228 47.8247 22.1182 49.7255C23.3492 51.532 23.9999 53.9007 23.7489 56.1861C23.568 57.8336 22.8156 59.5163 21.6445 60.5306C20.837 61.2301 19.5298 61.8244 18.4973 61.6579C18.4723 61.6539 18.4476 61.6471 18.4227 61.6419C18.3616 61.6336 18.3006 61.6245 18.2396 61.6146C18.1786 61.6046 18.1178 61.5938 18.0571 61.5821C17.9964 61.5704 17.9359 61.5578 17.8754 61.5444C17.815 61.5311 17.7547 61.5168 17.6946 61.5017C17.6345 61.4866 17.5745 61.4707 17.5148 61.4538C17.455 61.437 17.3954 61.4194 17.3359 61.4009C17.2766 61.3824 17.2174 61.3631 17.1584 61.3429C17.0994 61.3227 17.0407 61.3017 16.9822 61.2799C16.9237 61.2581 16.8654 61.2354 16.8074 61.2119C16.7494 61.1884 16.6917 61.1641 16.6342 61.139C16.5767 61.1138 16.5195 61.0879 16.4625 61.0612C16.4056 61.0344 16.349 61.0068 16.2926 60.9785C16.2364 60.9501 16.1804 60.921 16.1246 60.8911C16.069 60.8611 16.0137 60.8303 15.9586 60.7988C15.9036 60.7674 15.8489 60.7351 15.7946 60.702C15.7403 60.669 15.6864 60.6351 15.6328 60.6005C15.5792 60.5659 15.526 60.5306 15.4733 60.4945C15.4205 60.4584 15.3681 60.4215 15.316 60.384C15.264 60.3464 15.2125 60.3081 15.1614 60.269C15.1102 60.2299 15.0594 60.1902 15.0091 60.1498C14.9589 60.1093 14.909 60.068 14.8596 60.0261C14.8102 59.9842 14.7613 59.9417 14.7129 59.8984C14.6644 59.8551 14.6164 59.8111 14.5689 59.7665C14.5214 59.7218 14.4743 59.6765 14.4278 59.6305C14.3813 59.5846 14.3353 59.538 14.2898 59.4907C14.2443 59.4434 14.1994 59.3955 14.1549 59.3469C14.1105 59.2983 14.0665 59.2491 14.0231 59.1994C13.9798 59.1496 13.9369 59.0992 13.8946 59.0482C13.8524 58.9971 13.8107 58.9455 13.7695 58.8933C13.7284 58.8411 13.6878 58.7883 13.6477 58.735C13.6078 58.6817 13.5684 58.6278 13.5295 58.5733C13.4907 58.5188 13.4525 58.4638 13.4148 58.4083C12.1616 56.5769 11.4354 54.0828 11.697 51.7525C11.8765 50.154 12.5395 48.6192 13.6696 47.6242C14.4945 46.898 15.8848 46.2501 16.9444 46.3822C16.9647 46.3847 16.9847 46.3912 17.0049 46.3957ZM41.8561 22.7172C43.2176 23.1303 44.5837 23.5224 45.9544 23.8933L45.9316 43.6046L45.9501 51.298C45.9585 52.8832 45.994 54.4829 45.9644 56.0672C45.9605 56.2721 45.9615 56.4715 45.8916 56.6635C45.7995 56.6973 45.838 56.6996 45.7777 56.6865C44.426 56.2466 43.0445 55.9022 41.6721 55.5564C41.7761 54.8989 41.7075 54.1222 41.7065 53.4478L41.6624 31.5468L41.6636 26.1761C41.662 25.174 41.6297 24.1609 41.6581 23.1599C41.6624 23.0112 41.6433 22.8355 41.7315 22.7236L41.8561 22.7172ZM54.192 56.8296C56.1954 57.1054 57.8473 58.2729 59.0853 60.0699C60.3228 61.8664 61.1043 64.318 60.8528 66.6173C60.6783 68.2115 60.0945 69.8481 58.9451 70.8456C58.071 71.6041 56.862 72.0249 55.7666 71.8804C55.7615 71.8797 55.7565 71.878 55.7514 71.8767C53.8779 71.6711 52.1788 70.4399 50.9924 68.8125C49.6031 66.9066 48.8257 64.4518 49.0309 61.9644C49.1539 60.474 49.6907 59.0191 50.7229 58.0591C51.7197 57.1323 52.8887 56.709 54.1737 56.8264C54.1798 56.827 54.1859 56.8285 54.192 56.8296ZM26.4178 52.3712C28.435 52.8503 30.4407 53.5019 32.4429 54.0654L43.3951 57.1548C45.2264 57.6828 47.0602 58.199 48.8966 58.7033C48.6323 59.396 48.1834 60.4601 48.209 61.2187C48.1704 61.4478 48.1357 61.6786 48.0862 61.905C47.2625 61.5644 46.3489 61.3695 45.4974 61.1265L40.7489 59.7674C35.9912 58.3503 31.223 56.9801 26.4445 55.657C26.5526 54.893 26.3911 52.3986 26.4178 52.3712ZM87.9566 55.555C87.9869 56.6456 88.0142 57.7453 87.9778 58.8359C86.6807 59.4148 85.4027 60.0472 84.115 60.6523C81.5949 61.8158 79.0831 63.0019 76.5795 64.2107L69.0908 67.74C68.9962 66.6746 69.0494 65.5593 69.0521 64.4868L80.8956 58.8902C83.2382 57.748 85.5919 56.6362 87.9566 55.555ZM2.24998 45.652C5.41429 46.455 8.56667 47.3785 11.711 48.2789C11.4377 48.893 10.9592 49.9081 10.909 50.5974C10.8618 50.7983 10.828 51.0551 10.7254 51.2275C9.10792 50.8058 7.50599 50.2947 5.89254 49.8511C4.62244 49.5019 3.30412 49.226 2.05483 48.7983C2.05397 48.3173 1.95167 45.918 2.12876 45.6404L2.24998 45.652ZM63.4235 62.896C64.9174 63.3861 66.5948 64.0432 68.1048 64.3922C68.1493 65.1649 68.2243 66.9798 68.0964 67.6838C66.5591 67.234 65.0347 66.6614 63.5127 66.1453C63.5132 65.5788 63.5197 65.0102 63.494 64.4444C63.472 63.9614 63.3507 63.3653 63.4235 62.896ZM72.4778 55.476C72.4884 56.9128 72.4891 58.3496 72.4798 59.7864C72.0639 59.9888 69.3316 61.3896 69.1309 61.3792C69.083 59.9315 69.0959 58.4792 69.0999 57.0306C70.2157 56.5458 71.4184 56.1013 72.4778 55.476ZM17.5137 44.9236C19.9576 45.1832 22.0546 46.3694 23.6316 48.5337C24.9243 50.3077 25.7097 52.7282 25.523 55.0504C25.3636 57.0351 24.6873 58.558 23.4641 59.9561L23.4171 59.9687C23.5838 59.5732 23.8282 59.2328 23.9954 58.8362C24.8913 56.6347 24.9609 54.181 24.2352 51.8991C23.4337 49.3786 21.7494 47.1967 19.6045 46.0736C18.4554 45.4719 17.3435 45.2472 16.0849 45.3942C15.7102 45.438 15.3236 45.5442 14.9493 45.5584C15.7719 45.2533 16.6366 44.9106 17.5137 44.9236ZM55.2201 55.5577C55.2844 55.5658 55.3485 55.5749 55.4126 55.5848C55.4767 55.5947 55.5407 55.6056 55.6045 55.6173C55.6684 55.6291 55.7321 55.6417 55.7956 55.6553C55.8592 55.6688 55.9226 55.6833 55.9859 55.6986C56.0491 55.7139 56.1122 55.7301 56.1752 55.7472C56.238 55.7642 56.3007 55.7822 56.3633 55.8011C56.4258 55.8199 56.4881 55.8396 56.5502 55.8603C56.6123 55.8808 56.6741 55.9023 56.7358 55.9246C56.7974 55.947 56.8587 55.9702 56.9199 55.9942C56.981 56.0182 57.0419 56.0431 57.1025 56.0689C57.1631 56.0947 57.2234 56.1213 57.2834 56.1487C57.3434 56.1762 57.4031 56.2045 57.4625 56.2336C57.5219 56.2627 57.581 56.2927 57.6397 56.3234C57.6985 56.3542 57.7569 56.3858 57.815 56.4183C57.8731 56.4507 57.9308 56.4839 57.9881 56.518C58.0455 56.552 58.1025 56.5868 58.159 56.6225C58.2157 56.6582 58.2719 56.6946 58.3277 56.7318C58.3835 56.769 58.4389 56.807 58.4939 56.8458C58.5489 56.8846 58.6035 56.9241 58.6576 56.9644C58.7117 57.0047 58.7654 57.0458 58.8187 57.0877C58.8719 57.1295 58.9247 57.172 58.9771 57.2153C59.0294 57.2586 59.0813 57.3026 59.1326 57.3473C59.184 57.3921 59.2349 57.4376 59.2853 57.4837C59.3358 57.5299 59.3856 57.5768 59.435 57.6245C59.4844 57.672 59.5333 57.7203 59.5816 57.7692C59.63 57.8182 59.6778 57.8678 59.725 57.9181C59.7723 57.9684 59.8191 58.0193 59.8653 58.0709C59.9114 58.1225 59.957 58.1748 60.002 58.2277C60.0471 58.2806 60.0916 58.3341 60.1355 58.3882C60.1794 58.4423 60.2227 58.4971 60.2654 58.5524C60.3081 58.6078 60.3501 58.6637 60.3916 58.7203C60.4331 58.7768 60.474 58.8339 60.5143 58.8916C61.9888 60.9659 62.7257 63.4223 62.4634 66.0954C62.3399 67.3541 61.9655 68.3559 61.3293 69.3831C61.1875 69.6121 61.0301 69.9011 60.8404 70.0793C60.8271 70.0917 60.8123 70.102 60.7983 70.1134C60.8137 70.0156 60.833 69.9705 60.8738 69.8851C61.8975 67.5573 62.0317 65.007 61.3076 62.534C60.5811 60.0537 59.0318 57.7718 56.9528 56.589C55.998 56.0458 54.987 55.8049 53.9314 55.6881C54.3481 55.6157 54.7991 55.5004 55.2201 55.5577ZM86.5755 49.0462C86.686 50.4627 86.5784 51.9171 86.6034 53.3405C85.8703 53.6898 85.1443 54.0457 84.3898 54.3314C84.2537 53.3276 84.3431 51.7407 84.3451 50.6831C85.0739 50.1357 85.8745 49.6338 86.5755 49.0462Z" fill="#4D4D4D" fill-opacity="0.5"/>
<path d="M54.2094 60.3086C53.5183 60.392 52.9336 60.6232 52.4313 61.1968C51.8113 61.905 51.6134 62.8116 51.6159 63.7846C51.6192 64.9938 52.0922 66.1015 52.8448 66.9427C53.5753 67.7592 54.4439 68.2413 55.4732 68.2359C55.5518 68.2346 55.6301 68.2295 55.7082 68.2205C55.7863 68.2115 55.8639 68.1986 55.9411 68.1819C56.0182 68.1651 56.0945 68.1445 56.1701 68.1202C56.2456 68.0957 56.3201 68.0676 56.3934 68.0358C56.4669 68.004 56.5389 67.9686 56.6096 67.9296C56.6802 67.8906 56.7493 67.8481 56.8167 67.8023C56.8841 67.7564 56.9496 67.7072 57.0132 67.6547C57.0768 67.6023 57.1383 67.5468 57.1977 67.4882C57.7595 66.9304 58.0543 66.0966 58.0954 65.261C58.1585 63.9778 57.81 62.7706 57.0525 61.8127C56.2905 60.8493 55.3362 60.3683 54.2094 60.3086ZM54.8269 61.3308C55.6751 61.5851 56.3372 62.0548 56.7879 62.9319C57.1914 63.7172 57.355 64.6572 57.1445 65.5452C57.0104 66.1109 56.7231 66.6027 56.2702 66.8947C55.8087 67.1923 55.3108 67.234 54.7936 67.1904C53.8875 66.8409 53.2309 66.3117 52.7981 65.3151C52.4693 64.558 52.3715 63.679 52.6163 62.8708C52.795 62.2808 53.1453 61.8165 53.6462 61.5568C53.7384 61.51 53.8329 61.4701 53.9296 61.437C54.0263 61.4038 54.1244 61.3776 54.224 61.3586C54.3236 61.3396 54.4238 61.3277 54.5247 61.323C54.6256 61.3184 54.7264 61.321 54.8269 61.3308Z" fill="#4D4D4D" fill-opacity="0.5"/>
<path d="M54.941 63.04C54.7232 63.0195 54.4887 63.0081 54.2826 63.1033C54.0737 63.1998 53.9091 63.3768 53.8253 63.6167C53.707 63.9561 53.7408 64.3878 53.8664 64.7183C54.0528 65.2086 54.3677 65.4446 54.7853 65.6312C54.9436 65.6369 55.0992 65.6433 55.2527 65.591C55.5011 65.5061 55.7087 65.3181 55.8207 65.0499C55.9591 64.7185 55.9365 64.303 55.8144 63.9701C55.6399 63.4942 55.3411 63.2395 54.941 63.04Z" fill="#4D4D4D" fill-opacity="0.5"/>
<path d="M17.6631 49.958C17.0397 49.8274 16.2405 50.0186 15.6986 50.3862C15.0352 50.8361 14.6156 51.5757 14.4327 52.4204C14.169 53.639 14.4043 54.9324 14.9697 55.9971C15.55 57.0898 16.4674 57.8329 17.5532 58.133C18.2329 58.2547 19.0005 58.1443 19.6012 57.7464C20.2367 57.3253 20.6702 56.6225 20.8637 55.8216C21.1475 54.6474 20.9371 53.2907 20.4113 52.2434C19.768 50.9617 18.8894 50.3342 17.6631 49.958ZM17.5578 51.0412C18.4611 51.3413 19.1641 51.8678 19.6231 52.8266C20.0016 53.617 20.1765 54.6224 19.9356 55.4977C19.7828 56.0533 19.4907 56.5273 19.0315 56.8011C18.6383 57.0357 18.198 57.0915 17.7619 57.0381C16.8536 56.7534 16.1743 56.2727 15.7034 55.3154C15.3249 54.5458 15.1486 53.5563 15.3639 52.694C15.5114 52.1032 15.8315 51.5876 16.3164 51.3009C16.6989 51.0745 17.1324 51.0155 17.5578 51.0412Z" fill="#4D4D4D" fill-opacity="0.5"/>
<path d="M17.844 52.849C17.6365 52.838 17.4236 52.8136 17.2253 52.8997C16.9762 53.0078 16.7834 53.2071 16.6848 53.492C16.57 53.8241 16.5919 54.2379 16.7246 54.5592C16.9009 54.9856 17.1718 55.1776 17.5442 55.3396C17.7284 55.3459 17.9117 55.3546 18.0898 55.2917C18.1201 55.2811 18.1499 55.2688 18.1791 55.2547C18.2083 55.2406 18.2367 55.2248 18.2645 55.2072C18.2923 55.1898 18.3192 55.1707 18.3451 55.15C18.3711 55.1293 18.3962 55.1071 18.4202 55.0835C18.4441 55.0598 18.467 55.0348 18.4887 55.0084C18.5104 54.9821 18.5308 54.9545 18.55 54.9257C18.5691 54.8969 18.5869 54.8671 18.6034 54.8362C18.6198 54.8053 18.6348 54.7734 18.6483 54.7407C18.7871 54.4019 18.7729 53.9938 18.6451 53.6536C18.482 53.2197 18.2175 53.0142 17.844 52.849Z" fill="#4D4D4D" fill-opacity="0.5"/>
<path d="M50.3593 45.2544C50.2597 45.2384 50.1613 45.2322 50.0657 45.2741C49.9355 45.3311 49.838 45.4347 49.786 45.5835C49.7324 45.737 49.7273 45.9366 49.8009 46.0826C49.8783 46.2362 50.0192 46.3114 50.1579 46.3727C50.5764 46.5574 51.0531 46.6367 51.4897 46.7601C52.1937 46.9628 52.8956 47.1749 53.5953 47.3964C53.6937 47.4029 53.7729 47.408 53.8699 47.3803C54.0025 47.3425 54.1944 47.1436 54.2491 47.0013C54.2863 46.9048 54.2709 46.8044 54.2267 46.7151C54.1051 46.4696 53.7873 46.2998 53.5656 46.201C53.1244 46.0045 52.6285 45.9239 52.1683 45.799C51.562 45.6346 50.9606 45.4407 50.3593 45.2544Z" fill="#4D4D4D" fill-opacity="0.5"/>
<path d="M87.5647 54.0821C87.581 52.551 87.564 51.0178 87.5647 49.4865C87.5657 47.2774 87.7677 44.4654 87.0869 42.3823C86.4613 40.4678 84.9434 39.0616 83.5029 37.9406C83.0601 37.5961 82.4996 37.2573 82.2002 36.7375C81.864 36.154 81.5974 35.4876 81.3109 34.869L79.6422 31.2387L74.5108 20.039L73.3432 17.4525C72.9657 16.6054 72.6113 15.6773 72.0861 14.9338C71.5442 14.1667 70.8734 13.6508 70.0529 13.3527C69.0861 13.0014 68.0468 12.8304 67.0576 12.568C65.2498 12.0764 63.4447 11.5722 61.6422 11.0555L40.0627 5.08168L27.0307 1.42577C26.4539 1.26409 25.8453 1.05076 25.2512 1.00255C24.8984 0.97394 24.4764 1.19246 24.1471 1.32847C21.9676 2.22841 19.8275 3.25201 17.663 4.19859C16.2131 4.83268 2.85348 10.5052 2.61793 10.7847C2.5053 10.9181 2.49929 11.0082 2.49069 11.1876C2.44255 12.2039 2.48467 13.2482 2.48553 14.2668L2.48725 20.298L2.4778 35.7536C2.4778 38.7089 2.52594 41.6753 2.46576 44.6295C2.14854 44.5727 1.82529 44.5494 1.50464 44.5177C1.28799 44.7045 1.14873 44.8961 1 45.1517V46.058C1.28886 47.144 0.733498 48.5969 1.3198 49.6216C1.96542 50.0792 5.01927 50.7474 5.94205 50.9967C7.5304 51.4258 9.10448 51.8996 10.7024 52.2832C10.7132 54.2607 11.1232 56.184 12.0001 57.897C13.1143 60.0737 14.9577 61.8528 17.1196 62.4902C18.1717 62.8005 19.4207 62.8358 20.4626 62.4527C20.8949 62.2939 21.3036 62.0524 21.7324 61.88C22.3536 61.6302 22.9914 61.4519 23.5611 61.0614C24.9619 60.1009 25.8789 58.5218 26.2766 56.7377C26.9091 56.9493 27.5685 57.0994 28.2084 57.2823L32.3061 58.4602C37.5582 59.9717 42.8326 61.4162 48.0666 63.0059C48.1533 64.4966 48.4106 65.858 48.9857 67.2117C50.0114 69.6261 51.8137 71.6632 54.0639 72.5358C54.1232 72.559 54.1828 72.5813 54.2426 72.6027C54.3024 72.6242 54.3625 72.6448 54.4228 72.6645C54.4831 72.6843 54.5436 72.7032 54.6043 72.7213C54.665 72.7393 54.7259 72.7565 54.7869 72.7728C54.848 72.7891 54.9092 72.8045 54.9707 72.8192C55.032 72.8337 55.0936 72.8474 55.1553 72.8602C55.217 72.873 55.2789 72.885 55.3408 72.8961C55.4028 72.9071 55.4649 72.9173 55.527 72.9267C55.5892 72.9359 55.6515 72.9444 55.7139 72.9519C55.7763 72.9595 55.8387 72.9661 55.9013 72.9719C55.9638 72.9777 56.0264 72.9826 56.0889 72.9865C56.1516 72.9905 56.2142 72.9936 56.277 72.9958C56.3396 72.9981 56.4023 72.9994 56.465 72.9999C56.5278 73.0003 56.5905 72.9998 56.6532 72.9985C56.7159 72.9971 56.7786 72.9949 56.8413 72.9917C56.904 72.9886 56.9666 72.9846 57.0292 72.9797C57.0918 72.9748 57.1543 72.969 57.2168 72.9623C57.2792 72.9557 57.3415 72.9481 57.4038 72.9397C57.4661 72.9312 57.5283 72.9219 57.5904 72.9117C57.6524 72.9015 57.7144 72.8904 57.7762 72.8784C57.8381 72.8664 57.8998 72.8536 57.9613 72.8398C58.0229 72.8261 58.0843 72.8115 58.1456 72.796C58.2068 72.7806 58.2679 72.7642 58.3288 72.7471C58.3896 72.7299 58.4503 72.7118 58.5108 72.6929C58.5713 72.674 58.6316 72.6542 58.6916 72.6336C58.7517 72.6129 58.8115 72.5914 58.8711 72.5691C58.9307 72.5468 58.99 72.5236 59.0491 72.4996C59.1082 72.4756 59.167 72.4507 59.2255 72.4251C59.2841 72.3994 59.3423 72.3729 59.4003 72.3455C59.4582 72.3182 59.5159 72.29 59.5732 72.261C59.6305 72.232 59.6876 72.2022 59.7443 72.1717C59.801 72.1411 59.8573 72.1097 59.9133 72.0775C61.7499 71.0277 62.6784 69.468 63.3113 67.2974C64.4465 67.6156 65.5635 68.0006 66.6813 68.3887C67.3548 68.6224 68.0303 68.8889 68.7183 69.0585C69.6651 68.7299 70.595 68.2261 71.5085 67.7911L76.0107 65.6634C78.8871 64.3287 81.7554 62.9718 84.6155 61.5926C85.8494 61.0074 87.1211 60.4945 88.3369 59.8639C88.5563 59.7502 88.814 59.6723 88.8963 59.3936C88.9982 59.0483 89.0184 55.9833 88.9854 55.4848C88.9724 55.2882 88.9363 55.0822 88.8511 54.9085C88.6 54.3964 88.0183 54.2462 87.5647 54.0821ZM3.46978 11.6492C6.61562 12.411 9.71864 13.4461 12.8369 14.3459L33.5783 20.3345C33.6417 26.3524 33.5796 32.3783 33.5807 38.3972L33.584 47.85C33.5847 49.6357 33.6064 51.4268 33.5754 53.2121L30.9742 52.4919C29.3268 52.034 27.6137 51.6274 25.9965 51.0511C24.925 48.1202 23.2114 45.8458 20.5893 44.6105C18.8499 43.7909 16.8525 43.5362 15.0831 44.3796C13.8043 44.9892 12.9126 46.0132 12.0907 47.254C10.5922 46.7843 9.07276 46.3924 7.56196 45.9775C6.17331 45.5962 4.78493 45.1853 3.38218 44.8774L3.40341 18.5215C3.40264 17.8192 3.29002 11.9788 3.37737 11.7324C3.38837 11.7015 3.41296 11.6795 3.43076 11.6531L3.46978 11.6492ZM25.3077 2.0971C28.4607 2.85956 31.5878 3.83005 34.7199 4.70069L63.9454 12.8485C64.9328 13.1225 65.9177 13.4346 66.9097 13.6829C65.7436 14.2885 64.5358 14.7696 63.3468 15.3115C61.2201 16.2978 59.089 17.2715 56.9534 18.2325L49.4719 21.6159C48.4864 22.0573 47.5082 22.5417 46.513 22.9506L4.92222 10.9136C5.63859 10.6607 6.33846 10.3247 7.0378 10.0152L10.0943 8.67311L18.8701 4.83543C19.7475 4.44229 24.7993 2.08279 25.3077 2.0971ZM68.8782 14.2051C69.8605 14.3226 70.7278 14.7433 71.3588 15.6345C72.1383 16.7354 72.6614 18.2481 73.1797 19.5271L56.2548 27.4149C54.8264 27.0701 53.4211 26.6346 52.0166 26.1823C51.1687 25.9093 50.3175 25.5947 49.4551 25.3887C49.2284 25.3346 48.6144 25.1619 48.4153 25.3021C48.3053 25.4534 48.2602 25.5707 48.252 25.7696C48.2147 26.6725 48.2732 27.6198 48.2748 28.5272L48.2744 34.9273L48.2541 39.1946C48.2479 39.8949 48.1833 40.6582 48.2435 41.3532C48.2613 41.5584 48.2919 41.7377 48.4199 41.8908C48.862 42.1134 49.381 42.2127 49.8504 42.3465L59.7318 45.1597C61.1025 45.5469 62.498 45.8741 63.8508 46.3347C64.7694 47.4196 65.8738 48.3056 66.7129 49.474C67.2674 50.2463 67.6914 51.0917 67.9157 52.0606C68.2573 53.536 68.1445 55.1498 68.1437 56.6662L68.14 61.1471C68.1388 61.8654 68.1549 62.5906 68.1222 63.3078C66.4305 62.7394 64.7392 62.1279 63.0301 61.6333C61.9521 58.7232 60.23 56.271 57.6058 55.0615C55.9684 54.3069 54.1295 54.2386 52.4934 55.0383C51.3048 55.6193 50.3705 56.6864 49.4844 57.7287C48.6223 57.4655 47.7382 57.2226 46.8626 57.0254L46.8813 34.5059L46.8738 27.5821C46.8731 26.4034 46.7991 25.1494 46.9089 23.9783L60.7626 17.6755L64.8835 15.8197C65.9312 15.3363 66.9726 14.8022 68.0408 14.383C68.3054 14.279 68.595 14.1719 68.8782 14.2051ZM73.6402 20.5254C74.3182 22.0996 75.098 23.6282 75.8173 25.1796C77.0915 27.9297 78.3469 30.6908 79.5836 33.463C80.1256 34.6641 80.7189 35.8457 81.2148 37.0717L72.235 41.3664C69.686 42.6107 67.1213 43.8114 64.5409 44.9684L64.4076 44.993C64.3116 44.9015 64.2607 44.7942 64.2025 44.6717C63.8613 43.9529 63.5914 43.1815 63.2667 42.45C62.3168 40.3445 61.3803 38.2312 60.4572 36.1102C59.6705 34.3289 58.8956 32.5409 58.1325 30.7462C57.7751 29.9104 57.3924 29.0814 57.0665 28.2291C57.7008 27.9952 58.3188 27.6757 58.9353 27.3866L62.0023 25.9495L69.3505 22.535C70.7804 21.8667 72.1998 21.1638 73.6402 20.5254ZM81.8921 37.9913C83.953 39.7081 86.0807 41.0307 86.5192 44.1721C86.685 45.3595 86.6348 46.5893 86.6275 47.7879C86.0395 48.1484 85.4795 48.5833 84.911 48.983C84.4205 49.3279 83.8738 49.6437 83.4372 50.0746C83.4447 51.2116 83.4455 52.3486 83.4395 53.4856C83.4377 54.0336 83.3891 54.631 83.4397 55.1736C83.4502 55.286 83.4674 55.3701 83.5377 55.4557C83.6416 55.5818 83.8238 55.6441 83.9616 55.7036C84.8341 55.3284 85.6833 54.8349 86.5642 54.4992L86.7739 54.8384C86.0368 55.2957 85.2386 55.6359 84.4633 55.9992L81.3734 57.4577C77.2755 59.3943 73.1378 61.2543 69.0873 63.3172C69.084 63.0915 69.0464 62.7892 69.118 62.5788L69.1434 62.5572C69.9187 62.1748 70.6985 61.8047 71.4829 61.4469C71.9817 61.2214 72.5321 61.0323 73.0024 60.7387C73.1015 60.6768 73.1988 60.6123 73.246 60.4916C73.3964 60.1075 73.3979 54.9586 73.26 54.5709C73.2268 54.4778 73.1633 54.3929 73.081 54.3571C72.6028 54.1485 69.682 55.6509 69.0883 55.937C69.1069 52.5925 69.0367 50.5409 66.8565 48.0284C66.2565 47.3371 65.6184 46.6859 64.9843 46.036C66.4852 45.1906 68.0989 44.519 69.6469 43.7896L80.649 38.588C81.0258 38.4056 81.5035 38.0714 81.8921 37.9913ZM34.6387 20.6604C36.6726 21.2106 38.685 21.8621 40.7179 22.4144L40.7233 52.0182C40.7253 53.0061 40.8286 54.0459 40.7232 55.0253C40.7152 55.0994 40.7027 55.1512 40.6557 55.2058C40.6465 55.2164 40.6356 55.225 40.6256 55.2346C38.6076 54.6314 36.5296 54.1543 34.5366 53.4607L34.5292 31.4608L34.534 24.237C34.5357 23.0722 34.4735 21.8726 34.5451 20.712C34.6192 20.6569 34.5852 20.6647 34.6387 20.6604ZM49.3322 26.5389C51.6019 27.1314 53.8408 27.8831 56.0978 28.5363C57.5148 31.7468 58.8632 34.9987 60.3058 38.1935L62.1469 42.287C62.5257 43.1266 63.0057 44.0382 63.2616 44.9337L63.2188 44.9899L63.1382 44.9919C59.9392 44.1052 56.7448 43.1972 53.5551 42.2678C52.1064 41.8508 50.6564 41.3601 49.1969 41.0041C49.1544 38.1427 49.1839 35.2763 49.1836 32.414C49.1835 30.5961 49.1129 28.7346 49.2071 26.9207C49.2147 26.7742 49.2074 26.6671 49.2847 26.5494L49.3322 26.5389ZM17.0049 46.3957C19.0935 46.6991 20.8228 47.8247 22.1182 49.7255C23.3492 51.532 23.9999 53.9007 23.7489 56.1861C23.568 57.8336 22.8156 59.5163 21.6445 60.5306C20.837 61.2301 19.5298 61.8244 18.4973 61.6579C18.4723 61.6539 18.4476 61.6471 18.4227 61.6419C18.3616 61.6336 18.3006 61.6245 18.2396 61.6146C18.1786 61.6046 18.1178 61.5938 18.0571 61.5821C17.9964 61.5704 17.9359 61.5578 17.8754 61.5444C17.815 61.5311 17.7547 61.5168 17.6946 61.5017C17.6345 61.4866 17.5745 61.4707 17.5148 61.4538C17.455 61.437 17.3954 61.4194 17.3359 61.4009C17.2766 61.3824 17.2174 61.3631 17.1584 61.3429C17.0994 61.3227 17.0407 61.3017 16.9822 61.2799C16.9237 61.2581 16.8654 61.2354 16.8074 61.2119C16.7494 61.1884 16.6917 61.1641 16.6342 61.139C16.5767 61.1138 16.5195 61.0879 16.4625 61.0612C16.4056 61.0344 16.349 61.0068 16.2926 60.9785C16.2364 60.9501 16.1804 60.921 16.1246 60.8911C16.069 60.8611 16.0137 60.8303 15.9586 60.7988C15.9036 60.7674 15.8489 60.7351 15.7946 60.702C15.7403 60.669 15.6864 60.6351 15.6328 60.6005C15.5792 60.5659 15.526 60.5306 15.4733 60.4945C15.4205 60.4584 15.3681 60.4215 15.316 60.384C15.264 60.3464 15.2125 60.3081 15.1614 60.269C15.1102 60.2299 15.0594 60.1902 15.0091 60.1498C14.9589 60.1093 14.909 60.068 14.8596 60.0261C14.8102 59.9842 14.7613 59.9417 14.7129 59.8984C14.6644 59.8551 14.6164 59.8111 14.5689 59.7665C14.5214 59.7218 14.4743 59.6765 14.4278 59.6305C14.3813 59.5846 14.3353 59.538 14.2898 59.4907C14.2443 59.4434 14.1994 59.3955 14.1549 59.3469C14.1105 59.2983 14.0665 59.2491 14.0231 59.1994C13.9798 59.1496 13.9369 59.0992 13.8946 59.0482C13.8524 58.9971 13.8107 58.9455 13.7695 58.8933C13.7284 58.8411 13.6878 58.7883 13.6477 58.735C13.6078 58.6817 13.5684 58.6278 13.5295 58.5733C13.4907 58.5188 13.4525 58.4638 13.4148 58.4083C12.1616 56.5769 11.4354 54.0828 11.697 51.7525C11.8765 50.154 12.5395 48.6192 13.6696 47.6242C14.4945 46.898 15.8848 46.2501 16.9444 46.3822C16.9647 46.3847 16.9847 46.3912 17.0049 46.3957ZM41.8561 22.7172C43.2176 23.1303 44.5837 23.5224 45.9544 23.8933L45.9316 43.6046L45.9501 51.298C45.9585 52.8832 45.994 54.4829 45.9644 56.0672C45.9605 56.2721 45.9615 56.4715 45.8916 56.6635C45.7995 56.6973 45.838 56.6996 45.7777 56.6865C44.426 56.2466 43.0445 55.9022 41.6721 55.5564C41.7761 54.8989 41.7075 54.1222 41.7065 53.4478L41.6624 31.5468L41.6636 26.1761C41.662 25.174 41.6297 24.1609 41.6581 23.1599C41.6624 23.0112 41.6433 22.8355 41.7315 22.7236L41.8561 22.7172ZM54.192 56.8296C56.1954 57.1054 57.8473 58.2729 59.0853 60.0699C60.3228 61.8664 61.1043 64.318 60.8528 66.6173C60.6783 68.2115 60.0945 69.8481 58.9451 70.8456C58.071 71.6041 56.862 72.0249 55.7666 71.8804C55.7615 71.8797 55.7565 71.878 55.7514 71.8767C53.8779 71.6711 52.1788 70.4399 50.9924 68.8125C49.6031 66.9066 48.8257 64.4518 49.0309 61.9644C49.1539 60.474 49.6907 59.0191 50.7229 58.0591C51.7197 57.1323 52.8887 56.709 54.1737 56.8264C54.1798 56.827 54.1859 56.8285 54.192 56.8296ZM26.4178 52.3712C28.435 52.8503 30.4407 53.5019 32.4429 54.0654L43.3951 57.1548C45.2264 57.6828 47.0602 58.199 48.8966 58.7033C48.6323 59.396 48.1834 60.4601 48.209 61.2187C48.1704 61.4478 48.1357 61.6786 48.0862 61.905C47.2625 61.5644 46.3489 61.3695 45.4974 61.1265L40.7489 59.7674C35.9912 58.3503 31.223 56.9801 26.4445 55.657C26.5526 54.893 26.3911 52.3986 26.4178 52.3712ZM87.9566 55.555C87.9869 56.6456 88.0142 57.7453 87.9778 58.8359C86.6807 59.4148 85.4027 60.0472 84.115 60.6523C81.5949 61.8158 79.0831 63.0019 76.5795 64.2107L69.0908 67.74C68.9962 66.6746 69.0494 65.5593 69.0521 64.4868L80.8956 58.8902C83.2382 57.748 85.5919 56.6362 87.9566 55.555ZM2.24998 45.652C5.41429 46.455 8.56667 47.3785 11.711 48.2789C11.4377 48.893 10.9592 49.9081 10.909 50.5974C10.8618 50.7983 10.828 51.0551 10.7254 51.2275C9.10792 50.8058 7.50599 50.2947 5.89254 49.8511C4.62244 49.5019 3.30412 49.226 2.05483 48.7983C2.05397 48.3173 1.95167 45.918 2.12876 45.6404L2.24998 45.652ZM63.4235 62.896C64.9174 63.3861 66.5948 64.0432 68.1048 64.3922C68.1493 65.1649 68.2243 66.9798 68.0964 67.6838C66.5591 67.234 65.0347 66.6614 63.5127 66.1453C63.5132 65.5788 63.5197 65.0102 63.494 64.4444C63.472 63.9614 63.3507 63.3653 63.4235 62.896ZM72.4778 55.476C72.4884 56.9128 72.4891 58.3496 72.4798 59.7864C72.0639 59.9888 69.3316 61.3896 69.1309 61.3792C69.083 59.9315 69.0959 58.4792 69.0999 57.0306C70.2157 56.5458 71.4184 56.1013 72.4778 55.476ZM17.5137 44.9236C19.9576 45.1832 22.0546 46.3694 23.6316 48.5337C24.9243 50.3077 25.7097 52.7282 25.523 55.0504C25.3636 57.0351 24.6873 58.558 23.4641 59.9561L23.4171 59.9687C23.5838 59.5732 23.8282 59.2328 23.9954 58.8362C24.8913 56.6347 24.9609 54.181 24.2352 51.8991C23.4337 49.3786 21.7494 47.1967 19.6045 46.0736C18.4554 45.4719 17.3435 45.2472 16.0849 45.3942C15.7102 45.438 15.3236 45.5442 14.9493 45.5584C15.7719 45.2533 16.6366 44.9106 17.5137 44.9236ZM55.2201 55.5577C55.2844 55.5658 55.3485 55.5749 55.4126 55.5848C55.4767 55.5947 55.5407 55.6056 55.6045 55.6173C55.6684 55.6291 55.7321 55.6417 55.7956 55.6553C55.8592 55.6688 55.9226 55.6833 55.9859 55.6986C56.0491 55.7139 56.1122 55.7301 56.1752 55.7472C56.238 55.7642 56.3007 55.7822 56.3633 55.8011C56.4258 55.8199 56.4881 55.8396 56.5502 55.8603C56.6123 55.8808 56.6741 55.9023 56.7358 55.9246C56.7974 55.947 56.8587 55.9702 56.9199 55.9942C56.981 56.0182 57.0419 56.0431 57.1025 56.0689C57.1631 56.0947 57.2234 56.1213 57.2834 56.1487C57.3434 56.1762 57.4031 56.2045 57.4625 56.2336C57.5219 56.2627 57.581 56.2927 57.6397 56.3234C57.6985 56.3542 57.7569 56.3858 57.815 56.4183C57.8731 56.4507 57.9308 56.4839 57.9881 56.518C58.0455 56.552 58.1025 56.5868 58.159 56.6225C58.2157 56.6582 58.2719 56.6946 58.3277 56.7318C58.3835 56.769 58.4389 56.807 58.4939 56.8458C58.5489 56.8846 58.6035 56.9241 58.6576 56.9644C58.7117 57.0047 58.7654 57.0458 58.8187 57.0877C58.8719 57.1295 58.9247 57.172 58.9771 57.2153C59.0294 57.2586 59.0813 57.3026 59.1326 57.3473C59.184 57.3921 59.2349 57.4376 59.2853 57.4837C59.3358 57.5299 59.3856 57.5768 59.435 57.6245C59.4844 57.672 59.5333 57.7203 59.5816 57.7692C59.63 57.8182 59.6778 57.8678 59.725 57.9181C59.7723 57.9684 59.8191 58.0193 59.8653 58.0709C59.9114 58.1225 59.957 58.1748 60.002 58.2277C60.0471 58.2806 60.0916 58.3341 60.1355 58.3882C60.1794 58.4423 60.2227 58.4971 60.2654 58.5524C60.3081 58.6078 60.3501 58.6637 60.3916 58.7203C60.4331 58.7768 60.474 58.8339 60.5143 58.8916C61.9888 60.9659 62.7257 63.4223 62.4634 66.0954C62.3399 67.3541 61.9655 68.3559 61.3293 69.3831C61.1875 69.6121 61.0301 69.9011 60.8404 70.0793C60.8271 70.0917 60.8123 70.102 60.7983 70.1134C60.8137 70.0156 60.833 69.9705 60.8738 69.8851C61.8975 67.5573 62.0317 65.007 61.3076 62.534C60.5811 60.0537 59.0318 57.7718 56.9528 56.589C55.998 56.0458 54.987 55.8049 53.9314 55.6881C54.3481 55.6157 54.7991 55.5004 55.2201 55.5577ZM86.5755 49.0462C86.686 50.4627 86.5784 51.9171 86.6034 53.3405C85.8703 53.6898 85.1443 54.0457 84.3898 54.3314C84.2537 53.3276 84.3431 51.7407 84.3451 50.6831C85.0739 50.1357 85.8745 49.6338 86.5755 49.0462Z" stroke="#4D4D4D" stroke-opacity="0.5" stroke-width="0.2" mask="url(#path-1-outside-1_409_542)"/>
<path d="M54.2094 60.3086C53.5183 60.392 52.9336 60.6232 52.4313 61.1968C51.8113 61.905 51.6134 62.8116 51.6159 63.7846C51.6192 64.9938 52.0922 66.1015 52.8448 66.9427C53.5753 67.7592 54.4439 68.2413 55.4732 68.2359C55.5518 68.2346 55.6301 68.2295 55.7082 68.2205C55.7863 68.2115 55.8639 68.1986 55.9411 68.1819C56.0182 68.1651 56.0945 68.1445 56.1701 68.1202C56.2456 68.0957 56.3201 68.0676 56.3934 68.0358C56.4669 68.004 56.5389 67.9686 56.6096 67.9296C56.6802 67.8906 56.7493 67.8481 56.8167 67.8023C56.8841 67.7564 56.9496 67.7072 57.0132 67.6547C57.0768 67.6023 57.1383 67.5468 57.1977 67.4882C57.7595 66.9304 58.0543 66.0966 58.0954 65.261C58.1585 63.9778 57.81 62.7706 57.0525 61.8127C56.2905 60.8493 55.3362 60.3683 54.2094 60.3086ZM54.8269 61.3308C55.6751 61.5851 56.3372 62.0548 56.7879 62.9319C57.1914 63.7172 57.355 64.6572 57.1445 65.5452C57.0104 66.1109 56.7231 66.6027 56.2702 66.8947C55.8087 67.1923 55.3108 67.234 54.7936 67.1904C53.8875 66.8409 53.2309 66.3117 52.7981 65.3151C52.4693 64.558 52.3715 63.679 52.6163 62.8708C52.795 62.2808 53.1453 61.8165 53.6462 61.5568C53.7384 61.51 53.8329 61.4701 53.9296 61.437C54.0263 61.4038 54.1244 61.3776 54.224 61.3586C54.3236 61.3396 54.4238 61.3277 54.5247 61.323C54.6256 61.3184 54.7264 61.321 54.8269 61.3308Z" stroke="#4D4D4D" stroke-opacity="0.5" stroke-width="0.2" mask="url(#path-1-outside-1_409_542)"/>
<path d="M54.941 63.04C54.7232 63.0195 54.4887 63.0081 54.2826 63.1033C54.0737 63.1998 53.9091 63.3768 53.8253 63.6167C53.707 63.9561 53.7408 64.3878 53.8664 64.7183C54.0528 65.2086 54.3677 65.4446 54.7853 65.6312C54.9436 65.6369 55.0992 65.6433 55.2527 65.591C55.5011 65.5061 55.7087 65.3181 55.8207 65.0499C55.9591 64.7185 55.9365 64.303 55.8144 63.9701C55.6399 63.4942 55.3411 63.2395 54.941 63.04Z" stroke="#4D4D4D" stroke-opacity="0.5" stroke-width="0.2" mask="url(#path-1-outside-1_409_542)"/>
<path d="M17.6631 49.958C17.0397 49.8274 16.2405 50.0186 15.6986 50.3862C15.0352 50.8361 14.6156 51.5757 14.4327 52.4204C14.169 53.639 14.4043 54.9324 14.9697 55.9971C15.55 57.0898 16.4674 57.8329 17.5532 58.133C18.2329 58.2547 19.0005 58.1443 19.6012 57.7464C20.2367 57.3253 20.6702 56.6225 20.8637 55.8216C21.1475 54.6474 20.9371 53.2907 20.4113 52.2434C19.768 50.9617 18.8894 50.3342 17.6631 49.958ZM17.5578 51.0412C18.4611 51.3413 19.1641 51.8678 19.6231 52.8266C20.0016 53.617 20.1765 54.6224 19.9356 55.4977C19.7828 56.0533 19.4907 56.5273 19.0315 56.8011C18.6383 57.0357 18.198 57.0915 17.7619 57.0381C16.8536 56.7534 16.1743 56.2727 15.7034 55.3154C15.3249 54.5458 15.1486 53.5563 15.3639 52.694C15.5114 52.1032 15.8315 51.5876 16.3164 51.3009C16.6989 51.0745 17.1324 51.0155 17.5578 51.0412Z" stroke="#4D4D4D" stroke-opacity="0.5" stroke-width="0.2" mask="url(#path-1-outside-1_409_542)"/>
<path d="M17.844 52.849C17.6365 52.838 17.4236 52.8136 17.2253 52.8997C16.9762 53.0078 16.7834 53.2071 16.6848 53.492C16.57 53.8241 16.5919 54.2379 16.7246 54.5592C16.9009 54.9856 17.1718 55.1776 17.5442 55.3396C17.7284 55.3459 17.9117 55.3546 18.0898 55.2917C18.1201 55.2811 18.1499 55.2688 18.1791 55.2547C18.2083 55.2406 18.2367 55.2248 18.2645 55.2072C18.2923 55.1898 18.3192 55.1707 18.3451 55.15C18.3711 55.1293 18.3962 55.1071 18.4202 55.0835C18.4441 55.0598 18.467 55.0348 18.4887 55.0084C18.5104 54.9821 18.5308 54.9545 18.55 54.9257C18.5691 54.8969 18.5869 54.8671 18.6034 54.8362C18.6198 54.8053 18.6348 54.7734 18.6483 54.7407C18.7871 54.4019 18.7729 53.9938 18.6451 53.6536C18.482 53.2197 18.2175 53.0142 17.844 52.849Z" stroke="#4D4D4D" stroke-opacity="0.5" stroke-width="0.2" mask="url(#path-1-outside-1_409_542)"/>
<path d="M50.3593 45.2544C50.2597 45.2384 50.1613 45.2322 50.0657 45.2741C49.9355 45.3311 49.838 45.4347 49.786 45.5835C49.7324 45.737 49.7273 45.9366 49.8009 46.0826C49.8783 46.2362 50.0192 46.3114 50.1579 46.3727C50.5764 46.5574 51.0531 46.6367 51.4897 46.7601C52.1937 46.9628 52.8956 47.1749 53.5953 47.3964C53.6937 47.4029 53.7729 47.408 53.8699 47.3803C54.0025 47.3425 54.1944 47.1436 54.2491 47.0013C54.2863 46.9048 54.2709 46.8044 54.2267 46.7151C54.1051 46.4696 53.7873 46.2998 53.5656 46.201C53.1244 46.0045 52.6285 45.9239 52.1683 45.799C51.562 45.6346 50.9606 45.4407 50.3593 45.2544Z" stroke="#4D4D4D" stroke-opacity="0.5" stroke-width="0.2" mask="url(#path-1-outside-1_409_542)"/>
</svg>
