<svg width="72" height="72" viewBox="0 0 72 72" fill="none" xmlns="http://www.w3.org/2000/svg">
<path d="M56.8371 0C57.1449 0.0474223 57.4449 0.112902 57.6973 0.360592C57.8302 0.491095 57.9365 0.667013 58.0179 0.851869C58.2905 1.47064 58.4986 2.18143 58.7314 2.82929L68.9946 31.8634C69.6948 33.8256 70.3865 35.7925 71.0696 37.7642C71.344 38.5459 71.9156 39.6891 71.9901 40.5146C72.014 40.7787 72.0031 41.2152 71.8621 41.4265C71.6625 41.7256 71.3314 41.9465 71.0547 42.1114C70.54 42.418 69.99 42.6445 69.4634 42.9189L66.1729 44.6669L55.9385 50.1432L19.2931 69.9951C18.2921 70.5319 16.1922 71.8745 15.2021 72C14.94 71.9464 14.6987 71.8699 14.4653 71.7001C14.1297 71.4559 13.9517 71.0475 13.7901 70.6207C13.423 69.6515 13.1162 68.6383 12.7761 67.653L10.8087 62.0487L1.27436 35.0392C0.937769 34.0936 0.197565 32.3934 0.0304773 31.4697C-0.0262455 31.1562 -0.00998007 30.8577 0.132084 30.5838C0.271949 30.3143 0.452749 30.1692 0.679127 30.0353C2.52871 28.9416 4.44474 28.0016 6.32167 26.9824C9.97499 24.9728 13.6379 22.9916 17.3104 21.0387L40.6283 8.52243L51.9801 2.45265C52.7778 2.0304 53.5735 1.60184 54.367 1.16695C55.1603 0.731489 55.9826 0.199903 56.8371 0ZM56.9201 1.56275C55.7357 2.12589 54.5741 2.78825 53.4091 3.41295L4.41945 29.671C3.38421 30.2269 2.29956 30.7405 1.29781 31.3832C1.89363 32.9365 2.43226 34.5333 2.98453 36.1122L5.17703 42.3394L11.4242 60.0023L13.8746 67.0704C14.2063 68.0298 14.6883 69.6883 15.1281 70.4954C20.9553 67.4149 26.7649 64.282 32.5567 61.0969L53.1908 49.9341C57.2039 47.748 61.2269 45.5913 65.2599 43.4642C67.0769 42.504 68.8742 41.4507 70.7171 40.5739C69.4085 36.7313 57.0522 1.70064 56.9201 1.56275Z" fill="#4D4D4D" fill-opacity="0.5"/>
<path d="M50.4894 9.57721C50.6722 9.60876 50.8543 9.64451 51.0081 9.78249C51.36 10.0986 51.5481 10.6238 51.7799 11.0684C51.7985 11.1047 51.8176 11.1407 51.8372 11.1763C51.8567 11.2118 51.8767 11.247 51.8971 11.2819C51.9175 11.3166 51.9383 11.351 51.9595 11.3851C51.9808 11.4191 52.0024 11.4526 52.0245 11.4858C52.0466 11.519 52.069 11.5517 52.0919 11.584C52.1147 11.6163 52.138 11.6481 52.1617 11.6795C52.1853 11.7108 52.2093 11.7418 52.2337 11.7722C52.2581 11.8027 52.2829 11.8327 52.3081 11.8621C52.3332 11.8916 52.3587 11.9206 52.3845 11.9491C52.4104 11.9776 52.4365 12.0056 52.4631 12.033C52.4896 12.0605 52.5164 12.0875 52.5436 12.1138C52.5708 12.1403 52.5983 12.1662 52.6261 12.1915C52.6539 12.2169 52.682 12.2417 52.7105 12.266C52.7389 12.2902 52.7676 12.3139 52.7966 12.3371C52.8256 12.3603 52.8549 12.3828 52.8845 12.4049C52.914 12.4269 52.9439 12.4483 52.9739 12.4691C53.004 12.49 53.0344 12.5102 53.0649 12.5299C53.0955 12.5496 53.1263 12.5687 53.1573 12.5872C53.1884 12.6056 53.2197 12.6234 53.2512 12.6407C53.2826 12.658 53.3143 12.6746 53.3462 12.6907C53.3781 12.7067 53.4101 12.722 53.4424 12.7368C53.4747 12.7516 53.5071 12.7657 53.5397 12.7792C53.5723 12.7928 53.6051 12.8057 53.638 12.8179C53.6709 12.8301 53.704 12.8417 53.7372 12.8526C53.7705 12.8636 53.8038 12.8739 53.8373 12.8835C53.8707 12.8932 53.9043 12.9022 53.9379 12.9105C53.9716 12.9189 54.0054 12.9266 54.0393 12.9336C54.0732 12.9407 54.1071 12.9471 54.1412 12.9528C54.1752 12.9585 54.2092 12.9635 54.2434 12.9679C54.2776 12.9723 54.3117 12.976 54.346 12.9791C54.3802 12.9822 54.4145 12.9845 54.4488 12.9862C54.4831 12.988 54.5174 12.9891 54.5517 12.9894C55.1872 12.9913 55.743 12.5862 56.365 12.5033C56.5853 12.4739 56.7878 12.4814 56.9884 12.6142C57.2391 12.7801 57.3759 13.0871 57.5012 13.3929C57.8609 14.2701 58.1287 15.2225 58.452 16.1233C59.3429 18.5789 60.2187 21.0429 61.0795 23.5155L62.8452 28.5011C63.2291 29.5775 63.6638 30.6669 63.9645 31.7842C64.0303 32.0288 64.1122 32.3503 64.1053 32.6087C64.07 33.9294 62.0659 34.199 61.4453 35.5766C60.5671 37.5261 61.9958 38.9962 61.3789 40.503C61.1788 40.9921 60.7685 41.4125 60.3812 41.6532C59.6433 42.1118 58.8494 42.4633 58.0909 42.8688L38.5668 53.4631L26.366 60.0467L23.5277 61.5439C22.8308 61.9201 22.138 62.3457 21.4142 62.6326C21.2368 62.6407 21.0829 62.6388 20.9214 62.5364C20.2624 62.1187 19.9419 60.5614 19.0019 59.8767C18.353 59.4038 17.5799 58.9935 16.8279 59.319C16.5193 59.4526 16.2266 59.6517 15.9086 59.7496C15.5988 59.8451 15.3007 59.8143 15.0271 59.5986C14.7545 59.3836 14.5713 59.0458 14.4264 58.6918C13.8627 57.3145 13.4286 55.8216 12.9485 54.3938L10.4969 47.2035L8.81464 42.3713C8.43133 41.2841 7.95689 40.1857 7.74332 39.0239C7.9911 38.1984 8.64136 37.8591 9.16555 37.3537C9.2454 37.2782 9.32254 37.1985 9.39699 37.1147C9.47148 37.0309 9.54298 36.9432 9.6115 36.8517C9.68006 36.7602 9.74539 36.6652 9.80749 36.5667C9.86964 36.4681 9.92834 36.3665 9.9836 36.2616C10.4499 35.3588 10.6746 34.1526 10.5042 33.0875C10.43 32.6239 10.2945 32.1791 10.2208 31.7142L10.2121 31.6571C10.2599 31.4953 10.3053 31.3109 10.3871 31.1713C10.5717 30.856 10.8858 30.6988 11.1612 30.546C12.5849 29.7559 14.044 29.0535 15.4729 28.2738L47.4699 11.0901C48.3874 10.6013 49.527 9.77894 50.4894 9.57721ZM49.08 15.1261C45.9792 16.9486 42.5887 17.9028 39.1703 17.2281L28.098 23.1652L24.8885 24.867C24.2279 25.2105 23.5177 25.5099 22.8936 25.9506C22.1366 26.4852 21.6083 27.554 20.9947 28.3135C19.2127 30.5189 16.5546 32.7788 14.175 33.7654C14.0343 36.803 13.3892 38.5504 11.7969 40.8025C12.9508 43.7651 13.9654 46.8458 15.0213 49.8676L16.096 52.9315C16.3066 53.5266 16.5554 54.1337 16.7176 54.7514C18.7658 54.6807 20.3487 55.182 21.8665 56.9956C21.9264 57.0664 21.9851 57.1387 22.0428 57.2124C22.3289 57.0788 22.6171 56.9499 22.8981 56.7995C24.1634 56.1552 25.6862 55.2409 26.9776 54.8024C28.7765 54.1917 30.6429 54.499 32.417 55.0743L43.5418 49.0879C44.4452 48.5953 45.351 48.1099 46.2593 47.6317C46.8666 47.3141 47.5281 47.0298 48.0995 46.6194C48.8947 46.0483 49.6742 44.6361 50.3484 43.8017C52.4429 41.2095 55.1509 39.1291 57.9045 37.8664C57.6418 35.9971 57.8933 34.0224 58.7619 32.4523C59.1228 31.8 59.5423 31.3116 60.022 30.8045C58.8816 27.4394 57.6297 24.1394 56.4692 20.7862C56.0744 19.6454 55.6066 18.4852 55.2774 17.3151C53.4061 17.3825 51.8445 17.0403 50.1556 15.9561C49.8748 15.776 49.3311 15.1926 49.08 15.1261ZM50.3464 11.1651C48.2166 12.3624 46.0759 13.5276 43.9242 14.661L41.6997 15.848C41.3171 16.0564 40.9434 16.298 40.5569 16.4932C42.8722 16.6802 45.201 15.9677 47.3564 14.9625C47.9824 14.6705 48.5906 14.3204 49.2155 14.0279C50.7194 15.3658 52.3136 16.1923 54.1679 16.3312C54.6366 16.3663 55.1586 16.1529 55.6101 16.2798C55.6346 16.2866 55.6636 16.2832 55.6828 16.3033C55.8206 16.448 55.9733 16.9005 56.0503 17.1043C56.4083 18.052 56.7198 19.0322 57.0597 19.991L59.3319 26.388L60.3952 29.4107C60.5939 29.9777 60.8517 30.5924 60.9723 31.1931C59.7869 32.1683 58.9957 33.4799 58.701 35.2433C58.5202 36.3254 58.6048 37.412 58.7218 38.4963C58.4144 38.7178 58.0561 38.8738 57.7301 39.0497C56.9871 39.4507 56.2195 39.8433 55.5157 40.3465C53.5834 41.6397 51.685 43.3755 50.2626 45.4834C51.0793 44.9673 51.9442 44.5427 52.7805 44.078C55.2368 42.7134 57.7236 41.4403 60.1625 40.0258L60.3643 39.5276C59.9242 38.096 59.7238 36.6661 60.2405 35.2106C60.7421 33.798 61.7594 32.98 62.8698 32.4424C62.4743 31.2009 62.0194 29.9848 61.5872 28.7629L59.772 23.5879C58.6496 20.3947 57.5839 17.1407 56.3689 14.0034C55.0399 14.5503 53.7814 14.6577 52.5043 13.8439C52.0494 13.5541 51.6292 13.1882 51.2772 12.7215C51.1694 12.5785 51.0572 12.4294 50.9655 12.2692C50.8242 12.0227 50.5443 11.28 50.3464 11.1651ZM20.7193 27.1197C19.0768 28.05 17.4048 28.904 15.7474 29.7911C14.3667 30.5301 13.0048 31.3164 11.5993 31.9791C11.8876 33.8808 11.8163 35.5882 10.9239 37.2257C10.4449 38.1048 9.78832 38.7598 9.11652 39.3909C9.79042 41.1319 10.3676 42.9556 10.9825 44.7316C12.5297 49.2003 14.0272 53.7161 15.6601 58.1349C16.6472 57.5403 17.6025 57.4762 18.6399 57.9408C19.8186 58.4686 20.7978 59.6096 21.4172 60.9652C23.8035 59.8157 26.1309 58.4351 28.479 57.1669C29.3572 56.7047 30.2605 56.2708 31.1091 55.7269C30.3898 55.5902 29.6869 55.4919 28.9569 55.5306C26.4412 55.664 24.1431 57.3674 21.8344 58.4483C20.601 56.9403 19.2306 55.6724 17.4283 55.7197C17.0163 55.7304 16.622 55.8389 16.2181 55.9279C15.9028 55.1622 15.6538 54.3459 15.3907 53.5495C15.0551 52.5204 14.7066 51.4983 14.3451 50.4831C13.1919 47.2255 11.875 43.8377 10.8921 40.5115C12.4011 38.4924 13.445 36.6068 13.3694 33.7079C13.3631 33.5169 13.3528 33.3263 13.3385 33.1361C13.3509 33.1275 13.3632 33.1188 13.3756 33.1104C14.012 32.6826 14.7325 32.3983 15.3894 32.012C17.0226 31.0517 18.4565 29.8303 19.8262 28.359C20.0103 28.1613 20.67 27.4433 20.7361 27.1876C20.7392 27.1754 20.7398 27.1624 20.7417 27.1498L20.7193 27.1197Z" fill="#4D4D4D" fill-opacity="0.5"/>
<path d="M52.3676 23.7625C53.1182 23.7533 53.8803 24.021 54.4545 24.652C55.0346 25.2898 55.3758 26.302 55.4161 27.2625C55.4576 28.2518 55.1993 29.214 54.6642 29.9426C54.1851 30.5951 53.4673 31.0634 52.7568 31.0944C51.9709 31.1086 51.2367 30.8979 50.6317 30.2361C50.0359 29.5844 49.6971 28.6823 49.6496 27.6923C49.6029 26.718 49.8249 25.7071 50.3469 24.9719C50.3791 24.9273 50.4122 24.8838 50.446 24.8413C50.4799 24.7988 50.5146 24.7573 50.55 24.7169C50.5855 24.6765 50.6218 24.6372 50.6587 24.599C50.6958 24.5609 50.7335 24.5238 50.7719 24.488C50.8103 24.4521 50.8494 24.4174 50.8892 24.384C50.9289 24.3505 50.9693 24.3183 51.0102 24.2872C51.0513 24.2563 51.0928 24.2266 51.1349 24.1981C51.1771 24.1696 51.2197 24.1425 51.2629 24.1166C51.3061 24.0908 51.3498 24.0663 51.3939 24.0431C51.438 24.0199 51.4826 23.9981 51.5276 23.9777C51.5725 23.9572 51.6178 23.9382 51.6635 23.9205C51.7092 23.9029 51.7553 23.8866 51.8016 23.8718C51.8479 23.8569 51.8945 23.8435 51.9413 23.8314C51.9882 23.8195 52.0352 23.8089 52.0825 23.7998C52.1297 23.7907 52.1771 23.783 52.2247 23.7768C52.2722 23.7706 52.3199 23.7658 52.3676 23.7625ZM52.4194 24.761C51.8028 24.8668 51.2175 25.1959 50.8332 25.8337C50.5087 26.3722 50.3242 27.0929 50.3994 27.7691C50.4801 28.495 50.8211 29.1512 51.288 29.5787C51.6913 29.9478 52.1252 30.1096 52.6211 30.1237C53.2413 30.0131 53.8046 29.6997 54.1925 29.0533C54.2137 29.018 54.2341 28.982 54.2538 28.9454C54.2736 28.9088 54.2926 28.8716 54.3108 28.8338C54.3291 28.7959 54.3466 28.7576 54.3634 28.7188C54.3801 28.6799 54.3961 28.6405 54.4113 28.6006C54.4265 28.5606 54.4409 28.5203 54.4545 28.4795C54.4681 28.4387 54.4809 28.3975 54.4929 28.3559C54.5049 28.3142 54.516 28.2723 54.5264 28.23C54.5367 28.1876 54.5462 28.145 54.5548 28.1022C54.5634 28.0593 54.5712 28.0161 54.5781 27.9727C54.5851 27.9293 54.5912 27.8858 54.5964 27.842C54.6016 27.7982 54.6059 27.7543 54.6094 27.7102C54.6129 27.6662 54.6155 27.6221 54.6172 27.5778C54.6189 27.5336 54.6198 27.4894 54.6198 27.4451C54.6198 27.4009 54.6189 27.3566 54.6171 27.3124C54.6154 27.2682 54.6128 27.2241 54.6092 27.18C54.6058 27.136 54.6014 27.0921 54.5962 27.0483C54.5086 26.3282 54.2065 25.6602 53.7338 25.2349C53.4038 24.9378 52.832 24.674 52.4194 24.761Z" fill="#4D4D4D" fill-opacity="0.5"/>
<path d="M19.327 41.1749C20.0123 41.1055 20.6443 41.2541 21.2299 41.7253C21.2714 41.7591 21.3121 41.7942 21.3522 41.8305C21.3923 41.8668 21.4316 41.9044 21.4702 41.9432C21.5088 41.982 21.5466 42.022 21.5836 42.0631C21.6207 42.1043 21.6569 42.1466 21.6923 42.1901C21.7276 42.2335 21.7621 42.278 21.7957 42.3236C21.8293 42.3691 21.862 42.4157 21.8938 42.4634C21.9255 42.511 21.9564 42.5596 21.9863 42.6091C22.0161 42.6587 22.045 42.7091 22.0728 42.7605C22.1007 42.8119 22.1276 42.8641 22.1534 42.9171C22.1792 42.9702 22.204 43.024 22.2277 43.0786C22.2514 43.1332 22.274 43.1885 22.2956 43.2445C22.3171 43.3005 22.3375 43.3571 22.3568 43.4144C22.3761 43.4717 22.3943 43.5296 22.4113 43.588C22.4284 43.6464 22.4443 43.7054 22.459 43.7648C22.4737 43.8242 22.4872 43.884 22.4995 43.9442C22.5119 44.0045 22.523 44.0651 22.533 44.1261C22.5432 44.1867 22.5522 44.2476 22.5599 44.3087C22.5677 44.3698 22.5743 44.4312 22.5797 44.4928C22.5851 44.5543 22.5892 44.616 22.5922 44.6778C22.5952 44.7397 22.5969 44.8015 22.5975 44.8634C22.598 44.9254 22.5973 44.9873 22.5954 45.0492C22.5935 45.1111 22.5905 45.1728 22.5862 45.2345C22.5819 45.2962 22.5764 45.3577 22.5696 45.4191C22.5629 45.4804 22.555 45.5415 22.5459 45.6024C22.5368 45.6632 22.5266 45.7238 22.5151 45.784C22.5036 45.8442 22.4909 45.9041 22.4771 45.9635C22.4633 46.0229 22.4483 46.0819 22.4322 46.1403C22.4161 46.1988 22.3988 46.2568 22.3804 46.3143C22.362 46.3716 22.3425 46.4285 22.3219 46.4847C22.3013 46.5409 22.2796 46.5964 22.2568 46.6513C22.234 46.7062 22.2101 46.7603 22.1852 46.8136C22.1603 46.867 22.1343 46.9196 22.1074 46.9713C21.6048 47.9248 20.8407 48.4204 19.9685 48.6384C19.921 48.6453 19.8734 48.6507 19.8258 48.6546C19.778 48.6586 19.7303 48.6612 19.6825 48.6624C19.6347 48.6635 19.5869 48.6632 19.5391 48.6615C19.4914 48.6598 19.4436 48.6566 19.3959 48.652C19.3482 48.6474 19.3007 48.6414 19.2533 48.634C19.2059 48.6265 19.1586 48.6177 19.1115 48.6075C19.0644 48.5972 19.0175 48.5855 18.9708 48.5725C18.9241 48.5594 18.8777 48.5449 18.8316 48.5291C18.7855 48.5132 18.7397 48.496 18.6942 48.4774C18.6487 48.4588 18.6036 48.4389 18.5589 48.4176C18.5142 48.3963 18.4699 48.3737 18.426 48.3498C18.3821 48.3258 18.3387 48.3006 18.2958 48.2741C18.2529 48.2475 18.2105 48.2197 18.1686 48.1906C18.1268 48.1616 18.0855 48.1313 18.0447 48.0997C18.004 48.0681 17.9639 48.0354 17.9244 48.0014C17.8849 47.9675 17.8461 47.9324 17.8079 47.8961C17.7683 47.8592 17.7294 47.821 17.6914 47.7817C17.6533 47.7424 17.616 47.7018 17.5795 47.6601C17.5431 47.6185 17.5075 47.5757 17.4727 47.5317C17.438 47.4878 17.4041 47.4428 17.3711 47.3967C17.3381 47.3506 17.3061 47.3035 17.2749 47.2554C17.2438 47.2073 17.2137 47.1583 17.1845 47.1083C17.1553 47.0583 17.1272 47.0074 17.1 46.9556C17.0729 46.9038 17.0468 46.8513 17.0217 46.7979C16.9966 46.7444 16.9727 46.6902 16.9498 46.6353C16.9269 46.5804 16.905 46.5248 16.8843 46.4685C16.8636 46.4121 16.844 46.3552 16.8256 46.2977C16.8071 46.2401 16.7898 46.182 16.7736 46.1234C16.7575 46.0647 16.7426 46.0056 16.7287 45.946C16.7149 45.8864 16.7023 45.8264 16.6909 45.7661C16.6795 45.7057 16.6693 45.645 16.6602 45.584C16.6513 45.523 16.6435 45.4617 16.6369 45.4002C16.63 45.3395 16.6243 45.2785 16.6197 45.2174C16.6151 45.1563 16.6118 45.0951 16.6097 45.0338C16.6076 44.9726 16.6066 44.9113 16.6069 44.8499C16.6071 44.7886 16.6086 44.7272 16.6113 44.666C16.6139 44.6047 16.6178 44.5435 16.6228 44.4825C16.6278 44.4215 16.6341 44.3607 16.6415 44.3C16.6489 44.2394 16.6575 44.179 16.6673 44.1189C16.6771 44.0588 16.6881 43.999 16.7002 43.9396C16.7123 43.8802 16.7256 43.8212 16.7401 43.7626C16.7545 43.704 16.7701 43.6459 16.7868 43.5883C16.8035 43.5307 16.8214 43.4736 16.8403 43.417C16.8592 43.3605 16.8793 43.3047 16.9004 43.2494C16.9215 43.1941 16.9437 43.1395 16.967 43.0856C16.9903 43.0317 17.0146 42.9786 17.0399 42.9262C17.0652 42.8739 17.0916 42.8223 17.119 42.7715C17.1463 42.7208 17.1747 42.671 17.204 42.622C17.7298 41.7332 18.4776 41.3262 19.327 41.1749ZM19.4958 42.1809C18.8762 42.2738 18.2626 42.6059 17.8736 43.242C17.5385 43.7898 17.3633 44.5049 17.4296 45.1958C17.4341 45.2414 17.4395 45.2868 17.4458 45.3321C17.4521 45.3773 17.4593 45.4223 17.4674 45.467C17.4755 45.5118 17.4845 45.5563 17.4943 45.6005C17.5042 45.6447 17.5149 45.6886 17.5265 45.7321C17.5382 45.7757 17.5506 45.8188 17.564 45.8615C17.5773 45.9043 17.5915 45.9466 17.6065 45.9884C17.6215 46.0303 17.6374 46.0716 17.654 46.1124C17.6707 46.1533 17.6881 46.1936 17.7064 46.2333C17.7247 46.273 17.7437 46.3122 17.7636 46.3507C17.7834 46.3892 17.804 46.4271 17.8254 46.4643C17.8467 46.5015 17.8687 46.5381 17.8915 46.5739C17.9144 46.6097 17.9378 46.6448 17.962 46.6791C17.9862 46.7134 18.0111 46.747 18.0366 46.7797C18.0621 46.8125 18.0883 46.8444 18.1151 46.8755C18.1419 46.9066 18.1693 46.9369 18.1973 46.9662C18.2253 46.9956 18.2539 47.024 18.283 47.0516C18.7282 47.4691 19.236 47.6378 19.7866 47.6384C20.4552 47.4608 21.0497 47.1358 21.4415 46.3924C21.4612 46.3555 21.4801 46.318 21.4983 46.28C21.5165 46.2418 21.5339 46.2032 21.5505 46.1641C21.5671 46.1248 21.583 46.0851 21.598 46.0449C21.613 46.0047 21.6272 45.964 21.6407 45.9229C21.6541 45.8818 21.6667 45.8403 21.6784 45.7984C21.6901 45.7565 21.701 45.7142 21.7111 45.6716C21.7211 45.629 21.7304 45.5861 21.7387 45.5429C21.747 45.4997 21.7545 45.4562 21.761 45.4126C21.7676 45.3689 21.7734 45.3251 21.7782 45.281C21.783 45.237 21.787 45.1928 21.7901 45.1486C21.7932 45.1043 21.7953 45.0599 21.7966 45.0155C21.7979 44.9711 21.7983 44.9266 21.7979 44.8822C21.7974 44.8377 21.796 44.7933 21.7937 44.749C21.7915 44.7046 21.7883 44.6603 21.7843 44.6162C21.7802 44.572 21.7753 44.528 21.7695 44.4841C21.7637 44.4403 21.757 44.3967 21.7495 44.3532C21.7418 44.3081 21.7333 44.2633 21.7239 44.2188C21.7145 44.1743 21.7042 44.1301 21.6931 44.0862C21.6819 44.0423 21.6698 43.9988 21.6569 43.9557C21.6439 43.9126 21.6301 43.8699 21.6155 43.8277C21.6009 43.7854 21.5854 43.7437 21.5691 43.7025C21.5527 43.6612 21.5356 43.6205 21.5177 43.5804C21.4997 43.5402 21.481 43.5006 21.4614 43.4617C21.4419 43.4227 21.4216 43.3844 21.4005 43.3468C21.3794 43.3091 21.3576 43.2721 21.3351 43.2359C21.3125 43.1996 21.2892 43.1641 21.2653 43.1293C21.2413 43.0945 21.2166 43.0605 21.1913 43.0272C21.1659 42.9941 21.1399 42.9617 21.1133 42.9301C21.0867 42.8986 21.0594 42.8679 21.0315 42.8381C21.0036 42.8083 20.9752 42.7793 20.9461 42.7514C20.9171 42.7233 20.8875 42.6963 20.8574 42.6702C20.8273 42.6441 20.7967 42.6189 20.7655 42.5948C20.4239 42.3284 19.9014 42.1024 19.4958 42.1809Z" fill="#4D4D4D" fill-opacity="0.5"/>
<path d="M35.745 25.6739C37.5728 25.4781 39.5608 26.3001 40.9945 27.7218C42.6973 29.4104 43.8812 31.8128 44.1368 34.5535C44.4075 37.4575 43.8126 40.3163 42.3625 42.6125C41.296 44.3011 39.8061 45.5808 38.1415 46.1156C37.5264 46.3133 36.9038 46.4029 36.2748 46.4939C34.3688 46.5571 32.3748 45.694 30.9022 44.1663C30.8489 44.1118 30.796 44.0564 30.7438 44.0002C30.6915 43.9441 30.6398 43.8871 30.5886 43.8293C30.5374 43.7716 30.4868 43.713 30.4368 43.6536C30.3868 43.5943 30.3374 43.5341 30.2886 43.4732C30.2397 43.4123 30.1915 43.3507 30.1439 43.2883C30.0963 43.2259 30.0493 43.1627 30.0028 43.0988C29.9564 43.035 29.9107 42.9704 29.8656 42.9051C29.8205 42.8398 29.776 42.7738 29.7322 42.7072C29.6884 42.6405 29.6452 42.5731 29.6027 42.5051C29.5601 42.437 29.5183 42.3684 29.4772 42.299C29.436 42.2297 29.3955 42.1598 29.3558 42.0891C29.3159 42.0185 29.2768 41.9473 29.2384 41.8755C29.2001 41.8037 29.1624 41.7313 29.1254 41.6583C29.0884 41.5853 29.0522 41.5118 29.0166 41.4377C28.9811 41.3636 28.9463 41.2889 28.9123 41.2137C28.8782 41.1385 28.8448 41.0628 28.8122 40.9865C28.7797 40.9103 28.7478 40.8335 28.7168 40.7563C28.6857 40.6791 28.6554 40.6014 28.6258 40.5232C28.5962 40.445 28.5675 40.3664 28.5394 40.2873C28.5114 40.2082 28.4842 40.1287 28.4577 40.0488C28.4313 39.9689 28.4056 39.8886 28.3808 39.8078C28.3559 39.7271 28.3318 39.646 28.3085 39.5645C28.2852 39.483 28.2627 39.4012 28.241 39.319C28.2193 39.2369 28.1985 39.1544 28.1784 39.0715C28.1584 38.9887 28.1391 38.9056 28.1206 38.8222C28.1022 38.7387 28.0846 38.655 28.0678 38.571C28.051 38.4871 28.035 38.4028 28.0199 38.3183C28.0047 38.2339 27.9904 38.1492 27.9769 38.0642C27.9634 37.9793 27.9508 37.8942 27.9389 37.8089C27.9271 37.7236 27.9162 37.6381 27.906 37.5524C27.8959 37.4668 27.8866 37.381 27.8781 37.295C27.8696 37.2091 27.862 37.123 27.8553 37.0368C27.849 36.9511 27.8436 36.8653 27.8389 36.7795C27.8343 36.6936 27.8306 36.6077 27.8277 36.5216C27.8248 36.4357 27.8228 36.3497 27.8216 36.2636C27.8203 36.1776 27.8199 36.0915 27.8204 36.0055C27.8209 35.9194 27.8222 35.8333 27.8244 35.7473C27.8266 35.6613 27.8296 35.5753 27.8334 35.4894C27.8373 35.4035 27.8421 35.3176 27.8476 35.2318C27.8531 35.1461 27.8595 35.0604 27.8668 34.9749C27.874 34.8893 27.8821 34.8038 27.891 34.7184C27.8999 34.6331 27.9097 34.548 27.9202 34.463C27.9308 34.3779 27.9423 34.2931 27.9545 34.2084C27.9668 34.1237 27.9799 34.0393 27.9938 33.955C28.0077 33.8707 28.0225 33.7867 28.038 33.7029C28.0536 33.6192 28.07 33.5356 28.0872 33.4523C28.1044 33.369 28.1225 33.286 28.1413 33.2034C28.1602 33.1206 28.1798 33.0382 28.2003 32.9561C28.2207 32.874 28.242 32.7922 28.2641 32.7108C28.2861 32.6293 28.309 32.5483 28.3327 32.4676C28.3563 32.3868 28.3808 32.3065 28.4061 32.2266C28.4313 32.1465 28.4574 32.067 28.4842 31.9879C28.511 31.9087 28.5386 31.83 28.5669 31.7517C28.5953 31.6734 28.6244 31.5956 28.6543 31.5182C28.6842 31.4409 28.7149 31.364 28.7463 31.2876C28.7777 31.2112 28.8098 31.1353 28.8427 31.0599C28.8756 30.9844 28.9093 30.9095 28.9437 30.8352C28.978 30.7608 29.0131 30.687 29.0489 30.6137C29.0847 30.5405 29.1213 30.4678 29.1585 30.3957C29.1958 30.3236 29.2337 30.2521 29.2724 30.1812C29.311 30.1102 29.3504 30.0399 29.3904 29.9702C29.4305 29.9005 29.4712 29.8315 29.5126 29.7631C29.554 29.6946 29.596 29.6268 29.6388 29.5597C29.6815 29.4926 29.7249 29.4261 29.7689 29.3604C31.3099 27.0464 33.3894 25.9227 35.745 25.6739ZM35.6634 26.6785C33.543 26.9355 31.5876 28.1304 30.2287 30.2238C30.1912 30.2826 30.1544 30.3419 30.1181 30.4018C30.0818 30.4617 30.0461 30.5221 30.0109 30.5831C29.9758 30.6441 29.9412 30.7056 29.9073 30.7677C29.8733 30.8297 29.8399 30.8923 29.8072 30.9554C29.7744 31.0184 29.7422 31.0819 29.7107 31.146C29.6792 31.21 29.6483 31.2746 29.618 31.3396C29.5877 31.4046 29.558 31.47 29.529 31.5358C29.4999 31.6017 29.4715 31.6681 29.4438 31.7348C29.416 31.8016 29.3889 31.8688 29.3624 31.9364C29.3359 32.004 29.3101 32.072 29.285 32.1404C29.2598 32.2087 29.2353 32.2774 29.2114 32.3466C29.1876 32.4157 29.1644 32.4852 29.1419 32.555C29.1194 32.6249 29.0975 32.6951 29.0764 32.7655C29.0552 32.836 29.0347 32.9069 29.0149 32.978C28.9951 33.0491 28.976 33.1206 28.9575 33.1923C28.9391 33.264 28.9213 33.336 28.9043 33.4083C28.8872 33.4805 28.8709 33.553 28.8552 33.6258C28.8396 33.6985 28.8246 33.7715 28.8104 33.8447C28.7961 33.9179 28.7825 33.9914 28.7697 34.065C28.7568 34.1386 28.7447 34.2124 28.7333 34.2864C28.7218 34.3604 28.7111 34.4345 28.7012 34.5088C28.6911 34.5832 28.6818 34.6577 28.6732 34.7323C28.6647 34.8069 28.6568 34.8816 28.6497 34.9564C28.6425 35.0313 28.6361 35.1062 28.6304 35.1813C28.6247 35.2564 28.6198 35.3315 28.6155 35.4067C28.6112 35.4819 28.6077 35.5571 28.6049 35.6324C28.6021 35.7077 28.6 35.783 28.5986 35.8584C28.5973 35.9338 28.5966 36.0091 28.5967 36.0845C28.5968 36.1599 28.5976 36.2353 28.5991 36.3106C28.6007 36.386 28.6029 36.4613 28.6059 36.5366C28.6089 36.6119 28.6126 36.6872 28.617 36.7623C28.6214 36.8375 28.6266 36.9126 28.6325 36.9877C28.6393 37.065 28.6469 37.1422 28.6552 37.2193C28.6635 37.2964 28.6726 37.3733 28.6824 37.4501C28.6923 37.527 28.7028 37.6036 28.7142 37.6801C28.7255 37.7566 28.7376 37.8329 28.7504 37.909C28.7632 37.9851 28.7768 38.061 28.7911 38.1366C28.8054 38.2123 28.8204 38.2878 28.8363 38.3631C28.852 38.4383 28.8685 38.5133 28.8857 38.588C28.903 38.6626 28.921 38.7371 28.9397 38.8112C28.9583 38.8854 28.9777 38.9592 28.9979 39.0327C29.018 39.1063 29.0389 39.1795 29.0605 39.2524C29.082 39.3253 29.1043 39.3979 29.1273 39.4701C29.1502 39.5424 29.1739 39.6142 29.1983 39.6856C29.2227 39.7571 29.2478 39.8282 29.2735 39.8989C29.2993 39.9696 29.3258 40.0399 29.3529 40.1098C29.3801 40.1796 29.4079 40.2491 29.4364 40.3181C29.4649 40.3871 29.4941 40.4557 29.5239 40.5238C29.5537 40.5919 29.5842 40.6595 29.6154 40.7266C29.6465 40.7938 29.6783 40.8605 29.7108 40.9266C29.7432 40.9928 29.7763 41.0585 29.8101 41.1236C29.8438 41.1888 29.8782 41.2534 29.9132 41.3175C29.9482 41.3816 29.9839 41.4451 30.0201 41.508C30.0563 41.571 30.0932 41.6334 30.1306 41.6952C30.1681 41.7571 30.2062 41.8183 30.2448 41.879C30.2835 41.9396 30.3227 41.9996 30.3626 42.0591C30.4024 42.1185 30.4428 42.1773 30.4838 42.2355C30.5248 42.2937 30.5663 42.3512 30.6084 42.408C30.6505 42.4649 30.6931 42.5212 30.7363 42.5767C30.7795 42.6323 30.8233 42.6872 30.8675 42.7414C30.9118 42.7956 30.9566 42.8491 31.0019 42.9019C31.0472 42.9547 31.093 43.0068 31.1394 43.0582C31.1857 43.1095 31.2325 43.1602 31.2798 43.2102C31.3272 43.2601 31.375 43.3093 31.4232 43.3578C32.7558 44.7167 34.6571 45.6126 36.3856 45.482C38.4337 45.2632 40.2662 44.195 41.6012 42.188C41.6424 42.1263 41.6829 42.0639 41.7228 42.0009C41.7628 41.938 41.8021 41.8744 41.8408 41.8102C41.8795 41.746 41.9176 41.6812 41.955 41.6158C41.9924 41.5504 42.0292 41.4845 42.0653 41.418C42.1014 41.3514 42.1369 41.2843 42.1717 41.2167C42.2066 41.1491 42.2407 41.0809 42.2742 41.0122C42.3076 40.9435 42.3404 40.8743 42.3725 40.8045C42.4046 40.7348 42.4361 40.6646 42.4668 40.5939C42.4975 40.5232 42.5276 40.452 42.5569 40.3804C42.5862 40.3087 42.6149 40.2367 42.6428 40.1641C42.6708 40.0915 42.698 40.0186 42.7245 39.9452C42.751 39.8718 42.7767 39.798 42.8018 39.7238C42.8268 39.6497 42.8511 39.5751 42.8747 39.5001C42.8983 39.4252 42.9212 39.3499 42.9433 39.2742C42.9654 39.1985 42.9867 39.1225 43.0074 39.0462C43.028 38.9699 43.0479 38.8932 43.067 38.8163C43.0861 38.7394 43.1045 38.6621 43.1221 38.5846C43.1397 38.5071 43.1565 38.4293 43.1725 38.3512C43.1886 38.2732 43.2039 38.195 43.2185 38.1164C43.233 38.0379 43.2467 37.9592 43.2598 37.8802C43.2727 37.8012 43.285 37.7221 43.2964 37.6428C43.3079 37.5635 43.3185 37.484 43.3284 37.4042C43.3383 37.3246 43.3474 37.2448 43.3557 37.1649C43.364 37.0849 43.3715 37.0048 43.3782 36.9246C43.385 36.8445 43.3909 36.7642 43.3961 36.6838C43.4013 36.6034 43.4056 36.523 43.4093 36.4425C43.4128 36.362 43.4156 36.2814 43.4176 36.2008C43.4197 36.1203 43.4209 36.0397 43.4213 35.959C43.4217 35.8784 43.4214 35.7977 43.4202 35.7171C43.4191 35.6365 43.4171 35.5559 43.4144 35.4753C43.4116 35.3948 43.4081 35.3143 43.4038 35.2339C43.3995 35.1534 43.3944 35.073 43.3885 34.9927C43.2159 32.5597 42.1918 30.3374 40.7177 28.7852C39.3945 27.3919 37.5086 26.4792 35.7693 26.6638C35.7357 26.6675 35.6969 26.6702 35.6634 26.6785Z" fill="#4D4D4D" fill-opacity="0.5"/>
<path d="M35.975 28.4116C35.989 28.4102 36.0031 28.4082 36.0172 28.4074C37.3606 28.3273 38.961 29.1803 39.9549 30.2908C39.9921 30.3321 40.029 30.3739 40.0655 30.4163C40.102 30.4587 40.138 30.5017 40.1736 30.5453C40.2092 30.5888 40.2444 30.633 40.2792 30.6776C40.3139 30.7222 40.3482 30.7674 40.3821 30.8131C40.4159 30.8588 40.4493 30.9051 40.4823 30.9519C40.5152 30.9987 40.5477 31.0459 40.5797 31.0937C40.6118 31.1415 40.6433 31.1898 40.6743 31.2385C40.7054 31.2873 40.736 31.3365 40.7661 31.3863C40.7962 31.436 40.8258 31.4862 40.8549 31.5368C40.884 31.5875 40.9126 31.6386 40.9407 31.6901C40.9688 31.7417 40.9964 31.7937 41.0235 31.8461C41.0506 31.8985 41.0772 31.9513 41.1032 32.0046C41.1293 32.0578 41.1548 32.1114 41.1797 32.1655C41.2047 32.2195 41.2292 32.2739 41.2531 32.3288C41.277 32.3836 41.3004 32.4387 41.3232 32.4943C41.346 32.5498 41.3683 32.6057 41.39 32.6619C41.4118 32.7182 41.433 32.7747 41.4535 32.8316C41.4742 32.8885 41.4942 32.9458 41.5137 33.0033C41.5332 33.0608 41.5521 33.1186 41.5705 33.1767C41.5889 33.2349 41.6066 33.2933 41.6238 33.3519C41.641 33.4106 41.6576 33.4695 41.6737 33.5288C41.6898 33.5879 41.7052 33.6473 41.7201 33.707C41.735 33.7667 41.7493 33.8266 41.7629 33.8867C41.7766 33.9468 41.7897 34.0072 41.8022 34.0677C41.8148 34.1283 41.8267 34.189 41.8379 34.2498C41.8493 34.3108 41.86 34.3719 41.8701 34.4332C41.8802 34.4944 41.8897 34.5558 41.8986 34.6173C41.9075 34.6788 41.9158 34.7405 41.9235 34.8023C41.9312 34.8641 41.9382 34.926 41.9447 34.988C41.9512 35.05 41.9571 35.1121 41.9623 35.1744C41.9675 35.2366 41.9722 35.2989 41.9762 35.3612C41.9802 35.4235 41.9836 35.486 41.9864 35.5484C42.0799 37.6736 41.5877 39.6311 40.4536 41.224C39.317 42.8205 37.7003 43.626 36.0243 43.7461C34.6105 43.681 33.2633 43.1017 32.1749 41.9391C32.1369 41.899 32.0994 41.8584 32.0622 41.8172C32.0251 41.7759 31.9883 41.7342 31.952 41.6919C31.9156 41.6495 31.8797 41.6066 31.8442 41.5631C31.8087 41.5196 31.7736 41.4756 31.739 41.431C31.7043 41.3865 31.6701 41.3415 31.6363 41.2958C31.6025 41.2502 31.5692 41.2041 31.5363 41.1575C31.5035 41.1108 31.4711 41.0637 31.4391 41.016C31.4072 40.9683 31.3757 40.9202 31.3447 40.8715C31.3137 40.823 31.2831 40.7739 31.253 40.7243C31.223 40.6747 31.1935 40.6247 31.1644 40.5742C31.1353 40.5237 31.1067 40.4728 31.0786 40.4214C31.0505 40.37 31.0229 40.3182 30.9959 40.266C30.9688 40.2138 30.9422 40.1611 30.9161 40.108C30.8901 40.055 30.8645 40.0016 30.8395 39.9477C30.8145 39.8939 30.7901 39.8397 30.7661 39.785C30.7421 39.7304 30.7187 39.6755 30.6958 39.6201C30.6729 39.5648 30.6505 39.5092 30.6288 39.4532C30.607 39.3972 30.5857 39.3408 30.565 39.2841C30.5443 39.2274 30.5242 39.1705 30.5046 39.1132C30.485 39.0559 30.466 38.9982 30.4475 38.9404C30.429 38.8825 30.4111 38.8243 30.3938 38.7658C30.3764 38.7074 30.3597 38.6487 30.3435 38.5897C30.3273 38.5307 30.3117 38.4715 30.2966 38.4121C30.2816 38.3526 30.2671 38.2929 30.2533 38.233C30.2394 38.1732 30.2261 38.1131 30.2134 38.0527C30.2007 37.9924 30.1886 37.9319 30.177 37.8713C30.1655 37.8106 30.1546 37.7497 30.1443 37.6887C30.1339 37.6277 30.1242 37.5665 30.115 37.5052C30.1059 37.4439 30.0973 37.3824 30.0894 37.3208C30.0814 37.2592 30.0741 37.1975 30.0674 37.1357C30.0606 37.0738 30.0545 37.0119 30.0489 36.9499C30.0434 36.8879 30.0385 36.8258 30.0341 36.7637C29.902 34.7257 30.375 32.6431 31.4417 31.0835C32.6007 29.3887 34.2341 28.5817 35.975 28.4116ZM35.8346 29.8245C34.4511 29.9916 33.1255 30.7258 32.2268 32.0951C31.3952 33.3623 30.9567 35.0745 31.0827 36.7164C31.0904 36.8191 31.1001 36.9215 31.1119 37.0237C31.1237 37.1258 31.1375 37.2274 31.1533 37.3287C31.1691 37.43 31.1869 37.5306 31.2068 37.6308C31.2266 37.7309 31.2484 37.8303 31.2722 37.9291C31.296 38.0278 31.3217 38.1258 31.3494 38.2229C31.3771 38.32 31.4066 38.4162 31.4381 38.5115C31.4696 38.6067 31.503 38.7009 31.5382 38.794C31.5735 38.8871 31.6105 38.9791 31.6494 39.07C31.6883 39.1607 31.729 39.2503 31.7714 39.3385C31.8139 39.4268 31.8581 39.5136 31.904 39.599C31.9499 39.6844 31.9974 39.7683 32.0466 39.8508C32.0959 39.9332 32.1467 40.0141 32.1992 40.0933C32.2516 40.1725 32.3056 40.25 32.3612 40.3258C32.4167 40.4016 32.4737 40.4756 32.5322 40.5478C32.5906 40.62 32.6505 40.6903 32.7118 40.7587C32.7731 40.8272 32.8357 40.8936 32.8996 40.9581C32.9587 41.0187 33.0189 41.0777 33.0802 41.1349C33.1415 41.1921 33.2038 41.2476 33.267 41.3014C33.3303 41.355 33.3945 41.4069 33.4595 41.4569C33.5247 41.507 33.5907 41.5553 33.6575 41.6016C33.7243 41.6479 33.7919 41.6923 33.8603 41.7348C33.9287 41.7773 33.9978 41.8178 34.0677 41.8564C34.1376 41.8949 34.2081 41.9315 34.2793 41.9661C34.3504 42.0006 34.4221 42.0332 34.4944 42.0637C34.5667 42.0941 34.6396 42.1226 34.7129 42.1489C34.7862 42.1753 34.86 42.1996 34.9342 42.2218C35.0084 42.2439 35.083 42.264 35.1579 42.282C35.2328 42.2999 35.308 42.3157 35.3835 42.3294C35.459 42.3431 35.5347 42.3547 35.6106 42.3641C35.6865 42.3734 35.7625 42.3807 35.8386 42.3858C35.9147 42.3909 35.9909 42.3938 36.0672 42.3945C36.1435 42.3953 36.2197 42.3939 36.2959 42.3903C37.6047 42.2695 38.9392 41.4021 39.789 40.1486C39.8418 40.0697 39.8931 39.9892 39.9428 39.9071C39.9925 39.825 40.0405 39.7414 40.0869 39.6563C40.1334 39.5711 40.1781 39.4847 40.2212 39.3968C40.2642 39.309 40.3055 39.2198 40.3451 39.1293C40.3846 39.0389 40.4224 38.9472 40.4584 38.8545C40.4944 38.7617 40.5285 38.6678 40.5608 38.5729C40.5931 38.478 40.6235 38.3822 40.6521 38.2854C40.6807 38.1885 40.7074 38.0909 40.7321 37.9925C40.7569 37.894 40.7797 37.7949 40.8005 37.695C40.8214 37.5951 40.8403 37.4946 40.8573 37.3936C40.8742 37.2925 40.8892 37.191 40.9022 37.089C40.9152 36.987 40.9262 36.8847 40.9351 36.782C40.9441 36.6794 40.9511 36.5765 40.9561 36.4734C40.9611 36.3703 40.964 36.2671 40.9649 36.1639C40.9659 36.0606 40.9648 35.9573 40.9617 35.8541C40.9586 35.7509 40.9535 35.6478 40.9463 35.5449C40.9396 35.4422 40.9308 35.3398 40.92 35.2376C40.9092 35.1355 40.8964 35.0337 40.8815 34.9324C40.8667 34.831 40.8498 34.7302 40.831 34.63C40.8121 34.5297 40.7913 34.4301 40.7685 34.3311C40.7457 34.2321 40.721 34.1339 40.6943 34.0365C40.6676 33.9391 40.639 33.8426 40.6085 33.747C40.5779 33.6514 40.5455 33.5568 40.5113 33.4633C40.477 33.3697 40.4409 33.2773 40.403 33.1859C40.365 33.0947 40.3253 33.0047 40.2838 32.9159C40.2423 32.8271 40.199 32.7397 40.154 32.6536C40.1091 32.5676 40.0624 32.483 40.0141 32.3999C39.9658 32.3168 39.9158 32.2353 39.8642 32.1553C39.8127 32.0753 39.7596 31.997 39.7049 31.9204C39.6502 31.8438 39.5941 31.769 39.5365 31.6959C39.4788 31.6229 39.4198 31.5517 39.3593 31.4823C39.2988 31.413 39.237 31.3456 39.1739 31.2801C38.27 30.3355 37.0186 29.7251 35.8346 29.8245Z" fill="#4D4D4D" fill-opacity="0.5"/>
</svg>
