<svg width="74" height="74" viewBox="0 0 74 74" fill="none" xmlns="http://www.w3.org/2000/svg">
<mask id="path-1-outside-1_411_551" maskUnits="userSpaceOnUse" x="0" y="0" width="74" height="74" fill="black">
<rect fill="white" width="74" height="74"/>
<path d="M36.7927 1C36.8686 1.00246 36.9431 1.00272 37.0157 1.02941C37.154 1.08025 37.2213 1.20081 37.2964 1.31822C37.9188 2.29192 38.4428 3.36125 39.0118 4.37042L43.5048 12.4157C45.6237 11.0881 47.7927 9.8354 49.9265 8.53099C51.3029 7.68964 52.6399 6.77281 54.0363 5.96597C54.2249 5.85702 54.5808 5.63223 54.7977 5.62493C54.9037 5.62135 55.0425 5.66558 55.1119 5.75059C55.1932 5.85006 55.1918 6.29949 55.1908 6.43585C55.1812 7.78234 55.0687 9.14531 55.0025 10.4914C54.8518 13.4221 54.7163 16.3535 54.596 19.2857C55.9909 19.2604 57.3973 19.154 58.791 19.0794L63.287 18.8667C64.63 18.7955 66.0048 18.6486 67.3485 18.6954C67.5644 18.7029 67.775 18.731 67.9788 18.8057C68.0296 18.8653 68.058 18.9045 68.0798 18.9816C68.128 19.1511 68.0558 19.3702 67.9815 19.5211C67.8102 19.869 67.5761 20.205 67.3739 20.5368L66.1629 22.5244L63.1844 27.453C62.5921 28.4351 61.9736 29.4091 61.4197 30.4133C62.6774 31.1918 72.8032 36.5528 72.9628 36.779C73.0072 36.842 73.007 36.9854 72.9875 37.0572C72.9573 37.1684 72.8685 37.2319 72.7782 37.2923C72.4664 37.5011 72.1133 37.6606 71.783 37.8385C71.342 38.0804 70.9056 38.3302 70.4738 38.588C67.483 40.3027 64.4685 41.9744 61.4303 43.6031C61.9984 44.5513 62.5427 45.5138 63.1135 46.4602C63.6579 47.3628 68.1591 54.5843 68.1378 55.0219C68.1326 55.1295 68.0912 55.2071 68.0152 55.28C67.9018 55.3889 67.4641 55.3759 67.302 55.3732C65.6555 55.3455 63.9863 55.1823 62.3422 55.0771C59.7779 54.9048 57.2116 54.7706 54.6434 54.6744C54.6046 55.7511 54.7089 56.8658 54.75 57.9445L55.0168 64.3748C55.0501 65.1135 55.0622 65.8483 55.0843 66.5867C55.096 66.9794 55.1318 67.3805 55.113 67.7728C55.1066 67.9103 55.0941 68.0632 55.0229 68.1843C54.9789 68.2591 54.9079 68.3011 54.822 68.318C54.6793 68.3458 54.5104 68.2773 54.3873 68.2102C53.3854 67.6645 52.3246 66.8991 51.334 66.2872C48.7289 64.678 46.1286 63.0566 43.5028 61.4822C42.1155 64.0847 40.6462 66.6467 39.2198 69.2281C38.8442 69.9045 38.472 70.5826 38.1031 71.2627C37.7923 71.8375 37.5012 72.4869 37.0741 72.9842C36.9987 72.9963 36.9329 73.0103 36.8571 72.9889C36.722 72.9507 36.6599 72.8438 36.5896 72.7319C36.3087 72.2845 36.0776 71.807 35.8261 71.3428L34.6425 69.1824L30.4423 61.5627C29.4605 61.9958 28.2423 62.8235 27.3104 63.3888L21.6298 66.7814C21.1469 67.067 20.6672 67.3579 20.1907 67.6541C19.9186 67.8247 19.6536 68.0236 19.3709 68.1745C19.2691 68.2289 19.1525 68.2728 19.0356 68.2727C18.9244 68.2727 18.8413 68.2283 18.766 68.1505C18.633 68.0131 18.6571 67.6993 18.6575 67.5135C18.66 66.503 18.7671 65.4727 18.8189 64.4616L19.1282 58.4489C19.1952 57.1746 19.286 55.8948 19.3052 54.6187C18.2333 54.6586 17.1601 54.7385 16.0889 54.7991L10.4687 55.1259C9.23244 55.2047 7.97868 55.3414 6.74216 55.3642C6.50299 55.3686 6.1532 55.3799 5.93522 55.2799C5.86992 55.2098 5.82503 55.1578 5.80528 55.0591C5.75754 54.8206 5.91644 54.556 6.02216 54.3536C6.55836 53.327 7.24856 52.3678 7.84078 51.3712L12.4927 43.5904C11.5491 42.8979 10.1778 42.2287 9.12595 41.6571L3.75322 38.7185C3.23456 38.4331 2.73259 38.1304 2.22231 37.8333C1.90107 37.6463 1.55201 37.5009 1.25347 37.2762C1.1112 37.169 1.02317 37.0746 1 36.8952C1.06695 36.7061 1.23393 36.6213 1.39969 36.5191C2.23275 36.0056 3.15032 35.5899 4.00865 35.1147C6.8438 33.5451 9.70854 32.0371 12.5275 30.4363C11.9573 29.3409 11.268 28.2995 10.6219 27.2471C9.67294 25.7014 8.76126 24.1345 7.8016 22.5946C7.18498 21.6051 6.49919 20.6364 5.91406 19.6304C5.82283 19.4736 5.7319 19.2918 5.7115 19.1094C5.70208 19.0251 5.71468 18.8859 5.78373 18.8268C5.92108 18.7092 6.34942 18.7102 6.53277 18.7096C7.72906 18.7061 8.94484 18.8352 10.1421 18.8899C13.1969 19.0185 16.2495 19.1857 19.3 19.3916C19.2962 17.9924 19.187 16.605 19.1058 15.2093L18.8722 10.7492C18.8344 10.069 18.5202 6.39803 18.6827 5.97056C18.7194 5.87386 18.8324 5.77891 18.9289 5.75319C19.0906 5.71004 19.2564 5.79818 19.3955 5.86835C19.8 6.07242 20.1857 6.32675 20.5744 6.56015L22.6631 7.81327L27.1199 10.4473C28.2173 11.0971 29.3072 11.7637 30.4205 12.3854L34.2361 5.43024C34.6839 4.61464 36.2987 1.4484 36.7927 1ZM36.8925 2.63828C36.1793 3.78913 35.5519 4.99303 34.9015 6.18013L32.666 10.2235C32.213 11.0533 31.3256 12.9908 30.7316 13.5862C30.1385 13.374 29.5621 12.9989 29.022 12.6771L26.7775 11.323L23.2273 9.22386C22.0203 8.50561 20.8221 7.76879 19.5964 7.08274C19.5639 8.14004 19.7091 9.28668 19.7718 10.3498L20.124 16.4491C20.1978 17.6193 20.3841 19.136 20.2045 20.2751C19.407 20.4535 17.6696 20.2327 16.7771 20.188L10.6316 19.879C9.47369 19.8195 8.31314 19.7242 7.15356 19.7176C8.67917 22.3873 10.3521 24.9726 11.9351 27.609C12.4707 28.5012 13.1073 29.3762 13.5661 30.3092C13.6517 30.4834 13.679 30.6069 13.6689 30.8016C13.5581 30.9717 13.3428 31.0954 13.1718 31.2009C12.1918 31.8061 11.1491 32.32 10.1371 32.8686L5.12786 35.5899C4.31217 36.0273 3.40579 36.4244 2.65163 36.9622C3.40681 37.335 4.12774 37.7817 4.85999 38.1977L8.11203 40.0158L11.6719 41.9701C12.2454 42.29 13.2049 42.7449 13.6535 43.2027C13.202 44.5119 12.3072 45.7475 11.5935 46.928L8.79939 51.5962C8.24837 52.5105 7.65153 53.4114 7.14245 54.3492L14.7396 53.9424C16.2973 53.8434 17.8868 53.6484 19.4465 53.6558C19.668 53.6567 19.9854 53.6365 20.1603 53.7962C20.3036 53.9272 20.2315 55.3326 20.2214 55.6296C20.1821 56.7826 20.0854 57.9355 20.016 59.087L19.7691 63.7723C19.7159 64.8128 19.6166 65.8662 19.6338 66.9074C21.4941 65.6898 23.5495 64.55 25.4696 63.3929C26.3085 62.8956 27.1425 62.3901 27.9714 61.8763C28.5767 61.4989 29.1718 61.0906 29.7974 60.7486C30.0945 60.5862 30.4056 60.3749 30.7527 60.3792C30.9039 60.4389 31.0705 60.7437 31.155 60.8833C31.7228 61.8221 32.2114 62.8275 32.7389 63.791L36.1531 70.0098C36.269 70.2193 36.9139 71.3475 36.933 71.3502C36.9505 71.3526 36.9657 71.3369 36.9821 71.3303L36.9953 71.3068C37.4649 70.4958 37.8965 69.6636 38.3508 68.8439L42.2817 61.791C42.4719 61.4517 42.6503 61.092 42.8638 60.7674C42.9597 60.6216 43.0972 60.4076 43.2652 60.3501C43.3988 60.3688 43.5143 60.4088 43.6343 60.4718C44.1577 60.7467 44.6629 61.089 45.1682 61.3986C46.1371 61.9893 47.1029 62.5853 48.0654 63.1865C50.1008 64.4542 52.1711 65.6799 54.1771 66.9932C54.1761 65.6772 54.1024 64.363 54.0447 63.0486C53.9801 61.4202 53.9072 59.7922 53.826 58.1645C53.7655 56.9379 53.6205 55.473 53.674 54.2583C53.6819 54.0798 53.7094 53.9464 53.8059 53.7961C53.9635 53.6988 54.2763 53.6966 54.4614 53.6947C55.6297 53.6832 56.8314 53.8069 57.9977 53.8819C59.8174 53.9995 61.6376 54.1071 63.4584 54.2047C64.5664 54.2671 65.6828 54.3584 66.7924 54.3674L61.7355 45.9261C61.376 45.3163 60.3996 43.9357 60.2716 43.3195C60.4055 43.1371 60.6151 42.9937 60.8051 42.8739C61.5314 42.4155 62.3225 42.0264 63.0721 41.6052C65.8498 40.0441 68.7097 38.604 71.4275 36.9401C69.1997 35.8274 67.0321 34.5788 64.8528 33.3722C63.528 32.6389 62.1525 31.9592 60.8577 31.1761C60.6992 31.0802 60.3599 30.8957 60.2896 30.7262C60.276 30.5332 60.3098 30.4162 60.3929 30.2432C60.7977 29.4012 61.3823 28.6069 61.8772 27.8135C62.9373 26.1141 63.9558 24.3814 64.9946 22.6684C65.5832 21.6976 66.278 20.7362 66.7482 19.7036C63.9938 19.8024 61.2401 19.9175 58.487 20.049C57.084 20.1189 55.6477 20.2627 54.2447 20.2473C54.0593 20.2453 53.8964 20.2349 53.7319 20.1406C53.6324 19.9559 53.6287 19.6234 53.6292 19.4136C53.6303 18.874 53.6809 18.3276 53.7107 17.7883L53.84 15.2236L54.2397 6.97289C51.4877 8.54417 48.8209 10.2815 46.1098 11.9241C45.3333 12.3947 44.5886 12.9379 43.789 13.3668C43.6522 13.4403 43.4034 13.5816 43.2489 13.5296C43.087 13.4752 42.9694 13.3158 42.877 13.1802C42.211 12.202 41.5787 10.922 41.0048 9.8724C40.0802 8.17696 39.1424 6.4889 38.1914 4.80822C37.9116 4.30699 37.2509 2.96649 36.8925 2.63828Z"/>
<path d="M43.5476 26.7283C43.8554 26.8277 44.065 26.9737 44.3121 27.1741C43.8537 27.954 43.2907 28.6579 42.761 29.3886C42.1146 30.2913 41.4733 31.1976 40.8371 32.1074L34.1699 41.7894C33.7387 42.4217 30.8653 46.7879 30.5419 47.0211C30.5286 47.024 30.5154 47.0275 30.502 47.0298C30.329 47.0598 30.1567 47.0224 30.0128 46.9187C29.9118 46.8458 29.8565 46.7481 29.845 46.6245C29.8237 46.3961 30.0132 46.1114 30.1313 45.9226C30.891 44.7073 31.7855 43.5635 32.5925 42.3772C34.4447 39.6132 36.3236 36.8674 38.2291 34.1399C39.4042 32.4597 40.5894 30.7868 41.7848 29.1212C42.3336 28.3584 42.9295 27.4191 43.5476 26.7283Z"/>
<path d="M30.6955 25.8472C32.0091 25.7639 33.4517 26.2181 34.4537 27.0804C35.626 28.0892 36.2209 29.4357 36.3273 30.9661C36.4242 32.3599 35.9202 33.702 35.0087 34.7461C34.057 35.8363 32.7913 36.3853 31.3614 36.4849C31.2774 36.4898 31.1932 36.4927 31.109 36.4936C31.0248 36.4946 30.9407 36.4936 30.8566 36.4906C30.7724 36.4876 30.6884 36.4827 30.6045 36.4758C30.5206 36.469 30.4369 36.4602 30.3534 36.4494C30.2698 36.4386 30.1866 36.426 30.1038 36.4113C30.0208 36.3967 29.9383 36.3802 29.8562 36.3617C29.774 36.3432 29.6923 36.3228 29.6111 36.3006C29.5299 36.2784 29.4492 36.2543 29.3691 36.2282C29.289 36.2022 29.2095 36.1744 29.1307 36.1447C29.0519 36.115 28.9738 36.0835 28.8964 36.0502C28.8191 36.0168 28.7425 35.9817 28.6668 35.9448C28.591 35.908 28.5162 35.8694 28.4423 35.829C28.3683 35.7887 28.2953 35.7466 28.2232 35.7028C28.1513 35.6591 28.0803 35.6137 28.0103 35.5667C27.9404 35.5196 27.8716 35.471 27.8039 35.4207C27.7362 35.3705 27.6697 35.3187 27.6045 35.2654C27.5384 35.2122 27.4737 35.1573 27.4104 35.1008C27.3471 35.0443 27.2852 34.9862 27.2248 34.9266C27.1644 34.867 27.1056 34.8059 27.0483 34.7433C26.9909 34.6808 26.9352 34.6168 26.8811 34.5514C26.8269 34.486 26.7745 34.4193 26.7237 34.3512C26.6729 34.2832 26.6238 34.2139 26.5765 34.1434C26.5292 34.0729 26.4837 34.0012 26.4399 33.9285C26.3961 33.8557 26.3543 33.7818 26.3142 33.7069C26.2742 33.632 26.2361 33.5561 26.1998 33.4793C26.1636 33.4024 26.1293 33.3247 26.0969 33.2461C26.0646 33.1676 26.0342 33.0883 26.0059 33.0082C25.9775 32.9281 25.9511 32.8473 25.9268 32.7659C25.9024 32.6844 25.8801 32.6025 25.8599 32.52C25.8397 32.4374 25.8215 32.3544 25.8054 32.2709C25.7894 32.1874 25.7754 32.1036 25.7636 32.0195C25.7517 31.9353 25.7419 31.8509 25.7342 31.7662C25.593 30.3387 25.9751 28.9108 26.8924 27.7985C27.8762 26.6053 29.176 25.9936 30.6955 25.8472ZM30.7336 26.7809C29.4494 26.9567 28.3219 27.4754 27.5243 28.5323C26.803 29.4881 26.5211 30.668 26.6949 31.8505C26.8672 33.0234 27.4626 33.9657 28.4115 34.6656C29.3034 35.3234 30.341 35.5881 31.4388 35.5662C32.6339 35.4046 33.7531 34.8552 34.4973 33.8838C34.5422 33.825 34.5856 33.7651 34.6275 33.7042C34.6693 33.6433 34.7097 33.5814 34.7486 33.5184C34.7874 33.4555 34.8247 33.3917 34.8604 33.3269C34.8961 33.2621 34.9302 33.1965 34.9626 33.13C34.9951 33.0636 35.0259 32.9963 35.055 32.9283C35.0842 32.8603 35.1116 32.7916 35.1374 32.7223C35.1631 32.6529 35.1872 32.5829 35.2094 32.5124C35.2317 32.4418 35.2523 32.3708 35.2711 32.2992C35.2899 32.2276 35.3069 32.1556 35.3221 32.0832C35.3374 32.0107 35.3509 31.938 35.3625 31.8649C35.3741 31.7918 35.384 31.7185 35.3921 31.6449C35.4001 31.5713 35.4063 31.4976 35.4107 31.4237C35.4151 31.3498 35.4176 31.2758 35.4184 31.2018C35.4191 31.1278 35.4181 31.0538 35.4152 30.9798C35.4123 30.9059 35.4076 30.8321 35.401 30.7583C35.3944 30.6846 35.3861 30.6111 35.3759 30.5377C35.215 29.4067 34.6516 28.3863 33.7367 27.6984C32.9357 27.0959 31.7469 26.6452 30.7336 26.7809Z"/>
<path d="M42.5452 37.3786C43.6954 37.2234 44.9822 37.7011 45.9052 38.3648C45.9764 38.417 46.0464 38.4709 46.115 38.5265C46.1836 38.5821 46.2509 38.6393 46.3167 38.6982C46.3825 38.7571 46.4469 38.8176 46.5097 38.8797C46.5726 38.9418 46.634 39.0054 46.6938 39.0705C46.7535 39.1355 46.8117 39.202 46.8682 39.27C46.9247 39.3379 46.9796 39.4072 47.0328 39.4777C47.0859 39.5484 47.1373 39.6203 47.187 39.6934C47.2367 39.7666 47.2845 39.8409 47.3305 39.9164C47.3766 39.9919 47.4208 40.0685 47.4631 40.1461C47.5053 40.2238 47.5457 40.3025 47.5842 40.3821C47.6227 40.4617 47.6592 40.5422 47.6937 40.6237C47.7283 40.7051 47.7608 40.7873 47.7914 40.8704C47.8219 40.9534 47.8504 41.0372 47.8768 41.1216C47.9033 41.206 47.9277 41.291 47.95 41.3767C47.9723 41.4623 47.9925 41.5484 48.0107 41.635C48.0288 41.7217 48.0448 41.8087 48.0586 41.8961C48.2855 43.3457 47.9736 44.7562 47.1013 45.94C46.0876 47.316 44.7783 47.8998 43.1287 48.1474C41.7482 48.1701 40.4345 47.8073 39.3621 46.9109C39.2949 46.8552 39.229 46.7979 39.1646 46.739C39.1002 46.6801 39.0372 46.6197 38.9757 46.5577C38.9142 46.4957 38.8543 46.4322 38.7959 46.3672C38.7375 46.3023 38.6807 46.236 38.6256 46.1682C38.5704 46.1005 38.5169 46.0314 38.4651 45.9611C38.4134 45.8907 38.3634 45.8191 38.3151 45.7463C38.2668 45.6734 38.2203 45.5995 38.1757 45.5244C38.131 45.4493 38.0882 45.3731 38.0472 45.2959C38.0063 45.2186 37.9672 45.1405 37.9301 45.0613C37.893 44.9822 37.8578 44.9022 37.8246 44.8213C37.7913 44.7405 37.7601 44.6588 37.7309 44.5764C37.7017 44.494 37.6744 44.4109 37.6493 44.3272C37.6241 44.2434 37.601 44.1591 37.5799 44.0743C37.5588 43.9894 37.5398 43.9041 37.5229 43.8182C37.5061 43.7324 37.4913 43.6462 37.4786 43.5597C37.4659 43.4732 37.4554 43.3864 37.4469 43.2993C37.438 43.2098 37.4314 43.12 37.427 43.0301C37.4227 42.9402 37.4205 42.8502 37.4206 42.7602C37.4207 42.6702 37.4231 42.5802 37.4277 42.4903C37.4323 42.4004 37.4391 42.3107 37.4482 42.2211C37.4573 42.1316 37.4687 42.0423 37.4822 41.9534C37.4957 41.8643 37.5115 41.7757 37.5294 41.6875C37.5474 41.5994 37.5676 41.5117 37.5899 41.4245C37.6123 41.3373 37.6368 41.2508 37.6635 41.1648C37.6901 41.0788 37.7189 40.9936 37.7498 40.9092C37.7807 40.8246 37.8138 40.741 37.8489 40.6582C37.884 40.5753 37.9211 40.4934 37.9603 40.4124C37.9995 40.3314 38.0407 40.2515 38.0838 40.1726C38.127 40.0937 38.1722 40.0159 38.2192 39.9393C38.2663 39.8627 38.3152 39.7873 38.366 39.7131C38.4169 39.6389 38.4695 39.5661 38.524 39.4945C38.5785 39.423 38.6347 39.3529 38.6927 39.2842C39.689 38.1033 41.025 37.5026 42.5452 37.3786ZM42.4668 38.3509C41.2475 38.4843 40.1257 38.994 39.3493 39.9701C38.6051 40.9059 38.246 42.0708 38.3801 43.2656C38.3883 43.338 38.3983 43.4103 38.4101 43.4823C38.4219 43.5542 38.4354 43.6259 38.4507 43.6972C38.4659 43.7686 38.4829 43.8395 38.5017 43.91C38.5205 43.9805 38.5409 44.0504 38.5631 44.1199C38.5853 44.1894 38.6091 44.2583 38.6347 44.3266C38.6602 44.3949 38.6874 44.4626 38.7162 44.5295C38.7451 44.5965 38.7756 44.6627 38.8077 44.7282C38.8398 44.7936 38.8735 44.8583 38.9087 44.9221C38.944 44.9859 38.9808 45.0488 39.0191 45.1107C39.0574 45.1728 39.0973 45.2338 39.1386 45.2938C39.1799 45.3538 39.2227 45.4128 39.2669 45.4708C39.3111 45.5287 39.3567 45.5855 39.4037 45.6411C39.4507 45.6968 39.499 45.7513 39.5487 45.8046C39.5983 45.8579 39.6492 45.9099 39.7014 45.9607C39.7536 46.0115 39.807 46.061 39.8616 46.1091C39.9163 46.1573 39.972 46.2041 40.0289 46.2495C40.9698 46.9905 41.9909 47.2475 43.1729 47.204C44.5631 46.9765 45.6042 46.3944 46.4365 45.2363C47.108 44.3017 47.329 43.1676 47.1358 42.0373C46.9372 40.8753 46.3166 39.8206 45.3487 39.1424C44.5558 38.5868 43.4402 38.2214 42.4668 38.3509Z"/>
</mask>
<path d="M36.7927 1C36.8686 1.00246 36.9431 1.00272 37.0157 1.02941C37.154 1.08025 37.2213 1.20081 37.2964 1.31822C37.9188 2.29192 38.4428 3.36125 39.0118 4.37042L43.5048 12.4157C45.6237 11.0881 47.7927 9.8354 49.9265 8.53099C51.3029 7.68964 52.6399 6.77281 54.0363 5.96597C54.2249 5.85702 54.5808 5.63223 54.7977 5.62493C54.9037 5.62135 55.0425 5.66558 55.1119 5.75059C55.1932 5.85006 55.1918 6.29949 55.1908 6.43585C55.1812 7.78234 55.0687 9.14531 55.0025 10.4914C54.8518 13.4221 54.7163 16.3535 54.596 19.2857C55.9909 19.2604 57.3973 19.154 58.791 19.0794L63.287 18.8667C64.63 18.7955 66.0048 18.6486 67.3485 18.6954C67.5644 18.7029 67.775 18.731 67.9788 18.8057C68.0296 18.8653 68.058 18.9045 68.0798 18.9816C68.128 19.1511 68.0558 19.3702 67.9815 19.5211C67.8102 19.869 67.5761 20.205 67.3739 20.5368L66.1629 22.5244L63.1844 27.453C62.5921 28.4351 61.9736 29.4091 61.4197 30.4133C62.6774 31.1918 72.8032 36.5528 72.9628 36.779C73.0072 36.842 73.007 36.9854 72.9875 37.0572C72.9573 37.1684 72.8685 37.2319 72.7782 37.2923C72.4664 37.5011 72.1133 37.6606 71.783 37.8385C71.342 38.0804 70.9056 38.3302 70.4738 38.588C67.483 40.3027 64.4685 41.9744 61.4303 43.6031C61.9984 44.5513 62.5427 45.5138 63.1135 46.4602C63.6579 47.3628 68.1591 54.5843 68.1378 55.0219C68.1326 55.1295 68.0912 55.2071 68.0152 55.28C67.9018 55.3889 67.4641 55.3759 67.302 55.3732C65.6555 55.3455 63.9863 55.1823 62.3422 55.0771C59.7779 54.9048 57.2116 54.7706 54.6434 54.6744C54.6046 55.7511 54.7089 56.8658 54.75 57.9445L55.0168 64.3748C55.0501 65.1135 55.0622 65.8483 55.0843 66.5867C55.096 66.9794 55.1318 67.3805 55.113 67.7728C55.1066 67.9103 55.0941 68.0632 55.0229 68.1843C54.9789 68.2591 54.9079 68.3011 54.822 68.318C54.6793 68.3458 54.5104 68.2773 54.3873 68.2102C53.3854 67.6645 52.3246 66.8991 51.334 66.2872C48.7289 64.678 46.1286 63.0566 43.5028 61.4822C42.1155 64.0847 40.6462 66.6467 39.2198 69.2281C38.8442 69.9045 38.472 70.5826 38.1031 71.2627C37.7923 71.8375 37.5012 72.4869 37.0741 72.9842C36.9987 72.9963 36.9329 73.0103 36.8571 72.9889C36.722 72.9507 36.6599 72.8438 36.5896 72.7319C36.3087 72.2845 36.0776 71.807 35.8261 71.3428L34.6425 69.1824L30.4423 61.5627C29.4605 61.9958 28.2423 62.8235 27.3104 63.3888L21.6298 66.7814C21.1469 67.067 20.6672 67.3579 20.1907 67.6541C19.9186 67.8247 19.6536 68.0236 19.3709 68.1745C19.2691 68.2289 19.1525 68.2728 19.0356 68.2727C18.9244 68.2727 18.8413 68.2283 18.766 68.1505C18.633 68.0131 18.6571 67.6993 18.6575 67.5135C18.66 66.503 18.7671 65.4727 18.8189 64.4616L19.1282 58.4489C19.1952 57.1746 19.286 55.8948 19.3052 54.6187C18.2333 54.6586 17.1601 54.7385 16.0889 54.7991L10.4687 55.1259C9.23244 55.2047 7.97868 55.3414 6.74216 55.3642C6.50299 55.3686 6.1532 55.3799 5.93522 55.2799C5.86992 55.2098 5.82503 55.1578 5.80528 55.0591C5.75754 54.8206 5.91644 54.556 6.02216 54.3536C6.55836 53.327 7.24856 52.3678 7.84078 51.3712L12.4927 43.5904C11.5491 42.8979 10.1778 42.2287 9.12595 41.6571L3.75322 38.7185C3.23456 38.4331 2.73259 38.1304 2.22231 37.8333C1.90107 37.6463 1.55201 37.5009 1.25347 37.2762C1.1112 37.169 1.02317 37.0746 1 36.8952C1.06695 36.7061 1.23393 36.6213 1.39969 36.5191C2.23275 36.0056 3.15032 35.5899 4.00865 35.1147C6.8438 33.5451 9.70854 32.0371 12.5275 30.4363C11.9573 29.3409 11.268 28.2995 10.6219 27.2471C9.67294 25.7014 8.76126 24.1345 7.8016 22.5946C7.18498 21.6051 6.49919 20.6364 5.91406 19.6304C5.82283 19.4736 5.7319 19.2918 5.7115 19.1094C5.70208 19.0251 5.71468 18.8859 5.78373 18.8268C5.92108 18.7092 6.34942 18.7102 6.53277 18.7096C7.72906 18.7061 8.94484 18.8352 10.1421 18.8899C13.1969 19.0185 16.2495 19.1857 19.3 19.3916C19.2962 17.9924 19.187 16.605 19.1058 15.2093L18.8722 10.7492C18.8344 10.069 18.5202 6.39803 18.6827 5.97056C18.7194 5.87386 18.8324 5.77891 18.9289 5.75319C19.0906 5.71004 19.2564 5.79818 19.3955 5.86835C19.8 6.07242 20.1857 6.32675 20.5744 6.56015L22.6631 7.81327L27.1199 10.4473C28.2173 11.0971 29.3072 11.7637 30.4205 12.3854L34.2361 5.43024C34.6839 4.61464 36.2987 1.4484 36.7927 1ZM36.8925 2.63828C36.1793 3.78913 35.5519 4.99303 34.9015 6.18013L32.666 10.2235C32.213 11.0533 31.3256 12.9908 30.7316 13.5862C30.1385 13.374 29.5621 12.9989 29.022 12.6771L26.7775 11.323L23.2273 9.22386C22.0203 8.50561 20.8221 7.76879 19.5964 7.08274C19.5639 8.14004 19.7091 9.28668 19.7718 10.3498L20.124 16.4491C20.1978 17.6193 20.3841 19.136 20.2045 20.2751C19.407 20.4535 17.6696 20.2327 16.7771 20.188L10.6316 19.879C9.47369 19.8195 8.31314 19.7242 7.15356 19.7176C8.67917 22.3873 10.3521 24.9726 11.9351 27.609C12.4707 28.5012 13.1073 29.3762 13.5661 30.3092C13.6517 30.4834 13.679 30.6069 13.6689 30.8016C13.5581 30.9717 13.3428 31.0954 13.1718 31.2009C12.1918 31.8061 11.1491 32.32 10.1371 32.8686L5.12786 35.5899C4.31217 36.0273 3.40579 36.4244 2.65163 36.9622C3.40681 37.335 4.12774 37.7817 4.85999 38.1977L8.11203 40.0158L11.6719 41.9701C12.2454 42.29 13.2049 42.7449 13.6535 43.2027C13.202 44.5119 12.3072 45.7475 11.5935 46.928L8.79939 51.5962C8.24837 52.5105 7.65153 53.4114 7.14245 54.3492L14.7396 53.9424C16.2973 53.8434 17.8868 53.6484 19.4465 53.6558C19.668 53.6567 19.9854 53.6365 20.1603 53.7962C20.3036 53.9272 20.2315 55.3326 20.2214 55.6296C20.1821 56.7826 20.0854 57.9355 20.016 59.087L19.7691 63.7723C19.7159 64.8128 19.6166 65.8662 19.6338 66.9074C21.4941 65.6898 23.5495 64.55 25.4696 63.3929C26.3085 62.8956 27.1425 62.3901 27.9714 61.8763C28.5767 61.4989 29.1718 61.0906 29.7974 60.7486C30.0945 60.5862 30.4056 60.3749 30.7527 60.3792C30.9039 60.4389 31.0705 60.7437 31.155 60.8833C31.7228 61.8221 32.2114 62.8275 32.7389 63.791L36.1531 70.0098C36.269 70.2193 36.9139 71.3475 36.933 71.3502C36.9505 71.3526 36.9657 71.3369 36.9821 71.3303L36.9953 71.3068C37.4649 70.4958 37.8965 69.6636 38.3508 68.8439L42.2817 61.791C42.4719 61.4517 42.6503 61.092 42.8638 60.7674C42.9597 60.6216 43.0972 60.4076 43.2652 60.3501C43.3988 60.3688 43.5143 60.4088 43.6343 60.4718C44.1577 60.7467 44.6629 61.089 45.1682 61.3986C46.1371 61.9893 47.1029 62.5853 48.0654 63.1865C50.1008 64.4542 52.1711 65.6799 54.1771 66.9932C54.1761 65.6772 54.1024 64.363 54.0447 63.0486C53.9801 61.4202 53.9072 59.7922 53.826 58.1645C53.7655 56.9379 53.6205 55.473 53.674 54.2583C53.6819 54.0798 53.7094 53.9464 53.8059 53.7961C53.9635 53.6988 54.2763 53.6966 54.4614 53.6947C55.6297 53.6832 56.8314 53.8069 57.9977 53.8819C59.8174 53.9995 61.6376 54.1071 63.4584 54.2047C64.5664 54.2671 65.6828 54.3584 66.7924 54.3674L61.7355 45.9261C61.376 45.3163 60.3996 43.9357 60.2716 43.3195C60.4055 43.1371 60.6151 42.9937 60.8051 42.8739C61.5314 42.4155 62.3225 42.0264 63.0721 41.6052C65.8498 40.0441 68.7097 38.604 71.4275 36.9401C69.1997 35.8274 67.0321 34.5788 64.8528 33.3722C63.528 32.6389 62.1525 31.9592 60.8577 31.1761C60.6992 31.0802 60.3599 30.8957 60.2896 30.7262C60.276 30.5332 60.3098 30.4162 60.3929 30.2432C60.7977 29.4012 61.3823 28.6069 61.8772 27.8135C62.9373 26.1141 63.9558 24.3814 64.9946 22.6684C65.5832 21.6976 66.278 20.7362 66.7482 19.7036C63.9938 19.8024 61.2401 19.9175 58.487 20.049C57.084 20.1189 55.6477 20.2627 54.2447 20.2473C54.0593 20.2453 53.8964 20.2349 53.7319 20.1406C53.6324 19.9559 53.6287 19.6234 53.6292 19.4136C53.6303 18.874 53.6809 18.3276 53.7107 17.7883L53.84 15.2236L54.2397 6.97289C51.4877 8.54417 48.8209 10.2815 46.1098 11.9241C45.3333 12.3947 44.5886 12.9379 43.789 13.3668C43.6522 13.4403 43.4034 13.5816 43.2489 13.5296C43.087 13.4752 42.9694 13.3158 42.877 13.1802C42.211 12.202 41.5787 10.922 41.0048 9.8724C40.0802 8.17696 39.1424 6.4889 38.1914 4.80822C37.9116 4.30699 37.2509 2.96649 36.8925 2.63828Z" fill="#4D4D4D" fill-opacity="0.5"/>
<path d="M43.5476 26.7283C43.8554 26.8277 44.065 26.9737 44.3121 27.1741C43.8537 27.954 43.2907 28.6579 42.761 29.3886C42.1146 30.2913 41.4733 31.1976 40.8371 32.1074L34.1699 41.7894C33.7387 42.4217 30.8653 46.7879 30.5419 47.0211C30.5286 47.024 30.5154 47.0275 30.502 47.0298C30.329 47.0598 30.1567 47.0224 30.0128 46.9187C29.9118 46.8458 29.8565 46.7481 29.845 46.6245C29.8237 46.3961 30.0132 46.1114 30.1313 45.9226C30.891 44.7073 31.7855 43.5635 32.5925 42.3772C34.4447 39.6132 36.3236 36.8674 38.2291 34.1399C39.4042 32.4597 40.5894 30.7868 41.7848 29.1212C42.3336 28.3584 42.9295 27.4191 43.5476 26.7283Z" fill="#4D4D4D" fill-opacity="0.5"/>
<path d="M30.6955 25.8472C32.0091 25.7639 33.4517 26.2181 34.4537 27.0804C35.626 28.0892 36.2209 29.4357 36.3273 30.9661C36.4242 32.3599 35.9202 33.702 35.0087 34.7461C34.057 35.8363 32.7913 36.3853 31.3614 36.4849C31.2774 36.4898 31.1932 36.4927 31.109 36.4936C31.0248 36.4946 30.9407 36.4936 30.8566 36.4906C30.7724 36.4876 30.6884 36.4827 30.6045 36.4758C30.5206 36.469 30.4369 36.4602 30.3534 36.4494C30.2698 36.4386 30.1866 36.426 30.1038 36.4113C30.0208 36.3967 29.9383 36.3802 29.8562 36.3617C29.774 36.3432 29.6923 36.3228 29.6111 36.3006C29.5299 36.2784 29.4492 36.2543 29.3691 36.2282C29.289 36.2022 29.2095 36.1744 29.1307 36.1447C29.0519 36.115 28.9738 36.0835 28.8964 36.0502C28.8191 36.0168 28.7425 35.9817 28.6668 35.9448C28.591 35.908 28.5162 35.8694 28.4423 35.829C28.3683 35.7887 28.2953 35.7466 28.2232 35.7028C28.1513 35.6591 28.0803 35.6137 28.0103 35.5667C27.9404 35.5196 27.8716 35.471 27.8039 35.4207C27.7362 35.3705 27.6697 35.3187 27.6045 35.2654C27.5384 35.2122 27.4737 35.1573 27.4104 35.1008C27.3471 35.0443 27.2852 34.9862 27.2248 34.9266C27.1644 34.867 27.1056 34.8059 27.0483 34.7433C26.9909 34.6808 26.9352 34.6168 26.8811 34.5514C26.8269 34.486 26.7745 34.4193 26.7237 34.3512C26.6729 34.2832 26.6238 34.2139 26.5765 34.1434C26.5292 34.0729 26.4837 34.0012 26.4399 33.9285C26.3961 33.8557 26.3543 33.7818 26.3142 33.7069C26.2742 33.632 26.2361 33.5561 26.1998 33.4793C26.1636 33.4024 26.1293 33.3247 26.0969 33.2461C26.0646 33.1676 26.0342 33.0883 26.0059 33.0082C25.9775 32.9281 25.9511 32.8473 25.9268 32.7659C25.9024 32.6844 25.8801 32.6025 25.8599 32.52C25.8397 32.4374 25.8215 32.3544 25.8054 32.2709C25.7894 32.1874 25.7754 32.1036 25.7636 32.0195C25.7517 31.9353 25.7419 31.8509 25.7342 31.7662C25.593 30.3387 25.9751 28.9108 26.8924 27.7985C27.8762 26.6053 29.176 25.9936 30.6955 25.8472ZM30.7336 26.7809C29.4494 26.9567 28.3219 27.4754 27.5243 28.5323C26.803 29.4881 26.5211 30.668 26.6949 31.8505C26.8672 33.0234 27.4626 33.9657 28.4115 34.6656C29.3034 35.3234 30.341 35.5881 31.4388 35.5662C32.6339 35.4046 33.7531 34.8552 34.4973 33.8838C34.5422 33.825 34.5856 33.7651 34.6275 33.7042C34.6693 33.6433 34.7097 33.5814 34.7486 33.5184C34.7874 33.4555 34.8247 33.3917 34.8604 33.3269C34.8961 33.2621 34.9302 33.1965 34.9626 33.13C34.9951 33.0636 35.0259 32.9963 35.055 32.9283C35.0842 32.8603 35.1116 32.7916 35.1374 32.7223C35.1631 32.6529 35.1872 32.5829 35.2094 32.5124C35.2317 32.4418 35.2523 32.3708 35.2711 32.2992C35.2899 32.2276 35.3069 32.1556 35.3221 32.0832C35.3374 32.0107 35.3509 31.938 35.3625 31.8649C35.3741 31.7918 35.384 31.7185 35.3921 31.6449C35.4001 31.5713 35.4063 31.4976 35.4107 31.4237C35.4151 31.3498 35.4176 31.2758 35.4184 31.2018C35.4191 31.1278 35.4181 31.0538 35.4152 30.9798C35.4123 30.9059 35.4076 30.8321 35.401 30.7583C35.3944 30.6846 35.3861 30.6111 35.3759 30.5377C35.215 29.4067 34.6516 28.3863 33.7367 27.6984C32.9357 27.0959 31.7469 26.6452 30.7336 26.7809Z" fill="#4D4D4D" fill-opacity="0.5"/>
<path d="M42.5452 37.3786C43.6954 37.2234 44.9822 37.7011 45.9052 38.3648C45.9764 38.417 46.0464 38.4709 46.115 38.5265C46.1836 38.5821 46.2509 38.6393 46.3167 38.6982C46.3825 38.7571 46.4469 38.8176 46.5097 38.8797C46.5726 38.9418 46.634 39.0054 46.6938 39.0705C46.7535 39.1355 46.8117 39.202 46.8682 39.27C46.9247 39.3379 46.9796 39.4072 47.0328 39.4777C47.0859 39.5484 47.1373 39.6203 47.187 39.6934C47.2367 39.7666 47.2845 39.8409 47.3305 39.9164C47.3766 39.9919 47.4208 40.0685 47.4631 40.1461C47.5053 40.2238 47.5457 40.3025 47.5842 40.3821C47.6227 40.4617 47.6592 40.5422 47.6937 40.6237C47.7283 40.7051 47.7608 40.7873 47.7914 40.8704C47.8219 40.9534 47.8504 41.0372 47.8768 41.1216C47.9033 41.206 47.9277 41.291 47.95 41.3767C47.9723 41.4623 47.9925 41.5484 48.0107 41.635C48.0288 41.7217 48.0448 41.8087 48.0586 41.8961C48.2855 43.3457 47.9736 44.7562 47.1013 45.94C46.0876 47.316 44.7783 47.8998 43.1287 48.1474C41.7482 48.1701 40.4345 47.8073 39.3621 46.9109C39.2949 46.8552 39.229 46.7979 39.1646 46.739C39.1002 46.6801 39.0372 46.6197 38.9757 46.5577C38.9142 46.4957 38.8543 46.4322 38.7959 46.3672C38.7375 46.3023 38.6807 46.236 38.6256 46.1682C38.5704 46.1005 38.5169 46.0314 38.4651 45.9611C38.4134 45.8907 38.3634 45.8191 38.3151 45.7463C38.2668 45.6734 38.2203 45.5995 38.1757 45.5244C38.131 45.4493 38.0882 45.3731 38.0472 45.2959C38.0063 45.2186 37.9672 45.1405 37.9301 45.0613C37.893 44.9822 37.8578 44.9022 37.8246 44.8213C37.7913 44.7405 37.7601 44.6588 37.7309 44.5764C37.7017 44.494 37.6744 44.4109 37.6493 44.3272C37.6241 44.2434 37.601 44.1591 37.5799 44.0743C37.5588 43.9894 37.5398 43.9041 37.5229 43.8182C37.5061 43.7324 37.4913 43.6462 37.4786 43.5597C37.4659 43.4732 37.4554 43.3864 37.4469 43.2993C37.438 43.2098 37.4314 43.12 37.427 43.0301C37.4227 42.9402 37.4205 42.8502 37.4206 42.7602C37.4207 42.6702 37.4231 42.5802 37.4277 42.4903C37.4323 42.4004 37.4391 42.3107 37.4482 42.2211C37.4573 42.1316 37.4687 42.0423 37.4822 41.9534C37.4957 41.8643 37.5115 41.7757 37.5294 41.6875C37.5474 41.5994 37.5676 41.5117 37.5899 41.4245C37.6123 41.3373 37.6368 41.2508 37.6635 41.1648C37.6901 41.0788 37.7189 40.9936 37.7498 40.9092C37.7807 40.8246 37.8138 40.741 37.8489 40.6582C37.884 40.5753 37.9211 40.4934 37.9603 40.4124C37.9995 40.3314 38.0407 40.2515 38.0838 40.1726C38.127 40.0937 38.1722 40.0159 38.2192 39.9393C38.2663 39.8627 38.3152 39.7873 38.366 39.7131C38.4169 39.6389 38.4695 39.5661 38.524 39.4945C38.5785 39.423 38.6347 39.3529 38.6927 39.2842C39.689 38.1033 41.025 37.5026 42.5452 37.3786ZM42.4668 38.3509C41.2475 38.4843 40.1257 38.994 39.3493 39.9701C38.6051 40.9059 38.246 42.0708 38.3801 43.2656C38.3883 43.338 38.3983 43.4103 38.4101 43.4823C38.4219 43.5542 38.4354 43.6259 38.4507 43.6972C38.4659 43.7686 38.4829 43.8395 38.5017 43.91C38.5205 43.9805 38.5409 44.0504 38.5631 44.1199C38.5853 44.1894 38.6091 44.2583 38.6347 44.3266C38.6602 44.3949 38.6874 44.4626 38.7162 44.5295C38.7451 44.5965 38.7756 44.6627 38.8077 44.7282C38.8398 44.7936 38.8735 44.8583 38.9087 44.9221C38.944 44.9859 38.9808 45.0488 39.0191 45.1107C39.0574 45.1728 39.0973 45.2338 39.1386 45.2938C39.1799 45.3538 39.2227 45.4128 39.2669 45.4708C39.3111 45.5287 39.3567 45.5855 39.4037 45.6411C39.4507 45.6968 39.499 45.7513 39.5487 45.8046C39.5983 45.8579 39.6492 45.9099 39.7014 45.9607C39.7536 46.0115 39.807 46.061 39.8616 46.1091C39.9163 46.1573 39.972 46.2041 40.0289 46.2495C40.9698 46.9905 41.9909 47.2475 43.1729 47.204C44.5631 46.9765 45.6042 46.3944 46.4365 45.2363C47.108 44.3017 47.329 43.1676 47.1358 42.0373C46.9372 40.8753 46.3166 39.8206 45.3487 39.1424C44.5558 38.5868 43.4402 38.2214 42.4668 38.3509Z" fill="#4D4D4D" fill-opacity="0.5"/>
<path d="M36.7927 1C36.8686 1.00246 36.9431 1.00272 37.0157 1.02941C37.154 1.08025 37.2213 1.20081 37.2964 1.31822C37.9188 2.29192 38.4428 3.36125 39.0118 4.37042L43.5048 12.4157C45.6237 11.0881 47.7927 9.8354 49.9265 8.53099C51.3029 7.68964 52.6399 6.77281 54.0363 5.96597C54.2249 5.85702 54.5808 5.63223 54.7977 5.62493C54.9037 5.62135 55.0425 5.66558 55.1119 5.75059C55.1932 5.85006 55.1918 6.29949 55.1908 6.43585C55.1812 7.78234 55.0687 9.14531 55.0025 10.4914C54.8518 13.4221 54.7163 16.3535 54.596 19.2857C55.9909 19.2604 57.3973 19.154 58.791 19.0794L63.287 18.8667C64.63 18.7955 66.0048 18.6486 67.3485 18.6954C67.5644 18.7029 67.775 18.731 67.9788 18.8057C68.0296 18.8653 68.058 18.9045 68.0798 18.9816C68.128 19.1511 68.0558 19.3702 67.9815 19.5211C67.8102 19.869 67.5761 20.205 67.3739 20.5368L66.1629 22.5244L63.1844 27.453C62.5921 28.4351 61.9736 29.4091 61.4197 30.4133C62.6774 31.1918 72.8032 36.5528 72.9628 36.779C73.0072 36.842 73.007 36.9854 72.9875 37.0572C72.9573 37.1684 72.8685 37.2319 72.7782 37.2923C72.4664 37.5011 72.1133 37.6606 71.783 37.8385C71.342 38.0804 70.9056 38.3302 70.4738 38.588C67.483 40.3027 64.4685 41.9744 61.4303 43.6031C61.9984 44.5513 62.5427 45.5138 63.1135 46.4602C63.6579 47.3628 68.1591 54.5843 68.1378 55.0219C68.1326 55.1295 68.0912 55.2071 68.0152 55.28C67.9018 55.3889 67.4641 55.3759 67.302 55.3732C65.6555 55.3455 63.9863 55.1823 62.3422 55.0771C59.7779 54.9048 57.2116 54.7706 54.6434 54.6744C54.6046 55.7511 54.7089 56.8658 54.75 57.9445L55.0168 64.3748C55.0501 65.1135 55.0622 65.8483 55.0843 66.5867C55.096 66.9794 55.1318 67.3805 55.113 67.7728C55.1066 67.9103 55.0941 68.0632 55.0229 68.1843C54.9789 68.2591 54.9079 68.3011 54.822 68.318C54.6793 68.3458 54.5104 68.2773 54.3873 68.2102C53.3854 67.6645 52.3246 66.8991 51.334 66.2872C48.7289 64.678 46.1286 63.0566 43.5028 61.4822C42.1155 64.0847 40.6462 66.6467 39.2198 69.2281C38.8442 69.9045 38.472 70.5826 38.1031 71.2627C37.7923 71.8375 37.5012 72.4869 37.0741 72.9842C36.9987 72.9963 36.9329 73.0103 36.8571 72.9889C36.722 72.9507 36.6599 72.8438 36.5896 72.7319C36.3087 72.2845 36.0776 71.807 35.8261 71.3428L34.6425 69.1824L30.4423 61.5627C29.4605 61.9958 28.2423 62.8235 27.3104 63.3888L21.6298 66.7814C21.1469 67.067 20.6672 67.3579 20.1907 67.6541C19.9186 67.8247 19.6536 68.0236 19.3709 68.1745C19.2691 68.2289 19.1525 68.2728 19.0356 68.2727C18.9244 68.2727 18.8413 68.2283 18.766 68.1505C18.633 68.0131 18.6571 67.6993 18.6575 67.5135C18.66 66.503 18.7671 65.4727 18.8189 64.4616L19.1282 58.4489C19.1952 57.1746 19.286 55.8948 19.3052 54.6187C18.2333 54.6586 17.1601 54.7385 16.0889 54.7991L10.4687 55.1259C9.23244 55.2047 7.97868 55.3414 6.74216 55.3642C6.50299 55.3686 6.1532 55.3799 5.93522 55.2799C5.86992 55.2098 5.82503 55.1578 5.80528 55.0591C5.75754 54.8206 5.91644 54.556 6.02216 54.3536C6.55836 53.327 7.24856 52.3678 7.84078 51.3712L12.4927 43.5904C11.5491 42.8979 10.1778 42.2287 9.12595 41.6571L3.75322 38.7185C3.23456 38.4331 2.73259 38.1304 2.22231 37.8333C1.90107 37.6463 1.55201 37.5009 1.25347 37.2762C1.1112 37.169 1.02317 37.0746 1 36.8952C1.06695 36.7061 1.23393 36.6213 1.39969 36.5191C2.23275 36.0056 3.15032 35.5899 4.00865 35.1147C6.8438 33.5451 9.70854 32.0371 12.5275 30.4363C11.9573 29.3409 11.268 28.2995 10.6219 27.2471C9.67294 25.7014 8.76126 24.1345 7.8016 22.5946C7.18498 21.6051 6.49919 20.6364 5.91406 19.6304C5.82283 19.4736 5.7319 19.2918 5.7115 19.1094C5.70208 19.0251 5.71468 18.8859 5.78373 18.8268C5.92108 18.7092 6.34942 18.7102 6.53277 18.7096C7.72906 18.7061 8.94484 18.8352 10.1421 18.8899C13.1969 19.0185 16.2495 19.1857 19.3 19.3916C19.2962 17.9924 19.187 16.605 19.1058 15.2093L18.8722 10.7492C18.8344 10.069 18.5202 6.39803 18.6827 5.97056C18.7194 5.87386 18.8324 5.77891 18.9289 5.75319C19.0906 5.71004 19.2564 5.79818 19.3955 5.86835C19.8 6.07242 20.1857 6.32675 20.5744 6.56015L22.6631 7.81327L27.1199 10.4473C28.2173 11.0971 29.3072 11.7637 30.4205 12.3854L34.2361 5.43024C34.6839 4.61464 36.2987 1.4484 36.7927 1ZM36.8925 2.63828C36.1793 3.78913 35.5519 4.99303 34.9015 6.18013L32.666 10.2235C32.213 11.0533 31.3256 12.9908 30.7316 13.5862C30.1385 13.374 29.5621 12.9989 29.022 12.6771L26.7775 11.323L23.2273 9.22386C22.0203 8.50561 20.8221 7.76879 19.5964 7.08274C19.5639 8.14004 19.7091 9.28668 19.7718 10.3498L20.124 16.4491C20.1978 17.6193 20.3841 19.136 20.2045 20.2751C19.407 20.4535 17.6696 20.2327 16.7771 20.188L10.6316 19.879C9.47369 19.8195 8.31314 19.7242 7.15356 19.7176C8.67917 22.3873 10.3521 24.9726 11.9351 27.609C12.4707 28.5012 13.1073 29.3762 13.5661 30.3092C13.6517 30.4834 13.679 30.6069 13.6689 30.8016C13.5581 30.9717 13.3428 31.0954 13.1718 31.2009C12.1918 31.8061 11.1491 32.32 10.1371 32.8686L5.12786 35.5899C4.31217 36.0273 3.40579 36.4244 2.65163 36.9622C3.40681 37.335 4.12774 37.7817 4.85999 38.1977L8.11203 40.0158L11.6719 41.9701C12.2454 42.29 13.2049 42.7449 13.6535 43.2027C13.202 44.5119 12.3072 45.7475 11.5935 46.928L8.79939 51.5962C8.24837 52.5105 7.65153 53.4114 7.14245 54.3492L14.7396 53.9424C16.2973 53.8434 17.8868 53.6484 19.4465 53.6558C19.668 53.6567 19.9854 53.6365 20.1603 53.7962C20.3036 53.9272 20.2315 55.3326 20.2214 55.6296C20.1821 56.7826 20.0854 57.9355 20.016 59.087L19.7691 63.7723C19.7159 64.8128 19.6166 65.8662 19.6338 66.9074C21.4941 65.6898 23.5495 64.55 25.4696 63.3929C26.3085 62.8956 27.1425 62.3901 27.9714 61.8763C28.5767 61.4989 29.1718 61.0906 29.7974 60.7486C30.0945 60.5862 30.4056 60.3749 30.7527 60.3792C30.9039 60.4389 31.0705 60.7437 31.155 60.8833C31.7228 61.8221 32.2114 62.8275 32.7389 63.791L36.1531 70.0098C36.269 70.2193 36.9139 71.3475 36.933 71.3502C36.9505 71.3526 36.9657 71.3369 36.9821 71.3303L36.9953 71.3068C37.4649 70.4958 37.8965 69.6636 38.3508 68.8439L42.2817 61.791C42.4719 61.4517 42.6503 61.092 42.8638 60.7674C42.9597 60.6216 43.0972 60.4076 43.2652 60.3501C43.3988 60.3688 43.5143 60.4088 43.6343 60.4718C44.1577 60.7467 44.6629 61.089 45.1682 61.3986C46.1371 61.9893 47.1029 62.5853 48.0654 63.1865C50.1008 64.4542 52.1711 65.6799 54.1771 66.9932C54.1761 65.6772 54.1024 64.363 54.0447 63.0486C53.9801 61.4202 53.9072 59.7922 53.826 58.1645C53.7655 56.9379 53.6205 55.473 53.674 54.2583C53.6819 54.0798 53.7094 53.9464 53.8059 53.7961C53.9635 53.6988 54.2763 53.6966 54.4614 53.6947C55.6297 53.6832 56.8314 53.8069 57.9977 53.8819C59.8174 53.9995 61.6376 54.1071 63.4584 54.2047C64.5664 54.2671 65.6828 54.3584 66.7924 54.3674L61.7355 45.9261C61.376 45.3163 60.3996 43.9357 60.2716 43.3195C60.4055 43.1371 60.6151 42.9937 60.8051 42.8739C61.5314 42.4155 62.3225 42.0264 63.0721 41.6052C65.8498 40.0441 68.7097 38.604 71.4275 36.9401C69.1997 35.8274 67.0321 34.5788 64.8528 33.3722C63.528 32.6389 62.1525 31.9592 60.8577 31.1761C60.6992 31.0802 60.3599 30.8957 60.2896 30.7262C60.276 30.5332 60.3098 30.4162 60.3929 30.2432C60.7977 29.4012 61.3823 28.6069 61.8772 27.8135C62.9373 26.1141 63.9558 24.3814 64.9946 22.6684C65.5832 21.6976 66.278 20.7362 66.7482 19.7036C63.9938 19.8024 61.2401 19.9175 58.487 20.049C57.084 20.1189 55.6477 20.2627 54.2447 20.2473C54.0593 20.2453 53.8964 20.2349 53.7319 20.1406C53.6324 19.9559 53.6287 19.6234 53.6292 19.4136C53.6303 18.874 53.6809 18.3276 53.7107 17.7883L53.84 15.2236L54.2397 6.97289C51.4877 8.54417 48.8209 10.2815 46.1098 11.9241C45.3333 12.3947 44.5886 12.9379 43.789 13.3668C43.6522 13.4403 43.4034 13.5816 43.2489 13.5296C43.087 13.4752 42.9694 13.3158 42.877 13.1802C42.211 12.202 41.5787 10.922 41.0048 9.8724C40.0802 8.17696 39.1424 6.4889 38.1914 4.80822C37.9116 4.30699 37.2509 2.96649 36.8925 2.63828Z" stroke="#4D4D4D" stroke-opacity="0.5" stroke-width="0.5" mask="url(#path-1-outside-1_411_551)"/>
<path d="M43.5476 26.7283C43.8554 26.8277 44.065 26.9737 44.3121 27.1741C43.8537 27.954 43.2907 28.6579 42.761 29.3886C42.1146 30.2913 41.4733 31.1976 40.8371 32.1074L34.1699 41.7894C33.7387 42.4217 30.8653 46.7879 30.5419 47.0211C30.5286 47.024 30.5154 47.0275 30.502 47.0298C30.329 47.0598 30.1567 47.0224 30.0128 46.9187C29.9118 46.8458 29.8565 46.7481 29.845 46.6245C29.8237 46.3961 30.0132 46.1114 30.1313 45.9226C30.891 44.7073 31.7855 43.5635 32.5925 42.3772C34.4447 39.6132 36.3236 36.8674 38.2291 34.1399C39.4042 32.4597 40.5894 30.7868 41.7848 29.1212C42.3336 28.3584 42.9295 27.4191 43.5476 26.7283Z" stroke="#4D4D4D" stroke-opacity="0.5" stroke-width="0.5" mask="url(#path-1-outside-1_411_551)"/>
<path d="M30.6955 25.8472C32.0091 25.7639 33.4517 26.2181 34.4537 27.0804C35.626 28.0892 36.2209 29.4357 36.3273 30.9661C36.4242 32.3599 35.9202 33.702 35.0087 34.7461C34.057 35.8363 32.7913 36.3853 31.3614 36.4849C31.2774 36.4898 31.1932 36.4927 31.109 36.4936C31.0248 36.4946 30.9407 36.4936 30.8566 36.4906C30.7724 36.4876 30.6884 36.4827 30.6045 36.4758C30.5206 36.469 30.4369 36.4602 30.3534 36.4494C30.2698 36.4386 30.1866 36.426 30.1038 36.4113C30.0208 36.3967 29.9383 36.3802 29.8562 36.3617C29.774 36.3432 29.6923 36.3228 29.6111 36.3006C29.5299 36.2784 29.4492 36.2543 29.3691 36.2282C29.289 36.2022 29.2095 36.1744 29.1307 36.1447C29.0519 36.115 28.9738 36.0835 28.8964 36.0502C28.8191 36.0168 28.7425 35.9817 28.6668 35.9448C28.591 35.908 28.5162 35.8694 28.4423 35.829C28.3683 35.7887 28.2953 35.7466 28.2232 35.7028C28.1513 35.6591 28.0803 35.6137 28.0103 35.5667C27.9404 35.5196 27.8716 35.471 27.8039 35.4207C27.7362 35.3705 27.6697 35.3187 27.6045 35.2654C27.5384 35.2122 27.4737 35.1573 27.4104 35.1008C27.3471 35.0443 27.2852 34.9862 27.2248 34.9266C27.1644 34.867 27.1056 34.8059 27.0483 34.7433C26.9909 34.6808 26.9352 34.6168 26.8811 34.5514C26.8269 34.486 26.7745 34.4193 26.7237 34.3512C26.6729 34.2832 26.6238 34.2139 26.5765 34.1434C26.5292 34.0729 26.4837 34.0012 26.4399 33.9285C26.3961 33.8557 26.3543 33.7818 26.3142 33.7069C26.2742 33.632 26.2361 33.5561 26.1998 33.4793C26.1636 33.4024 26.1293 33.3247 26.0969 33.2461C26.0646 33.1676 26.0342 33.0883 26.0059 33.0082C25.9775 32.9281 25.9511 32.8473 25.9268 32.7659C25.9024 32.6844 25.8801 32.6025 25.8599 32.52C25.8397 32.4374 25.8215 32.3544 25.8054 32.2709C25.7894 32.1874 25.7754 32.1036 25.7636 32.0195C25.7517 31.9353 25.7419 31.8509 25.7342 31.7662C25.593 30.3387 25.9751 28.9108 26.8924 27.7985C27.8762 26.6053 29.176 25.9936 30.6955 25.8472ZM30.7336 26.7809C29.4494 26.9567 28.3219 27.4754 27.5243 28.5323C26.803 29.4881 26.5211 30.668 26.6949 31.8505C26.8672 33.0234 27.4626 33.9657 28.4115 34.6656C29.3034 35.3234 30.341 35.5881 31.4388 35.5662C32.6339 35.4046 33.7531 34.8552 34.4973 33.8838C34.5422 33.825 34.5856 33.7651 34.6275 33.7042C34.6693 33.6433 34.7097 33.5814 34.7486 33.5184C34.7874 33.4555 34.8247 33.3917 34.8604 33.3269C34.8961 33.2621 34.9302 33.1965 34.9626 33.13C34.9951 33.0636 35.0259 32.9963 35.055 32.9283C35.0842 32.8603 35.1116 32.7916 35.1374 32.7223C35.1631 32.6529 35.1872 32.5829 35.2094 32.5124C35.2317 32.4418 35.2523 32.3708 35.2711 32.2992C35.2899 32.2276 35.3069 32.1556 35.3221 32.0832C35.3374 32.0107 35.3509 31.938 35.3625 31.8649C35.3741 31.7918 35.384 31.7185 35.3921 31.6449C35.4001 31.5713 35.4063 31.4976 35.4107 31.4237C35.4151 31.3498 35.4176 31.2758 35.4184 31.2018C35.4191 31.1278 35.4181 31.0538 35.4152 30.9798C35.4123 30.9059 35.4076 30.8321 35.401 30.7583C35.3944 30.6846 35.3861 30.6111 35.3759 30.5377C35.215 29.4067 34.6516 28.3863 33.7367 27.6984C32.9357 27.0959 31.7469 26.6452 30.7336 26.7809Z" stroke="#4D4D4D" stroke-opacity="0.5" stroke-width="0.5" mask="url(#path-1-outside-1_411_551)"/>
<path d="M42.5452 37.3786C43.6954 37.2234 44.9822 37.7011 45.9052 38.3648C45.9764 38.417 46.0464 38.4709 46.115 38.5265C46.1836 38.5821 46.2509 38.6393 46.3167 38.6982C46.3825 38.7571 46.4469 38.8176 46.5097 38.8797C46.5726 38.9418 46.634 39.0054 46.6938 39.0705C46.7535 39.1355 46.8117 39.202 46.8682 39.27C46.9247 39.3379 46.9796 39.4072 47.0328 39.4777C47.0859 39.5484 47.1373 39.6203 47.187 39.6934C47.2367 39.7666 47.2845 39.8409 47.3305 39.9164C47.3766 39.9919 47.4208 40.0685 47.4631 40.1461C47.5053 40.2238 47.5457 40.3025 47.5842 40.3821C47.6227 40.4617 47.6592 40.5422 47.6937 40.6237C47.7283 40.7051 47.7608 40.7873 47.7914 40.8704C47.8219 40.9534 47.8504 41.0372 47.8768 41.1216C47.9033 41.206 47.9277 41.291 47.95 41.3767C47.9723 41.4623 47.9925 41.5484 48.0107 41.635C48.0288 41.7217 48.0448 41.8087 48.0586 41.8961C48.2855 43.3457 47.9736 44.7562 47.1013 45.94C46.0876 47.316 44.7783 47.8998 43.1287 48.1474C41.7482 48.1701 40.4345 47.8073 39.3621 46.9109C39.2949 46.8552 39.229 46.7979 39.1646 46.739C39.1002 46.6801 39.0372 46.6197 38.9757 46.5577C38.9142 46.4957 38.8543 46.4322 38.7959 46.3672C38.7375 46.3023 38.6807 46.236 38.6256 46.1682C38.5704 46.1005 38.5169 46.0314 38.4651 45.9611C38.4134 45.8907 38.3634 45.8191 38.3151 45.7463C38.2668 45.6734 38.2203 45.5995 38.1757 45.5244C38.131 45.4493 38.0882 45.3731 38.0472 45.2959C38.0063 45.2186 37.9672 45.1405 37.9301 45.0613C37.893 44.9822 37.8578 44.9022 37.8246 44.8213C37.7913 44.7405 37.7601 44.6588 37.7309 44.5764C37.7017 44.494 37.6744 44.4109 37.6493 44.3272C37.6241 44.2434 37.601 44.1591 37.5799 44.0743C37.5588 43.9894 37.5398 43.9041 37.5229 43.8182C37.5061 43.7324 37.4913 43.6462 37.4786 43.5597C37.4659 43.4732 37.4554 43.3864 37.4469 43.2993C37.438 43.2098 37.4314 43.12 37.427 43.0301C37.4227 42.9402 37.4205 42.8502 37.4206 42.7602C37.4207 42.6702 37.4231 42.5802 37.4277 42.4903C37.4323 42.4004 37.4391 42.3107 37.4482 42.2211C37.4573 42.1316 37.4687 42.0423 37.4822 41.9534C37.4957 41.8643 37.5115 41.7757 37.5294 41.6875C37.5474 41.5994 37.5676 41.5117 37.5899 41.4245C37.6123 41.3373 37.6368 41.2508 37.6635 41.1648C37.6901 41.0788 37.7189 40.9936 37.7498 40.9092C37.7807 40.8246 37.8138 40.741 37.8489 40.6582C37.884 40.5753 37.9211 40.4934 37.9603 40.4124C37.9995 40.3314 38.0407 40.2515 38.0838 40.1726C38.127 40.0937 38.1722 40.0159 38.2192 39.9393C38.2663 39.8627 38.3152 39.7873 38.366 39.7131C38.4169 39.6389 38.4695 39.5661 38.524 39.4945C38.5785 39.423 38.6347 39.3529 38.6927 39.2842C39.689 38.1033 41.025 37.5026 42.5452 37.3786ZM42.4668 38.3509C41.2475 38.4843 40.1257 38.994 39.3493 39.9701C38.6051 40.9059 38.246 42.0708 38.3801 43.2656C38.3883 43.338 38.3983 43.4103 38.4101 43.4823C38.4219 43.5542 38.4354 43.6259 38.4507 43.6972C38.4659 43.7686 38.4829 43.8395 38.5017 43.91C38.5205 43.9805 38.5409 44.0504 38.5631 44.1199C38.5853 44.1894 38.6091 44.2583 38.6347 44.3266C38.6602 44.3949 38.6874 44.4626 38.7162 44.5295C38.7451 44.5965 38.7756 44.6627 38.8077 44.7282C38.8398 44.7936 38.8735 44.8583 38.9087 44.9221C38.944 44.9859 38.9808 45.0488 39.0191 45.1107C39.0574 45.1728 39.0973 45.2338 39.1386 45.2938C39.1799 45.3538 39.2227 45.4128 39.2669 45.4708C39.3111 45.5287 39.3567 45.5855 39.4037 45.6411C39.4507 45.6968 39.499 45.7513 39.5487 45.8046C39.5983 45.8579 39.6492 45.9099 39.7014 45.9607C39.7536 46.0115 39.807 46.061 39.8616 46.1091C39.9163 46.1573 39.972 46.2041 40.0289 46.2495C40.9698 46.9905 41.9909 47.2475 43.1729 47.204C44.5631 46.9765 45.6042 46.3944 46.4365 45.2363C47.108 44.3017 47.329 43.1676 47.1358 42.0373C46.9372 40.8753 46.3166 39.8206 45.3487 39.1424C44.5558 38.5868 43.4402 38.2214 42.4668 38.3509Z" stroke="#4D4D4D" stroke-opacity="0.5" stroke-width="0.5" mask="url(#path-1-outside-1_411_551)"/>
</svg>
