<svg width="72" height="72" viewBox="0 0 72 72" fill="none" xmlns="http://www.w3.org/2000/svg">
<path d="M44.5123 0.00026146C44.9646 -0.00355582 45.4129 0.0336216 45.8515 0.164877C46.6279 0.397242 47.3703 0.902788 47.8743 1.61234C48.5 2.49309 48.9518 3.61952 49.4344 4.6081L51.8301 9.48647L58.2689 22.5064C59.294 24.5752 60.2773 26.6765 61.336 28.7232L63.7823 28.7292C65.5123 28.7311 67.1648 28.7284 68.4889 30.1755C69.0463 30.7846 69.4069 31.5395 69.5841 32.3885C69.8671 33.7436 69.7408 35.3472 69.7398 36.742C69.7381 38.8552 69.7237 40.97 69.7468 43.083C70.0161 43.0999 70.2902 43.1306 70.5517 43.2082C71.0605 43.3593 71.5024 43.7017 71.7597 44.2259C71.9699 44.6531 72.0098 45.1064 71.9982 45.5856C71.9815 46.2722 71.8525 46.9562 71.7597 47.6338C71.6355 48.5686 71.5159 49.5041 71.4007 50.4403L70.921 54.2994C70.8348 54.9932 70.7947 55.7777 70.6065 56.443C70.4309 57.0637 69.9583 57.4834 69.4709 57.7823C69.5764 58.0644 69.64 58.3221 69.6667 58.626C69.7425 59.4892 69.6879 60.4136 69.6874 61.2828C69.6866 62.7145 69.7084 64.1415 69.7234 65.5725C69.7424 67.3992 69.5975 69.0915 68.3983 70.4563C67.7512 71.1927 66.8861 71.7122 65.9703 71.8544C65.359 71.9494 64.7316 71.9307 64.1157 71.931L27.9624 71.9322L22.6904 71.9606C21.4644 71.9685 19.8789 72.1113 18.708 71.7991C18.6182 71.7761 18.5291 71.7496 18.4409 71.7197C18.3527 71.6897 18.2655 71.6564 18.1794 71.6197C18.0932 71.583 18.0083 71.543 17.9246 71.4996C17.8409 71.4563 17.7586 71.4098 17.6778 71.36C17.5969 71.3103 17.5176 71.2576 17.44 71.2017C17.3624 71.1458 17.2866 71.087 17.2126 71.0252C17.1386 70.9634 17.0666 70.8989 16.9965 70.8315C16.9265 70.7642 16.8586 70.6942 16.7929 70.6216C16.7205 70.5437 16.6504 70.4632 16.5828 70.38C16.5152 70.2968 16.4502 70.2111 16.3877 70.1229C16.3253 70.0348 16.2656 69.9444 16.2086 69.8517C16.1515 69.7591 16.0974 69.6643 16.046 69.5675C15.9947 69.4707 15.9463 69.372 15.9009 69.2716C15.8555 69.1711 15.8131 69.069 15.7738 68.9653C15.7346 68.8616 15.6984 68.7565 15.6655 68.6501C15.6325 68.5436 15.6028 68.4361 15.5763 68.3274C15.3133 67.2369 15.417 66.018 15.4174 64.8966C15.4214 63.5581 15.417 62.2196 15.4041 60.8811C15.0315 60.2332 14.7163 59.5461 14.3838 58.8717C13.8599 57.8261 13.3447 56.7751 12.8383 55.7186L8.68379 47.1668L2.92004 35.3727C2.48522 34.4607 2.04451 33.5523 1.59794 32.6475C1.23594 31.9145 0.855279 31.1863 0.538013 30.4268C0.471869 30.2724 0.411538 30.1152 0.35702 29.9552C0.302502 29.7951 0.253985 29.6328 0.211469 29.4682C0.168953 29.3037 0.132586 29.1374 0.102367 28.9695C0.0721437 28.8014 0.0481751 28.6323 0.0304614 28.4621C-0.101051 27.1115 0.190457 25.6576 0.959779 24.5897C1.30425 24.1116 1.72593 23.7765 2.20094 23.4793C2.82271 23.0903 3.48116 22.7629 4.11796 22.4055L22.8653 11.7387C27.9245 8.83647 32.9991 5.96837 38.0888 3.13445C39.6127 2.29945 41.0928 1.33837 42.6463 0.575211C43.2575 0.274942 43.8477 0.0746577 44.5123 0.00026146ZM60.6755 38.0147L21.8414 38.0304C20.116 38.03 18.3835 37.994 16.6591 38.0378C16.625 38.5721 16.643 39.1105 16.6437 39.6461C16.6382 40.4252 16.6366 41.2043 16.6388 41.9834L16.6483 49.381L16.6467 54.716C16.6463 55.6147 16.5762 56.5986 16.6775 57.4853L48.1601 57.4765L59.9536 57.4396C61.0791 57.4333 62.2046 57.4334 63.3301 57.4399C64.1261 57.446 64.9305 57.4857 65.7249 57.4262L54.6446 55.6435L51.5976 55.1665C50.6245 55.0169 49.6311 54.9092 48.6997 54.5403C47.5415 54.0815 46.522 53.2878 45.7768 52.1827C44.6612 50.5285 44.0834 48.4142 44.3527 46.3421C44.3606 46.2827 44.3692 46.2233 44.3784 46.164C44.3877 46.1048 44.3975 46.0457 44.408 45.9868C44.4185 45.9278 44.4296 45.869 44.4414 45.8104C44.4532 45.7517 44.4655 45.6932 44.4786 45.6349C44.4916 45.5766 44.5053 45.5185 44.5196 45.4605C44.5339 45.4026 44.5488 45.3449 44.5644 45.2874C44.5799 45.2298 44.5961 45.1725 44.6129 45.1154C44.6297 45.0583 44.6471 45.0015 44.6651 44.9449C44.6831 44.8883 44.7018 44.8319 44.721 44.7759C44.7403 44.7197 44.7601 44.6639 44.7805 44.6084C44.801 44.5528 44.822 44.4976 44.8437 44.4426C44.8653 44.3876 44.8876 44.3329 44.9104 44.2786C44.9333 44.2242 44.9567 44.1702 44.9806 44.1165C45.0047 44.0628 45.0293 44.0094 45.0544 43.9564C45.0796 43.9033 45.1053 43.8506 45.1316 43.7983C45.158 43.7459 45.1848 43.6939 45.2122 43.6423C45.2397 43.5907 45.2677 43.5395 45.2962 43.4887C45.3247 43.4379 45.3538 43.3874 45.3835 43.3374C45.4131 43.2873 45.4433 43.2377 45.4739 43.1885C45.5047 43.1393 45.5359 43.0905 45.5676 43.0422C45.5994 42.9938 45.6317 42.9459 45.6646 42.8985C45.6974 42.851 45.7307 42.804 45.7645 42.7574C45.7983 42.7109 45.8326 42.6648 45.8674 42.6193C45.9023 42.5736 45.9376 42.5285 45.9734 42.4839C46.0092 42.4392 46.0455 42.3951 46.0822 42.3515C46.1189 42.3078 46.1562 42.2647 46.1939 42.222C46.2316 42.1794 46.2697 42.1373 46.3083 42.0958C46.3469 42.0542 46.386 42.0131 46.4254 41.9726C46.4649 41.9322 46.5048 41.8922 46.5452 41.8528C46.5856 41.8134 46.6263 41.7745 46.6675 41.7362C46.7087 41.6979 46.7504 41.6602 46.7924 41.6231C46.8344 41.586 46.8768 41.5494 46.9196 41.5134C48.6469 40.0875 50.4024 39.9224 52.4491 40.287C53.8245 40.5322 55.2083 40.7178 56.5875 40.9339L64.4889 42.1848C65.824 42.3959 67.1804 42.5648 68.5081 42.8226C68.5245 41.2192 68.5285 39.6158 68.5202 38.0123C65.9115 37.9658 63.2846 37.965 60.6755 38.0147ZM39.5566 8.54871L19.2795 20.0198L12.947 23.6189C12.2435 24.0174 11.5372 24.4094 10.8281 24.795C10.5246 24.962 10.21 25.1812 9.89381 25.3047C9.88019 25.3101 9.86685 25.3164 9.85337 25.3222C10.0383 27.6225 9.97586 29.3946 8.60312 31.2584C8.18854 31.8213 7.68344 32.2876 7.16211 32.7196C8.1123 34.7427 9.14866 36.718 10.1315 38.7216L11.6713 41.8423C11.9776 42.4534 12.276 43.0822 12.624 43.664C13.3794 43.1642 14.574 42.7283 15.4208 42.3727C15.4381 41.9703 15.4449 41.5677 15.4412 41.1649L15.4338 36.1602C15.4278 34.8492 15.2927 33.3986 15.5597 32.1197C15.5801 32.0238 15.6034 31.9287 15.6295 31.8346C15.6556 31.7405 15.6845 31.6475 15.7161 31.5555C15.7478 31.4636 15.7822 31.373 15.8194 31.2836C15.8565 31.1943 15.8962 31.1065 15.9386 31.0201C15.981 30.9338 16.0259 30.8492 16.0733 30.7663C16.1207 30.6833 16.1706 30.6023 16.2229 30.5232C16.2752 30.4441 16.3298 30.367 16.3866 30.292C16.4436 30.2171 16.5027 30.1443 16.5639 30.0738C17.5672 28.9398 18.7319 28.6788 20.1028 28.6849L28.2021 28.7049L30.5201 28.7248C31.0105 28.7296 31.5387 28.7813 32.0227 28.6795C32.8154 28.5126 33.6477 27.8907 34.3621 27.4781L36.8858 26.0394C41.1691 23.6368 45.4416 21.2098 49.7032 18.7586C48.3355 15.9297 46.9315 13.1239 45.4913 10.341C43.7924 10.8126 42.2989 10.7035 40.7716 9.66583C40.3103 9.35238 39.9873 8.89503 39.5566 8.54871ZM44.8004 1.34843C44.2508 1.39848 43.781 1.5546 43.2786 1.80913C41.5144 2.70296 39.7998 3.73281 38.0677 4.70255L25.5264 11.8228L10.4936 20.3332L5.91486 22.9474C4.8075 23.5681 3.66463 24.156 2.57966 24.822C2.34362 24.9669 2.14228 25.1276 1.96557 25.3597C1.41667 26.0806 1.11912 27.2016 1.18815 28.1432C1.1972 28.2744 1.21146 28.4048 1.23093 28.5345C1.25041 28.6643 1.27502 28.7928 1.30476 28.92C1.33451 29.0473 1.36926 29.1727 1.40903 29.2965C1.4488 29.4202 1.49342 29.5417 1.5429 29.6609C1.99158 30.7553 2.56947 31.8136 3.07524 32.8796C4.50599 35.8583 5.95298 38.827 7.41621 41.7857L12.4975 52.1778C13.4742 54.1788 14.4065 56.2322 15.4551 58.1849C15.4531 58.1677 15.4509 58.1504 15.4491 58.1331C15.3985 57.6479 15.4256 57.1335 15.426 56.6443C15.4239 55.81 15.428 54.9758 15.4385 54.1416C15.449 53.5578 15.5141 52.9218 15.3964 52.3494C15.2521 51.6488 14.8186 50.9917 14.5039 50.3721C14.2122 49.7904 13.9237 49.2067 13.6383 48.621C12.5261 46.3359 11.4025 44.0579 10.2676 41.787C8.96928 39.1561 7.69163 36.5111 6.36767 33.8965C6.1772 33.5272 5.6227 32.6592 5.73934 32.2263C5.84649 31.8287 6.48501 31.5062 6.78261 31.2714C6.97777 31.1152 7.1615 30.9435 7.33381 30.7563C7.40116 30.6844 7.46654 30.6103 7.52993 30.5339C7.59333 30.4575 7.6546 30.3791 7.71374 30.2986C7.77288 30.218 7.8298 30.1355 7.8845 30.0511C7.93919 29.9667 7.99157 29.8804 8.04163 29.7925C8.09169 29.7044 8.13933 29.6148 8.18456 29.5235C8.22978 29.4323 8.27252 29.3396 8.31277 29.2454C8.35297 29.1512 8.39061 29.0557 8.42569 28.959C8.46077 28.8623 8.49322 28.7644 8.52303 28.6655C8.78156 27.8218 8.8768 26.8611 8.71234 25.9826C8.65211 25.661 8.53209 25.2803 8.53245 24.9537C8.5326 24.7881 8.57261 24.5926 8.68393 24.474C8.92804 24.214 10.2688 23.536 10.6353 23.3293L31.9656 11.2793C34.3663 9.92896 36.7386 8.48655 39.1669 7.20254C39.3739 7.09308 39.5732 7.00197 39.7976 6.94626C40.2538 7.11095 40.4521 7.55222 40.7774 7.91608C41.3866 8.5974 42.2606 9.04422 43.1003 9.2076C43.4707 9.2797 43.863 9.30547 44.2365 9.24707C44.634 9.18492 45.812 8.60882 46.1152 8.9076C46.4309 9.21885 47.1826 10.9295 47.4485 11.4504C49.0231 14.5168 50.5738 17.5984 52.1006 20.6952L54.8923 26.2669C55.3046 27.0861 55.7432 27.8951 56.142 28.7217L59.9138 28.6958L48.5864 5.70548C48.0755 4.64733 47.6106 3.49448 46.9555 2.53763C46.5792 1.98804 46.0473 1.62647 45.4566 1.44228C45.2403 1.37483 45.0243 1.35396 44.8004 1.34843ZM20.0728 63.8915C18.9361 63.8933 17.7863 63.8573 16.6511 63.9062C16.6208 64.5038 16.6329 65.1053 16.6344 65.7036C16.6378 67.0525 16.6135 68.377 17.4681 69.4411C18.1463 70.2856 19.0503 70.5583 20.0289 70.6067C20.6768 70.6388 21.3316 70.6157 21.9803 70.6141L25.4045 70.607L62.4898 70.5762C63.4789 70.5769 64.5023 70.6773 65.4845 70.5335C66.2527 70.4211 66.9733 70.1132 67.5309 69.4907C68.4079 68.5117 68.4986 67.2986 68.4952 65.979L68.4822 63.8668C66.3895 63.91 64.2876 63.862 62.1937 63.8627L20.0728 63.8915ZM19.519 30.058C18.6654 30.1595 17.8616 30.4186 17.2983 31.1956C16.576 32.192 16.6294 33.468 16.6327 34.6798C16.6325 35.3452 16.6388 36.0105 16.6517 36.6758L65.7723 36.6676C66.6936 36.6685 67.615 36.6621 68.5363 36.6486L68.5331 36.6123C68.3867 34.7089 68.9637 32.373 67.4849 30.9456C66.9491 30.4285 66.2278 30.1307 65.5283 30.0709C64.7743 30.0065 63.9954 30.073 63.2386 30.0721L42.9721 30.0773L26.9765 30.0543L21.942 30.053C21.1452 30.0531 20.3103 29.992 19.519 30.058ZM50.445 41.4351C48.9236 41.6648 47.5379 42.3838 46.59 43.7782C46.5627 43.8175 46.5359 43.8573 46.5095 43.8974C46.4832 43.9375 46.4573 43.978 46.4318 44.0188C46.4063 44.0597 46.3814 44.1009 46.3569 44.1424C46.3323 44.184 46.3083 44.2259 46.2847 44.2681C46.2611 44.3104 46.2381 44.3529 46.2154 44.3958C46.1928 44.4387 46.1706 44.4819 46.149 44.5255C46.1274 44.569 46.1062 44.6128 46.0856 44.6569C46.0649 44.7011 46.0447 44.7455 46.0251 44.7902C46.0054 44.8349 45.9863 44.8799 45.9677 44.9251C45.949 44.9704 45.9309 45.0159 45.9132 45.0617C45.8956 45.1075 45.8785 45.1535 45.8619 45.1998C45.8453 45.246 45.8293 45.2924 45.8137 45.3392C45.7982 45.3859 45.7832 45.4329 45.7687 45.48C45.7542 45.5272 45.7402 45.5745 45.7268 45.622C45.7134 45.6696 45.7006 45.7173 45.6883 45.7652C45.6759 45.8131 45.6641 45.8612 45.6528 45.9095C45.6416 45.9577 45.6309 46.0061 45.6207 46.0546C45.6105 46.1032 45.6009 46.1519 45.5918 46.2007C45.5828 46.2496 45.5742 46.2985 45.5663 46.3476C45.5583 46.3966 45.5509 46.4458 45.544 46.4951C45.5372 46.5444 45.5309 46.5937 45.5251 46.6432C45.5194 46.6927 45.5142 46.7422 45.5095 46.7918C45.5049 46.8414 45.5008 46.8911 45.4973 46.9408C45.4937 46.9905 45.4908 47.0403 45.4884 47.0901C45.486 47.1399 45.4842 47.1898 45.4829 47.2396C45.4816 47.2895 45.4809 47.3394 45.4808 47.3892C45.4806 47.4391 45.481 47.489 45.482 47.5388C45.4829 47.5887 45.4845 47.6386 45.4866 47.6884C45.4887 47.7382 45.4914 47.788 45.4946 47.8378C45.4978 47.8875 45.5016 47.9372 45.5059 47.9869C45.5102 48.0365 45.5151 48.0861 45.5205 48.1356C45.526 48.1851 45.532 48.2345 45.5386 48.2838C45.7423 49.9093 46.5278 51.4665 47.7018 52.4515C48.2967 52.9505 49.029 53.3134 49.751 53.5016C50.6702 53.7412 51.6166 53.7842 52.5504 53.9127C54.057 54.1202 55.5624 54.3617 57.0654 54.5999L63.0228 55.5727C64.0952 55.7548 65.2025 56.0196 66.2813 56.1097C66.8816 56.2018 68.704 56.7381 69.1767 56.3372C69.3316 56.2058 69.4184 56.0087 69.4674 55.8025C69.5905 55.2846 69.6318 54.7162 69.6969 54.1849L70.0331 51.4589L70.5498 47.4554C70.6399 46.7635 70.7551 46.0669 70.8163 45.3715C70.8192 45.3384 70.822 45.3053 70.8245 45.2723C70.725 45.0149 70.5993 44.7243 70.3562 44.6081C70.1324 44.5011 69.8646 44.4476 69.6256 44.4037C69.0408 44.2962 68.4467 44.2352 67.8596 44.1386L60.7037 43.0072L53.3745 41.8383C52.601 41.7166 51.8298 41.5664 51.055 41.4569C50.8765 41.4317 50.6187 41.3768 50.445 41.4351ZM16.6242 58.8984C16.7138 59.7419 16.6588 60.6581 16.6555 61.5097C16.6544 61.8112 16.6881 62.1656 16.6549 62.4594C16.7255 62.5218 16.8159 62.5079 16.9044 62.509C21.4461 62.5697 25.9957 62.5101 30.5383 62.5115L58.7272 62.5133L65.4667 62.5239C66.3179 62.5245 67.6761 62.4248 68.4746 62.5352C68.4913 61.8249 68.4983 61.1144 68.4957 60.4038C68.4921 59.8996 68.4589 59.3743 68.4946 58.8726C66.8292 58.8108 65.1551 58.8444 63.4885 58.8432L20.8834 58.7987C20.3247 58.7972 16.9894 58.712 16.6871 58.8324C16.66 58.8432 16.6452 58.8764 16.6242 58.8984ZM50.283 20.0448C47.4217 21.5859 44.6114 23.2611 41.7782 24.8673C39.5446 26.1335 37.1658 27.3722 34.9959 28.7485C35.6502 28.6313 36.3736 28.6962 37.0346 28.7007L40.9667 28.7118C41.6319 28.7165 42.3379 28.8154 42.9947 28.6946C43.652 28.5736 44.6704 27.8908 45.2943 27.5428L48.1956 25.929C49.5174 25.1969 50.8602 24.5077 52.1749 23.7608C51.8632 23.0535 50.7202 20.5143 50.3155 20.055L50.283 20.0448ZM52.784 24.9872C51.0366 25.9705 49.2813 26.9358 47.5183 27.8831C46.9784 28.1718 46.4473 28.4932 45.9006 28.7638C46.5797 28.6862 47.2609 28.6991 47.9426 28.7023C50.1902 28.7055 52.4479 28.6516 54.6944 28.7028C54.4571 28.2071 52.9919 25.0729 52.784 24.9872ZM15.3743 43.8704C14.659 44.1812 13.8948 44.4525 13.2181 44.8583L14.0942 46.7202C14.2629 47.0771 14.4232 47.4697 14.6259 47.803C14.8849 48.3392 15.1526 48.8698 15.429 49.3949C15.4086 48.7586 15.4846 43.9975 15.3743 43.8704ZM16.6549 62.4594C16.6881 62.1656 16.6544 61.8112 16.6555 61.5097C16.6588 60.6581 16.7138 59.7419 16.6242 58.8984C16.5846 58.9744 16.5704 59.0186 16.5649 59.1085C16.5478 59.3832 16.5409 62.0823 16.5764 62.2576C16.5902 62.3258 16.6176 62.3786 16.6465 62.4396C16.6495 62.446 16.6521 62.4528 16.6549 62.4594Z" fill="#4D4D4D" fill-opacity="0.5"/>
<path d="M16.6549 62.4594C16.6521 62.4528 16.6495 62.446 16.6465 62.4396C16.6176 62.3786 16.5902 62.3258 16.5764 62.2576C16.5409 62.0823 16.5478 59.3832 16.5649 59.1085C16.5704 59.0186 16.5846 58.9744 16.6242 58.8984C16.7138 59.7419 16.6588 60.6581 16.6555 61.5097C16.6544 61.8112 16.6881 62.1656 16.6549 62.4594Z" fill="#4D4D4D" fill-opacity="0.5"/>
<path d="M50.4366 43.8785C51.222 43.8027 51.9961 43.9479 52.6599 44.4458C53.3768 44.9838 53.9305 45.8411 54.0962 46.7989C54.1075 46.8641 54.1173 46.9296 54.1257 46.9954C54.1341 47.0612 54.141 47.1272 54.1465 47.1934C54.152 47.2595 54.156 47.3258 54.1586 47.3922C54.1611 47.4586 54.1622 47.525 54.1618 47.5914C54.1614 47.6579 54.1596 47.7243 54.1563 47.7907C54.153 47.857 54.1482 47.9232 54.142 47.9893C54.1357 48.0554 54.1281 48.1213 54.1189 48.1869C54.1097 48.2526 54.0992 48.3179 54.0872 48.383C54.0751 48.4481 54.0616 48.5127 54.0467 48.5771C54.0319 48.6413 54.0156 48.7052 53.9979 48.7686C53.9802 48.832 53.961 48.8949 53.9406 48.9572C53.9201 49.0195 53.8982 49.0812 53.875 49.1423C53.8518 49.2034 53.8273 49.2639 53.8014 49.3236C53.7755 49.3833 53.7483 49.4423 53.7198 49.5005C53.6913 49.5587 53.6616 49.6161 53.6306 49.6726C53.5996 49.7291 53.5673 49.7848 53.5338 49.8395C53.0078 50.6981 52.2368 51.1778 51.3386 51.3671C50.523 51.4559 49.7973 51.2923 49.1115 50.7674C48.3483 50.1832 47.8098 49.2966 47.6445 48.2711C47.4795 47.2466 47.6583 46.2012 48.1966 45.3471C48.7305 44.4999 49.5418 44.0448 50.4366 43.8785ZM50.5932 45.2248C49.9574 45.3914 49.4257 45.7005 49.0725 46.3507C48.7683 46.9109 48.6801 47.5436 48.8205 48.1815C48.9588 48.8094 49.2874 49.3387 49.7868 49.6709C50.2157 49.9563 50.6644 50.0466 51.1579 50.016C51.7861 49.8571 52.297 49.5316 52.647 48.9028C52.666 48.8692 52.6843 48.835 52.7018 48.8003C52.7193 48.7657 52.7361 48.7305 52.7521 48.6949C52.768 48.6593 52.7832 48.6233 52.7975 48.5869C52.8119 48.5504 52.8254 48.5135 52.838 48.4763C52.8507 48.4391 52.8626 48.4015 52.8736 48.3636C52.8846 48.3257 52.8948 48.2875 52.9041 48.2491C52.9134 48.2106 52.9219 48.1719 52.9295 48.1329C52.9371 48.094 52.9438 48.0549 52.9496 48.0155C52.9555 47.9762 52.9604 47.9367 52.9645 47.8971C52.9686 47.8575 52.9718 47.8178 52.9741 47.778C52.9764 47.7382 52.9778 47.6984 52.9783 47.6585C52.9789 47.6186 52.9785 47.5788 52.9772 47.5389C52.976 47.499 52.9739 47.4593 52.9709 47.4196C52.9678 47.3798 52.9639 47.3402 52.9591 47.3007C52.9543 47.2612 52.9487 47.2219 52.9421 47.1827C52.9356 47.1435 52.9282 47.1045 52.9198 47.0657C52.7847 46.429 52.4374 45.8723 51.9339 45.5389C51.5088 45.2575 51.0807 45.1781 50.5932 45.2248Z" fill="#4D4D4D" fill-opacity="0.5"/>
</svg>
