<svg width="72" height="74" viewBox="0 0 72 74" fill="none" xmlns="http://www.w3.org/2000/svg">
<mask id="path-1-outside-1_414_563" maskUnits="userSpaceOnUse" x="0" y="0" width="72" height="74" fill="black">
<rect fill="white" width="72" height="74"/>
<path d="M46.2815 1H47.5767C49.5026 1.58711 51.339 2.50091 53.1693 3.31414L60.4855 6.54108L65.7316 8.83774C66.7193 9.26462 67.7569 9.64575 68.7025 10.1512C69.7851 10.7297 70.5225 11.5744 70.849 12.7206C70.8737 12.8072 70.8954 12.8945 70.9141 12.9825C70.9329 13.0705 70.9485 13.159 70.9612 13.2479C70.9738 13.3369 70.9833 13.4261 70.9898 13.5157C70.9963 13.6052 70.9997 13.6949 71 13.7846C71.0003 13.8744 70.9976 13.9641 70.9917 14.0537C70.9858 14.1433 70.9769 14.2326 70.9649 14.3217C70.9529 14.4107 70.9378 14.4993 70.9197 14.5874C70.9016 14.6755 70.8805 14.7629 70.8564 14.8497C70.6108 15.7228 70.1577 16.5404 69.7651 17.3602L68.0551 20.9447L65.6441 26.0453C65.2541 26.8688 64.8726 27.8385 64.4023 28.6088C64.7647 28.6279 65.1219 28.657 65.475 28.7409C66.1969 28.9123 66.7922 29.2945 67.1747 29.9076C67.5934 30.5792 67.7242 31.4543 67.5138 32.21C67.4982 32.2649 67.4807 32.3193 67.4614 32.3732C67.4421 32.4271 67.421 32.4803 67.398 32.5329C67.3751 32.5855 67.3504 32.6373 67.3239 32.6884C67.2975 32.7394 67.2693 32.7896 67.2395 32.8389C67.2097 32.8883 67.1782 32.9367 67.145 32.9841C67.1119 33.0315 67.0771 33.0779 67.0408 33.1231C67.0046 33.1684 66.9668 33.2125 66.9275 33.2555C66.8882 33.2985 66.8475 33.3402 66.8054 33.3806C65.8503 34.3107 63.8509 35.118 62.5683 35.5762C62.0319 35.7678 61.5107 35.8641 61.0098 36.1439C61.6202 36.1942 62.3073 36.1992 62.8529 36.4933C63.6738 36.9358 64.2178 37.7426 64.4559 38.5963C64.685 39.4182 64.6459 40.3722 64.1876 41.1183C63.575 42.1155 62.2943 42.5982 61.175 42.8734C61.6882 43.5905 62.0273 44.4029 62.0507 45.2767C62.075 46.1849 61.7468 47.029 61.0792 47.6858C60.3853 48.3685 59.3851 48.6027 58.4129 48.6208L58.4721 48.6626C59.0526 49.0773 59.3265 49.5935 59.4178 50.2675C59.5354 51.1353 59.1941 52.1497 58.632 52.835C57.5738 54.1254 53.6775 55.2786 51.9472 55.4884C51.6988 55.916 51.4934 56.3716 51.2675 56.8106C50.7038 57.906 49.8034 58.7597 48.5722 59.1535C46.5097 59.813 44.3901 58.761 42.5737 57.9109C38.4864 59.885 34.7258 60.8124 30.2217 61.4668C28.3009 61.7459 27.7844 62.3519 26.6689 63.795C26.9834 64.0772 27.2917 64.3655 27.5937 64.6598C27.9137 64.9779 28.3673 65.4679 28.3401 65.938C28.3246 66.2047 28.1819 66.4696 28.036 66.6935C27.7721 67.0985 27.4458 67.4756 27.1513 67.8616C26.5192 68.6957 25.88 69.5249 25.2337 70.3492C24.7537 70.9686 23.732 72.4565 23.2254 72.8612C23.038 73.0111 22.8327 73.0153 22.5995 72.9851C21.5477 72.8499 19.9189 72.113 18.9533 71.6893C18.1469 71.3382 17.3501 70.9683 16.5629 70.5798C15.7758 70.1913 14.9992 69.7845 14.2332 69.3595C13.4671 68.9345 12.7126 68.4917 11.9696 68.0313C11.2266 67.5709 10.496 67.0933 9.77783 66.5985C9.00841 66.0694 8.26424 65.5024 7.51564 64.9471C5.40218 63.3792 3.25998 61.6445 1.62763 59.6069C1.39289 59.3139 0.928548 58.7379 1.00932 58.3487C1.18669 57.4941 6.31486 52.6899 7.36671 51.9684C7.66004 51.7672 7.94826 51.599 8.32689 51.6664C8.66043 51.7256 8.87696 51.9591 9.0615 52.2116L9.08987 52.2509C11.1617 50.6665 13.4989 48.6371 14.815 46.411C15.8106 44.727 16.0254 43.091 16.4387 41.2486C16.6367 40.3481 16.8985 39.4646 17.2238 38.5981C18.0852 36.3209 19.2431 34.1473 20.2383 31.9206C21.0174 30.211 21.7505 28.4838 22.4377 26.739C22.7905 25.8374 23.0907 24.9179 23.4414 24.0159C23.7629 23.1892 24.1536 22.483 24.8076 21.8482C26.3728 20.3291 28.5073 19.5183 30.1453 18.088C31.2712 17.1049 33.3112 14.5735 34.5375 14.066C34.9183 13.9085 35.3134 13.9272 35.6951 14.0713C36.4553 14.358 36.9052 14.9229 37.2096 15.6191C37.827 14.4446 38.3778 13.2477 38.9441 12.0509C39.7388 10.3841 40.5204 8.71171 41.2889 7.0338C41.8436 5.82456 42.3952 4.41806 43.0374 3.2694C43.7894 1.92435 44.8051 1.43477 46.2815 1ZM44.9506 6.4581C44.7286 6.50724 44.5119 6.561 44.3808 6.753C43.9129 7.43804 43.626 8.37313 43.2775 9.1254L40.9875 13.9467C38.6135 18.8894 36.2763 23.8478 33.9759 28.8217L31.7324 33.7527C31.2765 34.7623 30.8399 35.7821 30.3359 36.771C30.3889 37.0901 30.4357 37.41 30.4763 37.7307C30.517 38.0514 30.5514 38.3727 30.5796 38.6946C30.6078 39.0165 30.6298 39.3388 30.6456 39.6614C30.6613 39.9841 30.6708 40.307 30.6741 40.63C30.6773 40.953 30.6743 41.2759 30.6651 41.5989C30.6559 41.9218 30.6404 42.2444 30.6187 42.5668C30.5969 42.8891 30.569 43.211 30.5348 43.5324C30.5007 43.8538 30.4603 44.1744 30.4138 44.4944L30.4653 44.5119C30.8755 44.6528 31.2712 44.8507 31.6658 45.0273C32.3967 45.3545 33.1254 45.6875 33.8601 46.0067L45.5274 51.0269L48.1889 52.181C48.703 52.4019 49.2889 52.7011 49.8408 52.8146C49.9076 52.8283 49.9568 52.8312 50.0206 52.8049C50.4008 52.6479 50.7089 51.6861 50.8611 51.3299C54.5814 43.216 58.3581 35.1257 62.1911 27.0593L65.6637 19.7116C66.1421 18.6962 66.9088 17.3677 67.2122 16.3314C67.0173 15.822 66.8253 15.778 66.3184 15.5519C65.1938 15.0505 64.0388 14.6043 62.9051 14.1202L55.6838 10.9985L47.4847 7.46575C46.9109 7.22406 45.4995 6.51096 44.9506 6.4581ZM35.5963 14.9247C35.5228 15.2136 35.4407 15.4662 35.2943 15.7301C34.7517 16.7081 33.397 18.1834 32.4064 18.749C32.0945 18.9271 31.731 19.0658 31.3635 18.9806C31.14 18.9289 30.9938 18.8014 30.8497 18.6386C30.2706 19.1014 29.6869 19.5434 29.0582 19.9443C27.8119 20.7393 26.026 21.6278 25.1037 22.7668C24.3962 23.6402 24.1294 24.7936 23.7522 25.8189C23.458 26.6026 23.1534 27.3827 22.8385 28.1591C21.8487 30.5006 20.8103 32.8224 19.7233 35.1247C19.2545 36.1398 18.726 37.1322 18.3161 38.1711C18.0913 38.7506 17.8904 39.3376 17.7131 39.9319C17.5358 40.5261 17.3828 41.1259 17.254 41.7314C17.0335 42.7304 16.8648 43.7481 16.5713 44.7306C15.7516 47.4747 13.4033 49.7399 11.2403 51.6047C10.727 52.0472 10.2009 52.5543 9.6349 52.9279C10.8964 54.5191 12.4453 55.882 14.0332 57.1739C14.4587 57.5221 14.8892 57.8644 15.3249 58.2009C15.7606 58.5374 16.2012 58.8679 16.6467 59.1925C17.0924 59.5171 17.5427 59.8356 17.9978 60.148C18.4529 60.4604 18.9126 60.7665 19.3769 61.0665C19.8412 61.3664 20.3099 61.6601 20.7829 61.9474C21.256 62.2346 21.7333 62.5154 22.2148 62.7898C22.6963 63.0642 23.1818 63.3319 23.6713 63.5932C24.1608 63.8544 24.6541 64.1089 25.1513 64.3568C25.7924 63.3365 26.8316 62.0298 27.8645 61.361C27.9618 61.298 28.0619 61.2393 28.1648 61.1849C28.2676 61.1305 28.3729 61.0806 28.4806 61.0352C28.5882 60.9898 28.6978 60.9491 28.8092 60.9131C28.9208 60.8771 29.0337 60.846 29.1482 60.8197C29.731 60.6806 30.341 60.6163 30.9342 60.5238C31.3508 60.4588 31.7753 60.3619 32.1936 60.3197C35.4558 59.6914 38.5446 58.8133 41.5759 57.4983C40.6563 57.1279 39.769 56.6834 38.8593 56.2906L31.5837 53.1434C30.2991 52.5828 29.0053 51.9637 27.6878 51.4797C26.7307 52.6552 25.5982 53.6331 24.164 54.2556C23.8656 54.3852 23.517 54.5378 23.1877 54.571C23.059 54.584 22.9808 54.5678 22.8691 54.5009C22.8082 54.4196 22.7958 54.3801 22.7916 54.2806C22.8443 54.1428 22.9777 54.0571 23.114 53.9964C23.315 53.9072 23.55 53.8687 23.7615 53.804C23.9838 53.736 24.1945 53.6322 24.3995 53.527C26.4527 52.4735 27.8737 50.5073 28.728 48.4872C30.3082 44.7505 30.4301 39.967 29.6078 36.053C29.4351 35.2307 29.2669 34.3661 28.9128 33.5939C28.8044 33.3575 28.6758 33.1442 28.5238 32.931C29.315 30.9248 30.2431 28.956 30.5585 26.8159C30.0018 26.6507 29.2157 26.2731 28.9492 25.7461C28.8761 25.6016 28.8683 25.4664 28.9256 25.3176C28.9987 25.2584 29.0236 25.2309 29.1275 25.2399C29.6711 25.2873 29.9034 26.4987 31.4376 26.0893C31.7621 26.0027 32.0835 25.8672 32.3653 25.691C32.3842 25.6793 32.4028 25.6671 32.4214 25.6551C33.233 24.2149 33.8425 22.6406 34.5231 21.1402C35.0957 19.8782 35.7757 18.6468 36.1988 17.3289C36.3578 16.8336 36.5688 16.1905 36.41 15.6769C36.3253 15.4031 36.1285 15.127 35.8514 15.0006C35.7714 14.9641 35.6822 14.9446 35.5963 14.9247ZM8.10792 52.5171C6.51954 53.6162 5.15332 55.0315 3.82079 56.3954C3.15462 57.0773 2.45261 57.7541 1.8983 58.5239C5.16209 62.914 12.3671 67.6427 17.4222 70.0695C18.7402 70.7023 20.1128 71.2219 21.485 71.7372C21.9152 71.8765 22.348 71.9948 22.7864 72.1081L27.2672 66.2819C22.1008 63.9502 17.4412 61.1461 13.1376 57.5553C11.9217 56.5407 10.6971 55.4944 9.64075 54.3266C9.35609 54.0118 9.07557 53.6903 8.81705 53.3556C8.63014 53.1136 8.45989 52.8547 8.25476 52.6263C8.21455 52.5816 8.17086 52.5308 8.10792 52.5171ZM46.8132 1.78834C45.7388 1.91493 44.7997 2.31223 44.1258 3.14374C43.5817 3.81498 43.3303 4.68451 42.9776 5.45348L41.0486 9.60528C38.6432 14.6153 36.2686 19.6383 33.9249 24.6745L31.2565 30.5261C30.7398 31.6653 30.2716 32.8347 29.6562 33.9297C29.8762 34.5013 30.0191 35.1089 30.1716 35.6994C31.1099 33.7596 31.925 31.7725 32.8324 29.8207C35.3283 24.4484 37.8531 19.0884 40.4069 13.7407C41.1475 12.2139 41.8723 10.6802 42.5811 9.13969C42.9384 8.36673 43.4279 7.13362 43.8746 6.45403C44.0169 6.23742 44.2753 6.05077 44.5277 5.96674C44.8185 5.86992 45.1675 5.91154 45.4552 5.99779C46.0491 6.17582 46.6185 6.45719 47.1828 6.70445C47.8637 7.00163 48.5476 7.29238 49.2346 7.5767C52.4365 8.92252 55.6249 10.2968 58.7997 11.6995C60.4142 12.3941 62.0239 13.1032 63.6481 13.777C64.705 14.2156 65.8338 14.5949 66.8376 15.132C67.1157 15.2809 67.5529 15.5367 67.6806 15.8235C67.805 16.103 67.7917 16.5137 67.6973 16.7965C67.4544 17.5236 67.067 18.2218 66.7346 18.9155L65.0441 22.4557L60.365 32.3329C59.5388 34.0769 58.6458 35.8161 57.8892 37.5873C58.4545 37.1705 59.0115 36.8273 59.7062 36.6454C60.5834 34.6396 61.5618 32.6643 62.4916 30.6797L66.81 21.4682L68.7935 17.309C69.2074 16.4438 69.6986 15.5821 69.9669 14.6638C70.1724 13.9607 70.1713 13.2977 69.8787 12.6155C69.5844 11.9292 69.1471 11.4441 68.4965 11.0427C67.7039 10.5536 66.7811 10.224 65.9271 9.84536C64.2919 9.11191 62.6514 8.38936 61.0056 7.67771L52.4371 3.90632C51.0944 3.31771 49.7675 2.66817 48.3992 2.13552C47.9395 1.95657 47.3184 1.74002 46.8132 1.78834ZM30.3401 45.0688C29.9434 46.7769 29.4875 48.4248 28.638 49.9872C28.5027 50.2359 28.3723 50.5069 28.2089 50.7393C31.7064 52.2227 35.1907 53.7337 38.6617 55.2722L42.8896 57.1708C43.9557 57.6499 45.0003 58.2145 46.1513 58.4906C46.247 58.5131 46.3436 58.532 46.4409 58.5475C46.5382 58.563 46.636 58.575 46.7343 58.5834C46.8325 58.5919 46.931 58.5967 47.0296 58.598C47.1283 58.5994 47.2268 58.5971 47.3253 58.5914C47.4238 58.5856 47.5219 58.5763 47.6196 58.5634C47.7174 58.5505 47.8144 58.5341 47.9109 58.5143C48.0073 58.4944 48.1028 58.4711 48.1973 58.4443C48.2918 58.4176 48.3852 58.3875 48.4774 58.354C49.6421 57.9343 50.2924 57.045 50.7822 55.9975C51.3557 54.7712 51.8761 53.5205 52.4124 52.2791C52.0724 51.7636 52.067 51.1219 52.214 50.5453C52.2187 50.5272 52.224 50.5092 52.2289 50.4912C52.52 49.773 53.0294 49.0811 53.7956 48.7697C53.9416 48.7104 54.096 48.656 54.2487 48.6144C54.4595 48.1015 54.6843 47.5884 54.8675 47.0659C54.6016 46.535 54.418 46.0101 54.3129 45.4304C53.9104 46.176 53.5708 46.9603 53.2141 47.727L51.7772 50.8068C51.454 51.5113 51.1956 52.3238 50.7441 52.96C50.5992 53.164 50.4808 53.259 50.2335 53.339C49.9123 53.4429 49.5904 53.3797 49.2804 53.2766C48.5188 53.023 47.787 52.6467 47.0551 52.3238L43.2652 50.6817C38.9493 48.8332 34.6083 47.0145 30.3401 45.0688ZM58.2155 42.9996C57.246 43.0773 56.1992 43.0573 55.5058 43.8174C55.0978 44.2646 54.9229 44.8646 54.9778 45.4496C55.0436 46.1508 55.4006 46.9215 55.9755 47.3791C56.6046 47.8798 57.2927 47.8173 58.053 47.7989C58.9771 47.7258 59.9335 47.6338 60.5718 46.9111C61.0216 46.402 61.2126 45.7396 61.1471 45.0818C61.0666 44.2733 60.6361 43.5985 60.0908 42.995C59.4789 42.982 58.8246 42.9356 58.2155 42.9996ZM60.8815 37.0938C59.8874 37.2178 58.7706 37.4192 58.1199 38.2217C57.7343 38.6972 57.5395 39.3032 57.6264 39.9013C57.7253 40.5829 58.0901 41.3587 58.6806 41.7797C59.1457 42.1115 59.7425 42.2201 60.3103 42.1371C61.3877 41.9527 62.6558 41.6642 63.319 40.7537C63.7016 40.2285 63.7562 39.636 63.6287 39.0238C63.5007 38.4088 63.2083 37.7939 62.648 37.431C62.1199 37.0891 61.5033 37.0144 60.8815 37.0938ZM56.3391 49.1977C55.2754 49.2494 54.085 49.0255 53.2817 49.8711C53.2589 49.8956 53.2367 49.9206 53.2151 49.9462C53.1935 49.9717 53.1726 49.9977 53.1523 50.0243C53.1321 50.0508 53.1125 50.0778 53.0937 50.1052C53.0748 50.1326 53.0567 50.1604 53.0392 50.1887C53.0217 50.217 53.005 50.2456 52.9891 50.2747C52.9731 50.3037 52.9579 50.333 52.9434 50.3628C52.9289 50.3925 52.9152 50.4226 52.9023 50.4529C52.8894 50.4833 52.8772 50.514 52.8659 50.5449C52.8545 50.5759 52.8439 50.607 52.8342 50.6385C52.8244 50.6699 52.8155 50.7015 52.8074 50.7334C52.7992 50.7652 52.7919 50.7972 52.7854 50.8294C52.7789 50.8615 52.7732 50.8939 52.7683 50.9263C52.7635 50.9587 52.7595 50.9912 52.7563 51.0239C52.7531 51.0565 52.7508 51.0892 52.7493 51.1219C52.7478 51.1547 52.7472 51.1874 52.7473 51.2201C52.7475 51.2529 52.7485 51.2857 52.7503 51.3184C52.7883 51.896 53.1589 52.5031 53.6203 52.8729C54.0419 53.2107 54.4758 53.3138 55.015 53.295C56.0343 53.1694 57.2483 53.1168 57.9261 52.2763C58.3568 51.7422 58.6283 50.9452 58.5258 50.2715C58.478 49.958 58.3594 49.6492 58.0842 49.4528C57.6351 49.1322 56.8713 49.1509 56.3391 49.1977ZM63.9579 29.4691C63.1113 31.276 62.457 33.1316 61.6794 34.9622C62.3932 34.7265 63.0909 34.478 63.7806 34.1847C64.7398 33.7247 66.2883 33.0765 66.6467 32.0246C66.8164 31.5263 66.736 30.9431 66.4854 30.4792C66.2453 30.0351 65.8298 29.7555 65.3327 29.6169C64.8874 29.4928 64.4185 29.4803 63.9579 29.4691ZM34.8592 14.7923C34.0445 15.2662 31.6965 17.4477 31.3257 18.2607C31.3288 18.3448 31.3378 18.3696 31.4074 18.4313C31.4246 18.4466 31.445 18.4582 31.4638 18.4718C31.7884 18.3705 32.0732 18.266 32.3543 18.0793C33.0772 17.5989 34.4093 16.1294 34.8102 15.3849C34.895 15.2274 34.9921 15.0605 34.9741 14.8792L34.9255 14.7997L34.8592 14.7923ZM56.9447 39.6971C56.3413 40.8555 55.8681 42.0723 55.222 43.2126L55.766 42.9162C56.2103 42.6876 56.6489 42.597 57.1387 42.4951C57.3208 42.1243 57.4946 41.7522 57.6306 41.3634C57.1522 40.7624 57.2004 40.3584 56.9447 39.6971ZM52.9787 53.1709C52.7466 53.6309 52.5267 54.0924 52.311 54.5595C52.8089 54.4598 53.3032 54.3463 53.7941 54.2191L54.9675 53.9178C54.1371 53.8634 53.6471 53.6282 52.9787 53.1709ZM31.9883 26.5857L31.3995 26.7697C31.2159 27.5384 31.1266 28.277 30.84 29.0275C30.5498 29.7876 30.0848 30.5371 29.877 31.3161L29.9189 31.3135C30.1673 30.7959 32.0852 26.7599 32.0197 26.5886L31.9883 26.5857ZM55.4172 47.8295C55.3098 48.0504 55.2222 48.2733 55.1386 48.5033C55.357 48.4783 55.5755 48.4543 55.7941 48.4315C55.9061 48.4168 55.9923 48.4289 56.0719 48.3497C56.0451 48.2208 55.9572 48.1647 55.8478 48.0948C55.7053 48.0048 55.5618 47.9164 55.4172 47.8295ZM26.1486 64.4361L25.9303 64.755C26.232 64.9024 26.5395 65.0278 26.8522 65.1519L26.913 65.1352C26.7458 64.8736 26.3932 64.6372 26.1486 64.4361Z"/>
<path d="M37.5596 49.223C37.6252 49.2161 37.6909 49.2118 37.7568 49.2101C37.8228 49.2085 37.8887 49.2095 37.9545 49.2131C38.0203 49.2167 38.0859 49.223 38.1512 49.232C38.2165 49.2409 38.2812 49.2525 38.3455 49.2666C38.4097 49.2808 38.4732 49.2975 38.5359 49.3168C38.5987 49.3361 38.6605 49.3579 38.7213 49.3822C38.7821 49.4064 38.8418 49.4331 38.9002 49.4622C38.9586 49.4913 39.0156 49.5226 39.0713 49.5563C39.5424 49.8457 39.8293 50.2991 39.9373 50.8157C40.0601 51.4023 39.9484 52.0012 39.5891 52.4957C39.2285 52.9921 38.6775 53.2825 38.0603 53.3913C37.5393 53.4016 37.0852 53.3533 36.6312 53.0794C36.6005 53.0611 36.5703 53.042 36.5406 53.0222C36.5109 53.0024 36.4818 52.9819 36.4531 52.9607C36.4245 52.9396 36.3964 52.9177 36.3689 52.8952C36.3414 52.8727 36.3145 52.8496 36.2883 52.8258C36.262 52.8021 36.2364 52.7777 36.2113 52.7527C36.1864 52.7277 36.162 52.7022 36.1384 52.676C36.1147 52.6499 36.0918 52.6232 36.0695 52.596C36.0473 52.5688 36.0257 52.5411 36.0049 52.5128C35.9841 52.4846 35.964 52.4559 35.9447 52.4267C35.9254 52.3975 35.9068 52.3678 35.8891 52.3378C35.8713 52.3077 35.8544 52.2772 35.8382 52.2464C35.8221 52.2155 35.8067 52.1843 35.7922 52.1527C35.7777 52.1211 35.764 52.0892 35.7512 52.0569C35.7383 52.0247 35.7263 51.9922 35.7152 51.9594C35.704 51.9265 35.6937 51.8935 35.6843 51.8602C35.6749 51.8269 35.6663 51.7934 35.6587 51.7597C35.6506 51.7249 35.6434 51.69 35.6372 51.655C35.631 51.6199 35.6257 51.5847 35.6214 51.5493C35.6171 51.5139 35.6137 51.4785 35.6112 51.443C35.6087 51.4075 35.6072 51.372 35.6067 51.3364C35.6061 51.3008 35.6065 51.2653 35.6079 51.2297C35.6092 51.1941 35.6115 51.1586 35.6147 51.1231C35.6179 51.0877 35.6221 51.0524 35.6273 51.0171C35.6324 50.9819 35.6384 50.9468 35.6454 50.9118C35.6524 50.8768 35.6603 50.8421 35.6691 50.8075C35.6779 50.773 35.6877 50.7386 35.6984 50.7045C35.7091 50.6704 35.7206 50.6366 35.7331 50.603C35.7456 50.5695 35.759 50.5362 35.7732 50.5033C35.7874 50.4704 35.8026 50.4379 35.8186 50.4057C35.8345 50.3735 35.8513 50.3417 35.869 50.3103C35.8867 50.279 35.9052 50.2481 35.9245 50.2176C35.9438 50.1871 35.9639 50.1571 35.9849 50.1276C36.3702 49.5779 36.8983 49.3513 37.5596 49.223ZM37.5956 49.7874C37.1054 49.9191 36.699 50.1006 36.4326 50.5405C36.2166 50.8973 36.1431 51.322 36.2712 51.7187C36.2791 51.7433 36.2877 51.7676 36.2969 51.7918C36.306 51.816 36.3158 51.84 36.3263 51.8637C36.3367 51.8874 36.3478 51.9109 36.3594 51.934C36.3711 51.9573 36.3833 51.9802 36.3962 52.0028C36.4091 52.0254 36.4225 52.0477 36.4365 52.0697C36.4506 52.0917 36.4651 52.1133 36.4803 52.1346C36.4955 52.1559 36.5112 52.1769 36.5274 52.1974C36.5436 52.218 36.5604 52.2381 36.5777 52.2579C36.595 52.2776 36.6128 52.297 36.6311 52.316C36.6495 52.3349 36.6682 52.3533 36.6875 52.3713C36.7068 52.3894 36.7265 52.407 36.7467 52.4241C36.7669 52.4411 36.7876 52.4577 36.8086 52.4739C36.8297 52.49 36.8512 52.5057 36.8731 52.5208C36.8949 52.5359 36.9172 52.5505 36.9399 52.5645C36.9625 52.5786 36.9855 52.5921 37.0089 52.6051C37.0322 52.618 37.0559 52.6305 37.0799 52.6423C37.372 52.787 37.7525 52.878 38.079 52.8087C38.5776 52.6639 38.9946 52.432 39.2412 51.974C39.4398 51.6049 39.4634 51.1885 39.3268 50.7965C39.1973 50.4251 38.9292 50.1278 38.5605 49.9531C38.2452 49.8038 37.9403 49.7699 37.5956 49.7874Z"/>
<path d="M55.097 7.29296C55.1373 7.29409 55.1469 7.29316 55.1841 7.29808C55.6323 7.35738 58.7544 8.7114 58.9384 8.98724C59.0105 9.09535 59.0529 9.22077 59.016 9.34774C58.9569 9.55172 58.7897 9.64519 58.6067 9.74162C58.172 9.71698 54.9833 8.36785 54.7484 8.05197C54.6794 7.95915 54.6562 7.8127 54.6829 7.70365C54.7295 7.51293 54.9374 7.39143 55.097 7.29296Z"/>
</mask>
<path d="M46.2815 1H47.5767C49.5026 1.58711 51.339 2.50091 53.1693 3.31414L60.4855 6.54108L65.7316 8.83774C66.7193 9.26462 67.7569 9.64575 68.7025 10.1512C69.7851 10.7297 70.5225 11.5744 70.849 12.7206C70.8737 12.8072 70.8954 12.8945 70.9141 12.9825C70.9329 13.0705 70.9485 13.159 70.9612 13.2479C70.9738 13.3369 70.9833 13.4261 70.9898 13.5157C70.9963 13.6052 70.9997 13.6949 71 13.7846C71.0003 13.8744 70.9976 13.9641 70.9917 14.0537C70.9858 14.1433 70.9769 14.2326 70.9649 14.3217C70.9529 14.4107 70.9378 14.4993 70.9197 14.5874C70.9016 14.6755 70.8805 14.7629 70.8564 14.8497C70.6108 15.7228 70.1577 16.5404 69.7651 17.3602L68.0551 20.9447L65.6441 26.0453C65.2541 26.8688 64.8726 27.8385 64.4023 28.6088C64.7647 28.6279 65.1219 28.657 65.475 28.7409C66.1969 28.9123 66.7922 29.2945 67.1747 29.9076C67.5934 30.5792 67.7242 31.4543 67.5138 32.21C67.4982 32.2649 67.4807 32.3193 67.4614 32.3732C67.4421 32.4271 67.421 32.4803 67.398 32.5329C67.3751 32.5855 67.3504 32.6373 67.3239 32.6884C67.2975 32.7394 67.2693 32.7896 67.2395 32.8389C67.2097 32.8883 67.1782 32.9367 67.145 32.9841C67.1119 33.0315 67.0771 33.0779 67.0408 33.1231C67.0046 33.1684 66.9668 33.2125 66.9275 33.2555C66.8882 33.2985 66.8475 33.3402 66.8054 33.3806C65.8503 34.3107 63.8509 35.118 62.5683 35.5762C62.0319 35.7678 61.5107 35.8641 61.0098 36.1439C61.6202 36.1942 62.3073 36.1992 62.8529 36.4933C63.6738 36.9358 64.2178 37.7426 64.4559 38.5963C64.685 39.4182 64.6459 40.3722 64.1876 41.1183C63.575 42.1155 62.2943 42.5982 61.175 42.8734C61.6882 43.5905 62.0273 44.4029 62.0507 45.2767C62.075 46.1849 61.7468 47.029 61.0792 47.6858C60.3853 48.3685 59.3851 48.6027 58.4129 48.6208L58.4721 48.6626C59.0526 49.0773 59.3265 49.5935 59.4178 50.2675C59.5354 51.1353 59.1941 52.1497 58.632 52.835C57.5738 54.1254 53.6775 55.2786 51.9472 55.4884C51.6988 55.916 51.4934 56.3716 51.2675 56.8106C50.7038 57.906 49.8034 58.7597 48.5722 59.1535C46.5097 59.813 44.3901 58.761 42.5737 57.9109C38.4864 59.885 34.7258 60.8124 30.2217 61.4668C28.3009 61.7459 27.7844 62.3519 26.6689 63.795C26.9834 64.0772 27.2917 64.3655 27.5937 64.6598C27.9137 64.9779 28.3673 65.4679 28.3401 65.938C28.3246 66.2047 28.1819 66.4696 28.036 66.6935C27.7721 67.0985 27.4458 67.4756 27.1513 67.8616C26.5192 68.6957 25.88 69.5249 25.2337 70.3492C24.7537 70.9686 23.732 72.4565 23.2254 72.8612C23.038 73.0111 22.8327 73.0153 22.5995 72.9851C21.5477 72.8499 19.9189 72.113 18.9533 71.6893C18.1469 71.3382 17.3501 70.9683 16.5629 70.5798C15.7758 70.1913 14.9992 69.7845 14.2332 69.3595C13.4671 68.9345 12.7126 68.4917 11.9696 68.0313C11.2266 67.5709 10.496 67.0933 9.77783 66.5985C9.00841 66.0694 8.26424 65.5024 7.51564 64.9471C5.40218 63.3792 3.25998 61.6445 1.62763 59.6069C1.39289 59.3139 0.928548 58.7379 1.00932 58.3487C1.18669 57.4941 6.31486 52.6899 7.36671 51.9684C7.66004 51.7672 7.94826 51.599 8.32689 51.6664C8.66043 51.7256 8.87696 51.9591 9.0615 52.2116L9.08987 52.2509C11.1617 50.6665 13.4989 48.6371 14.815 46.411C15.8106 44.727 16.0254 43.091 16.4387 41.2486C16.6367 40.3481 16.8985 39.4646 17.2238 38.5981C18.0852 36.3209 19.2431 34.1473 20.2383 31.9206C21.0174 30.211 21.7505 28.4838 22.4377 26.739C22.7905 25.8374 23.0907 24.9179 23.4414 24.0159C23.7629 23.1892 24.1536 22.483 24.8076 21.8482C26.3728 20.3291 28.5073 19.5183 30.1453 18.088C31.2712 17.1049 33.3112 14.5735 34.5375 14.066C34.9183 13.9085 35.3134 13.9272 35.6951 14.0713C36.4553 14.358 36.9052 14.9229 37.2096 15.6191C37.827 14.4446 38.3778 13.2477 38.9441 12.0509C39.7388 10.3841 40.5204 8.71171 41.2889 7.0338C41.8436 5.82456 42.3952 4.41806 43.0374 3.2694C43.7894 1.92435 44.8051 1.43477 46.2815 1ZM44.9506 6.4581C44.7286 6.50724 44.5119 6.561 44.3808 6.753C43.9129 7.43804 43.626 8.37313 43.2775 9.1254L40.9875 13.9467C38.6135 18.8894 36.2763 23.8478 33.9759 28.8217L31.7324 33.7527C31.2765 34.7623 30.8399 35.7821 30.3359 36.771C30.3889 37.0901 30.4357 37.41 30.4763 37.7307C30.517 38.0514 30.5514 38.3727 30.5796 38.6946C30.6078 39.0165 30.6298 39.3388 30.6456 39.6614C30.6613 39.9841 30.6708 40.307 30.6741 40.63C30.6773 40.953 30.6743 41.2759 30.6651 41.5989C30.6559 41.9218 30.6404 42.2444 30.6187 42.5668C30.5969 42.8891 30.569 43.211 30.5348 43.5324C30.5007 43.8538 30.4603 44.1744 30.4138 44.4944L30.4653 44.5119C30.8755 44.6528 31.2712 44.8507 31.6658 45.0273C32.3967 45.3545 33.1254 45.6875 33.8601 46.0067L45.5274 51.0269L48.1889 52.181C48.703 52.4019 49.2889 52.7011 49.8408 52.8146C49.9076 52.8283 49.9568 52.8312 50.0206 52.8049C50.4008 52.6479 50.7089 51.6861 50.8611 51.3299C54.5814 43.216 58.3581 35.1257 62.1911 27.0593L65.6637 19.7116C66.1421 18.6962 66.9088 17.3677 67.2122 16.3314C67.0173 15.822 66.8253 15.778 66.3184 15.5519C65.1938 15.0505 64.0388 14.6043 62.9051 14.1202L55.6838 10.9985L47.4847 7.46575C46.9109 7.22406 45.4995 6.51096 44.9506 6.4581ZM35.5963 14.9247C35.5228 15.2136 35.4407 15.4662 35.2943 15.7301C34.7517 16.7081 33.397 18.1834 32.4064 18.749C32.0945 18.9271 31.731 19.0658 31.3635 18.9806C31.14 18.9289 30.9938 18.8014 30.8497 18.6386C30.2706 19.1014 29.6869 19.5434 29.0582 19.9443C27.8119 20.7393 26.026 21.6278 25.1037 22.7668C24.3962 23.6402 24.1294 24.7936 23.7522 25.8189C23.458 26.6026 23.1534 27.3827 22.8385 28.1591C21.8487 30.5006 20.8103 32.8224 19.7233 35.1247C19.2545 36.1398 18.726 37.1322 18.3161 38.1711C18.0913 38.7506 17.8904 39.3376 17.7131 39.9319C17.5358 40.5261 17.3828 41.1259 17.254 41.7314C17.0335 42.7304 16.8648 43.7481 16.5713 44.7306C15.7516 47.4747 13.4033 49.7399 11.2403 51.6047C10.727 52.0472 10.2009 52.5543 9.6349 52.9279C10.8964 54.5191 12.4453 55.882 14.0332 57.1739C14.4587 57.5221 14.8892 57.8644 15.3249 58.2009C15.7606 58.5374 16.2012 58.8679 16.6467 59.1925C17.0924 59.5171 17.5427 59.8356 17.9978 60.148C18.4529 60.4604 18.9126 60.7665 19.3769 61.0665C19.8412 61.3664 20.3099 61.6601 20.7829 61.9474C21.256 62.2346 21.7333 62.5154 22.2148 62.7898C22.6963 63.0642 23.1818 63.3319 23.6713 63.5932C24.1608 63.8544 24.6541 64.1089 25.1513 64.3568C25.7924 63.3365 26.8316 62.0298 27.8645 61.361C27.9618 61.298 28.0619 61.2393 28.1648 61.1849C28.2676 61.1305 28.3729 61.0806 28.4806 61.0352C28.5882 60.9898 28.6978 60.9491 28.8092 60.9131C28.9208 60.8771 29.0337 60.846 29.1482 60.8197C29.731 60.6806 30.341 60.6163 30.9342 60.5238C31.3508 60.4588 31.7753 60.3619 32.1936 60.3197C35.4558 59.6914 38.5446 58.8133 41.5759 57.4983C40.6563 57.1279 39.769 56.6834 38.8593 56.2906L31.5837 53.1434C30.2991 52.5828 29.0053 51.9637 27.6878 51.4797C26.7307 52.6552 25.5982 53.6331 24.164 54.2556C23.8656 54.3852 23.517 54.5378 23.1877 54.571C23.059 54.584 22.9808 54.5678 22.8691 54.5009C22.8082 54.4196 22.7958 54.3801 22.7916 54.2806C22.8443 54.1428 22.9777 54.0571 23.114 53.9964C23.315 53.9072 23.55 53.8687 23.7615 53.804C23.9838 53.736 24.1945 53.6322 24.3995 53.527C26.4527 52.4735 27.8737 50.5073 28.728 48.4872C30.3082 44.7505 30.4301 39.967 29.6078 36.053C29.4351 35.2307 29.2669 34.3661 28.9128 33.5939C28.8044 33.3575 28.6758 33.1442 28.5238 32.931C29.315 30.9248 30.2431 28.956 30.5585 26.8159C30.0018 26.6507 29.2157 26.2731 28.9492 25.7461C28.8761 25.6016 28.8683 25.4664 28.9256 25.3176C28.9987 25.2584 29.0236 25.2309 29.1275 25.2399C29.6711 25.2873 29.9034 26.4987 31.4376 26.0893C31.7621 26.0027 32.0835 25.8672 32.3653 25.691C32.3842 25.6793 32.4028 25.6671 32.4214 25.6551C33.233 24.2149 33.8425 22.6406 34.5231 21.1402C35.0957 19.8782 35.7757 18.6468 36.1988 17.3289C36.3578 16.8336 36.5688 16.1905 36.41 15.6769C36.3253 15.4031 36.1285 15.127 35.8514 15.0006C35.7714 14.9641 35.6822 14.9446 35.5963 14.9247ZM8.10792 52.5171C6.51954 53.6162 5.15332 55.0315 3.82079 56.3954C3.15462 57.0773 2.45261 57.7541 1.8983 58.5239C5.16209 62.914 12.3671 67.6427 17.4222 70.0695C18.7402 70.7023 20.1128 71.2219 21.485 71.7372C21.9152 71.8765 22.348 71.9948 22.7864 72.1081L27.2672 66.2819C22.1008 63.9502 17.4412 61.1461 13.1376 57.5553C11.9217 56.5407 10.6971 55.4944 9.64075 54.3266C9.35609 54.0118 9.07557 53.6903 8.81705 53.3556C8.63014 53.1136 8.45989 52.8547 8.25476 52.6263C8.21455 52.5816 8.17086 52.5308 8.10792 52.5171ZM46.8132 1.78834C45.7388 1.91493 44.7997 2.31223 44.1258 3.14374C43.5817 3.81498 43.3303 4.68451 42.9776 5.45348L41.0486 9.60528C38.6432 14.6153 36.2686 19.6383 33.9249 24.6745L31.2565 30.5261C30.7398 31.6653 30.2716 32.8347 29.6562 33.9297C29.8762 34.5013 30.0191 35.1089 30.1716 35.6994C31.1099 33.7596 31.925 31.7725 32.8324 29.8207C35.3283 24.4484 37.8531 19.0884 40.4069 13.7407C41.1475 12.2139 41.8723 10.6802 42.5811 9.13969C42.9384 8.36673 43.4279 7.13362 43.8746 6.45403C44.0169 6.23742 44.2753 6.05077 44.5277 5.96674C44.8185 5.86992 45.1675 5.91154 45.4552 5.99779C46.0491 6.17582 46.6185 6.45719 47.1828 6.70445C47.8637 7.00163 48.5476 7.29238 49.2346 7.5767C52.4365 8.92252 55.6249 10.2968 58.7997 11.6995C60.4142 12.3941 62.0239 13.1032 63.6481 13.777C64.705 14.2156 65.8338 14.5949 66.8376 15.132C67.1157 15.2809 67.5529 15.5367 67.6806 15.8235C67.805 16.103 67.7917 16.5137 67.6973 16.7965C67.4544 17.5236 67.067 18.2218 66.7346 18.9155L65.0441 22.4557L60.365 32.3329C59.5388 34.0769 58.6458 35.8161 57.8892 37.5873C58.4545 37.1705 59.0115 36.8273 59.7062 36.6454C60.5834 34.6396 61.5618 32.6643 62.4916 30.6797L66.81 21.4682L68.7935 17.309C69.2074 16.4438 69.6986 15.5821 69.9669 14.6638C70.1724 13.9607 70.1713 13.2977 69.8787 12.6155C69.5844 11.9292 69.1471 11.4441 68.4965 11.0427C67.7039 10.5536 66.7811 10.224 65.9271 9.84536C64.2919 9.11191 62.6514 8.38936 61.0056 7.67771L52.4371 3.90632C51.0944 3.31771 49.7675 2.66817 48.3992 2.13552C47.9395 1.95657 47.3184 1.74002 46.8132 1.78834ZM30.3401 45.0688C29.9434 46.7769 29.4875 48.4248 28.638 49.9872C28.5027 50.2359 28.3723 50.5069 28.2089 50.7393C31.7064 52.2227 35.1907 53.7337 38.6617 55.2722L42.8896 57.1708C43.9557 57.6499 45.0003 58.2145 46.1513 58.4906C46.247 58.5131 46.3436 58.532 46.4409 58.5475C46.5382 58.563 46.636 58.575 46.7343 58.5834C46.8325 58.5919 46.931 58.5967 47.0296 58.598C47.1283 58.5994 47.2268 58.5971 47.3253 58.5914C47.4238 58.5856 47.5219 58.5763 47.6196 58.5634C47.7174 58.5505 47.8144 58.5341 47.9109 58.5143C48.0073 58.4944 48.1028 58.4711 48.1973 58.4443C48.2918 58.4176 48.3852 58.3875 48.4774 58.354C49.6421 57.9343 50.2924 57.045 50.7822 55.9975C51.3557 54.7712 51.8761 53.5205 52.4124 52.2791C52.0724 51.7636 52.067 51.1219 52.214 50.5453C52.2187 50.5272 52.224 50.5092 52.2289 50.4912C52.52 49.773 53.0294 49.0811 53.7956 48.7697C53.9416 48.7104 54.096 48.656 54.2487 48.6144C54.4595 48.1015 54.6843 47.5884 54.8675 47.0659C54.6016 46.535 54.418 46.0101 54.3129 45.4304C53.9104 46.176 53.5708 46.9603 53.2141 47.727L51.7772 50.8068C51.454 51.5113 51.1956 52.3238 50.7441 52.96C50.5992 53.164 50.4808 53.259 50.2335 53.339C49.9123 53.4429 49.5904 53.3797 49.2804 53.2766C48.5188 53.023 47.787 52.6467 47.0551 52.3238L43.2652 50.6817C38.9493 48.8332 34.6083 47.0145 30.3401 45.0688ZM58.2155 42.9996C57.246 43.0773 56.1992 43.0573 55.5058 43.8174C55.0978 44.2646 54.9229 44.8646 54.9778 45.4496C55.0436 46.1508 55.4006 46.9215 55.9755 47.3791C56.6046 47.8798 57.2927 47.8173 58.053 47.7989C58.9771 47.7258 59.9335 47.6338 60.5718 46.9111C61.0216 46.402 61.2126 45.7396 61.1471 45.0818C61.0666 44.2733 60.6361 43.5985 60.0908 42.995C59.4789 42.982 58.8246 42.9356 58.2155 42.9996ZM60.8815 37.0938C59.8874 37.2178 58.7706 37.4192 58.1199 38.2217C57.7343 38.6972 57.5395 39.3032 57.6264 39.9013C57.7253 40.5829 58.0901 41.3587 58.6806 41.7797C59.1457 42.1115 59.7425 42.2201 60.3103 42.1371C61.3877 41.9527 62.6558 41.6642 63.319 40.7537C63.7016 40.2285 63.7562 39.636 63.6287 39.0238C63.5007 38.4088 63.2083 37.7939 62.648 37.431C62.1199 37.0891 61.5033 37.0144 60.8815 37.0938ZM56.3391 49.1977C55.2754 49.2494 54.085 49.0255 53.2817 49.8711C53.2589 49.8956 53.2367 49.9206 53.2151 49.9462C53.1935 49.9717 53.1726 49.9977 53.1523 50.0243C53.1321 50.0508 53.1125 50.0778 53.0937 50.1052C53.0748 50.1326 53.0567 50.1604 53.0392 50.1887C53.0217 50.217 53.005 50.2456 52.9891 50.2747C52.9731 50.3037 52.9579 50.333 52.9434 50.3628C52.9289 50.3925 52.9152 50.4226 52.9023 50.4529C52.8894 50.4833 52.8772 50.514 52.8659 50.5449C52.8545 50.5759 52.8439 50.607 52.8342 50.6385C52.8244 50.6699 52.8155 50.7015 52.8074 50.7334C52.7992 50.7652 52.7919 50.7972 52.7854 50.8294C52.7789 50.8615 52.7732 50.8939 52.7683 50.9263C52.7635 50.9587 52.7595 50.9912 52.7563 51.0239C52.7531 51.0565 52.7508 51.0892 52.7493 51.1219C52.7478 51.1547 52.7472 51.1874 52.7473 51.2201C52.7475 51.2529 52.7485 51.2857 52.7503 51.3184C52.7883 51.896 53.1589 52.5031 53.6203 52.8729C54.0419 53.2107 54.4758 53.3138 55.015 53.295C56.0343 53.1694 57.2483 53.1168 57.9261 52.2763C58.3568 51.7422 58.6283 50.9452 58.5258 50.2715C58.478 49.958 58.3594 49.6492 58.0842 49.4528C57.6351 49.1322 56.8713 49.1509 56.3391 49.1977ZM63.9579 29.4691C63.1113 31.276 62.457 33.1316 61.6794 34.9622C62.3932 34.7265 63.0909 34.478 63.7806 34.1847C64.7398 33.7247 66.2883 33.0765 66.6467 32.0246C66.8164 31.5263 66.736 30.9431 66.4854 30.4792C66.2453 30.0351 65.8298 29.7555 65.3327 29.6169C64.8874 29.4928 64.4185 29.4803 63.9579 29.4691ZM34.8592 14.7923C34.0445 15.2662 31.6965 17.4477 31.3257 18.2607C31.3288 18.3448 31.3378 18.3696 31.4074 18.4313C31.4246 18.4466 31.445 18.4582 31.4638 18.4718C31.7884 18.3705 32.0732 18.266 32.3543 18.0793C33.0772 17.5989 34.4093 16.1294 34.8102 15.3849C34.895 15.2274 34.9921 15.0605 34.9741 14.8792L34.9255 14.7997L34.8592 14.7923ZM56.9447 39.6971C56.3413 40.8555 55.8681 42.0723 55.222 43.2126L55.766 42.9162C56.2103 42.6876 56.6489 42.597 57.1387 42.4951C57.3208 42.1243 57.4946 41.7522 57.6306 41.3634C57.1522 40.7624 57.2004 40.3584 56.9447 39.6971ZM52.9787 53.1709C52.7466 53.6309 52.5267 54.0924 52.311 54.5595C52.8089 54.4598 53.3032 54.3463 53.7941 54.2191L54.9675 53.9178C54.1371 53.8634 53.6471 53.6282 52.9787 53.1709ZM31.9883 26.5857L31.3995 26.7697C31.2159 27.5384 31.1266 28.277 30.84 29.0275C30.5498 29.7876 30.0848 30.5371 29.877 31.3161L29.9189 31.3135C30.1673 30.7959 32.0852 26.7599 32.0197 26.5886L31.9883 26.5857ZM55.4172 47.8295C55.3098 48.0504 55.2222 48.2733 55.1386 48.5033C55.357 48.4783 55.5755 48.4543 55.7941 48.4315C55.9061 48.4168 55.9923 48.4289 56.0719 48.3497C56.0451 48.2208 55.9572 48.1647 55.8478 48.0948C55.7053 48.0048 55.5618 47.9164 55.4172 47.8295ZM26.1486 64.4361L25.9303 64.755C26.232 64.9024 26.5395 65.0278 26.8522 65.1519L26.913 65.1352C26.7458 64.8736 26.3932 64.6372 26.1486 64.4361Z" fill="#4D4D4D" fill-opacity="0.5"/>
<path d="M37.5596 49.223C37.6252 49.2161 37.6909 49.2118 37.7568 49.2101C37.8228 49.2085 37.8887 49.2095 37.9545 49.2131C38.0203 49.2167 38.0859 49.223 38.1512 49.232C38.2165 49.2409 38.2812 49.2525 38.3455 49.2666C38.4097 49.2808 38.4732 49.2975 38.5359 49.3168C38.5987 49.3361 38.6605 49.3579 38.7213 49.3822C38.7821 49.4064 38.8418 49.4331 38.9002 49.4622C38.9586 49.4913 39.0156 49.5226 39.0713 49.5563C39.5424 49.8457 39.8293 50.2991 39.9373 50.8157C40.0601 51.4023 39.9484 52.0012 39.5891 52.4957C39.2285 52.9921 38.6775 53.2825 38.0603 53.3913C37.5393 53.4016 37.0852 53.3533 36.6312 53.0794C36.6005 53.0611 36.5703 53.042 36.5406 53.0222C36.5109 53.0024 36.4818 52.9819 36.4531 52.9607C36.4245 52.9396 36.3964 52.9177 36.3689 52.8952C36.3414 52.8727 36.3145 52.8496 36.2883 52.8258C36.262 52.8021 36.2364 52.7777 36.2113 52.7527C36.1864 52.7277 36.162 52.7022 36.1384 52.676C36.1147 52.6499 36.0918 52.6232 36.0695 52.596C36.0473 52.5688 36.0257 52.5411 36.0049 52.5128C35.9841 52.4846 35.964 52.4559 35.9447 52.4267C35.9254 52.3975 35.9068 52.3678 35.8891 52.3378C35.8713 52.3077 35.8544 52.2772 35.8382 52.2464C35.8221 52.2155 35.8067 52.1843 35.7922 52.1527C35.7777 52.1211 35.764 52.0892 35.7512 52.0569C35.7383 52.0247 35.7263 51.9922 35.7152 51.9594C35.704 51.9265 35.6937 51.8935 35.6843 51.8602C35.6749 51.8269 35.6663 51.7934 35.6587 51.7597C35.6506 51.7249 35.6434 51.69 35.6372 51.655C35.631 51.6199 35.6257 51.5847 35.6214 51.5493C35.6171 51.5139 35.6137 51.4785 35.6112 51.443C35.6087 51.4075 35.6072 51.372 35.6067 51.3364C35.6061 51.3008 35.6065 51.2653 35.6079 51.2297C35.6092 51.1941 35.6115 51.1586 35.6147 51.1231C35.6179 51.0877 35.6221 51.0524 35.6273 51.0171C35.6324 50.9819 35.6384 50.9468 35.6454 50.9118C35.6524 50.8768 35.6603 50.8421 35.6691 50.8075C35.6779 50.773 35.6877 50.7386 35.6984 50.7045C35.7091 50.6704 35.7206 50.6366 35.7331 50.603C35.7456 50.5695 35.759 50.5362 35.7732 50.5033C35.7874 50.4704 35.8026 50.4379 35.8186 50.4057C35.8345 50.3735 35.8513 50.3417 35.869 50.3103C35.8867 50.279 35.9052 50.2481 35.9245 50.2176C35.9438 50.1871 35.9639 50.1571 35.9849 50.1276C36.3702 49.5779 36.8983 49.3513 37.5596 49.223ZM37.5956 49.7874C37.1054 49.9191 36.699 50.1006 36.4326 50.5405C36.2166 50.8973 36.1431 51.322 36.2712 51.7187C36.2791 51.7433 36.2877 51.7676 36.2969 51.7918C36.306 51.816 36.3158 51.84 36.3263 51.8637C36.3367 51.8874 36.3478 51.9109 36.3594 51.934C36.3711 51.9573 36.3833 51.9802 36.3962 52.0028C36.4091 52.0254 36.4225 52.0477 36.4365 52.0697C36.4506 52.0917 36.4651 52.1133 36.4803 52.1346C36.4955 52.1559 36.5112 52.1769 36.5274 52.1974C36.5436 52.218 36.5604 52.2381 36.5777 52.2579C36.595 52.2776 36.6128 52.297 36.6311 52.316C36.6495 52.3349 36.6682 52.3533 36.6875 52.3713C36.7068 52.3894 36.7265 52.407 36.7467 52.4241C36.7669 52.4411 36.7876 52.4577 36.8086 52.4739C36.8297 52.49 36.8512 52.5057 36.8731 52.5208C36.8949 52.5359 36.9172 52.5505 36.9399 52.5645C36.9625 52.5786 36.9855 52.5921 37.0089 52.6051C37.0322 52.618 37.0559 52.6305 37.0799 52.6423C37.372 52.787 37.7525 52.878 38.079 52.8087C38.5776 52.6639 38.9946 52.432 39.2412 51.974C39.4398 51.6049 39.4634 51.1885 39.3268 50.7965C39.1973 50.4251 38.9292 50.1278 38.5605 49.9531C38.2452 49.8038 37.9403 49.7699 37.5956 49.7874Z" fill="#4D4D4D" fill-opacity="0.5"/>
<path d="M55.097 7.29296C55.1373 7.29409 55.1469 7.29316 55.1841 7.29808C55.6323 7.35738 58.7544 8.7114 58.9384 8.98724C59.0105 9.09535 59.0529 9.22077 59.016 9.34774C58.9569 9.55172 58.7897 9.64519 58.6067 9.74162C58.172 9.71698 54.9833 8.36785 54.7484 8.05197C54.6794 7.95915 54.6562 7.8127 54.6829 7.70365C54.7295 7.51293 54.9374 7.39143 55.097 7.29296Z" fill="#4D4D4D" fill-opacity="0.5"/>
<path d="M46.2815 1H47.5767C49.5026 1.58711 51.339 2.50091 53.1693 3.31414L60.4855 6.54108L65.7316 8.83774C66.7193 9.26462 67.7569 9.64575 68.7025 10.1512C69.7851 10.7297 70.5225 11.5744 70.849 12.7206C70.8737 12.8072 70.8954 12.8945 70.9141 12.9825C70.9329 13.0705 70.9485 13.159 70.9612 13.2479C70.9738 13.3369 70.9833 13.4261 70.9898 13.5157C70.9963 13.6052 70.9997 13.6949 71 13.7846C71.0003 13.8744 70.9976 13.9641 70.9917 14.0537C70.9858 14.1433 70.9769 14.2326 70.9649 14.3217C70.9529 14.4107 70.9378 14.4993 70.9197 14.5874C70.9016 14.6755 70.8805 14.7629 70.8564 14.8497C70.6108 15.7228 70.1577 16.5404 69.7651 17.3602L68.0551 20.9447L65.6441 26.0453C65.2541 26.8688 64.8726 27.8385 64.4023 28.6088C64.7647 28.6279 65.1219 28.657 65.475 28.7409C66.1969 28.9123 66.7922 29.2945 67.1747 29.9076C67.5934 30.5792 67.7242 31.4543 67.5138 32.21C67.4982 32.2649 67.4807 32.3193 67.4614 32.3732C67.4421 32.4271 67.421 32.4803 67.398 32.5329C67.3751 32.5855 67.3504 32.6373 67.3239 32.6884C67.2975 32.7394 67.2693 32.7896 67.2395 32.8389C67.2097 32.8883 67.1782 32.9367 67.145 32.9841C67.1119 33.0315 67.0771 33.0779 67.0408 33.1231C67.0046 33.1684 66.9668 33.2125 66.9275 33.2555C66.8882 33.2985 66.8475 33.3402 66.8054 33.3806C65.8503 34.3107 63.8509 35.118 62.5683 35.5762C62.0319 35.7678 61.5107 35.8641 61.0098 36.1439C61.6202 36.1942 62.3073 36.1992 62.8529 36.4933C63.6738 36.9358 64.2178 37.7426 64.4559 38.5963C64.685 39.4182 64.6459 40.3722 64.1876 41.1183C63.575 42.1155 62.2943 42.5982 61.175 42.8734C61.6882 43.5905 62.0273 44.4029 62.0507 45.2767C62.075 46.1849 61.7468 47.029 61.0792 47.6858C60.3853 48.3685 59.3851 48.6027 58.4129 48.6208L58.4721 48.6626C59.0526 49.0773 59.3265 49.5935 59.4178 50.2675C59.5354 51.1353 59.1941 52.1497 58.632 52.835C57.5738 54.1254 53.6775 55.2786 51.9472 55.4884C51.6988 55.916 51.4934 56.3716 51.2675 56.8106C50.7038 57.906 49.8034 58.7597 48.5722 59.1535C46.5097 59.813 44.3901 58.761 42.5737 57.9109C38.4864 59.885 34.7258 60.8124 30.2217 61.4668C28.3009 61.7459 27.7844 62.3519 26.6689 63.795C26.9834 64.0772 27.2917 64.3655 27.5937 64.6598C27.9137 64.9779 28.3673 65.4679 28.3401 65.938C28.3246 66.2047 28.1819 66.4696 28.036 66.6935C27.7721 67.0985 27.4458 67.4756 27.1513 67.8616C26.5192 68.6957 25.88 69.5249 25.2337 70.3492C24.7537 70.9686 23.732 72.4565 23.2254 72.8612C23.038 73.0111 22.8327 73.0153 22.5995 72.9851C21.5477 72.8499 19.9189 72.113 18.9533 71.6893C18.1469 71.3382 17.3501 70.9683 16.5629 70.5798C15.7758 70.1913 14.9992 69.7845 14.2332 69.3595C13.4671 68.9345 12.7126 68.4917 11.9696 68.0313C11.2266 67.5709 10.496 67.0933 9.77783 66.5985C9.00841 66.0694 8.26424 65.5024 7.51564 64.9471C5.40218 63.3792 3.25998 61.6445 1.62763 59.6069C1.39289 59.3139 0.928548 58.7379 1.00932 58.3487C1.18669 57.4941 6.31486 52.6899 7.36671 51.9684C7.66004 51.7672 7.94826 51.599 8.32689 51.6664C8.66043 51.7256 8.87696 51.9591 9.0615 52.2116L9.08987 52.2509C11.1617 50.6665 13.4989 48.6371 14.815 46.411C15.8106 44.727 16.0254 43.091 16.4387 41.2486C16.6367 40.3481 16.8985 39.4646 17.2238 38.5981C18.0852 36.3209 19.2431 34.1473 20.2383 31.9206C21.0174 30.211 21.7505 28.4838 22.4377 26.739C22.7905 25.8374 23.0907 24.9179 23.4414 24.0159C23.7629 23.1892 24.1536 22.483 24.8076 21.8482C26.3728 20.3291 28.5073 19.5183 30.1453 18.088C31.2712 17.1049 33.3112 14.5735 34.5375 14.066C34.9183 13.9085 35.3134 13.9272 35.6951 14.0713C36.4553 14.358 36.9052 14.9229 37.2096 15.6191C37.827 14.4446 38.3778 13.2477 38.9441 12.0509C39.7388 10.3841 40.5204 8.71171 41.2889 7.0338C41.8436 5.82456 42.3952 4.41806 43.0374 3.2694C43.7894 1.92435 44.8051 1.43477 46.2815 1ZM44.9506 6.4581C44.7286 6.50724 44.5119 6.561 44.3808 6.753C43.9129 7.43804 43.626 8.37313 43.2775 9.1254L40.9875 13.9467C38.6135 18.8894 36.2763 23.8478 33.9759 28.8217L31.7324 33.7527C31.2765 34.7623 30.8399 35.7821 30.3359 36.771C30.3889 37.0901 30.4357 37.41 30.4763 37.7307C30.517 38.0514 30.5514 38.3727 30.5796 38.6946C30.6078 39.0165 30.6298 39.3388 30.6456 39.6614C30.6613 39.9841 30.6708 40.307 30.6741 40.63C30.6773 40.953 30.6743 41.2759 30.6651 41.5989C30.6559 41.9218 30.6404 42.2444 30.6187 42.5668C30.5969 42.8891 30.569 43.211 30.5348 43.5324C30.5007 43.8538 30.4603 44.1744 30.4138 44.4944L30.4653 44.5119C30.8755 44.6528 31.2712 44.8507 31.6658 45.0273C32.3967 45.3545 33.1254 45.6875 33.8601 46.0067L45.5274 51.0269L48.1889 52.181C48.703 52.4019 49.2889 52.7011 49.8408 52.8146C49.9076 52.8283 49.9568 52.8312 50.0206 52.8049C50.4008 52.6479 50.7089 51.6861 50.8611 51.3299C54.5814 43.216 58.3581 35.1257 62.1911 27.0593L65.6637 19.7116C66.1421 18.6962 66.9088 17.3677 67.2122 16.3314C67.0173 15.822 66.8253 15.778 66.3184 15.5519C65.1938 15.0505 64.0388 14.6043 62.9051 14.1202L55.6838 10.9985L47.4847 7.46575C46.9109 7.22406 45.4995 6.51096 44.9506 6.4581ZM35.5963 14.9247C35.5228 15.2136 35.4407 15.4662 35.2943 15.7301C34.7517 16.7081 33.397 18.1834 32.4064 18.749C32.0945 18.9271 31.731 19.0658 31.3635 18.9806C31.14 18.9289 30.9938 18.8014 30.8497 18.6386C30.2706 19.1014 29.6869 19.5434 29.0582 19.9443C27.8119 20.7393 26.026 21.6278 25.1037 22.7668C24.3962 23.6402 24.1294 24.7936 23.7522 25.8189C23.458 26.6026 23.1534 27.3827 22.8385 28.1591C21.8487 30.5006 20.8103 32.8224 19.7233 35.1247C19.2545 36.1398 18.726 37.1322 18.3161 38.1711C18.0913 38.7506 17.8904 39.3376 17.7131 39.9319C17.5358 40.5261 17.3828 41.1259 17.254 41.7314C17.0335 42.7304 16.8648 43.7481 16.5713 44.7306C15.7516 47.4747 13.4033 49.7399 11.2403 51.6047C10.727 52.0472 10.2009 52.5543 9.6349 52.9279C10.8964 54.5191 12.4453 55.882 14.0332 57.1739C14.4587 57.5221 14.8892 57.8644 15.3249 58.2009C15.7606 58.5374 16.2012 58.8679 16.6467 59.1925C17.0924 59.5171 17.5427 59.8356 17.9978 60.148C18.4529 60.4604 18.9126 60.7665 19.3769 61.0665C19.8412 61.3664 20.3099 61.6601 20.7829 61.9474C21.256 62.2346 21.7333 62.5154 22.2148 62.7898C22.6963 63.0642 23.1818 63.3319 23.6713 63.5932C24.1608 63.8544 24.6541 64.1089 25.1513 64.3568C25.7924 63.3365 26.8316 62.0298 27.8645 61.361C27.9618 61.298 28.0619 61.2393 28.1648 61.1849C28.2676 61.1305 28.3729 61.0806 28.4806 61.0352C28.5882 60.9898 28.6978 60.9491 28.8092 60.9131C28.9208 60.8771 29.0337 60.846 29.1482 60.8197C29.731 60.6806 30.341 60.6163 30.9342 60.5238C31.3508 60.4588 31.7753 60.3619 32.1936 60.3197C35.4558 59.6914 38.5446 58.8133 41.5759 57.4983C40.6563 57.1279 39.769 56.6834 38.8593 56.2906L31.5837 53.1434C30.2991 52.5828 29.0053 51.9637 27.6878 51.4797C26.7307 52.6552 25.5982 53.6331 24.164 54.2556C23.8656 54.3852 23.517 54.5378 23.1877 54.571C23.059 54.584 22.9808 54.5678 22.8691 54.5009C22.8082 54.4196 22.7958 54.3801 22.7916 54.2806C22.8443 54.1428 22.9777 54.0571 23.114 53.9964C23.315 53.9072 23.55 53.8687 23.7615 53.804C23.9838 53.736 24.1945 53.6322 24.3995 53.527C26.4527 52.4735 27.8737 50.5073 28.728 48.4872C30.3082 44.7505 30.4301 39.967 29.6078 36.053C29.4351 35.2307 29.2669 34.3661 28.9128 33.5939C28.8044 33.3575 28.6758 33.1442 28.5238 32.931C29.315 30.9248 30.2431 28.956 30.5585 26.8159C30.0018 26.6507 29.2157 26.2731 28.9492 25.7461C28.8761 25.6016 28.8683 25.4664 28.9256 25.3176C28.9987 25.2584 29.0236 25.2309 29.1275 25.2399C29.6711 25.2873 29.9034 26.4987 31.4376 26.0893C31.7621 26.0027 32.0835 25.8672 32.3653 25.691C32.3842 25.6793 32.4028 25.6671 32.4214 25.6551C33.233 24.2149 33.8425 22.6406 34.5231 21.1402C35.0957 19.8782 35.7757 18.6468 36.1988 17.3289C36.3578 16.8336 36.5688 16.1905 36.41 15.6769C36.3253 15.4031 36.1285 15.127 35.8514 15.0006C35.7714 14.9641 35.6822 14.9446 35.5963 14.9247ZM8.10792 52.5171C6.51954 53.6162 5.15332 55.0315 3.82079 56.3954C3.15462 57.0773 2.45261 57.7541 1.8983 58.5239C5.16209 62.914 12.3671 67.6427 17.4222 70.0695C18.7402 70.7023 20.1128 71.2219 21.485 71.7372C21.9152 71.8765 22.348 71.9948 22.7864 72.1081L27.2672 66.2819C22.1008 63.9502 17.4412 61.1461 13.1376 57.5553C11.9217 56.5407 10.6971 55.4944 9.64075 54.3266C9.35609 54.0118 9.07557 53.6903 8.81705 53.3556C8.63014 53.1136 8.45989 52.8547 8.25476 52.6263C8.21455 52.5816 8.17086 52.5308 8.10792 52.5171ZM46.8132 1.78834C45.7388 1.91493 44.7997 2.31223 44.1258 3.14374C43.5817 3.81498 43.3303 4.68451 42.9776 5.45348L41.0486 9.60528C38.6432 14.6153 36.2686 19.6383 33.9249 24.6745L31.2565 30.5261C30.7398 31.6653 30.2716 32.8347 29.6562 33.9297C29.8762 34.5013 30.0191 35.1089 30.1716 35.6994C31.1099 33.7596 31.925 31.7725 32.8324 29.8207C35.3283 24.4484 37.8531 19.0884 40.4069 13.7407C41.1475 12.2139 41.8723 10.6802 42.5811 9.13969C42.9384 8.36673 43.4279 7.13362 43.8746 6.45403C44.0169 6.23742 44.2753 6.05077 44.5277 5.96674C44.8185 5.86992 45.1675 5.91154 45.4552 5.99779C46.0491 6.17582 46.6185 6.45719 47.1828 6.70445C47.8637 7.00163 48.5476 7.29238 49.2346 7.5767C52.4365 8.92252 55.6249 10.2968 58.7997 11.6995C60.4142 12.3941 62.0239 13.1032 63.6481 13.777C64.705 14.2156 65.8338 14.5949 66.8376 15.132C67.1157 15.2809 67.5529 15.5367 67.6806 15.8235C67.805 16.103 67.7917 16.5137 67.6973 16.7965C67.4544 17.5236 67.067 18.2218 66.7346 18.9155L65.0441 22.4557L60.365 32.3329C59.5388 34.0769 58.6458 35.8161 57.8892 37.5873C58.4545 37.1705 59.0115 36.8273 59.7062 36.6454C60.5834 34.6396 61.5618 32.6643 62.4916 30.6797L66.81 21.4682L68.7935 17.309C69.2074 16.4438 69.6986 15.5821 69.9669 14.6638C70.1724 13.9607 70.1713 13.2977 69.8787 12.6155C69.5844 11.9292 69.1471 11.4441 68.4965 11.0427C67.7039 10.5536 66.7811 10.224 65.9271 9.84536C64.2919 9.11191 62.6514 8.38936 61.0056 7.67771L52.4371 3.90632C51.0944 3.31771 49.7675 2.66817 48.3992 2.13552C47.9395 1.95657 47.3184 1.74002 46.8132 1.78834ZM30.3401 45.0688C29.9434 46.7769 29.4875 48.4248 28.638 49.9872C28.5027 50.2359 28.3723 50.5069 28.2089 50.7393C31.7064 52.2227 35.1907 53.7337 38.6617 55.2722L42.8896 57.1708C43.9557 57.6499 45.0003 58.2145 46.1513 58.4906C46.247 58.5131 46.3436 58.532 46.4409 58.5475C46.5382 58.563 46.636 58.575 46.7343 58.5834C46.8325 58.5919 46.931 58.5967 47.0296 58.598C47.1283 58.5994 47.2268 58.5971 47.3253 58.5914C47.4238 58.5856 47.5219 58.5763 47.6196 58.5634C47.7174 58.5505 47.8144 58.5341 47.9109 58.5143C48.0073 58.4944 48.1028 58.4711 48.1973 58.4443C48.2918 58.4176 48.3852 58.3875 48.4774 58.354C49.6421 57.9343 50.2924 57.045 50.7822 55.9975C51.3557 54.7712 51.8761 53.5205 52.4124 52.2791C52.0724 51.7636 52.067 51.1219 52.214 50.5453C52.2187 50.5272 52.224 50.5092 52.2289 50.4912C52.52 49.773 53.0294 49.0811 53.7956 48.7697C53.9416 48.7104 54.096 48.656 54.2487 48.6144C54.4595 48.1015 54.6843 47.5884 54.8675 47.0659C54.6016 46.535 54.418 46.0101 54.3129 45.4304C53.9104 46.176 53.5708 46.9603 53.2141 47.727L51.7772 50.8068C51.454 51.5113 51.1956 52.3238 50.7441 52.96C50.5992 53.164 50.4808 53.259 50.2335 53.339C49.9123 53.4429 49.5904 53.3797 49.2804 53.2766C48.5188 53.023 47.787 52.6467 47.0551 52.3238L43.2652 50.6817C38.9493 48.8332 34.6083 47.0145 30.3401 45.0688ZM58.2155 42.9996C57.246 43.0773 56.1992 43.0573 55.5058 43.8174C55.0978 44.2646 54.9229 44.8646 54.9778 45.4496C55.0436 46.1508 55.4006 46.9215 55.9755 47.3791C56.6046 47.8798 57.2927 47.8173 58.053 47.7989C58.9771 47.7258 59.9335 47.6338 60.5718 46.9111C61.0216 46.402 61.2126 45.7396 61.1471 45.0818C61.0666 44.2733 60.6361 43.5985 60.0908 42.995C59.4789 42.982 58.8246 42.9356 58.2155 42.9996ZM60.8815 37.0938C59.8874 37.2178 58.7706 37.4192 58.1199 38.2217C57.7343 38.6972 57.5395 39.3032 57.6264 39.9013C57.7253 40.5829 58.0901 41.3587 58.6806 41.7797C59.1457 42.1115 59.7425 42.2201 60.3103 42.1371C61.3877 41.9527 62.6558 41.6642 63.319 40.7537C63.7016 40.2285 63.7562 39.636 63.6287 39.0238C63.5007 38.4088 63.2083 37.7939 62.648 37.431C62.1199 37.0891 61.5033 37.0144 60.8815 37.0938ZM56.3391 49.1977C55.2754 49.2494 54.085 49.0255 53.2817 49.8711C53.2589 49.8956 53.2367 49.9206 53.2151 49.9462C53.1935 49.9717 53.1726 49.9977 53.1523 50.0243C53.1321 50.0508 53.1125 50.0778 53.0937 50.1052C53.0748 50.1326 53.0567 50.1604 53.0392 50.1887C53.0217 50.217 53.005 50.2456 52.9891 50.2747C52.9731 50.3037 52.9579 50.333 52.9434 50.3628C52.9289 50.3925 52.9152 50.4226 52.9023 50.4529C52.8894 50.4833 52.8772 50.514 52.8659 50.5449C52.8545 50.5759 52.8439 50.607 52.8342 50.6385C52.8244 50.6699 52.8155 50.7015 52.8074 50.7334C52.7992 50.7652 52.7919 50.7972 52.7854 50.8294C52.7789 50.8615 52.7732 50.8939 52.7683 50.9263C52.7635 50.9587 52.7595 50.9912 52.7563 51.0239C52.7531 51.0565 52.7508 51.0892 52.7493 51.1219C52.7478 51.1547 52.7472 51.1874 52.7473 51.2201C52.7475 51.2529 52.7485 51.2857 52.7503 51.3184C52.7883 51.896 53.1589 52.5031 53.6203 52.8729C54.0419 53.2107 54.4758 53.3138 55.015 53.295C56.0343 53.1694 57.2483 53.1168 57.9261 52.2763C58.3568 51.7422 58.6283 50.9452 58.5258 50.2715C58.478 49.958 58.3594 49.6492 58.0842 49.4528C57.6351 49.1322 56.8713 49.1509 56.3391 49.1977ZM63.9579 29.4691C63.1113 31.276 62.457 33.1316 61.6794 34.9622C62.3932 34.7265 63.0909 34.478 63.7806 34.1847C64.7398 33.7247 66.2883 33.0765 66.6467 32.0246C66.8164 31.5263 66.736 30.9431 66.4854 30.4792C66.2453 30.0351 65.8298 29.7555 65.3327 29.6169C64.8874 29.4928 64.4185 29.4803 63.9579 29.4691ZM34.8592 14.7923C34.0445 15.2662 31.6965 17.4477 31.3257 18.2607C31.3288 18.3448 31.3378 18.3696 31.4074 18.4313C31.4246 18.4466 31.445 18.4582 31.4638 18.4718C31.7884 18.3705 32.0732 18.266 32.3543 18.0793C33.0772 17.5989 34.4093 16.1294 34.8102 15.3849C34.895 15.2274 34.9921 15.0605 34.9741 14.8792L34.9255 14.7997L34.8592 14.7923ZM56.9447 39.6971C56.3413 40.8555 55.8681 42.0723 55.222 43.2126L55.766 42.9162C56.2103 42.6876 56.6489 42.597 57.1387 42.4951C57.3208 42.1243 57.4946 41.7522 57.6306 41.3634C57.1522 40.7624 57.2004 40.3584 56.9447 39.6971ZM52.9787 53.1709C52.7466 53.6309 52.5267 54.0924 52.311 54.5595C52.8089 54.4598 53.3032 54.3463 53.7941 54.2191L54.9675 53.9178C54.1371 53.8634 53.6471 53.6282 52.9787 53.1709ZM31.9883 26.5857L31.3995 26.7697C31.2159 27.5384 31.1266 28.277 30.84 29.0275C30.5498 29.7876 30.0848 30.5371 29.877 31.3161L29.9189 31.3135C30.1673 30.7959 32.0852 26.7599 32.0197 26.5886L31.9883 26.5857ZM55.4172 47.8295C55.3098 48.0504 55.2222 48.2733 55.1386 48.5033C55.357 48.4783 55.5755 48.4543 55.7941 48.4315C55.9061 48.4168 55.9923 48.4289 56.0719 48.3497C56.0451 48.2208 55.9572 48.1647 55.8478 48.0948C55.7053 48.0048 55.5618 47.9164 55.4172 47.8295ZM26.1486 64.4361L25.9303 64.755C26.232 64.9024 26.5395 65.0278 26.8522 65.1519L26.913 65.1352C26.7458 64.8736 26.3932 64.6372 26.1486 64.4361Z" stroke="#4D4D4D" stroke-opacity="0.5" stroke-width="0.4" mask="url(#path-1-outside-1_414_563)"/>
<path d="M37.5596 49.223C37.6252 49.2161 37.6909 49.2118 37.7568 49.2101C37.8228 49.2085 37.8887 49.2095 37.9545 49.2131C38.0203 49.2167 38.0859 49.223 38.1512 49.232C38.2165 49.2409 38.2812 49.2525 38.3455 49.2666C38.4097 49.2808 38.4732 49.2975 38.5359 49.3168C38.5987 49.3361 38.6605 49.3579 38.7213 49.3822C38.7821 49.4064 38.8418 49.4331 38.9002 49.4622C38.9586 49.4913 39.0156 49.5226 39.0713 49.5563C39.5424 49.8457 39.8293 50.2991 39.9373 50.8157C40.0601 51.4023 39.9484 52.0012 39.5891 52.4957C39.2285 52.9921 38.6775 53.2825 38.0603 53.3913C37.5393 53.4016 37.0852 53.3533 36.6312 53.0794C36.6005 53.0611 36.5703 53.042 36.5406 53.0222C36.5109 53.0024 36.4818 52.9819 36.4531 52.9607C36.4245 52.9396 36.3964 52.9177 36.3689 52.8952C36.3414 52.8727 36.3145 52.8496 36.2883 52.8258C36.262 52.8021 36.2364 52.7777 36.2113 52.7527C36.1864 52.7277 36.162 52.7022 36.1384 52.676C36.1147 52.6499 36.0918 52.6232 36.0695 52.596C36.0473 52.5688 36.0257 52.5411 36.0049 52.5128C35.9841 52.4846 35.964 52.4559 35.9447 52.4267C35.9254 52.3975 35.9068 52.3678 35.8891 52.3378C35.8713 52.3077 35.8544 52.2772 35.8382 52.2464C35.8221 52.2155 35.8067 52.1843 35.7922 52.1527C35.7777 52.1211 35.764 52.0892 35.7512 52.0569C35.7383 52.0247 35.7263 51.9922 35.7152 51.9594C35.704 51.9265 35.6937 51.8935 35.6843 51.8602C35.6749 51.8269 35.6663 51.7934 35.6587 51.7597C35.6506 51.7249 35.6434 51.69 35.6372 51.655C35.631 51.6199 35.6257 51.5847 35.6214 51.5493C35.6171 51.5139 35.6137 51.4785 35.6112 51.443C35.6087 51.4075 35.6072 51.372 35.6067 51.3364C35.6061 51.3008 35.6065 51.2653 35.6079 51.2297C35.6092 51.1941 35.6115 51.1586 35.6147 51.1231C35.6179 51.0877 35.6221 51.0524 35.6273 51.0171C35.6324 50.9819 35.6384 50.9468 35.6454 50.9118C35.6524 50.8768 35.6603 50.8421 35.6691 50.8075C35.6779 50.773 35.6877 50.7386 35.6984 50.7045C35.7091 50.6704 35.7206 50.6366 35.7331 50.603C35.7456 50.5695 35.759 50.5362 35.7732 50.5033C35.7874 50.4704 35.8026 50.4379 35.8186 50.4057C35.8345 50.3735 35.8513 50.3417 35.869 50.3103C35.8867 50.279 35.9052 50.2481 35.9245 50.2176C35.9438 50.1871 35.9639 50.1571 35.9849 50.1276C36.3702 49.5779 36.8983 49.3513 37.5596 49.223ZM37.5956 49.7874C37.1054 49.9191 36.699 50.1006 36.4326 50.5405C36.2166 50.8973 36.1431 51.322 36.2712 51.7187C36.2791 51.7433 36.2877 51.7676 36.2969 51.7918C36.306 51.816 36.3158 51.84 36.3263 51.8637C36.3367 51.8874 36.3478 51.9109 36.3594 51.934C36.3711 51.9573 36.3833 51.9802 36.3962 52.0028C36.4091 52.0254 36.4225 52.0477 36.4365 52.0697C36.4506 52.0917 36.4651 52.1133 36.4803 52.1346C36.4955 52.1559 36.5112 52.1769 36.5274 52.1974C36.5436 52.218 36.5604 52.2381 36.5777 52.2579C36.595 52.2776 36.6128 52.297 36.6311 52.316C36.6495 52.3349 36.6682 52.3533 36.6875 52.3713C36.7068 52.3894 36.7265 52.407 36.7467 52.4241C36.7669 52.4411 36.7876 52.4577 36.8086 52.4739C36.8297 52.49 36.8512 52.5057 36.8731 52.5208C36.8949 52.5359 36.9172 52.5505 36.9399 52.5645C36.9625 52.5786 36.9855 52.5921 37.0089 52.6051C37.0322 52.618 37.0559 52.6305 37.0799 52.6423C37.372 52.787 37.7525 52.878 38.079 52.8087C38.5776 52.6639 38.9946 52.432 39.2412 51.974C39.4398 51.6049 39.4634 51.1885 39.3268 50.7965C39.1973 50.4251 38.9292 50.1278 38.5605 49.9531C38.2452 49.8038 37.9403 49.7699 37.5956 49.7874Z" stroke="#4D4D4D" stroke-opacity="0.5" stroke-width="0.4" mask="url(#path-1-outside-1_414_563)"/>
<path d="M55.097 7.29296C55.1373 7.29409 55.1469 7.29316 55.1841 7.29808C55.6323 7.35738 58.7544 8.7114 58.9384 8.98724C59.0105 9.09535 59.0529 9.22077 59.016 9.34774C58.9569 9.55172 58.7897 9.64519 58.6067 9.74162C58.172 9.71698 54.9833 8.36785 54.7484 8.05197C54.6794 7.95915 54.6562 7.8127 54.6829 7.70365C54.7295 7.51293 54.9374 7.39143 55.097 7.29296Z" stroke="#4D4D4D" stroke-opacity="0.5" stroke-width="0.4" mask="url(#path-1-outside-1_414_563)"/>
</svg>
