<svg width="206" height="237" viewBox="0 0 206 237" fill="none" xmlns="http://www.w3.org/2000/svg">
<path d="M137.331 97.4258L128.333 103.607C120.611 108.911 110.936 100.52 114.795 91.8658L118.713 83.0771C118.999 82.4363 119.354 81.8302 119.772 81.2702L174.502 7.89177C177.654 3.66638 183.596 2.93576 187.637 6.27668L199.575 16.1446C203.766 19.609 204.172 25.9933 200.455 29.9834L138.866 96.1017C138.403 96.5989 137.888 97.0429 137.331 97.4258Z" fill="#FCFCFC"/>
<path d="M137.331 140.484L128.333 134.303C120.611 128.999 110.936 137.39 114.795 146.044L118.713 154.833C118.999 155.474 119.354 156.08 119.772 156.64L174.502 230.018C177.654 234.244 183.596 234.974 187.637 231.633L199.575 221.765C203.766 218.301 204.172 211.917 200.455 207.927L138.866 141.808C138.403 141.311 137.888 140.867 137.331 140.484Z" fill="#FCFCFC"/>
<path d="M68.6691 140.484L77.667 134.303C85.3885 128.999 95.064 137.39 91.2052 146.044L87.2865 154.833C87.0008 155.474 86.6457 156.08 86.228 156.64L31.4975 230.018C28.3459 234.244 22.404 234.974 18.3624 231.633L6.42497 221.765C2.23403 218.301 1.82797 211.917 5.54479 207.927L67.1337 141.808C67.5968 141.311 68.1117 140.867 68.6691 140.484Z" fill="#FCFCFC"/>
<path d="M69.8222 96.2469L78.8201 102.428C86.5416 107.732 96.2171 99.341 92.3583 90.6869L88.4396 81.8981C88.1538 81.2573 87.7988 80.6513 87.3811 80.0913L32.6506 6.71282C29.499 2.48743 23.5571 1.75681 19.5155 5.09773L7.57807 14.9657C3.38712 18.4301 2.98106 24.8143 6.69788 28.8045L68.2868 94.9227C68.7499 95.4199 69.2648 95.8639 69.8222 96.2469Z" fill="#FCFCFC"/>
<path d="M137.331 97.4258L128.333 103.607C120.611 108.911 110.936 100.52 114.795 91.8658L118.713 83.0771C118.999 82.4363 119.354 81.8302 119.772 81.2702L174.502 7.89177C177.654 3.66638 183.596 2.93576 187.637 6.27668L199.575 16.1446C203.766 19.609 204.172 25.9933 200.455 29.9834L138.866 96.1017C138.403 96.5989 137.888 97.0429 137.331 97.4258Z" stroke="#4D4D4D" stroke-width="6"/>
<path d="M137.331 140.484L128.333 134.303C120.611 128.999 110.936 137.39 114.795 146.044L118.713 154.833C118.999 155.474 119.354 156.08 119.772 156.64L174.502 230.018C177.654 234.244 183.596 234.974 187.637 231.633L199.575 221.765C203.766 218.301 204.172 211.917 200.455 207.927L138.866 141.808C138.403 141.311 137.888 140.867 137.331 140.484Z" stroke="#4D4D4D" stroke-width="6"/>
<path d="M68.6691 140.484L77.667 134.303C85.3885 128.999 95.064 137.39 91.2052 146.044L87.2865 154.833C87.0008 155.474 86.6457 156.08 86.228 156.64L31.4975 230.018C28.3459 234.244 22.404 234.974 18.3624 231.633L6.42497 221.765C2.23403 218.301 1.82797 211.917 5.54479 207.927L67.1337 141.808C67.5968 141.311 68.1117 140.867 68.6691 140.484Z" stroke="#4D4D4D" stroke-width="6"/>
<path d="M69.8222 96.2469L78.8201 102.428C86.5416 107.732 96.2171 99.341 92.3583 90.6869L88.4396 81.8981C88.1538 81.2573 87.7988 80.6513 87.3811 80.0913L32.6506 6.71282C29.499 2.48743 23.5571 1.75681 19.5155 5.09773L7.57807 14.9657C3.38712 18.4301 2.98106 24.8143 6.69788 28.8045L68.2868 94.9227C68.7499 95.4199 69.2648 95.8639 69.8222 96.2469Z" stroke="#4D4D4D" stroke-width="6"/>
</svg>
