<svg width="200" height="172" viewBox="0 0 200 172" fill="none" xmlns="http://www.w3.org/2000/svg">
<path d="M125.421 114.251C119.95 115.185 114.469 116.295 109.035 117.433C104.627 118.355 100.26 120.531 96.0334 117.912C91.0667 114.835 89.3566 108.956 86.6539 104.041C73.1283 79.4485 42.112 70.2439 17.9214 83.7685C15.9921 84.8471 14.0957 86.344 11.9695 86.9652C5.80721 88.7666 -0.35732 82.1696 2.10347 76.0231C5.10075 68.5361 16.7475 72.1955 16.894 61.3708C17.0023 53.3653 15.3371 45.4864 15.8848 37.4485C16.1108 34.132 16.6439 30.5147 15.9866 27.2276C15.4349 24.4665 12.6974 23.3555 12.0295 20.7672C10.6637 15.4759 18.5053 13.9482 21.8364 12.7603C30.5929 9.63924 39.271 6.91671 48.35 4.91744C59.3759 2.50988 70.2641 1.05104 81.5127 0.616815C88.9439 0.330183 92.8284 0.128835 90.502 9.08844C88.3648 17.3181 100.363 46.2547 106.867 47.2776C110.244 47.8087 122.27 45.6881 126.895 45.4293C125.501 39.2984 124.017 31.7917 123.131 25.5585C122.551 21.476 123.213 19.7228 125.546 16.5028C125.479 12.022 125.323 9.41718 127.164 5.04978C130.476 -2.80941 135.367 0.937918 134.746 4.03768C134.083 7.34622 131.55 7.17053 131.542 14.6142C137.167 18.8296 136.975 23.1442 138.215 29.7494C139.111 34.5246 139.916 39.3426 140.966 44.0843C150.143 42.4841 173.424 40.8161 180.469 46.6355C183.892 49.4642 184.355 52.537 184.853 56.7607C185.794 64.7256 185.273 72.4709 186.118 79.9769C202.579 96.7549 204.813 121.184 186.952 137.908C164.198 158.068 130.065 144.626 125.421 114.251ZM48.6054 11.2988C39.0064 13.4724 28.7313 16.4561 19.6507 20.325C23.4853 27.3662 22.5252 28.6788 22.0374 36.4484C21.6719 42.2701 22.2114 48.1673 22.6373 53.9729C23.2447 62.2488 24.1867 69.7266 16.0715 74.3525C14.085 75.485 9.0371 76.9382 7.84063 78.6503C7.63087 79.4831 8.65245 80.6651 9.39137 80.7961C9.45236 80.8069 21.4624 74.9784 23.2265 74.3243C49.9325 64.4231 79.6039 76.789 92.7815 102.416C94.5405 105.838 96.1026 111.159 100 112.634C107.452 111.746 117.763 109.288 125.158 107.662C124.943 99.0131 129.35 89.3878 135.068 83.204C146.928 70.3791 164.536 68.116 179.779 75.4038C180.042 70.2401 179.5 64.9174 178.673 59.8218C178.379 57.9788 178.003 53.994 177.528 52.5023C174.992 44.5254 117.776 53.1636 107.961 53.771C109.85 63.7294 113.567 78.8594 107.659 87.8268C104.71 92.3025 98.2312 95.4247 93.4573 91.9745C91.5284 90.5805 89.9289 88.6397 88.2963 86.9022C77.4755 75.3874 63.0287 67.7851 47.368 67.0233C43.3893 66.8294 37.0045 68.1276 33.9325 66.6748C25.1935 62.5421 26.3739 37.1648 28.0854 30.0727C29.96 22.3042 35.6794 21.3019 42.233 19.5472C54.7515 16.1965 71.4218 12.7454 84.1228 11.3861C84.2099 9.75944 84.4597 8.28492 84.8775 6.71599C73.5023 7.07102 59.736 8.33434 48.6054 11.2988ZM57.3778 22.538C53.6991 23.2423 36.8861 26.496 34.9637 29.2662C32.0831 33.4167 33.2382 51.1736 34.2295 56.4363C35.4538 62.9349 38.4833 60.9022 43.523 60.6184C59.2355 59.7336 76.2409 67.1618 87.8451 77.6765C89.4207 79.1788 91.0059 80.6776 92.504 82.2626C95.248 85.165 97.8146 89.7019 101.919 84.9282C106.958 79.067 103.918 65.0501 102.548 57.8266C100.674 47.9393 100.455 52.5995 95.8039 45.3154C90.581 37.1369 87.1285 27.1105 84.8687 17.666C75.628 18.7917 66.5136 20.7462 57.3778 22.538ZM128.814 21.9562C128.677 23.661 132.467 43.8712 133.244 44.8421C133.715 45.0278 134.196 44.9084 134.682 44.8444C133.978 39.3664 132.168 28.261 130.597 22.9762C130.294 21.957 129.778 21.8628 128.814 21.9562ZM154.957 78.5835C137.947 83.5012 127.371 99.8938 132.421 117.815C137.014 134.115 153.495 144.025 169.506 140.208C186.291 135.868 196.466 118.556 192.103 101.213C188.043 85.0751 170.779 73.8596 154.957 78.5835Z" fill="#4D4D4D"/>
<path d="M52.114 170.135C29.8939 174.956 7.44246 161.866 1.97403 138.796C-3.51898 115.622 10.8344 93.0476 33.0091 87.5823C53.9683 81.3796 77.0037 96.2649 82.4369 117.777C88.3466 141.177 74.7227 164.237 52.114 170.135ZM33.4846 94.0365C3.35297 102.408 -2.87087 143.698 24.9441 160.031C33.4007 164.997 42.3457 165.842 51.6668 163.67C70.5275 157.891 82.0661 138.226 76.1853 118.368C70.771 100.084 51.5181 88.5117 33.4846 94.0365Z" fill="#4D4D4D"/>
<path d="M49.1244 153.25L48.9856 153.292C36.3035 156.972 22.097 149.143 18.5695 135.928C14.8835 122.116 22.7061 107.827 36.1998 104.2C49.4339 100.51 63.2823 108.817 66.7215 122.495C70.0761 135.838 62.1505 149.92 49.1244 153.25ZM37.3963 110.511C14.2398 117.774 23.0048 153.75 48.1162 146.852C57.4585 143.812 63.6841 133.039 60.5008 123.19C57.4165 113.648 46.8068 107.171 37.3963 110.511Z" fill="#4D4D4D"/>
<path d="M167.557 128.786C162.868 130.342 157.444 129.241 153.158 126.931C137.426 118.454 140.244 95.3023 156.982 89.9471C166.847 86.5166 177.828 93.6741 180.859 103.48C184.192 114.264 177.903 125.552 167.557 128.786ZM159.408 96.0275C141.905 100.557 148.414 126.267 165.435 122.442C182.655 117.022 176.024 92.6237 159.408 96.0275Z" fill="#4D4D4D"/>
</svg>
