<svg width="74" height="74" viewBox="0 0 74 74" fill="none" xmlns="http://www.w3.org/2000/svg">
<mask id="path-1-outside-1_412_557" maskUnits="userSpaceOnUse" x="0" y="0" width="74" height="74" fill="black">
<rect fill="white" width="74" height="74"/>
<path d="M49.6004 1.00371C49.9303 0.984624 50.2333 1.03718 50.5252 1.20879C50.5708 1.23574 50.6147 1.2654 50.6569 1.29777C50.699 1.33013 50.7391 1.36498 50.7772 1.40231C50.8153 1.43963 50.8511 1.47917 50.8846 1.52092C50.9181 1.56266 50.9491 1.60632 50.9775 1.65189C51.7224 2.82751 50.84 3.88755 51.2303 5.03477C51.6148 6.16484 52.9254 6.81079 53.1956 7.85574C53.3354 8.3962 53.1002 8.92268 52.75 9.32012C52.2514 9.88593 51.4591 10.0244 50.8563 10.4506C49.6157 11.3278 48.5313 12.7807 47.7471 14.0979C47.5082 14.4992 47.3125 14.9235 47.0791 15.3267C47.6376 15.7369 48.1572 16.1742 48.6714 16.6416C48.9629 16.5819 49.2555 16.5288 49.5492 16.4821C52.4154 16.0386 55.526 16.5703 57.8882 18.3782C59.3335 19.4843 60.2669 21.0688 60.5242 22.9065C61.2334 23.0568 61.9342 23.2316 62.6128 23.4956C65.3396 24.556 67.776 26.7176 69.4007 29.1855C73.0159 34.6767 73.6492 41.7734 72.4399 48.159C71.0588 55.4512 66.6586 61.8915 60.7039 66.0132C57.4248 68.283 53.4083 69.6501 49.5031 70.1499C48.7434 70.2413 47.9819 70.3116 47.2186 70.3609C46.7191 70.3925 46.1867 70.3777 45.6966 70.4876C45.1543 70.609 44.648 70.9158 44.1433 71.1474C43.6637 71.3676 43.1611 71.5572 42.6598 71.7169C38.5708 73.0196 34.3773 73.3921 30.1625 72.5481C27.3644 72.0156 24.7837 70.9103 22.3549 69.3895C21.6317 68.9365 20.986 68.283 20.2316 67.8995C19.7941 67.6771 19.3032 67.5597 18.8366 67.4156C18.2964 67.2514 17.7633 67.0655 17.2373 66.858C17.0401 66.7803 16.8439 66.7002 16.6486 66.6176C16.4534 66.5348 16.2592 66.4497 16.066 66.362C15.8728 66.2743 15.6807 66.1841 15.4897 66.0915C15.2987 65.9988 15.1089 65.9037 14.9202 65.8062C14.7315 65.7086 14.5441 65.6087 14.3578 65.5063C14.1716 65.4039 13.9866 65.2991 13.8029 65.192C13.6192 65.0848 13.4369 64.9753 13.2559 64.8635C13.0748 64.7516 12.8952 64.6374 12.7169 64.5209C12.5387 64.4044 12.362 64.2856 12.1866 64.1646C12.0112 64.0435 11.8374 63.9202 11.665 63.7947C11.4927 63.6691 11.3219 63.5414 11.1526 63.4114C10.9834 63.2815 10.8158 63.1494 10.6498 63.0152C10.4837 62.8808 10.3194 62.7444 10.1567 62.6059C9.99399 62.4674 9.83301 62.3268 9.67374 62.1841C9.51441 62.0415 9.35688 61.8968 9.20113 61.7501C9.04538 61.6033 8.89145 61.4546 8.73932 61.3039C3.67854 56.3599 1.17851 49.3159 1.0086 42.2236C0.848618 35.5457 2.91838 28.4679 7.45296 23.5656C10.6178 20.144 14.1995 18.8326 18.7159 18.7179C18.8806 18.4848 19.0533 18.2582 19.234 18.0381C19.4147 17.818 19.6029 17.6049 19.7986 17.3988C19.9942 17.1927 20.1969 16.9942 20.4066 16.8033C20.6163 16.6123 20.8324 16.4294 21.055 16.2546C21.1142 16.2079 21.174 16.1619 21.2343 16.1167C21.2946 16.0714 21.3555 16.0269 21.4169 15.9833C21.4784 15.9396 21.5403 15.8968 21.6027 15.8547C21.6652 15.8126 21.7281 15.7713 21.7915 15.7308C21.855 15.6903 21.9189 15.6507 21.9833 15.6119C22.0477 15.573 22.1125 15.535 22.1778 15.4978C22.2432 15.4606 22.3089 15.4243 22.3751 15.3888C22.4413 15.3533 22.5079 15.3186 22.5749 15.2848C22.642 15.2511 22.7094 15.2181 22.7772 15.186C22.8451 15.154 22.9133 15.1228 22.9818 15.0925C23.0504 15.0621 23.1194 15.0326 23.1887 15.0041C23.2579 14.9755 23.3276 14.9479 23.3975 14.9211C23.4675 14.8943 23.5378 14.8684 23.6083 14.8434C23.6789 14.8184 23.7498 14.7944 23.821 14.7712C23.8921 14.748 23.9635 14.7258 24.0353 14.7044C24.1069 14.6831 24.1789 14.6626 24.2511 14.6431C24.3233 14.6236 24.3957 14.605 24.4683 14.5874C24.541 14.5697 24.6139 14.553 24.6869 14.5372C24.7599 14.5214 24.8332 14.5066 24.9066 14.4927C24.9799 14.4787 25.0535 14.4658 25.1272 14.4537C25.2009 14.4417 25.2748 14.4306 25.3488 14.4205C25.4228 14.4103 25.4968 14.4011 25.571 14.3929C25.6453 14.3846 25.7196 14.3773 25.7939 14.371C25.8683 14.3646 25.9428 14.3592 26.0173 14.3548C26.0918 14.3503 26.1663 14.3468 26.2409 14.3443C26.3155 14.3418 26.3902 14.3402 26.4648 14.3396C26.5395 14.3389 26.6141 14.3393 26.6887 14.3406C26.7634 14.3419 26.838 14.3441 26.9125 14.3472C26.9871 14.3505 27.0616 14.3546 27.1361 14.3597C27.2105 14.3648 27.2849 14.3708 27.3593 14.3778C27.4336 14.3848 27.5078 14.3927 27.582 14.4017C27.6561 14.4106 27.7301 14.4204 27.804 14.4312C28.8528 13.757 29.9174 13.1456 31.105 12.765C33.8039 11.9 36.4337 12.254 38.9251 13.5898C39.2805 12.2857 39.6927 11.0723 40.2979 9.86564C41.9387 6.59415 44.1403 4.52592 47.0624 2.48523C47.8584 1.92932 48.6761 1.3062 49.6004 1.00371ZM17.6463 19.9065C13.7773 20.1623 10.4554 21.7355 7.88268 24.7505C3.56185 29.8142 1.70995 36.8747 2.13749 43.5304C2.57386 50.3237 5.3398 56.8167 10.3622 61.3395C12.2474 63.0371 14.4697 64.4261 16.7727 65.4319C17.4768 65.7395 18.2036 65.971 18.9113 66.2636C16.4561 63.8156 14.5933 61.1561 13.6443 57.7392C14.4857 59.1982 15.2062 60.6889 16.177 62.0714C19.2437 66.4387 24.0066 69.7983 29.0825 71.1297C34.7528 72.6169 41.1979 71.8895 46.2593 68.788C48.4716 67.4324 50.2197 65.7015 52.073 63.892C50.7486 65.9214 48.6979 67.7178 46.8677 69.2555C47.7101 69.2135 48.5508 69.1651 49.3876 69.0525C49.5759 69.028 49.7639 69.0014 49.9516 68.9726C50.1393 68.9438 50.3266 68.9129 50.5137 68.8798C50.7007 68.8467 50.8873 68.8115 51.0736 68.7742C51.2599 68.7368 51.4457 68.6974 51.6311 68.6557C51.8165 68.6141 52.0015 68.5703 52.1859 68.5245C52.3704 68.4787 52.5544 68.4307 52.7378 68.3806C52.9212 68.3305 53.1041 68.2784 53.2864 68.2241C53.4686 68.1698 53.6503 68.1134 53.8314 68.055C54.0125 67.9966 54.1929 67.9361 54.3727 67.8735C54.5525 67.8109 54.7315 67.7463 54.9099 67.6796C55.0883 67.6129 55.2659 67.5442 55.4427 67.4734C55.6196 67.4027 55.7957 67.3299 55.9711 67.2551C56.1463 67.1803 56.3208 67.1036 56.4945 67.0248C56.6681 66.946 56.8409 66.8652 57.0128 66.7824C57.1847 66.6997 57.3557 66.615 57.5258 66.5283C57.6958 66.4416 57.8649 66.353 58.033 66.2625C58.2012 66.1719 58.3684 66.0794 58.5345 65.9851C58.7007 65.8907 58.8658 65.7944 59.0298 65.6962C59.1939 65.5981 59.3569 65.498 59.5187 65.3961C59.6807 65.2942 59.8415 65.1905 60.0011 65.0848C60.1608 64.9792 60.3193 64.8718 60.4766 64.7626C60.6339 64.6533 60.7901 64.5423 60.9449 64.4295C61.0999 64.3167 61.2536 64.2022 61.406 64.0858C61.5585 63.9695 61.7097 63.8514 61.8596 63.7316C62.0094 63.6118 62.158 63.4903 62.3053 63.3671C62.4525 63.2439 62.5984 63.119 62.743 62.9925C62.8876 62.8659 63.0308 62.7377 63.1725 62.6078C63.3143 62.478 63.4547 62.3466 63.5936 62.2135C63.7326 62.0804 63.8701 61.9458 64.0061 61.8096C64.1421 61.6734 64.2767 61.5356 64.4097 61.3963C64.5428 61.257 64.6743 61.1162 64.8043 60.9739C64.9343 60.8316 65.0627 60.6879 65.1896 60.5426C69.6745 55.4663 72.2752 48.3115 71.9544 41.436C71.7022 36.0332 70.0679 30.6949 66.0846 26.9769C65.993 26.891 65.9002 26.8066 65.8061 26.7236C65.712 26.6406 65.6167 26.5591 65.5202 26.4791C65.4237 26.3991 65.3261 26.3206 65.2272 26.2437C65.1284 26.1667 65.0285 26.0913 64.9275 26.0175C64.8265 25.9436 64.7244 25.8714 64.6212 25.8007C64.5181 25.73 64.4139 25.661 64.3088 25.5936C64.2036 25.5262 64.0974 25.4604 63.9903 25.3963C63.8831 25.3322 63.7751 25.2698 63.6662 25.2091C63.5572 25.1483 63.4474 25.0893 63.3367 25.0321C63.226 24.9747 63.1145 24.9192 63.0022 24.8653C62.8898 24.8115 62.7767 24.7595 62.6628 24.7092C62.549 24.6589 62.4344 24.6104 62.3191 24.5637C62.2038 24.517 62.0879 24.4721 61.9713 24.4289C61.8546 24.3859 61.7374 24.3446 61.6196 24.3052C61.5018 24.2657 61.3834 24.2281 61.2644 24.1924C61.1455 24.1567 61.026 24.1228 60.9061 24.0907C60.401 23.9523 59.8586 23.8087 59.3318 23.8401C58.7979 23.8718 58.2366 24.0746 57.7276 24.2401C56.2537 24.7195 54.8403 25.3415 53.3926 25.8918C54.5873 26.6686 55.4686 27.8636 56.5695 28.7622C57.4999 29.5217 58.5339 30.1271 59.4908 30.8479C62.1101 32.8209 63.391 35.2925 64.093 38.4866C64.504 40.3564 64.6652 42.2562 64.6674 44.1712C64.6729 48.9279 63.5935 53.4306 61.1063 57.4696C60.0589 59.1705 58.2101 61.4957 56.5492 62.572C57.4947 61.4598 58.4825 60.3856 59.3302 59.1902C59.4354 59.0431 59.539 58.895 59.6411 58.7456C59.7431 58.5963 59.8435 58.4458 59.9423 58.2941C60.0411 58.1425 60.1382 57.9897 60.2337 57.8358C60.3292 57.682 60.4231 57.5271 60.5152 57.3711C60.6074 57.215 60.6979 57.058 60.7867 56.8999C60.8755 56.7419 60.9625 56.5828 61.0479 56.4228C61.1332 56.2627 61.2169 56.1017 61.2988 55.9398C61.3807 55.7778 61.4608 55.6149 61.5393 55.4512C61.6176 55.2874 61.6943 55.1227 61.7691 54.9572C61.844 54.7917 61.917 54.6253 61.9883 54.4581C62.0596 54.2909 62.1291 54.1229 62.1967 53.9542C62.2644 53.7854 62.3302 53.6158 62.3942 53.4456C62.4583 53.2753 62.5205 53.1043 62.5808 52.9325C62.6411 52.7609 62.6996 52.5885 62.7562 52.4155C62.8128 52.2424 62.8676 52.0688 62.9205 51.8945C62.9734 51.7202 63.0244 51.5453 63.0735 51.3699C63.1226 51.1944 63.1698 51.0184 63.2152 50.8419C63.2605 50.6654 63.304 50.4884 63.3455 50.3109C63.387 50.1333 63.4267 49.9554 63.4644 49.7769C63.5021 49.5985 63.5378 49.4197 63.5717 49.2405C63.6055 49.0613 63.6374 48.8817 63.6674 48.7017C63.6974 48.5218 63.7255 48.3415 63.7516 48.1608C63.7777 47.9802 63.8018 47.7994 63.824 47.6183C63.8462 47.4371 63.8665 47.2557 63.8849 47.0741C63.9032 46.8925 63.9195 46.7107 63.9339 46.5287C63.9483 46.3467 63.9608 46.1646 63.9712 45.9823C63.9817 45.8 63.9902 45.6176 63.9968 45.4352C64.0034 45.2527 64.008 45.0702 64.0106 44.8876C64.0132 44.7051 64.0139 44.5225 64.0125 44.3399C64.0113 44.1573 64.008 43.9748 64.0028 43.7922C63.9976 43.6097 63.9904 43.4273 63.9812 43.245C63.9721 43.0627 63.961 42.8804 63.9479 42.6983C63.7059 38.9691 62.8157 34.7044 59.9526 32.144C59.0622 31.3477 58.0318 30.7453 57.0914 30.0174C56.5282 29.5844 55.9787 29.1399 55.4617 28.649C53.5389 26.8232 52.1688 25.2277 49.2735 25.6627C47.89 25.8706 46.6979 26.6512 45.8728 27.8043C45.7884 27.9243 45.7066 28.0461 45.6274 28.1698C46.6177 29.7721 47.3135 31.7661 48.2433 33.469C49.0128 34.8785 49.9733 36.1661 50.6843 37.6109C52.8811 42.0752 52.6455 47.0989 51.6127 51.8588C50.3101 57.8613 47.4546 61.8905 43.3149 66.1802C44.4726 64.2061 46.0689 62.5711 47.2837 60.6291C50.6216 55.2931 52.7575 47.2991 51.2455 41.015C50.4513 37.714 48.9097 36.1144 47.388 33.2558C46.3795 31.3615 45.3982 27.9173 43.5673 26.7799C42.7195 26.2533 41.734 26.1707 40.7834 26.4159C39.2558 26.8101 37.8593 27.7802 36.6155 28.7385C33.4501 31.1773 30.6517 34.1843 28.6315 37.6968C25.7609 42.6878 24.2847 48.9419 24.6703 54.733C24.7441 55.8419 24.8543 56.9614 25.0515 58.055C25.1608 58.6613 25.3242 59.2562 25.4345 59.8619C22.9715 54.1657 24.0014 47.0459 26.1075 41.4017C28.2367 35.6957 32.3398 30.9771 37.1903 27.545C36.4233 25.7879 34.623 23.0717 32.862 22.3766C30.3179 21.3725 24.8898 22.026 22.2998 22.6905C21.8304 22.8123 21.3673 22.9554 20.9103 23.1196C20.4533 23.284 20.0043 23.4688 19.5633 23.6742C15.0974 25.7468 11.7359 30.043 10.0384 34.7005C9.97902 34.8623 9.9212 35.0247 9.86492 35.1877C9.80864 35.3507 9.75395 35.5143 9.70084 35.6784C9.64769 35.8425 9.59609 36.0071 9.54605 36.1722C9.49606 36.3374 9.44764 36.503 9.40077 36.6692C9.35391 36.8353 9.30863 37.0018 9.26493 37.1689C9.22124 37.3359 9.17916 37.5034 9.13868 37.6713C9.09816 37.8392 9.05927 38.0075 9.02202 38.1761C8.98472 38.3448 8.94903 38.5138 8.91495 38.6832C8.88087 38.8526 8.8484 39.0223 8.81755 39.1924C8.78674 39.3624 8.75754 39.5328 8.72996 39.7034C8.70237 39.8741 8.6764 40.045 8.65203 40.2161C8.62772 40.3872 8.60502 40.5586 8.58392 40.7302C8.56283 40.9019 8.5434 41.0737 8.52563 41.2457C8.50781 41.4177 8.49165 41.5899 8.47716 41.7622C8.46261 41.9346 8.44972 42.1071 8.4385 42.2797C8.42727 42.4522 8.41768 42.6249 8.40973 42.7977C8.40177 42.9705 8.39548 43.1434 8.39085 43.3163C8.38617 43.4892 8.38315 43.6622 8.38179 43.8352C8.38043 44.0081 8.38073 44.1811 8.38269 44.3541C8.38461 44.5271 8.38818 44.7 8.39342 44.8729C8.39865 45.0458 8.40552 45.2186 8.41403 45.3913C8.42259 45.5641 8.43276 45.7368 8.44454 45.9093C8.45637 46.0819 8.46983 46.2543 8.48493 46.4266C8.50003 46.5989 8.51677 46.771 8.53515 46.9429C8.55352 47.1149 8.57353 47.2867 8.59518 47.4582C8.61682 47.6297 8.64008 47.801 8.66495 47.9721C8.68986 48.1432 8.71642 48.314 8.74461 48.4846C8.77275 48.6551 8.80252 48.8254 8.83393 48.9953C8.86534 49.1652 8.89837 49.3348 8.933 49.5041C8.96763 49.6734 9.00388 49.8422 9.04173 50.0108C9.07959 50.1793 9.11905 50.3475 9.16013 50.5152C9.20115 50.683 9.24379 50.8503 9.28804 51.0172C9.5271 51.9302 9.7577 52.8787 10.1275 53.7469C7.48354 49.6307 7.22946 43.2985 8.16176 38.5977C9.2752 32.9831 12.4007 27.4431 17.113 24.2527C18.9427 23.0139 20.956 22.2218 23.0922 21.7516C23.6961 21.6186 24.314 21.5556 24.9154 21.4202C22.7221 20.2497 20.1032 19.7762 17.6463 19.9065ZM49.8451 2.14021C49.2994 2.23029 48.556 2.77809 48.0843 3.09702C45.918 4.5615 43.951 6.15847 42.417 8.33775C40.4899 11.0755 39.5254 14.4864 39.066 17.8007C38.9143 18.8954 38.9987 20.2061 38.4864 21.1962C37.867 22.3931 36.673 23.1761 35.5505 23.8129C36.2976 24.6466 37.3117 26.1344 37.7047 27.1793C38.7275 26.558 39.6901 26.0017 40.867 25.7522C41.9977 25.5988 43.2458 25.637 44.1894 26.3789C44.6311 26.7261 45.0144 27.1979 45.3194 27.6733C45.7353 26.9572 46.3351 26.363 46.973 25.8569C45.2307 23.4494 44.4253 22.5031 44.8728 19.3472C44.8991 19.1683 44.9282 18.9899 44.9603 18.8119C44.9924 18.634 45.0275 18.4567 45.0655 18.28C45.1034 18.1033 45.1443 17.9273 45.1881 17.752C45.2319 17.5767 45.2786 17.4023 45.3281 17.2287C45.3777 17.055 45.4301 16.8823 45.4853 16.7105C45.5406 16.5387 45.5987 16.368 45.6596 16.1982C45.7205 16.0284 45.7842 15.8598 45.8507 15.6922C45.9172 15.5247 45.9864 15.3584 46.0584 15.1933C46.1304 15.0281 46.2051 14.8643 46.2824 14.7019C46.3598 14.5393 46.4399 14.3783 46.5226 14.2186C46.6053 14.0589 46.6907 13.9007 46.7786 13.744C46.8665 13.5873 46.9571 13.4322 47.0502 13.2787C47.1433 13.1251 47.2388 12.9733 47.3369 12.8231C47.435 12.6729 47.5356 12.5245 47.6386 12.3778C47.7416 12.2312 47.847 12.0864 47.9548 11.9434C48.0626 11.8004 48.1727 11.6594 48.2851 11.5203C48.8167 10.8503 49.414 10.1802 50.0893 9.66276C50.3035 9.49859 50.5265 9.33745 50.766 9.21441C51.1492 9.01751 51.6043 8.88964 51.928 8.59162C52.0371 8.49119 52.0999 8.34552 52.1647 8.21299L52.144 8.16658C51.9407 7.72142 51.5662 7.41889 51.2388 7.07314C50.6887 6.49209 50.28 5.55691 50.1168 4.7702C49.97 4.06229 50.6218 2.49735 49.9178 2.16611C49.8945 2.15514 49.8693 2.14885 49.8451 2.14021ZM50.6911 17.4634C48.6845 17.6916 47.4814 18.0662 45.6952 19.0228C45.588 19.518 45.4875 20.029 45.4568 20.5361C45.7115 20.829 45.9807 21.1169 46.2097 21.4315C47.2705 20.0662 48.775 19.0744 50.4787 18.8783C50.727 18.8498 50.9732 18.8458 51.2228 18.849C50.1525 19.5553 49.6172 20.5839 49.3535 21.8442C49.2798 22.1963 49.2526 22.5521 49.1923 22.9053C50.5577 22.1529 52.0482 21.607 53.5984 22.0851C53.9566 22.1956 54.2709 22.3666 54.6005 22.5452C53.7928 22.3227 53.0598 22.2452 52.2645 22.5679C51.353 22.9603 50.5801 23.5157 49.9093 24.267C49.7041 24.4969 49.5228 24.7482 49.3195 24.9785C50.5185 24.9609 51.6451 25.0383 52.7543 25.5613C54.7795 24.7123 57.3181 23.4592 59.4995 23.3433C59.2338 21.5895 58.6787 20.3548 57.2546 19.2817C55.4256 17.9036 52.9429 17.2668 50.6911 17.4634ZM26.4028 15.4374C23.5774 15.7137 21.6432 16.7794 19.8218 19.0402C19.7698 19.1046 19.7227 19.1649 19.6617 19.2214C22.0226 19.4879 24.173 20.0099 26.2124 21.3311C27.1448 21.3003 28.0728 21.2409 29.0062 21.2248C30.8262 21.2663 33.0177 21.3107 34.4627 22.6065C34.3268 20.5645 34.2699 18.9964 32.6481 17.5498C31.1198 16.1865 28.4648 15.2885 26.4429 15.4332C26.4295 15.4342 26.4162 15.436 26.4028 15.4374ZM33.7589 13.4528C31.8745 13.6777 30.7905 14.0979 29.1049 14.9538C31.0866 15.6063 33.186 16.4525 34.2089 18.4704C34.5191 19.0824 34.6791 19.7446 34.8382 20.4103C35.1431 19.0553 35.3371 18.1055 35.1648 16.693C35.0838 16.2984 34.9732 15.9127 34.8328 15.5361C36.8168 16.5697 37.5065 18.0132 38.2246 20.0814C38.2943 18.4138 38.3129 16.4962 38.7357 14.8822C37.2482 14.0343 35.4958 13.2534 33.7589 13.4528ZM49.6034 19.5748C48.2445 20.1985 47.2841 20.9756 46.3097 22.1164C45.9873 21.8426 45.678 21.5539 45.382 21.2503C45.5102 22.8983 46.2529 24.3668 47.1106 25.7393L47.6526 25.4768C48.0675 25.2736 48.472 25.1386 48.9187 25.0302C49.2298 23.9856 50.1001 23.2631 50.935 22.6679C50.1139 22.982 49.3546 23.2857 48.5962 23.7514C48.7285 22.7629 48.8156 21.7087 49.1053 20.7548C49.2192 20.3797 49.5828 19.9379 49.6426 19.5898L49.6034 19.5748ZM35.7012 16.806C35.6962 17.3165 35.7526 17.8306 35.7234 18.3396C35.6389 19.809 35.1165 21.2933 34.6153 22.6621C34.817 22.8829 34.999 23.0836 35.1341 23.3564C35.4913 23.1585 35.8408 22.9597 36.1748 22.7212C36.782 22.2616 37.3445 21.7896 37.859 21.2187C37.5589 19.3792 37.0523 18.0993 35.7012 16.806ZM46.5294 16.4074C46.3159 16.961 46.1162 17.5129 45.9427 18.0814L46.6713 17.6248C46.973 17.4545 47.2758 17.2862 47.5796 17.1199C47.2499 16.8805 46.8969 16.5794 46.5294 16.4074Z"/>
<path d="M42.7484 19.9957C42.777 20.3224 42.7056 20.6452 42.7545 20.977C42.9788 22.4976 43.7188 24.1918 43.4277 25.7706C43.4123 25.7077 43.415 25.7329 43.4127 25.671C43.3882 25.0107 43.3297 24.335 43.2022 23.6868C42.9621 22.4653 42.4084 21.2547 42.7484 19.9957Z"/>
<path d="M47.8936 6.13391C47.9193 6.17658 47.9118 6.15186 47.9099 6.2097C47.7213 6.28292 46.686 7.51426 46.4874 7.74987C46.2853 7.99358 46.0884 8.24162 45.8967 8.49399C45.7049 8.74641 45.5185 9.00298 45.3375 9.26369C45.1566 9.52435 44.9811 9.78889 44.8112 10.0573C44.6412 10.3258 44.477 10.5978 44.3184 10.8736C44.1598 11.1493 44.0071 11.4284 43.8601 11.7109C43.7132 11.9934 43.5723 12.279 43.4374 12.5677C43.3024 12.8564 43.1735 13.148 43.0508 13.4425C42.9279 13.7369 42.8113 14.0339 42.701 14.3335C42.0237 16.168 41.6009 18.0957 41.1461 19.9982C40.8712 21.1481 40.6306 22.3432 40.1626 23.4294C39.933 23.9622 39.6766 24.3787 39.2479 24.764L39.2204 24.7331C40.2776 23.1 40.51 20.9378 40.8742 19.0486C41.6886 14.8247 43.3111 10.3554 46.4215 7.33579C46.88 6.89062 47.3844 6.5137 47.8936 6.13391Z"/>
</mask>
<path d="M49.6004 1.00371C49.9303 0.984624 50.2333 1.03718 50.5252 1.20879C50.5708 1.23574 50.6147 1.2654 50.6569 1.29777C50.699 1.33013 50.7391 1.36498 50.7772 1.40231C50.8153 1.43963 50.8511 1.47917 50.8846 1.52092C50.9181 1.56266 50.9491 1.60632 50.9775 1.65189C51.7224 2.82751 50.84 3.88755 51.2303 5.03477C51.6148 6.16484 52.9254 6.81079 53.1956 7.85574C53.3354 8.3962 53.1002 8.92268 52.75 9.32012C52.2514 9.88593 51.4591 10.0244 50.8563 10.4506C49.6157 11.3278 48.5313 12.7807 47.7471 14.0979C47.5082 14.4992 47.3125 14.9235 47.0791 15.3267C47.6376 15.7369 48.1572 16.1742 48.6714 16.6416C48.9629 16.5819 49.2555 16.5288 49.5492 16.4821C52.4154 16.0386 55.526 16.5703 57.8882 18.3782C59.3335 19.4843 60.2669 21.0688 60.5242 22.9065C61.2334 23.0568 61.9342 23.2316 62.6128 23.4956C65.3396 24.556 67.776 26.7176 69.4007 29.1855C73.0159 34.6767 73.6492 41.7734 72.4399 48.159C71.0588 55.4512 66.6586 61.8915 60.7039 66.0132C57.4248 68.283 53.4083 69.6501 49.5031 70.1499C48.7434 70.2413 47.9819 70.3116 47.2186 70.3609C46.7191 70.3925 46.1867 70.3777 45.6966 70.4876C45.1543 70.609 44.648 70.9158 44.1433 71.1474C43.6637 71.3676 43.1611 71.5572 42.6598 71.7169C38.5708 73.0196 34.3773 73.3921 30.1625 72.5481C27.3644 72.0156 24.7837 70.9103 22.3549 69.3895C21.6317 68.9365 20.986 68.283 20.2316 67.8995C19.7941 67.6771 19.3032 67.5597 18.8366 67.4156C18.2964 67.2514 17.7633 67.0655 17.2373 66.858C17.0401 66.7803 16.8439 66.7002 16.6486 66.6176C16.4534 66.5348 16.2592 66.4497 16.066 66.362C15.8728 66.2743 15.6807 66.1841 15.4897 66.0915C15.2987 65.9988 15.1089 65.9037 14.9202 65.8062C14.7315 65.7086 14.5441 65.6087 14.3578 65.5063C14.1716 65.4039 13.9866 65.2991 13.8029 65.192C13.6192 65.0848 13.4369 64.9753 13.2559 64.8635C13.0748 64.7516 12.8952 64.6374 12.7169 64.5209C12.5387 64.4044 12.362 64.2856 12.1866 64.1646C12.0112 64.0435 11.8374 63.9202 11.665 63.7947C11.4927 63.6691 11.3219 63.5414 11.1526 63.4114C10.9834 63.2815 10.8158 63.1494 10.6498 63.0152C10.4837 62.8808 10.3194 62.7444 10.1567 62.6059C9.99399 62.4674 9.83301 62.3268 9.67374 62.1841C9.51441 62.0415 9.35688 61.8968 9.20113 61.7501C9.04538 61.6033 8.89145 61.4546 8.73932 61.3039C3.67854 56.3599 1.17851 49.3159 1.0086 42.2236C0.848618 35.5457 2.91838 28.4679 7.45296 23.5656C10.6178 20.144 14.1995 18.8326 18.7159 18.7179C18.8806 18.4848 19.0533 18.2582 19.234 18.0381C19.4147 17.818 19.6029 17.6049 19.7986 17.3988C19.9942 17.1927 20.1969 16.9942 20.4066 16.8033C20.6163 16.6123 20.8324 16.4294 21.055 16.2546C21.1142 16.2079 21.174 16.1619 21.2343 16.1167C21.2946 16.0714 21.3555 16.0269 21.4169 15.9833C21.4784 15.9396 21.5403 15.8968 21.6027 15.8547C21.6652 15.8126 21.7281 15.7713 21.7915 15.7308C21.855 15.6903 21.9189 15.6507 21.9833 15.6119C22.0477 15.573 22.1125 15.535 22.1778 15.4978C22.2432 15.4606 22.3089 15.4243 22.3751 15.3888C22.4413 15.3533 22.5079 15.3186 22.5749 15.2848C22.642 15.2511 22.7094 15.2181 22.7772 15.186C22.8451 15.154 22.9133 15.1228 22.9818 15.0925C23.0504 15.0621 23.1194 15.0326 23.1887 15.0041C23.2579 14.9755 23.3276 14.9479 23.3975 14.9211C23.4675 14.8943 23.5378 14.8684 23.6083 14.8434C23.6789 14.8184 23.7498 14.7944 23.821 14.7712C23.8921 14.748 23.9635 14.7258 24.0353 14.7044C24.1069 14.6831 24.1789 14.6626 24.2511 14.6431C24.3233 14.6236 24.3957 14.605 24.4683 14.5874C24.541 14.5697 24.6139 14.553 24.6869 14.5372C24.7599 14.5214 24.8332 14.5066 24.9066 14.4927C24.9799 14.4787 25.0535 14.4658 25.1272 14.4537C25.2009 14.4417 25.2748 14.4306 25.3488 14.4205C25.4228 14.4103 25.4968 14.4011 25.571 14.3929C25.6453 14.3846 25.7196 14.3773 25.7939 14.371C25.8683 14.3646 25.9428 14.3592 26.0173 14.3548C26.0918 14.3503 26.1663 14.3468 26.2409 14.3443C26.3155 14.3418 26.3902 14.3402 26.4648 14.3396C26.5395 14.3389 26.6141 14.3393 26.6887 14.3406C26.7634 14.3419 26.838 14.3441 26.9125 14.3472C26.9871 14.3505 27.0616 14.3546 27.1361 14.3597C27.2105 14.3648 27.2849 14.3708 27.3593 14.3778C27.4336 14.3848 27.5078 14.3927 27.582 14.4017C27.6561 14.4106 27.7301 14.4204 27.804 14.4312C28.8528 13.757 29.9174 13.1456 31.105 12.765C33.8039 11.9 36.4337 12.254 38.9251 13.5898C39.2805 12.2857 39.6927 11.0723 40.2979 9.86564C41.9387 6.59415 44.1403 4.52592 47.0624 2.48523C47.8584 1.92932 48.6761 1.3062 49.6004 1.00371ZM17.6463 19.9065C13.7773 20.1623 10.4554 21.7355 7.88268 24.7505C3.56185 29.8142 1.70995 36.8747 2.13749 43.5304C2.57386 50.3237 5.3398 56.8167 10.3622 61.3395C12.2474 63.0371 14.4697 64.4261 16.7727 65.4319C17.4768 65.7395 18.2036 65.971 18.9113 66.2636C16.4561 63.8156 14.5933 61.1561 13.6443 57.7392C14.4857 59.1982 15.2062 60.6889 16.177 62.0714C19.2437 66.4387 24.0066 69.7983 29.0825 71.1297C34.7528 72.6169 41.1979 71.8895 46.2593 68.788C48.4716 67.4324 50.2197 65.7015 52.073 63.892C50.7486 65.9214 48.6979 67.7178 46.8677 69.2555C47.7101 69.2135 48.5508 69.1651 49.3876 69.0525C49.5759 69.028 49.7639 69.0014 49.9516 68.9726C50.1393 68.9438 50.3266 68.9129 50.5137 68.8798C50.7007 68.8467 50.8873 68.8115 51.0736 68.7742C51.2599 68.7368 51.4457 68.6974 51.6311 68.6557C51.8165 68.6141 52.0015 68.5703 52.1859 68.5245C52.3704 68.4787 52.5544 68.4307 52.7378 68.3806C52.9212 68.3305 53.1041 68.2784 53.2864 68.2241C53.4686 68.1698 53.6503 68.1134 53.8314 68.055C54.0125 67.9966 54.1929 67.9361 54.3727 67.8735C54.5525 67.8109 54.7315 67.7463 54.9099 67.6796C55.0883 67.6129 55.2659 67.5442 55.4427 67.4734C55.6196 67.4027 55.7957 67.3299 55.9711 67.2551C56.1463 67.1803 56.3208 67.1036 56.4945 67.0248C56.6681 66.946 56.8409 66.8652 57.0128 66.7824C57.1847 66.6997 57.3557 66.615 57.5258 66.5283C57.6958 66.4416 57.8649 66.353 58.033 66.2625C58.2012 66.1719 58.3684 66.0794 58.5345 65.9851C58.7007 65.8907 58.8658 65.7944 59.0298 65.6962C59.1939 65.5981 59.3569 65.498 59.5187 65.3961C59.6807 65.2942 59.8415 65.1905 60.0011 65.0848C60.1608 64.9792 60.3193 64.8718 60.4766 64.7626C60.6339 64.6533 60.7901 64.5423 60.9449 64.4295C61.0999 64.3167 61.2536 64.2022 61.406 64.0858C61.5585 63.9695 61.7097 63.8514 61.8596 63.7316C62.0094 63.6118 62.158 63.4903 62.3053 63.3671C62.4525 63.2439 62.5984 63.119 62.743 62.9925C62.8876 62.8659 63.0308 62.7377 63.1725 62.6078C63.3143 62.478 63.4547 62.3466 63.5936 62.2135C63.7326 62.0804 63.8701 61.9458 64.0061 61.8096C64.1421 61.6734 64.2767 61.5356 64.4097 61.3963C64.5428 61.257 64.6743 61.1162 64.8043 60.9739C64.9343 60.8316 65.0627 60.6879 65.1896 60.5426C69.6745 55.4663 72.2752 48.3115 71.9544 41.436C71.7022 36.0332 70.0679 30.6949 66.0846 26.9769C65.993 26.891 65.9002 26.8066 65.8061 26.7236C65.712 26.6406 65.6167 26.5591 65.5202 26.4791C65.4237 26.3991 65.3261 26.3206 65.2272 26.2437C65.1284 26.1667 65.0285 26.0913 64.9275 26.0175C64.8265 25.9436 64.7244 25.8714 64.6212 25.8007C64.5181 25.73 64.4139 25.661 64.3088 25.5936C64.2036 25.5262 64.0974 25.4604 63.9903 25.3963C63.8831 25.3322 63.7751 25.2698 63.6662 25.2091C63.5572 25.1483 63.4474 25.0893 63.3367 25.0321C63.226 24.9747 63.1145 24.9192 63.0022 24.8653C62.8898 24.8115 62.7767 24.7595 62.6628 24.7092C62.549 24.6589 62.4344 24.6104 62.3191 24.5637C62.2038 24.517 62.0879 24.4721 61.9713 24.4289C61.8546 24.3859 61.7374 24.3446 61.6196 24.3052C61.5018 24.2657 61.3834 24.2281 61.2644 24.1924C61.1455 24.1567 61.026 24.1228 60.9061 24.0907C60.401 23.9523 59.8586 23.8087 59.3318 23.8401C58.7979 23.8718 58.2366 24.0746 57.7276 24.2401C56.2537 24.7195 54.8403 25.3415 53.3926 25.8918C54.5873 26.6686 55.4686 27.8636 56.5695 28.7622C57.4999 29.5217 58.5339 30.1271 59.4908 30.8479C62.1101 32.8209 63.391 35.2925 64.093 38.4866C64.504 40.3564 64.6652 42.2562 64.6674 44.1712C64.6729 48.9279 63.5935 53.4306 61.1063 57.4696C60.0589 59.1705 58.2101 61.4957 56.5492 62.572C57.4947 61.4598 58.4825 60.3856 59.3302 59.1902C59.4354 59.0431 59.539 58.895 59.6411 58.7456C59.7431 58.5963 59.8435 58.4458 59.9423 58.2941C60.0411 58.1425 60.1382 57.9897 60.2337 57.8358C60.3292 57.682 60.4231 57.5271 60.5152 57.3711C60.6074 57.215 60.6979 57.058 60.7867 56.8999C60.8755 56.7419 60.9625 56.5828 61.0479 56.4228C61.1332 56.2627 61.2169 56.1017 61.2988 55.9398C61.3807 55.7778 61.4608 55.6149 61.5393 55.4512C61.6176 55.2874 61.6943 55.1227 61.7691 54.9572C61.844 54.7917 61.917 54.6253 61.9883 54.4581C62.0596 54.2909 62.1291 54.1229 62.1967 53.9542C62.2644 53.7854 62.3302 53.6158 62.3942 53.4456C62.4583 53.2753 62.5205 53.1043 62.5808 52.9325C62.6411 52.7609 62.6996 52.5885 62.7562 52.4155C62.8128 52.2424 62.8676 52.0688 62.9205 51.8945C62.9734 51.7202 63.0244 51.5453 63.0735 51.3699C63.1226 51.1944 63.1698 51.0184 63.2152 50.8419C63.2605 50.6654 63.304 50.4884 63.3455 50.3109C63.387 50.1333 63.4267 49.9554 63.4644 49.7769C63.5021 49.5985 63.5378 49.4197 63.5717 49.2405C63.6055 49.0613 63.6374 48.8817 63.6674 48.7017C63.6974 48.5218 63.7255 48.3415 63.7516 48.1608C63.7777 47.9802 63.8018 47.7994 63.824 47.6183C63.8462 47.4371 63.8665 47.2557 63.8849 47.0741C63.9032 46.8925 63.9195 46.7107 63.9339 46.5287C63.9483 46.3467 63.9608 46.1646 63.9712 45.9823C63.9817 45.8 63.9902 45.6176 63.9968 45.4352C64.0034 45.2527 64.008 45.0702 64.0106 44.8876C64.0132 44.7051 64.0139 44.5225 64.0125 44.3399C64.0113 44.1573 64.008 43.9748 64.0028 43.7922C63.9976 43.6097 63.9904 43.4273 63.9812 43.245C63.9721 43.0627 63.961 42.8804 63.9479 42.6983C63.7059 38.9691 62.8157 34.7044 59.9526 32.144C59.0622 31.3477 58.0318 30.7453 57.0914 30.0174C56.5282 29.5844 55.9787 29.1399 55.4617 28.649C53.5389 26.8232 52.1688 25.2277 49.2735 25.6627C47.89 25.8706 46.6979 26.6512 45.8728 27.8043C45.7884 27.9243 45.7066 28.0461 45.6274 28.1698C46.6177 29.7721 47.3135 31.7661 48.2433 33.469C49.0128 34.8785 49.9733 36.1661 50.6843 37.6109C52.8811 42.0752 52.6455 47.0989 51.6127 51.8588C50.3101 57.8613 47.4546 61.8905 43.3149 66.1802C44.4726 64.2061 46.0689 62.5711 47.2837 60.6291C50.6216 55.2931 52.7575 47.2991 51.2455 41.015C50.4513 37.714 48.9097 36.1144 47.388 33.2558C46.3795 31.3615 45.3982 27.9173 43.5673 26.7799C42.7195 26.2533 41.734 26.1707 40.7834 26.4159C39.2558 26.8101 37.8593 27.7802 36.6155 28.7385C33.4501 31.1773 30.6517 34.1843 28.6315 37.6968C25.7609 42.6878 24.2847 48.9419 24.6703 54.733C24.7441 55.8419 24.8543 56.9614 25.0515 58.055C25.1608 58.6613 25.3242 59.2562 25.4345 59.8619C22.9715 54.1657 24.0014 47.0459 26.1075 41.4017C28.2367 35.6957 32.3398 30.9771 37.1903 27.545C36.4233 25.7879 34.623 23.0717 32.862 22.3766C30.3179 21.3725 24.8898 22.026 22.2998 22.6905C21.8304 22.8123 21.3673 22.9554 20.9103 23.1196C20.4533 23.284 20.0043 23.4688 19.5633 23.6742C15.0974 25.7468 11.7359 30.043 10.0384 34.7005C9.97902 34.8623 9.9212 35.0247 9.86492 35.1877C9.80864 35.3507 9.75395 35.5143 9.70084 35.6784C9.64769 35.8425 9.59609 36.0071 9.54605 36.1722C9.49606 36.3374 9.44764 36.503 9.40077 36.6692C9.35391 36.8353 9.30863 37.0018 9.26493 37.1689C9.22124 37.3359 9.17916 37.5034 9.13868 37.6713C9.09816 37.8392 9.05927 38.0075 9.02202 38.1761C8.98472 38.3448 8.94903 38.5138 8.91495 38.6832C8.88087 38.8526 8.8484 39.0223 8.81755 39.1924C8.78674 39.3624 8.75754 39.5328 8.72996 39.7034C8.70237 39.8741 8.6764 40.045 8.65203 40.2161C8.62772 40.3872 8.60502 40.5586 8.58392 40.7302C8.56283 40.9019 8.5434 41.0737 8.52563 41.2457C8.50781 41.4177 8.49165 41.5899 8.47716 41.7622C8.46261 41.9346 8.44972 42.1071 8.4385 42.2797C8.42727 42.4522 8.41768 42.6249 8.40973 42.7977C8.40177 42.9705 8.39548 43.1434 8.39085 43.3163C8.38617 43.4892 8.38315 43.6622 8.38179 43.8352C8.38043 44.0081 8.38073 44.1811 8.38269 44.3541C8.38461 44.5271 8.38818 44.7 8.39342 44.8729C8.39865 45.0458 8.40552 45.2186 8.41403 45.3913C8.42259 45.5641 8.43276 45.7368 8.44454 45.9093C8.45637 46.0819 8.46983 46.2543 8.48493 46.4266C8.50003 46.5989 8.51677 46.771 8.53515 46.9429C8.55352 47.1149 8.57353 47.2867 8.59518 47.4582C8.61682 47.6297 8.64008 47.801 8.66495 47.9721C8.68986 48.1432 8.71642 48.314 8.74461 48.4846C8.77275 48.6551 8.80252 48.8254 8.83393 48.9953C8.86534 49.1652 8.89837 49.3348 8.933 49.5041C8.96763 49.6734 9.00388 49.8422 9.04173 50.0108C9.07959 50.1793 9.11905 50.3475 9.16013 50.5152C9.20115 50.683 9.24379 50.8503 9.28804 51.0172C9.5271 51.9302 9.7577 52.8787 10.1275 53.7469C7.48354 49.6307 7.22946 43.2985 8.16176 38.5977C9.2752 32.9831 12.4007 27.4431 17.113 24.2527C18.9427 23.0139 20.956 22.2218 23.0922 21.7516C23.6961 21.6186 24.314 21.5556 24.9154 21.4202C22.7221 20.2497 20.1032 19.7762 17.6463 19.9065ZM49.8451 2.14021C49.2994 2.23029 48.556 2.77809 48.0843 3.09702C45.918 4.5615 43.951 6.15847 42.417 8.33775C40.4899 11.0755 39.5254 14.4864 39.066 17.8007C38.9143 18.8954 38.9987 20.2061 38.4864 21.1962C37.867 22.3931 36.673 23.1761 35.5505 23.8129C36.2976 24.6466 37.3117 26.1344 37.7047 27.1793C38.7275 26.558 39.6901 26.0017 40.867 25.7522C41.9977 25.5988 43.2458 25.637 44.1894 26.3789C44.6311 26.7261 45.0144 27.1979 45.3194 27.6733C45.7353 26.9572 46.3351 26.363 46.973 25.8569C45.2307 23.4494 44.4253 22.5031 44.8728 19.3472C44.8991 19.1683 44.9282 18.9899 44.9603 18.8119C44.9924 18.634 45.0275 18.4567 45.0655 18.28C45.1034 18.1033 45.1443 17.9273 45.1881 17.752C45.2319 17.5767 45.2786 17.4023 45.3281 17.2287C45.3777 17.055 45.4301 16.8823 45.4853 16.7105C45.5406 16.5387 45.5987 16.368 45.6596 16.1982C45.7205 16.0284 45.7842 15.8598 45.8507 15.6922C45.9172 15.5247 45.9864 15.3584 46.0584 15.1933C46.1304 15.0281 46.2051 14.8643 46.2824 14.7019C46.3598 14.5393 46.4399 14.3783 46.5226 14.2186C46.6053 14.0589 46.6907 13.9007 46.7786 13.744C46.8665 13.5873 46.9571 13.4322 47.0502 13.2787C47.1433 13.1251 47.2388 12.9733 47.3369 12.8231C47.435 12.6729 47.5356 12.5245 47.6386 12.3778C47.7416 12.2312 47.847 12.0864 47.9548 11.9434C48.0626 11.8004 48.1727 11.6594 48.2851 11.5203C48.8167 10.8503 49.414 10.1802 50.0893 9.66276C50.3035 9.49859 50.5265 9.33745 50.766 9.21441C51.1492 9.01751 51.6043 8.88964 51.928 8.59162C52.0371 8.49119 52.0999 8.34552 52.1647 8.21299L52.144 8.16658C51.9407 7.72142 51.5662 7.41889 51.2388 7.07314C50.6887 6.49209 50.28 5.55691 50.1168 4.7702C49.97 4.06229 50.6218 2.49735 49.9178 2.16611C49.8945 2.15514 49.8693 2.14885 49.8451 2.14021ZM50.6911 17.4634C48.6845 17.6916 47.4814 18.0662 45.6952 19.0228C45.588 19.518 45.4875 20.029 45.4568 20.5361C45.7115 20.829 45.9807 21.1169 46.2097 21.4315C47.2705 20.0662 48.775 19.0744 50.4787 18.8783C50.727 18.8498 50.9732 18.8458 51.2228 18.849C50.1525 19.5553 49.6172 20.5839 49.3535 21.8442C49.2798 22.1963 49.2526 22.5521 49.1923 22.9053C50.5577 22.1529 52.0482 21.607 53.5984 22.0851C53.9566 22.1956 54.2709 22.3666 54.6005 22.5452C53.7928 22.3227 53.0598 22.2452 52.2645 22.5679C51.353 22.9603 50.5801 23.5157 49.9093 24.267C49.7041 24.4969 49.5228 24.7482 49.3195 24.9785C50.5185 24.9609 51.6451 25.0383 52.7543 25.5613C54.7795 24.7123 57.3181 23.4592 59.4995 23.3433C59.2338 21.5895 58.6787 20.3548 57.2546 19.2817C55.4256 17.9036 52.9429 17.2668 50.6911 17.4634ZM26.4028 15.4374C23.5774 15.7137 21.6432 16.7794 19.8218 19.0402C19.7698 19.1046 19.7227 19.1649 19.6617 19.2214C22.0226 19.4879 24.173 20.0099 26.2124 21.3311C27.1448 21.3003 28.0728 21.2409 29.0062 21.2248C30.8262 21.2663 33.0177 21.3107 34.4627 22.6065C34.3268 20.5645 34.2699 18.9964 32.6481 17.5498C31.1198 16.1865 28.4648 15.2885 26.4429 15.4332C26.4295 15.4342 26.4162 15.436 26.4028 15.4374ZM33.7589 13.4528C31.8745 13.6777 30.7905 14.0979 29.1049 14.9538C31.0866 15.6063 33.186 16.4525 34.2089 18.4704C34.5191 19.0824 34.6791 19.7446 34.8382 20.4103C35.1431 19.0553 35.3371 18.1055 35.1648 16.693C35.0838 16.2984 34.9732 15.9127 34.8328 15.5361C36.8168 16.5697 37.5065 18.0132 38.2246 20.0814C38.2943 18.4138 38.3129 16.4962 38.7357 14.8822C37.2482 14.0343 35.4958 13.2534 33.7589 13.4528ZM49.6034 19.5748C48.2445 20.1985 47.2841 20.9756 46.3097 22.1164C45.9873 21.8426 45.678 21.5539 45.382 21.2503C45.5102 22.8983 46.2529 24.3668 47.1106 25.7393L47.6526 25.4768C48.0675 25.2736 48.472 25.1386 48.9187 25.0302C49.2298 23.9856 50.1001 23.2631 50.935 22.6679C50.1139 22.982 49.3546 23.2857 48.5962 23.7514C48.7285 22.7629 48.8156 21.7087 49.1053 20.7548C49.2192 20.3797 49.5828 19.9379 49.6426 19.5898L49.6034 19.5748ZM35.7012 16.806C35.6962 17.3165 35.7526 17.8306 35.7234 18.3396C35.6389 19.809 35.1165 21.2933 34.6153 22.6621C34.817 22.8829 34.999 23.0836 35.1341 23.3564C35.4913 23.1585 35.8408 22.9597 36.1748 22.7212C36.782 22.2616 37.3445 21.7896 37.859 21.2187C37.5589 19.3792 37.0523 18.0993 35.7012 16.806ZM46.5294 16.4074C46.3159 16.961 46.1162 17.5129 45.9427 18.0814L46.6713 17.6248C46.973 17.4545 47.2758 17.2862 47.5796 17.1199C47.2499 16.8805 46.8969 16.5794 46.5294 16.4074Z" fill="#4D4D4D" fill-opacity="0.5"/>
<path d="M42.7484 19.9957C42.777 20.3224 42.7056 20.6452 42.7545 20.977C42.9788 22.4976 43.7188 24.1918 43.4277 25.7706C43.4123 25.7077 43.415 25.7329 43.4127 25.671C43.3882 25.0107 43.3297 24.335 43.2022 23.6868C42.9621 22.4653 42.4084 21.2547 42.7484 19.9957Z" fill="#4D4D4D" fill-opacity="0.5"/>
<path d="M47.8936 6.13391C47.9193 6.17658 47.9118 6.15186 47.9099 6.2097C47.7213 6.28292 46.686 7.51426 46.4874 7.74987C46.2853 7.99358 46.0884 8.24162 45.8967 8.49399C45.7049 8.74641 45.5185 9.00298 45.3375 9.26369C45.1566 9.52435 44.9811 9.78889 44.8112 10.0573C44.6412 10.3258 44.477 10.5978 44.3184 10.8736C44.1598 11.1493 44.0071 11.4284 43.8601 11.7109C43.7132 11.9934 43.5723 12.279 43.4374 12.5677C43.3024 12.8564 43.1735 13.148 43.0508 13.4425C42.9279 13.7369 42.8113 14.0339 42.701 14.3335C42.0237 16.168 41.6009 18.0957 41.1461 19.9982C40.8712 21.1481 40.6306 22.3432 40.1626 23.4294C39.933 23.9622 39.6766 24.3787 39.2479 24.764L39.2204 24.7331C40.2776 23.1 40.51 20.9378 40.8742 19.0486C41.6886 14.8247 43.3111 10.3554 46.4215 7.33579C46.88 6.89062 47.3844 6.5137 47.8936 6.13391Z" fill="#4D4D4D" fill-opacity="0.5"/>
<path d="M49.6004 1.00371C49.9303 0.984624 50.2333 1.03718 50.5252 1.20879C50.5708 1.23574 50.6147 1.2654 50.6569 1.29777C50.699 1.33013 50.7391 1.36498 50.7772 1.40231C50.8153 1.43963 50.8511 1.47917 50.8846 1.52092C50.9181 1.56266 50.9491 1.60632 50.9775 1.65189C51.7224 2.82751 50.84 3.88755 51.2303 5.03477C51.6148 6.16484 52.9254 6.81079 53.1956 7.85574C53.3354 8.3962 53.1002 8.92268 52.75 9.32012C52.2514 9.88593 51.4591 10.0244 50.8563 10.4506C49.6157 11.3278 48.5313 12.7807 47.7471 14.0979C47.5082 14.4992 47.3125 14.9235 47.0791 15.3267C47.6376 15.7369 48.1572 16.1742 48.6714 16.6416C48.9629 16.5819 49.2555 16.5288 49.5492 16.4821C52.4154 16.0386 55.526 16.5703 57.8882 18.3782C59.3335 19.4843 60.2669 21.0688 60.5242 22.9065C61.2334 23.0568 61.9342 23.2316 62.6128 23.4956C65.3396 24.556 67.776 26.7176 69.4007 29.1855C73.0159 34.6767 73.6492 41.7734 72.4399 48.159C71.0588 55.4512 66.6586 61.8915 60.7039 66.0132C57.4248 68.283 53.4083 69.6501 49.5031 70.1499C48.7434 70.2413 47.9819 70.3116 47.2186 70.3609C46.7191 70.3925 46.1867 70.3777 45.6966 70.4876C45.1543 70.609 44.648 70.9158 44.1433 71.1474C43.6637 71.3676 43.1611 71.5572 42.6598 71.7169C38.5708 73.0196 34.3773 73.3921 30.1625 72.5481C27.3644 72.0156 24.7837 70.9103 22.3549 69.3895C21.6317 68.9365 20.986 68.283 20.2316 67.8995C19.7941 67.6771 19.3032 67.5597 18.8366 67.4156C18.2964 67.2514 17.7633 67.0655 17.2373 66.858C17.0401 66.7803 16.8439 66.7002 16.6486 66.6176C16.4534 66.5348 16.2592 66.4497 16.066 66.362C15.8728 66.2743 15.6807 66.1841 15.4897 66.0915C15.2987 65.9988 15.1089 65.9037 14.9202 65.8062C14.7315 65.7086 14.5441 65.6087 14.3578 65.5063C14.1716 65.4039 13.9866 65.2991 13.8029 65.192C13.6192 65.0848 13.4369 64.9753 13.2559 64.8635C13.0748 64.7516 12.8952 64.6374 12.7169 64.5209C12.5387 64.4044 12.362 64.2856 12.1866 64.1646C12.0112 64.0435 11.8374 63.9202 11.665 63.7947C11.4927 63.6691 11.3219 63.5414 11.1526 63.4114C10.9834 63.2815 10.8158 63.1494 10.6498 63.0152C10.4837 62.8808 10.3194 62.7444 10.1567 62.6059C9.99399 62.4674 9.83301 62.3268 9.67374 62.1841C9.51441 62.0415 9.35688 61.8968 9.20113 61.7501C9.04538 61.6033 8.89145 61.4546 8.73932 61.3039C3.67854 56.3599 1.17851 49.3159 1.0086 42.2236C0.848618 35.5457 2.91838 28.4679 7.45296 23.5656C10.6178 20.144 14.1995 18.8326 18.7159 18.7179C18.8806 18.4848 19.0533 18.2582 19.234 18.0381C19.4147 17.818 19.6029 17.6049 19.7986 17.3988C19.9942 17.1927 20.1969 16.9942 20.4066 16.8033C20.6163 16.6123 20.8324 16.4294 21.055 16.2546C21.1142 16.2079 21.174 16.1619 21.2343 16.1167C21.2946 16.0714 21.3555 16.0269 21.4169 15.9833C21.4784 15.9396 21.5403 15.8968 21.6027 15.8547C21.6652 15.8126 21.7281 15.7713 21.7915 15.7308C21.855 15.6903 21.9189 15.6507 21.9833 15.6119C22.0477 15.573 22.1125 15.535 22.1778 15.4978C22.2432 15.4606 22.3089 15.4243 22.3751 15.3888C22.4413 15.3533 22.5079 15.3186 22.5749 15.2848C22.642 15.2511 22.7094 15.2181 22.7772 15.186C22.8451 15.154 22.9133 15.1228 22.9818 15.0925C23.0504 15.0621 23.1194 15.0326 23.1887 15.0041C23.2579 14.9755 23.3276 14.9479 23.3975 14.9211C23.4675 14.8943 23.5378 14.8684 23.6083 14.8434C23.6789 14.8184 23.7498 14.7944 23.821 14.7712C23.8921 14.748 23.9635 14.7258 24.0353 14.7044C24.1069 14.6831 24.1789 14.6626 24.2511 14.6431C24.3233 14.6236 24.3957 14.605 24.4683 14.5874C24.541 14.5697 24.6139 14.553 24.6869 14.5372C24.7599 14.5214 24.8332 14.5066 24.9066 14.4927C24.9799 14.4787 25.0535 14.4658 25.1272 14.4537C25.2009 14.4417 25.2748 14.4306 25.3488 14.4205C25.4228 14.4103 25.4968 14.4011 25.571 14.3929C25.6453 14.3846 25.7196 14.3773 25.7939 14.371C25.8683 14.3646 25.9428 14.3592 26.0173 14.3548C26.0918 14.3503 26.1663 14.3468 26.2409 14.3443C26.3155 14.3418 26.3902 14.3402 26.4648 14.3396C26.5395 14.3389 26.6141 14.3393 26.6887 14.3406C26.7634 14.3419 26.838 14.3441 26.9125 14.3472C26.9871 14.3505 27.0616 14.3546 27.1361 14.3597C27.2105 14.3648 27.2849 14.3708 27.3593 14.3778C27.4336 14.3848 27.5078 14.3927 27.582 14.4017C27.6561 14.4106 27.7301 14.4204 27.804 14.4312C28.8528 13.757 29.9174 13.1456 31.105 12.765C33.8039 11.9 36.4337 12.254 38.9251 13.5898C39.2805 12.2857 39.6927 11.0723 40.2979 9.86564C41.9387 6.59415 44.1403 4.52592 47.0624 2.48523C47.8584 1.92932 48.6761 1.3062 49.6004 1.00371ZM17.6463 19.9065C13.7773 20.1623 10.4554 21.7355 7.88268 24.7505C3.56185 29.8142 1.70995 36.8747 2.13749 43.5304C2.57386 50.3237 5.3398 56.8167 10.3622 61.3395C12.2474 63.0371 14.4697 64.4261 16.7727 65.4319C17.4768 65.7395 18.2036 65.971 18.9113 66.2636C16.4561 63.8156 14.5933 61.1561 13.6443 57.7392C14.4857 59.1982 15.2062 60.6889 16.177 62.0714C19.2437 66.4387 24.0066 69.7983 29.0825 71.1297C34.7528 72.6169 41.1979 71.8895 46.2593 68.788C48.4716 67.4324 50.2197 65.7015 52.073 63.892C50.7486 65.9214 48.6979 67.7178 46.8677 69.2555C47.7101 69.2135 48.5508 69.1651 49.3876 69.0525C49.5759 69.028 49.7639 69.0014 49.9516 68.9726C50.1393 68.9438 50.3266 68.9129 50.5137 68.8798C50.7007 68.8467 50.8873 68.8115 51.0736 68.7742C51.2599 68.7368 51.4457 68.6974 51.6311 68.6557C51.8165 68.6141 52.0015 68.5703 52.1859 68.5245C52.3704 68.4787 52.5544 68.4307 52.7378 68.3806C52.9212 68.3305 53.1041 68.2784 53.2864 68.2241C53.4686 68.1698 53.6503 68.1134 53.8314 68.055C54.0125 67.9966 54.1929 67.9361 54.3727 67.8735C54.5525 67.8109 54.7315 67.7463 54.9099 67.6796C55.0883 67.6129 55.2659 67.5442 55.4427 67.4734C55.6196 67.4027 55.7957 67.3299 55.9711 67.2551C56.1463 67.1803 56.3208 67.1036 56.4945 67.0248C56.6681 66.946 56.8409 66.8652 57.0128 66.7824C57.1847 66.6997 57.3557 66.615 57.5258 66.5283C57.6958 66.4416 57.8649 66.353 58.033 66.2625C58.2012 66.1719 58.3684 66.0794 58.5345 65.9851C58.7007 65.8907 58.8658 65.7944 59.0298 65.6962C59.1939 65.5981 59.3569 65.498 59.5187 65.3961C59.6807 65.2942 59.8415 65.1905 60.0011 65.0848C60.1608 64.9792 60.3193 64.8718 60.4766 64.7626C60.6339 64.6533 60.7901 64.5423 60.9449 64.4295C61.0999 64.3167 61.2536 64.2022 61.406 64.0858C61.5585 63.9695 61.7097 63.8514 61.8596 63.7316C62.0094 63.6118 62.158 63.4903 62.3053 63.3671C62.4525 63.2439 62.5984 63.119 62.743 62.9925C62.8876 62.8659 63.0308 62.7377 63.1725 62.6078C63.3143 62.478 63.4547 62.3466 63.5936 62.2135C63.7326 62.0804 63.8701 61.9458 64.0061 61.8096C64.1421 61.6734 64.2767 61.5356 64.4097 61.3963C64.5428 61.257 64.6743 61.1162 64.8043 60.9739C64.9343 60.8316 65.0627 60.6879 65.1896 60.5426C69.6745 55.4663 72.2752 48.3115 71.9544 41.436C71.7022 36.0332 70.0679 30.6949 66.0846 26.9769C65.993 26.891 65.9002 26.8066 65.8061 26.7236C65.712 26.6406 65.6167 26.5591 65.5202 26.4791C65.4237 26.3991 65.3261 26.3206 65.2272 26.2437C65.1284 26.1667 65.0285 26.0913 64.9275 26.0175C64.8265 25.9436 64.7244 25.8714 64.6212 25.8007C64.5181 25.73 64.4139 25.661 64.3088 25.5936C64.2036 25.5262 64.0974 25.4604 63.9903 25.3963C63.8831 25.3322 63.7751 25.2698 63.6662 25.2091C63.5572 25.1483 63.4474 25.0893 63.3367 25.0321C63.226 24.9747 63.1145 24.9192 63.0022 24.8653C62.8898 24.8115 62.7767 24.7595 62.6628 24.7092C62.549 24.6589 62.4344 24.6104 62.3191 24.5637C62.2038 24.517 62.0879 24.4721 61.9713 24.4289C61.8546 24.3859 61.7374 24.3446 61.6196 24.3052C61.5018 24.2657 61.3834 24.2281 61.2644 24.1924C61.1455 24.1567 61.026 24.1228 60.9061 24.0907C60.401 23.9523 59.8586 23.8087 59.3318 23.8401C58.7979 23.8718 58.2366 24.0746 57.7276 24.2401C56.2537 24.7195 54.8403 25.3415 53.3926 25.8918C54.5873 26.6686 55.4686 27.8636 56.5695 28.7622C57.4999 29.5217 58.5339 30.1271 59.4908 30.8479C62.1101 32.8209 63.391 35.2925 64.093 38.4866C64.504 40.3564 64.6652 42.2562 64.6674 44.1712C64.6729 48.9279 63.5935 53.4306 61.1063 57.4696C60.0589 59.1705 58.2101 61.4957 56.5492 62.572C57.4947 61.4598 58.4825 60.3856 59.3302 59.1902C59.4354 59.0431 59.539 58.895 59.6411 58.7456C59.7431 58.5963 59.8435 58.4458 59.9423 58.2941C60.0411 58.1425 60.1382 57.9897 60.2337 57.8358C60.3292 57.682 60.4231 57.5271 60.5152 57.3711C60.6074 57.215 60.6979 57.058 60.7867 56.8999C60.8755 56.7419 60.9625 56.5828 61.0479 56.4228C61.1332 56.2627 61.2169 56.1017 61.2988 55.9398C61.3807 55.7778 61.4608 55.6149 61.5393 55.4512C61.6176 55.2874 61.6943 55.1227 61.7691 54.9572C61.844 54.7917 61.917 54.6253 61.9883 54.4581C62.0596 54.2909 62.1291 54.1229 62.1967 53.9542C62.2644 53.7854 62.3302 53.6158 62.3942 53.4456C62.4583 53.2753 62.5205 53.1043 62.5808 52.9325C62.6411 52.7609 62.6996 52.5885 62.7562 52.4155C62.8128 52.2424 62.8676 52.0688 62.9205 51.8945C62.9734 51.7202 63.0244 51.5453 63.0735 51.3699C63.1226 51.1944 63.1698 51.0184 63.2152 50.8419C63.2605 50.6654 63.304 50.4884 63.3455 50.3109C63.387 50.1333 63.4267 49.9554 63.4644 49.7769C63.5021 49.5985 63.5378 49.4197 63.5717 49.2405C63.6055 49.0613 63.6374 48.8817 63.6674 48.7017C63.6974 48.5218 63.7255 48.3415 63.7516 48.1608C63.7777 47.9802 63.8018 47.7994 63.824 47.6183C63.8462 47.4371 63.8665 47.2557 63.8849 47.0741C63.9032 46.8925 63.9195 46.7107 63.9339 46.5287C63.9483 46.3467 63.9608 46.1646 63.9712 45.9823C63.9817 45.8 63.9902 45.6176 63.9968 45.4352C64.0034 45.2527 64.008 45.0702 64.0106 44.8876C64.0132 44.7051 64.0139 44.5225 64.0125 44.3399C64.0113 44.1573 64.008 43.9748 64.0028 43.7922C63.9976 43.6097 63.9904 43.4273 63.9812 43.245C63.9721 43.0627 63.961 42.8804 63.9479 42.6983C63.7059 38.9691 62.8157 34.7044 59.9526 32.144C59.0622 31.3477 58.0318 30.7453 57.0914 30.0174C56.5282 29.5844 55.9787 29.1399 55.4617 28.649C53.5389 26.8232 52.1688 25.2277 49.2735 25.6627C47.89 25.8706 46.6979 26.6512 45.8728 27.8043C45.7884 27.9243 45.7066 28.0461 45.6274 28.1698C46.6177 29.7721 47.3135 31.7661 48.2433 33.469C49.0128 34.8785 49.9733 36.1661 50.6843 37.6109C52.8811 42.0752 52.6455 47.0989 51.6127 51.8588C50.3101 57.8613 47.4546 61.8905 43.3149 66.1802C44.4726 64.2061 46.0689 62.5711 47.2837 60.6291C50.6216 55.2931 52.7575 47.2991 51.2455 41.015C50.4513 37.714 48.9097 36.1144 47.388 33.2558C46.3795 31.3615 45.3982 27.9173 43.5673 26.7799C42.7195 26.2533 41.734 26.1707 40.7834 26.4159C39.2558 26.8101 37.8593 27.7802 36.6155 28.7385C33.4501 31.1773 30.6517 34.1843 28.6315 37.6968C25.7609 42.6878 24.2847 48.9419 24.6703 54.733C24.7441 55.8419 24.8543 56.9614 25.0515 58.055C25.1608 58.6613 25.3242 59.2562 25.4345 59.8619C22.9715 54.1657 24.0014 47.0459 26.1075 41.4017C28.2367 35.6957 32.3398 30.9771 37.1903 27.545C36.4233 25.7879 34.623 23.0717 32.862 22.3766C30.3179 21.3725 24.8898 22.026 22.2998 22.6905C21.8304 22.8123 21.3673 22.9554 20.9103 23.1196C20.4533 23.284 20.0043 23.4688 19.5633 23.6742C15.0974 25.7468 11.7359 30.043 10.0384 34.7005C9.97902 34.8623 9.9212 35.0247 9.86492 35.1877C9.80864 35.3507 9.75395 35.5143 9.70084 35.6784C9.64769 35.8425 9.59609 36.0071 9.54605 36.1722C9.49606 36.3374 9.44764 36.503 9.40077 36.6692C9.35391 36.8353 9.30863 37.0018 9.26493 37.1689C9.22124 37.3359 9.17916 37.5034 9.13868 37.6713C9.09816 37.8392 9.05927 38.0075 9.02202 38.1761C8.98472 38.3448 8.94903 38.5138 8.91495 38.6832C8.88087 38.8526 8.8484 39.0223 8.81755 39.1924C8.78674 39.3624 8.75754 39.5328 8.72996 39.7034C8.70237 39.8741 8.6764 40.045 8.65203 40.2161C8.62772 40.3872 8.60502 40.5586 8.58392 40.7302C8.56283 40.9019 8.5434 41.0737 8.52563 41.2457C8.50781 41.4177 8.49165 41.5899 8.47716 41.7622C8.46261 41.9346 8.44972 42.1071 8.4385 42.2797C8.42727 42.4522 8.41768 42.6249 8.40973 42.7977C8.40177 42.9705 8.39548 43.1434 8.39085 43.3163C8.38617 43.4892 8.38315 43.6622 8.38179 43.8352C8.38043 44.0081 8.38073 44.1811 8.38269 44.3541C8.38461 44.5271 8.38818 44.7 8.39342 44.8729C8.39865 45.0458 8.40552 45.2186 8.41403 45.3913C8.42259 45.5641 8.43276 45.7368 8.44454 45.9093C8.45637 46.0819 8.46983 46.2543 8.48493 46.4266C8.50003 46.5989 8.51677 46.771 8.53515 46.9429C8.55352 47.1149 8.57353 47.2867 8.59518 47.4582C8.61682 47.6297 8.64008 47.801 8.66495 47.9721C8.68986 48.1432 8.71642 48.314 8.74461 48.4846C8.77275 48.6551 8.80252 48.8254 8.83393 48.9953C8.86534 49.1652 8.89837 49.3348 8.933 49.5041C8.96763 49.6734 9.00388 49.8422 9.04173 50.0108C9.07959 50.1793 9.11905 50.3475 9.16013 50.5152C9.20115 50.683 9.24379 50.8503 9.28804 51.0172C9.5271 51.9302 9.7577 52.8787 10.1275 53.7469C7.48354 49.6307 7.22946 43.2985 8.16176 38.5977C9.2752 32.9831 12.4007 27.4431 17.113 24.2527C18.9427 23.0139 20.956 22.2218 23.0922 21.7516C23.6961 21.6186 24.314 21.5556 24.9154 21.4202C22.7221 20.2497 20.1032 19.7762 17.6463 19.9065ZM49.8451 2.14021C49.2994 2.23029 48.556 2.77809 48.0843 3.09702C45.918 4.5615 43.951 6.15847 42.417 8.33775C40.4899 11.0755 39.5254 14.4864 39.066 17.8007C38.9143 18.8954 38.9987 20.2061 38.4864 21.1962C37.867 22.3931 36.673 23.1761 35.5505 23.8129C36.2976 24.6466 37.3117 26.1344 37.7047 27.1793C38.7275 26.558 39.6901 26.0017 40.867 25.7522C41.9977 25.5988 43.2458 25.637 44.1894 26.3789C44.6311 26.7261 45.0144 27.1979 45.3194 27.6733C45.7353 26.9572 46.3351 26.363 46.973 25.8569C45.2307 23.4494 44.4253 22.5031 44.8728 19.3472C44.8991 19.1683 44.9282 18.9899 44.9603 18.8119C44.9924 18.634 45.0275 18.4567 45.0655 18.28C45.1034 18.1033 45.1443 17.9273 45.1881 17.752C45.2319 17.5767 45.2786 17.4023 45.3281 17.2287C45.3777 17.055 45.4301 16.8823 45.4853 16.7105C45.5406 16.5387 45.5987 16.368 45.6596 16.1982C45.7205 16.0284 45.7842 15.8598 45.8507 15.6922C45.9172 15.5247 45.9864 15.3584 46.0584 15.1933C46.1304 15.0281 46.2051 14.8643 46.2824 14.7019C46.3598 14.5393 46.4399 14.3783 46.5226 14.2186C46.6053 14.0589 46.6907 13.9007 46.7786 13.744C46.8665 13.5873 46.9571 13.4322 47.0502 13.2787C47.1433 13.1251 47.2388 12.9733 47.3369 12.8231C47.435 12.6729 47.5356 12.5245 47.6386 12.3778C47.7416 12.2312 47.847 12.0864 47.9548 11.9434C48.0626 11.8004 48.1727 11.6594 48.2851 11.5203C48.8167 10.8503 49.414 10.1802 50.0893 9.66276C50.3035 9.49859 50.5265 9.33745 50.766 9.21441C51.1492 9.01751 51.6043 8.88964 51.928 8.59162C52.0371 8.49119 52.0999 8.34552 52.1647 8.21299L52.144 8.16658C51.9407 7.72142 51.5662 7.41889 51.2388 7.07314C50.6887 6.49209 50.28 5.55691 50.1168 4.7702C49.97 4.06229 50.6218 2.49735 49.9178 2.16611C49.8945 2.15514 49.8693 2.14885 49.8451 2.14021ZM50.6911 17.4634C48.6845 17.6916 47.4814 18.0662 45.6952 19.0228C45.588 19.518 45.4875 20.029 45.4568 20.5361C45.7115 20.829 45.9807 21.1169 46.2097 21.4315C47.2705 20.0662 48.775 19.0744 50.4787 18.8783C50.727 18.8498 50.9732 18.8458 51.2228 18.849C50.1525 19.5553 49.6172 20.5839 49.3535 21.8442C49.2798 22.1963 49.2526 22.5521 49.1923 22.9053C50.5577 22.1529 52.0482 21.607 53.5984 22.0851C53.9566 22.1956 54.2709 22.3666 54.6005 22.5452C53.7928 22.3227 53.0598 22.2452 52.2645 22.5679C51.353 22.9603 50.5801 23.5157 49.9093 24.267C49.7041 24.4969 49.5228 24.7482 49.3195 24.9785C50.5185 24.9609 51.6451 25.0383 52.7543 25.5613C54.7795 24.7123 57.3181 23.4592 59.4995 23.3433C59.2338 21.5895 58.6787 20.3548 57.2546 19.2817C55.4256 17.9036 52.9429 17.2668 50.6911 17.4634ZM26.4028 15.4374C23.5774 15.7137 21.6432 16.7794 19.8218 19.0402C19.7698 19.1046 19.7227 19.1649 19.6617 19.2214C22.0226 19.4879 24.173 20.0099 26.2124 21.3311C27.1448 21.3003 28.0728 21.2409 29.0062 21.2248C30.8262 21.2663 33.0177 21.3107 34.4627 22.6065C34.3268 20.5645 34.2699 18.9964 32.6481 17.5498C31.1198 16.1865 28.4648 15.2885 26.4429 15.4332C26.4295 15.4342 26.4162 15.436 26.4028 15.4374ZM33.7589 13.4528C31.8745 13.6777 30.7905 14.0979 29.1049 14.9538C31.0866 15.6063 33.186 16.4525 34.2089 18.4704C34.5191 19.0824 34.6791 19.7446 34.8382 20.4103C35.1431 19.0553 35.3371 18.1055 35.1648 16.693C35.0838 16.2984 34.9732 15.9127 34.8328 15.5361C36.8168 16.5697 37.5065 18.0132 38.2246 20.0814C38.2943 18.4138 38.3129 16.4962 38.7357 14.8822C37.2482 14.0343 35.4958 13.2534 33.7589 13.4528ZM49.6034 19.5748C48.2445 20.1985 47.2841 20.9756 46.3097 22.1164C45.9873 21.8426 45.678 21.5539 45.382 21.2503C45.5102 22.8983 46.2529 24.3668 47.1106 25.7393L47.6526 25.4768C48.0675 25.2736 48.472 25.1386 48.9187 25.0302C49.2298 23.9856 50.1001 23.2631 50.935 22.6679C50.1139 22.982 49.3546 23.2857 48.5962 23.7514C48.7285 22.7629 48.8156 21.7087 49.1053 20.7548C49.2192 20.3797 49.5828 19.9379 49.6426 19.5898L49.6034 19.5748ZM35.7012 16.806C35.6962 17.3165 35.7526 17.8306 35.7234 18.3396C35.6389 19.809 35.1165 21.2933 34.6153 22.6621C34.817 22.8829 34.999 23.0836 35.1341 23.3564C35.4913 23.1585 35.8408 22.9597 36.1748 22.7212C36.782 22.2616 37.3445 21.7896 37.859 21.2187C37.5589 19.3792 37.0523 18.0993 35.7012 16.806ZM46.5294 16.4074C46.3159 16.961 46.1162 17.5129 45.9427 18.0814L46.6713 17.6248C46.973 17.4545 47.2758 17.2862 47.5796 17.1199C47.2499 16.8805 46.8969 16.5794 46.5294 16.4074Z" stroke="#4D4D4D" stroke-opacity="0.5" stroke-width="0.4" mask="url(#path-1-outside-1_412_557)"/>
<path d="M42.7484 19.9957C42.777 20.3224 42.7056 20.6452 42.7545 20.977C42.9788 22.4976 43.7188 24.1918 43.4277 25.7706C43.4123 25.7077 43.415 25.7329 43.4127 25.671C43.3882 25.0107 43.3297 24.335 43.2022 23.6868C42.9621 22.4653 42.4084 21.2547 42.7484 19.9957Z" stroke="#4D4D4D" stroke-opacity="0.5" stroke-width="0.4" mask="url(#path-1-outside-1_412_557)"/>
<path d="M47.8936 6.13391C47.9193 6.17658 47.9118 6.15186 47.9099 6.2097C47.7213 6.28292 46.686 7.51426 46.4874 7.74987C46.2853 7.99358 46.0884 8.24162 45.8967 8.49399C45.7049 8.74641 45.5185 9.00298 45.3375 9.26369C45.1566 9.52435 44.9811 9.78889 44.8112 10.0573C44.6412 10.3258 44.477 10.5978 44.3184 10.8736C44.1598 11.1493 44.0071 11.4284 43.8601 11.7109C43.7132 11.9934 43.5723 12.279 43.4374 12.5677C43.3024 12.8564 43.1735 13.148 43.0508 13.4425C42.9279 13.7369 42.8113 14.0339 42.701 14.3335C42.0237 16.168 41.6009 18.0957 41.1461 19.9982C40.8712 21.1481 40.6306 22.3432 40.1626 23.4294C39.933 23.9622 39.6766 24.3787 39.2479 24.764L39.2204 24.7331C40.2776 23.1 40.51 20.9378 40.8742 19.0486C41.6886 14.8247 43.3111 10.3554 46.4215 7.33579C46.88 6.89062 47.3844 6.5137 47.8936 6.13391Z" stroke="#4D4D4D" stroke-opacity="0.5" stroke-width="0.4" mask="url(#path-1-outside-1_412_557)"/>
</svg>
