<svg xmlns="http://www.w3.org/2000/svg" xmlns:svgjs="http://svgjs.com/svgjs" xmlns:xlink="http://www.w3.org/1999/xlink" width="288" height="288"><svg xmlns="http://www.w3.org/2000/svg" xmlns:svgjs="http://svgjs.com/svgjs" xmlns:xlink="http://www.w3.org/1999/xlink" width="288" height="288" viewBox="0 0 288 288"><svg xmlns="http://www.w3.org/2000/svg" width="288" height="288" enable-background="new 0 0 1000 1000" viewBox="0 0 1000 1000"><path fill="#da0000" d="M968.1,732L859,622.9c-26.3-26.3-67.8-28.7-99.3-8l-93.9,93.9c-1.9,1.9-3.9,3.7-6,5.4c-1.1,1.5-2.4,2.9-3.7,4.3c-40.7,40.7-158.5-11.3-263.2-116c-104.7-104.7-156.7-222.6-116-263.2c1.4-1.4,2.9-2.7,4.5-3.9c1.6-2,3.3-3.9,5.2-5.8l93.9-93.9c20.7-31.5,18.3-73-8-99.3L268,31.9C237.7,1.5,187.1,2.9,155.1,35L34.9,155.1c-19.7,19.7-27.8,46.4-24.1,71.1l-0.1,0.1c26,146.1,125.8,323.9,282.4,480.4C447.3,860.8,622,959.9,766.8,987.8l0,0c26.5,6.6,56.5-1.1,78.1-22.7L965,844.9C997.1,812.9,998.5,762.3,968.1,732z" class="color000 svgShape colora10000"/></svg></svg></svg>