<svg width="136" height="96" viewBox="0 0 136 96" fill="none" xmlns="http://www.w3.org/2000/svg">
<path d="M86.7671 0.0533921C89.524 -0.312754 96.0474 1.35476 97.2776 0.509211C97.529 0.336378 97.718 0.262528 97.9979 0.181541L98.1083 0.151135C102.743 1.35352 111.314 6.7731 114.972 9.85586C126.24 19.3542 133.27 29.1167 135.537 45.4254C137.127 56.8647 134.727 66.7038 126.733 73.5358C117.974 81.0216 107.155 80.8609 96.8775 83.6141C89.4455 85.6053 82.3028 88.7752 74.7928 90.4998C65.7995 92.5648 57.1607 92.9605 48.315 94.6367C46.86 94.8188 45.3944 95.1707 43.9449 95.4285C32.6003 97.4451 20.3553 94.0816 11.1027 86.0195C4.16506 79.9741 4.32297 76.6372 1.76591 68.5311C0.0611516 63.1267 -0.254182 65.641 0.168732 58.9768C1.28991 41.3097 11.9015 32.2364 23.4017 22.6123C29.5318 17.4823 32.984 15.5901 40.2281 12.9923C46.952 10.581 54.3323 8.03351 61.1295 5.99365C68.5742 3.75953 79.0955 0.975273 86.7671 0.0533921ZM95.3608 1.31225C94.3659 1.40751 91.6445 0.87939 92.452 2.87644C92.6971 2.97139 93.1228 3.21528 93.3687 3.17339C94.3646 2.92422 95.9917 2.52333 96.775 1.74666L96.8451 1.5307C96.5281 0.999166 95.8313 1.23964 95.3608 1.31225Z" fill="black"/>
<path d="M101.705 4.48345C102.891 4.93616 104.016 5.65201 105.128 6.30766C104.706 7.10511 104.295 7.90629 103.896 8.72081C103.62 9.29672 103.377 9.89062 103.13 10.4839C102.901 8.38228 102.432 6.42092 101.705 4.48345Z" fill="#FFBA34"/>
<path d="M93.929 6.17362C95.4307 4.93803 96.9221 4.21226 98.6834 3.63387C99.9631 5.89839 100.425 8.73168 100.865 11.3614C99.7033 11.7226 97.5264 8.87224 96.3346 7.90598C95.5928 7.30464 94.5407 6.93477 93.929 6.17362Z" fill="#FFDF7B"/>
<path d="M88.8728 3.4418C90.073 3.38253 91.2819 3.31209 92.4774 3.48369C88.5742 7.20255 84.966 9.88659 81.1343 14.2149C80.497 14.9462 79.8745 15.695 79.2505 16.4415C80.0706 12.574 81.2561 7.7586 82.8898 4.29852C84.7907 3.7434 86.9181 3.52434 88.8728 3.4418Z" fill="#FFBA34"/>
<path d="M65.1504 8.94639C65.4704 8.87161 65.8443 8.88434 66.1725 8.85797C65.4472 9.44752 64.608 9.91141 63.8469 10.4436C58.8545 13.9328 54.8821 18.9323 50.5847 23.4501L49.9011 24.1858C50.2592 20.1086 52.0832 13.2474 55.2221 10.8774C58.621 10.5745 61.8015 9.58963 65.1504 8.94639Z" fill="#FFBA34"/>
<path d="M30.5485 21.8118C30.5641 21.4087 30.5074 20.9395 30.7831 20.6553C32.9389 18.4317 45.3989 14.545 49.3076 14.2003C48.3569 17.9834 45.8266 24.3314 47.5191 28.1337C45.5752 32.3009 41.1877 35.8051 39.0846 40.7235C38.3366 41.6985 37.5407 42.7783 36.5664 43.4445C34.0028 40.4815 31.0788 32.3031 30.469 27.7281C30.2072 25.835 30.455 23.7247 30.5485 21.8118Z" fill="#FFBA34"/>
<path d="M30.6927 27.5212C30.6002 26.7225 30.4012 26.0041 31.2538 25.8741C31.7775 26.7166 31.9517 27.6267 32.129 28.6264C31.1784 31.0722 30.8938 28.9141 30.6927 27.5212Z" fill="#FFDF7B"/>
<path d="M42.2 19.5907C44.57 19.4089 44.8357 22.8646 43.037 23.6866C40.8401 23.6127 40.2292 20.6407 42.2 19.5907Z" fill="black"/>
<path d="M93.929 6.17362C94.5407 6.93477 95.5928 7.30464 96.3346 7.90598C97.5264 8.87224 99.7033 11.7226 100.865 11.3614C101.513 15.2602 102.787 16.5141 104.75 12.4934C105.545 10.8901 106.351 9.30044 107.454 7.95811C109.106 9.0671 110.873 10.3176 112.365 11.7043C112.283 13.584 112.205 15.4328 111.772 17.2582C110.286 24.0763 108.331 31.6403 103.137 35.8525C101.849 36.5476 100.169 37.9101 98.7174 37.8915C97.8231 35.6614 97.9449 32.9017 97.3941 30.5211C96.7719 27.8324 95.773 25.2954 94.9297 22.6995C93.9071 19.551 93.1078 16.4893 91.819 13.4612C91.5389 12.1759 90.5724 11.0353 90.0443 9.8779C91.3467 8.65255 92.5796 7.32977 93.929 6.17362Z" fill="#FFBA34"/>
<path d="M60.1275 17.5741C65.726 12.1877 72.7235 7.77597 79.7559 5.55489C78.5898 8.31092 74.9531 19.8631 76.0547 21.8022C77.0649 23.5795 81.5338 17.4655 83.1989 16.0316C85.418 13.8621 87.7021 11.8582 90.0443 9.8779C90.5724 11.0353 91.5389 12.1759 91.819 13.4612C93.1078 16.4893 93.9071 19.551 94.9297 22.6995C95.773 25.2954 96.7719 27.8324 97.3941 30.5211C97.9449 32.9017 97.8231 35.6614 98.7174 37.8915C100.169 37.9101 101.849 36.5476 103.137 35.8525C105.297 35.6325 108.081 32.5436 109.402 30.6803C114.73 23.1665 112.043 19.3319 112.694 11.9159C118.044 15.7781 125.783 23.5463 128.96 30.2555C133.385 39.599 134.018 55.8336 129.282 64.9022C122.628 77.6432 109.772 76.9726 99.1185 79.9331C91.7481 81.9814 84.6374 85.1408 77.2385 87.0891C67.525 89.6469 57.5242 90.2904 47.8206 92.8879C35.4605 96.1965 28.4315 94.9429 17.1277 86.6683C9.57568 81.1402 3.88522 70.2681 4.325 59.6061C4.84074 62.0034 5.51753 64.4768 6.62005 66.5927C5.94679 63.0991 4.12803 58.9303 4.25031 55.5019C4.71236 42.5493 16.2298 32.4486 24.2408 25.5825C25.6247 24.3962 27.1145 23.3784 28.4457 22.1081C27.4924 29.028 29.3918 36.538 32.8193 42.172C35.057 45.8505 38.2694 45.4707 36.724 43.6316L36.6262 43.514C36.6064 43.4904 36.5864 43.4674 36.5664 43.4445C37.5407 42.7783 38.3366 41.6985 39.0846 40.7235C41.0596 41.5309 42.4785 39.0327 43.5535 37.5269C49.2346 29.5679 52.9395 24.3978 60.1275 17.5741Z" fill="#4FBD01"/>
<path d="M118.721 47.7048C120.191 47.9242 120.852 49.601 119.363 50.6061C117.733 50.6858 117.276 48.4579 118.721 47.7048Z" fill="black"/>
<path d="M122.858 25.081C125.416 25.44 128.6 32.5737 129.503 35.1466L129.421 35.2589C127.066 32.169 125.235 28.5675 122.664 25.7314C122.625 25.4726 122.755 25.3085 122.858 25.081Z" fill="black"/>
<path d="M77.3115 58.6461C78.9542 58.7131 80.4156 63.7463 78.5067 64.3331C76.3941 63.8674 75.2973 59.6762 77.3115 58.6461Z" fill="black"/>
<path d="M101.053 54.2067C102.98 54.5111 103.803 59.0637 101.972 59.9409C100.133 59.765 98.8136 54.8499 101.053 54.2067Z" fill="black"/>
<path d="M31.618 65.7431C33.7064 66.0385 33.8513 71.593 32.0223 71.432C30.2194 70.5595 29.4174 66.588 31.618 65.7431Z" fill="black"/>
<path d="M124.325 35.7278C124.743 35.8485 128.786 41.6991 127.158 43.2844C124.873 43.2127 122.748 37.5384 124.325 35.7278Z" fill="black"/>
<path d="M12.4882 49.4046C13.7993 49.6615 13.0891 57.3438 9.78636 57.2137C7.75443 55.4494 11.4717 50.383 12.4882 49.4046Z" fill="black"/>
<path d="M50.3304 67.3039C52.1507 67.3011 52.0819 69.5507 52.5982 71.145C53.1503 72.8485 54.9211 75.234 53.3533 76.2347C50.8522 76.2158 48.2689 67.9487 50.3304 67.3039Z" fill="black"/>
<path d="M19.0898 79.8788C19.9442 79.8782 20.845 81.0986 21.5047 81.6565C26.5653 85.9367 32.3335 88.1007 38.6157 87.8347L38.5994 87.8273L38.7512 87.853L37.9824 88.0073C35.7499 88.9304 33.2644 88.7535 30.985 88.1518C29.4361 87.7429 15.8271 82.7658 19.0898 79.8788Z" fill="black"/>
<path d="M98.7174 37.8915C95.7467 38.3386 94.907 29.7345 94.6485 27.241C94.2705 23.5969 93.9661 20.2851 92.903 16.8192C92.6576 16.0186 91.8264 14.2443 91.819 13.4612C93.1078 16.4893 93.9071 19.551 94.9297 22.6995C95.773 25.2954 96.7719 27.8324 97.3941 30.5211C97.9449 32.9017 97.8231 35.6614 98.7174 37.8915Z" fill="black"/>
<path d="M70.4135 44.2305C70.6849 45.0233 71.1074 46.481 69.8555 46.4084C66.6176 46.2207 64.9351 37.1136 64.4657 34.3153C64.2644 33.1151 62.9775 26.8897 62.9938 26.5369C64.729 32.8585 67.6699 38.4733 70.4135 44.2305Z" fill="black"/>
<path d="M60.1275 17.5741C65.726 12.1877 72.7235 7.77597 79.7559 5.55489C78.5898 8.31092 74.9531 19.8631 76.0547 21.8022C77.0649 23.5795 81.5338 17.4655 83.1989 16.0316C83.4171 16.1132 83.618 16.1862 83.8472 16.2135C83.5442 17.7277 82.8263 19.1383 82.413 20.6218C80.2794 28.2836 78.9471 34.3687 74.1751 40.7322C73.2208 42.0047 71.9797 44.0238 70.4135 44.2305C67.6699 38.4733 64.729 32.8585 62.9938 26.5369C62.6054 24.2777 61.1674 19.4877 60.1275 17.5741Z" fill="#FFBA34"/>
<path d="M72.5817 15.2156C74.067 15.4728 74.4481 18.3595 72.8779 18.5227C71.3754 18.0488 70.7732 15.7977 72.5817 15.2156Z" fill="black"/>
</svg>
