<svg width="134" height="128" viewBox="0 0 134 128" fill="none" xmlns="http://www.w3.org/2000/svg">
<path d="M63.9828 0.394316C65.0918 0.458389 65.2242 0.829356 65.4045 1.7849C64.1368 3.27796 62.1686 3.72987 61.9517 5.95328C61.7111 8.41646 63.7041 9.07326 64.0966 11.0402C64.387 12.497 63.7953 14.0606 63.8974 15.5409C64.0549 17.8318 66.0852 15.8241 65.6547 19.1345C65.3234 21.6817 63.6327 23.695 61.4948 25.1666C61.5417 26.2549 61.6493 27.2788 61.8064 28.3594L61.7238 28.4772L61.7895 28.4405L61.7565 28.4925L61.7556 28.2558L61.7002 28.3506C61.636 28.1131 61.5554 27.879 61.4788 27.6442C60.926 26.0779 59.5305 24.7718 59.254 23.1692L59.2843 23.1205C60.1858 21.642 61.6036 20.5183 62.4507 18.9751C64.6817 14.9103 59.817 13.8822 58.3935 9.79779C57.0851 6.04341 59.9978 1.42762 63.9828 0.394316Z" fill="black"/>
<path d="M49.0682 1.94544C52.8327 1.81115 47.1428 6.05637 46.9668 6.45333C44.5088 12.0028 50.8662 12.8495 50.6022 17.9525C50.4719 20.469 47.744 25.8809 44.3228 25.635C41.3274 24.7255 45.431 21.6357 46.2069 20.5689C49.6866 15.7849 43.7153 15.3733 42.7305 10.6323C42.0111 7.17008 45.2243 2.47886 49.0682 1.94544Z" fill="black"/>
<path d="M79.2111 3.74103C83.225 3.82042 77.6857 7.75886 77.3814 8.16766C74.5992 11.9068 78.286 13.9765 80.3729 16.7648C84.9124 22.8297 79.2022 29.9491 72.2053 31.0122C71.5677 30.9297 71.294 30.6884 71.0486 30.1151C70.4084 28.6196 76.873 26.0599 78.3288 23.0563C80.4248 18.732 69.9728 15.2387 73.405 8.41151C74.4795 6.27403 76.8115 4.50674 79.2111 3.74103Z" fill="black"/>
<path d="M127.895 21.7208C135.535 22.6828 134.994 30.7603 128.745 34.7145C126.021 36.4391 122.597 37.3437 119.58 38.5951C114.469 40.7153 109.491 43.1817 104.172 44.8719C99.1948 46.4538 94.031 47.4999 89.054 49.1223C89.8836 50.651 90.4939 52.3595 91.2389 53.9309C97.0922 54.2457 105.889 53.7445 110.22 57.6493C112.491 59.6968 112.551 62.5279 110.329 64.5003C106.983 67.4709 101.12 67.1972 96.7197 67.0472C92.2194 72.244 90.8831 88.1951 89.9901 94.8045C88.963 102.404 87.1767 115.506 82.821 121.531C77.5032 128.887 69.1599 128.234 60.8799 127.395L47.6834 126.014C36.4743 124.845 22.4423 124.917 12.6667 118.77C6.60477 115.222 3.46533 109.162 3.65842 102.704C3.96088 92.5892 11.393 78.923 13.5861 68.2956C14.525 63.7459 14.8769 60.2359 12.9744 55.856C8.52437 53.8498 0.794085 51.4002 0.564113 45.8663C0.297887 39.4633 7.21797 39.0593 12.5113 39.7846C14.4292 40.0474 24.8922 41.1817 24.3636 42.8669L24.2673 42.8696L24.3316 42.9726C34.3571 32.8372 48.8506 32.1276 63.0725 34.5447C68.5448 35.4747 81.5479 39.7571 85.0191 44.2233C93.0801 39.3917 100.779 34.6955 108.714 29.6264C113.568 26.5256 121.603 21.2264 127.895 21.7208ZM91.6672 66L53.2626 61.4205C40.8154 59.9263 27.9675 58.1381 15.5806 56.2801C18.0518 60.8555 15.2207 72.8686 13.822 77.3339C10.6819 87.3611 2.84756 102.183 11.8936 111.72C20.0566 120.069 35.2156 121.322 46.446 123.072C51.2536 123.821 57.0867 124.974 61.8993 125.288C67.2251 125.635 74.8023 123.263 78.6636 120.091C85.1206 114.785 86.0223 107.64 87.3292 100.164C89.315 88.8039 90.0285 77.2951 94.2641 66.4042C93.4011 66.258 92.537 66.0958 91.6672 66ZM20.8925 50.2742L21.0684 50.4639C23.5299 50.6683 37.4832 55.1971 39.2917 56.6651C42.9378 57.3754 46.5928 57.8106 50.2681 58.3042L63.5134 60.1632C66.1421 60.5343 68.7668 60.846 71.3857 61.2934C76.2709 57.6861 80.7705 57.6524 86.7596 58.7966C87.6094 58.959 88.8383 59.4566 89.6704 59.3215C89.285 56.4186 87.5778 52.9396 86.0307 50.3737C83.1194 44.3013 76.2937 40.1638 69.5528 38.4561C67.9373 37.8186 66.1882 37.5442 64.4838 37.2264C47.5219 34.2823 30.3297 36.2697 20.8925 50.2742ZM87.9002 46.4607C98.7058 43.935 108.757 39.3376 118.541 34.639C119.866 34.0025 121.802 33.4245 122.911 32.8052C125.674 31.8082 129.813 29.9732 130.528 27.1191C131.366 16.8108 102.705 37.7966 100.059 39.4099C96.1252 41.8085 91.6707 44.0129 87.9002 46.4607ZM7.21382 42.6245C8.25934 44.664 9.68689 45.9286 11.9626 46.7891C14.2882 47.111 18.406 46.545 21.0847 46.6635C21.8728 45.4935 22.9597 44.2962 24.0542 43.364C20.4041 44.1985 11.7263 40.9608 7.37111 42.5678L7.21382 42.6245Z" fill="black"/>
<path d="M11.9626 46.7891C14.2882 47.111 18.406 46.545 21.0847 46.6635C20.1044 48.0673 18.6601 52.7429 20.8925 50.2742L21.0684 50.4639C23.5299 50.6683 37.4832 55.1971 39.2917 56.6651C36.617 56.6797 23.1665 54.5469 22.038 54.0839C19.2853 53.6938 9.79013 51.4672 9.50804 47.9693C9.41332 46.796 11.4197 47.3884 11.9626 46.7891Z" fill="#4FBD01"/>
<path d="M91.7401 55.9108C93.4825 56.2254 115.099 57.7619 106.627 62.9182C101.832 65.8363 90.007 63.2513 83.9067 62.6369L76.7373 61.9681C74.9299 61.803 73.1695 61.6448 71.3857 61.2934C76.2709 57.6861 80.7705 57.6524 86.7596 58.7966C87.6094 58.959 88.8383 59.4566 89.6704 59.3215C89.7935 59.7456 93.2203 61.5506 91.7401 55.9108Z" fill="#4FBD01"/>
<path d="M87.9002 46.4607C91.6707 44.0129 96.1252 41.8085 100.059 39.4099C102.705 37.7966 131.366 16.8108 130.528 27.1191C129.813 29.9732 125.674 31.8082 122.911 32.8052C121.802 33.4245 119.866 34.0025 118.541 34.639C108.757 39.3376 98.7058 43.935 87.9002 46.4607ZM120.074 31.6228C121.015 32.4743 121.581 32.7734 122.911 32.8052C125.674 31.8082 129.813 29.9732 130.528 27.1191C129.856 26.7061 129.45 27.3856 128.9 27.7221C126.176 29.3894 122.597 29.91 120.114 31.5965L120.074 31.6228Z" fill="#FFBA34"/>
<path d="M20.8925 50.2742C30.3297 36.2697 47.5219 34.2823 64.4838 37.2264C66.1882 37.5442 67.9373 37.8186 69.5528 38.4561C76.2937 40.1638 83.1194 44.3013 86.0307 50.3737C87.5778 52.9396 89.285 56.4186 89.6704 59.3215C88.8383 59.4566 87.6094 58.959 86.7596 58.7966C80.7705 57.6524 76.2709 57.6861 71.3857 61.2934C68.7668 60.846 66.1421 60.5343 63.5134 60.1632L50.2681 58.3042C46.5928 57.8106 42.9378 57.3754 39.2917 56.6651C37.4832 55.1971 23.5299 50.6683 21.0684 50.4639L20.8925 50.2742ZM69.5554 45.6189C69.4167 44.9315 69.2198 44.3566 68.8794 43.7207C68.8184 44.1815 68.7775 44.6379 68.6081 45.0751C68.8659 43.5705 68.6387 42.5869 67.1734 41.6459C66.3651 41.4419 65.7699 41.4266 64.9537 41.6048L63.9794 41.6399C64.2326 41.3267 64.5387 41.1043 64.8639 40.8591C65.521 40.3988 66.0533 40.1562 66.8912 40.0557C65.072 39.2519 62.9776 38.4519 60.9835 39.0735C54.7164 41.0275 66.225 52.3862 69.5554 45.6189ZM69.5528 38.4561C68.1793 38.2674 66.8035 38.0838 65.4432 37.8115C65.8964 38.1951 66.3634 38.5271 66.8639 38.856C69.2141 39.6027 76.8722 43.9023 78.6879 45.1688C79.9436 46.0443 85.3245 50.9067 86.0307 50.3737C83.1194 44.3013 76.2937 40.1638 69.5528 38.4561ZM47.3082 42.1951C47.0459 43.6894 46.4786 44.3128 44.9078 44.6459C44.201 44.6676 43.5156 44.4773 42.833 44.3124C45.2417 46.7939 49.2953 44.7399 47.3082 42.1951Z" fill="#FFBA34"/>
<path d="M44.9078 44.6459C38.2385 42.754 46.7611 36.8449 47.3082 42.1951C47.0459 43.6894 46.4786 44.3128 44.9078 44.6459Z" fill="black"/>
<path d="M63.9794 41.6399L64.9537 41.6048C62.7366 43.3873 63.873 46.0797 66.6604 46.5586C63.6311 46.9382 62.6883 43.5668 63.9794 41.6399Z" fill="#C42A23"/>
<path d="M64.9537 41.6048C65.7699 41.4266 66.3651 41.4419 67.1734 41.6459C68.6387 42.5869 68.8659 43.5705 68.6081 45.0751C68.174 45.8736 67.6439 46.419 66.6604 46.5586C63.873 46.0797 62.7366 43.3873 64.9537 41.6048Z" fill="black"/>
<path d="M91.6672 66C92.537 66.0958 93.4011 66.258 94.2641 66.4042C90.0285 77.2951 89.315 88.8039 87.3292 100.164C86.0223 107.64 85.1206 114.785 78.6636 120.091C74.8023 123.263 67.2251 125.635 61.8993 125.288C57.0867 124.974 51.2536 123.821 46.446 123.072C35.2156 121.322 20.0566 120.069 11.8936 111.72C2.84756 102.183 10.6819 87.3611 13.822 77.3339C15.2207 72.8686 18.0518 60.8555 15.5806 56.2801C27.9675 58.1381 40.8154 59.9263 53.2626 61.4205L91.6672 66ZM20.3178 74.8836C19.4286 77.3505 18.7362 82.4052 18.0758 85.3046C17.3801 88.3591 13.4334 98.5063 16.5125 101.025L16.9154 101.082C17.4296 100.722 17.1089 99.2056 17.1567 98.617C17.5703 93.5228 19.4736 87.4325 20.4338 82.1378C20.7264 80.5255 22.0152 76.0908 20.3178 74.8836Z" fill="#4FBD01"/>
</svg>
