<svg width="128" height="120" viewBox="0 0 128 120" fill="none" xmlns="http://www.w3.org/2000/svg">
<path d="M37.4876 0.000158033C49.8622 -0.0462235 60.1749 10.123 64.7341 22.3959C66.6868 27.6524 67.6971 30.503 70.5813 35.4507C73.5461 30.2489 80.9435 21.8612 85.3233 18.6546C97.7822 9.53313 110.251 24.0941 116.275 35.2749C120.282 42.7105 125.419 59.1941 126.645 68.1281C127.247 72.5164 127.361 76.9469 127.663 81.3656C128.429 92.5641 128.54 97.3118 120.638 106.038C115.155 112.092 108.851 115.337 101.464 117.543C100.305 117.972 99.0561 118.251 97.8633 118.54C83.1463 122.108 71.3007 119.555 61.0357 106.204C59.4285 104.113 58.0497 101.829 56.466 99.7299C51.1701 101.612 43.1329 104.4 37.8022 104.687C29.5047 105.135 21.2435 101.566 15.1123 95.3603C7.13521 87.2862 0.587736 75.0893 0.0580134 62.8292C-0.810524 42.7272 8.17771 23.91 20.0073 9.40708C25.7318 2.38895 28.8571 0.453161 37.4876 0.000158033ZM58.9319 88.1214L59.9297 88.7295C60.3487 88.9933 60.7736 89.2966 61.2105 89.518C62.1623 90.1053 63.0948 90.797 64.0645 91.3345C65.5706 92.5072 67.0883 93.5984 68.4808 94.9429C71.2634 97.6296 76.9575 104.869 80.7434 104.891C85.4338 104.919 89.3244 94.6786 94.9475 94.3411C99.0025 94.0975 100.986 99.7848 104.584 99.7495C111.465 99.6821 114.129 76.1271 125.858 89.306C125.841 71.323 123.905 60.202 117.548 43.3276C113.559 32.7378 101.723 14.3136 90.0175 18.6746C79.824 22.4722 65.0506 47.047 60.3117 57.5978C57.2553 64.4028 55.087 69.8246 55.6619 77.6534C55.8421 80.1054 56.7778 86.9257 58.9319 88.1214ZM3.08356 70.5237C6.14073 69.8804 7.57837 71.4138 10.1136 73.0525C14.8913 76.1404 26.1395 85.5166 30.2759 84.6766C34.1875 83.8825 34.8849 75.3409 39.7327 78.96C43.9423 82.1026 46.6803 88.3724 50.7566 81.1585C51.6585 79.5627 51.7501 77.8887 52.2337 76.1385L54.6651 67.5431C57.4327 57.7833 63.0795 46.0519 68.9874 37.9502C67.359 35.5185 66.3431 31.259 65.0467 29.5352C61.8163 22.4386 61.2439 16.4943 54.8606 11.0452C54.8749 9.57041 51.6319 7.35263 50.5602 6.68764C44.3067 2.53635 33.8281 0.334221 27.3471 5.06343C22.5848 8.53863 14.8237 19.8293 11.8561 25.3953C5.89373 36.5781 1.77044 49.5115 2.24335 62.6639C2.33259 65.1452 2.52409 68.0544 3.06621 70.45L3.08356 70.5237ZM107.785 112.012C111.032 107.167 115.6 103.889 119.662 99.9646C120.715 98.9482 123.544 95.6176 124.548 95.0129C124.916 94.005 125.201 93.0097 125.424 91.9509C123.96 90.1448 121.2 88.0955 118.948 87.9976C113.643 87.7671 112.075 101.945 104.509 101.901C100.176 101.876 98.0688 96.4826 95.253 96.5808C91.6441 96.7068 87.0928 104.498 83.0843 106.624C77.6187 109.523 71.1886 100.846 67.5348 97.5041C64.7798 94.9847 61.5897 92.8731 58.394 91.1331C54.0236 88.7534 54.3033 90.3656 55.9013 94.0668C58.4922 100.067 64.6545 108.151 69.6251 111.952C77.2971 117.818 86.6769 118.458 95.5886 116.583C101.097 115.424 103.201 115.136 107.785 112.012ZM4.6 72.3585C3.10347 72.9014 4.76786 75.3733 5.36761 76.643C10.7557 88.05 18.5773 98.6383 30.4341 101.364C39.9652 103.554 46.6979 99.0267 55.3462 97.715C54.5209 95.3999 51.9831 90.824 54.4788 88.8487C55.0298 88.5357 55.595 88.3561 56.2062 88.2551C55.4246 85.2566 54.0672 82.2816 53.7454 79.1478C53.0773 81.717 51.3842 84.8141 49.2357 86.1497C44.5331 89.0732 41.1692 81.9398 37.9178 80.4841C34.6603 82.1083 34.4651 86.9158 29.283 86.9946C24.9338 87.0609 21.2887 83.8714 17.753 81.4345C16.4306 80.5234 5.33018 72.49 4.6 72.3585Z" fill="black"/>
<path d="M107.785 112.012C111.032 107.167 115.6 103.889 119.662 99.9646C120.715 98.9482 123.544 95.6176 124.548 95.0129C123.243 100.052 112.707 112.013 107.785 112.012Z" fill="white"/>
<path d="M3.08356 70.5237L3.06621 70.45C2.52409 68.0544 2.33259 65.1452 2.24335 62.6639C1.77044 49.5115 5.89373 36.5781 11.8561 25.3953C14.8237 19.8293 22.5848 8.53863 27.3471 5.06343C33.8281 0.334221 44.3067 2.53635 50.5602 6.68764C51.6319 7.35263 54.8749 9.57041 54.8606 11.0452C61.2439 16.4943 61.8163 22.4386 65.0467 29.5352C66.3431 31.259 67.359 35.5185 68.9874 37.9502C63.0795 46.0519 57.4327 57.7833 54.6651 67.5431L52.2337 76.1385C51.7501 77.8887 51.6585 79.5627 50.7566 81.1585C46.6803 88.3724 43.9423 82.1026 39.7327 78.96C34.8849 75.3409 34.1875 83.8825 30.2759 84.6766C26.1395 85.5166 14.8913 76.1404 10.1136 73.0525C7.57837 71.4138 6.14073 69.8804 3.08356 70.5237ZM40.4633 4.90693C51.1803 12.0116 56.2641 16.2044 63.9249 27.9722C64.164 28.3393 64.6833 29.3913 65.0467 29.5352C61.8163 22.4386 61.2439 16.4943 54.8606 11.0452C54.8749 9.57041 51.6319 7.35263 50.5602 6.68764L50.4986 6.91414C49.5863 7.14007 51.1295 7.65198 51.452 7.83437C52.4123 7.77234 52.2181 8.7381 51.6812 8.5116C51.0812 8.25864 49.6652 7.06666 49.0846 7.14491L49.0691 7.2721C46.2288 6.0326 43.5631 4.94563 40.4633 4.90693Z" fill="#4FBD01"/>
<path d="M10.179 46.8475C10.2127 46.3945 10.2828 45.9407 10.3385 45.4902L11.0379 46.1959C10.8869 46.39 10.3533 47.3028 10.179 46.8475Z" fill="#1A5300"/>
<path d="M9.97559 50.0538C9.68876 55.9918 11.3557 60.5565 11.8096 65.992C11.8824 66.8607 11.2837 67.7457 10.5304 67.1C8.70909 65.5393 8.02645 55.4955 8.03518 52.3496C8.04845 47.5498 8.69965 43.8464 11.4292 39.9421C11.3299 41.8301 10.6143 43.6233 10.3385 45.4902C10.2828 45.9407 10.2127 46.3945 10.179 46.8475C10.0322 47.9072 9.95926 48.9813 9.97559 50.0538Z" fill="white"/>
<path d="M50.5602 6.68764C51.6319 7.35263 54.8749 9.57041 54.8606 11.0452C53.1391 9.44635 51.0889 8.32124 49.0691 7.2721L49.0846 7.14491C49.6652 7.06666 51.0812 8.25864 51.6812 8.5116C52.2181 8.7381 52.4123 7.77234 51.452 7.83437C51.1295 7.65198 49.5863 7.14007 50.4986 6.91414L50.5602 6.68764Z" fill="url(#paint0_linear_181_321)"/>
<path d="M20.0446 29.6465C20.8472 30.0765 21.8871 30.7961 21.7217 31.9371C18.9144 35.0598 17.6627 38.533 16.069 42.5431C15.6214 43.6697 15.0217 45.5483 14.2704 46.3939C14.1625 46.6884 14.0688 47.0791 13.843 47.2834L13.6455 47.2877C12.9261 47.4177 12.479 47.3702 11.875 46.8637C11.6308 46.6147 11.3102 46.409 11.0379 46.1959L10.3385 45.4902C10.6143 43.6233 11.3299 41.8301 11.4292 39.9421C12.1248 35.3207 15.8358 30.7358 20.0446 29.6465Z" fill="black"/>
<path d="M13.6455 47.2877C11.8671 45.9011 12.8914 43.4338 13.1542 41.4744C13.5748 38.3406 13.4209 36.3861 15.3251 33.8484C15.8725 33.1191 18.5234 30.1103 19.449 31.1873C19.3806 31.9192 17.5509 35.2092 17.079 36.3294C15.7242 39.5454 14.8857 42.917 14.2704 46.3939C14.1625 46.6884 14.0688 47.0791 13.843 47.2834L13.6455 47.2877Z" fill="white"/>
<path d="M58.9319 88.1214C56.7778 86.9257 55.8421 80.1054 55.6619 77.6534C55.087 69.8246 57.2553 64.4028 60.3117 57.5978C65.0506 47.047 79.824 22.4722 90.0175 18.6746C101.723 14.3136 113.559 32.7378 117.548 43.3276C123.905 60.202 125.841 71.323 125.858 89.306C114.129 76.1271 111.465 99.6821 104.584 99.7495C100.986 99.7848 99.0025 94.0975 94.9475 94.3411C89.3244 94.6786 85.4338 104.919 80.7434 104.891C76.9575 104.869 71.2634 97.6296 68.4808 94.9429C67.0883 93.5984 65.5706 92.5072 64.0645 91.3345C63.0948 90.797 62.1623 90.1053 61.2105 89.518C60.7736 89.2966 60.3487 88.9933 59.9297 88.7295L58.9319 88.1214ZM109.252 46.215C104.548 47.3196 105.538 52.2633 106.396 56.2558C107.253 60.243 110.889 72.9413 116.093 71.7351C120.059 70.4401 120.192 63.8499 119.199 60.2643C118.246 56.8238 113.376 45.9461 109.252 46.215ZM110.348 32.9413C110.419 32.9316 110.477 32.8918 110.541 32.8576L110.591 32.4971C108.477 27.9577 106.527 23.1144 101.285 21.8914C102.865 23.566 104.458 25.1082 105.885 26.9643C107.396 28.93 108.695 31.119 110.348 32.9413Z" fill="url(#paint1_linear_181_321)"/>
<path d="M58.9319 88.1214C59.4507 87.9566 59.8733 87.9609 60.3357 87.5677C60.2607 88.0067 60.1936 88.3806 59.9297 88.7295L58.9319 88.1214Z" fill="#FFBA34"/>
<path d="M110.591 32.4971C111.222 33.3363 111.7 34.1171 112.074 35.136C111.317 34.5094 110.914 33.7628 110.348 32.9413C110.419 32.9316 110.477 32.8918 110.541 32.8576L110.591 32.4971Z" fill="white"/>
<path d="M62.3502 87.4729C62.2238 87.978 61.948 88.2566 61.6226 88.6188C62.4681 90.3113 63.6723 90.5623 64.0645 91.3345C63.0948 90.797 62.1623 90.1053 61.2105 89.518L61.2273 89.3765C61.273 88.9682 61.4726 88.6649 61.6609 88.3197L62.3502 87.4729Z" fill="#FFBA34"/>
<path d="M60.3357 87.5677L60.5814 87.1838C60.842 87.8593 61.1668 87.9527 61.6609 88.3197C61.4726 88.6649 61.273 88.9682 61.2273 89.3765L61.2105 89.518C60.7736 89.2966 60.3487 88.9933 59.9297 88.7295C60.1936 88.3806 60.2607 88.0067 60.3357 87.5677Z" fill="#BD9D28"/>
<path d="M60.5814 87.1838C61.236 85.9261 63.6116 85.5579 62.3502 87.4729L61.6609 88.3197C61.1668 87.9527 60.842 87.8593 60.5814 87.1838Z" fill="#786522"/>
<path d="M109.252 46.215C113.376 45.9461 118.246 56.8238 119.199 60.2643C120.192 63.8499 120.059 70.4401 116.093 71.7351C110.889 72.9413 107.253 60.243 106.396 56.2558C105.538 52.2633 104.548 47.3196 109.252 46.215ZM109.439 48.264C105.491 50.4257 109.909 61.3666 111.3 64.3962C112 65.9194 113.979 70.5314 116.014 69.486C118.09 67.8157 117.911 63.0873 117.268 60.6991C116.737 58.7272 111.756 48.6863 109.439 48.264Z" fill="black"/>
<defs>
<linearGradient id="paint0_linear_181_321" x1="112.861" y1="85.5123" x2="79.1814" y2="72.6631" gradientUnits="userSpaceOnUse">
<stop stop-color="#213B01"/>
<stop offset="1" stop-color="#266101"/>
</linearGradient>
<linearGradient id="paint1_linear_181_321" x1="7.08159" y1="49.6794" x2="131.308" y2="84.6668" gradientUnits="userSpaceOnUse">
<stop stop-color="#FFD400"/>
<stop offset="1" stop-color="#FFB84C"/>
</linearGradient>
</defs>
</svg>
