<svg width="101" height="118" viewBox="0 0 101 118" fill="none" xmlns="http://www.w3.org/2000/svg">
<path d="M66.8456 5.54536L77.8441 8.48538C83.5464 10.0444 94.4477 12.7168 97.083 17.914C98.6054 20.916 97.33 23.8846 96.4735 26.9875C97.5869 27.9247 98.3462 28.1008 98.707 29.8076C99.4772 33.4509 97.1282 35.3533 94.1544 36.1993C95.6245 39.3365 96.9882 42.7289 98.4462 45.9328C99.6529 48.584 101.601 51.8902 100.598 55.0122C100.128 55.519 99.5877 55.9428 99.0631 56.3798C99.3869 57.4052 99.5121 58.3992 99.5618 59.4903C98.8183 57.619 97.4092 56.2671 95.5296 57.6248C96.2103 59.9636 96.2024 68.6384 95.8853 71.297C95.4035 75.3385 94.0721 78.8938 93.0378 82.7731C92.424 85.0749 92.0601 87.4579 91.4104 89.7473C89.0247 98.1564 84.3957 107.135 77.9903 112.733C71.9334 118.027 65.3311 117.82 58.2208 117.157C52.282 116.603 46.5572 115.559 40.7428 114.281C30.1494 111.953 18.6074 109.071 11.6733 99.6319C5.66216 91.449 1.93461 76.2846 1.07021 65.3867C0.121622 53.4261 3.48689 44.4281 12.5639 36.5854C12.0715 35.7531 7.63417 32.4262 11.6378 33.5347C16.9728 35.1739 21.6088 43.279 26.1787 45.5681C33.4334 49.2019 38.6999 43.1556 45.6471 45.5661C49.7647 46.9948 52.696 50.8781 55.8452 53.8295C65.3724 62.7583 73.9741 63.2144 85.1616 57.5099C87.1396 56.5011 88.9721 55.1555 91.015 54.3058C93.1212 53.4301 95.3623 53.811 97.4462 53.0567C97.3577 50.5477 94.9287 45.6102 93.8802 43.209L91.1705 37.0159C83.8611 37.214 78.006 35.4007 70.9814 34.1007C66.246 33.2243 61.4496 32.689 56.7239 31.7739C52.8606 31.0259 49.1176 29.8717 45.326 28.8458C39.5817 27.2918 33.9224 26.0167 28.605 23.2145C27.3552 22.5561 26.1772 21.6896 24.8355 21.2479C21.8106 23.9585 18.9677 26.1706 15.9212 28.7451C14.5134 29.935 10.37 35.2858 9.15155 31.5091C7.92986 27.7229 17.0561 24.0288 19.3409 22.814C20.8546 22.0094 22.261 21.0066 23.8276 20.3198C23.0162 19.2416 22.1191 18.2968 21.8076 16.8805C21.2916 14.5353 22.5929 11.0838 24.9653 10.4135C24.1916 4.16179 28.6534 1.00103 34.1067 0.501922C37.0362 0.233996 40.9937 0.779212 43.9183 1.1405C52.0281 2.1423 59.0248 3.45179 66.8456 5.54536ZM53.8685 5.07819C48.3212 3.87788 28.9604 0.346521 28.8443 10.861C32.8297 15.4548 48.289 22.0787 54.0447 23.8602C58.868 25.3535 64.0219 26.4775 69.0697 26.9989C74.1527 27.7215 81.0015 27.9728 86.2584 27.5992C88.8053 27.4184 91.2699 26.5703 93.8156 26.7978C94.3386 24.9341 95.1183 23.3497 94.2124 21.5732C90.8286 14.9363 77.4479 12.3168 70.2899 10.0866L63.137 7.78524C60.0736 6.77459 57.0237 5.76712 53.8685 5.07819ZM95.3268 28.8313C93.4899 28.5355 91.6161 28.6935 89.7547 28.7769C83.2717 29.0671 76.672 29.3276 70.2294 28.8815C54.8364 27.8161 39.4091 21.5903 26.8882 12.4852C24.3982 10.6744 23.1914 15.1974 24.1325 16.812C25.2626 17.8149 26.7652 18.3691 28.0998 19.0204L31.7979 20.8586C38.0193 23.9519 46.3321 27.7085 52.9977 29.6559C59.0856 31.4347 65.3244 31.86 71.6014 32.5889C78.188 33.3536 83.3699 34.0033 90.0827 33.9581C91.4384 33.9492 94.8731 34.4794 95.8553 33.1562C96.7903 31.8962 97.0389 29.2526 95.3268 28.8313Z" fill="black"/>
<path d="M13.9869 37.6746C16.1622 38.8946 17.7759 41.0213 19.4506 42.8915C23.0581 46.919 26.2983 50.0045 28.2066 55.4151C32.0642 66.3515 28.9128 80.1388 17.8364 85.1115C14.2679 86.5212 11.1797 86.6556 8.52293 83.4828C3.72584 77.7538 2.14313 59.5124 5.15803 51.2282C6.45019 47.6773 11.3778 40.215 13.9869 37.6746Z" fill="#FFBA34"/>
<path d="M10.0189 52.4029C9.71238 54.6079 8.38974 57.4462 8.25084 59.5887C8.18266 60.6409 8.65582 61.6087 8.62785 62.6737L8.62395 62.7852C7.53803 64.5408 7.69528 65.3754 7.37848 67.3892C7.3343 66.9599 7.32839 66.5454 7.33383 66.1119C7.45319 63.877 7.76379 61.8273 7.16437 59.6434L6.35652 59.4188C8.31678 56.6644 8.68902 54.991 10.0189 52.4029Z" fill="black"/>
<path d="M68.2594 17.7595C70.3472 18.156 70.0953 20.6838 68.0662 20.6123C66.0336 20.1298 66.3407 18.0193 68.2594 17.7595Z" fill="black"/>
<path d="M63.1739 16.2324C66.1097 17.0706 62.316 20.3398 58.5531 18.1849C58.8517 17.9611 59.3424 17.816 59.6831 17.6725C59.0275 17.4867 56.4979 16.6356 56.1366 16.2013C55.8759 15.8878 55.2746 16.8857 55.0484 17.0609C54.4031 17.5612 52.9792 17.3958 52.5629 16.6747C52.4476 16.4753 52.7488 16.176 52.578 16.0635C51.3113 15.2292 46.4036 13.4157 44.5893 13.9009C42.9511 14.1238 39.7321 12.5045 41.1101 11.3299C42.4225 10.2108 47.0045 12.3833 48.348 12.8192C52.3957 14.1322 58.9631 16.0544 63.1739 16.2324Z" fill="black"/>
<path d="M94.7456 57.8145L94.7791 57.8665C94.7175 58.273 94.3265 58.7378 94.1713 59.1506C93.2819 61.5165 93.1096 65.3945 92.7635 67.9267C92.0494 73.152 91.0681 78.2556 90.042 83.4267C88.6058 90.6657 88.493 91.1835 84.6881 97.93C80.8643 104.71 75.4151 111.568 68.0922 113.711C59.8585 116.12 36.401 111.941 28.9133 109.393C18.5281 105.858 10.7555 98.697 8.25725 87.0321C11.8167 89.0821 14.0898 89.3401 18.144 88.0557C31.177 83.927 34.2128 66.9616 30.8383 54.8289C30.1356 52.3026 28.9916 49.9545 28.3812 47.4064C33.5508 48.1418 39.0624 46.1125 43.3331 47.2672C46.6049 48.1517 49.3675 51.0142 51.8978 53.2358C58.6118 59.131 63.8805 63.7375 73.3882 63.4739C81.531 63.2483 87.0907 59.2243 94.7456 57.8145Z" fill="#4FBD01"/>
<path d="M63.9014 69.0079C69.2514 70.9211 68.4943 82.9717 65.172 78.862C65.3234 75.7789 66.3408 75.7611 64.1979 72.4144C64.0208 72.1812 63.8244 71.9616 63.6372 71.7376C62.4603 72.3992 61.2538 73.5205 60.5608 74.7563C59.5249 76.6042 58.6583 78.7498 57.0728 75.3139C57.843 73.477 61.9125 68.9572 63.9014 69.0079Z" fill="black"/>
<path d="M42.7027 65.5638C47.6379 66.9497 45.2731 72.9664 48.9946 75.1451C50.4381 75.9901 51.3027 74.357 52.548 73.9649C55.452 73.0501 52.6574 80.874 47.2598 77.0041C45.6933 75.753 45.0491 74.0482 43.8414 73.089C44.3842 71.0399 44.3886 68.1588 41.834 68.014C39.728 67.8947 39.8853 70.8798 38.9602 71.6245C37.7738 72.5797 34.864 69.7312 39.8435 66.1184C40.7867 65.434 41.6472 65.3627 42.7027 65.5638Z" fill="black"/>
</svg>
