<svg width="128" height="128" viewBox="0 0 128 128" fill="none" xmlns="http://www.w3.org/2000/svg">
<path d="M44.4984 120.507C43.5013 122.256 41.6908 123.451 39.9064 124.473C35.7912 126.829 31.8999 123.812 29.7806 120.533C25.9858 114.66 26.122 102.4 33.1007 98.6876C32.3889 100.011 31.2944 101.124 30.561 102.437C27.1642 108.519 28.0265 119.959 35.3315 123.396C39.7702 125.484 41.6764 121.808 44.4984 120.507Z" fill="black"/>
<path d="M43.9684 16.1513C49.1873 14.5109 51.0165 18.8471 55.1157 20.3271C53.9597 21.2041 55.0457 21.7583 53.2576 22.1996C52.1105 22.4826 50.7033 18.2471 45.0389 19.2486C36.4232 22.1986 36.3696 27.1306 32.2638 29.5964C32.6822 24.9963 39.3158 17.5874 43.9684 16.1513Z" fill="#FFBA34"/>
<path d="M17.611 51.3145C17.4853 52.2212 16.5178 53.0506 16.0344 53.827C10.9503 61.9948 21.9689 72.7514 29.1316 68.9845C30.8474 68.0818 35.9733 63.6028 33.1303 61.6816L32.6814 61.5025C31.9159 60.9417 31.2443 60.2765 30.5563 59.6383C31.0483 59.8488 35.6046 62.5885 36.1509 62.9332C39.3614 64.9584 40.1748 66.2514 44.3824 65.8266L44.5183 66.1852C43.2494 66.4632 41.8912 66.5905 40.653 66.9332C39.3374 66.7759 36.3106 65.2349 35.6918 65.3346C34.2563 66.501 31.7723 68.7296 30.6188 70.083L30.621 70.208C30.6606 73.5156 28.9365 77.371 31.9361 80.0564C34.6831 82.5155 39.6872 82.9376 43.2536 81.8447C44.3617 81.5051 46.362 80.4401 47.387 80.4503C41.9941 84.8053 33.311 85.2157 29.4858 79.1022C27.9142 76.5906 28.6404 73.4245 29.4191 70.7957C19.2161 74.0713 7.08612 59.3281 17.611 51.3145Z" fill="black"/>
<path d="M7.53113 114.785C8.79945 114.731 9.43402 115.861 10.3993 116.429C14.2048 118.668 23.6493 122.214 20.9175 127.321C20.2409 127.432 19.5679 127.574 18.8948 127.703C12.3379 128.826 7.20346 126.827 5.69797 120.588C4.8896 117.237 3.88446 115.4 7.53113 114.785Z" fill="#FFBA34"/>
<path d="M14.3656 48.9809C13.1961 48.5637 12.1865 47.3861 11.532 46.4505C5.90414 38.4049 17.7347 26.826 27.7376 28.8875C28.6351 29.0836 29.5835 29.2885 30.4475 29.5878C29.9563 29.7422 29.576 30.0587 29.1144 30.2145C27.1916 31.2046 26.3298 33.3321 23.3673 34.251C22.7864 35.1044 21.8247 37.3703 22.2498 38.3569C21.7032 39.5487 22.0361 41.105 21.9622 42.3653C22.0876 43.9451 22.3345 45.5255 22.5362 47.099C22.643 47.836 22.7374 48.5961 22.9464 49.3149L22.6655 49.4973C21.3825 49.9992 19.867 50.2014 18.5016 50.4507C17.1264 50.3259 15.547 49.6061 14.3656 48.9809Z" fill="#FFBA34"/>
<path d="M21.9622 42.3653C22.0876 43.9451 22.3345 45.5255 22.5362 47.099C22.643 47.836 22.7374 48.5961 22.9464 49.3149L22.6655 49.4973C21.3825 49.9992 19.867 50.2014 18.5016 50.4507C17.1264 50.3259 15.547 49.6061 14.3656 48.9809C15.8888 49.1564 16.5718 49.7669 18.6053 49.7783C20.5318 48.465 21.292 44.4628 21.939 42.4355L21.9622 42.3653Z" fill="black"/>
<path d="M22.5362 47.099C22.643 47.836 22.7374 48.5961 22.9464 49.3149L22.6655 49.4973L22.5135 49.3545C21.0399 49.1496 22.216 47.3095 22.5362 47.099Z" fill="#043002"/>
<path d="M22.9464 49.3149C23.0889 49.7065 23.1999 50.2734 23.4127 50.6234C25.6654 53.546 26.6544 57.0686 30.5563 59.6383C31.2443 60.2765 31.9159 60.9417 32.6814 61.5025L33.1303 61.6816C35.9733 63.6028 30.8474 68.0818 29.1316 68.9845C21.9689 72.7514 10.9503 61.9948 16.0344 53.827C16.5178 53.0506 17.4853 52.2212 17.611 51.3145C17.8507 51.0069 18.2132 50.7246 18.5016 50.4507C19.867 50.2014 21.3825 49.9992 22.6655 49.4973L22.9464 49.3149ZM23.4127 50.6234C24.4651 56.1806 26.9459 59.3647 32.0551 62.1434C32.2162 61.8979 32.4603 61.7031 32.6814 61.5025C31.9159 60.9417 31.2443 60.2765 30.5563 59.6383C26.6544 57.0686 25.6654 53.546 23.4127 50.6234Z" fill="#FFBA34"/>
<path d="M32.6814 61.5025L33.1303 61.6816C32.8195 62.1673 32.6778 62.4625 32.0551 62.1434C32.2162 61.8979 32.4603 61.7031 32.6814 61.5025Z" fill="#ECED57"/>
<path d="M8.71199 83.0226C12.5156 86.6362 18.6352 96.6223 16.5699 101.636C16.4725 101.872 13.9472 105.824 13.6776 106.128C12.3672 107.604 10.383 107.555 8.57224 106.912C3.25293 104.642 -0.320669 98.466 0.0227706 93.2656C0.309755 88.9199 5.47159 86.7534 8.60932 84.1971L8.7012 84.1215C8.69705 83.7555 8.70756 83.3885 8.71199 83.0226Z" fill="#FFBA34"/>
<path d="M33.1007 98.6876C36.0325 96.2049 36.6217 97.564 38.873 100.206C42.2933 104.221 45.3826 107.987 46.0678 113.205C46.3719 115.521 46.3897 118.704 44.4984 120.507C41.6764 121.808 39.7702 125.484 35.3315 123.396C28.0265 119.959 27.1642 108.519 30.561 102.437C31.2944 101.124 32.3889 100.011 33.1007 98.6876Z" fill="#FFBA34"/>
<path d="M73.0872 21.1833C74.9724 20.9987 83.6854 17.1821 85.9904 16.1749C93.4642 12.91 100.706 9.10301 107.798 5.18981C112.333 2.68755 119.718 -2.46903 124.969 1.38268C128.938 4.29314 128.806 10.7102 125.753 14.1208C122.377 17.892 116.736 19.6334 111.961 21.3903C103.945 24.34 90.5774 28.3186 84.0598 33.17C82.7943 34.1122 82.7312 35.6003 81.6555 36.579C81.6599 36.9838 81.6646 37.3881 81.6569 37.7926C81.5741 39.9989 80.0899 44.4684 78.6916 46.2141C79.6834 46.4279 80.6968 46.54 81.679 46.7893C88.6018 48.5474 93.6385 53.5718 91.8496 60.4195C91.2939 62.5472 87.9973 67.9561 85.9384 69.3556L85.8412 69.4223L85.7084 69.4299C85.1743 69.458 84.4805 69.2539 83.9989 69.3561C82.0487 69.771 77.6089 72.8972 76.2753 74.2534C71.9849 78.616 72.25 84.433 71.1608 89.8449C70.0953 95.1384 65.9068 109.411 57.4033 102.337C53.3462 98.9625 52.7885 93.3089 52.2439 88.6183C51.9968 86.4889 51.5518 81.2368 50.8771 79.5884C49.6461 78.9929 48.3789 79.837 47.387 80.4503C46.362 80.4401 44.3617 81.5051 43.2536 81.8447C39.6872 82.9376 34.6831 82.5155 31.9361 80.0564C28.9365 77.371 30.6606 73.5156 30.621 70.208L30.6188 70.083C31.7723 68.7296 34.2563 66.501 35.6918 65.3346C36.3106 65.2349 39.3374 66.7759 40.653 66.9332C41.8912 66.5905 43.2494 66.4632 44.5183 66.1852L44.3824 65.8266C40.1748 66.2514 39.3614 64.9584 36.1509 62.9332C35.6046 62.5885 31.0483 59.8488 30.5563 59.6383C26.6544 57.0686 25.6654 53.546 23.4127 50.6234C23.1999 50.2734 23.0889 49.7065 22.9464 49.3149C22.7374 48.5961 22.643 47.836 22.5362 47.099C22.3345 45.5255 22.0876 43.9451 21.9622 42.3653C22.0361 41.105 21.7032 39.5487 22.2498 38.3569C21.8247 37.3703 22.7864 35.1044 23.3673 34.251C26.3298 33.3321 27.1916 31.2046 29.1144 30.2145C29.576 30.0587 29.9563 29.7422 30.4475 29.5878C30.9927 29.7468 31.9619 30.2472 32.2638 29.5964C36.3696 27.1306 36.4232 22.1986 45.0389 19.2486C50.7033 18.2471 52.1105 22.4826 53.2576 22.1996C55.0457 21.7583 53.9597 21.2041 55.1157 20.3271C55.7491 20.2626 55.8562 19.2747 56.0428 18.8149C57.9839 14.0328 66.4639 15.1307 69.9921 17.5478C71.4248 18.5293 72.3079 19.7267 73.0872 21.1833ZM67.1197 52.8312C66.1312 53.9804 65.0671 55.4015 63.3469 55.6303C60.9777 57.9905 57.9047 58.8145 54.5193 59.0611C54.4089 59.4783 54.2904 59.9772 53.9617 60.2978C54.0533 60.7609 53.8972 60.9275 53.6271 61.3092C52.6723 61.0926 52.4885 61.2773 51.878 61.9053L50.8928 63.0582C49.1219 64.8922 47.1117 65.5189 44.611 66.2058L44.5183 66.1852C43.2494 66.4632 41.8912 66.5905 40.653 66.9332C39.3374 66.7759 36.3106 65.2349 35.6918 65.3346C34.2563 66.501 31.7723 68.7296 30.6188 70.083L30.621 70.208C30.6606 73.5156 28.9365 77.371 31.9361 80.0564C34.6831 82.5155 39.6872 82.9376 43.2536 81.8447C44.3617 81.5051 46.362 80.4401 47.387 80.4503C48.3789 79.837 49.6461 78.9929 50.8771 79.5884C52.0004 80.2664 52.3189 83.6858 52.4946 84.8058C53.2402 89.5596 54.961 101.569 61.99 102.608C64.7755 103.02 69.5382 89.8053 70.1537 87.9148C72.6212 80.3344 71.7934 73.6992 81.4606 69.4228C87.5634 66.7229 93.4476 57.6192 88.5257 51.9509C86.4 49.5031 81.4103 46.4847 77.8132 47.3196C76.2678 47.6783 74.9325 48.6347 73.2812 48.6953C71.906 48.7458 70.5641 48.1307 69.2078 47.99C68.0297 48.6598 69.0434 52.3508 67.1197 52.8312ZM119.664 1.76729C115.784 2.37462 110.43 6.43358 107.004 8.51054C98.2247 13.8322 88.6131 17.5364 78.7084 20.7417C77.6637 21.0796 76.5833 21.3814 75.5654 21.7814C80.6708 24.1409 83.9013 27.6325 82.1044 33.0754C82.5278 32.9618 83.2385 32.1816 83.5872 31.8808C88.9961 27.2136 96.5313 24.3189 103.379 21.8615L111.061 19.1606C117.641 16.8686 128.896 13.8829 126.097 5.36162C125.216 2.68171 122.546 1.48819 119.664 1.76729ZM55.779 23.174C54.5467 23.7622 53.8255 23.6813 52.5074 23.3802C53.2465 24.4044 54.007 25.4212 54.7036 26.4704C54.9203 26.1392 55.7818 23.1915 55.779 23.174Z" fill="black"/>
<path d="M66.253 52.2207C66.5585 52.4099 66.8391 52.6121 67.1197 52.8312C66.1312 53.9804 65.0671 55.4015 63.3469 55.6303C64.2195 54.4334 65.3633 53.4174 66.253 52.2207Z" fill="white"/>
<path d="M35.6575 27.9912L35.7209 28.0997C36.5442 29.5246 37.0899 31.493 37.9329 33.0919C40.2645 37.5146 42.627 41.312 44.846 45.964C46.4442 49.3147 49.6007 59.1848 54.5193 59.0611C54.4089 59.4783 54.2904 59.9772 53.9617 60.2978C54.0533 60.7609 53.8972 60.9275 53.6271 61.3092C52.6723 61.0926 52.4885 61.2773 51.878 61.9053L50.8928 63.0582C49.1219 64.8922 47.1117 65.5189 44.611 66.2058L44.5183 66.1852L44.3824 65.8266C40.1748 66.2514 39.3614 64.9584 36.1509 62.9332C35.6046 62.5885 31.0483 59.8488 30.5563 59.6383C26.6544 57.0686 25.6654 53.546 23.4127 50.6234C23.1999 50.2734 23.0889 49.7065 22.9464 49.3149C22.7374 48.5961 22.643 47.836 22.5362 47.099C22.3345 45.5255 22.0876 43.9451 21.9622 42.3653C22.0361 41.105 21.7032 39.5487 22.2498 38.3569C24.3705 36.5633 25.2472 32.4243 28.8739 32.577C30.2197 32.6338 31.2979 33.3285 32.5043 32.367C33.8697 31.2787 34.8231 29.4513 35.6575 27.9912Z" fill="#4FBD01"/>
<path d="M51.4026 61.5106C51.5628 61.6359 51.7372 61.7622 51.878 61.9053L50.8928 63.0582L50.1644 62.9733L51.4026 61.5106Z" fill="#281E03"/>
<path d="M51.4026 61.5106C52.0485 60.6077 52.7584 59.1963 53.9617 60.2978C54.0533 60.7609 53.8972 60.9275 53.6271 61.3092C52.6723 61.0926 52.4885 61.2773 51.878 61.9053C51.7372 61.7622 51.5628 61.6359 51.4026 61.5106Z" fill="black"/>
<path d="M50.1644 62.9733L50.8928 63.0582C49.1219 64.8922 47.1117 65.5189 44.611 66.2058L44.5183 66.1852L44.3824 65.8266C46.7561 65.3363 48.455 64.5531 50.1644 62.9733Z" fill="#5C3404"/>
<path d="M55.779 23.174C58.2985 20.8259 57.6972 18.5689 59.2392 17.5427C61.9355 15.7483 67.7255 17.948 70.0103 19.4348C70.8801 20.0006 71.693 20.7301 72.6289 21.1934L72.0699 21.5866C74.8157 23.9605 79.2356 28.9271 80.5009 32.3455C81.0336 33.785 80.7765 35.197 81.6555 36.579C81.6599 36.9838 81.6646 37.3881 81.6569 37.7926C80.7151 40.2541 80.6636 42.085 78.6733 44.4108C74.0572 49.8047 70.8085 46.3787 69.3058 46.7145C69.0381 46.7741 66.5046 49.4524 66.3833 49.7093C66.075 50.3627 66.0773 51.1398 65.6959 51.7642C64.1292 54.3292 59.9883 56.6592 56.9461 57.393C51.7145 58.6548 51.1372 55.2605 49.3309 51.6792L45.6275 44.2784C43.2616 39.4379 40.9652 35.4174 38.1327 30.8054C37.3683 29.5606 36.0438 28.0561 35.7045 26.6984C38.4496 23.8773 41.6346 20.7942 46.0706 20.4972C50.6701 20.1891 53.2579 24.9667 55.2812 28.0001C58.9649 33.5225 61.7877 38.6164 63.8373 44.9122C64.1093 45.7474 64.7024 48.4726 65.5415 48.9599C67.3915 50.0345 65.7446 45.4737 65.7286 45.4278C64.3764 41.5362 62.6025 37.6029 60.1549 34.1739C58.5656 31.9473 55.9249 28.8 54.7036 26.4704C54.9203 26.1392 55.7818 23.1915 55.779 23.174Z" fill="#4FBD01"/>
<path d="M67.1197 52.8312C69.0434 52.3508 68.0297 48.6598 69.2078 47.99C70.5641 48.1307 71.906 48.7458 73.2812 48.6953C74.9325 48.6347 76.2678 47.6783 77.8132 47.3196C81.4103 46.4847 86.4 49.5031 88.5257 51.9509C93.4476 57.6192 87.5634 66.7229 81.4606 69.4228C71.7934 73.6992 72.6212 80.3344 70.1537 87.9148C69.5382 89.8053 64.7755 103.02 61.99 102.608C54.961 101.569 53.2402 89.5596 52.4946 84.8058C52.3189 83.6858 52.0004 80.2664 50.8771 79.5884C49.6461 78.9929 48.3789 79.837 47.387 80.4503C46.362 80.4401 44.3617 81.5051 43.2536 81.8447C39.6872 82.9376 34.6831 82.5155 31.9361 80.0564C28.9365 77.371 30.6606 73.5156 30.621 70.208L30.6188 70.083C31.7723 68.7296 34.2563 66.501 35.6918 65.3346C36.3106 65.2349 39.3374 66.7759 40.653 66.9332C41.8912 66.5905 43.2494 66.4632 44.5183 66.1852L44.611 66.2058C47.1117 65.5189 49.1219 64.8922 50.8928 63.0582L51.878 61.9053C52.4885 61.2773 52.6723 61.0926 53.6271 61.3092C53.8972 60.9275 54.0533 60.7609 53.9617 60.2978C54.2904 59.9772 54.4089 59.4783 54.5193 59.0611C57.9047 58.8145 60.9777 57.9905 63.3469 55.6303C65.0671 55.4015 66.1312 53.9804 67.1197 52.8312ZM51.878 61.9053L50.8928 63.0582C49.1219 64.8922 47.1117 65.5189 44.611 66.2058C47.8564 66.8299 53.5936 64.6282 53.6271 61.3092C52.6723 61.0926 52.4885 61.2773 51.878 61.9053ZM35.6918 65.3346C35.7336 66.3511 38.2113 67.7808 39.0615 68.1704C39.6149 67.779 40.1344 67.3626 40.653 66.9332C39.3374 66.7759 36.3106 65.2349 35.6918 65.3346Z" fill="#FFBA34"/>
</svg>
