<svg width="128" height="112" viewBox="0 0 128 112" fill="none" xmlns="http://www.w3.org/2000/svg">
<path d="M48.8401 54.5446C51.4122 53.4056 54.7303 50.1064 56.2927 47.6614C57.9709 45.0352 58.8028 41.7124 59.8342 38.7468C66.1586 20.5578 86.7183 5.89429 104.212 5.27976C112.812 4.97783 116.468 7.28484 124.27 1.54496C125.595 0.570203 126.565 -0.956399 127.998 0.813825C128.062 3.86949 126.457 8.33187 125.726 11.3955C124.102 18.2059 123.831 22.6776 121.42 29.583C118.968 36.6029 116.05 44.3342 111.972 50.4526C102.157 65.178 85.4275 72.7207 68.9645 69.2492C67.6515 68.9722 65.8656 68.6229 64.6865 67.986C64.2825 68.6331 63.9428 69.3336 63.5482 69.9897C63.6062 70.4942 63.6874 70.979 63.7933 71.4741C64.4058 72.8565 65.0423 74.0647 65.0783 75.6338C65.909 76.8469 67.1454 77.8748 68.1757 78.8914C71.7155 82.3837 74.6517 86.0159 76.2429 90.9543C77.0726 93.5293 77.5764 96.9257 79.4712 98.8544C81.166 100.579 84.6286 100.666 87.1455 102.639C88.5277 103.185 89.6632 103.879 88.8704 105.539C87.8496 106.082 86.386 105.895 85.2542 106.045C81.4326 106.55 77.703 108.489 74.0619 109.76C60.0135 114.665 42.0759 111.145 29.721 102.785C16.0869 93.5591 11.9977 76.5376 2.69909 63.5575C1.73265 62.2086 -1.47148 58.5825 0.794043 56.9532C1.81284 56.2207 2.909 56.9083 3.96852 57.1062C9.44994 58.1292 14.4135 54.7617 19.4499 53.0889C31.1248 49.2121 38.0772 51.9521 48.8401 54.5446Z" fill="black"/>
<path d="M5.24233 59.3662C6.48202 59.2334 7.74404 58.9701 8.9739 58.7478C9.68307 59.1371 13.3257 59.2772 14.4165 59.4444C19.9451 60.2925 23.3149 61.429 29.2348 61.639C29.4784 61.3721 29.6799 61.1358 29.8421 60.8016C32.4891 64.5909 31.5803 71.1224 29.4618 74.8758C28.2085 74.2495 27.0372 73.3218 25.8784 72.5119C19.1647 67.8195 12.3137 63.396 5.24233 59.3662Z" fill="#4FBD01"/>
<path d="M33.5048 64.3738C35.4049 65.1723 46.2447 70.0195 47.8082 68.1091C51.1484 72.2118 51.2627 82.9227 48.9031 87.6336C47.6241 87.0394 46.1121 85.9086 44.8694 85.1265C40.2716 82.2326 36.1009 79.2473 31.6393 76.2187C33.6221 73.0462 34.0715 68.0665 33.5048 64.3738Z" fill="#4FBD01"/>
<path d="M8.9739 58.7478C12.0777 57.9036 15.0558 56.6581 18.1187 55.6727C26.0469 53.1215 40.1339 52.5866 48.0003 56.4862C47.1167 56.6455 45.8788 57.8612 46.8066 58.4582C48.3788 59.4699 55.1413 55.7896 60.3337 60.5988C65.6891 65.5588 61.5121 70.9253 58.5136 69.7907C55.6986 68.2145 52.5059 67.6898 49.645 66.2864C49.1994 65.3888 48.5385 63.0498 47.586 62.7807C44.4626 61.8982 47.5603 67.6063 47.8082 68.1091C46.2447 70.0195 35.4049 65.1723 33.5048 64.3738L33.4146 64.1335C32.7193 62.3115 32.8996 60.1898 30.9251 59.4067C30.6301 59.526 30.3444 59.6703 30.0569 59.8091C29.9487 60.1154 29.7588 60.4723 29.8421 60.8016C29.6799 61.1358 29.4784 61.3721 29.2348 61.639C23.3149 61.429 19.9451 60.2925 14.4165 59.4444C13.3257 59.2772 9.68307 59.1371 8.9739 58.7478Z" fill="#FFBA34"/>
<path d="M60.6333 42.7807C62.2893 33.227 70.7103 23.8492 77.6556 18.3132C85.0507 12.4184 93.1641 8.6932 102.325 7.76798C108.463 7.14798 115 8.7036 120.852 6.09603C121.697 6.36401 121.562 6.22195 121.245 7.04341C119.796 8.96857 117.121 9.61458 115.052 10.3638C110.575 11.9854 104.17 13.7485 100.178 16.4828C99.2335 14.6794 97.4817 14.2346 97.14 16.3029C96.9378 17.5257 98.3199 19.568 97.3294 20.5277C94.2391 21.2183 85.6279 25.5449 84.4397 25.4719C84.3542 25.324 84.3734 25.3903 84.3522 25.286C84.7391 23.6713 84.4301 20.7117 82.5817 22.1104C81.5231 22.9116 82.1704 24.5948 82.1442 25.7185C74.6356 28.4941 67.9732 33.2483 62.9921 39.9692C62.5435 40.5747 61.3752 42.6515 60.6333 42.7807Z" fill="#FFBA34"/>
<path d="M49.645 66.2864C52.5059 67.6898 55.6986 68.2145 58.5136 69.7907C58.9158 70.2079 59.1256 70.7293 59.5714 71.1065C60.6512 71.0143 61.6627 70.7238 62.6807 70.3256C62.9016 70.8183 63.2234 71.3187 63.6054 71.6822L63.7421 71.6586L63.7933 71.4741C64.4058 72.8565 65.0423 74.0647 65.0783 75.6338C65.909 76.8469 67.1454 77.8748 68.1757 78.8914C71.7155 82.3837 74.6517 86.0159 76.2429 90.9543C77.0726 93.5293 77.5764 96.9257 79.4712 98.8544C81.166 100.579 84.6286 100.666 87.1455 102.639C86.4856 102.82 79.1928 102.117 78.5485 101.963C72.1739 100.439 66.1727 96.9252 60.3519 93.8575C57.2431 92.2192 54.0817 90.7473 51.154 88.7338C54.0333 83.6985 53.2563 76.3967 51.4778 71.1046C50.9437 69.5153 50.1524 68.0016 49.6778 66.3994L49.645 66.2864Z" fill="#4FBD01"/>
<path d="M84.3522 25.286C84.3734 25.3903 84.3542 25.324 84.4397 25.4719C85.6279 25.5449 94.2391 21.2183 97.3294 20.5277C96.1069 24.6832 98.7648 29.6071 101.891 31.9749C97.2399 36.4373 93.0206 40.5129 87.5906 43.9348C86.1139 44.8655 84.642 45.7113 83.2757 46.8353C80.7505 44.367 79.9539 47.4558 78.3528 48.6797C73.5906 52.3198 60.3317 56.6546 53.8784 55.552C57.7951 51.9981 63.3984 49.3807 68.2436 47.4613C68.3828 47.4063 71.1572 46.5177 70.4508 45.9169C68.7968 44.5102 57.8824 51.4783 55.1405 52.8308C57.9845 50.1351 59.4365 46.5708 60.6333 42.7807C61.3752 42.6515 62.5435 40.5747 62.9921 39.9692C67.9732 33.2483 74.6356 28.4941 82.1442 25.7185C82.1704 24.5948 81.5231 22.9116 82.5817 22.1104C84.4301 20.7117 84.7391 23.6713 84.3522 25.286Z" fill="#4FBD01"/>
<path d="M82.1442 25.7185C82.1704 24.5948 81.5231 22.9116 82.5817 22.1104C84.4301 20.7117 84.7391 23.6713 84.3522 25.286C84.0645 26.9391 86.3973 33.5349 87.377 34.7117C87.8493 35.2794 90.5312 38.8768 87.7883 37.9477C84.0042 36.6661 82.0469 29.5097 82.1442 25.7185Z" fill="black"/>
<path d="M2.3982 59.4308C7.01973 59.7702 25.9395 74.9067 31.1833 78.8269C40.3001 85.6425 48.8683 90.5916 58.6634 95.8237C64.9424 99.1777 71.521 102.906 78.3995 104.608C79.1018 104.777 79.8061 104.864 80.5197 104.952C79.8949 105.112 79.2611 105.256 78.6514 105.475C77.1036 106.054 75.5956 106.756 74.0435 107.325C64.5909 110.792 55.5254 110.334 45.9356 107.452C28.5782 102.235 21.8102 93.6905 12.8218 76.7027C10.6216 72.5444 8.5996 68.2852 5.85974 64.5014C4.69719 62.8959 3.00245 61.3951 2.3982 59.4308Z" fill="#4FBD01"/>
<path d="M120.852 6.09603C122.322 5.33013 123.713 4.40354 125.17 3.63983C125.195 3.83391 125.076 4.00828 125.001 4.18456C123.452 9.61239 123.11 15.4379 121.807 20.9493C120.606 26.0284 119.052 29.5091 117.135 34.2466C111.787 47.4616 106.697 56.2746 94.8261 63.0673C86.4954 67.8343 74.3663 69.3245 65.3883 65.9708C65.2768 62.4191 63.1691 59.2471 60.2505 57.724C66.3001 56.7528 77.1255 53.2348 82.6897 49.8734C83.6012 47.8864 87.0575 47.5669 88.7319 47.9619C89.2274 48.0788 89.9925 48.3416 90.4837 48.2992C89.4181 47.8108 88.1111 47.4386 86.9624 47.3209C89.5542 45.532 92.0828 44.0446 94.5994 42.0559C99.9031 37.8648 103.911 33.6036 108.317 28.4961C110.693 25.742 124.794 8.64392 124.382 5.05475C124.042 5.66134 123.672 6.20908 123.256 6.75737C118.282 14.0583 110.612 24.8987 103.733 30.2496C97.053 25.2723 101.081 20.2671 100.178 16.4828C104.17 13.7485 110.575 11.9854 115.052 10.3638C117.121 9.61458 119.796 8.96857 121.245 7.04341C121.562 6.22195 121.697 6.36401 120.852 6.09603Z" fill="#4FBD01"/>
</svg>
