<svg width="64" height="72" viewBox="0 0 64 72" fill="none" xmlns="http://www.w3.org/2000/svg">
<path d="M44.0752 63.6327C47.7519 63.7452 61.3166 64.8296 63.6957 67.0724C63.872 67.2386 64.0123 67.4499 63.9991 67.6906C63.9814 68.0154 63.71 68.3095 63.4533 68.5078C61.9701 69.6532 58.671 70.2021 56.7769 70.5218C48.7453 71.877 40.5503 72.1543 32.4027 71.9305C30.5784 71.8804 28.7539 71.8517 26.9317 71.7503C25.2415 71.6562 23.5501 71.4891 21.8668 71.321C19.3623 71.0708 10.7402 70.0046 9.26289 68.2928C8.97972 67.9648 8.94272 67.5256 8.93965 67.1219C9.58969 67.3703 10.2056 67.6769 10.8705 67.898C13.4596 68.7592 16.2524 69.1111 18.9781 69.3673C21.536 69.5974 24.0997 69.694 26.6692 69.6573C30.5778 69.6209 40.0162 69.2006 43.0183 66.9033C44.0453 66.1174 43.9666 64.7628 44.0752 63.6327Z" fill="#298071"/>
<path d="M8.93965 67.1219C8.68713 66.9746 8.42182 66.7987 8.22484 66.5892C8.11567 66.474 8.02678 66.3467 7.95814 66.2073C7.58492 65.4507 7.41204 62.691 7.2962 61.665C7.14273 60.316 6.98152 58.9678 6.81258 57.6203L1.80575 18.8964L0.470453 8.75413L0.170128 6.50882C0.0929642 5.94326 -0.0427168 5.33487 0.013123 4.7649C0.064202 4.2428 0.401025 3.8542 0.822749 3.52942C2.37654 2.33282 4.67787 1.91965 6.61203 1.53362C11.3164 0.594955 16.03 0.263941 20.8276 0.0999013C23.4203 -0.00126728 26.0138 -0.0255971 28.6082 0.0269127C31.2027 0.0794837 33.7926 0.208802 36.378 0.414869C39.8977 0.710489 48.7536 1.44725 50.9824 4.02054C51.2872 4.37246 51.4481 4.7914 51.4219 5.24254C51.3737 6.07282 51.2277 6.89706 51.1149 7.72138L50.5896 11.6328L48.761 25.6142L45.719 50.3186C45.1785 54.7559 44.6722 59.2019 44.0752 63.6327C43.9666 64.7628 44.0453 66.1174 43.0183 66.9033C40.0162 69.2006 30.5778 69.6209 26.6692 69.6573C24.0997 69.694 21.536 69.5974 18.9781 69.3673C16.2524 69.1111 13.4596 68.7592 10.8705 67.898C10.2056 67.6769 9.58969 67.3703 8.93965 67.1219Z" fill="#4D4D4D"/>
<path d="M9.0554 62.7176L9.07216 62.5723C9.27776 62.5146 9.60695 62.695 9.8067 62.7747C10.8432 63.1881 11.8806 63.4866 12.9695 63.7548L12.8568 63.9747C11.9475 63.7267 11.0521 63.4741 10.1667 63.1593C9.78905 63.0257 9.42297 62.8734 9.0554 62.7176Z" fill="#FEFEFD"/>
<path d="M45.8287 3.15385C46.7395 3.41765 49.3084 4.10755 49.7837 4.89401C49.8166 4.94838 49.8249 4.99606 49.8267 5.05741L49.8109 5.09702C49.3454 4.96727 48.9635 4.6369 48.5306 4.4382C47.6128 4.01696 46.5012 3.71923 45.4962 3.52649C45.6831 3.41673 45.7408 3.33907 45.8287 3.15385Z" fill="#BAEAE0"/>
<path d="M41.5907 8.7069C42.2204 8.51499 43.0054 8.54048 43.666 8.4233C45.5947 8.08128 47.4037 7.6649 49.2307 6.9904L49.2709 7.10593C48.6327 7.23687 47.9159 7.69809 47.3112 7.9441C46.1 8.43686 44.8091 8.71846 43.5109 8.92899C42.832 8.96392 41.5338 9.1694 40.8984 9.01288C41.0972 8.95347 41.3795 8.90065 41.5317 8.7632C41.552 8.74496 41.571 8.7257 41.5907 8.7069Z" fill="#BAEAE0"/>
<path d="M1.8845 7.07687C1.97604 7.07843 2.04745 7.08585 2.13513 7.05844C2.79737 12.1851 3.59212 17.2987 4.20368 22.432L3.96297 22.7335C3.56683 20.394 3.33435 18.0094 3.02014 15.6576C2.63878 12.8023 2.18463 9.93963 1.8845 7.07687Z" fill="#FEFEFD"/>
<path d="M9.0554 62.7176C9.42297 62.8734 9.78905 63.0257 10.1667 63.1593C11.0521 63.4741 11.9475 63.7267 12.8568 63.9747C13.2064 64.555 13.1918 65.5724 13.3311 66.2472L13.3453 66.3466L13.2626 66.4243C11.8136 66.0665 10.6814 65.6761 9.35532 65.0213C9.27647 64.2513 9.19772 63.4802 9.0554 62.7176Z" fill="#06A975"/>
<path d="M9.0554 62.7176C9.42297 62.8734 9.78905 63.0257 10.1667 63.1593C10.1632 63.8255 10.2892 64.488 10.3921 65.1459C11.0647 65.4701 12.6116 66.1609 13.2842 66.2686L13.3311 66.2472L13.3453 66.3466L13.2626 66.4243C11.8136 66.0665 10.6814 65.6761 9.35532 65.0213C9.27647 64.2513 9.19772 63.4802 9.0554 62.7176Z" fill="#7EDCC5"/>
<path d="M12.9695 63.7548C15.3939 64.2576 17.9154 64.6846 20.3979 64.8473C20.5338 65.725 20.469 66.6197 20.5981 67.4945C19.333 67.4601 18.0089 67.2194 16.7624 67.0254C15.5978 66.8441 14.4105 66.6801 13.2626 66.4243L13.3453 66.3466L13.3311 66.2472C13.1918 65.5724 13.2064 64.555 12.8568 63.9747L12.9695 63.7548Z" fill="#BAEAE0"/>
<path d="M42.4756 2.9689C43.4897 3.12872 44.4893 3.33439 45.4962 3.52649C46.5012 3.71923 47.6128 4.01696 48.5306 4.4382C48.9635 4.6369 49.3454 4.96727 49.8109 5.09702C47.6022 6.60199 44.4089 6.91264 41.7651 7.27126C40.8563 7.39449 39.8742 7.58971 38.9575 7.56816L38.9916 7.54964C39.4342 7.30408 39.9385 7.15462 40.4141 6.97188C41.3516 6.61152 42.3298 5.9936 42.7129 5.08391C43.0213 4.35118 42.7761 3.7074 42.4545 3.03199L42.4756 2.9689Z" fill="#06A975"/>
<path d="M49.2307 6.9904L49.6435 6.77795C46.9981 26.415 44.5038 46.0686 42.1605 65.7386C41.437 66.1086 40.7152 66.426 39.9275 66.6669C38.832 67.0018 37.6951 67.196 36.562 67.3854C31.6442 68.207 26.442 68.4098 21.4562 68.0944C18.3206 67.896 15.0409 67.508 12.0124 66.698C11.1976 66.4801 9.89984 66.0763 9.46542 65.3399C9.40472 65.237 9.38022 65.1351 9.35532 65.0213C10.6814 65.6761 11.8136 66.0665 13.2626 66.4243C14.4105 66.6801 15.5978 66.8441 16.7624 67.0254C18.0089 67.2194 19.333 67.4601 20.5981 67.4945C22.2422 67.654 23.8803 67.6334 25.5308 67.6336C30.2864 67.634 37.5596 67.4249 41.7689 65.2918C41.8323 64.5159 41.9221 63.7426 42.0383 62.9719L42.1001 62.5948C42.3834 61.5072 42.3979 60.2987 42.5348 59.1848L43.4425 51.9794L45.6273 34.9203C46.1305 30.8839 46.5529 26.8447 47.2037 22.8249C47.2479 22.6591 47.2595 22.5458 47.2347 22.376C47.1877 21.7784 47.3679 21.0959 47.4542 20.5006L47.8934 17.3698L48.6543 11.4973C48.8406 10.0293 49.0082 8.56469 49.2709 7.10593L49.2307 6.9904Z" fill="#FEFEFD"/>
<path d="M2.13513 7.05844C2.26863 7.07668 2.38031 7.10098 2.50766 7.14206C3.377 7.72661 4.38499 8.0457 5.39794 8.34636C5.51339 9.54095 5.71235 10.7364 5.87779 11.9264C6.17276 14.0066 6.45612 16.0881 6.72788 18.1711C6.81364 18.8224 6.90571 19.4731 7.0041 20.1229C7.06262 20.518 7.15357 20.9324 7.15853 21.3308L7.15526 21.6163C7.13661 21.5489 7.12758 21.4192 7.05627 21.389C6.63485 21.2098 5.40359 21.7807 5.00924 21.9546C4.71507 22.0844 4.44053 22.2205 4.20368 22.432C3.59212 17.2987 2.79737 12.1851 2.13513 7.05844Z" fill="#43B397"/>
<path d="M20.3979 64.8473C21.9068 65.0819 23.5299 65.0639 25.058 65.0664C31.0119 65.076 36.2983 64.4181 42.0383 62.9719C41.9221 63.7426 41.8323 64.5159 41.7689 65.2918C37.5596 67.4249 30.2864 67.634 25.5308 67.6336C23.8803 67.6334 22.2422 67.654 20.5981 67.4945C20.469 66.6197 20.5338 65.725 20.3979 64.8473Z" fill="#43B397"/>
<path d="M1.5691 4.81983C1.73573 4.68516 1.91032 4.56 2.09288 4.44434C2.27538 4.32869 2.46462 4.2233 2.6606 4.12818C3.99054 3.48725 5.53214 3.18117 6.98744 2.88775C12.6676 1.7425 18.6392 1.45467 24.4402 1.41635C26.7911 1.38193 29.141 1.41341 31.4898 1.51079C33.8386 1.60811 36.1821 1.77111 38.5202 1.99979C40.9582 2.23884 43.4819 2.46431 45.8287 3.15385C45.7408 3.33907 45.6831 3.41673 45.4962 3.52649C44.4893 3.33439 43.4897 3.12872 42.4756 2.9689C41.874 2.77286 41.1898 2.75296 40.5589 2.68575C39.6371 2.58416 38.7141 2.49234 37.79 2.4103C33.9156 2.05197 30.0317 1.8558 26.1382 1.82181C25.3736 1.81448 24.6096 1.86995 23.8451 1.88215C23.0938 1.89425 22.3409 1.87234 21.59 1.8926C19.1267 1.95936 16.6524 2.13339 14.1973 2.32714C11.2539 2.55949 8.37451 2.83833 5.51855 3.58068C4.86424 3.75077 4.17254 3.9083 3.55811 4.1799C3.37888 4.25912 3.2073 4.35302 3.03859 4.44975L3.11982 4.43517C4.06453 4.26178 4.98604 3.94947 5.92996 3.75123C7.28076 3.46252 8.64108 3.21913 10.0109 3.02108C11.3807 2.82296 12.7564 2.67068 14.1381 2.56426C14.2888 3.32862 14.3428 4.11498 14.4205 4.88814C14.5127 5.85178 14.6237 6.81355 14.7536 7.77346C11.4374 7.47647 4.05084 6.78721 1.5691 4.81983Z" fill="#7EDCC5"/>
<path d="M43.5109 8.92899C44.8091 8.71846 46.1 8.43686 47.3112 7.9441C47.9159 7.69809 48.6327 7.23687 49.2709 7.10593C49.0082 8.56469 48.8406 10.0293 48.6543 11.4973L47.8934 17.3698L47.4542 20.5006C47.3679 21.0959 47.1877 21.7784 47.2347 22.376C46.8064 22.2248 46.4232 21.912 45.9906 21.7444C44.7726 21.2729 43.3328 21.1688 42.032 20.9904C42.3109 20.1582 42.4254 18.3266 42.5386 17.3833L43.5109 8.92899Z" fill="#06A975"/>
<path d="M1.8845 7.07687C1.86764 6.98407 1.86823 6.91402 1.88162 6.82077L1.97129 6.76126C2.17074 6.75832 2.37535 6.87459 2.55378 6.95051C5.73119 8.3161 11.5007 8.8968 15.0276 9.17665C15.2627 11.9081 15.5277 14.6371 15.8226 17.3636C15.8862 17.9812 15.9434 18.5993 15.9942 19.2179C16.0228 19.5767 16.0166 19.9649 16.0985 20.316L16.0548 20.3334C15.2567 20.2369 14.3656 20.3625 13.5668 20.4336C11.4447 20.6226 9.22778 20.843 7.15853 21.3308C7.15357 20.9324 7.06262 20.518 7.0041 20.1229C6.90571 19.4731 6.81364 18.8224 6.72788 18.1711C6.45612 16.0881 6.17276 14.0066 5.87779 11.9264C5.71235 10.7364 5.51339 9.54095 5.39794 8.34636C4.38499 8.0457 3.377 7.72661 2.50766 7.14206C2.38031 7.10098 2.26863 7.07668 2.13513 7.05844C2.04745 7.08585 1.97604 7.07843 1.8845 7.07687Z" fill="#BAEAE0"/>
<path d="M3.03859 4.44975C3.2073 4.35302 3.37888 4.25912 3.55811 4.1799C4.17254 3.9083 4.86424 3.75077 5.51855 3.58068C8.37451 2.83833 11.2539 2.55949 14.1973 2.32714C16.6524 2.13339 19.1267 1.95936 21.59 1.8926C22.3409 1.87234 23.0938 1.89425 23.8451 1.88215C24.6096 1.86995 25.3736 1.81448 26.1382 1.82181C30.0317 1.8558 33.9156 2.05197 37.79 2.4103C38.7141 2.49234 39.6371 2.58416 40.5589 2.68575C41.1898 2.75296 41.874 2.77286 42.4756 2.9689L42.4545 3.03199C42.7761 3.7074 43.0213 4.35118 42.7129 5.08391C42.3298 5.9936 41.3516 6.61152 40.4141 6.97188C39.9385 7.15462 39.4342 7.30408 38.9916 7.54964L38.9575 7.56816C32.5239 8.28869 25.7075 8.33554 19.2322 8.04918C17.765 7.98427 16.1988 8.03461 14.7536 7.77346C14.6237 6.81355 14.5127 5.85178 14.4205 4.88814C14.3428 4.11498 14.2888 3.32862 14.1381 2.56426C12.7564 2.67068 11.3807 2.82296 10.0109 3.02108C8.64108 3.21913 7.28076 3.46252 5.92996 3.75123C4.98604 3.94947 4.06453 4.26178 3.11982 4.43517L3.03859 4.44975Z" fill="#43B397"/>
<path d="M47.2037 22.8249C46.5529 26.8447 46.1305 30.8839 45.6273 34.9203L43.4425 51.9794L42.5348 59.1848C42.3979 60.2987 42.3834 61.5072 42.1001 62.5948C40.6914 62.8913 39.3173 63.3037 37.8993 63.5701C37.2773 63.6859 36.6535 63.7929 36.0279 63.8909C35.4024 63.989 34.7753 64.0781 34.1468 64.1581C33.5182 64.2383 32.8885 64.3094 32.2576 64.3715C31.6266 64.4336 30.9948 64.4867 30.3622 64.5308C29.7295 64.5749 29.0962 64.6099 28.4622 64.6358C27.8284 64.6618 27.1943 64.6786 26.5598 64.6865C25.9254 64.6944 25.291 64.6931 24.6566 64.6828C24.0222 64.6725 23.3882 64.6532 22.7544 64.6248C21.8867 64.5812 20.9999 64.5473 20.1383 64.445C20.2295 64.4272 20.2911 64.3977 20.3737 64.3592C21.033 64.2242 21.7749 64.281 22.4504 64.1767C24.6535 63.8363 26.8227 63.0386 28.7442 61.9957C33.5356 59.3955 36.7978 54.4227 38.1588 49.5378C38.4471 48.4925 38.6739 47.436 38.8392 46.3682C39.0592 44.9621 39.2068 43.5418 39.3859 42.1304L41.2125 27.7465C41.3238 26.838 41.4822 25.9222 41.5531 25.0114C41.5661 24.8441 41.5792 24.7468 41.4864 24.6012C43.5573 24.2836 45.4509 23.9656 47.2037 22.8249Z" fill="#B1BC92"/>
<path d="M15.0276 9.17665C16.3205 9.22369 17.6154 9.3891 18.9113 9.44614C22.8499 9.63784 26.7897 9.66315 30.7307 9.52206C32.9963 9.44363 35.258 9.30847 37.5157 9.11659C38.8726 8.99418 40.2303 8.77907 41.5907 8.7069C41.571 8.7257 41.552 8.74496 41.5317 8.7632C41.3795 8.90065 41.0972 8.95347 40.8984 9.01288C41.5338 9.1694 42.832 8.96392 43.5109 8.92899L42.5386 17.3833C42.4254 18.3266 42.3109 20.1582 42.032 20.9904C43.3328 21.1688 44.7726 21.2729 45.9906 21.7444C46.4232 21.912 46.8064 22.2248 47.2347 22.376C47.2595 22.5458 47.2479 22.6591 47.2037 22.8249C45.4509 23.9656 43.5573 24.2836 41.4864 24.6012C41.1295 24.6493 40.7437 24.7331 40.3853 24.7444C38.6988 25.0219 36.9598 25.1794 35.2543 25.3097C34.5056 25.3668 33.7213 25.4552 32.9706 25.453L33.0035 25.402L32.9584 25.3409C32.7862 25.324 32.6157 25.3166 32.4427 25.3112C31.2788 25.3606 30.0972 25.3212 28.938 25.4113C28.418 25.4088 27.8847 25.429 27.3687 25.3667C25.3356 25.4371 23.0225 25.3726 20.9804 25.2975C20.8568 25.2526 17.0903 25.055 16.5795 25.0284C16.1726 24.8557 13.9761 24.8297 13.3562 24.7799C11.3959 24.6224 9.44211 24.2635 7.51767 23.891L7.49396 23.8626C6.74236 23.6226 5.39724 23.5092 4.81177 22.981C4.73719 22.9137 4.68095 22.8379 4.70188 22.7368C4.83141 22.1142 6.80901 21.9525 7.13105 21.6471C7.14068 21.638 7.14722 21.6265 7.15526 21.6163L7.15853 21.3308C9.22778 20.843 11.4447 20.6226 13.5668 20.4336C14.3656 20.3625 15.2567 20.2369 16.0548 20.3334L16.0985 20.316C16.0166 19.9649 16.0228 19.5767 15.9942 19.2179C15.9434 18.5993 15.8862 17.9812 15.8226 17.3636C15.5277 14.6371 15.2627 11.9081 15.0276 9.17665Z" fill="#7EDCC5"/>
<path d="M25.7596 20.0339C24.9838 19.9859 24.2054 20.0224 23.4292 19.9889C23.5212 19.9153 24.2576 19.9517 24.4539 19.948C28.1258 19.8789 31.7617 20.0369 35.4238 20.2811C37.6237 20.4278 39.8591 20.6361 42.032 20.9904C43.3328 21.1688 44.7726 21.2729 45.9906 21.7444C46.4232 21.912 46.8064 22.2248 47.2347 22.376C47.2595 22.5458 47.2479 22.6591 47.2037 22.8249C45.4509 23.9656 43.5573 24.2836 41.4864 24.6012C41.1295 24.6493 40.7437 24.7331 40.3853 24.7444C38.6988 25.0219 36.9598 25.1794 35.2543 25.3097C34.5056 25.3668 33.7213 25.4552 32.9706 25.453L33.0035 25.402L32.9584 25.3409C32.7862 25.324 32.6157 25.3166 32.4427 25.3112C32.7541 25.2489 33.1147 25.2611 33.4355 25.2404L35.6831 25.0891C37.2249 24.9792 38.7626 24.7874 40.296 24.6039C40.7009 24.4609 41.3003 24.4327 41.7339 24.3614C42.982 24.1559 45.3026 23.7271 46.2955 23.0899C46.4593 22.9847 46.551 22.8869 46.5822 22.701C46.5653 22.613 46.5426 22.5499 46.4826 22.4799C45.8714 21.768 43.1995 21.335 42.1936 21.2175C40.6816 20.9927 39.1677 20.7627 37.6461 20.6008C33.6926 20.1804 29.736 20.0469 25.7596 20.0339Z" fill="#4D4D4D"/>
<path d="M42.1936 21.2175C43.1995 21.335 45.8714 21.768 46.4826 22.4799C46.5426 22.5499 46.5653 22.613 46.5822 22.701C46.551 22.8869 46.4593 22.9847 46.2955 23.0899C45.3026 23.7271 42.982 24.1559 41.7339 24.3614C41.3003 24.4327 40.7009 24.4609 40.296 24.6039C38.7626 24.7874 37.2249 24.9792 35.6831 25.0891L33.4355 25.2404C33.1147 25.2611 32.7541 25.2489 32.4427 25.3112C31.2788 25.3606 30.0972 25.3212 28.938 25.4113C28.418 25.4088 27.8847 25.429 27.3687 25.3667C27.6259 25.3362 27.8892 25.3604 28.1491 25.3308C28.5702 25.2828 28.9856 25.1984 29.4076 25.1508C32.3861 24.815 35.0545 24.5432 38.0034 23.9188C39.4765 23.6069 41.4224 23.1455 42.2769 21.8876C42.2342 21.6667 42.2175 21.4408 42.1936 21.2175Z" fill="#EEEDDF"/>
<path d="M25.7596 20.0339C29.736 20.0469 33.6926 20.1804 37.6461 20.6008C39.1677 20.7627 40.6816 20.9927 42.1936 21.2175C42.2175 21.4408 42.2342 21.6667 42.2769 21.8876C41.4224 23.1455 39.4765 23.6069 38.0034 23.9188C35.0545 24.5432 32.3861 24.815 29.4076 25.1508C28.9856 25.1984 28.5702 25.2828 28.1491 25.3308C27.8892 25.3604 27.6259 25.3362 27.3687 25.3667C25.3356 25.4371 23.0225 25.3726 20.9804 25.2975C20.8568 25.2526 17.0903 25.055 16.5795 25.0284C16.1726 24.8557 13.9761 24.8297 13.3562 24.7799C11.3959 24.6224 9.44211 24.2635 7.51767 23.891L7.49396 23.8626C6.74236 23.6226 5.39724 23.5092 4.81177 22.981C4.73719 22.9137 4.68095 22.8379 4.70188 22.7368C4.83141 22.1142 6.80901 21.9525 7.13105 21.6471C7.14068 21.638 7.14722 21.6265 7.15526 21.6163L7.15853 21.3308C9.22778 20.843 11.4447 20.6226 13.5668 20.4336C14.3656 20.3625 15.2567 20.2369 16.0548 20.3334L16.0985 20.316C16.6941 20.3206 17.2975 20.2468 17.8919 20.2099C18.948 20.1442 20.0126 20.083 21.0703 20.0481C22.6306 19.9969 24.2005 20.1073 25.7596 20.0339Z" fill="#FEFEFD"/>
<path d="M7.15853 21.3308C9.22778 20.843 11.4447 20.6226 13.5668 20.4336C14.3656 20.3625 15.2567 20.2369 16.0548 20.3334C14.5032 20.5737 8.07944 21.156 7.2587 21.6891C7.1985 22.2871 7.60971 23.1937 7.49396 23.8626C6.74236 23.6226 5.39724 23.5092 4.81177 22.981C4.73719 22.9137 4.68095 22.8379 4.70188 22.7368C4.83141 22.1142 6.80901 21.9525 7.13105 21.6471C7.14068 21.638 7.14722 21.6265 7.15526 21.6163L7.15853 21.3308Z" fill="#EEEDDF"/>
<path d="M3.95573 22.9733C4.6743 23.521 6.5063 24.1728 7.4409 24.2227C7.53939 24.131 7.51073 24.0169 7.51767 23.891C9.44211 24.2635 11.3959 24.6224 13.3562 24.7799C13.9761 24.8297 16.1726 24.8557 16.5795 25.0284C17.0903 25.055 20.8568 25.2526 20.9804 25.2975C23.0225 25.3726 25.3356 25.4371 27.3687 25.3667C27.8847 25.429 28.418 25.4088 28.938 25.4113C30.0972 25.3212 31.2788 25.3606 32.4427 25.3112C32.6157 25.3166 32.7862 25.324 32.9584 25.3409L33.0035 25.402L32.9706 25.453C33.7213 25.4552 34.5056 25.3668 35.2543 25.3097C36.9598 25.1794 38.6988 25.0219 40.3853 24.7444C40.7437 24.7331 41.1295 24.6493 41.4864 24.6012C41.5792 24.7468 41.5661 24.8441 41.5531 25.0114C41.4822 25.9222 41.3238 26.838 41.2125 27.7465L39.3859 42.1304C39.2068 43.5418 39.0592 44.9621 38.8392 46.3682C38.6739 47.436 38.4471 48.4925 38.1588 49.5378C36.7978 54.4227 33.5356 59.3955 28.7442 61.9957C26.8227 63.0386 24.6535 63.8363 22.4504 64.1767C21.7749 64.281 21.033 64.2242 20.3737 64.3592C20.2911 64.3977 20.2295 64.4272 20.1383 64.445C17.6949 64.1804 15.1754 63.9128 12.7894 63.3497C11.5031 63.1856 10.1019 62.595 8.95294 62.06C8.84602 60.1092 8.47895 58.1347 8.22722 56.1935L6.90998 45.9516C5.90109 38.2972 5.09464 30.612 3.95573 22.9733Z" fill="#EEEDDF"/>
<path d="M28.938 25.4113C30.0972 25.3212 31.2788 25.3606 32.4427 25.3112C32.6157 25.3166 32.7862 25.324 32.9584 25.3409L33.0035 25.402L32.9706 25.453C31.4496 25.522 29.8537 25.6583 28.3347 25.5941C28.2119 25.5848 28.0992 25.5705 27.9784 25.5459C28.22 25.4844 28.5669 25.5482 28.826 25.5335C28.5971 25.4695 28.3373 25.4904 28.0994 25.4892C28.2085 25.4242 28.7282 25.4494 28.895 25.4195C28.9094 25.417 28.9236 25.414 28.938 25.4113Z" fill="#4D4D4D"/>
<path d="M16.5795 25.0284C17.0903 25.055 20.8568 25.2526 20.9804 25.2975C20.8748 25.3227 20.8824 25.3527 20.8256 25.4341C21.0098 25.5744 21.3683 25.5546 21.6029 25.5665C21.7013 25.5715 21.6597 25.568 21.7638 25.5834C20.1192 25.6699 18.2376 25.5067 16.5941 25.3771C16.5255 25.2374 16.5551 25.1774 16.5795 25.0284Z" fill="#676366"/>
<path d="M20.9804 25.2975C23.0225 25.3726 25.3356 25.4371 27.3687 25.3667C27.8847 25.429 28.418 25.4088 28.938 25.4113C28.9236 25.414 28.9094 25.417 28.895 25.4195C28.7282 25.4494 28.2085 25.4242 28.0994 25.4892C28.3373 25.4904 28.5971 25.4695 28.826 25.5335C28.5669 25.5482 28.22 25.4844 27.9784 25.5459C28.0992 25.5705 28.2119 25.5848 28.3347 25.5941C27.7142 25.7007 26.9862 25.6367 26.3518 25.6369C24.822 25.6484 23.2927 25.6305 21.7638 25.5834C21.6597 25.568 21.7013 25.5715 21.6029 25.5665C21.3683 25.5546 21.0098 25.5744 20.8256 25.4341C20.8824 25.3527 20.8748 25.3227 20.9804 25.2975Z" fill="#4D4D4D"/>
<path d="M7.71603 24.3186C10.0294 24.7908 12.3991 25.0141 14.7474 25.2781C15.2641 25.3362 16.0305 25.2581 16.4919 25.3958C16.7952 27.9524 17.0114 30.5208 17.277 33.0815L20.0569 60.8298C20.1598 61.9101 20.1937 63.3289 20.3737 64.3592C20.2911 64.3977 20.2295 64.4272 20.1383 64.445C17.6949 64.1804 15.1754 63.9128 12.7894 63.3497C12.6617 62.6852 12.6282 62.0049 12.5414 61.3344L9.45718 38.1635L8.39494 29.9942C8.14064 28.1864 7.68737 26.1143 7.71603 24.3186Z" fill="#FEFEFD"/>
</svg>
