<svg width="24" height="24" viewBox="0 0 24 24" fill="none" xmlns="http://www.w3.org/2000/svg">
<path d="M18.1538 0H5.84615C2.62277 0 0 2.76454 0 6.16216V23.027C0 23.4201 0.225243 23.7756 0.569859 23.9261C0.68432 23.9766 0.803692 24 0.923077 24C1.16308 24 1.39938 23.9014 1.57538 23.7146L4.54646 20.5829C4.83692 20.2768 5.22338 20.1081 5.63446 20.1081H18.1538C21.3772 20.1081 24 17.3436 24 13.9459V6.16216C24 2.76454 21.3772 0 18.1538 0ZM22.1538 13.9459C22.1538 16.2707 20.3594 18.1622 18.1538 18.1622H5.6357C4.73109 18.1622 3.88185 18.5332 3.24185 19.2078L1.84615 20.6788V6.16216C1.84615 3.83741 3.64062 1.94595 5.84615 1.94595H18.1538C20.3594 1.94595 22.1538 3.83741 22.1538 6.16216V13.9459Z" fill="#4FBD01"/>
</svg>
