<svg width="34" height="26" viewBox="0 0 34 26" fill="none" xmlns="http://www.w3.org/2000/svg">
<path fill-rule="evenodd" clip-rule="evenodd" d="M9.77176 7.48204C9.82938 6.64477 10.444 5.90367 11.4629 5.36587C12.8205 4.64937 14.909 4.24194 16.9985 4.20171C19.0931 4.1614 21.1863 4.49129 22.5472 5.21609C23.5622 5.75662 24.1815 6.53154 24.2376 7.4843C24.6678 9.81092 25.1894 13.8543 25.8177 18.0756C25.8515 18.303 25.7203 18.5197 25.525 18.559C25.3296 18.5984 25.1436 18.4458 25.1098 18.2184C24.4807 13.9915 23.9594 9.94365 23.5296 7.62956L23.522 7.56268C23.4914 6.86869 22.9843 6.36856 22.2483 5.97659C20.9643 5.29277 18.9867 4.99989 17.0104 5.03795C15.0292 5.0761 13.0468 5.4482 11.7596 6.12759C11.364 6.33644 11.0373 6.57195 10.8076 6.8408C10.6198 7.06067 10.5003 7.2991 10.4869 7.56569L10.4794 7.62956C9.88854 10.8112 8.5557 18.8564 7.47608 24.6702C7.43416 24.8958 7.24285 25.0393 7.04903 24.9905C6.85522 24.9417 6.73189 24.719 6.77381 24.4934C7.85019 18.6971 9.17826 10.6827 9.77176 7.48204Z" fill="#EF2D45"/>
<path d="M9.77293 9.52539C9.77293 9.52539 1.66349 6.83562 1.35938 15.9214C1.35938 15.9214 5.09933 18.3729 8.90056 14.5808L9.77293 9.52539Z" fill="white"/>
<path fill-rule="evenodd" clip-rule="evenodd" d="M10.125 9.60768C10.1619 9.39384 10.0514 9.18292 9.87122 9.1231C9.87122 9.1231 6.37145 7.97552 3.78095 9.66232C2.31685 10.6157 1.11576 12.4523 1.00028 15.905C0.995015 16.0617 1.0655 16.2086 1.18292 16.2856C1.18292 16.2856 2.96668 17.4635 5.35794 17.0183C6.51784 16.8023 7.82325 16.206 9.13415 14.8981C9.19509 14.8373 9.23677 14.7545 9.25263 14.663L10.125 9.60768ZM9.35273 9.83584C8.48578 9.61343 6.03771 9.15117 4.13176 10.3923C2.87612 11.2099 1.88139 12.7873 1.72982 15.6674C2.21464 15.9224 3.56051 16.5059 5.24448 16.1924C6.26875 16.0017 7.41562 15.4777 8.57285 14.3552L9.35273 9.83584Z" fill="#EF2D45"/>
<path d="M24.2272 9.52539C24.2272 9.52539 32.3367 6.83562 32.6408 15.9214C32.6408 15.9214 28.9008 18.3729 25.0996 14.5808L24.2272 9.52539Z" fill="white"/>
<path fill-rule="evenodd" clip-rule="evenodd" d="M24.1287 9.12307C23.9485 9.18289 23.838 9.39381 23.8749 9.60765L24.7473 14.6629C24.7631 14.7545 24.8048 14.8373 24.8657 14.8981C26.1767 16.206 27.4821 16.8023 28.642 17.0183C31.0333 17.4635 32.8169 16.2856 32.8169 16.2856C32.9343 16.2086 33.0049 16.0617 32.9997 15.905C32.8841 12.4523 31.6831 10.6157 30.2189 9.66229C27.6284 7.9755 24.1287 9.12307 24.1287 9.12307ZM32.27 15.6673C32.1185 12.7873 31.1238 11.2099 29.8682 10.3923C27.9621 9.15115 25.5141 9.6134 24.6471 9.83581L25.427 14.3552C26.5843 15.4777 27.7312 16.0017 28.7554 16.1924C30.4394 16.5059 31.7852 15.9223 32.27 15.6673Z" fill="#EF2D45"/>
<path fill-rule="evenodd" clip-rule="evenodd" d="M16.9939 5.01441C15.4389 5.11294 13.8074 5.30955 12.5413 5.76087C11.9198 5.98243 11.3894 6.26222 11.0143 6.633C10.744 6.90016 10.5593 7.21376 10.501 7.59217C10.5002 7.59697 10.4994 7.60187 10.4985 7.60668L10.2562 8.91166C10.2297 9.0541 10.1414 9.17025 10.0232 9.2182C9.90496 9.26615 9.77386 9.23902 9.67708 9.14651C8.1488 7.68609 7.51783 6.37083 7.35525 5.26734C6.96616 2.62562 9.23256 1.05733 9.23256 1.05733C9.33978 0.98423 9.47177 0.980839 9.58175 1.04829C9.69164 1.11574 9.76375 1.24451 9.77249 1.38874C9.8454 2.59133 10.7913 3.23737 11.9142 3.6366C13.8009 4.30742 16.2379 4.22084 16.8532 4.1858L17.0045 4.176C17.2016 4.16376 17.3702 4.33888 17.3822 4.56826C17.3942 4.79755 17.245 4.99519 17.0481 5.01083L17.0428 5.0112L17.038 5.01149L17.0036 5.01394L16.9939 5.01441ZM9.1734 2.13407C8.64957 2.6422 7.85011 3.67786 8.06343 5.12604C8.18886 5.97735 8.65815 6.95112 9.68201 8.0451L9.79539 7.43429C9.94478 6.4899 10.5914 5.77943 11.5658 5.28609C11.9739 5.07941 12.4414 4.90899 12.9482 4.76826C12.1995 4.6196 11.4593 4.39352 10.8375 4.05345C10.0341 3.61399 9.42346 2.98849 9.1734 2.13407Z" fill="#EF2D45"/>
<path fill-rule="evenodd" clip-rule="evenodd" d="M17.1942 4.1858C17.8095 4.22084 20.2465 4.30742 22.1332 3.6366C23.256 3.23737 24.202 2.59133 24.2749 1.38874C24.2836 1.24451 24.3557 1.11574 24.4656 1.04829C24.5756 0.980839 24.7076 0.98423 24.8148 1.05733C24.8148 1.05733 27.0812 2.62562 26.6921 5.26734C26.5296 6.37083 25.8986 7.68609 24.3703 9.14651C24.2735 9.23902 24.1424 9.26615 24.0242 9.2182C23.906 9.17025 23.8177 9.0541 23.7912 8.91166L23.5489 7.60668L23.5464 7.59217C23.4881 7.21376 23.3034 6.90016 23.0331 6.633C22.658 6.26222 22.1275 5.98243 21.5061 5.76087C20.24 5.30955 18.6085 5.11294 17.0534 5.01441L17.0438 5.01394L17.0093 5.01149L17.0046 5.0112L16.9993 5.01083C16.8024 4.99519 16.6532 4.79755 16.6652 4.56826C16.6771 4.33888 16.8458 4.16376 17.0429 4.176L17.1942 4.1858ZM24.874 2.13407C24.6239 2.98849 24.0133 3.61399 23.2099 4.05345C22.5881 4.39352 21.8479 4.6196 21.0992 4.76826C21.606 4.90899 22.0735 5.07941 22.4816 5.28609C23.456 5.77943 24.1026 6.4899 24.252 7.43429L24.3654 8.0451C25.3892 6.95112 25.8585 5.97735 25.984 5.12604C26.1973 3.67786 25.3978 2.6422 24.874 2.13407Z" fill="#EF2D45"/>
<path fill-rule="evenodd" clip-rule="evenodd" d="M9.77176 7.48204C9.82938 6.64477 10.444 5.90367 11.4629 5.36587C12.8205 4.64937 14.909 4.24194 16.9985 4.20171C19.0931 4.1614 21.1863 4.49129 22.5472 5.21609C23.5622 5.75662 24.1815 6.53154 24.2376 7.4843C24.6678 9.81092 25.1894 13.8543 25.8177 18.0756C25.8515 18.303 25.7203 18.5197 25.525 18.559C25.3296 18.5984 25.1436 18.4458 25.1098 18.2184C24.4807 13.9915 23.9594 9.94365 23.5296 7.62956L23.522 7.56268C23.4914 6.86869 22.9843 6.36856 22.2483 5.97659C20.9643 5.29277 18.9867 4.99989 17.0104 5.03795C15.0292 5.0761 13.0468 5.4482 11.7596 6.12759C11.364 6.33644 11.0373 6.57195 10.8076 6.8408C10.6198 7.06067 10.5003 7.2991 10.4869 7.56569L10.4794 7.62956C9.88854 10.8112 8.5557 18.8564 7.47608 24.6702C7.43416 24.8958 7.24285 25.0393 7.04903 24.9905C6.85522 24.9417 6.73189 24.719 6.77381 24.4934C7.85019 18.6971 9.17826 10.6827 9.77176 7.48204Z" stroke="#EF2D45" stroke-width="0.5"/>
<path d="M9.77293 9.52539C9.77293 9.52539 1.66349 6.83562 1.35938 15.9214C1.35938 15.9214 5.09933 18.3729 8.90056 14.5808L9.77293 9.52539Z" stroke="#EF2D45" stroke-width="0.5"/>
<path fill-rule="evenodd" clip-rule="evenodd" d="M10.125 9.60768C10.1619 9.39384 10.0514 9.18292 9.87122 9.1231C9.87122 9.1231 6.37145 7.97552 3.78095 9.66232C2.31685 10.6157 1.11576 12.4523 1.00028 15.905C0.995015 16.0617 1.0655 16.2086 1.18292 16.2856C1.18292 16.2856 2.96668 17.4635 5.35794 17.0183C6.51784 16.8023 7.82325 16.206 9.13415 14.8981C9.19509 14.8373 9.23677 14.7545 9.25263 14.663L10.125 9.60768ZM9.35273 9.83584C8.48578 9.61343 6.03771 9.15117 4.13176 10.3923C2.87612 11.2099 1.88139 12.7873 1.72982 15.6674C2.21464 15.9224 3.56051 16.5059 5.24448 16.1924C6.26875 16.0017 7.41562 15.4777 8.57285 14.3552L9.35273 9.83584Z" stroke="#EF2D45" stroke-width="0.5"/>
<path d="M24.2272 9.52539C24.2272 9.52539 32.3367 6.83562 32.6408 15.9214C32.6408 15.9214 28.9008 18.3729 25.0996 14.5808L24.2272 9.52539Z" stroke="#EF2D45" stroke-width="0.5"/>
<path fill-rule="evenodd" clip-rule="evenodd" d="M24.1287 9.12307C23.9485 9.18289 23.838 9.39381 23.8749 9.60765L24.7473 14.6629C24.7631 14.7545 24.8048 14.8373 24.8657 14.8981C26.1767 16.206 27.4821 16.8023 28.642 17.0183C31.0333 17.4635 32.8169 16.2856 32.8169 16.2856C32.9343 16.2086 33.0049 16.0617 32.9997 15.905C32.8841 12.4523 31.6831 10.6157 30.2189 9.66229C27.6284 7.9755 24.1287 9.12307 24.1287 9.12307ZM32.27 15.6673C32.1185 12.7873 31.1238 11.2099 29.8682 10.3923C27.9621 9.15115 25.5141 9.6134 24.6471 9.83581L25.427 14.3552C26.5843 15.4777 27.7312 16.0017 28.7554 16.1924C30.4394 16.5059 31.7852 15.9223 32.27 15.6673Z" stroke="#EF2D45" stroke-width="0.5"/>
<path fill-rule="evenodd" clip-rule="evenodd" d="M16.9939 5.01441C15.4389 5.11294 13.8074 5.30955 12.5413 5.76087C11.9198 5.98243 11.3894 6.26222 11.0143 6.633C10.744 6.90016 10.5593 7.21376 10.501 7.59217C10.5002 7.59697 10.4994 7.60187 10.4985 7.60668L10.2562 8.91166C10.2297 9.0541 10.1414 9.17025 10.0232 9.2182C9.90496 9.26615 9.77386 9.23902 9.67708 9.14651C8.1488 7.68609 7.51783 6.37083 7.35525 5.26734C6.96616 2.62562 9.23256 1.05733 9.23256 1.05733C9.33978 0.98423 9.47177 0.980839 9.58175 1.04829C9.69164 1.11574 9.76375 1.24451 9.77249 1.38874C9.8454 2.59133 10.7913 3.23737 11.9142 3.6366C13.8009 4.30742 16.2379 4.22084 16.8532 4.1858L17.0045 4.176C17.2016 4.16376 17.3702 4.33888 17.3822 4.56826C17.3942 4.79755 17.245 4.99519 17.0481 5.01083L17.0428 5.0112L17.038 5.01149L17.0036 5.01394L16.9939 5.01441ZM9.1734 2.13407C8.64957 2.6422 7.85011 3.67786 8.06343 5.12604C8.18886 5.97735 8.65815 6.95112 9.68201 8.0451L9.79539 7.43429C9.94478 6.4899 10.5914 5.77943 11.5658 5.28609C11.9739 5.07941 12.4414 4.90899 12.9482 4.76826C12.1995 4.6196 11.4593 4.39352 10.8375 4.05345C10.0341 3.61399 9.42346 2.98849 9.1734 2.13407Z" stroke="#EF2D45" stroke-width="0.5"/>
<path fill-rule="evenodd" clip-rule="evenodd" d="M17.1942 4.1858C17.8095 4.22084 20.2465 4.30742 22.1332 3.6366C23.256 3.23737 24.202 2.59133 24.2749 1.38874C24.2836 1.24451 24.3557 1.11574 24.4656 1.04829C24.5756 0.980839 24.7076 0.98423 24.8148 1.05733C24.8148 1.05733 27.0812 2.62562 26.6921 5.26734C26.5296 6.37083 25.8986 7.68609 24.3703 9.14651C24.2735 9.23902 24.1424 9.26615 24.0242 9.2182C23.906 9.17025 23.8177 9.0541 23.7912 8.91166L23.5489 7.60668L23.5464 7.59217C23.4881 7.21376 23.3034 6.90016 23.0331 6.633C22.658 6.26222 22.1275 5.98243 21.5061 5.76087C20.24 5.30955 18.6085 5.11294 17.0534 5.01441L17.0438 5.01394L17.0093 5.01149L17.0046 5.0112L16.9993 5.01083C16.8024 4.99519 16.6532 4.79755 16.6652 4.56826C16.6771 4.33888 16.8458 4.16376 17.0429 4.176L17.1942 4.1858ZM24.874 2.13407C24.6239 2.98849 24.0133 3.61399 23.2099 4.05345C22.5881 4.39352 21.8479 4.6196 21.0992 4.76826C21.606 4.90899 22.0735 5.07941 22.4816 5.28609C23.456 5.77943 24.1026 6.4899 24.252 7.43429L24.3654 8.0451C25.3892 6.95112 25.8585 5.97735 25.984 5.12604C26.1973 3.67786 25.3978 2.6422 24.874 2.13407Z" stroke="#EF2D45" stroke-width="0.5"/>
</svg>
