<svg width="33" height="24" viewBox="0 0 33 24" fill="none" xmlns="http://www.w3.org/2000/svg">
<path d="M27.5 13.9962H27.65V13.8462V12.4615V12.413L27.6216 12.3737L24.6216 8.21987L24.5767 8.15769H24.5H23.5H23.35V8.30769V13.8462V13.9962H23.5H27.5ZM31.8744 11.4749L31.8745 11.475C32.1864 11.9061 32.35 12.4071 32.35 12.9231V18.4615C32.35 19.8944 31.0827 21.0808 29.5 21.0808H28.356H28.2424L28.2116 21.1901C27.784 22.7099 26.2933 23.85 24.499 23.85C22.7027 23.85 21.212 22.7098 20.7844 21.1901L20.7536 21.0808H20.64H15.358H15.2444L15.2136 21.1901C14.786 22.7099 13.2953 23.85 11.501 23.85C9.70468 23.85 8.214 22.7098 7.78639 21.1901L7.75562 21.0808H7.642H6.5C4.91731 21.0808 3.65 19.8944 3.65 18.4615V15.6923V15.5423H3.5C1.91731 15.5423 0.65 14.3559 0.65 12.9231V2.76923C0.65 1.33638 1.91731 0.15 3.5 0.15H18.5C20.0827 0.15 21.35 1.33638 21.35 2.76923V4.61538V4.76538H21.5H25.5C26.459 4.76538 27.3464 5.20538 27.8744 5.93644L31.8744 11.4749ZM28.2126 19.4252L28.2434 19.5346H28.357H29.5C30.1243 19.5346 30.65 19.0659 30.65 18.4615V12.9231C30.65 12.7087 30.5805 12.4991 30.4537 12.3231L30.4536 12.3229L26.4536 6.78448L26.4535 6.78428C26.2375 6.48638 25.8791 6.31154 25.5 6.31154H21.5H21.35V6.46154V12.9231C21.35 14.3559 20.0827 15.5423 18.5 15.5423H5.5H5.35V15.6923V18.4615C5.35 19.066 5.87679 19.5346 6.5 19.5346H7.643H7.75662L7.78739 19.4252C8.215 17.9056 9.70568 16.7654 11.502 16.7654C13.2963 16.7654 14.787 17.9055 15.2146 19.4252L15.2454 19.5346H15.359H20.641H20.7546L20.7854 19.4252C21.213 17.9056 22.7037 16.7654 24.5 16.7654C26.2943 16.7654 27.785 17.9055 28.2126 19.4252ZM24.5 7.53462C24.7889 7.53462 25.0545 7.66808 25.2105 7.88342L28.2103 12.0369C28.2103 12.0369 28.2103 12.037 28.2104 12.037C28.3016 12.1637 28.35 12.3123 28.35 12.4615V13.8462C28.35 14.2627 27.9817 14.6192 27.5 14.6192H23.5C23.0183 14.6192 22.65 14.2627 22.65 13.8462V8.30769C22.65 7.89115 23.0183 7.53462 23.5 7.53462H24.5ZM2.35 12.9231C2.35 13.5276 2.87679 13.9962 3.5 13.9962H18.5C19.1243 13.9962 19.65 13.5275 19.65 12.9231V2.76923C19.65 2.16485 19.1243 1.69615 18.5 1.69615H3.5C2.87679 1.69615 2.35 2.16475 2.35 2.76923V12.9231ZM9.351 20.3077C9.351 21.4206 10.3246 22.3038 11.501 22.3038C12.6753 22.3038 13.651 21.4207 13.651 20.3077C13.651 19.1947 12.6763 18.3115 11.501 18.3115C10.3246 18.3115 9.351 19.1947 9.351 20.3077ZM22.35 20.3077C22.35 21.4206 23.3236 22.3038 24.5 22.3038C25.6753 22.3038 26.65 21.4207 26.65 20.3077C26.65 19.1947 25.6753 18.3115 24.5 18.3115C23.3236 18.3115 22.35 19.1947 22.35 20.3077Z" fill="#4FBD01" stroke="#EEEEEE" stroke-width="0.3"/>
</svg>
