<svg width="20" height="24" viewBox="0 0 20 24" fill="none" xmlns="http://www.w3.org/2000/svg">
<path d="M18.7234 23.6575L18.7233 23.6576C18.5425 23.8511 18.2914 23.9495 18.0383 23.9495C17.8198 23.9495 17.6005 23.8756 17.4256 23.7262L17.4255 23.7262C17.0485 23.405 17.0182 22.8547 17.3549 22.4952C17.8447 21.9729 18.1154 21.2962 18.1154 20.5891V19.3448C18.1154 17.4576 16.8032 15.8257 14.9245 15.3762C14.5865 15.2946 14.223 15.3391 13.9266 15.499C11.4881 16.7932 8.50406 16.7882 6.08114 15.5026C5.77859 15.338 5.41495 15.2908 5.07649 15.375C3.19792 15.8258 1.88439 17.4576 1.88439 19.3448V20.5891C1.88439 21.2973 2.15524 21.9741 2.64514 22.4952C2.98168 22.8546 2.9502 23.4049 2.5743 23.7262C2.19434 24.05 1.61307 24.0181 1.27666 23.6587L1.2766 23.6587C0.485063 22.8161 0.05 21.7257 0.05 20.5891V19.3448C0.05 16.6589 1.93139 14.3299 4.62769 13.6828L4.62778 13.6828C5.41996 13.4912 6.2809 13.6005 6.9847 13.9833L6.98515 13.9836C8.84515 14.971 11.1496 14.9747 13.0251 13.9799L13.0256 13.9796C13.7202 13.6018 14.5812 13.4935 15.3761 13.6839L15.3762 13.6839C18.0685 14.3274 19.95 16.6564 19.95 19.3436V20.5879C19.95 21.7257 19.5149 22.8162 18.7234 23.6575ZM16.7238 6.46138C16.7238 9.9946 13.7093 12.8728 9.99872 12.8728C6.28806 12.8728 3.27361 9.9946 3.27361 6.46138C3.27361 2.92821 6.28806 0.05 9.99872 0.05C13.7093 0.05 16.7238 2.92821 16.7238 6.46138ZM14.8881 6.46138C14.8881 3.88639 12.6928 1.79611 9.99872 1.79611C7.30459 1.79611 5.10934 3.88639 5.10934 6.46138C5.10934 9.03637 7.30459 11.1267 9.99872 11.1267C12.6928 11.1267 14.8881 9.03637 14.8881 6.46138Z" fill="#4FBD01" stroke="white" stroke-width="0.1"/>
</svg>
