<svg width="23" height="24" viewBox="0 0 23 24" fill="none" xmlns="http://www.w3.org/2000/svg">
<path fill-rule="evenodd" clip-rule="evenodd" d="M18.9667 1.41176C17.8571 1.41176 16.9 2.32856 16.9 3.52941C16.9 3.90016 16.9912 4.24382 17.15 4.5418C17.1528 4.54621 17.1556 4.55067 17.1584 4.55516C17.1709 4.57566 17.1823 4.59653 17.1925 4.61768C17.5589 5.24199 18.2291 5.64706 18.9667 5.64706C20.0763 5.64706 21.0333 4.73026 21.0333 3.52941C21.0333 2.32856 20.0763 1.41176 18.9667 1.41176ZM16.3097 5.85586C16.9522 6.58945 17.8964 7.05882 18.9667 7.05882C20.9499 7.05882 22.5 5.44735 22.5 3.52941C22.5 1.61148 20.9499 0 18.9667 0C16.9835 0 15.4333 1.61148 15.4333 3.52941C15.4333 3.9071 15.4934 4.27291 15.6051 4.61686L6.69027 9.67356C6.04782 8.93996 5.10364 8.47059 4.03333 8.47059C2.05015 8.47059 0.5 10.0821 0.5 12C0.5 13.9179 2.05015 15.5294 4.03333 15.5294C5.10364 15.5294 6.04782 15.06 6.69027 14.3264L15.6051 19.3831C15.4934 19.7271 15.4333 20.0929 15.4333 20.4706C15.4333 22.3885 16.9835 24 18.9667 24C20.9499 24 22.5 22.3885 22.5 20.4706C22.5 18.5527 20.9499 16.9412 18.9667 16.9412C17.8964 16.9412 16.9522 17.4105 16.3097 18.1441L7.39486 13.0875C7.50655 12.7435 7.56667 12.3777 7.56667 12C7.56667 11.6223 7.50655 11.2565 7.39486 10.9125L16.3097 5.85586ZM5.80755 10.9117C5.81772 10.9329 5.82907 10.9538 5.84162 10.9742C5.84437 10.9787 5.84716 10.9832 5.85 10.9876C6.00878 11.2856 6.1 11.6293 6.1 12C6.1 12.3707 6.00878 12.7144 5.85 13.0124C5.84716 13.0168 5.84437 13.0213 5.84162 13.0258C5.82907 13.0463 5.81772 13.0671 5.80755 13.0883C5.44106 13.7126 4.7709 14.1176 4.03333 14.1176C2.92372 14.1176 1.96667 13.2009 1.96667 12C1.96667 10.7992 2.92372 9.88235 4.03333 9.88235C4.7709 9.88235 5.44106 10.2874 5.80755 10.9117ZM17.15 19.4582C17.1528 19.4538 17.1556 19.4493 17.1584 19.4448C17.1709 19.4243 17.1823 19.4035 17.1925 19.3823C17.5589 18.758 18.2291 18.3529 18.9667 18.3529C20.0763 18.3529 21.0333 19.2697 21.0333 20.4706C21.0333 21.6714 20.0763 22.5882 18.9667 22.5882C17.8571 22.5882 16.9 21.6714 16.9 20.4706C16.9 20.0998 16.9912 19.7562 17.15 19.4582Z" fill="#4D4D4D"/>
</svg>
