<svg width="16" height="12" viewBox="0 0 16 12" fill="none" xmlns="http://www.w3.org/2000/svg">
<path d="M15.7422 10.0953C15.9528 10.3563 15.9529 10.7866 15.7422 11.0475C15.6392 11.175 15.5091 11.2329 15.3848 11.233C15.2604 11.233 15.1304 11.1749 15.0273 11.0475L8.07715 2.44299L8 2.34729L7.92188 2.44299L0.973633 11.0465C0.870679 11.174 0.740554 11.2319 0.616211 11.2321C0.491734 11.2321 0.360887 11.1741 0.257812 11.0465C0.154403 10.9184 0.0996637 10.7462 0.0996094 10.5709C0.0996094 10.4392 0.130371 10.3093 0.189453 10.1989L0.257812 10.0953L7.64258 0.952759C7.74563 0.825175 7.87555 0.766265 8 0.766235C8.12447 0.766235 8.25435 0.825162 8.35742 0.952759L15.7422 10.0953Z" fill="#4FBD01" stroke="white" stroke-width="0.2"/>
</svg>
