<svg width="108" height="112" viewBox="0 0 108 112" fill="none" xmlns="http://www.w3.org/2000/svg">
<path d="M79.3101 12.4217C79.1036 12.431 73.7312 10.918 73.5104 10.772C75.6637 11.0097 77.8849 11.3704 79.9502 11.9954C79.1422 12.2103 78.3996 11.4033 77.6158 11.6945L77.5804 11.7759C78.0426 11.9768 79.0692 11.9774 79.3267 12.3593L79.3101 12.4217Z" fill="#2F3C26"/>
<path d="M33.7814 9.62818C41.3378 5.89228 54.5132 10.6845 61.2273 13.8703C65.1567 15.7348 77.5182 21.993 74.9847 28.3244C73.2862 32.5688 69.0556 30.7029 66.2693 30.9264C63.4991 30.3699 57.735 27.6969 55.1783 26.4889C49.7271 23.9131 35.7179 15.6703 33.7814 9.62818Z" fill="#4FBD01"/>
<path d="M79.9502 11.9954C89.1685 14.0677 101.589 20.3868 106.299 28.7544C109.916 35.1807 104.013 35.9544 102.99 39.4137C102.236 41.9639 102.583 44.4141 102.619 46.9735C102.705 53.2202 100.031 57.895 97.8757 63.6416L91.8908 79.4937C90.5696 82.9708 89.2667 86.2668 87.8519 89.7245C83.9138 99.3485 80.4399 109.188 69.5901 111.321C59.6368 113.278 44.2132 108.545 34.6705 105.044C24.0372 101.144 8.36108 93.5521 2.90472 83.3761C-2.69537 72.9321 3.55425 64.1461 7.53464 54.4745C10.7115 46.756 13.6585 38.9609 17.0109 31.3096C18.1923 28.6128 19.2562 25.8311 20.7009 23.2633C22.9481 19.2696 28.9812 13.8731 29.672 9.42333C29.9947 7.3447 27.4007 3.82144 31.0667 1.55871C38.9798 -3.3256 63.6384 4.77874 71.2131 10.056C69.5769 9.43372 68.0154 8.64192 66.3593 8.05707C61.0529 6.18309 40.7207 1.05929 35.1928 3.6401C33.2296 4.55676 33.3669 7.90859 33.7814 9.62818C35.7179 15.6703 49.7271 23.9131 55.1783 26.4889C57.735 27.6969 63.4991 30.3699 66.2693 30.9264C67.0512 31.2195 67.8033 31.5981 68.5709 31.9277C76.6247 35.3862 93.8702 39.3926 102.188 35.6556C107.584 33.2313 103.748 28.6355 101.427 25.8749C95.1969 18.4611 87.9103 15.486 79.3101 12.4217L79.3267 12.3593C79.0692 11.9774 78.0426 11.9768 77.5804 11.7759L77.6158 11.6945C78.3996 11.4033 79.1422 12.2103 79.9502 11.9954ZM99.2972 55.8798C94.5899 55.4258 89.8107 55.8616 85.1092 55.2502C73.9371 53.7978 58.5964 48.6271 48.2067 43.9474C39.2789 39.926 30.9327 34.2979 23.4947 27.8439C22.713 27.1656 21.9356 26.4372 21.0735 25.8713C16.256 36.4103 12.0817 47.2492 7.64738 57.9556C6.61999 60.436 4.39151 64.1894 3.89178 66.4455C4.05622 66.6328 4.21526 66.835 4.3981 67.0016C6.49814 68.5384 8.6303 69.9973 10.6745 71.6189C16.9437 76.5917 22.8587 81.6052 30.0634 85.1265C33.3052 86.7109 36.7191 87.992 40.0566 89.3596C49.7145 93.3174 59.292 97.2941 70.1106 97.0491C74.1108 96.9585 78.3837 96.329 82.2934 97.1786C83.8883 93.6456 85.3375 90.0629 86.8086 86.4769L93.1289 71.0755C94.3609 68.1041 99.4118 56.9292 99.3865 55.9401L99.2972 55.8798ZM100.773 38.8596C89.5383 41.8367 69.3578 34.0959 59.1406 29.9068C52.0927 27.017 34.2203 19.0553 31.6294 11.1291C30.0806 14.5203 28.0456 17.6071 25.6016 20.3794C24.3926 21.7509 23.025 23.0359 21.9907 24.5585L24.8842 27.0505C32.1966 33.4825 40.3609 38.8491 49.1929 42.8108C59.0524 47.2329 73.9894 52.2356 84.5425 53.6517C89.1648 54.2717 95.1335 54.2741 99.9434 54.239C100.972 49.9156 99.6023 44.8442 100.499 40.0781C100.544 39.8335 100.829 39.0537 100.773 38.8596ZM81.2623 98.625L81.1843 98.6137C75.4292 97.8128 69.1977 98.8445 63.214 98.0155C54.9158 96.8658 49.7029 94.7826 42.2343 91.7198C31.7681 87.4275 24.5635 84.4943 15.4872 77.3589C12.3124 74.8631 9.27221 72.2063 6.05826 69.7557C5.35557 69.2199 4.60576 68.7115 3.93151 68.14C2.93768 72.1515 3.35309 74.1363 3.88353 77.8118C7.38857 90.0061 23.929 97.9595 34.8679 102.441C45.5491 106.817 64.2158 113.932 75.4173 105.935C77.4205 104.504 80.2279 101.271 81.3281 98.968C81.4084 98.8004 81.4486 98.6875 81.2623 98.625Z" fill="#001300"/>
<path d="M31.5833 54.3251C32.3908 54.9291 33.1506 55.5871 33.9157 56.2469C33.4661 56.1748 33.1073 55.8241 32.8159 55.484L32.7252 55.5509C32.7265 55.9219 33.2061 56.2259 33.4437 56.4378L33.4284 56.5434C32.7357 56.1855 31.8209 55.0945 31.5833 54.3251Z" fill="#0F4F0B"/>
<path d="M44.6061 64.2432C46.7133 62.0549 50.1905 60.4129 53.1224 60.7645C54.0298 60.8733 59.5813 62.8409 60.3858 63.3713L60.3169 63.5154C59.4901 63.9254 58.5515 63.1647 57.7234 62.9537C52.6939 61.6722 48.41 62.7951 44.8493 66.8538C42.5627 64.9769 43.0555 61.6566 41.1487 59.9791C39.8936 58.8751 36.0345 59.2167 33.4284 56.5434L33.4437 56.4378C33.2061 56.2259 32.7265 55.9219 32.7252 55.5509L32.8159 55.484C33.1073 55.8241 33.4661 56.1748 33.9157 56.2469C35.2616 57.3653 36.9276 58.2827 38.6716 58.5289C43.2273 59.1721 42.7282 59.8785 44.6061 64.2432Z" fill="url(#paint0_linear_184_339)"/>
<path d="M73.2684 64.8488C73.7422 64.4038 74.6205 64.293 74.2995 65.2361C73.9418 66.2878 72.4704 68.6687 71.8627 69.7702C68.9006 75.1388 65.7683 81.5931 60.1942 84.4107C54.242 87.4193 48.2413 84.8372 44.2039 80.2907C43.459 79.4519 42.7393 78.5255 41.8879 77.8037C38.6911 79.8467 34.1459 78.2643 32.4774 75.0826C31.8663 73.9175 31.7279 72.6931 31.447 71.4081C24.4038 68.6838 26.756 60.9991 29.0639 55.1589C29.4442 54.1964 29.7105 53.0561 30.8258 53.5765C30.0722 54.228 29.3308 56.5369 28.9839 57.5518C28.0158 60.3827 26.9129 63.9912 28.198 66.7786C29.4519 69.499 30.878 69.153 32.969 69.8514L33.0743 69.8874C32.5399 72.4959 33.5682 74.8579 35.7788 76.064C38.3683 77.4767 39.2828 77.1603 41.7842 76.29C44.1199 77.0866 44.9685 78.7193 46.6994 80.3348C50.1257 83.5328 55.4108 85.118 59.9465 83.0164C65.0844 80.6359 70.9204 70.5187 73.2684 64.8488Z" fill="#001300"/>
<path d="M60.3169 63.5154L60.1008 63.7391C59.9066 64.5117 65.2372 66.3485 66.0984 66.5339C68.3896 67.0269 71.2619 66.203 73.2684 64.8488C70.9204 70.5187 65.0844 80.6359 59.9465 83.0164C55.4108 85.118 50.1257 83.5328 46.6994 80.3348C44.9685 78.7193 44.1199 77.0866 41.7842 76.29C39.2828 77.1603 38.3683 77.4767 35.7788 76.064C33.5682 74.8579 32.5399 72.4959 33.0743 69.8874L32.969 69.8514C30.878 69.153 29.4519 69.499 28.198 66.7786C26.9129 63.9912 28.0158 60.3827 28.9839 57.5518C29.3308 56.5369 30.0722 54.228 30.8258 53.5765C31.0661 53.8326 31.3642 54.0533 31.5833 54.3251C31.8209 55.0945 32.7357 56.1855 33.4284 56.5434C36.0345 59.2167 39.8936 58.8751 41.1487 59.9791C43.0555 61.6566 42.5627 64.9769 44.8493 66.8538C48.41 62.7951 52.6939 61.6722 57.7234 62.9537C58.5515 63.1647 59.4901 63.9254 60.3169 63.5154Z" fill="#FFBA34"/>
<path d="M69.1755 67.371L69.206 67.4243C67.2857 68.1062 65.1537 67.549 63.4393 66.7437L63.3357 66.577L63.3775 66.4646C63.8084 66.398 64.4553 66.8081 64.8538 66.9799C66.2137 67.566 67.7109 67.4141 69.1755 67.371Z" fill="#001300"/>
<defs>
<linearGradient id="paint0_linear_184_339" x1="49.1948" y1="92.6751" x2="0.679628" y2="43.9614" gradientUnits="userSpaceOnUse">
<stop/>
<stop offset="1" stop-color="#193A0C"/>
</linearGradient>
</defs>
</svg>
