<svg width="144" height="96" viewBox="0 0 144 96" fill="none" xmlns="http://www.w3.org/2000/svg">
<path d="M83.8459 0.0373199C96.525 -0.737809 124.357 10.7377 132.762 18.0604C139.419 23.8606 146.267 35.2572 143.279 43.4659C142.732 44.9691 141.268 47.1675 139.073 46.3355L138.944 46.4456C137.763 49.2219 138.148 56.305 139.393 59.4911C140.464 62.2291 141.891 63.1994 141.731 66.2925C141.529 70.1977 138.932 74.2543 134.627 75.6609C128.085 77.7988 119.216 78.0906 112.051 79.4391C105.783 80.6183 99.7697 82.6476 93.5023 83.859C85.2774 85.4486 77.5522 86.2797 69.3304 87.5665C63.1644 88.5316 57.0867 89.8466 50.9429 90.9079C39.0618 92.8201 27.0305 94.5334 15.0354 95.7898C10.455 96.2695 4.19313 96.3783 3.65423 90.9719C3.12045 85.6172 11.2656 83.6081 10.6493 78.2025C10.0392 72.8509 0.800885 73.4519 0.0311359 65.2052C-0.659102 57.8103 10.2963 49.3438 16.0535 44.2582C24.3503 36.9293 34.2783 29.0148 43.6136 22.5855C52.3356 16.5785 62.7372 9.64789 71.9908 4.33639C75.8372 2.1285 79.0556 0.37848 83.8459 0.0373199Z" fill="black"/>
<path d="M137.834 69.3125C138.029 69.0241 138.299 69.0338 138.652 68.9505C138.721 69.6002 138.501 69.8874 137.946 70.2709L137.834 69.3125Z" fill="#063F00"/>
<path d="M81.6017 2.91468C85.543 2.36553 90.1726 3.51884 94.0298 4.22122C107.7 6.71063 126.137 15.1591 134.417 24.86C132.718 25.6225 130.895 26.1922 129.106 26.7642C126.495 23.0421 123.064 20.3102 119.01 17.844C117.716 17.0567 112.557 14.0177 111.184 14.237C111.114 14.9 112.936 15.7739 113.516 16.0885C118.76 18.9307 124.562 22.3734 127.598 27.2396C123.291 29.2426 114.033 31.271 109.02 32.3999L57.4558 43.5854L27.8399 50.5508C20.7888 52.3489 13.091 54.8548 6.05766 56.3037C8.11192 53.1695 13.5334 48.7008 16.602 46.098C23.8591 39.9419 32.5744 32.6969 40.7657 27.5013C45.2097 24.6823 48.749 21.9132 52.9732 18.8893C56.4067 16.4312 59.9638 14.1825 63.6133 11.9815C64.589 14.0025 66.0384 14.9355 66.2213 17.4179C66.8177 25.5022 54.2516 34.2114 45.9192 31.1898C45.0905 30.8893 42.8904 29.6151 42.2043 29.6534C40.8697 32.176 47.8136 33.5429 49.895 33.4838C58.6252 33.2362 68.5386 25.7413 68.2165 17.6702C68.1528 16.0726 66.5936 11.5043 64.326 11.6946C64.153 11.709 63.8456 11.7853 64.0569 11.5833C64.8862 10.7919 68.1365 9.00774 69.3661 8.27014C73.4571 5.81672 76.4935 3.41498 81.6017 2.91468Z" fill="#FFBA34"/>
<path d="M94.1034 5.47402C104.825 4.76805 107.617 13.7045 97.3441 17.9067C87.2411 21.5741 84.7023 7.08212 94.1034 5.47402Z" fill="black"/>
<path d="M95.0689 6.83866C97.8262 6.63581 102.839 8.53314 101.652 11.4941C100.92 13.3204 98.1471 14.638 96.2804 15.3916C88.1177 18.2023 88.3363 8.31564 95.0689 6.83866Z" fill="#FFBA34"/>
<path d="M137.946 70.2709C133.671 76.4339 115.559 76.5686 107.946 77.9448C96.9125 79.9396 86.6701 83.089 75.2282 84.6768C66.7458 85.854 59.3283 87.149 50.9596 88.5784C43.1978 89.9042 13.7769 94.4444 8.60123 92.5008C2.80714 90.3251 10.3565 85.555 12.2299 83.6037C13.7766 81.9927 14.2181 79.9748 13.9639 77.9189C13.5898 74.8904 12.4765 73.7286 9.83987 72.0868C4.61512 68.8341 0.951959 65.5119 3.71767 59.6228C4.78069 57.3593 6.1538 57.666 8.59387 57.2092C13.4665 56.2968 18.2042 54.7182 22.9792 53.4824C27.6211 52.2813 32.2985 51.2097 36.9818 50.143L95.2717 37.0404C107.219 34.4983 119.297 32.2269 130.71 28.1286C132.465 27.4985 134.18 26.7897 135.933 26.158C139.049 29.874 142.519 35.404 141.307 40.143C140.931 41.6159 139.368 44.4662 138.675 46.4353C136.914 51.4324 135.514 56.2963 137.869 61.3417C139.023 63.8141 140.415 65.1456 140.225 67.9859C140.167 68.515 139.977 68.8037 139.579 69.1922L139.368 69.2392L139.229 69.1379C139.224 68.9557 139.217 68.7744 139.203 68.5924L138.652 68.9505C138.299 69.0338 138.029 69.0241 137.834 69.3125L137.946 70.2709Z" fill="#4FBD01"/>
<path d="M137.834 69.3125C137.454 68.4443 138.081 67.9929 138.971 68.0278C139.051 68.215 139.138 68.4006 139.203 68.5924L138.652 68.9505C138.299 69.0338 138.029 69.0241 137.834 69.3125Z" fill="#155000"/>
<path d="M128.525 64.3599C130.539 64.3242 130.325 68.8431 130.306 68.878L130.123 68.9292C129.454 68.7127 128.677 67.6013 128.326 67.0635C127.464 69.0086 127.292 71.1769 126.367 73.1244C126.069 73.7178 125.548 74.906 124.634 74.897L124.497 74.7251C124.326 73.3951 125.952 72.1056 126.466 70.8841C127.209 69.1192 125.776 64.9697 128.525 64.3599Z" fill="black"/>
<path d="M59.1877 77.797C67.737 77.8657 63.2016 84.1158 58.3061 85.4481C52.8595 85.9867 50.7094 78.2996 59.1877 77.797Z" fill="black"/>
<path d="M59.027 79.8736C59.9331 79.7718 60.6736 79.9041 61.5196 80.1808C60.9781 81.4804 59.7347 82.5049 58.2772 82.9977C56.8003 83.0934 56.2074 82.464 55.6215 81.3066C56.6343 80.4142 57.651 80.0941 59.027 79.8736Z" fill="#FFBA34"/>
<path d="M30.8392 55.9297C42.7592 55.3584 44.3827 70.6954 32.4493 72.4385C28.3934 72.7419 23.5675 70.4162 22.8586 66.6434C22.2087 63.1845 27.008 56.4695 30.8392 55.9297Z" fill="black"/>
<path d="M31.6054 58.1005C39.015 57.6925 41.4992 68.6176 31.3848 69.9455C21.0366 70.9335 24.6565 59.1505 31.6054 58.1005Z" fill="#FFBA34"/>
<path d="M97.4504 53.4482C99.4284 53.2906 101.254 54.2462 102.37 55.6528C106.913 61.3764 98.8864 72.384 91.7064 71.2255C86.9661 70.0869 83.0089 64.1203 86.4334 60.3382C88.9932 57.5108 93.2107 53.8814 97.4504 53.4482Z" fill="black"/>
<path d="M96.279 55.6841C104.673 54.9717 101.164 68.5849 92.401 68.8546C88.5899 68.5117 85.9837 63.9126 88.1069 61.0807C89.5426 59.1662 93.7124 56.1623 96.279 55.6841Z" fill="#FFBA34"/>
</svg>
