<svg width="128" height="112" viewBox="0 0 128 112" fill="none" xmlns="http://www.w3.org/2000/svg">
<path d="M81.0097 0.0342675C87.8583 -0.395174 91.8841 3.26662 96.6201 7.93414C102.359 13.5895 106.491 14.749 113.493 16.997C118.911 18.7367 128.28 24.7247 127.994 31.8991C127.899 34.2732 126.459 35.8293 124.945 37.342C125.538 48.4129 127.902 64.8682 126.255 75.0023C123.171 93.9847 110.44 97.6874 94.4376 97.6655C89.4475 97.6587 82.4326 97.5424 77.581 96.6161C82.4471 110.668 49.4362 111.973 42.8586 111.993C33.89 112.109 24.9818 110.752 16.1407 109.294C11.7094 108.564 1.3071 108.077 0.0701148 101.918C-0.807797 97.5459 6.7949 91.6762 9.6594 88.4522C15.1492 82.2739 20.0505 75.6421 25.7938 69.6952C32.8449 62.3941 38.4267 58.2847 47.5939 64.7653C47.7319 58.134 47.0468 51.5292 46.6959 44.9152C46.5854 42.8308 46.2861 40.7674 46.3606 38.6743C40.69 32.982 42.3115 25.4206 48.2633 20.6397C51.2947 18.2049 55.9969 16.8594 59.5864 15.6256C64.1951 14.0411 63.5557 14.3562 66.9346 10.3239C70.6239 5.92178 75.2836 0.776146 81.0097 0.0342675Z" fill="black"/>
<path d="M16.6701 84.9577L16.5055 84.7296C16.8909 83.3557 25.4602 74.0736 26.751 72.6992C30.6746 68.5219 35.2218 62.564 41.4087 64.3034C45.945 65.5787 62.9986 79.1042 64.8056 82.4238C65.0061 83.1333 65.5648 83.4148 64.758 83.8835C64.3554 83.7361 64.1786 83.3676 63.6855 83.3714L62.9748 83.167C61.3946 83.9326 60.4684 85.7644 58.6364 85.9752C56.0522 86.2727 52.473 83.589 49.4927 83.5884C45.9947 83.5873 42.8616 85.6213 39.5135 86.4228C30.1527 88.6633 24.893 79.6892 16.6701 84.9577Z" fill="#FFBA34"/>
<path d="M38.4614 66.3171C40.4765 66.1551 40.9831 68.2971 39.2524 69.1971C37.1313 69.5373 36.6832 67.1888 38.4614 66.3171Z" fill="black"/>
<path d="M33.6502 69.6979C35.7995 69.8988 36.0968 72.6628 33.8885 73.1814C31.4813 72.9565 31.5523 70.2695 33.6502 69.6979Z" fill="black"/>
<path d="M44.9212 71.1433C47.2328 71.2405 47.2233 73.8549 45.244 74.6716C43.5718 74.8635 43.3198 73.3968 43.6028 71.946C44.0062 71.4125 44.2933 71.2465 44.9212 71.1433Z" fill="black"/>
<path d="M35.4629 78.0481C37.9716 77.783 38.4032 80.5866 36.3351 81.6473C34.0128 82.052 33.5334 79.0278 35.4629 78.0481Z" fill="black"/>
<path d="M29.1965 77.716C31.5503 77.7347 31.9387 80.8739 29.6991 81.4168C27.3562 81.1147 26.8633 78.3213 29.1965 77.716Z" fill="black"/>
<path d="M42.6321 76.4426C45.2523 76.2666 45.1182 79.3977 42.9169 80.1765C40.2882 80.4327 40.3775 77.2401 42.6321 76.4426Z" fill="black"/>
<path d="M55.7376 77.1199C58.2595 76.9034 59.0445 79.7975 56.7361 80.8647C54.1279 81.4306 53.4585 78.1348 55.7376 77.1199Z" fill="black"/>
<path d="M110.232 18.1355C115.312 19.3687 127.998 27.5607 124.844 33.4995C122.704 37.5272 109.887 41.8057 105.686 43.0548C90.9161 47.4464 64.8821 46.9629 50.8836 38.3187C46.9007 35.8596 44.039 31.603 46.6137 26.7953C49.1681 22.0255 54.487 20.0739 59.1235 18.7419C56.6509 20.4195 54.8119 23.367 52.8943 25.6939C51.2797 27.6536 47.2593 30.5801 50.4764 32.3246C50.9346 32.2145 51.3984 32.1351 51.8611 32.05C53.366 32.8805 52.6428 32.7188 53.0439 33.3553C55.0384 34.2149 60.003 34.608 62.0736 33.9279C63.5857 34.4593 65.5878 34.3062 67.1954 34.3688C74.5402 34.6552 81.8779 34.3488 89.2179 34.4725C91.5023 34.5108 95.2248 35.2573 97.2896 34.7025C102.373 34.9563 108.455 33.7352 113.365 32.5767C114.566 32.293 119.887 31.3802 119.619 29.3136C119.309 26.9133 112.239 19.6857 110.232 18.1355Z" fill="#4FBD01"/>
<path d="M51.0408 30.6921C53.2674 27.4395 56.0707 25.7465 58.5084 22.9299C59.9345 21.282 61.4689 19.6487 62.784 17.8979C63.4782 16.9741 63.9491 15.8734 64.6335 14.9439C68.0482 10.3047 75.0053 2.28285 80.1039 1.46538C86.5172 0.437039 91.6458 5.93015 96.3361 9.83311C99.6287 12.5733 102.157 14.9717 105.257 17.8615C109.012 21.363 112.863 24.8586 115.937 29.096C110.011 31.8243 103.085 31.5619 97.2896 34.7025C95.2248 35.2573 91.5023 34.5108 89.2179 34.4725C81.8779 34.3488 74.5402 34.6552 67.1954 34.3688C65.5878 34.3062 63.5857 34.4593 62.0736 33.9279C58.5899 32.3781 54.2882 32.9142 51.0408 30.6921Z" fill="#FFBA34"/>
<path d="M102.074 28.3026C102.653 28.4411 102.719 28.6795 102.604 29.2772C102.086 29.1206 101.836 28.8668 102.074 28.3026Z" fill="#620201"/>
<path d="M71.2663 14.1791C73.3424 14.1186 73.7917 16.1118 71.2578 16.6779C67.4513 17.3898 70.5564 14.4709 71.2663 14.1791Z" fill="black"/>
<path d="M86.7555 22.5409C88.8165 22.2752 89.5565 25.1828 87.4939 25.7149C85.5382 25.6731 84.7805 23.5201 86.7555 22.5409Z" fill="black"/>
<path d="M74.4274 9.54208C76.6227 9.57933 76.9001 12.4807 74.8183 13.0547C72.4611 13.0252 72.3803 10.1366 74.4274 9.54208Z" fill="black"/>
<path d="M80.2177 16.7133C82.4118 16.6763 82.7404 19.7999 80.6511 20.3295C78.2554 20.4078 78.2004 17.3988 80.2177 16.7133Z" fill="black"/>
<path d="M82.7006 8.95084C84.864 8.80047 85.6004 11.8109 83.5004 12.8095C81.0682 12.9974 80.9166 10.0701 82.7006 8.95084Z" fill="black"/>
<path d="M88.1644 14.1864C90.5475 14.0044 91.0874 16.8372 89.0899 17.922C86.7715 18.5747 86.2183 15.1947 88.1644 14.1864Z" fill="black"/>
<path d="M96.5099 18.0602C98.8085 17.8245 99.8795 20.5677 97.6772 21.647C95.2758 21.8975 94.3738 19.2286 96.5099 18.0602Z" fill="black"/>
<path d="M91.2915 26.6806C92.5348 26.804 92.9381 27.4327 93.251 28.7032C92.9892 29.7207 92.6501 30.1775 91.6648 30.5009C89.1834 30.566 89.0569 27.213 91.2915 26.6806Z" fill="black"/>
<path d="M63.3572 24.9736C64.5607 25.044 65.0891 27.6244 64.3049 28.2478C63.8921 28.5761 61.3791 27.7537 60.7625 27.6328C58.7334 26.9962 58.302 25.2462 61.3161 25.9679C62.0216 25.6855 62.6272 25.1993 63.3572 24.9736Z" fill="black"/>
<path d="M64.8056 82.4238C65.8523 83.6235 66.7503 85.2218 67.5445 86.6294C68.5288 87.7805 69.4413 89.9503 70.4041 91.3169C72.3243 94.042 74.9868 96.0519 75.7158 99.5412C73.783 105.09 63.5992 107.076 59.0025 107.779C42.327 110.33 29.0242 108.855 12.5127 105.974C10.3169 105.59 1.78975 104.715 2.46341 100.704C2.82518 98.5494 6.05958 95.945 7.4311 94.4264C8.58901 93.1443 15.1554 85.2442 16.4795 85.0873C16.583 85.0749 16.5953 85.033 16.6701 84.9577C24.893 79.6892 30.1527 88.6633 39.5135 86.4228C42.8616 85.6213 45.9947 83.5873 49.4927 83.5884C52.473 83.589 56.0522 86.2727 58.6364 85.9752C60.4684 85.7644 61.3946 83.9326 62.9748 83.167L63.6855 83.3714C64.1786 83.3676 64.3554 83.7361 64.758 83.8835C65.5648 83.4148 65.0061 83.1333 64.8056 82.4238Z" fill="#4FBD01"/>
<path d="M64.8056 82.4238C65.8523 83.6235 66.7503 85.2218 67.5445 86.6294L67.4668 86.6653C67.0819 86.2873 66.8574 85.4358 66.4505 85.1583C65.7158 85.8262 66.8654 86.4147 67.0497 87.1285L67.0222 87.1418L66.8486 87.043C66.1934 85.5811 64.9561 84.2277 63.6855 83.3714C64.1786 83.3676 64.3554 83.7361 64.758 83.8835C65.5648 83.4148 65.0061 83.1333 64.8056 82.4238Z" fill="#A5DD25"/>
<path d="M122.1 39.9901C122.343 40.2239 122.372 45.2392 122.423 46.0199C123.189 57.8433 126.946 80.659 116.468 89.0372C109.031 94.9836 98.1446 94.8451 89.3074 94.8459C84.7419 94.8465 80.2142 94.8578 75.6837 94.1437C74.2889 92.4626 72.8197 90.8485 71.6024 89.0067C67.9412 83.4678 66.7853 79.8933 61.4677 75.018C58.1498 72.092 54.3105 69.168 50.842 66.3703C50.8705 58.7234 50.1178 48.2477 48.9728 40.5665C56.2823 47.85 80.347 49.3981 89.9031 48.998C102.075 48.4883 111.302 45.3237 122.1 39.9901Z" fill="#4FBD01"/>
</svg>
