<svg width="168" height="156" viewBox="0 0 168 156" fill="none" xmlns="http://www.w3.org/2000/svg">
<path d="M143.578 42.6082C145.081 44.7426 144.358 48.1237 144.884 50.9102C143.182 48.1471 143.571 44.3008 140.549 43.4243C136.265 49.108 142.144 66.886 138.08 71.0793C136.653 72.5514 133.926 69.4388 133.057 68.5517C133.152 70.4431 133.356 72.3219 133.415 74.2202C133.453 75.4383 133.401 83.6104 133.525 83.8496C133.744 83.9448 133.99 83.8525 134.225 83.8624C139.02 84.0644 143.666 86.2041 147.52 88.7824C150.311 90.6495 152.596 91.7933 148.188 92.9584C138.199 95.5988 138.762 93.5534 131.731 102.579C130.491 104.17 128.003 107.366 126.05 104.931C124.67 103.21 125.647 100.968 126.192 99.067C127.283 95.2547 127.746 91.3441 128.32 87.4515C126.47 86.4727 124.926 85.0994 123.188 83.9671C122.042 83.2209 120.756 82.6687 119.635 81.8986C118.191 87.7795 104.069 86.894 103.96 81.7202C104.206 79.374 105.654 77.0899 106.729 74.9936C102.069 71.025 98.1976 68.263 94.5628 62.9649C92.3224 64.7904 88.9294 69.0793 89.3725 71.9335C89.6999 72.1798 90.7871 72.8029 89.7642 73.0793C86.3163 74.0113 83.3222 70.96 82.5598 67.9874C81.0888 62.2524 85.3551 54.2463 88.2855 49.3768C86.181 43.0232 85.4269 37.7791 85.1686 31.0052C85.0468 27.8107 85.3243 20.6807 87.6831 18.2021C88.8719 16.953 90.6141 17.439 92.0925 17.6766C99.9524 18.9402 113.612 25.7883 119.504 31.5016C120.156 32.134 120.728 32.8366 121.392 33.459C128.36 30.9508 139.275 38.0093 143.578 42.6082Z" fill="black"/>
<path d="M137.29 55.2189C137.488 57.0971 137.453 59.1165 137.616 61.0412C135.945 60.2143 134.253 59.5187 132.502 58.8612L132.102 58.7111C131.834 57.0246 131.419 55.5438 131.115 53.9153C133.203 54.2505 135.212 54.856 137.29 55.2189Z" fill="#FFBA34"/>
<path d="M137.577 62.9626C138.178 64.3706 137.638 67.8259 136.872 69.3739C135.918 68.9204 133.701 67.2153 133.202 66.2949C132.695 64.815 132.444 62.2289 132.23 60.6274C134.031 61.351 135.85 62.0902 137.577 62.9626Z" fill="#FFBA34"/>
<path d="M118.118 81.2622C117.157 84.7368 111.262 84.571 108.604 83.6664C105.723 82.686 105.337 82.2721 106.439 79.6482C106.921 78.3803 107.57 77.1609 108.062 75.8906C110.541 77.7581 115.298 79.9607 118.118 81.2622Z" fill="#FFBA34"/>
<path d="M88.8788 51.3697C89.5449 53.7527 90.5778 56.1441 91.7178 58.3343C93.0829 60.9569 94.3017 60.8149 92.3337 62.6669C89.828 65.0249 88.2566 68.0042 87.3573 71.2299C87.1281 71.1424 86.9032 71.0394 86.6774 70.9442C80.2959 67.4847 86.7487 56.3012 88.8788 51.3697Z" fill="#FFBA34"/>
<path d="M147.475 91.1676L147.495 91.2343C147.228 91.5669 143.34 92.3016 142.662 92.4619C132.105 94.9587 130.799 103.052 127.802 104.095C127.589 104.05 127.428 103.85 127.276 103.705C126.908 102.2 128.248 98.5603 128.62 96.7948C129.353 93.6788 129.164 87.0594 131.621 85.4239C132.751 85.8897 134.048 85.4884 135.252 85.6222C139.598 86.1053 144.225 88.4355 147.475 91.1676Z" fill="#FFBA34"/>
<path d="M139.905 41.7454C139.888 41.9038 139.614 42.0296 139.5 42.1273C136.531 44.6683 137.45 50.1302 137.134 53.4251L132.699 52.3488C131.958 52.1749 131.194 51.9422 130.436 51.8584C129.769 49.0802 128.762 46.3203 127.562 43.7383C126.069 40.2907 124.595 37.9392 122.673 34.8186C128.071 33.5656 135.911 38.2163 139.905 41.7454Z" fill="#FFBA34"/>
<path d="M114.859 30.0603C113.52 32.9872 109.245 38.2099 106.638 40.1454C100.707 44.5487 95.1125 44.1511 88.3745 43.3012C87.4504 39.8001 87.0681 34.7834 86.9946 31.2031C86.8509 27.7405 86.9732 22.2476 88.9254 19.2056C95.6029 18.355 109.595 26.0096 114.859 30.0603Z" fill="#4FBD01"/>
<path d="M101.329 28.9246C102.718 31.4879 99.1072 33.4593 97.3461 31.2595C95.7393 28.9431 99.3442 26.913 101.329 28.9246Z" fill="black"/>
<path d="M99.7826 29.8026C100.064 30.3884 99.6465 30.8394 99.0686 30.5656C98.5916 29.8444 99.1092 29.6298 99.7826 29.8026Z" fill="white"/>
<path d="M122.324 37.7629C128.288 46.9006 130.458 56.2485 131.386 66.953C131.69 70.4613 132.086 80.6604 131.268 83.6684C130.5 84.2957 129.543 84.9157 128.651 85.3465C127.457 84.9391 126.339 83.9774 125.309 83.2816C120.06 79.7363 113.948 77.6033 108.646 74.1318C106.734 72.9176 105.032 71.4964 103.336 70.0115C95.4905 63.143 91.2926 55.0768 88.9206 45.068C100.656 46.7094 106.783 44.4593 113.953 34.884C114.835 33.7062 115.794 32.4849 116.349 31.1275C118.67 33.0997 120.665 35.2129 122.324 37.7629Z" fill="#4FBD01"/>
<path d="M116.967 45.9321C115.249 47.1131 113.705 48.3245 111.535 48.3116C113.132 52.6959 110.24 55.6246 105.874 53.2265C105.154 55.5784 103.236 56.7704 100.872 57.2725C101.626 56.644 102.203 55.9478 102.752 55.1443C103.935 53.2312 104.132 51.2178 104.657 49.1182C106.061 50.6243 106.464 52.2412 109.452 51.8236C109.464 51.8091 109.476 51.7946 109.488 51.7802L109.545 51.7062C110.86 50.033 108.578 47.2347 110.157 46.9427C112.221 46.5609 114.791 46.2897 116.967 45.9321Z" fill="black"/>
<path d="M86.7031 93.1279C92.9108 96.6717 98.8514 102.319 102.389 108.491C104.363 111.936 104.239 112.726 102.949 116.351C101.543 120.301 99.72 126.276 95.2394 127.68C91.2768 128.922 86.9853 128.588 82.9544 129.581C78.3554 130.715 75.3023 133.07 70.3396 133.429C66.7798 133.686 63.5958 132.406 60.1222 132.174C52.5672 131.669 47.3338 135.32 40.0135 130.76C35.6297 128.03 32.083 122.448 27.7966 118.81C20.8808 113.167 12.1864 111.023 9.56668 101.338C6.46821 89.884 16.6107 75.2314 29.112 79.6935C34.5215 81.6244 37.9696 87.2174 44.4084 88.0168C48.2199 88.4901 52.9468 87.454 56.8182 87.08C66.2018 86.1739 78.4084 88.201 86.7031 93.1279ZM85.0651 93.9623C76.0852 89.0093 65.6424 87.7526 55.5372 88.6526C60.6701 89.5427 65.2161 90.1936 70.3625 91.3329C75.554 92.482 80.7826 93.8409 85.0482 97.1694C88.6234 99.5484 95.1724 106.806 97.0861 110.655C98.3822 113.261 97.8261 118.299 100.407 119.617C103.028 115.517 102.345 110.994 99.7877 106.974C96.9188 102.465 90.0537 96.5492 85.0651 93.9623ZM30.7973 82.4704L30.7375 82.4456C26.7642 80.7575 25.0365 80.1598 20.5405 81.7463C21.1832 82.4753 24.0808 82.5231 25.0296 82.6494C26.7971 82.8847 29.47 83.7967 30.7973 82.4704Z" fill="black"/>
<path d="M98.1956 123.733L98.2993 123.816C98.2935 124.295 97.4389 125.259 97.1105 125.588C95.2583 127.441 84.9341 127.767 81.4743 128.716C77.8316 129.715 74.531 131.498 70.706 131.782C66.4158 132.102 63.0643 130.543 58.9244 130.444C52.2497 130.285 46.8921 133.268 40.5589 129.071C37.6657 127.153 35.4964 124.248 33.1936 121.696C30.9559 119.216 28.3573 116.89 25.5561 115.059C18.2112 110.26 10.5871 106.854 10.7765 96.5038C10.8671 94.8328 11.1209 93.2994 11.5911 91.6879C11.6058 93.7873 11.8322 95.5478 12.9165 97.3835C15.5478 101.838 21.6448 105.882 25.7164 108.895C29.4264 111.64 32.8392 114.739 36.208 117.887C38.5254 120.053 40.7637 122.364 43.5455 123.939C51.1343 128.234 58.2301 126.827 66.2911 127.318C74.103 127.794 74.8591 128.955 82.4076 126.196C87.4957 124.335 92.727 122.328 98.1956 123.733Z" fill="#FFBA34"/>
<path d="M30.7973 82.4704C31.7199 82.7418 32.8897 83.7556 33.6698 84.3437C40.5074 89.4996 43.0156 90.1729 51.4065 89.5322C55.2753 89.2367 57.0178 89.5925 60.8519 90.1929C66.7564 91.1177 76.5759 92.6176 81.5136 95.4655C84.8141 97.3691 93.6638 107.523 95.2741 110.499C96.6725 113.082 96.906 115.954 98.1445 118.456C98.5405 119.256 99.0991 119.932 99.6144 120.654C99.3766 121.208 99.0959 121.767 98.8967 122.334C92.5613 120.459 88.8081 121.801 82.6862 124.18C74.9478 127.187 74.3573 126.005 66.3577 125.528C58.8577 125.08 51.564 126.377 44.5718 122.541C39.9077 119.981 34.6365 113.918 30.3392 110.382C25.5962 106.479 20.127 103.38 16.0949 98.6739C13.5599 95.715 12.3031 92.8673 13.5413 88.847C14.3978 86.0661 15.5052 83.9917 18.1763 82.5737C18.6259 82.335 20.0618 81.6467 20.5405 81.7463C21.1832 82.4753 24.0808 82.5231 25.0296 82.6494C26.7971 82.8847 29.47 83.7967 30.7973 82.4704Z" fill="#4FBD01"/>
<path d="M27.1043 88.3247C30.9984 90.331 26.0022 94.7159 23.1003 90.8086C22.4625 89.7854 21.3771 86.6314 23.7298 87.2744C24.1054 87.7086 24.1642 87.8864 24.1595 88.4517L24.1965 88.4595C24.7667 87.5976 26.3289 88.0314 27.1043 88.3247Z" fill="black"/>
<path d="M39.1226 95.2124C40.5551 96.1988 38.8196 98.9774 38.297 100.52C37.2568 103.589 37.0868 106.134 37.0589 109.341C37.0537 109.932 37.2895 111.196 36.4479 111.201C35.8384 110.764 35.4284 110.149 34.962 109.575C34.6848 105.361 35.3288 97.736 39.1226 95.2124Z" fill="black"/>
<path d="M52.3117 96.4817C53.0151 97.0748 52.459 98.8431 52.345 99.6101C51.7475 103.631 52.3346 105.972 52.6006 109.917C52.6288 110.336 52.7805 115.727 51.7211 113.92C50.2755 110.262 49.132 102.824 50.2096 99.0234C50.5192 97.9313 50.9279 96.0159 52.3117 96.4817Z" fill="black"/>
<path d="M80.9667 98.857C82.0425 99.5824 82.1176 101.362 82.2944 102.524L82.7911 105.737C83.0816 107.549 85.0246 116.484 83.925 117.899L83.7543 117.919C82.3245 116.787 82.0053 113.74 81.6319 112.076C81.1672 110.004 78.702 99.9517 80.9667 98.857Z" fill="black"/>
<path d="M65.3908 96.5836C66.5054 97.9612 66.6308 100.996 66.9938 102.702C67.5022 105.092 70.2003 115.067 68.2258 117.073C67.3591 116.559 66.6924 111.465 66.4299 110.368C65.5707 106.777 62.8678 99.4772 65.3908 96.5836Z" fill="black"/>
</svg>
