<svg width="136" height="112" viewBox="0 0 136 112" fill="none" xmlns="http://www.w3.org/2000/svg">
<path d="M52.8001 0.00221735C54.954 -0.048405 59.6605 0.76344 60.6629 2.88166C59.8274 4.93367 58.1242 3.90259 56.4119 4.46521C53.2722 5.4968 52.1952 9.19556 53.2433 11.9613C54.5661 12.7146 55.9172 13.2492 57.1856 14.1243C58.9015 15.3083 58.9606 16.1523 61.0955 16.6772C62.1038 16.9252 63.1416 17.6288 63.8954 18.2884C65.6462 18.269 67.1955 17.8508 68.8948 17.5096C74.875 16.3088 80.6647 18.5093 85.1278 22.2707C90.6223 26.9015 100.352 40.0175 99.4817 47.7968C99.4254 48.3007 99.1014 48.9668 99.3968 49.4386C100.715 51.5445 105.572 51.3906 107.789 51.3376C119.28 51.0636 122.358 52.0305 128.878 61.8304C131.082 65.1419 133.594 68.5859 134.915 72.3268C137.279 79.0202 135.627 87.3839 131.436 93.1795C129.913 95.2851 127.91 97.0557 125.951 98.7867C118.758 105.14 107.183 113.842 96.7433 110.872C95.9437 110.645 93.8282 110.085 93.1873 109.723C92.8979 109.559 92.9263 109.227 92.5854 109.135L91.4826 110.033C88.4166 112.365 85.027 112.474 81.3703 111.142C77.5277 109.743 78.4544 110.695 74.6025 110.862C58.7675 111.546 49.3661 102.921 44.5627 89.0562C39.2745 90.2668 33.0438 87.2212 29.0539 84.1689C23.16 85.807 14.5823 81.3025 10.5072 77.5054C4.84447 72.2293 2.9703 65.5291 1.4348 58.3766C-0.874071 47.6217 -1.36266 34.7018 7.49519 26.3045C11.717 22.3025 15.9825 21.1827 21.63 20.2851C25.7669 19.6279 25.8037 19.8695 29.1457 17.715C34.3506 14.3595 38.5507 15.1652 44.1021 15.1877C43.5549 11.7246 43.081 9.70722 44.8813 6.27954C46.4709 3.25384 49.08 0.474037 52.8001 0.00221735ZM54.2419 14.6911C54.3791 15.912 55.1999 16.1756 56.3035 16.4886C55.6415 15.7498 55.1463 15.1771 54.2419 14.6911Z" fill="#151515"/>
<path d="M97.5064 49.7653C98.2401 51.0675 99.2816 51.9555 100.585 52.7308C99.8974 52.8063 99.2177 52.9328 98.5284 53.0029C97.4048 53.1141 96.4212 53.0976 95.3331 52.7869C96.1237 51.8228 96.6633 50.6896 97.5064 49.7653Z" fill="#C3F75D"/>
<path d="M83.7519 51.5031C83.998 51.4635 84.28 51.4682 84.531 51.4527C83.8147 53.4675 83.6443 55.8385 82.9719 57.6024C81.9232 58.3918 79.9356 55.8742 79.23 55.3462C78.0561 54.5037 76.8324 53.8976 75.5349 53.2481C78.095 52.2119 81.002 51.8096 83.7519 51.5031Z" fill="#4FBD01"/>
<path d="M38.7026 21.488C44.2072 17.731 49.5725 19.237 46.537 12.0001C44.9632 8.24856 48.6719 3.26884 52.263 1.94149C54.198 1.22623 55.5982 1.77762 57.3715 2.53416C50.4491 4.28155 49.1304 13.4057 53.5507 17.434C55.0374 18.7887 56.9977 18.767 58.9137 18.7429L59.2519 18.94C59.6708 19.1796 59.8609 19.2905 60.3601 19.1734C60.4486 19.6566 60.7677 19.9851 60.6914 20.4916C60.7503 21.2704 60.1976 21.4419 59.5807 21.7966C55.6548 24.054 44.581 21.4267 38.7026 21.488Z" fill="#4FBD01"/>
<path d="M60.3601 19.1734C61.1278 17.2056 62.3009 19.2088 63.609 20.1105C64.6827 20.8509 68.6588 23.1393 69.8457 23.084L69.95 22.9919C69.7602 21.9065 67.2349 20.4941 66.1743 19.9062C71.1369 18.4625 75.8837 18.2921 80.6481 20.7249C84.1316 22.5035 86.3561 25.9519 88.5588 28.9352C92.6723 34.5057 97.7201 41.2599 97.8211 48.3457C94.8575 44.283 91.6794 42.5427 87.0781 45.7352C85.6004 46.7606 85.259 48.6432 85.0306 50.2558C82.441 49.9327 78.4982 50.4053 75.9566 51.1019C76.5316 41.6164 76.5621 33.6355 69.2465 25.8024C67.3155 23.7353 63.5998 20.9973 60.6914 20.4916C60.7677 19.9851 60.4486 19.6566 60.3601 19.1734Z" fill="#FFBA34"/>
<path d="M40.1912 16.3386C41.5221 16.1301 43.2435 16.3109 44.5592 16.5693C43.4523 17.478 41.0248 18.0365 39.6012 18.6907C36.8143 19.9714 36.562 21.0118 32.9036 22.3623C20.8977 26.7941 17.5881 41.6663 17.1814 52.484C16.8011 62.6067 19.5213 74.8693 27.0201 82.5529C23.9416 82.2462 21.0542 81.3868 18.2842 80.0805C8.68949 75.4115 5.76221 66.7811 3.86338 57.5749C1.80978 47.6181 1.23318 36.5027 8.66091 28.3886C12.3508 24.3577 15.6541 23.9133 20.4697 22.0809C23.6394 20.8747 24.3668 18.9292 28.2579 20.8123C32.4912 19.5332 33.7533 17.0308 40.1912 16.3386Z" fill="#FFBA34"/>
<path d="M61.932 23.2464C63.3267 23.4518 65.3734 25.427 66.3839 26.379C74.8786 34.3815 73.4863 42.7496 73.5313 52.61C69.4904 50.9819 66.7727 49.4428 62.1575 50.1161C57.5398 50.7897 53.2825 53.2476 50.5397 56.8377C45.6955 63.1783 42.3715 79.1222 43.7727 87.4853C40.4885 87.3544 38.5218 86.8937 35.5299 85.5554C16.2604 77.1317 15.2836 39.0498 29.2837 27.1884C39.1096 18.8632 48.0662 26.7072 58.3984 24.5729C59.6444 24.3155 60.7876 23.7617 61.932 23.2464Z" fill="#FFBA34"/>
<path d="M72.6067 63.8822C74.6681 62.5886 77.238 61.4178 79.5992 60.7077C85.4291 58.9545 85.0469 61.6881 86.2426 55.2593C86.5646 53.529 87.4091 49.1448 88.1243 47.7211C89.7386 44.5065 93.6804 46.5643 95.1398 48.7832C94.5453 49.4655 93.7334 49.9136 93.0752 50.5308C90.6359 52.818 87.9253 57.0405 92.0965 59.1247C96.3725 61.2613 99.4834 55.2971 107.445 59.0608C112.007 61.2173 112.346 58.4436 108.133 56.6481C100.398 53.3508 98.5237 57.1737 94.3503 57.017C92.0962 56.9324 94.0326 54.2179 94.8589 53.5859C95.3353 53.8154 95.7477 54.0774 96.1762 54.3798C98.9863 54.4504 99.5947 53.7181 101.924 53.3058C105.033 52.7554 109.136 52.7553 112.546 52.4144C116.714 51.9982 120.79 53.7895 123.593 56.6494C126.074 59.1805 131.239 67.5776 132.524 70.6072C135.569 77.7825 134.06 86.6739 128.969 92.7325C125.346 97.0433 112.753 107.248 107.475 109.22C105.179 110.078 102.223 110.408 99.7956 109.939C99.0149 109.788 95.3258 108.773 94.9073 108.064C94.6296 107.592 95.6688 106.187 95.384 105.505L95.117 105.405C92.6143 105.909 92.1615 106.945 90.6177 108.44C89.6172 109.417 87.9666 109.867 86.5744 109.995C80.7701 110.527 76.8452 104.952 75.2515 105.178C71.9479 105.645 75.7269 108.163 76.558 108.691C73.7858 108.797 71.1573 108.994 68.3933 108.562C58.4983 107.015 52.2355 101.072 48.2385 92.7814C44.9896 86.0437 44.6232 80.4282 45.8951 73.2016C47.1218 66.232 48.6079 58.8952 55.0918 54.5464C58.0227 52.5805 63.3724 51.253 66.9246 51.8694C69.3004 52.282 77.4689 56.2223 78.8023 58.0318C78.7691 58.0312 78.7359 58.031 78.7027 58.0302L78.5363 58.025C76.4396 57.9774 64.5885 54.1217 66.4637 57.4529C66.9913 58.39 74.0616 59.464 75.8093 59.9656C74.1122 60.7075 64.8164 65.6039 65.4366 67.7002C66.5568 68.5127 74.8492 64.1052 79.9637 66.062C82.2494 66.9366 84.5119 71.004 86.6814 69.7929C87.3288 69.4315 87.6563 68.6578 88.1918 68.1736C93.9825 62.9388 102.21 62.1392 109.607 64.4932C109.941 64.5995 115.058 66.4262 113.529 64.0542C111.799 61.3723 98.5245 61.1097 95.8193 61.6961C92.0232 62.5192 89.3314 65.5607 86.1146 67.4208C80.0699 63.6708 81.0902 63.063 72.6067 63.8822Z" fill="#4FBD01"/>
<path d="M90.6177 108.44C90.643 106.868 94.1557 104.079 95.4916 104.999L95.5122 105.195C95.369 105.383 95.3612 105.361 95.117 105.405C92.6143 105.909 92.1615 106.945 90.6177 108.44Z" fill="#C3F75D"/>
</svg>
