<svg width="128" height="84" viewBox="0 0 128 84" fill="none" xmlns="http://www.w3.org/2000/svg">
<path d="M87.5971 17.5886C84.8158 19.2507 82.0389 22.1737 79.9613 25.4383C77.6603 29.0539 76.1483 33.197 76.5153 36.637C76.7374 38.7178 77.9798 40.1737 79.5827 40.6747C81.1851 41.1755 83.057 40.6943 84.4833 39.1019L84.4833 39.1019C85.006 38.5182 85.4051 37.8431 85.756 37.178C85.8999 36.9052 86.0318 36.6422 86.1606 36.3856C86.3578 35.9928 86.5474 35.6149 86.7609 35.2396C88.7833 31.6832 91.6635 28.4235 95.1061 26.2289C95.4257 26.0252 95.8272 25.7994 96.2769 25.55C96.3343 25.5181 96.3924 25.4859 96.4511 25.4534C96.8475 25.2339 97.2711 24.9992 97.6839 24.7559C98.4601 24.2983 99.2646 23.7736 99.8064 23.2031C101.444 24.0883 102.922 25.1461 104.458 26.2446C104.508 26.2802 104.558 26.3159 104.608 26.3516C102.217 27.8697 99.6001 30.6625 97.7389 33.7537C95.7122 37.1198 94.4792 41.0131 95.6188 44.0961C96.4014 46.2135 98.6421 47.2359 100.761 46.5805C102.073 46.1745 102.962 45.3452 103.667 44.4038C104.017 43.936 104.326 43.4347 104.619 42.9415C104.699 42.8073 104.777 42.6743 104.854 42.5426C105.065 42.1832 105.27 41.833 105.488 41.4909C107.461 38.398 110.723 35.9305 114.071 34.4019C117.73 39.3245 121.197 45.8173 122.225 52.1279C122.749 55.3462 122.636 58.4964 121.611 61.3634C120.588 64.2237 118.648 66.8321 115.465 68.9613L115.743 69.3769L115.465 68.9613C112.999 70.6117 111.709 71.4873 110.042 74.0626C108.808 75.9699 107.495 77.1819 106.135 77.912C104.776 78.6414 103.339 78.9071 101.826 78.8723C99.2703 78.8135 96.5672 77.9073 93.7316 76.9567C93.1634 76.7663 92.59 76.574 92.0113 76.3864L92.0109 76.3863L29.1047 56.0455L29.1046 56.0455L18.9757 52.7744C18.7578 52.704 18.5405 52.6342 18.3239 52.5647C15.6188 51.6962 13.0412 50.8686 11.053 49.4446C8.95336 47.9407 7.50587 45.7627 7.40276 42.0669C7.3703 40.9036 7.37632 40.1078 7.38093 39.4981L7.38158 39.4118C7.38614 38.7962 7.38792 38.3449 7.33459 37.8864C7.23034 36.99 6.91599 36.0862 6.09406 33.723L6.04443 33.5803L5.57218 33.7445L6.04443 33.5802C3.93161 27.505 5.78676 22.2088 9.49841 17.945C12.9059 14.0306 17.8624 11.013 22.6689 9.14685C21.6601 10.9088 20.531 13.347 20.0561 15.6662C19.7563 17.1304 19.7046 18.6067 20.1648 19.8476C20.6376 21.1225 21.6308 22.0926 23.279 22.5395C24.3006 22.8165 25.1918 22.7578 25.974 22.4471C26.7472 22.14 27.3752 21.6021 27.9055 20.9833C28.4346 20.3658 28.8849 19.6454 29.2933 18.948C29.4169 18.7368 29.5359 18.5294 29.6521 18.3268C29.9278 17.846 30.1879 17.3925 30.4582 16.9807C32.1993 14.3289 34.6017 12.8808 36.8413 11.5309C36.912 11.4884 36.9824 11.4459 37.0527 11.4035C39.1891 10.1142 41.251 8.83696 42.0198 6.52259C44.1418 6.57209 46.2646 6.76157 48.3914 6.9857C46.1842 8.74179 43.634 11.8616 41.7708 15.2138C40.6734 17.1882 39.7975 19.2722 39.3695 21.2421C38.9428 23.2056 38.95 25.1091 39.6885 26.6771L39.6885 26.6771C40.2523 27.8739 41.1971 28.6049 42.2914 28.884C43.3739 29.1602 44.5687 28.987 45.6536 28.4513L87.5971 17.5886ZM87.5971 17.5886C85.5882 16.7289 83.5352 15.9296 81.4705 15.2582C81.3001 15.537 81.1515 15.7842 81.0221 15.9993C80.8743 16.2451 80.7516 16.4492 80.6502 16.611C80.4182 16.9808 80.23 17.2428 79.9708 17.4757C79.7209 17.7004 79.4227 17.8812 79.0141 18.1213C78.9533 18.157 78.8892 18.1944 78.8216 18.234C78.4243 18.4664 77.9027 18.7715 77.1797 19.225C73.9082 21.2769 71.1481 23.8524 69.1585 27.1639M87.5971 17.5886L69.1585 27.1639M69.1585 27.1639C68.903 27.5891 68.6585 28.0444 68.4026 28.521C68.3284 28.6591 68.2533 28.7989 68.1767 28.9403C67.84 29.562 67.4791 30.2045 67.0659 30.8032C66.2391 32.0013 65.1699 33.0725 63.5835 33.4794C61.2009 34.0904 58.9695 32.5205 58.4442 30.2305L69.1585 27.1639ZM68.7574 11.2399C66.9463 10.6986 65.1244 10.2156 63.2835 9.74175C62.7959 10.8648 62.0222 11.6045 61.154 12.1996C60.6727 12.5294 60.1561 12.8191 59.6484 13.1017L59.5812 13.1391C59.0905 13.4121 58.6067 13.6812 58.1347 13.9892C55.1189 15.9572 52.3856 18.7049 50.4698 21.7609C50.1462 22.2771 49.8468 22.8604 49.536 23.4807C49.4974 23.5576 49.4587 23.6351 49.4197 23.7131C49.148 24.257 48.8651 24.8231 48.5572 25.3652C47.856 26.5996 46.9784 27.7975 45.6537 28.4513L68.7574 11.2399ZM68.7574 11.2399C66.1134 12.9619 63.3643 15.8431 61.3431 19.0506C59.0788 22.6441 57.6506 26.7723 58.4442 30.2304L68.7574 11.2399ZM82.3281 11.572L82.4792 11.0953C81.4893 10.7815 80.6957 10.3732 79.8874 9.95728L79.8048 9.9148C78.9731 9.48709 78.1161 9.05341 77.0597 8.76818L77.0597 8.76803L77.0476 8.76508C74.7622 8.20885 72.4927 7.62214 70.2177 7.03401C69.0537 6.7331 67.8884 6.43182 66.7187 6.13407C65.9596 5.9408 65.3675 5.82054 64.871 5.72306C64.8142 5.71192 64.759 5.70112 64.7051 5.69059C64.2831 5.60811 63.9449 5.542 63.6172 5.45455C62.9066 5.26492 62.2324 4.97098 60.9895 4.14863C59.4077 3.10191 58.219 2.8451 57.0626 2.85392C56.6004 2.85745 56.1429 2.90384 55.6928 2.94949C55.6022 2.95868 55.5118 2.96784 55.4218 2.97662C54.8758 3.02984 54.3139 3.07252 53.6768 3.04418C49.7068 2.86744 45.0305 2.52821 40.9996 2.23288C40.8356 2.06545 40.6338 1.93294 40.4242 1.82608C40.1312 1.67667 39.7858 1.55874 39.4171 1.46411C38.6796 1.27484 37.7897 1.16411 36.9044 1.1047C35.1391 0.986234 33.2961 1.06628 32.5443 1.18542L32.5442 1.18544C31.9031 1.28716 31.344 1.53393 30.8411 1.77665C30.7443 1.82337 30.6502 1.86956 30.558 1.91481C30.1548 2.11273 29.7881 2.29278 29.3901 2.42065C28.4257 2.73041 27.4885 3.01949 26.5714 3.30236C21.7059 4.80307 17.4071 6.129 12.6264 9.44051C4.16096 15.3044 -1.74721 24.6416 2.03264 35.15C2.24989 35.754 2.43221 36.236 2.58024 36.6272C2.65119 36.8148 2.71427 36.9815 2.76954 37.1309C2.9433 37.6005 3.04218 37.9045 3.10002 38.2074C3.208 38.7728 3.18237 39.3634 3.11275 40.968C3.10618 41.1193 3.09922 41.2797 3.09195 41.45C2.85547 46.9837 6.14353 52.0727 10.9926 54.4754C12.3087 55.1275 13.7826 55.5725 15.1807 55.9945C15.6246 56.1285 16.0609 56.2602 16.4821 56.3955L25.0973 59.1802C25.0974 59.1802 25.0974 59.1802 25.0974 59.1803C28.0369 60.1311 30.9761 61.0958 33.9172 62.0612C40.3009 64.1565 46.6932 66.2546 53.1143 68.219C60.1269 70.5904 67.1882 72.845 74.2428 75.0976C77.5472 76.1527 80.8501 77.2073 84.1459 78.2732C84.1459 78.2732 84.146 78.2733 84.146 78.2733L93.1683 81.1954C96.8854 82.3986 100.658 83.3729 104.173 82.9846C107.732 82.5915 110.98 80.8084 113.641 76.6239C114.63 75.0687 114.969 74.5718 115.41 74.1896C115.633 73.9969 115.889 73.8273 116.301 73.5664C116.353 73.5333 116.407 73.4989 116.464 73.463C116.849 73.2196 117.343 72.9079 117.998 72.4626C125.581 67.3092 127.598 59.9758 126.611 52.4732C125.638 45.0741 121.747 37.487 117.414 31.5404C117.619 30.0346 116.722 28.6205 115.656 27.5154C114.514 26.3325 113.053 25.3689 112.022 24.8197C111.415 24.4969 110.756 24.3786 110.189 24.2768L110.175 24.2743C109.577 24.1669 109.081 24.0757 108.652 23.8481L108.418 24.2898L108.652 23.8481C108.028 23.5171 107.336 23.0131 106.606 22.4624C106.495 22.3782 106.383 22.293 106.27 22.2074C105.658 21.743 105.03 21.266 104.438 20.887C103.844 20.507 103.146 20.1285 102.465 19.7599C102.357 19.7011 102.249 19.6425 102.141 19.5842C101.349 19.1533 100.61 18.7379 100.05 18.3261C99.7026 18.07 99.4177 17.7682 99.0989 17.4304C99.0321 17.3597 98.9639 17.2874 98.8933 17.2137C98.4994 16.802 98.0463 16.363 97.4311 16.0517C96.6194 15.6408 95.7885 15.4228 94.9829 15.2539C94.7127 15.1972 94.4502 15.1468 94.1921 15.0972C93.6606 14.9951 93.1477 14.8965 92.6246 14.7544L92.6245 14.7544C91.064 14.3308 89.3758 13.6873 87.6445 13.0097C87.4585 12.9369 87.272 12.8637 87.0852 12.7904C85.5426 12.1849 83.9764 11.5703 82.4793 11.0954L82.3281 11.572ZM24.2142 17.0726L24.2142 17.0725C24.5284 13.9366 26.0894 10.802 28.4198 8.54839C30.7429 6.3019 33.7997 4.95749 37.1165 5.31637C37.22 5.33588 37.268 5.36656 37.2924 5.38712C37.3194 5.40989 37.3497 5.44768 37.3812 5.52409C37.4146 5.60552 37.4415 5.71071 37.4703 5.85702C37.4786 5.89885 37.4876 5.94779 37.4973 6.00058C37.4982 6.00541 37.4991 6.01027 37.5 6.01516C37.1394 6.25295 36.736 6.45497 36.3027 6.65561C36.1756 6.71449 36.0446 6.77378 35.9114 6.83402C35.4985 7.02089 35.0651 7.21699 34.6636 7.43875C31.6734 9.09007 28.7837 11.7061 26.8694 14.5731C26.6261 14.9375 26.398 15.3273 26.1763 15.7124C26.1412 15.7733 26.1063 15.8341 26.0715 15.8948C25.884 16.2214 25.6995 16.5428 25.5052 16.8561C25.1435 17.4395 24.767 17.9625 24.329 18.3767C24.2872 18.2793 24.2548 18.169 24.2316 18.0455C24.1747 17.7421 24.1813 17.3997 24.2142 17.0726ZM63.35 25.1547C64.0721 22.8607 65.9445 19.6686 68.3252 17.0896C69.5124 15.8034 70.8109 14.6866 72.1357 13.9126C73.4381 13.1517 74.7386 12.7377 75.9719 12.7887C76.2303 12.889 76.4878 13.1202 76.7452 13.4638C76.9165 13.6925 77.0687 13.944 77.2097 14.1937C72.6824 16.7725 68.7675 19.6223 65.8565 24.2134C65.4499 24.8548 65.107 25.5473 64.778 26.212C64.6845 26.401 64.5921 26.5877 64.4996 26.7703C64.0805 27.5983 63.6501 28.3667 63.0782 29.0232C62.8915 29.1692 62.7662 29.2349 62.6933 29.2627C62.6761 29.2093 62.6567 29.1208 62.6467 28.9846C62.6317 28.7789 62.6415 28.5202 62.6728 28.224C62.7989 27.0294 63.2422 25.4968 63.35 25.1547ZM43.3963 23.6324C43.5122 22.3626 44.0775 20.6482 44.9805 18.7769C45.879 16.9146 47.0943 14.9333 48.476 13.1367C49.8594 11.3379 51.3968 9.74111 52.9343 8.63349C54.4605 7.53411 55.9251 6.96022 57.2105 7.06407C57.9788 7.32504 58.4921 7.75726 58.9041 8.43572C58.2996 8.89314 57.6287 9.28926 56.9248 9.69531C56.8634 9.73072 56.8018 9.76622 56.7399 9.80184C55.9753 10.242 55.1768 10.7017 54.4487 11.254C49.7605 14.8104 47.9906 17.7687 45.6776 21.6346C45.1428 22.5284 44.579 23.4708 43.9434 24.4803C43.7546 24.6988 43.6327 24.7692 43.5816 24.7898C43.5802 24.7882 43.5788 24.7865 43.5773 24.7846C43.5274 24.7213 43.4632 24.582 43.4224 24.3565C43.3833 24.1404 43.3732 23.8861 43.3963 23.6324ZM87.7999 22.808C88.6823 22.0224 89.7358 21.0928 90.8666 20.3751C91.9885 19.6631 93.1209 19.2031 94.1827 19.251C94.6303 19.3699 94.977 19.6324 95.2919 19.998C95.5188 20.2613 95.7142 20.5588 95.9151 20.8811C88.4151 24.3456 85.5546 29.1157 81.7539 35.4535C81.6156 35.6842 81.476 35.917 81.3349 36.1519C81.1853 36.3332 81.0603 36.4535 80.9618 36.5279C80.9279 36.5535 80.9 36.5716 80.8779 36.5842C80.8705 36.567 80.8624 36.5455 80.854 36.5189C80.7855 36.302 80.7521 35.9195 80.7978 35.3698C80.8425 34.8316 80.9594 34.1723 81.1588 33.4247C81.9584 30.4259 84.0439 26.1523 87.7999 22.808ZM99.5725 42.4036C99.392 41.3414 99.6191 39.998 100.183 38.5317C100.744 37.0742 101.621 35.54 102.681 34.1168C103.741 32.6938 104.975 31.3953 106.241 30.4028C107.48 29.4311 108.72 28.7767 109.835 28.5588C110.325 28.6624 110.737 28.9492 111.116 29.3604C111.422 29.6932 111.688 30.0861 111.944 30.495C110.847 31.2551 109.907 31.8628 109.067 32.406C108.903 32.512 108.743 32.6154 108.587 32.7171C107.537 33.3983 106.632 34.0029 105.773 34.7136C104.046 36.1441 102.546 37.974 100.346 41.6771C100.195 41.8843 99.8786 42.2454 99.6086 42.4191C99.598 42.426 99.5881 42.4321 99.5788 42.4376C99.5767 42.4271 99.5746 42.4158 99.5725 42.4036ZM99.6157 42.5547C99.6156 42.555 99.6138 42.5527 99.6109 42.5468C99.6144 42.5514 99.6159 42.5543 99.6157 42.5547Z" fill="#4D4D4D" stroke="#4D4D4D"/>
</svg>
