<svg width="221" height="189" viewBox="0 0 221 189" fill="none" xmlns="http://www.w3.org/2000/svg">
<path d="M40.4069 77.2625L40.657 77.2623L40.6567 77.0121C40.6549 75.7391 40.6409 74.4626 40.6269 73.1847C40.5798 68.8789 40.5325 64.5578 40.9514 60.3061C44.1013 28.3341 72.0674 3.51465 106.238 1.20708C144.448 -1.08706 177.042 26.8413 180.044 62.0493C180.353 65.6715 180.297 69.3685 180.242 73.0494C180.222 74.3564 180.203 75.6613 180.199 76.9602L180.199 77.203L180.441 77.2107C183.111 77.295 186.562 77.2194 190.203 77.1396C191.733 77.106 193.297 77.0718 194.85 77.0484C200.113 76.9689 205.251 77.014 208.624 77.6215C224.632 80.5045 223.885 103.804 207.86 105.872L207.674 105.896L207.645 106.081C206.581 112.948 205.644 119.827 204.707 126.712L204.573 127.694C203.591 134.907 202.601 142.126 201.456 149.346C201.298 150.34 201.144 151.36 200.986 152.399C200.034 158.685 198.976 165.668 196.49 171.756C193.6 178.834 188.791 184.669 179.986 186.756C177.323 187.387 174.579 187.588 171.809 187.651C170.528 187.68 169.244 187.68 167.96 187.68L167.647 187.68C166.259 187.681 164.872 187.683 163.496 187.727C151.229 188.111 139.203 188.126 127.054 188.141C123.039 188.146 119.009 188.151 114.954 188.169C107.798 188.089 100.695 188.093 93.6038 188.097C81.6744 188.104 69.78 188.111 57.7312 187.719C56.0509 187.664 54.4192 187.657 52.829 187.65C45.2313 187.617 38.5798 187.589 32.0805 182.385C23.8392 175.785 22.0835 165.632 20.4257 156.046L20.3787 155.774C20.2926 155.276 20.2061 154.776 20.1193 154.275C17.4565 138.887 14.5072 121.844 13.1853 106.414L13.1696 106.23L12.9896 106.191C7.1917 104.924 2.91151 100.862 1.19181 96.0778C-0.525628 91.2998 0.308555 85.8007 4.74726 81.6236C9.57647 77.0793 15.1822 77.1603 21.4305 77.2506C22.2819 77.2629 23.1452 77.2754 24.0201 77.2764H24.0206L40.4069 77.2625ZM52.5668 43.8253L52.9752 44.0895C53.8642 43.24 54.6988 42.3112 55.524 41.3927C55.997 40.8662 56.467 40.3432 56.9423 39.8405L56.9424 39.8404C72.5386 23.3377 92.0138 14.9211 111.341 14.9506C130.667 14.98 149.865 23.4542 164.912 40.772C165.235 41.1443 165.555 41.5405 165.882 41.9457C166.058 42.1638 166.237 42.3846 166.419 42.6056C166.934 43.2314 167.473 43.8506 168.051 44.375L168.68 44.9462L168.46 44.1253C168.011 42.4474 167.144 40.7767 166.154 39.1837C165.415 37.9936 164.6 36.8359 163.833 35.747C163.575 35.3794 163.321 35.0196 163.078 34.6691C137.137 -2.75462 79.0729 -1.66676 55.7219 37.5644L55.9367 37.6922L55.7219 37.5644C54.5513 39.5313 53.3337 41.659 52.5668 43.8253ZM47.6372 64.2291L47.881 64.2844L47.6372 64.2291C47.2547 65.9162 47.2022 68.2593 47.2373 70.6028C47.2519 71.5809 47.2817 72.5574 47.3102 73.4918C47.3505 74.8137 47.3882 76.0512 47.3768 77.0892L47.374 77.3491L47.6337 77.3419C68.8526 76.7549 92.3042 76.8622 113.544 77.3244V77.3246L113.554 77.3244C122.63 77.1569 131.755 77.2418 140.879 77.3267C141.735 77.3347 142.591 77.3426 143.447 77.3504C153.426 77.4408 163.397 77.5029 173.287 77.2058L173.53 77.1985L173.53 76.9556L173.521 69.4546V69.4539L173.521 69.2149C173.525 66.891 173.527 65.5753 173.194 64.3329C172.85 63.045 172.15 61.8465 170.778 59.6772C164.375 49.5511 155.231 39.2517 144.316 31.827C133.402 24.4025 120.704 19.8439 107.203 21.2284C89.1905 22.5039 73.0644 32.0108 61.4848 44.592C59.9375 46.2732 56.6985 50.2191 53.7401 54.2147C52.2604 56.2132 50.8481 58.228 49.7511 59.9813C48.661 61.7237 47.8615 63.2397 47.6372 64.2291ZM35.5422 83.3975L35.5353 83.3976C34.281 83.4134 32.6611 83.3698 30.8321 83.3205C30.3565 83.3077 29.8668 83.2945 29.3656 83.2819C26.9414 83.2208 24.2578 83.1732 21.6456 83.248C19.0348 83.3227 16.4867 83.5199 14.3349 83.951C12.1933 84.38 10.3998 85.0488 9.34197 86.0994C6.79013 88.6336 6.56227 92.0077 7.85878 94.8165C9.15285 97.6201 11.97 99.877 15.5317 100.216C17.3316 100.387 19.1796 100.374 20.9913 100.361C21.4761 100.357 21.9583 100.354 22.4362 100.354L143.82 100.343C148.136 100.343 152.453 100.327 156.771 100.311C166.306 100.275 175.844 100.24 185.369 100.38L185.376 100.38C186.531 100.364 188.192 100.383 190.101 100.404C192.117 100.426 194.411 100.451 196.681 100.443C198.884 100.435 201.056 100.396 202.91 100.292C204.756 100.187 206.308 100.017 207.256 99.7408C210.262 98.8638 212.445 96.493 213.289 93.7999C214.134 91.1022 213.638 88.0635 211.261 85.8798C209.61 84.3612 207.51 83.7497 205.331 83.5133C203.721 83.3386 202.041 83.3675 200.451 83.3949C199.899 83.4044 199.357 83.4137 198.833 83.4142L77.0931 83.4313C72.7547 83.4313 68.4145 83.4485 64.074 83.4658C54.5602 83.5036 45.0446 83.5414 35.5422 83.3975ZM20.0902 106.349L19.8056 106.343L19.8363 106.626C21.069 117.998 23.0038 129.91 24.8597 141.336C25.0913 142.762 25.3218 144.181 25.5495 145.59C25.8084 147.193 26.0366 148.937 26.2757 150.765C26.7792 154.613 27.3306 158.828 28.3178 162.855C29.7758 168.803 32.1988 174.421 36.882 177.961C40.0298 180.34 43.9138 181.181 47.9079 181.464C49.9063 181.605 51.9398 181.607 53.9293 181.59C54.2726 181.587 54.6144 181.583 54.9546 181.58C56.589 181.563 58.1834 181.546 59.7035 181.596C67.0897 181.841 73.9412 181.979 81.3693 181.981L107.597 181.984C111.883 181.984 116.174 182.003 120.466 182.021C134.412 182.083 148.381 182.144 162.299 181.567C163.978 181.498 165.594 181.476 167.162 181.456C168.331 181.44 169.474 181.425 170.597 181.391C173.209 181.311 175.676 181.126 177.978 180.582C182.604 179.488 186.544 176.95 189.723 170.981L189.723 170.981L189.728 170.971C190.831 168.644 191.838 165.216 192.752 161.227C193.667 157.233 194.493 152.663 195.228 148.045C196.271 141.487 197.135 134.822 197.815 129.57C198.092 127.427 198.339 125.52 198.556 123.951C198.798 122.194 199.006 120.424 199.213 118.653C199.683 114.646 200.153 110.63 201.031 106.739L201.098 106.443L200.794 106.434C197.195 106.332 193.579 106.353 189.973 106.374C188.476 106.383 186.98 106.391 185.489 106.391L37.3647 106.396C35.7694 106.396 34.1738 106.402 32.5783 106.407C28.4127 106.423 24.2479 106.438 20.0902 106.349ZM168.67 121.556L168.657 121.553L168.644 121.551C163.83 120.74 160.733 123.142 157.442 125.695C157.342 125.772 157.242 125.85 157.142 125.928C153.729 128.571 150.004 131.321 143.793 131.121C139.882 130.995 137.419 129.659 135.195 127.952C134.502 127.419 133.839 126.857 133.16 126.281C132.739 125.924 132.311 125.561 131.866 125.197C130.712 124.253 129.465 123.32 127.974 122.514C125.926 121.405 124.117 121.092 122.482 121.277C120.851 121.462 119.415 122.14 118.106 122.977C117.206 123.553 116.351 124.215 115.534 124.847C115.171 125.128 114.815 125.403 114.467 125.663C113.319 126.516 112.242 127.2 111.146 127.452L111.202 127.695L111.146 127.452C109.413 127.849 107.775 127.074 106.168 125.947C105.542 125.508 104.933 125.024 104.33 124.546C104.161 124.413 103.993 124.279 103.825 124.147C103.064 123.549 102.309 122.982 101.567 122.579C99.7781 121.607 98.1431 121.252 96.6166 121.333C95.0924 121.414 93.6946 121.928 92.3767 122.666C91.0608 123.403 89.8156 124.367 88.5987 125.356C88.3469 125.561 88.0964 125.767 87.8467 125.972C86.8845 126.761 85.934 127.541 84.9605 128.225C81.3409 130.765 78.1532 131.563 75.2688 131.362C72.3772 131.16 69.761 129.954 67.289 128.43C66.0534 127.668 64.8589 126.831 63.6854 126.004L63.5305 125.895C62.4126 125.107 61.3121 124.331 60.2218 123.651C57.9451 122.232 55.67 121.204 53.2961 121.363C49.9313 121.587 48.0133 123.2 46.4359 124.841C46.1847 125.102 45.9444 125.361 45.7095 125.615C45.2017 126.163 44.7184 126.684 44.2013 127.143C43.4538 127.807 42.663 128.312 41.6902 128.528C39.8161 128.943 37.8802 128 37.5696 126.247L37.3234 126.291L37.5696 126.247C37.3938 125.256 37.875 124.094 38.8443 122.866C39.8065 121.648 41.2129 120.413 42.7859 119.29C44.3572 118.169 46.0848 117.167 47.6809 116.414C49.2783 115.661 50.7252 115.165 51.7452 115.037C57.1286 114.702 60.1202 115.806 62.6371 117.478C63.6636 118.16 64.6108 118.935 65.6167 119.759C65.856 119.955 66.0987 120.154 66.3465 120.354C67.6318 121.396 69.0439 122.483 70.8181 123.5C73.0391 124.774 75.0635 125.012 76.9823 124.611C78.8896 124.213 80.6746 123.185 82.4295 121.963C83.2236 121.411 84.0167 120.814 84.8141 120.214C84.8988 120.15 84.9836 120.087 85.0684 120.023C85.9533 119.358 86.8454 118.693 87.7608 118.076C89.5923 116.841 91.5026 115.806 93.5991 115.351C99.7564 114.015 103.876 116.483 108.699 119.372C109.157 119.647 109.622 119.925 110.096 120.205L110.215 120.275L110.338 120.211C111.296 119.718 112.201 119.146 113.095 118.58C113.192 118.519 113.289 118.457 113.386 118.396C114.379 117.769 115.369 117.16 116.436 116.665C119.942 115.039 122.84 114.635 125.335 114.949C127.832 115.264 129.948 116.302 131.888 117.599C133.105 118.413 134.234 119.314 135.347 120.202C136.021 120.74 136.689 121.273 137.367 121.779C139.143 123.105 140.957 124.215 142.997 124.58C145.512 125.029 147.818 124.248 150.064 122.981C151.51 122.166 152.956 121.132 154.426 120.082C155.227 119.511 156.034 118.934 156.851 118.385C159.189 116.816 161.645 115.445 164.395 114.925C167.137 114.408 170.191 114.733 173.732 116.594C174.987 117.253 177.629 118.887 179.84 120.777C180.946 121.722 181.932 122.721 182.584 123.686C183.242 124.658 183.526 125.546 183.327 126.291C183.085 127.193 182.742 127.786 182.339 128.154C181.942 128.517 181.468 128.678 180.921 128.68C179.802 128.684 178.405 128.02 176.896 127.051C175.76 126.322 174.593 125.442 173.47 124.595C173.112 124.324 172.758 124.057 172.411 123.8C171.698 123.27 171.013 122.78 170.386 122.389C169.762 122 169.179 121.698 168.67 121.556ZM109.864 148.949L109.998 149.036L110.133 148.951C115.403 145.646 119.489 144.343 122.814 144.208C126.134 144.073 128.722 145.1 131.002 146.512C132.144 147.219 133.208 148.022 134.25 148.826C134.376 148.923 134.502 149.02 134.627 149.117C135.537 149.82 136.436 150.515 137.352 151.127C139.444 152.524 141.661 153.512 144.408 153.221C146.815 152.966 149.09 151.672 151.381 150.149C151.971 149.757 152.561 149.35 153.156 148.94C154.891 147.744 156.665 146.521 158.57 145.565C161.119 144.285 163.873 143.5 167.012 143.929C170.154 144.359 173.713 146.008 177.86 149.659C178.69 150.39 179.801 151.477 180.41 152.619C180.714 153.188 180.882 153.75 180.845 154.276C180.809 154.793 180.575 155.302 180.019 155.775C179.455 156.254 178.93 156.526 178.433 156.647C177.937 156.768 177.452 156.743 176.96 156.606C175.96 156.326 174.948 155.592 173.786 154.688C173.657 154.588 173.526 154.485 173.393 154.381C171.17 152.643 168.46 150.524 164.564 150.447L164.551 150.446L164.539 150.447C160.802 150.753 158.662 152.395 156.105 154.357C155.719 154.654 155.323 154.958 154.911 155.265C149.961 158.958 145.902 159.986 142.402 159.646C138.891 159.305 135.901 157.586 133.089 155.697C132.54 155.328 131.995 154.95 131.454 154.575C130.62 153.998 129.796 153.427 128.983 152.906C127.637 152.041 126.291 151.291 124.91 150.823C123.526 150.354 122.103 150.168 120.607 150.435C119.112 150.702 117.56 151.419 115.913 152.73C115.436 153.11 114.967 153.554 114.502 153.994C114.232 154.25 113.963 154.505 113.695 154.744C112.95 155.411 112.179 155.994 111.288 156.322C109.705 156.902 108.081 156.04 106.353 154.757C105.927 154.44 105.501 154.103 105.072 153.763L104.994 153.701C104.592 153.382 104.188 153.061 103.784 152.757C102.926 152.111 102.055 151.528 101.179 151.184L101.088 151.416L101.179 151.183C97.1969 149.616 94.0962 150.893 91.2195 152.819C90.3379 153.41 89.4636 154.071 88.5912 154.73C88.0529 155.137 87.5153 155.544 86.9771 155.933C85.5539 156.962 84.1008 157.889 82.5248 158.471C74.4228 161.463 69.0238 157.743 64.1261 154.368C64.0178 154.294 63.9096 154.219 63.8017 154.145C61.3234 152.439 58.9368 150.845 56.3946 150.399C53.8218 149.948 51.1297 150.675 48.0489 153.497C47.2925 154.189 46.4892 154.901 45.6804 155.488C44.8691 156.077 44.0696 156.527 43.3224 156.714C42.5847 156.898 41.9098 156.823 41.3096 156.377C40.7073 155.929 40.147 155.083 39.6966 153.65C40.4629 151.048 42.88 148.737 45.8242 147.013C48.7867 145.279 52.2296 144.171 54.9138 143.967C60.0135 143.727 63.4515 145.918 66.5478 148.246C66.9113 148.519 67.271 148.795 67.6287 149.07C68.7891 149.96 69.928 150.834 71.1028 151.545C72.6468 152.48 74.2761 153.151 76.149 153.234C78.8387 153.353 81.0335 152.28 83.1132 150.853C83.9534 150.276 84.7814 149.637 85.616 148.993C85.8124 148.841 86.0092 148.69 86.2066 148.538C87.2461 147.741 88.3071 146.952 89.4432 146.265C91.7105 144.893 94.2717 143.925 97.5247 144.11C100.784 144.296 104.765 145.641 109.864 148.949Z" fill="#4D4D4D" stroke="#C9EAB1" stroke-width="0.5"/>
</svg>
