<svg width="145" height="145" viewBox="0 0 145 145" fill="none" xmlns="http://www.w3.org/2000/svg">
<path d="M76.2322 3.47363C60.3935 3.47363 54.1087 11.5059 52.192 18.7342C51.1423 22.6929 54.6944 25.8736 58.7898 25.8736H92.8655C96.8042 25.8736 100.295 22.9349 99.541 19.0691C98.1139 11.7565 92.3159 3.47363 76.2322 3.47363Z" stroke="#4D4D4D" stroke-width="6"/>
<path d="M15.6986 126.722L14.0513 128.406C9.09762 133.471 12.686 142 19.7706 142H129.72C136.154 142 139.956 134.789 136.321 129.48L135.168 127.796C133.677 125.618 131.207 124.315 128.567 124.315H21.4178C19.2653 124.315 17.2037 125.183 15.6986 126.722Z" stroke="#4D4D4D" stroke-width="6"/>
<path d="M57.2573 111.937C54.9511 100.344 54.9511 76.4503 73.4006 73.6208C91.8501 70.7913 91.4657 97.9857 88.9674 111.937" stroke="#4D4D4D" stroke-width="6" stroke-linecap="round"/>
<path d="M48.0804 34.1329C47.4653 65.2949 38.0739 94.0821 30.1133 111.865C27.5868 117.509 31.6044 124.316 37.788 124.316H106.02C113.441 124.316 118.646 113.344 115.753 106.51C106.814 85.3971 103.824 54.4729 103.41 33.9905C103.32 29.5261 99.7251 25.874 95.2598 25.874H56.2917C51.7735 25.874 48.1696 29.6156 48.0804 34.1329Z" stroke="#4D4D4D" stroke-width="6"/>
</svg>
